G04 #@! TF.GenerationSoftware,KiCad,Pcbnew,9.0.0*
G04 #@! TF.CreationDate,2025-06-12T15:22:14-04:00*
G04 #@! TF.ProjectId,Oblique Palette 0.5.1 PCB Main,4f626c69-7175-4652-9050-616c65747465,rev?*
G04 #@! TF.SameCoordinates,Original*
G04 #@! TF.FileFunction,Other,User*
%FSLAX46Y46*%
G04 Gerber Fmt 4.6, Leading zero omitted, Abs format (unit mm)*
G04 Created by KiCad (PCBNEW 9.0.0) date 2025-06-12 15:22:14*
%MOMM*%
%LPD*%
G01*
G04 APERTURE LIST*
%ADD10C,0.050000*%
%ADD11C,0.120000*%
G04 APERTURE END LIST*
D10*
G04 #@! TO.C,U1*
X121225000Y-77285000D02*
X121225000Y-66885000D01*
X121225000Y-66885000D02*
X113825000Y-66885000D01*
X113825000Y-77285000D02*
X121225000Y-77285000D01*
X113825000Y-66885000D02*
X113825000Y-77285000D01*
G04 #@! TO.C,R116*
X51570000Y-103245700D02*
X54930000Y-103245700D01*
X51570000Y-105145700D02*
X51570000Y-103245700D01*
X54930000Y-103245700D02*
X54930000Y-105145700D01*
X54930000Y-105145700D02*
X51570000Y-105145700D01*
G04 #@! TO.C,R22*
X74864000Y-38140000D02*
X76764000Y-38140000D01*
X74864000Y-41500000D02*
X74864000Y-38140000D01*
X76764000Y-38140000D02*
X76764000Y-41500000D01*
X76764000Y-41500000D02*
X74864000Y-41500000D01*
G04 #@! TO.C,R161*
X66977000Y-37870000D02*
X66977000Y-39770000D01*
X66977000Y-39770000D02*
X70337000Y-39770000D01*
X70337000Y-37870000D02*
X66977000Y-37870000D01*
X70337000Y-39770000D02*
X70337000Y-37870000D01*
G04 #@! TO.C,R31*
X110878500Y-52870000D02*
X114238500Y-52870000D01*
X110878500Y-54770000D02*
X110878500Y-52870000D01*
X114238500Y-52870000D02*
X114238500Y-54770000D01*
X114238500Y-54770000D02*
X110878500Y-54770000D01*
G04 #@! TO.C,R152*
X202982500Y-118960000D02*
X206342500Y-118960000D01*
X202982500Y-120860000D02*
X202982500Y-118960000D01*
X206342500Y-118960000D02*
X206342500Y-120860000D01*
X206342500Y-120860000D02*
X202982500Y-120860000D01*
G04 #@! TO.C,R101*
X193849500Y-49870000D02*
X197209500Y-49870000D01*
X193849500Y-51770000D02*
X193849500Y-49870000D01*
X197209500Y-49870000D02*
X197209500Y-51770000D01*
X197209500Y-51770000D02*
X193849500Y-51770000D01*
G04 #@! TO.C,R136*
X170320000Y-114460000D02*
X173680000Y-114460000D01*
X170320000Y-116360000D02*
X170320000Y-114460000D01*
X173680000Y-114460000D02*
X173680000Y-116360000D01*
X173680000Y-116360000D02*
X170320000Y-116360000D01*
G04 #@! TO.C,R97*
X76732500Y-118960000D02*
X80092500Y-118960000D01*
X76732500Y-120860000D02*
X76732500Y-118960000D01*
X80092500Y-118960000D02*
X80092500Y-120860000D01*
X80092500Y-120860000D02*
X76732500Y-120860000D01*
G04 #@! TO.C,R94*
X166192500Y-49870000D02*
X169552500Y-49870000D01*
X166192500Y-51770000D02*
X166192500Y-49870000D01*
X169552500Y-49870000D02*
X169552500Y-51770000D01*
X169552500Y-51770000D02*
X166192500Y-51770000D01*
G04 #@! TO.C,R114*
X119820000Y-114460000D02*
X123180000Y-114460000D01*
X119820000Y-116360000D02*
X119820000Y-114460000D01*
X123180000Y-114460000D02*
X123180000Y-116360000D01*
X123180000Y-116360000D02*
X119820000Y-116360000D01*
G04 #@! TO.C,R117*
X127320000Y-111102900D02*
X130680000Y-111102900D01*
X127320000Y-113002900D02*
X127320000Y-111102900D01*
X130680000Y-111102900D02*
X130680000Y-113002900D01*
X130680000Y-113002900D02*
X127320000Y-113002900D01*
G04 #@! TO.C,R4*
X19550000Y-42230000D02*
X21450000Y-42230000D01*
X19550000Y-45590000D02*
X19550000Y-42230000D01*
X21450000Y-42230000D02*
X21450000Y-45590000D01*
X21450000Y-45590000D02*
X19550000Y-45590000D01*
G04 #@! TO.C,R123*
X76820000Y-103245700D02*
X80180000Y-103245700D01*
X76820000Y-105145700D02*
X76820000Y-103245700D01*
X80180000Y-103245700D02*
X80180000Y-105145700D01*
X80180000Y-105145700D02*
X76820000Y-105145700D01*
G04 #@! TO.C,U11*
X35812500Y-91560000D02*
X35812500Y-94960000D01*
X35812500Y-94960000D02*
X39912500Y-94960000D01*
X39912500Y-91560000D02*
X35812500Y-91560000D01*
X39912500Y-94960000D02*
X39912500Y-91560000D01*
G04 #@! TO.C,R74*
X26320000Y-115031400D02*
X29680000Y-115031400D01*
X26320000Y-116931400D02*
X26320000Y-115031400D01*
X29680000Y-115031400D02*
X29680000Y-116931400D01*
X29680000Y-116931400D02*
X26320000Y-116931400D01*
G04 #@! TO.C,R79*
X83221500Y-49870000D02*
X86581500Y-49870000D01*
X83221500Y-51770000D02*
X83221500Y-49870000D01*
X86581500Y-49870000D02*
X86581500Y-51770000D01*
X86581500Y-51770000D02*
X83221500Y-51770000D01*
G04 #@! TO.C,R53*
X193849500Y-56370000D02*
X197209500Y-56370000D01*
X193849500Y-58270000D02*
X193849500Y-56370000D01*
X197209500Y-56370000D02*
X197209500Y-58270000D01*
X197209500Y-58270000D02*
X193849500Y-58270000D01*
G04 #@! TO.C,D41*
X206342000Y-31520000D02*
X206342000Y-26820000D01*
X208642000Y-26820000D02*
X206342000Y-26820000D01*
X208642000Y-26820000D02*
X208642000Y-31520000D01*
X208642000Y-31520000D02*
X206342000Y-31520000D01*
G04 #@! TO.C,R61*
X221506500Y-56370000D02*
X224866500Y-56370000D01*
X221506500Y-58270000D02*
X221506500Y-56370000D01*
X224866500Y-56370000D02*
X224866500Y-58270000D01*
X224866500Y-58270000D02*
X221506500Y-58270000D01*
G04 #@! TO.C,R52*
X185492000Y-42140000D02*
X187392000Y-42140000D01*
X185492000Y-45500000D02*
X185492000Y-42140000D01*
X187392000Y-42140000D02*
X187392000Y-45500000D01*
X187392000Y-45500000D02*
X185492000Y-45500000D01*
G04 #@! TO.C,R12*
X47207000Y-42140000D02*
X49107000Y-42140000D01*
X47207000Y-45500000D02*
X47207000Y-42140000D01*
X49107000Y-42140000D02*
X49107000Y-45500000D01*
X49107000Y-45500000D02*
X47207000Y-45500000D01*
G04 #@! TO.C,R98*
X102070000Y-91460000D02*
X105430000Y-91460000D01*
X102070000Y-93360000D02*
X102070000Y-91460000D01*
X105430000Y-91460000D02*
X105430000Y-93360000D01*
X105430000Y-93360000D02*
X102070000Y-93360000D01*
G04 #@! TO.C,C4*
X39600000Y-76660000D02*
X39600000Y-67010000D01*
X40750000Y-77810000D02*
X39600000Y-76660000D01*
X43500000Y-66160000D02*
X43500000Y-67010000D01*
X43500000Y-67010000D02*
X39600000Y-67010000D01*
X43500000Y-77810000D02*
X40750000Y-77810000D01*
X43500000Y-78660000D02*
X43500000Y-77810000D01*
X46500000Y-66160000D02*
X43500000Y-66160000D01*
X46500000Y-67010000D02*
X46500000Y-66160000D01*
X46500000Y-77810000D02*
X46500000Y-78660000D01*
X46500000Y-78660000D02*
X43500000Y-78660000D01*
X49250000Y-77810000D02*
X46500000Y-77810000D01*
X49250000Y-77810000D02*
X50400000Y-76660000D01*
X50400000Y-67010000D02*
X46500000Y-67010000D01*
X50400000Y-76660000D02*
X50400000Y-67010000D01*
G04 #@! TO.C,R27*
X110878500Y-59870000D02*
X114238500Y-59870000D01*
X110878500Y-61770000D02*
X110878500Y-59870000D01*
X114238500Y-59870000D02*
X114238500Y-61770000D01*
X114238500Y-61770000D02*
X110878500Y-61770000D01*
G04 #@! TO.C,D29*
X151028000Y-31520000D02*
X151028000Y-26820000D01*
X153328000Y-26820000D02*
X151028000Y-26820000D01*
X153328000Y-26820000D02*
X153328000Y-31520000D01*
X153328000Y-31520000D02*
X151028000Y-31520000D01*
G04 #@! TO.C,C2*
X50600000Y-76660000D02*
X50600000Y-67010000D01*
X51750000Y-77810000D02*
X50600000Y-76660000D01*
X54500000Y-66160000D02*
X54500000Y-67010000D01*
X54500000Y-67010000D02*
X50600000Y-67010000D01*
X54500000Y-77810000D02*
X51750000Y-77810000D01*
X54500000Y-78660000D02*
X54500000Y-77810000D01*
X57500000Y-66160000D02*
X54500000Y-66160000D01*
X57500000Y-67010000D02*
X57500000Y-66160000D01*
X57500000Y-77810000D02*
X57500000Y-78660000D01*
X57500000Y-78660000D02*
X54500000Y-78660000D01*
X60250000Y-77810000D02*
X57500000Y-77810000D01*
X60250000Y-77810000D02*
X61400000Y-76660000D01*
X61400000Y-67010000D02*
X57500000Y-67010000D01*
X61400000Y-76660000D02*
X61400000Y-67010000D01*
G04 #@! TO.C,R81*
X44070000Y-114460000D02*
X47430000Y-114460000D01*
X44070000Y-116360000D02*
X44070000Y-114460000D01*
X47430000Y-114460000D02*
X47430000Y-116360000D01*
X47430000Y-116360000D02*
X44070000Y-116360000D01*
G04 #@! TO.C,R100*
X102157500Y-95460000D02*
X105517500Y-95460000D01*
X102157500Y-97360000D02*
X102157500Y-95460000D01*
X105517500Y-95460000D02*
X105517500Y-97360000D01*
X105517500Y-97360000D02*
X102157500Y-97360000D01*
G04 #@! TO.C,R16*
X46707000Y-27640000D02*
X48607000Y-27640000D01*
X46707000Y-31000000D02*
X46707000Y-27640000D01*
X48607000Y-27640000D02*
X48607000Y-31000000D01*
X48607000Y-31000000D02*
X46707000Y-31000000D01*
G04 #@! TO.C,U4*
X51077000Y-38095000D02*
X51077000Y-45495000D01*
X51077000Y-45495000D02*
X60237000Y-45495000D01*
X60237000Y-38095000D02*
X51077000Y-38095000D01*
X60237000Y-45495000D02*
X60237000Y-38095000D01*
G04 #@! TO.C,C14*
X178776000Y-22345700D02*
X180736000Y-22345700D01*
X178776000Y-25745700D02*
X178776000Y-22345700D01*
X180736000Y-22345700D02*
X180736000Y-25745700D01*
X180736000Y-25745700D02*
X178776000Y-25745700D01*
G04 #@! TO.C,R138*
X152570000Y-103245700D02*
X155930000Y-103245700D01*
X152570000Y-105145700D02*
X152570000Y-103245700D01*
X155930000Y-103245700D02*
X155930000Y-105145700D01*
X155930000Y-105145700D02*
X152570000Y-105145700D01*
G04 #@! TO.C,R30*
X102521000Y-38140000D02*
X104421000Y-38140000D01*
X102521000Y-41500000D02*
X102521000Y-38140000D01*
X104421000Y-38140000D02*
X104421000Y-41500000D01*
X104421000Y-41500000D02*
X102521000Y-41500000D01*
G04 #@! TO.C,R141*
X177732500Y-118960000D02*
X181092500Y-118960000D01*
X177732500Y-120860000D02*
X177732500Y-118960000D01*
X181092500Y-118960000D02*
X181092500Y-120860000D01*
X181092500Y-120860000D02*
X177732500Y-120860000D01*
G04 #@! TO.C,U9*
X189362000Y-38095000D02*
X189362000Y-45495000D01*
X189362000Y-45495000D02*
X198522000Y-45495000D01*
X198522000Y-38095000D02*
X189362000Y-38095000D01*
X198522000Y-45495000D02*
X198522000Y-38095000D01*
G04 #@! TO.C,U7*
X134048000Y-38095000D02*
X134048000Y-45495000D01*
X134048000Y-45495000D02*
X143208000Y-45495000D01*
X143208000Y-38095000D02*
X134048000Y-38095000D01*
X143208000Y-45495000D02*
X143208000Y-38095000D01*
G04 #@! TO.C,R73*
X26320000Y-111102900D02*
X29680000Y-111102900D01*
X26320000Y-113002900D02*
X26320000Y-111102900D01*
X29680000Y-111102900D02*
X29680000Y-113002900D01*
X29680000Y-113002900D02*
X26320000Y-113002900D01*
G04 #@! TO.C,R129*
X152570000Y-115031400D02*
X155930000Y-115031400D01*
X152570000Y-116931400D02*
X152570000Y-115031400D01*
X155930000Y-115031400D02*
X155930000Y-116931400D01*
X155930000Y-116931400D02*
X152570000Y-116931400D01*
G04 #@! TO.C,R46*
X157835000Y-38140000D02*
X159735000Y-38140000D01*
X157835000Y-41500000D02*
X157835000Y-38140000D01*
X159735000Y-38140000D02*
X159735000Y-41500000D01*
X159735000Y-41500000D02*
X157835000Y-41500000D01*
G04 #@! TO.C,R125*
X145070000Y-114460000D02*
X148430000Y-114460000D01*
X145070000Y-116360000D02*
X145070000Y-114460000D01*
X148430000Y-114460000D02*
X148430000Y-116360000D01*
X148430000Y-116360000D02*
X145070000Y-116360000D01*
G04 #@! TO.C,R147*
X195570000Y-114460000D02*
X198930000Y-114460000D01*
X195570000Y-116360000D02*
X195570000Y-114460000D01*
X198930000Y-114460000D02*
X198930000Y-116360000D01*
X198930000Y-116360000D02*
X195570000Y-116360000D01*
G04 #@! TO.C,R139*
X177820000Y-111102900D02*
X181180000Y-111102900D01*
X177820000Y-113002900D02*
X177820000Y-111102900D01*
X181180000Y-111102900D02*
X181180000Y-113002900D01*
X181180000Y-113002900D02*
X177820000Y-113002900D01*
G04 #@! TO.C,R11*
X55564500Y-59870000D02*
X58924500Y-59870000D01*
X55564500Y-61770000D02*
X55564500Y-59870000D01*
X58924500Y-59870000D02*
X58924500Y-61770000D01*
X58924500Y-61770000D02*
X55564500Y-61770000D01*
G04 #@! TO.C,R84*
X51570000Y-111102900D02*
X54930000Y-111102900D01*
X51570000Y-113002900D02*
X51570000Y-111102900D01*
X54930000Y-111102900D02*
X54930000Y-113002900D01*
X54930000Y-113002900D02*
X51570000Y-113002900D01*
G04 #@! TO.C,R21*
X83221500Y-56370000D02*
X86581500Y-56370000D01*
X83221500Y-58270000D02*
X83221500Y-56370000D01*
X86581500Y-56370000D02*
X86581500Y-58270000D01*
X86581500Y-58270000D02*
X83221500Y-58270000D01*
G04 #@! TO.C,R63*
X221506500Y-52870000D02*
X224866500Y-52870000D01*
X221506500Y-54770000D02*
X221506500Y-52870000D01*
X224866500Y-52870000D02*
X224866500Y-54770000D01*
X224866500Y-54770000D02*
X221506500Y-54770000D01*
G04 #@! TO.C,U3*
X23420000Y-38185000D02*
X23420000Y-45585000D01*
X23420000Y-45585000D02*
X32580000Y-45585000D01*
X32580000Y-38185000D02*
X23420000Y-38185000D01*
X32580000Y-45585000D02*
X32580000Y-38185000D01*
G04 #@! TO.C,U23*
X187312500Y-91560000D02*
X187312500Y-94960000D01*
X187312500Y-94960000D02*
X191412500Y-94960000D01*
X191412500Y-91560000D02*
X187312500Y-91560000D01*
X191412500Y-94960000D02*
X191412500Y-91560000D01*
G04 #@! TO.C,R19*
X83221500Y-59870000D02*
X86581500Y-59870000D01*
X83221500Y-61770000D02*
X83221500Y-59870000D01*
X86581500Y-59870000D02*
X86581500Y-61770000D01*
X86581500Y-61770000D02*
X83221500Y-61770000D01*
G04 #@! TO.C,U5*
X78734000Y-38095000D02*
X78734000Y-45495000D01*
X78734000Y-45495000D02*
X87894000Y-45495000D01*
X87894000Y-38095000D02*
X78734000Y-38095000D01*
X87894000Y-45495000D02*
X87894000Y-38095000D01*
G04 #@! TO.C,R168*
X207657500Y-91460000D02*
X207657500Y-93360000D01*
X207657500Y-93360000D02*
X211017500Y-93360000D01*
X211017500Y-91460000D02*
X207657500Y-91460000D01*
X211017500Y-93360000D02*
X211017500Y-91460000D01*
G04 #@! TO.C,U13*
X61062500Y-91560000D02*
X61062500Y-94960000D01*
X61062500Y-94960000D02*
X65162500Y-94960000D01*
X65162500Y-91560000D02*
X61062500Y-91560000D01*
X65162500Y-94960000D02*
X65162500Y-91560000D01*
G04 #@! TO.C,R122*
X152657500Y-95460000D02*
X156017500Y-95460000D01*
X152657500Y-97360000D02*
X152657500Y-95460000D01*
X156017500Y-95460000D02*
X156017500Y-97360000D01*
X156017500Y-97360000D02*
X152657500Y-97360000D01*
G04 #@! TO.C,C5*
X72600000Y-76660000D02*
X72600000Y-67010000D01*
X73750000Y-77810000D02*
X72600000Y-76660000D01*
X76500000Y-66160000D02*
X76500000Y-67010000D01*
X76500000Y-67010000D02*
X72600000Y-67010000D01*
X76500000Y-77810000D02*
X73750000Y-77810000D01*
X76500000Y-78660000D02*
X76500000Y-77810000D01*
X79500000Y-66160000D02*
X76500000Y-66160000D01*
X79500000Y-67010000D02*
X79500000Y-66160000D01*
X79500000Y-77810000D02*
X79500000Y-78660000D01*
X79500000Y-78660000D02*
X76500000Y-78660000D01*
X82250000Y-77810000D02*
X79500000Y-77810000D01*
X82250000Y-77810000D02*
X83400000Y-76660000D01*
X83400000Y-67010000D02*
X79500000Y-67010000D01*
X83400000Y-76660000D02*
X83400000Y-67010000D01*
G04 #@! TO.C,R164*
X149948000Y-37870000D02*
X149948000Y-39770000D01*
X149948000Y-39770000D02*
X153308000Y-39770000D01*
X153308000Y-37870000D02*
X149948000Y-37870000D01*
X153308000Y-39770000D02*
X153308000Y-37870000D01*
G04 #@! TO.C,C16*
X234090000Y-22345700D02*
X236050000Y-22345700D01*
X234090000Y-25745700D02*
X234090000Y-22345700D01*
X236050000Y-22345700D02*
X236050000Y-25745700D01*
X236050000Y-25745700D02*
X234090000Y-25745700D01*
G04 #@! TO.C,R45*
X166192500Y-56370000D02*
X169552500Y-56370000D01*
X166192500Y-58270000D02*
X166192500Y-56370000D01*
X169552500Y-56370000D02*
X169552500Y-58270000D01*
X169552500Y-58270000D02*
X166192500Y-58270000D01*
G04 #@! TO.C,R40*
X129678000Y-27640000D02*
X131578000Y-27640000D01*
X129678000Y-31000000D02*
X129678000Y-27640000D01*
X131578000Y-27640000D02*
X131578000Y-31000000D01*
X131578000Y-31000000D02*
X129678000Y-31000000D01*
G04 #@! TO.C,R62*
X213149000Y-38140000D02*
X215049000Y-38140000D01*
X213149000Y-41500000D02*
X213149000Y-38140000D01*
X215049000Y-38140000D02*
X215049000Y-41500000D01*
X215049000Y-41500000D02*
X213149000Y-41500000D01*
G04 #@! TO.C,R154*
X56157500Y-91460000D02*
X56157500Y-93360000D01*
X56157500Y-93360000D02*
X59517500Y-93360000D01*
X59517500Y-91460000D02*
X56157500Y-91460000D01*
X59517500Y-93360000D02*
X59517500Y-91460000D01*
G04 #@! TO.C,R153*
X30907500Y-91460000D02*
X30907500Y-93360000D01*
X30907500Y-93360000D02*
X34267500Y-93360000D01*
X34267500Y-91460000D02*
X30907500Y-91460000D01*
X34267500Y-93360000D02*
X34267500Y-91460000D01*
G04 #@! TO.C,R111*
X127407500Y-95460000D02*
X130767500Y-95460000D01*
X127407500Y-97360000D02*
X127407500Y-95460000D01*
X130767500Y-95460000D02*
X130767500Y-97360000D01*
X130767500Y-97360000D02*
X127407500Y-97360000D01*
G04 #@! TO.C,R68*
X27907500Y-49960000D02*
X31267500Y-49960000D01*
X27907500Y-51860000D02*
X27907500Y-49960000D01*
X31267500Y-49960000D02*
X31267500Y-51860000D01*
X31267500Y-51860000D02*
X27907500Y-51860000D01*
G04 #@! TO.C,R107*
X102070000Y-115031400D02*
X105430000Y-115031400D01*
X102070000Y-116931400D02*
X102070000Y-115031400D01*
X105430000Y-115031400D02*
X105430000Y-116931400D01*
X105430000Y-116931400D02*
X102070000Y-116931400D01*
G04 #@! TO.C,R131*
X177820000Y-91460000D02*
X181180000Y-91460000D01*
X177820000Y-93360000D02*
X177820000Y-91460000D01*
X181180000Y-91460000D02*
X181180000Y-93360000D01*
X181180000Y-93360000D02*
X177820000Y-93360000D01*
G04 #@! TO.C,R140*
X177820000Y-115031400D02*
X181180000Y-115031400D01*
X177820000Y-116931400D02*
X177820000Y-115031400D01*
X181180000Y-115031400D02*
X181180000Y-116931400D01*
X181180000Y-116931400D02*
X177820000Y-116931400D01*
G04 #@! TO.C,U18*
X101960000Y-81185000D02*
X101960000Y-88585000D01*
X101960000Y-88585000D02*
X111120000Y-88585000D01*
X111120000Y-81185000D02*
X101960000Y-81185000D01*
X111120000Y-88585000D02*
X111120000Y-81185000D01*
G04 #@! TO.C,D46*
X230449000Y-31520000D02*
X230449000Y-26820000D01*
X232749000Y-26820000D02*
X230449000Y-26820000D01*
X232749000Y-26820000D02*
X232749000Y-31520000D01*
X232749000Y-31520000D02*
X230449000Y-31520000D01*
G04 #@! TO.C,R135*
X177820000Y-107174300D02*
X181180000Y-107174300D01*
X177820000Y-109074300D02*
X177820000Y-107174300D01*
X181180000Y-107174300D02*
X181180000Y-109074300D01*
X181180000Y-109074300D02*
X177820000Y-109074300D01*
G04 #@! TO.C,D47*
X233999000Y-26820000D02*
X233999000Y-31520000D01*
X233999000Y-26820000D02*
X236299000Y-26820000D01*
X233999000Y-31520000D02*
X236299000Y-31520000D01*
X236299000Y-31520000D02*
X236299000Y-26820000D01*
G04 #@! TO.C,R93*
X69407500Y-119960000D02*
X72767500Y-119960000D01*
X69407500Y-121860000D02*
X69407500Y-119960000D01*
X72767500Y-119960000D02*
X72767500Y-121860000D01*
X72767500Y-121860000D02*
X69407500Y-121860000D01*
G04 #@! TO.C,D4*
X36850000Y-31610000D02*
X36850000Y-26910000D01*
X39150000Y-26910000D02*
X36850000Y-26910000D01*
X39150000Y-26910000D02*
X39150000Y-31610000D01*
X39150000Y-31610000D02*
X36850000Y-31610000D01*
G04 #@! TO.C,R38*
X130178000Y-38140000D02*
X132078000Y-38140000D01*
X130178000Y-41500000D02*
X130178000Y-38140000D01*
X132078000Y-38140000D02*
X132078000Y-41500000D01*
X132078000Y-41500000D02*
X130178000Y-41500000D01*
G04 #@! TO.C,R118*
X127320000Y-115031400D02*
X130680000Y-115031400D01*
X127320000Y-116931400D02*
X127320000Y-115031400D01*
X130680000Y-115031400D02*
X130680000Y-116931400D01*
X130680000Y-116931400D02*
X127320000Y-116931400D01*
G04 #@! TO.C,C6*
X28600000Y-76660000D02*
X28600000Y-67010000D01*
X29750000Y-77810000D02*
X28600000Y-76660000D01*
X32500000Y-66160000D02*
X32500000Y-67010000D01*
X32500000Y-67010000D02*
X28600000Y-67010000D01*
X32500000Y-77810000D02*
X29750000Y-77810000D01*
X32500000Y-78660000D02*
X32500000Y-77810000D01*
X35500000Y-66160000D02*
X32500000Y-66160000D01*
X35500000Y-67010000D02*
X35500000Y-66160000D01*
X35500000Y-77810000D02*
X35500000Y-78660000D01*
X35500000Y-78660000D02*
X32500000Y-78660000D01*
X38250000Y-77810000D02*
X35500000Y-77810000D01*
X38250000Y-77810000D02*
X39400000Y-76660000D01*
X39400000Y-67010000D02*
X35500000Y-67010000D01*
X39400000Y-76660000D02*
X39400000Y-67010000D01*
G04 #@! TO.C,U25*
X212562500Y-91560000D02*
X212562500Y-94960000D01*
X212562500Y-94960000D02*
X216662500Y-94960000D01*
X216662500Y-91560000D02*
X212562500Y-91560000D01*
X216662500Y-94960000D02*
X216662500Y-91560000D01*
G04 #@! TO.C,R160*
X39320000Y-37960000D02*
X39320000Y-39860000D01*
X39320000Y-39860000D02*
X42680000Y-39860000D01*
X42680000Y-37960000D02*
X39320000Y-37960000D01*
X42680000Y-39860000D02*
X42680000Y-37960000D01*
G04 #@! TO.C,R70*
X18820000Y-114460000D02*
X22180000Y-114460000D01*
X18820000Y-116360000D02*
X18820000Y-114460000D01*
X22180000Y-114460000D02*
X22180000Y-116360000D01*
X22180000Y-116360000D02*
X18820000Y-116360000D01*
G04 #@! TO.C,R149*
X203070000Y-103245700D02*
X206430000Y-103245700D01*
X203070000Y-105145700D02*
X203070000Y-103245700D01*
X206430000Y-103245700D02*
X206430000Y-105145700D01*
X206430000Y-105145700D02*
X203070000Y-105145700D01*
G04 #@! TO.C,R56*
X184992000Y-27640000D02*
X186892000Y-27640000D01*
X184992000Y-31000000D02*
X184992000Y-27640000D01*
X186892000Y-27640000D02*
X186892000Y-31000000D01*
X186892000Y-31000000D02*
X184992000Y-31000000D01*
G04 #@! TO.C,R7*
X27907500Y-52960000D02*
X31267500Y-52960000D01*
X27907500Y-54860000D02*
X27907500Y-52960000D01*
X31267500Y-52960000D02*
X31267500Y-54860000D01*
X31267500Y-54860000D02*
X27907500Y-54860000D01*
G04 #@! TO.C,R5*
X27907500Y-56460000D02*
X31267500Y-56460000D01*
X27907500Y-58360000D02*
X27907500Y-56460000D01*
X31267500Y-56460000D02*
X31267500Y-58360000D01*
X31267500Y-58360000D02*
X27907500Y-58360000D01*
G04 #@! TO.C,R145*
X177820000Y-103245700D02*
X181180000Y-103245700D01*
X177820000Y-105145700D02*
X177820000Y-103245700D01*
X181180000Y-103245700D02*
X181180000Y-105145700D01*
X181180000Y-105145700D02*
X177820000Y-105145700D01*
G04 #@! TO.C,C1*
X97600000Y-76660000D02*
X97600000Y-67010000D01*
X98750000Y-77810000D02*
X97600000Y-76660000D01*
X101500000Y-66160000D02*
X101500000Y-67010000D01*
X101500000Y-67010000D02*
X97600000Y-67010000D01*
X101500000Y-77810000D02*
X98750000Y-77810000D01*
X101500000Y-78660000D02*
X101500000Y-77810000D01*
X104500000Y-66160000D02*
X101500000Y-66160000D01*
X104500000Y-67010000D02*
X104500000Y-66160000D01*
X104500000Y-77810000D02*
X104500000Y-78660000D01*
X104500000Y-78660000D02*
X101500000Y-78660000D01*
X107250000Y-77810000D02*
X104500000Y-77810000D01*
X107250000Y-77810000D02*
X108400000Y-76660000D01*
X108400000Y-67010000D02*
X104500000Y-67010000D01*
X108400000Y-76660000D02*
X108400000Y-67010000D01*
G04 #@! TO.C,U19*
X136812500Y-91560000D02*
X136812500Y-94960000D01*
X136812500Y-94960000D02*
X140912500Y-94960000D01*
X140912500Y-91560000D02*
X136812500Y-91560000D01*
X140912500Y-94960000D02*
X140912500Y-91560000D01*
G04 #@! TO.C,R39*
X138535500Y-52870000D02*
X141895500Y-52870000D01*
X138535500Y-54770000D02*
X138535500Y-52870000D01*
X141895500Y-52870000D02*
X141895500Y-54770000D01*
X141895500Y-54770000D02*
X138535500Y-54770000D01*
G04 #@! TO.C,R157*
X131907500Y-91460000D02*
X131907500Y-93360000D01*
X131907500Y-93360000D02*
X135267500Y-93360000D01*
X135267500Y-91460000D02*
X131907500Y-91460000D01*
X135267500Y-93360000D02*
X135267500Y-91460000D01*
G04 #@! TO.C,R43*
X166192500Y-59870000D02*
X169552500Y-59870000D01*
X166192500Y-61770000D02*
X166192500Y-59870000D01*
X169552500Y-59870000D02*
X169552500Y-61770000D01*
X169552500Y-61770000D02*
X166192500Y-61770000D01*
G04 #@! TO.C,R148*
X195657500Y-119960000D02*
X199017500Y-119960000D01*
X195657500Y-121860000D02*
X195657500Y-119960000D01*
X199017500Y-119960000D02*
X199017500Y-121860000D01*
X199017500Y-121860000D02*
X195657500Y-121860000D01*
G04 #@! TO.C,R128*
X152570000Y-111102900D02*
X155930000Y-111102900D01*
X152570000Y-113002900D02*
X152570000Y-111102900D01*
X155930000Y-111102900D02*
X155930000Y-113002900D01*
X155930000Y-113002900D02*
X152570000Y-113002900D01*
G04 #@! TO.C,U20*
X127210000Y-81185000D02*
X127210000Y-88585000D01*
X127210000Y-88585000D02*
X136370000Y-88585000D01*
X136370000Y-81185000D02*
X127210000Y-81185000D01*
X136370000Y-88585000D02*
X136370000Y-81185000D01*
G04 #@! TO.C,U22*
X152460000Y-81185000D02*
X152460000Y-88585000D01*
X152460000Y-88585000D02*
X161620000Y-88585000D01*
X161620000Y-81185000D02*
X152460000Y-81185000D01*
X161620000Y-88585000D02*
X161620000Y-81185000D01*
G04 #@! TO.C,U21*
X162062500Y-91560000D02*
X162062500Y-94960000D01*
X162062500Y-94960000D02*
X166162500Y-94960000D01*
X166162500Y-91560000D02*
X162062500Y-91560000D01*
X166162500Y-94960000D02*
X166162500Y-91560000D01*
G04 #@! TO.C,R158*
X157157500Y-91460000D02*
X157157500Y-93360000D01*
X157157500Y-93360000D02*
X160517500Y-93360000D01*
X160517500Y-91460000D02*
X157157500Y-91460000D01*
X160517500Y-93360000D02*
X160517500Y-91460000D01*
G04 #@! TO.C,R95*
X76820000Y-111102900D02*
X80180000Y-111102900D01*
X76820000Y-113002900D02*
X76820000Y-111102900D01*
X80180000Y-111102900D02*
X80180000Y-113002900D01*
X80180000Y-113002900D02*
X76820000Y-113002900D01*
D11*
G04 #@! TO.C,U2*
X220500000Y-71280000D02*
X242500000Y-71280000D01*
X220500000Y-123280000D02*
X220500000Y-71280000D01*
X242500000Y-71280000D02*
X242500000Y-123280000D01*
X242500000Y-123280000D02*
X220500000Y-123280000D01*
D10*
G04 #@! TO.C,D5*
X40400000Y-31610000D02*
X40400000Y-26910000D01*
X42700000Y-26910000D02*
X40400000Y-26910000D01*
X42700000Y-26910000D02*
X42700000Y-31610000D01*
X42700000Y-31610000D02*
X40400000Y-31610000D01*
G04 #@! TO.C,R163*
X122291000Y-37870000D02*
X122291000Y-39770000D01*
X122291000Y-39770000D02*
X125651000Y-39770000D01*
X125651000Y-37870000D02*
X122291000Y-37870000D01*
X125651000Y-39770000D02*
X125651000Y-37870000D01*
G04 #@! TO.C,R90*
X138535500Y-49870000D02*
X141895500Y-49870000D01*
X138535500Y-51770000D02*
X138535500Y-49870000D01*
X141895500Y-49870000D02*
X141895500Y-51770000D01*
X141895500Y-51770000D02*
X138535500Y-51770000D01*
G04 #@! TO.C,R59*
X221506500Y-59870000D02*
X224866500Y-59870000D01*
X221506500Y-61770000D02*
X221506500Y-59870000D01*
X224866500Y-59870000D02*
X224866500Y-61770000D01*
X224866500Y-61770000D02*
X221506500Y-61770000D01*
G04 #@! TO.C,R20*
X74864000Y-42140000D02*
X76764000Y-42140000D01*
X74864000Y-45500000D02*
X74864000Y-42140000D01*
X76764000Y-42140000D02*
X76764000Y-45500000D01*
X76764000Y-45500000D02*
X74864000Y-45500000D01*
G04 #@! TO.C,R8*
X19050000Y-27730000D02*
X20950000Y-27730000D01*
X19050000Y-31090000D02*
X19050000Y-27730000D01*
X20950000Y-27730000D02*
X20950000Y-31090000D01*
X20950000Y-31090000D02*
X19050000Y-31090000D01*
G04 #@! TO.C,R155*
X81407500Y-91460000D02*
X81407500Y-93360000D01*
X81407500Y-93360000D02*
X84767500Y-93360000D01*
X84767500Y-91460000D02*
X81407500Y-91460000D01*
X84767500Y-93360000D02*
X84767500Y-91460000D01*
G04 #@! TO.C,R124*
X152570000Y-107174300D02*
X155930000Y-107174300D01*
X152570000Y-109074300D02*
X152570000Y-107174300D01*
X155930000Y-107174300D02*
X155930000Y-109074300D01*
X155930000Y-109074300D02*
X152570000Y-109074300D01*
G04 #@! TO.C,R80*
X51570000Y-107174300D02*
X54930000Y-107174300D01*
X51570000Y-109074300D02*
X51570000Y-107174300D01*
X54930000Y-107174300D02*
X54930000Y-109074300D01*
X54930000Y-109074300D02*
X51570000Y-109074300D01*
G04 #@! TO.C,D10*
X64507000Y-31520000D02*
X64507000Y-26820000D01*
X66807000Y-26820000D02*
X64507000Y-26820000D01*
X66807000Y-26820000D02*
X66807000Y-31520000D01*
X66807000Y-31520000D02*
X64507000Y-31520000D01*
G04 #@! TO.C,R96*
X76820000Y-115031400D02*
X80180000Y-115031400D01*
X76820000Y-116931400D02*
X76820000Y-115031400D01*
X80180000Y-115031400D02*
X80180000Y-116931400D01*
X80180000Y-116931400D02*
X76820000Y-116931400D01*
G04 #@! TO.C,R55*
X193849500Y-52870000D02*
X197209500Y-52870000D01*
X193849500Y-54770000D02*
X193849500Y-52870000D01*
X197209500Y-52870000D02*
X197209500Y-54770000D01*
X197209500Y-54770000D02*
X193849500Y-54770000D01*
G04 #@! TO.C,R75*
X26232500Y-118960000D02*
X29592500Y-118960000D01*
X26232500Y-120860000D02*
X26232500Y-118960000D01*
X29592500Y-118960000D02*
X29592500Y-120860000D01*
X29592500Y-120860000D02*
X26232500Y-120860000D01*
G04 #@! TO.C,R35*
X138535500Y-59870000D02*
X141895500Y-59870000D01*
X138535500Y-61770000D02*
X138535500Y-59870000D01*
X141895500Y-59870000D02*
X141895500Y-61770000D01*
X141895500Y-61770000D02*
X138535500Y-61770000D01*
G04 #@! TO.C,R165*
X177605000Y-37870000D02*
X177605000Y-39770000D01*
X177605000Y-39770000D02*
X180965000Y-39770000D01*
X180965000Y-37870000D02*
X177605000Y-37870000D01*
X180965000Y-39770000D02*
X180965000Y-37870000D01*
G04 #@! TO.C,D28*
X147478000Y-31520000D02*
X147478000Y-26820000D01*
X149778000Y-26820000D02*
X147478000Y-26820000D01*
X149778000Y-26820000D02*
X149778000Y-31520000D01*
X149778000Y-31520000D02*
X147478000Y-31520000D01*
G04 #@! TO.C,C12*
X123462000Y-22345700D02*
X125422000Y-22345700D01*
X123462000Y-25745700D02*
X123462000Y-22345700D01*
X125422000Y-22345700D02*
X125422000Y-25745700D01*
X125422000Y-25745700D02*
X123462000Y-25745700D01*
G04 #@! TO.C,R64*
X212649000Y-27640000D02*
X214549000Y-27640000D01*
X212649000Y-31000000D02*
X212649000Y-27640000D01*
X214549000Y-27640000D02*
X214549000Y-31000000D01*
X214549000Y-31000000D02*
X212649000Y-31000000D01*
G04 #@! TO.C,R83*
X110878500Y-49870000D02*
X114238500Y-49870000D01*
X110878500Y-51770000D02*
X110878500Y-49870000D01*
X114238500Y-49870000D02*
X114238500Y-51770000D01*
X114238500Y-51770000D02*
X110878500Y-51770000D01*
G04 #@! TO.C,D35*
X178685000Y-31520000D02*
X178685000Y-26820000D01*
X180985000Y-26820000D02*
X178685000Y-26820000D01*
X180985000Y-26820000D02*
X180985000Y-31520000D01*
X180985000Y-31520000D02*
X178685000Y-31520000D01*
G04 #@! TO.C,C15*
X206433000Y-22345700D02*
X208393000Y-22345700D01*
X206433000Y-25745700D02*
X206433000Y-22345700D01*
X208393000Y-22345700D02*
X208393000Y-25745700D01*
X208393000Y-25745700D02*
X206433000Y-25745700D01*
G04 #@! TO.C,R133*
X177907500Y-95460000D02*
X181267500Y-95460000D01*
X177907500Y-97360000D02*
X177907500Y-95460000D01*
X181267500Y-95460000D02*
X181267500Y-97360000D01*
X181267500Y-97360000D02*
X177907500Y-97360000D01*
G04 #@! TO.C,R85*
X51570000Y-115031400D02*
X54930000Y-115031400D01*
X51570000Y-116931400D02*
X51570000Y-115031400D01*
X54930000Y-115031400D02*
X54930000Y-116931400D01*
X54930000Y-116931400D02*
X51570000Y-116931400D01*
G04 #@! TO.C,R32*
X102021000Y-27640000D02*
X103921000Y-27640000D01*
X102021000Y-31000000D02*
X102021000Y-27640000D01*
X103921000Y-27640000D02*
X103921000Y-31000000D01*
X103921000Y-31000000D02*
X102021000Y-31000000D01*
G04 #@! TO.C,U10*
X217019000Y-38095000D02*
X217019000Y-45495000D01*
X217019000Y-45495000D02*
X226179000Y-45495000D01*
X226179000Y-38095000D02*
X217019000Y-38095000D01*
X226179000Y-45495000D02*
X226179000Y-38095000D01*
G04 #@! TO.C,R54*
X185492000Y-38140000D02*
X187392000Y-38140000D01*
X185492000Y-41500000D02*
X185492000Y-38140000D01*
X187392000Y-38140000D02*
X187392000Y-41500000D01*
X187392000Y-41500000D02*
X185492000Y-41500000D01*
G04 #@! TO.C,R37*
X138535500Y-56370000D02*
X141895500Y-56370000D01*
X138535500Y-58270000D02*
X138535500Y-56370000D01*
X141895500Y-56370000D02*
X141895500Y-58270000D01*
X141895500Y-58270000D02*
X138535500Y-58270000D01*
G04 #@! TO.C,R69*
X26320000Y-107174300D02*
X29680000Y-107174300D01*
X26320000Y-109074300D02*
X26320000Y-107174300D01*
X29680000Y-107174300D02*
X29680000Y-109074300D01*
X29680000Y-109074300D02*
X26320000Y-109074300D01*
G04 #@! TO.C,R108*
X101982500Y-118960000D02*
X105342500Y-118960000D01*
X101982500Y-120860000D02*
X101982500Y-118960000D01*
X105342500Y-118960000D02*
X105342500Y-120860000D01*
X105342500Y-120860000D02*
X101982500Y-120860000D01*
G04 #@! TO.C,U26*
X202960000Y-81185000D02*
X202960000Y-88585000D01*
X202960000Y-88585000D02*
X212120000Y-88585000D01*
X212120000Y-81185000D02*
X202960000Y-81185000D01*
X212120000Y-88585000D02*
X212120000Y-81185000D01*
G04 #@! TO.C,R28*
X102521000Y-42140000D02*
X104421000Y-42140000D01*
X102521000Y-45500000D02*
X102521000Y-42140000D01*
X104421000Y-42140000D02*
X104421000Y-45500000D01*
X104421000Y-45500000D02*
X102521000Y-45500000D01*
G04 #@! TO.C,R156*
X106657500Y-91460000D02*
X106657500Y-93360000D01*
X106657500Y-93360000D02*
X110017500Y-93360000D01*
X110017500Y-91460000D02*
X106657500Y-91460000D01*
X110017500Y-93360000D02*
X110017500Y-91460000D01*
G04 #@! TO.C,D16*
X92164000Y-31520000D02*
X92164000Y-26820000D01*
X94464000Y-26820000D02*
X92164000Y-26820000D01*
X94464000Y-26820000D02*
X94464000Y-31520000D01*
X94464000Y-31520000D02*
X92164000Y-31520000D01*
G04 #@! TO.C,R150*
X203070000Y-111102900D02*
X206430000Y-111102900D01*
X203070000Y-113002900D02*
X203070000Y-111102900D01*
X206430000Y-111102900D02*
X206430000Y-113002900D01*
X206430000Y-113002900D02*
X203070000Y-113002900D01*
G04 #@! TO.C,U15*
X86312500Y-91560000D02*
X86312500Y-94960000D01*
X86312500Y-94960000D02*
X90412500Y-94960000D01*
X90412500Y-91560000D02*
X86312500Y-91560000D01*
X90412500Y-94960000D02*
X90412500Y-91560000D01*
G04 #@! TO.C,R109*
X127320000Y-91460000D02*
X130680000Y-91460000D01*
X127320000Y-93360000D02*
X127320000Y-91460000D01*
X130680000Y-91460000D02*
X130680000Y-93360000D01*
X130680000Y-93360000D02*
X127320000Y-93360000D01*
G04 #@! TO.C,C8*
X17600000Y-76660000D02*
X17600000Y-67010000D01*
X18750000Y-77810000D02*
X17600000Y-76660000D01*
X21500000Y-66160000D02*
X21500000Y-67010000D01*
X21500000Y-67010000D02*
X17600000Y-67010000D01*
X21500000Y-77810000D02*
X18750000Y-77810000D01*
X21500000Y-78660000D02*
X21500000Y-77810000D01*
X24500000Y-66160000D02*
X21500000Y-66160000D01*
X24500000Y-67010000D02*
X24500000Y-66160000D01*
X24500000Y-77810000D02*
X24500000Y-78660000D01*
X24500000Y-78660000D02*
X21500000Y-78660000D01*
X27250000Y-77810000D02*
X24500000Y-77810000D01*
X27250000Y-77810000D02*
X28400000Y-76660000D01*
X28400000Y-67010000D02*
X24500000Y-67010000D01*
X28400000Y-76660000D02*
X28400000Y-67010000D01*
G04 #@! TO.C,R106*
X102070000Y-111102900D02*
X105430000Y-111102900D01*
X102070000Y-113002900D02*
X102070000Y-111102900D01*
X105430000Y-111102900D02*
X105430000Y-113002900D01*
X105430000Y-113002900D02*
X102070000Y-113002900D01*
G04 #@! TO.C,R15*
X55564500Y-52870000D02*
X58924500Y-52870000D01*
X55564500Y-54770000D02*
X55564500Y-52870000D01*
X58924500Y-52870000D02*
X58924500Y-54770000D01*
X58924500Y-54770000D02*
X55564500Y-54770000D01*
G04 #@! TO.C,C3*
X86600000Y-76660000D02*
X86600000Y-67010000D01*
X87750000Y-77810000D02*
X86600000Y-76660000D01*
X90500000Y-66160000D02*
X90500000Y-67010000D01*
X90500000Y-67010000D02*
X86600000Y-67010000D01*
X90500000Y-77810000D02*
X87750000Y-77810000D01*
X90500000Y-78660000D02*
X90500000Y-77810000D01*
X93500000Y-66160000D02*
X90500000Y-66160000D01*
X93500000Y-67010000D02*
X93500000Y-66160000D01*
X93500000Y-77810000D02*
X93500000Y-78660000D01*
X93500000Y-78660000D02*
X90500000Y-78660000D01*
X96250000Y-77810000D02*
X93500000Y-77810000D01*
X96250000Y-77810000D02*
X97400000Y-76660000D01*
X97400000Y-67010000D02*
X93500000Y-67010000D01*
X97400000Y-76660000D02*
X97400000Y-67010000D01*
G04 #@! TO.C,C10*
X68148000Y-22345700D02*
X70108000Y-22345700D01*
X68148000Y-25745700D02*
X68148000Y-22345700D01*
X70108000Y-22345700D02*
X70108000Y-25745700D01*
X70108000Y-25745700D02*
X68148000Y-25745700D01*
G04 #@! TO.C,R127*
X102070000Y-103245700D02*
X105430000Y-103245700D01*
X102070000Y-105145700D02*
X102070000Y-103245700D01*
X105430000Y-103245700D02*
X105430000Y-105145700D01*
X105430000Y-105145700D02*
X102070000Y-105145700D01*
G04 #@! TO.C,R103*
X94570000Y-114460000D02*
X97930000Y-114460000D01*
X94570000Y-116360000D02*
X94570000Y-114460000D01*
X97930000Y-114460000D02*
X97930000Y-116360000D01*
X97930000Y-116360000D02*
X94570000Y-116360000D01*
G04 #@! TO.C,R36*
X130178000Y-42140000D02*
X132078000Y-42140000D01*
X130178000Y-45500000D02*
X130178000Y-42140000D01*
X132078000Y-42140000D02*
X132078000Y-45500000D01*
X132078000Y-45500000D02*
X130178000Y-45500000D01*
G04 #@! TO.C,C11*
X95805000Y-22345700D02*
X97765000Y-22345700D01*
X95805000Y-25745700D02*
X95805000Y-22345700D01*
X97765000Y-22345700D02*
X97765000Y-25745700D01*
X97765000Y-25745700D02*
X95805000Y-25745700D01*
G04 #@! TO.C,R78*
X51657500Y-95460000D02*
X55017500Y-95460000D01*
X51657500Y-97360000D02*
X51657500Y-95460000D01*
X55017500Y-95460000D02*
X55017500Y-97360000D01*
X55017500Y-97360000D02*
X51657500Y-97360000D01*
G04 #@! TO.C,R134*
X127320000Y-103245700D02*
X130680000Y-103245700D01*
X127320000Y-105145700D02*
X127320000Y-103245700D01*
X130680000Y-103245700D02*
X130680000Y-105145700D01*
X130680000Y-105145700D02*
X127320000Y-105145700D01*
G04 #@! TO.C,R146*
X203070000Y-107174300D02*
X206430000Y-107174300D01*
X203070000Y-109074300D02*
X203070000Y-107174300D01*
X206430000Y-107174300D02*
X206430000Y-109074300D01*
X206430000Y-109074300D02*
X203070000Y-109074300D01*
G04 #@! TO.C,R126*
X145157500Y-119960000D02*
X148517500Y-119960000D01*
X145157500Y-121860000D02*
X145157500Y-119960000D01*
X148517500Y-119960000D02*
X148517500Y-121860000D01*
X148517500Y-121860000D02*
X145157500Y-121860000D01*
G04 #@! TO.C,C9*
X40491000Y-22435700D02*
X42451000Y-22435700D01*
X40491000Y-25835700D02*
X40491000Y-22435700D01*
X42451000Y-22435700D02*
X42451000Y-25835700D01*
X42451000Y-25835700D02*
X40491000Y-25835700D01*
G04 #@! TO.C,U24*
X177710000Y-81185000D02*
X177710000Y-88585000D01*
X177710000Y-88585000D02*
X186870000Y-88585000D01*
X186870000Y-81185000D02*
X177710000Y-81185000D01*
X186870000Y-88585000D02*
X186870000Y-81185000D01*
G04 #@! TO.C,R76*
X51570000Y-91460000D02*
X54930000Y-91460000D01*
X51570000Y-93360000D02*
X51570000Y-91460000D01*
X54930000Y-91460000D02*
X54930000Y-93360000D01*
X54930000Y-93360000D02*
X51570000Y-93360000D01*
G04 #@! TO.C,R23*
X83221500Y-52870000D02*
X86581500Y-52870000D01*
X83221500Y-54770000D02*
X83221500Y-52870000D01*
X86581500Y-52870000D02*
X86581500Y-54770000D01*
X86581500Y-54770000D02*
X83221500Y-54770000D01*
G04 #@! TO.C,R24*
X74364000Y-27640000D02*
X76264000Y-27640000D01*
X74364000Y-31000000D02*
X74364000Y-27640000D01*
X76264000Y-27640000D02*
X76264000Y-31000000D01*
X76264000Y-31000000D02*
X74364000Y-31000000D01*
G04 #@! TO.C,R3*
X27907500Y-59960000D02*
X31267500Y-59960000D01*
X27907500Y-61860000D02*
X27907500Y-59960000D01*
X31267500Y-59960000D02*
X31267500Y-61860000D01*
X31267500Y-61860000D02*
X27907500Y-61860000D01*
G04 #@! TO.C,R86*
X51482500Y-118960000D02*
X54842500Y-118960000D01*
X51482500Y-120860000D02*
X51482500Y-118960000D01*
X54842500Y-118960000D02*
X54842500Y-120860000D01*
X54842500Y-120860000D02*
X51482500Y-120860000D01*
G04 #@! TO.C,C13*
X151119000Y-22345700D02*
X153079000Y-22345700D01*
X151119000Y-25745700D02*
X151119000Y-22345700D01*
X153079000Y-22345700D02*
X153079000Y-25745700D01*
X153079000Y-25745700D02*
X151119000Y-25745700D01*
G04 #@! TO.C,R60*
X213149000Y-42140000D02*
X215049000Y-42140000D01*
X213149000Y-45500000D02*
X213149000Y-42140000D01*
X215049000Y-42140000D02*
X215049000Y-45500000D01*
X215049000Y-45500000D02*
X213149000Y-45500000D01*
G04 #@! TO.C,R119*
X127232500Y-118960000D02*
X130592500Y-118960000D01*
X127232500Y-120860000D02*
X127232500Y-118960000D01*
X130592500Y-118960000D02*
X130592500Y-120860000D01*
X130592500Y-120860000D02*
X127232500Y-120860000D01*
G04 #@! TO.C,R166*
X205262000Y-37870000D02*
X205262000Y-39770000D01*
X205262000Y-39770000D02*
X208622000Y-39770000D01*
X208622000Y-37870000D02*
X205262000Y-37870000D01*
X208622000Y-39770000D02*
X208622000Y-37870000D01*
G04 #@! TO.C,R67*
X26407500Y-95460000D02*
X29767500Y-95460000D01*
X26407500Y-97360000D02*
X26407500Y-95460000D01*
X29767500Y-95460000D02*
X29767500Y-97360000D01*
X29767500Y-97360000D02*
X26407500Y-97360000D01*
G04 #@! TO.C,C7*
X61600000Y-76660000D02*
X61600000Y-67010000D01*
X62750000Y-77810000D02*
X61600000Y-76660000D01*
X65500000Y-66160000D02*
X65500000Y-67010000D01*
X65500000Y-67010000D02*
X61600000Y-67010000D01*
X65500000Y-77810000D02*
X62750000Y-77810000D01*
X65500000Y-78660000D02*
X65500000Y-77810000D01*
X68500000Y-66160000D02*
X65500000Y-66160000D01*
X68500000Y-67010000D02*
X68500000Y-66160000D01*
X68500000Y-77810000D02*
X68500000Y-78660000D01*
X68500000Y-78660000D02*
X65500000Y-78660000D01*
X71250000Y-77810000D02*
X68500000Y-77810000D01*
X71250000Y-77810000D02*
X72400000Y-76660000D01*
X72400000Y-67010000D02*
X68500000Y-67010000D01*
X72400000Y-76660000D02*
X72400000Y-67010000D01*
G04 #@! TO.C,R159*
X182407500Y-91460000D02*
X182407500Y-93360000D01*
X182407500Y-93360000D02*
X185767500Y-93360000D01*
X185767500Y-91460000D02*
X182407500Y-91460000D01*
X185767500Y-93360000D02*
X185767500Y-91460000D01*
G04 #@! TO.C,D23*
X123371000Y-31520000D02*
X123371000Y-26820000D01*
X125671000Y-26820000D02*
X123371000Y-26820000D01*
X125671000Y-26820000D02*
X125671000Y-31520000D01*
X125671000Y-31520000D02*
X123371000Y-31520000D01*
G04 #@! TO.C,R29*
X110878500Y-56370000D02*
X114238500Y-56370000D01*
X110878500Y-58270000D02*
X110878500Y-56370000D01*
X114238500Y-56370000D02*
X114238500Y-58270000D01*
X114238500Y-58270000D02*
X110878500Y-58270000D01*
G04 #@! TO.C,D17*
X95714000Y-31520000D02*
X95714000Y-26820000D01*
X98014000Y-26820000D02*
X95714000Y-26820000D01*
X98014000Y-26820000D02*
X98014000Y-31520000D01*
X98014000Y-31520000D02*
X95714000Y-31520000D01*
G04 #@! TO.C,D22*
X119821000Y-31520000D02*
X119821000Y-26820000D01*
X122121000Y-26820000D02*
X119821000Y-26820000D01*
X122121000Y-26820000D02*
X122121000Y-31520000D01*
X122121000Y-31520000D02*
X119821000Y-31520000D01*
G04 #@! TO.C,U14*
X51460000Y-81185000D02*
X51460000Y-88585000D01*
X51460000Y-88585000D02*
X60620000Y-88585000D01*
X60620000Y-81185000D02*
X51460000Y-81185000D01*
X60620000Y-88585000D02*
X60620000Y-81185000D01*
G04 #@! TO.C,R44*
X157835000Y-42140000D02*
X159735000Y-42140000D01*
X157835000Y-45500000D02*
X157835000Y-42140000D01*
X159735000Y-42140000D02*
X159735000Y-45500000D01*
X159735000Y-45500000D02*
X157835000Y-45500000D01*
G04 #@! TO.C,U8*
X161705000Y-38095000D02*
X161705000Y-45495000D01*
X161705000Y-45495000D02*
X170865000Y-45495000D01*
X170865000Y-38095000D02*
X161705000Y-38095000D01*
X170865000Y-45495000D02*
X170865000Y-38095000D01*
G04 #@! TO.C,R130*
X152482500Y-118960000D02*
X155842500Y-118960000D01*
X152482500Y-120860000D02*
X152482500Y-118960000D01*
X155842500Y-118960000D02*
X155842500Y-120860000D01*
X155842500Y-120860000D02*
X152482500Y-120860000D01*
G04 #@! TO.C,R144*
X203157500Y-95460000D02*
X206517500Y-95460000D01*
X203157500Y-97360000D02*
X203157500Y-95460000D01*
X206517500Y-95460000D02*
X206517500Y-97360000D01*
X206517500Y-97360000D02*
X203157500Y-97360000D01*
G04 #@! TO.C,R137*
X170407500Y-119960000D02*
X173767500Y-119960000D01*
X170407500Y-121860000D02*
X170407500Y-119960000D01*
X173767500Y-119960000D02*
X173767500Y-121860000D01*
X173767500Y-121860000D02*
X170407500Y-121860000D01*
G04 #@! TO.C,D34*
X175135000Y-31520000D02*
X175135000Y-26820000D01*
X177435000Y-26820000D02*
X175135000Y-26820000D01*
X177435000Y-26820000D02*
X177435000Y-31520000D01*
X177435000Y-31520000D02*
X175135000Y-31520000D01*
G04 #@! TO.C,R102*
X102070000Y-107174300D02*
X105430000Y-107174300D01*
X102070000Y-109074300D02*
X102070000Y-107174300D01*
X105430000Y-107174300D02*
X105430000Y-109074300D01*
X105430000Y-109074300D02*
X102070000Y-109074300D01*
G04 #@! TO.C,R72*
X55564500Y-49870000D02*
X58924500Y-49870000D01*
X55564500Y-51770000D02*
X55564500Y-49870000D01*
X58924500Y-49870000D02*
X58924500Y-51770000D01*
X58924500Y-51770000D02*
X55564500Y-51770000D01*
G04 #@! TO.C,R162*
X94634000Y-37870000D02*
X94634000Y-39770000D01*
X94634000Y-39770000D02*
X97994000Y-39770000D01*
X97994000Y-37870000D02*
X94634000Y-37870000D01*
X97994000Y-39770000D02*
X97994000Y-37870000D01*
G04 #@! TO.C,R105*
X221506500Y-49870000D02*
X224866500Y-49870000D01*
X221506500Y-51770000D02*
X221506500Y-49870000D01*
X224866500Y-49870000D02*
X224866500Y-51770000D01*
X224866500Y-51770000D02*
X221506500Y-51770000D01*
G04 #@! TO.C,R48*
X157335000Y-27640000D02*
X159235000Y-27640000D01*
X157335000Y-31000000D02*
X157335000Y-27640000D01*
X159235000Y-27640000D02*
X159235000Y-31000000D01*
X159235000Y-31000000D02*
X157335000Y-31000000D01*
G04 #@! TO.C,R13*
X55564500Y-56370000D02*
X58924500Y-56370000D01*
X55564500Y-58270000D02*
X55564500Y-56370000D01*
X58924500Y-56370000D02*
X58924500Y-58270000D01*
X58924500Y-58270000D02*
X55564500Y-58270000D01*
G04 #@! TO.C,R151*
X203070000Y-115031400D02*
X206430000Y-115031400D01*
X203070000Y-116931400D02*
X203070000Y-115031400D01*
X206430000Y-115031400D02*
X206430000Y-116931400D01*
X206430000Y-116931400D02*
X203070000Y-116931400D01*
G04 #@! TO.C,R113*
X127320000Y-107174300D02*
X130680000Y-107174300D01*
X127320000Y-109074300D02*
X127320000Y-107174300D01*
X130680000Y-107174300D02*
X130680000Y-109074300D01*
X130680000Y-109074300D02*
X127320000Y-109074300D01*
G04 #@! TO.C,R71*
X18907500Y-119960000D02*
X22267500Y-119960000D01*
X18907500Y-121860000D02*
X18907500Y-119960000D01*
X22267500Y-119960000D02*
X22267500Y-121860000D01*
X22267500Y-121860000D02*
X18907500Y-121860000D01*
G04 #@! TO.C,R112*
X26320000Y-103245700D02*
X29680000Y-103245700D01*
X26320000Y-105145700D02*
X26320000Y-103245700D01*
X29680000Y-103245700D02*
X29680000Y-105145700D01*
X29680000Y-105145700D02*
X26320000Y-105145700D01*
G04 #@! TO.C,D11*
X68057000Y-31520000D02*
X68057000Y-26820000D01*
X70357000Y-26820000D02*
X68057000Y-26820000D01*
X70357000Y-26820000D02*
X70357000Y-31520000D01*
X70357000Y-31520000D02*
X68057000Y-31520000D01*
G04 #@! TO.C,R167*
X232919000Y-37870000D02*
X232919000Y-39770000D01*
X232919000Y-39770000D02*
X236279000Y-39770000D01*
X236279000Y-37870000D02*
X232919000Y-37870000D01*
X236279000Y-39770000D02*
X236279000Y-37870000D01*
G04 #@! TO.C,R115*
X119907500Y-119960000D02*
X123267500Y-119960000D01*
X119907500Y-121860000D02*
X119907500Y-119960000D01*
X123267500Y-119960000D02*
X123267500Y-121860000D01*
X123267500Y-121860000D02*
X119907500Y-121860000D01*
G04 #@! TO.C,U6*
X106391000Y-38095000D02*
X106391000Y-45495000D01*
X106391000Y-45495000D02*
X115551000Y-45495000D01*
X115551000Y-38095000D02*
X106391000Y-38095000D01*
X115551000Y-45495000D02*
X115551000Y-38095000D01*
G04 #@! TO.C,U12*
X26210000Y-81185000D02*
X26210000Y-88585000D01*
X26210000Y-88585000D02*
X35370000Y-88585000D01*
X35370000Y-81185000D02*
X26210000Y-81185000D01*
X35370000Y-88585000D02*
X35370000Y-81185000D01*
G04 #@! TO.C,R82*
X44157500Y-119960000D02*
X47517500Y-119960000D01*
X44157500Y-121860000D02*
X44157500Y-119960000D01*
X47517500Y-119960000D02*
X47517500Y-121860000D01*
X47517500Y-121860000D02*
X44157500Y-121860000D01*
G04 #@! TO.C,R91*
X76820000Y-107174300D02*
X80180000Y-107174300D01*
X76820000Y-109074300D02*
X76820000Y-107174300D01*
X80180000Y-107174300D02*
X80180000Y-109074300D01*
X80180000Y-109074300D02*
X76820000Y-109074300D01*
G04 #@! TO.C,U17*
X111562500Y-91560000D02*
X111562500Y-94960000D01*
X111562500Y-94960000D02*
X115662500Y-94960000D01*
X115662500Y-91560000D02*
X111562500Y-91560000D01*
X115662500Y-94960000D02*
X115662500Y-91560000D01*
G04 #@! TO.C,R87*
X76820000Y-91460000D02*
X80180000Y-91460000D01*
X76820000Y-93360000D02*
X76820000Y-91460000D01*
X80180000Y-91460000D02*
X80180000Y-93360000D01*
X80180000Y-93360000D02*
X76820000Y-93360000D01*
G04 #@! TO.C,U16*
X76710000Y-81185000D02*
X76710000Y-88585000D01*
X76710000Y-88585000D02*
X85870000Y-88585000D01*
X85870000Y-81185000D02*
X76710000Y-81185000D01*
X85870000Y-88585000D02*
X85870000Y-81185000D01*
G04 #@! TO.C,R89*
X76907500Y-95460000D02*
X80267500Y-95460000D01*
X76907500Y-97360000D02*
X76907500Y-95460000D01*
X80267500Y-95460000D02*
X80267500Y-97360000D01*
X80267500Y-97360000D02*
X76907500Y-97360000D01*
G04 #@! TO.C,R104*
X94657500Y-119960000D02*
X98017500Y-119960000D01*
X94657500Y-121860000D02*
X94657500Y-119960000D01*
X98017500Y-119960000D02*
X98017500Y-121860000D01*
X98017500Y-121860000D02*
X94657500Y-121860000D01*
G04 #@! TO.C,R92*
X69320000Y-114460000D02*
X72680000Y-114460000D01*
X69320000Y-116360000D02*
X69320000Y-114460000D01*
X72680000Y-114460000D02*
X72680000Y-116360000D01*
X72680000Y-116360000D02*
X69320000Y-116360000D01*
G04 #@! TO.C,D40*
X202792000Y-31520000D02*
X202792000Y-26820000D01*
X205092000Y-26820000D02*
X202792000Y-26820000D01*
X205092000Y-26820000D02*
X205092000Y-31520000D01*
X205092000Y-31520000D02*
X202792000Y-31520000D01*
G04 #@! TO.C,R14*
X47207000Y-38140000D02*
X49107000Y-38140000D01*
X47207000Y-41500000D02*
X47207000Y-38140000D01*
X49107000Y-38140000D02*
X49107000Y-41500000D01*
X49107000Y-41500000D02*
X47207000Y-41500000D01*
G04 #@! TO.C,R47*
X166192500Y-52870000D02*
X169552500Y-52870000D01*
X166192500Y-54770000D02*
X166192500Y-52870000D01*
X169552500Y-52870000D02*
X169552500Y-54770000D01*
X169552500Y-54770000D02*
X166192500Y-54770000D01*
G04 #@! TO.C,R65*
X26320000Y-91460000D02*
X29680000Y-91460000D01*
X26320000Y-93360000D02*
X26320000Y-91460000D01*
X29680000Y-91460000D02*
X29680000Y-93360000D01*
X29680000Y-93360000D02*
X26320000Y-93360000D01*
G04 #@! TO.C,R6*
X19550000Y-38230000D02*
X21450000Y-38230000D01*
X19550000Y-41590000D02*
X19550000Y-38230000D01*
X21450000Y-38230000D02*
X21450000Y-41590000D01*
X21450000Y-41590000D02*
X19550000Y-41590000D01*
G04 #@! TO.C,R142*
X203070000Y-91460000D02*
X206430000Y-91460000D01*
X203070000Y-93360000D02*
X203070000Y-91460000D01*
X206430000Y-91460000D02*
X206430000Y-93360000D01*
X206430000Y-93360000D02*
X203070000Y-93360000D01*
G04 #@! TO.C,R120*
X152570000Y-91460000D02*
X155930000Y-91460000D01*
X152570000Y-93360000D02*
X152570000Y-91460000D01*
X155930000Y-91460000D02*
X155930000Y-93360000D01*
X155930000Y-93360000D02*
X152570000Y-93360000D01*
G04 #@! TO.C,R51*
X193849500Y-59870000D02*
X197209500Y-59870000D01*
X193849500Y-61770000D02*
X193849500Y-59870000D01*
X197209500Y-59870000D02*
X197209500Y-61770000D01*
X197209500Y-61770000D02*
X193849500Y-61770000D01*
G04 #@! TD*
M02*
