%TF.GenerationSoftware,KiCad,Pcbnew,9.0.0*%
%TF.CreationDate,2025-06-12T15:22:15-04:00*%
%TF.ProjectId,Oblique Palette 0.5.1 PCB Main,4f626c69-7175-4652-9050-616c65747465,rev?*%
%TF.SameCoordinates,Original*%
%TF.FileFunction,Drillmap*%
%TF.FilePolarity,Positive*%
%FSLAX45Y45*%
G04 Gerber Fmt 4.5, Leading zero omitted, Abs format (unit mm)*
G04 Created by KiCad (PCBNEW 9.0.0) date 2025-06-12 15:22:15*
%MOMM*%
%LPD*%
G01*
G04 APERTURE LIST*
%ADD10C,0.050000*%
%ADD11C,0.200000*%
%ADD12C,0.100000*%
%ADD13C,0.102000*%
%ADD14C,0.122000*%
%ADD15C,0.142000*%
%ADD16C,0.143000*%
%ADD17C,0.180000*%
G04 APERTURE END LIST*
D10*
X25000000Y-12150000D02*
G75*
G02*
X24500000Y-12650000I-500000J0D01*
G01*
X24305000Y-1822000D02*
G75*
G02*
X24055000Y-1822000I-125000J0D01*
G01*
X24055000Y-1822000D02*
G75*
G02*
X24305000Y-1822000I125000J0D01*
G01*
X2445000Y-1822000D02*
G75*
G02*
X2195000Y-1822000I-125000J0D01*
G01*
X2195000Y-1822000D02*
G75*
G02*
X2445000Y-1822000I125000J0D01*
G01*
X2000000Y-12650000D02*
G75*
G02*
X1500000Y-12150000I0J500000D01*
G01*
X1500000Y-2150000D02*
G75*
G02*
X2000000Y-1650000I500000J0D01*
G01*
X8625000Y-7150000D02*
G75*
G02*
X8375000Y-7150000I-125000J0D01*
G01*
X8375000Y-7150000D02*
G75*
G02*
X8625000Y-7150000I125000J0D01*
G01*
X1500000Y-12150000D02*
X1500000Y-2150000D01*
X24500000Y-1650000D02*
G75*
G02*
X25000000Y-2150000I0J-500000D01*
G01*
X17125000Y-7150000D02*
G75*
G02*
X16875000Y-7150000I-125000J0D01*
G01*
X16875000Y-7150000D02*
G75*
G02*
X17125000Y-7150000I125000J0D01*
G01*
X24500000Y-1650000D02*
X2000000Y-1650000D01*
X25000000Y-12150000D02*
X25000000Y-2150000D01*
X2000000Y-12650000D02*
X24500000Y-12650000D01*
X24305000Y-12478000D02*
G75*
G02*
X24055000Y-12478000I-125000J0D01*
G01*
X24055000Y-12478000D02*
G75*
G02*
X24305000Y-12478000I125000J0D01*
G01*
X2445000Y-12478000D02*
G75*
G02*
X2195000Y-12478000I-125000J0D01*
G01*
X2195000Y-12478000D02*
G75*
G02*
X2445000Y-12478000I125000J0D01*
G01*
D11*
D12*
X1943750Y-11526000D02*
X1973750Y-11556000D01*
X1973750Y-11526000D02*
X1943750Y-11556000D01*
X2035000Y-12376000D02*
X2065000Y-12406000D01*
X2065000Y-12376000D02*
X2035000Y-12406000D01*
X2197464Y-4065084D02*
X2227464Y-4095084D01*
X2227464Y-4065084D02*
X2197464Y-4095084D01*
X2435000Y-3626000D02*
X2465000Y-3656000D01*
X2465000Y-3626000D02*
X2435000Y-3656000D01*
X2485000Y-9176000D02*
X2515000Y-9206000D01*
X2515000Y-9176000D02*
X2485000Y-9206000D01*
X2485000Y-9476000D02*
X2515000Y-9506000D01*
X2515000Y-9476000D02*
X2485000Y-9506000D01*
X2620000Y-3926000D02*
X2650000Y-3956000D01*
X2650000Y-3926000D02*
X2620000Y-3956000D01*
X2683000Y-8721000D02*
X2713000Y-8751000D01*
X2713000Y-8721000D02*
X2683000Y-8751000D01*
X2702500Y-9626000D02*
X2732500Y-9656000D01*
X2732500Y-9626000D02*
X2702500Y-9656000D01*
X2785000Y-4421000D02*
X2815000Y-4451000D01*
X2815000Y-4421000D02*
X2785000Y-4451000D01*
X2876250Y-9226000D02*
X2906250Y-9256000D01*
X2906250Y-9226000D02*
X2876250Y-9256000D01*
X2943750Y-9017250D02*
X2973750Y-9047250D01*
X2973750Y-9017250D02*
X2943750Y-9047250D01*
X3031715Y-4926000D02*
X3061715Y-4956000D01*
X3061715Y-4926000D02*
X3031715Y-4956000D01*
X3035000Y-6076000D02*
X3065000Y-6106000D01*
X3065000Y-6076000D02*
X3035000Y-6106000D01*
X3064000Y-8721000D02*
X3094000Y-8751000D01*
X3094000Y-8721000D02*
X3064000Y-8751000D01*
X3185000Y-8376000D02*
X3215000Y-8406000D01*
X3215000Y-8376000D02*
X3185000Y-8406000D01*
X3318000Y-8226000D02*
X3348000Y-8256000D01*
X3348000Y-8226000D02*
X3318000Y-8256000D01*
X3445000Y-8721000D02*
X3475000Y-8751000D01*
X3475000Y-8721000D02*
X3445000Y-8751000D01*
X3485000Y-9326000D02*
X3515000Y-9356000D01*
X3515000Y-9326000D02*
X3485000Y-9356000D01*
X3657500Y-9311000D02*
X3687500Y-9341000D01*
X3687500Y-9311000D02*
X3657500Y-9341000D01*
X3785000Y-2746000D02*
X3815000Y-2776000D01*
X3815000Y-2746000D02*
X3785000Y-2776000D01*
X3885000Y-9406000D02*
X3915000Y-9436000D01*
X3915000Y-9406000D02*
X3885000Y-9436000D01*
X4468750Y-11526000D02*
X4498750Y-11556000D01*
X4498750Y-11526000D02*
X4468750Y-11556000D01*
X4590368Y-7935900D02*
X4620368Y-7965900D01*
X4620368Y-7935900D02*
X4590368Y-7965900D01*
X4660000Y-12326000D02*
X4690000Y-12356000D01*
X4690000Y-12326000D02*
X4660000Y-12356000D01*
X4963164Y-4056084D02*
X4993164Y-4086084D01*
X4993164Y-4056084D02*
X4963164Y-4086084D01*
X5010000Y-9176000D02*
X5040000Y-9206000D01*
X5040000Y-9176000D02*
X5010000Y-9206000D01*
X5010000Y-9476000D02*
X5040000Y-9506000D01*
X5040000Y-9476000D02*
X5010000Y-9506000D01*
X5200700Y-3617000D02*
X5230700Y-3647000D01*
X5230700Y-3617000D02*
X5200700Y-3647000D01*
X5208000Y-8721000D02*
X5238000Y-8751000D01*
X5238000Y-8721000D02*
X5208000Y-8751000D01*
X5227500Y-9626000D02*
X5257500Y-9656000D01*
X5257500Y-9626000D02*
X5227500Y-9656000D01*
X5392880Y-3917000D02*
X5422880Y-3947000D01*
X5422880Y-3917000D02*
X5392880Y-3947000D01*
X5401250Y-9226000D02*
X5431250Y-9256000D01*
X5431250Y-9226000D02*
X5401250Y-9256000D01*
X5468750Y-9017250D02*
X5498750Y-9047250D01*
X5498750Y-9017250D02*
X5468750Y-9047250D01*
X5550700Y-4412000D02*
X5580700Y-4442000D01*
X5580700Y-4412000D02*
X5550700Y-4442000D01*
X5589000Y-8721000D02*
X5619000Y-8751000D01*
X5619000Y-8721000D02*
X5589000Y-8751000D01*
X5685000Y-6376000D02*
X5715000Y-6406000D01*
X5715000Y-6376000D02*
X5685000Y-6406000D01*
X5710000Y-8376000D02*
X5740000Y-8406000D01*
X5740000Y-8376000D02*
X5710000Y-8406000D01*
X5797415Y-4917000D02*
X5827415Y-4947000D01*
X5827415Y-4917000D02*
X5797415Y-4947000D01*
X5800700Y-6067000D02*
X5830700Y-6097000D01*
X5830700Y-6067000D02*
X5800700Y-6097000D01*
X5843000Y-8226000D02*
X5873000Y-8256000D01*
X5873000Y-8226000D02*
X5843000Y-8256000D01*
X5970000Y-8721000D02*
X6000000Y-8751000D01*
X6000000Y-8721000D02*
X5970000Y-8751000D01*
X6010000Y-9326000D02*
X6040000Y-9356000D01*
X6040000Y-9326000D02*
X6010000Y-9356000D01*
X6035000Y-7926000D02*
X6065000Y-7956000D01*
X6065000Y-7926000D02*
X6035000Y-7956000D01*
X6182500Y-9216000D02*
X6212500Y-9246000D01*
X6212500Y-9216000D02*
X6182500Y-9246000D01*
X6182500Y-9311000D02*
X6212500Y-9341000D01*
X6212500Y-9311000D02*
X6182500Y-9341000D01*
X6410000Y-9406000D02*
X6440000Y-9436000D01*
X6440000Y-9406000D02*
X6410000Y-9436000D01*
X6550700Y-2737000D02*
X6580700Y-2767000D01*
X6580700Y-2737000D02*
X6550700Y-2767000D01*
X6554700Y-6245700D02*
X6584700Y-6275700D01*
X6584700Y-6245700D02*
X6554700Y-6275700D01*
X6993750Y-11526000D02*
X7023750Y-11556000D01*
X7023750Y-11526000D02*
X6993750Y-11556000D01*
X7185000Y-12326000D02*
X7215000Y-12356000D01*
X7215000Y-12326000D02*
X7185000Y-12356000D01*
X7535000Y-9176000D02*
X7565000Y-9206000D01*
X7565000Y-9176000D02*
X7535000Y-9206000D01*
X7535000Y-9476000D02*
X7565000Y-9506000D01*
X7565000Y-9476000D02*
X7535000Y-9506000D01*
X7728864Y-4056084D02*
X7758864Y-4086084D01*
X7758864Y-4056084D02*
X7728864Y-4086084D01*
X7733000Y-8721000D02*
X7763000Y-8751000D01*
X7763000Y-8721000D02*
X7733000Y-8751000D01*
X7752500Y-9626000D02*
X7782500Y-9656000D01*
X7782500Y-9626000D02*
X7752500Y-9656000D01*
X7926250Y-9226000D02*
X7956250Y-9256000D01*
X7956250Y-9226000D02*
X7926250Y-9256000D01*
X7966400Y-3617000D02*
X7996400Y-3647000D01*
X7996400Y-3617000D02*
X7966400Y-3647000D01*
X7993750Y-9017250D02*
X8023750Y-9047250D01*
X8023750Y-9017250D02*
X7993750Y-9047250D01*
X8114000Y-8721000D02*
X8144000Y-8751000D01*
X8144000Y-8721000D02*
X8114000Y-8751000D01*
X8189400Y-3917000D02*
X8219400Y-3947000D01*
X8219400Y-3917000D02*
X8189400Y-3947000D01*
X8235000Y-8376000D02*
X8265000Y-8406000D01*
X8265000Y-8376000D02*
X8235000Y-8406000D01*
X8316400Y-4412000D02*
X8346400Y-4442000D01*
X8346400Y-4412000D02*
X8316400Y-4442000D01*
X8368000Y-8226000D02*
X8398000Y-8256000D01*
X8398000Y-8226000D02*
X8368000Y-8256000D01*
X8485000Y-6376000D02*
X8515000Y-6406000D01*
X8515000Y-6376000D02*
X8485000Y-6406000D01*
X8495000Y-8721000D02*
X8525000Y-8751000D01*
X8525000Y-8721000D02*
X8495000Y-8751000D01*
X8535000Y-9326000D02*
X8565000Y-9356000D01*
X8565000Y-9326000D02*
X8535000Y-9356000D01*
X8563116Y-4917000D02*
X8593116Y-4947000D01*
X8593116Y-4917000D02*
X8563116Y-4947000D01*
X8707500Y-9311000D02*
X8737500Y-9341000D01*
X8737500Y-9311000D02*
X8707500Y-9341000D01*
X8835000Y-6376000D02*
X8865000Y-6406000D01*
X8865000Y-6376000D02*
X8835000Y-6406000D01*
X8935000Y-7976000D02*
X8965000Y-8006000D01*
X8965000Y-7976000D02*
X8935000Y-8006000D01*
X8935000Y-9406000D02*
X8965000Y-9436000D01*
X8965000Y-9406000D02*
X8935000Y-9436000D01*
X9316400Y-2737000D02*
X9346400Y-2767000D01*
X9346400Y-2737000D02*
X9316400Y-2767000D01*
X9518750Y-11526000D02*
X9548750Y-11556000D01*
X9548750Y-11526000D02*
X9518750Y-11556000D01*
X9710000Y-12326000D02*
X9740000Y-12356000D01*
X9740000Y-12326000D02*
X9710000Y-12356000D01*
X10060000Y-9176000D02*
X10090000Y-9206000D01*
X10090000Y-9176000D02*
X10060000Y-9206000D01*
X10060000Y-9476000D02*
X10090000Y-9506000D01*
X10090000Y-9476000D02*
X10060000Y-9506000D01*
X10258000Y-8721000D02*
X10288000Y-8751000D01*
X10288000Y-8721000D02*
X10258000Y-8751000D01*
X10277500Y-9626000D02*
X10307500Y-9656000D01*
X10307500Y-9626000D02*
X10277500Y-9656000D01*
X10451250Y-9226000D02*
X10481250Y-9256000D01*
X10481250Y-9226000D02*
X10451250Y-9256000D01*
X10494564Y-4056084D02*
X10524564Y-4086084D01*
X10524564Y-4056084D02*
X10494564Y-4086084D01*
X10518750Y-9017250D02*
X10548750Y-9047250D01*
X10548750Y-9017250D02*
X10518750Y-9047250D01*
X10639000Y-8721000D02*
X10669000Y-8751000D01*
X10669000Y-8721000D02*
X10639000Y-8751000D01*
X10732100Y-3617000D02*
X10762100Y-3647000D01*
X10762100Y-3617000D02*
X10732100Y-3647000D01*
X10760000Y-8376000D02*
X10790000Y-8406000D01*
X10790000Y-8376000D02*
X10760000Y-8406000D01*
X10785000Y-7855900D02*
X10815000Y-7885900D01*
X10815000Y-7855900D02*
X10785000Y-7885900D01*
X10785000Y-7976000D02*
X10815000Y-8006000D01*
X10815000Y-7976000D02*
X10785000Y-8006000D01*
X10893000Y-8226000D02*
X10923000Y-8256000D01*
X10923000Y-8226000D02*
X10893000Y-8256000D01*
X10917817Y-3917000D02*
X10947817Y-3947000D01*
X10947817Y-3917000D02*
X10917817Y-3947000D01*
X10985000Y-6376000D02*
X11015000Y-6406000D01*
X11015000Y-6376000D02*
X10985000Y-6406000D01*
X11035000Y-8726000D02*
X11065000Y-8756000D01*
X11065000Y-8726000D02*
X11035000Y-8756000D01*
X11082100Y-4412000D02*
X11112100Y-4442000D01*
X11112100Y-4412000D02*
X11082100Y-4442000D01*
X11085000Y-9326000D02*
X11115000Y-9356000D01*
X11115000Y-9326000D02*
X11085000Y-9356000D01*
X11232500Y-9216000D02*
X11262500Y-9246000D01*
X11262500Y-9216000D02*
X11232500Y-9246000D01*
X11232500Y-9311000D02*
X11262500Y-9341000D01*
X11262500Y-9311000D02*
X11232500Y-9341000D01*
X11328815Y-4917000D02*
X11358815Y-4947000D01*
X11358815Y-4917000D02*
X11328815Y-4947000D01*
X11335000Y-6376000D02*
X11365000Y-6406000D01*
X11365000Y-6376000D02*
X11335000Y-6406000D01*
X11460000Y-9406000D02*
X11490000Y-9436000D01*
X11490000Y-9406000D02*
X11460000Y-9436000D01*
X11490000Y-6749000D02*
X11520000Y-6779000D01*
X11520000Y-6749000D02*
X11490000Y-6779000D01*
X11490000Y-7511000D02*
X11520000Y-7541000D01*
X11520000Y-7511000D02*
X11490000Y-7541000D01*
X11490000Y-7638000D02*
X11520000Y-7668000D01*
X11520000Y-7638000D02*
X11490000Y-7668000D01*
X11835000Y-7926000D02*
X11865000Y-7956000D01*
X11865000Y-7926000D02*
X11835000Y-7956000D01*
X12043750Y-11526000D02*
X12073750Y-11556000D01*
X12073750Y-11526000D02*
X12043750Y-11556000D01*
X12082100Y-2737000D02*
X12112100Y-2767000D01*
X12112100Y-2737000D02*
X12082100Y-2767000D01*
X12235000Y-12326000D02*
X12265000Y-12356000D01*
X12265000Y-12326000D02*
X12235000Y-12356000D01*
X12585000Y-9176000D02*
X12615000Y-9206000D01*
X12615000Y-9176000D02*
X12585000Y-9206000D01*
X12585000Y-9476000D02*
X12615000Y-9506000D01*
X12615000Y-9476000D02*
X12585000Y-9506000D01*
X12635000Y-7526000D02*
X12665000Y-7556000D01*
X12665000Y-7526000D02*
X12635000Y-7556000D01*
X12783000Y-8721000D02*
X12813000Y-8751000D01*
X12813000Y-8721000D02*
X12783000Y-8751000D01*
X12802500Y-9626000D02*
X12832500Y-9656000D01*
X12832500Y-9626000D02*
X12802500Y-9656000D01*
X12976250Y-9226000D02*
X13006250Y-9256000D01*
X13006250Y-9226000D02*
X12976250Y-9256000D01*
X13043750Y-9017250D02*
X13073750Y-9047250D01*
X13073750Y-9017250D02*
X13043750Y-9047250D01*
X13164000Y-8721000D02*
X13194000Y-8751000D01*
X13194000Y-8721000D02*
X13164000Y-8751000D01*
X13185000Y-7776000D02*
X13215000Y-7806000D01*
X13215000Y-7776000D02*
X13185000Y-7806000D01*
X13260264Y-4056084D02*
X13290264Y-4086084D01*
X13290264Y-4056084D02*
X13260264Y-4086084D01*
X13285000Y-8376000D02*
X13315000Y-8406000D01*
X13315000Y-8376000D02*
X13285000Y-8406000D01*
X13418000Y-8226000D02*
X13448000Y-8256000D01*
X13448000Y-8226000D02*
X13418000Y-8256000D01*
X13497800Y-3617000D02*
X13527800Y-3647000D01*
X13527800Y-3617000D02*
X13497800Y-3647000D01*
X13545000Y-8721000D02*
X13575000Y-8751000D01*
X13575000Y-8721000D02*
X13545000Y-8751000D01*
X13585000Y-9326000D02*
X13615000Y-9356000D01*
X13615000Y-9326000D02*
X13585000Y-9356000D01*
X13720800Y-3917000D02*
X13750800Y-3947000D01*
X13750800Y-3917000D02*
X13720800Y-3947000D01*
X13757500Y-9311000D02*
X13787500Y-9341000D01*
X13787500Y-9311000D02*
X13757500Y-9341000D01*
X13847800Y-4412000D02*
X13877800Y-4442000D01*
X13877800Y-4412000D02*
X13847800Y-4442000D01*
X13985000Y-9406000D02*
X14015000Y-9436000D01*
X14015000Y-9406000D02*
X13985000Y-9436000D01*
X14094515Y-4917000D02*
X14124515Y-4947000D01*
X14124515Y-4917000D02*
X14094515Y-4947000D01*
X14568750Y-11526000D02*
X14598750Y-11556000D01*
X14598750Y-11526000D02*
X14568750Y-11556000D01*
X14760000Y-12326000D02*
X14790000Y-12356000D01*
X14790000Y-12326000D02*
X14760000Y-12356000D01*
X14847800Y-2737000D02*
X14877800Y-2767000D01*
X14877800Y-2737000D02*
X14847800Y-2767000D01*
X15110000Y-9176000D02*
X15140000Y-9206000D01*
X15140000Y-9176000D02*
X15110000Y-9206000D01*
X15110000Y-9476000D02*
X15140000Y-9506000D01*
X15140000Y-9476000D02*
X15110000Y-9506000D01*
X15308000Y-8721000D02*
X15338000Y-8751000D01*
X15338000Y-8721000D02*
X15308000Y-8751000D01*
X15327500Y-9626000D02*
X15357500Y-9656000D01*
X15357500Y-9626000D02*
X15327500Y-9656000D01*
X15501250Y-9226000D02*
X15531250Y-9256000D01*
X15531250Y-9226000D02*
X15501250Y-9256000D01*
X15568750Y-9017250D02*
X15598750Y-9047250D01*
X15598750Y-9017250D02*
X15568750Y-9047250D01*
X15685000Y-7776000D02*
X15715000Y-7806000D01*
X15715000Y-7776000D02*
X15685000Y-7806000D01*
X15689000Y-8721000D02*
X15719000Y-8751000D01*
X15719000Y-8721000D02*
X15689000Y-8751000D01*
X15810000Y-8376000D02*
X15840000Y-8406000D01*
X15840000Y-8376000D02*
X15810000Y-8406000D01*
X15943000Y-8226000D02*
X15973000Y-8256000D01*
X15973000Y-8226000D02*
X15943000Y-8256000D01*
X16025964Y-4056084D02*
X16055964Y-4086084D01*
X16055964Y-4056084D02*
X16025964Y-4086084D01*
X16070000Y-8721000D02*
X16100000Y-8751000D01*
X16100000Y-8721000D02*
X16070000Y-8751000D01*
X16110000Y-9326000D02*
X16140000Y-9356000D01*
X16140000Y-9326000D02*
X16110000Y-9356000D01*
X16263500Y-3617000D02*
X16293500Y-3647000D01*
X16293500Y-3617000D02*
X16263500Y-3647000D01*
X16282500Y-9311000D02*
X16312500Y-9341000D01*
X16312500Y-9311000D02*
X16282500Y-9341000D01*
X16486500Y-3917000D02*
X16516500Y-3947000D01*
X16516500Y-3917000D02*
X16486500Y-3947000D01*
X16510000Y-9406000D02*
X16540000Y-9436000D01*
X16540000Y-9406000D02*
X16510000Y-9436000D01*
X16613500Y-4412000D02*
X16643500Y-4442000D01*
X16643500Y-4412000D02*
X16613500Y-4442000D01*
X16860216Y-4917000D02*
X16890216Y-4947000D01*
X16890216Y-4917000D02*
X16860216Y-4947000D01*
X17093750Y-11526000D02*
X17123750Y-11556000D01*
X17123750Y-11526000D02*
X17093750Y-11556000D01*
X17285000Y-12239500D02*
X17315000Y-12269500D01*
X17315000Y-12239500D02*
X17285000Y-12269500D01*
X17613500Y-2737000D02*
X17643500Y-2767000D01*
X17643500Y-2737000D02*
X17613500Y-2767000D01*
X17635000Y-9176000D02*
X17665000Y-9206000D01*
X17665000Y-9176000D02*
X17635000Y-9206000D01*
X17635000Y-9476000D02*
X17665000Y-9506000D01*
X17665000Y-9476000D02*
X17635000Y-9506000D01*
X17833000Y-8721000D02*
X17863000Y-8751000D01*
X17863000Y-8721000D02*
X17833000Y-8751000D01*
X17852500Y-9626000D02*
X17882500Y-9656000D01*
X17882500Y-9626000D02*
X17852500Y-9656000D01*
X18026250Y-9226000D02*
X18056250Y-9256000D01*
X18056250Y-9226000D02*
X18026250Y-9256000D01*
X18093750Y-9017250D02*
X18123750Y-9047250D01*
X18123750Y-9017250D02*
X18093750Y-9047250D01*
X18214000Y-8721000D02*
X18244000Y-8751000D01*
X18244000Y-8721000D02*
X18214000Y-8751000D01*
X18235000Y-7776000D02*
X18265000Y-7806000D01*
X18265000Y-7776000D02*
X18235000Y-7806000D01*
X18335000Y-8376000D02*
X18365000Y-8406000D01*
X18365000Y-8376000D02*
X18335000Y-8406000D01*
X18468000Y-8226000D02*
X18498000Y-8256000D01*
X18498000Y-8226000D02*
X18468000Y-8256000D01*
X18595000Y-8721000D02*
X18625000Y-8751000D01*
X18625000Y-8721000D02*
X18595000Y-8751000D01*
X18635000Y-9326000D02*
X18665000Y-9356000D01*
X18665000Y-9326000D02*
X18635000Y-9356000D01*
X18791664Y-4056084D02*
X18821664Y-4086084D01*
X18821664Y-4056084D02*
X18791664Y-4086084D01*
X18807500Y-9311000D02*
X18837500Y-9341000D01*
X18837500Y-9311000D02*
X18807500Y-9341000D01*
X19029200Y-3617000D02*
X19059200Y-3647000D01*
X19059200Y-3617000D02*
X19029200Y-3647000D01*
X19035000Y-9406000D02*
X19065000Y-9436000D01*
X19065000Y-9406000D02*
X19035000Y-9436000D01*
X19252200Y-3917000D02*
X19282200Y-3947000D01*
X19282200Y-3917000D02*
X19252200Y-3947000D01*
X19379200Y-4412000D02*
X19409200Y-4442000D01*
X19409200Y-4412000D02*
X19379200Y-4442000D01*
X19618750Y-11526000D02*
X19648750Y-11556000D01*
X19648750Y-11526000D02*
X19618750Y-11556000D01*
X19625916Y-4917000D02*
X19655916Y-4947000D01*
X19655916Y-4917000D02*
X19625916Y-4947000D01*
X19810000Y-12236000D02*
X19840000Y-12266000D01*
X19840000Y-12236000D02*
X19810000Y-12266000D01*
X20160000Y-9176000D02*
X20190000Y-9206000D01*
X20190000Y-9176000D02*
X20160000Y-9206000D01*
X20160000Y-9476000D02*
X20190000Y-9506000D01*
X20190000Y-9476000D02*
X20160000Y-9506000D01*
X20358000Y-8721000D02*
X20388000Y-8751000D01*
X20388000Y-8721000D02*
X20358000Y-8751000D01*
X20377500Y-9626000D02*
X20407500Y-9656000D01*
X20407500Y-9626000D02*
X20377500Y-9656000D01*
X20379200Y-2737000D02*
X20409200Y-2767000D01*
X20409200Y-2737000D02*
X20379200Y-2767000D01*
X20551250Y-9226000D02*
X20581250Y-9256000D01*
X20581250Y-9226000D02*
X20551250Y-9256000D01*
X20618750Y-9017250D02*
X20648750Y-9047250D01*
X20648750Y-9017250D02*
X20618750Y-9047250D01*
X20735000Y-7776000D02*
X20765000Y-7806000D01*
X20765000Y-7776000D02*
X20735000Y-7806000D01*
X20739000Y-8721000D02*
X20769000Y-8751000D01*
X20769000Y-8721000D02*
X20739000Y-8751000D01*
X20860000Y-8376000D02*
X20890000Y-8406000D01*
X20890000Y-8376000D02*
X20860000Y-8406000D01*
X20993000Y-8226000D02*
X21023000Y-8256000D01*
X21023000Y-8226000D02*
X20993000Y-8256000D01*
X21120000Y-8721000D02*
X21150000Y-8751000D01*
X21150000Y-8721000D02*
X21120000Y-8751000D01*
X21160000Y-9326000D02*
X21190000Y-9356000D01*
X21190000Y-9326000D02*
X21160000Y-9356000D01*
X21332500Y-9216000D02*
X21362500Y-9246000D01*
X21362500Y-9216000D02*
X21332500Y-9246000D01*
X21332500Y-9311000D02*
X21362500Y-9341000D01*
X21362500Y-9311000D02*
X21332500Y-9341000D01*
X21385000Y-7369460D02*
X21415000Y-7399460D01*
X21415000Y-7369460D02*
X21385000Y-7399460D01*
X21522574Y-7398426D02*
X21552574Y-7428426D01*
X21552574Y-7398426D02*
X21522574Y-7428426D01*
X21557364Y-4056084D02*
X21587364Y-4086084D01*
X21587364Y-4056084D02*
X21557364Y-4086084D01*
X21560000Y-9406000D02*
X21590000Y-9436000D01*
X21590000Y-9406000D02*
X21560000Y-9436000D01*
X21735000Y-8076000D02*
X21765000Y-8106000D01*
X21765000Y-8076000D02*
X21735000Y-8106000D01*
X21784900Y-8376000D02*
X21814900Y-8406000D01*
X21814900Y-8376000D02*
X21784900Y-8406000D01*
X21785000Y-10826000D02*
X21815000Y-10856000D01*
X21815000Y-10826000D02*
X21785000Y-10856000D01*
X21785000Y-11976000D02*
X21815000Y-12006000D01*
X21815000Y-11976000D02*
X21785000Y-12006000D01*
X21794900Y-3617000D02*
X21824900Y-3647000D01*
X21824900Y-3617000D02*
X21794900Y-3647000D01*
X21869024Y-10457124D02*
X21899024Y-10487124D01*
X21899024Y-10457124D02*
X21869024Y-10487124D01*
X22017900Y-3917000D02*
X22047900Y-3947000D01*
X22047900Y-3917000D02*
X22017900Y-3947000D01*
X22144900Y-4412000D02*
X22174900Y-4442000D01*
X22174900Y-4412000D02*
X22144900Y-4442000D01*
X22385000Y-11326000D02*
X22415000Y-11356000D01*
X22415000Y-11326000D02*
X22385000Y-11356000D01*
X22391615Y-4917000D02*
X22421615Y-4947000D01*
X22421615Y-4917000D02*
X22391615Y-4947000D01*
X22394900Y-6067000D02*
X22424900Y-6097000D01*
X22424900Y-6067000D02*
X22394900Y-6097000D01*
X22471420Y-11324433D02*
X22501420Y-11354433D01*
X22501420Y-11324433D02*
X22471420Y-11354433D01*
X22522100Y-11188900D02*
X22552100Y-11218900D01*
X22552100Y-11188900D02*
X22522100Y-11218900D01*
X22535000Y-7626000D02*
X22565000Y-7656000D01*
X22565000Y-7626000D02*
X22535000Y-7656000D01*
X22535000Y-8126000D02*
X22565000Y-8156000D01*
X22565000Y-8126000D02*
X22535000Y-8156000D01*
X22555001Y-11325705D02*
X22585001Y-11355705D01*
X22585001Y-11325705D02*
X22555001Y-11355705D01*
X22630000Y-11128900D02*
X22660000Y-11158900D01*
X22660000Y-11128900D02*
X22630000Y-11158900D01*
X22635000Y-7076000D02*
X22665000Y-7106000D01*
X22665000Y-7076000D02*
X22635000Y-7106000D01*
X22635000Y-11326000D02*
X22665000Y-11356000D01*
X22665000Y-11326000D02*
X22635000Y-11356000D01*
X22717427Y-11328426D02*
X22747427Y-11358426D01*
X22747427Y-11328426D02*
X22717427Y-11358426D01*
X22735100Y-11068900D02*
X22765100Y-11098900D01*
X22765100Y-11068900D02*
X22735100Y-11098900D01*
X22801263Y-11329443D02*
X22831263Y-11359443D01*
X22831263Y-11329443D02*
X22801263Y-11359443D01*
X22835000Y-11008900D02*
X22865000Y-11038900D01*
X22865000Y-11008900D02*
X22835000Y-11038900D01*
X22887279Y-11328279D02*
X22917279Y-11358279D01*
X22917279Y-11328279D02*
X22887279Y-11358279D01*
X22935000Y-10948900D02*
X22965000Y-10978900D01*
X22965000Y-10948900D02*
X22935000Y-10978900D01*
X23035000Y-10876000D02*
X23065000Y-10906000D01*
X23065000Y-10876000D02*
X23035000Y-10906000D01*
X23135000Y-10463100D02*
X23165000Y-10493100D01*
X23165000Y-10463100D02*
X23135000Y-10493100D01*
X23144900Y-2737000D02*
X23174900Y-2767000D01*
X23174900Y-2737000D02*
X23144900Y-2767000D01*
X23147722Y-10781713D02*
X23177722Y-10811713D01*
X23177722Y-10781713D02*
X23147722Y-10811713D01*
X23185000Y-8326000D02*
X23215000Y-8356000D01*
X23215000Y-8326000D02*
X23185000Y-8356000D01*
X23594635Y-9076000D02*
X23624635Y-9106000D01*
X23624635Y-9076000D02*
X23594635Y-9106000D01*
X23745000Y-10626000D02*
X23775000Y-10656000D01*
X23775000Y-10626000D02*
X23745000Y-10656000D01*
X23935000Y-7026000D02*
X23965000Y-7056000D01*
X23965000Y-7026000D02*
X23935000Y-7056000D01*
X24185000Y-6176000D02*
X24215000Y-6206000D01*
X24215000Y-6176000D02*
X24185000Y-6206000D01*
X2091000Y-5406000D02*
G75*
G02*
X2001000Y-5406000I-45000J0D01*
G01*
X2001000Y-5406000D02*
G75*
G02*
X2091000Y-5406000I45000J0D01*
G01*
X2091000Y-5741000D02*
G75*
G02*
X2001000Y-5741000I-45000J0D01*
G01*
X2001000Y-5741000D02*
G75*
G02*
X2091000Y-5741000I45000J0D01*
G01*
X2091000Y-6076000D02*
G75*
G02*
X2001000Y-6076000I-45000J0D01*
G01*
X2001000Y-6076000D02*
G75*
G02*
X2091000Y-6076000I45000J0D01*
G01*
X2091000Y-10000000D02*
G75*
G02*
X2001000Y-10000000I-45000J0D01*
G01*
X2001000Y-10000000D02*
G75*
G02*
X2091000Y-10000000I45000J0D01*
G01*
X2091000Y-10335000D02*
G75*
G02*
X2001000Y-10335000I-45000J0D01*
G01*
X2001000Y-10335000D02*
G75*
G02*
X2091000Y-10335000I45000J0D01*
G01*
X2091000Y-10670000D02*
G75*
G02*
X2001000Y-10670000I-45000J0D01*
G01*
X2001000Y-10670000D02*
G75*
G02*
X2091000Y-10670000I45000J0D01*
G01*
X2345000Y-5406000D02*
G75*
G02*
X2255000Y-5406000I-45000J0D01*
G01*
X2255000Y-5406000D02*
G75*
G02*
X2345000Y-5406000I45000J0D01*
G01*
X2345000Y-5741000D02*
G75*
G02*
X2255000Y-5741000I-45000J0D01*
G01*
X2255000Y-5741000D02*
G75*
G02*
X2345000Y-5741000I45000J0D01*
G01*
X2345000Y-6076000D02*
G75*
G02*
X2255000Y-6076000I-45000J0D01*
G01*
X2255000Y-6076000D02*
G75*
G02*
X2345000Y-6076000I45000J0D01*
G01*
X2345000Y-10000000D02*
G75*
G02*
X2255000Y-10000000I-45000J0D01*
G01*
X2255000Y-10000000D02*
G75*
G02*
X2345000Y-10000000I45000J0D01*
G01*
X2345000Y-10335000D02*
G75*
G02*
X2255000Y-10335000I-45000J0D01*
G01*
X2255000Y-10335000D02*
G75*
G02*
X2345000Y-10335000I45000J0D01*
G01*
X2345000Y-10670000D02*
G75*
G02*
X2255000Y-10670000I-45000J0D01*
G01*
X2255000Y-10670000D02*
G75*
G02*
X2345000Y-10670000I45000J0D01*
G01*
X4616000Y-10000000D02*
G75*
G02*
X4526000Y-10000000I-45000J0D01*
G01*
X4526000Y-10000000D02*
G75*
G02*
X4616000Y-10000000I45000J0D01*
G01*
X4616000Y-10335000D02*
G75*
G02*
X4526000Y-10335000I-45000J0D01*
G01*
X4526000Y-10335000D02*
G75*
G02*
X4616000Y-10335000I45000J0D01*
G01*
X4616000Y-10670000D02*
G75*
G02*
X4526000Y-10670000I-45000J0D01*
G01*
X4526000Y-10670000D02*
G75*
G02*
X4616000Y-10670000I45000J0D01*
G01*
X4856700Y-5397000D02*
G75*
G02*
X4766700Y-5397000I-45000J0D01*
G01*
X4766700Y-5397000D02*
G75*
G02*
X4856700Y-5397000I45000J0D01*
G01*
X4856700Y-5732000D02*
G75*
G02*
X4766700Y-5732000I-45000J0D01*
G01*
X4766700Y-5732000D02*
G75*
G02*
X4856700Y-5732000I45000J0D01*
G01*
X4856700Y-6067000D02*
G75*
G02*
X4766700Y-6067000I-45000J0D01*
G01*
X4766700Y-6067000D02*
G75*
G02*
X4856700Y-6067000I45000J0D01*
G01*
X4870000Y-10000000D02*
G75*
G02*
X4780000Y-10000000I-45000J0D01*
G01*
X4780000Y-10000000D02*
G75*
G02*
X4870000Y-10000000I45000J0D01*
G01*
X4870000Y-10335000D02*
G75*
G02*
X4780000Y-10335000I-45000J0D01*
G01*
X4780000Y-10335000D02*
G75*
G02*
X4870000Y-10335000I45000J0D01*
G01*
X4870000Y-10670000D02*
G75*
G02*
X4780000Y-10670000I-45000J0D01*
G01*
X4780000Y-10670000D02*
G75*
G02*
X4870000Y-10670000I45000J0D01*
G01*
X5110700Y-5397000D02*
G75*
G02*
X5020700Y-5397000I-45000J0D01*
G01*
X5020700Y-5397000D02*
G75*
G02*
X5110700Y-5397000I45000J0D01*
G01*
X5110700Y-5732000D02*
G75*
G02*
X5020700Y-5732000I-45000J0D01*
G01*
X5020700Y-5732000D02*
G75*
G02*
X5110700Y-5732000I45000J0D01*
G01*
X5110700Y-6067000D02*
G75*
G02*
X5020700Y-6067000I-45000J0D01*
G01*
X5020700Y-6067000D02*
G75*
G02*
X5110700Y-6067000I45000J0D01*
G01*
X7141000Y-10000000D02*
G75*
G02*
X7051000Y-10000000I-45000J0D01*
G01*
X7051000Y-10000000D02*
G75*
G02*
X7141000Y-10000000I45000J0D01*
G01*
X7141000Y-10335000D02*
G75*
G02*
X7051000Y-10335000I-45000J0D01*
G01*
X7051000Y-10335000D02*
G75*
G02*
X7141000Y-10335000I45000J0D01*
G01*
X7141000Y-10670000D02*
G75*
G02*
X7051000Y-10670000I-45000J0D01*
G01*
X7051000Y-10670000D02*
G75*
G02*
X7141000Y-10670000I45000J0D01*
G01*
X7395000Y-10000000D02*
G75*
G02*
X7305000Y-10000000I-45000J0D01*
G01*
X7305000Y-10000000D02*
G75*
G02*
X7395000Y-10000000I45000J0D01*
G01*
X7395000Y-10335000D02*
G75*
G02*
X7305000Y-10335000I-45000J0D01*
G01*
X7305000Y-10335000D02*
G75*
G02*
X7395000Y-10335000I45000J0D01*
G01*
X7395000Y-10670000D02*
G75*
G02*
X7305000Y-10670000I-45000J0D01*
G01*
X7305000Y-10670000D02*
G75*
G02*
X7395000Y-10670000I45000J0D01*
G01*
X7622400Y-5397000D02*
G75*
G02*
X7532400Y-5397000I-45000J0D01*
G01*
X7532400Y-5397000D02*
G75*
G02*
X7622400Y-5397000I45000J0D01*
G01*
X7622400Y-5732000D02*
G75*
G02*
X7532400Y-5732000I-45000J0D01*
G01*
X7532400Y-5732000D02*
G75*
G02*
X7622400Y-5732000I45000J0D01*
G01*
X7622400Y-6067000D02*
G75*
G02*
X7532400Y-6067000I-45000J0D01*
G01*
X7532400Y-6067000D02*
G75*
G02*
X7622400Y-6067000I45000J0D01*
G01*
X7876400Y-5397000D02*
G75*
G02*
X7786400Y-5397000I-45000J0D01*
G01*
X7786400Y-5397000D02*
G75*
G02*
X7876400Y-5397000I45000J0D01*
G01*
X7876400Y-5732000D02*
G75*
G02*
X7786400Y-5732000I-45000J0D01*
G01*
X7786400Y-5732000D02*
G75*
G02*
X7876400Y-5732000I45000J0D01*
G01*
X7876400Y-6067000D02*
G75*
G02*
X7786400Y-6067000I-45000J0D01*
G01*
X7786400Y-6067000D02*
G75*
G02*
X7876400Y-6067000I45000J0D01*
G01*
X9666000Y-10000000D02*
G75*
G02*
X9576000Y-10000000I-45000J0D01*
G01*
X9576000Y-10000000D02*
G75*
G02*
X9666000Y-10000000I45000J0D01*
G01*
X9666000Y-10335000D02*
G75*
G02*
X9576000Y-10335000I-45000J0D01*
G01*
X9576000Y-10335000D02*
G75*
G02*
X9666000Y-10335000I45000J0D01*
G01*
X9666000Y-10670000D02*
G75*
G02*
X9576000Y-10670000I-45000J0D01*
G01*
X9576000Y-10670000D02*
G75*
G02*
X9666000Y-10670000I45000J0D01*
G01*
X9920000Y-10000000D02*
G75*
G02*
X9830000Y-10000000I-45000J0D01*
G01*
X9830000Y-10000000D02*
G75*
G02*
X9920000Y-10000000I45000J0D01*
G01*
X9920000Y-10335000D02*
G75*
G02*
X9830000Y-10335000I-45000J0D01*
G01*
X9830000Y-10335000D02*
G75*
G02*
X9920000Y-10335000I45000J0D01*
G01*
X9920000Y-10670000D02*
G75*
G02*
X9830000Y-10670000I-45000J0D01*
G01*
X9830000Y-10670000D02*
G75*
G02*
X9920000Y-10670000I45000J0D01*
G01*
X10388100Y-5397000D02*
G75*
G02*
X10298100Y-5397000I-45000J0D01*
G01*
X10298100Y-5397000D02*
G75*
G02*
X10388100Y-5397000I45000J0D01*
G01*
X10388100Y-5732000D02*
G75*
G02*
X10298100Y-5732000I-45000J0D01*
G01*
X10298100Y-5732000D02*
G75*
G02*
X10388100Y-5732000I45000J0D01*
G01*
X10388100Y-6067000D02*
G75*
G02*
X10298100Y-6067000I-45000J0D01*
G01*
X10298100Y-6067000D02*
G75*
G02*
X10388100Y-6067000I45000J0D01*
G01*
X10642100Y-5397000D02*
G75*
G02*
X10552100Y-5397000I-45000J0D01*
G01*
X10552100Y-5397000D02*
G75*
G02*
X10642100Y-5397000I45000J0D01*
G01*
X10642100Y-5732000D02*
G75*
G02*
X10552100Y-5732000I-45000J0D01*
G01*
X10552100Y-5732000D02*
G75*
G02*
X10642100Y-5732000I45000J0D01*
G01*
X10642100Y-6067000D02*
G75*
G02*
X10552100Y-6067000I-45000J0D01*
G01*
X10552100Y-6067000D02*
G75*
G02*
X10642100Y-6067000I45000J0D01*
G01*
X12191000Y-10000000D02*
G75*
G02*
X12101000Y-10000000I-45000J0D01*
G01*
X12101000Y-10000000D02*
G75*
G02*
X12191000Y-10000000I45000J0D01*
G01*
X12191000Y-10335000D02*
G75*
G02*
X12101000Y-10335000I-45000J0D01*
G01*
X12101000Y-10335000D02*
G75*
G02*
X12191000Y-10335000I45000J0D01*
G01*
X12191000Y-10670000D02*
G75*
G02*
X12101000Y-10670000I-45000J0D01*
G01*
X12101000Y-10670000D02*
G75*
G02*
X12191000Y-10670000I45000J0D01*
G01*
X12445000Y-10000000D02*
G75*
G02*
X12355000Y-10000000I-45000J0D01*
G01*
X12355000Y-10000000D02*
G75*
G02*
X12445000Y-10000000I45000J0D01*
G01*
X12445000Y-10335000D02*
G75*
G02*
X12355000Y-10335000I-45000J0D01*
G01*
X12355000Y-10335000D02*
G75*
G02*
X12445000Y-10335000I45000J0D01*
G01*
X12445000Y-10670000D02*
G75*
G02*
X12355000Y-10670000I-45000J0D01*
G01*
X12355000Y-10670000D02*
G75*
G02*
X12445000Y-10670000I45000J0D01*
G01*
X13153800Y-5397000D02*
G75*
G02*
X13063800Y-5397000I-45000J0D01*
G01*
X13063800Y-5397000D02*
G75*
G02*
X13153800Y-5397000I45000J0D01*
G01*
X13153800Y-5732000D02*
G75*
G02*
X13063800Y-5732000I-45000J0D01*
G01*
X13063800Y-5732000D02*
G75*
G02*
X13153800Y-5732000I45000J0D01*
G01*
X13153800Y-6067000D02*
G75*
G02*
X13063800Y-6067000I-45000J0D01*
G01*
X13063800Y-6067000D02*
G75*
G02*
X13153800Y-6067000I45000J0D01*
G01*
X13407800Y-5397000D02*
G75*
G02*
X13317800Y-5397000I-45000J0D01*
G01*
X13317800Y-5397000D02*
G75*
G02*
X13407800Y-5397000I45000J0D01*
G01*
X13407800Y-5732000D02*
G75*
G02*
X13317800Y-5732000I-45000J0D01*
G01*
X13317800Y-5732000D02*
G75*
G02*
X13407800Y-5732000I45000J0D01*
G01*
X13407800Y-6067000D02*
G75*
G02*
X13317800Y-6067000I-45000J0D01*
G01*
X13317800Y-6067000D02*
G75*
G02*
X13407800Y-6067000I45000J0D01*
G01*
X14716000Y-10000000D02*
G75*
G02*
X14626000Y-10000000I-45000J0D01*
G01*
X14626000Y-10000000D02*
G75*
G02*
X14716000Y-10000000I45000J0D01*
G01*
X14716000Y-10335000D02*
G75*
G02*
X14626000Y-10335000I-45000J0D01*
G01*
X14626000Y-10335000D02*
G75*
G02*
X14716000Y-10335000I45000J0D01*
G01*
X14716000Y-10670000D02*
G75*
G02*
X14626000Y-10670000I-45000J0D01*
G01*
X14626000Y-10670000D02*
G75*
G02*
X14716000Y-10670000I45000J0D01*
G01*
X14970000Y-10000000D02*
G75*
G02*
X14880000Y-10000000I-45000J0D01*
G01*
X14880000Y-10000000D02*
G75*
G02*
X14970000Y-10000000I45000J0D01*
G01*
X14970000Y-10335000D02*
G75*
G02*
X14880000Y-10335000I-45000J0D01*
G01*
X14880000Y-10335000D02*
G75*
G02*
X14970000Y-10335000I45000J0D01*
G01*
X14970000Y-10670000D02*
G75*
G02*
X14880000Y-10670000I-45000J0D01*
G01*
X14880000Y-10670000D02*
G75*
G02*
X14970000Y-10670000I45000J0D01*
G01*
X15919500Y-5397000D02*
G75*
G02*
X15829500Y-5397000I-45000J0D01*
G01*
X15829500Y-5397000D02*
G75*
G02*
X15919500Y-5397000I45000J0D01*
G01*
X15919500Y-5732000D02*
G75*
G02*
X15829500Y-5732000I-45000J0D01*
G01*
X15829500Y-5732000D02*
G75*
G02*
X15919500Y-5732000I45000J0D01*
G01*
X15919500Y-6067000D02*
G75*
G02*
X15829500Y-6067000I-45000J0D01*
G01*
X15829500Y-6067000D02*
G75*
G02*
X15919500Y-6067000I45000J0D01*
G01*
X16173500Y-5397000D02*
G75*
G02*
X16083500Y-5397000I-45000J0D01*
G01*
X16083500Y-5397000D02*
G75*
G02*
X16173500Y-5397000I45000J0D01*
G01*
X16173500Y-5732000D02*
G75*
G02*
X16083500Y-5732000I-45000J0D01*
G01*
X16083500Y-5732000D02*
G75*
G02*
X16173500Y-5732000I45000J0D01*
G01*
X16173500Y-6067000D02*
G75*
G02*
X16083500Y-6067000I-45000J0D01*
G01*
X16083500Y-6067000D02*
G75*
G02*
X16173500Y-6067000I45000J0D01*
G01*
X17241000Y-10000000D02*
G75*
G02*
X17151000Y-10000000I-45000J0D01*
G01*
X17151000Y-10000000D02*
G75*
G02*
X17241000Y-10000000I45000J0D01*
G01*
X17241000Y-10335000D02*
G75*
G02*
X17151000Y-10335000I-45000J0D01*
G01*
X17151000Y-10335000D02*
G75*
G02*
X17241000Y-10335000I45000J0D01*
G01*
X17241000Y-10670000D02*
G75*
G02*
X17151000Y-10670000I-45000J0D01*
G01*
X17151000Y-10670000D02*
G75*
G02*
X17241000Y-10670000I45000J0D01*
G01*
X17495000Y-10000000D02*
G75*
G02*
X17405000Y-10000000I-45000J0D01*
G01*
X17405000Y-10000000D02*
G75*
G02*
X17495000Y-10000000I45000J0D01*
G01*
X17495000Y-10335000D02*
G75*
G02*
X17405000Y-10335000I-45000J0D01*
G01*
X17405000Y-10335000D02*
G75*
G02*
X17495000Y-10335000I45000J0D01*
G01*
X17495000Y-10670000D02*
G75*
G02*
X17405000Y-10670000I-45000J0D01*
G01*
X17405000Y-10670000D02*
G75*
G02*
X17495000Y-10670000I45000J0D01*
G01*
X18685200Y-5397000D02*
G75*
G02*
X18595200Y-5397000I-45000J0D01*
G01*
X18595200Y-5397000D02*
G75*
G02*
X18685200Y-5397000I45000J0D01*
G01*
X18685200Y-5732000D02*
G75*
G02*
X18595200Y-5732000I-45000J0D01*
G01*
X18595200Y-5732000D02*
G75*
G02*
X18685200Y-5732000I45000J0D01*
G01*
X18685200Y-6067000D02*
G75*
G02*
X18595200Y-6067000I-45000J0D01*
G01*
X18595200Y-6067000D02*
G75*
G02*
X18685200Y-6067000I45000J0D01*
G01*
X18939200Y-5397000D02*
G75*
G02*
X18849200Y-5397000I-45000J0D01*
G01*
X18849200Y-5397000D02*
G75*
G02*
X18939200Y-5397000I45000J0D01*
G01*
X18939200Y-5732000D02*
G75*
G02*
X18849200Y-5732000I-45000J0D01*
G01*
X18849200Y-5732000D02*
G75*
G02*
X18939200Y-5732000I45000J0D01*
G01*
X18939200Y-6067000D02*
G75*
G02*
X18849200Y-6067000I-45000J0D01*
G01*
X18849200Y-6067000D02*
G75*
G02*
X18939200Y-6067000I45000J0D01*
G01*
X19766000Y-10000000D02*
G75*
G02*
X19676000Y-10000000I-45000J0D01*
G01*
X19676000Y-10000000D02*
G75*
G02*
X19766000Y-10000000I45000J0D01*
G01*
X19766000Y-10335000D02*
G75*
G02*
X19676000Y-10335000I-45000J0D01*
G01*
X19676000Y-10335000D02*
G75*
G02*
X19766000Y-10335000I45000J0D01*
G01*
X19766000Y-10670000D02*
G75*
G02*
X19676000Y-10670000I-45000J0D01*
G01*
X19676000Y-10670000D02*
G75*
G02*
X19766000Y-10670000I45000J0D01*
G01*
X20020000Y-10000000D02*
G75*
G02*
X19930000Y-10000000I-45000J0D01*
G01*
X19930000Y-10000000D02*
G75*
G02*
X20020000Y-10000000I45000J0D01*
G01*
X20020000Y-10335000D02*
G75*
G02*
X19930000Y-10335000I-45000J0D01*
G01*
X19930000Y-10335000D02*
G75*
G02*
X20020000Y-10335000I45000J0D01*
G01*
X20020000Y-10670000D02*
G75*
G02*
X19930000Y-10670000I-45000J0D01*
G01*
X19930000Y-10670000D02*
G75*
G02*
X20020000Y-10670000I45000J0D01*
G01*
X21450900Y-5397000D02*
G75*
G02*
X21360900Y-5397000I-45000J0D01*
G01*
X21360900Y-5397000D02*
G75*
G02*
X21450900Y-5397000I45000J0D01*
G01*
X21450900Y-5732000D02*
G75*
G02*
X21360900Y-5732000I-45000J0D01*
G01*
X21360900Y-5732000D02*
G75*
G02*
X21450900Y-5732000I45000J0D01*
G01*
X21450900Y-6067000D02*
G75*
G02*
X21360900Y-6067000I-45000J0D01*
G01*
X21360900Y-6067000D02*
G75*
G02*
X21450900Y-6067000I45000J0D01*
G01*
X21704900Y-5397000D02*
G75*
G02*
X21614900Y-5397000I-45000J0D01*
G01*
X21614900Y-5397000D02*
G75*
G02*
X21704900Y-5397000I45000J0D01*
G01*
X21704900Y-5732000D02*
G75*
G02*
X21614900Y-5732000I-45000J0D01*
G01*
X21614900Y-5732000D02*
G75*
G02*
X21704900Y-5732000I45000J0D01*
G01*
X21704900Y-6067000D02*
G75*
G02*
X21614900Y-6067000I-45000J0D01*
G01*
X21614900Y-6067000D02*
G75*
G02*
X21704900Y-6067000I45000J0D01*
G01*
X2306000Y-2391000D02*
X2306000Y-2491000D01*
X2256000Y-2441000D02*
X2356000Y-2441000D01*
X2306000Y-2641000D02*
X2306000Y-2741000D01*
X2256000Y-2691000D02*
X2356000Y-2691000D01*
X2306000Y-2891000D02*
X2306000Y-2991000D01*
X2256000Y-2941000D02*
X2356000Y-2941000D01*
X3235276Y-11378279D02*
X3235276Y-11478279D01*
X3185276Y-11428279D02*
X3285276Y-11428279D01*
X3244500Y-11968000D02*
X3244500Y-12068000D01*
X3194500Y-12018000D02*
X3294500Y-12018000D01*
X3489276Y-11378279D02*
X3489276Y-11478279D01*
X3439276Y-11428279D02*
X3539276Y-11428279D01*
X3498500Y-11968000D02*
X3498500Y-12068000D01*
X3448500Y-12018000D02*
X3548500Y-12018000D01*
X3550000Y-5991000D02*
X3550000Y-6091000D01*
X3500000Y-6041000D02*
X3600000Y-6041000D01*
X3743276Y-11378279D02*
X3743276Y-11478279D01*
X3693276Y-11428279D02*
X3793276Y-11428279D01*
X3752500Y-11968000D02*
X3752500Y-12068000D01*
X3702500Y-12018000D02*
X3802500Y-12018000D01*
X3804000Y-5991000D02*
X3804000Y-6091000D01*
X3754000Y-6041000D02*
X3854000Y-6041000D01*
X4058000Y-5991000D02*
X4058000Y-6091000D01*
X4008000Y-6041000D02*
X4108000Y-6041000D01*
X5071700Y-2382000D02*
X5071700Y-2482000D01*
X5021700Y-2432000D02*
X5121700Y-2432000D01*
X5071700Y-2632000D02*
X5071700Y-2732000D01*
X5021700Y-2682000D02*
X5121700Y-2682000D01*
X5071700Y-2882000D02*
X5071700Y-2982000D01*
X5021700Y-2932000D02*
X5121700Y-2932000D01*
X5760633Y-11386396D02*
X5760633Y-11486396D01*
X5710633Y-11436396D02*
X5810633Y-11436396D01*
X5769500Y-11968000D02*
X5769500Y-12068000D01*
X5719500Y-12018000D02*
X5819500Y-12018000D01*
X6014633Y-11386396D02*
X6014633Y-11486396D01*
X5964633Y-11436396D02*
X6064633Y-11436396D01*
X6023500Y-11968000D02*
X6023500Y-12068000D01*
X5973500Y-12018000D02*
X6073500Y-12018000D01*
X6268633Y-11386396D02*
X6268633Y-11486396D01*
X6218633Y-11436396D02*
X6318633Y-11436396D01*
X6277500Y-11968000D02*
X6277500Y-12068000D01*
X6227500Y-12018000D02*
X6327500Y-12018000D01*
X6315700Y-5982000D02*
X6315700Y-6082000D01*
X6265700Y-6032000D02*
X6365700Y-6032000D01*
X6569700Y-5982000D02*
X6569700Y-6082000D01*
X6519700Y-6032000D02*
X6619700Y-6032000D01*
X6823700Y-5982000D02*
X6823700Y-6082000D01*
X6773700Y-6032000D02*
X6873700Y-6032000D01*
X7837400Y-2382000D02*
X7837400Y-2482000D01*
X7787400Y-2432000D02*
X7887400Y-2432000D01*
X7837400Y-2632000D02*
X7837400Y-2732000D01*
X7787400Y-2682000D02*
X7887400Y-2682000D01*
X7837400Y-2882000D02*
X7837400Y-2982000D01*
X7787400Y-2932000D02*
X7887400Y-2932000D01*
X8285991Y-11362045D02*
X8285991Y-11462045D01*
X8235991Y-11412045D02*
X8335991Y-11412045D01*
X8294500Y-11968000D02*
X8294500Y-12068000D01*
X8244500Y-12018000D02*
X8344500Y-12018000D01*
X8539991Y-11362045D02*
X8539991Y-11462045D01*
X8489991Y-11412045D02*
X8589991Y-11412045D01*
X8548500Y-11968000D02*
X8548500Y-12068000D01*
X8498500Y-12018000D02*
X8598500Y-12018000D01*
X8793991Y-11362045D02*
X8793991Y-11462045D01*
X8743991Y-11412045D02*
X8843991Y-11412045D01*
X8802500Y-11968000D02*
X8802500Y-12068000D01*
X8752500Y-12018000D02*
X8852500Y-12018000D01*
X9081400Y-5982000D02*
X9081400Y-6082000D01*
X9031400Y-6032000D02*
X9131400Y-6032000D01*
X9335400Y-5982000D02*
X9335400Y-6082000D01*
X9285400Y-6032000D02*
X9385400Y-6032000D01*
X9589400Y-5982000D02*
X9589400Y-6082000D01*
X9539400Y-6032000D02*
X9639400Y-6032000D01*
X10603100Y-2382000D02*
X10603100Y-2482000D01*
X10553100Y-2432000D02*
X10653100Y-2432000D01*
X10603100Y-2632000D02*
X10603100Y-2732000D01*
X10553100Y-2682000D02*
X10653100Y-2682000D01*
X10603100Y-2882000D02*
X10603100Y-2982000D01*
X10553100Y-2932000D02*
X10653100Y-2932000D01*
X10811348Y-11345811D02*
X10811348Y-11445811D01*
X10761348Y-11395811D02*
X10861348Y-11395811D01*
X10819500Y-11968000D02*
X10819500Y-12068000D01*
X10769500Y-12018000D02*
X10869500Y-12018000D01*
X11065348Y-11345811D02*
X11065348Y-11445811D01*
X11015348Y-11395811D02*
X11115348Y-11395811D01*
X11073500Y-11968000D02*
X11073500Y-12068000D01*
X11023500Y-12018000D02*
X11123500Y-12018000D01*
X11319348Y-11345811D02*
X11319348Y-11445811D01*
X11269348Y-11395811D02*
X11369348Y-11395811D01*
X11327500Y-11968000D02*
X11327500Y-12068000D01*
X11277500Y-12018000D02*
X11377500Y-12018000D01*
X11847100Y-5982000D02*
X11847100Y-6082000D01*
X11797100Y-6032000D02*
X11897100Y-6032000D01*
X12101100Y-5982000D02*
X12101100Y-6082000D01*
X12051100Y-6032000D02*
X12151100Y-6032000D01*
X12355100Y-5982000D02*
X12355100Y-6082000D01*
X12305100Y-6032000D02*
X12405100Y-6032000D01*
X13336705Y-11370162D02*
X13336705Y-11470162D01*
X13286705Y-11420162D02*
X13386705Y-11420162D01*
X13344500Y-11968000D02*
X13344500Y-12068000D01*
X13294500Y-12018000D02*
X13394500Y-12018000D01*
X13368800Y-2382000D02*
X13368800Y-2482000D01*
X13318800Y-2432000D02*
X13418800Y-2432000D01*
X13368800Y-2632000D02*
X13368800Y-2732000D01*
X13318800Y-2682000D02*
X13418800Y-2682000D01*
X13368800Y-2882000D02*
X13368800Y-2982000D01*
X13318800Y-2932000D02*
X13418800Y-2932000D01*
X13590705Y-11370162D02*
X13590705Y-11470162D01*
X13540705Y-11420162D02*
X13640705Y-11420162D01*
X13598500Y-11968000D02*
X13598500Y-12068000D01*
X13548500Y-12018000D02*
X13648500Y-12018000D01*
X13844705Y-11370162D02*
X13844705Y-11470162D01*
X13794705Y-11420162D02*
X13894705Y-11420162D01*
X13852500Y-11968000D02*
X13852500Y-12068000D01*
X13802500Y-12018000D02*
X13902500Y-12018000D01*
X14612800Y-5982000D02*
X14612800Y-6082000D01*
X14562800Y-6032000D02*
X14662800Y-6032000D01*
X14866800Y-5982000D02*
X14866800Y-6082000D01*
X14816800Y-6032000D02*
X14916800Y-6032000D01*
X15120800Y-5982000D02*
X15120800Y-6082000D01*
X15070800Y-6032000D02*
X15170800Y-6032000D01*
X15862062Y-11353928D02*
X15862062Y-11453928D01*
X15812062Y-11403928D02*
X15912062Y-11403928D01*
X15869500Y-11968000D02*
X15869500Y-12068000D01*
X15819500Y-12018000D02*
X15919500Y-12018000D01*
X16116062Y-11353928D02*
X16116062Y-11453928D01*
X16066062Y-11403928D02*
X16166062Y-11403928D01*
X16123500Y-11968000D02*
X16123500Y-12068000D01*
X16073500Y-12018000D02*
X16173500Y-12018000D01*
X16134500Y-2382000D02*
X16134500Y-2482000D01*
X16084500Y-2432000D02*
X16184500Y-2432000D01*
X16134500Y-2632000D02*
X16134500Y-2732000D01*
X16084500Y-2682000D02*
X16184500Y-2682000D01*
X16134500Y-2882000D02*
X16134500Y-2982000D01*
X16084500Y-2932000D02*
X16184500Y-2932000D01*
X16370062Y-11353928D02*
X16370062Y-11453928D01*
X16320062Y-11403928D02*
X16420062Y-11403928D01*
X16377500Y-11968000D02*
X16377500Y-12068000D01*
X16327500Y-12018000D02*
X16427500Y-12018000D01*
X17378500Y-5982000D02*
X17378500Y-6082000D01*
X17328500Y-6032000D02*
X17428500Y-6032000D01*
X17632500Y-5982000D02*
X17632500Y-6082000D01*
X17582500Y-6032000D02*
X17682500Y-6032000D01*
X17886500Y-5982000D02*
X17886500Y-6082000D01*
X17836500Y-6032000D02*
X17936500Y-6032000D01*
X18387419Y-11394514D02*
X18387419Y-11494514D01*
X18337419Y-11444514D02*
X18437419Y-11444514D01*
X18394500Y-11968000D02*
X18394500Y-12068000D01*
X18344500Y-12018000D02*
X18444500Y-12018000D01*
X18641419Y-11394514D02*
X18641419Y-11494514D01*
X18591419Y-11444514D02*
X18691419Y-11444514D01*
X18648500Y-11968000D02*
X18648500Y-12068000D01*
X18598500Y-12018000D02*
X18698500Y-12018000D01*
X18895419Y-11394514D02*
X18895419Y-11494514D01*
X18845419Y-11444514D02*
X18945419Y-11444514D01*
X18900200Y-2382000D02*
X18900200Y-2482000D01*
X18850200Y-2432000D02*
X18950200Y-2432000D01*
X18900200Y-2632000D02*
X18900200Y-2732000D01*
X18850200Y-2682000D02*
X18950200Y-2682000D01*
X18900200Y-2882000D02*
X18900200Y-2982000D01*
X18850200Y-2932000D02*
X18950200Y-2932000D01*
X18902500Y-11968000D02*
X18902500Y-12068000D01*
X18852500Y-12018000D02*
X18952500Y-12018000D01*
X20144200Y-5982000D02*
X20144200Y-6082000D01*
X20094200Y-6032000D02*
X20194200Y-6032000D01*
X20398200Y-5982000D02*
X20398200Y-6082000D01*
X20348200Y-6032000D02*
X20448200Y-6032000D01*
X20652200Y-5982000D02*
X20652200Y-6082000D01*
X20602200Y-6032000D02*
X20702200Y-6032000D01*
X20912776Y-11337694D02*
X20912776Y-11437694D01*
X20862776Y-11387694D02*
X20962776Y-11387694D01*
X20919500Y-11968000D02*
X20919500Y-12068000D01*
X20869500Y-12018000D02*
X20969500Y-12018000D01*
X21166776Y-11337694D02*
X21166776Y-11437694D01*
X21116776Y-11387694D02*
X21216776Y-11387694D01*
X21173500Y-11968000D02*
X21173500Y-12068000D01*
X21123500Y-12018000D02*
X21223500Y-12018000D01*
X21420776Y-11337694D02*
X21420776Y-11437694D01*
X21370776Y-11387694D02*
X21470776Y-11387694D01*
X21427500Y-11968000D02*
X21427500Y-12068000D01*
X21377500Y-12018000D02*
X21477500Y-12018000D01*
X21665900Y-2382000D02*
X21665900Y-2482000D01*
X21615900Y-2432000D02*
X21715900Y-2432000D01*
X21665900Y-2632000D02*
X21665900Y-2732000D01*
X21615900Y-2682000D02*
X21715900Y-2682000D01*
X21665900Y-2882000D02*
X21665900Y-2982000D01*
X21615900Y-2932000D02*
X21715900Y-2932000D01*
X22909900Y-5982000D02*
X22909900Y-6082000D01*
X22859900Y-6032000D02*
X22959900Y-6032000D01*
X23163900Y-5982000D02*
X23163900Y-6082000D01*
X23113900Y-6032000D02*
X23213900Y-6032000D01*
X23417900Y-5982000D02*
X23417900Y-6082000D01*
X23367900Y-6032000D02*
X23467900Y-6032000D01*
D13*
X22297063Y-7351063D02*
X22297063Y-7278937D01*
X22224937Y-7278937D01*
X22224937Y-7351063D01*
X22297063Y-7351063D01*
X22297063Y-7605063D02*
X22297063Y-7532937D01*
X22224937Y-7532937D01*
X22224937Y-7605063D01*
X22297063Y-7605063D01*
X22297063Y-7859063D02*
X22297063Y-7786937D01*
X22224937Y-7786937D01*
X22224937Y-7859063D01*
X22297063Y-7859063D01*
X22297063Y-8113063D02*
X22297063Y-8040937D01*
X22224937Y-8040937D01*
X22224937Y-8113063D01*
X22297063Y-8113063D01*
X22297063Y-8367063D02*
X22297063Y-8294937D01*
X22224937Y-8294937D01*
X22224937Y-8367063D01*
X22297063Y-8367063D01*
X22297063Y-8621063D02*
X22297063Y-8548937D01*
X22224937Y-8548937D01*
X22224937Y-8621063D01*
X22297063Y-8621063D01*
X22297063Y-8875063D02*
X22297063Y-8802937D01*
X22224937Y-8802937D01*
X22224937Y-8875063D01*
X22297063Y-8875063D01*
X22297063Y-9129063D02*
X22297063Y-9056937D01*
X22224937Y-9056937D01*
X22224937Y-9129063D01*
X22297063Y-9129063D01*
X22297063Y-9383063D02*
X22297063Y-9310937D01*
X22224937Y-9310937D01*
X22224937Y-9383063D01*
X22297063Y-9383063D01*
X22297063Y-9637063D02*
X22297063Y-9564937D01*
X22224937Y-9564937D01*
X22224937Y-9637063D01*
X22297063Y-9637063D01*
X22297063Y-9891063D02*
X22297063Y-9818937D01*
X22224937Y-9818937D01*
X22224937Y-9891063D01*
X22297063Y-9891063D01*
X22297063Y-10145063D02*
X22297063Y-10072937D01*
X22224937Y-10072937D01*
X22224937Y-10145063D01*
X22297063Y-10145063D01*
X22297063Y-10399063D02*
X22297063Y-10326937D01*
X22224937Y-10326937D01*
X22224937Y-10399063D01*
X22297063Y-10399063D01*
X22297063Y-10653063D02*
X22297063Y-10580937D01*
X22224937Y-10580937D01*
X22224937Y-10653063D01*
X22297063Y-10653063D01*
X22297063Y-10907063D02*
X22297063Y-10834937D01*
X22224937Y-10834937D01*
X22224937Y-10907063D01*
X22297063Y-10907063D01*
X22297063Y-11161063D02*
X22297063Y-11088937D01*
X22224937Y-11088937D01*
X22224937Y-11161063D01*
X22297063Y-11161063D01*
X22297063Y-11415063D02*
X22297063Y-11342937D01*
X22224937Y-11342937D01*
X22224937Y-11415063D01*
X22297063Y-11415063D01*
X22297063Y-11669063D02*
X22297063Y-11596937D01*
X22224937Y-11596937D01*
X22224937Y-11669063D01*
X22297063Y-11669063D01*
X22297063Y-11923063D02*
X22297063Y-11850937D01*
X22224937Y-11850937D01*
X22224937Y-11923063D01*
X22297063Y-11923063D01*
X22297063Y-12177063D02*
X22297063Y-12104937D01*
X22224937Y-12104937D01*
X22224937Y-12177063D01*
X22297063Y-12177063D01*
X24075063Y-7351063D02*
X24075063Y-7278937D01*
X24002937Y-7278937D01*
X24002937Y-7351063D01*
X24075063Y-7351063D01*
X24075063Y-7605063D02*
X24075063Y-7532937D01*
X24002937Y-7532937D01*
X24002937Y-7605063D01*
X24075063Y-7605063D01*
X24075063Y-7859063D02*
X24075063Y-7786937D01*
X24002937Y-7786937D01*
X24002937Y-7859063D01*
X24075063Y-7859063D01*
X24075063Y-8113063D02*
X24075063Y-8040937D01*
X24002937Y-8040937D01*
X24002937Y-8113063D01*
X24075063Y-8113063D01*
X24075063Y-8367063D02*
X24075063Y-8294937D01*
X24002937Y-8294937D01*
X24002937Y-8367063D01*
X24075063Y-8367063D01*
X24075063Y-8621063D02*
X24075063Y-8548937D01*
X24002937Y-8548937D01*
X24002937Y-8621063D01*
X24075063Y-8621063D01*
X24075063Y-8875063D02*
X24075063Y-8802937D01*
X24002937Y-8802937D01*
X24002937Y-8875063D01*
X24075063Y-8875063D01*
X24075063Y-9129063D02*
X24075063Y-9056937D01*
X24002937Y-9056937D01*
X24002937Y-9129063D01*
X24075063Y-9129063D01*
X24075063Y-9383063D02*
X24075063Y-9310937D01*
X24002937Y-9310937D01*
X24002937Y-9383063D01*
X24075063Y-9383063D01*
X24075063Y-9637063D02*
X24075063Y-9564937D01*
X24002937Y-9564937D01*
X24002937Y-9637063D01*
X24075063Y-9637063D01*
X24075063Y-9891063D02*
X24075063Y-9818937D01*
X24002937Y-9818937D01*
X24002937Y-9891063D01*
X24075063Y-9891063D01*
X24075063Y-10145063D02*
X24075063Y-10072937D01*
X24002937Y-10072937D01*
X24002937Y-10145063D01*
X24075063Y-10145063D01*
X24075063Y-10399063D02*
X24075063Y-10326937D01*
X24002937Y-10326937D01*
X24002937Y-10399063D01*
X24075063Y-10399063D01*
X24075063Y-10653063D02*
X24075063Y-10580937D01*
X24002937Y-10580937D01*
X24002937Y-10653063D01*
X24075063Y-10653063D01*
X24075063Y-10907063D02*
X24075063Y-10834937D01*
X24002937Y-10834937D01*
X24002937Y-10907063D01*
X24075063Y-10907063D01*
X24075063Y-11161063D02*
X24075063Y-11088937D01*
X24002937Y-11088937D01*
X24002937Y-11161063D01*
X24075063Y-11161063D01*
X24075063Y-11415063D02*
X24075063Y-11342937D01*
X24002937Y-11342937D01*
X24002937Y-11415063D01*
X24075063Y-11415063D01*
X24075063Y-11669063D02*
X24075063Y-11596937D01*
X24002937Y-11596937D01*
X24002937Y-11669063D01*
X24075063Y-11669063D01*
X24075063Y-11923063D02*
X24075063Y-11850937D01*
X24002937Y-11850937D01*
X24002937Y-11923063D01*
X24075063Y-11923063D01*
X24075063Y-12177063D02*
X24075063Y-12104937D01*
X24002937Y-12104937D01*
X24002937Y-12177063D01*
X24075063Y-12177063D01*
D14*
X3500000Y-9761000D02*
X3561000Y-9700000D01*
X3500000Y-9639000D01*
X3439000Y-9700000D01*
X3500000Y-9761000D01*
X3800000Y-5480000D02*
X3861000Y-5419000D01*
X3800000Y-5358000D01*
X3739000Y-5419000D01*
X3800000Y-5480000D01*
X6025000Y-9761000D02*
X6086000Y-9700000D01*
X6025000Y-9639000D01*
X5964000Y-9700000D01*
X6025000Y-9761000D01*
X6565700Y-5471000D02*
X6626700Y-5410000D01*
X6565700Y-5349000D01*
X6504700Y-5410000D01*
X6565700Y-5471000D01*
X8550000Y-9761000D02*
X8611000Y-9700000D01*
X8550000Y-9639000D01*
X8489000Y-9700000D01*
X8550000Y-9761000D01*
X9331400Y-5471000D02*
X9392400Y-5410000D01*
X9331400Y-5349000D01*
X9270400Y-5410000D01*
X9331400Y-5471000D01*
X11075000Y-9761000D02*
X11136000Y-9700000D01*
X11075000Y-9639000D01*
X11014000Y-9700000D01*
X11075000Y-9761000D01*
X12097100Y-5471000D02*
X12158100Y-5410000D01*
X12097100Y-5349000D01*
X12036100Y-5410000D01*
X12097100Y-5471000D01*
X13600000Y-9761000D02*
X13661000Y-9700000D01*
X13600000Y-9639000D01*
X13539000Y-9700000D01*
X13600000Y-9761000D01*
X14862800Y-5471000D02*
X14923800Y-5410000D01*
X14862800Y-5349000D01*
X14801800Y-5410000D01*
X14862800Y-5471000D01*
X16125000Y-9761000D02*
X16186000Y-9700000D01*
X16125000Y-9639000D01*
X16064000Y-9700000D01*
X16125000Y-9761000D01*
X17628500Y-5471000D02*
X17689500Y-5410000D01*
X17628500Y-5349000D01*
X17567500Y-5410000D01*
X17628500Y-5471000D01*
X18650000Y-9761000D02*
X18711000Y-9700000D01*
X18650000Y-9639000D01*
X18589000Y-9700000D01*
X18650000Y-9761000D01*
X20394200Y-5471000D02*
X20455200Y-5410000D01*
X20394200Y-5349000D01*
X20333200Y-5410000D01*
X20394200Y-5471000D01*
X21175000Y-9761000D02*
X21236000Y-9700000D01*
X21175000Y-9639000D01*
X21114000Y-9700000D01*
X21175000Y-9761000D01*
X23159900Y-5471000D02*
X23220900Y-5410000D01*
X23159900Y-5349000D01*
X23098900Y-5410000D01*
X23159900Y-5471000D01*
D15*
X3429000Y-9939000D02*
X3571000Y-10081000D01*
X3571000Y-9939000D02*
X3429000Y-10081000D01*
X3571000Y-10010000D02*
G75*
G02*
X3429000Y-10010000I-71000J0D01*
G01*
X3429000Y-10010000D02*
G75*
G02*
X3571000Y-10010000I71000J0D01*
G01*
X3729000Y-5038000D02*
X3871000Y-5180000D01*
X3871000Y-5038000D02*
X3729000Y-5180000D01*
X3871000Y-5109000D02*
G75*
G02*
X3729000Y-5109000I-71000J0D01*
G01*
X3729000Y-5109000D02*
G75*
G02*
X3871000Y-5109000I71000J0D01*
G01*
X5954000Y-9939000D02*
X6096000Y-10081000D01*
X6096000Y-9939000D02*
X5954000Y-10081000D01*
X6096000Y-10010000D02*
G75*
G02*
X5954000Y-10010000I-71000J0D01*
G01*
X5954000Y-10010000D02*
G75*
G02*
X6096000Y-10010000I71000J0D01*
G01*
X6494700Y-5029000D02*
X6636700Y-5171000D01*
X6636700Y-5029000D02*
X6494700Y-5171000D01*
X6636700Y-5100000D02*
G75*
G02*
X6494700Y-5100000I-71000J0D01*
G01*
X6494700Y-5100000D02*
G75*
G02*
X6636700Y-5100000I71000J0D01*
G01*
X8479000Y-9939000D02*
X8621000Y-10081000D01*
X8621000Y-9939000D02*
X8479000Y-10081000D01*
X8621000Y-10010000D02*
G75*
G02*
X8479000Y-10010000I-71000J0D01*
G01*
X8479000Y-10010000D02*
G75*
G02*
X8621000Y-10010000I71000J0D01*
G01*
X9260400Y-5029000D02*
X9402400Y-5171000D01*
X9402400Y-5029000D02*
X9260400Y-5171000D01*
X9402400Y-5100000D02*
G75*
G02*
X9260400Y-5100000I-71000J0D01*
G01*
X9260400Y-5100000D02*
G75*
G02*
X9402400Y-5100000I71000J0D01*
G01*
X11004000Y-9939000D02*
X11146000Y-10081000D01*
X11146000Y-9939000D02*
X11004000Y-10081000D01*
X11146000Y-10010000D02*
G75*
G02*
X11004000Y-10010000I-71000J0D01*
G01*
X11004000Y-10010000D02*
G75*
G02*
X11146000Y-10010000I71000J0D01*
G01*
X12026100Y-5029000D02*
X12168100Y-5171000D01*
X12168100Y-5029000D02*
X12026100Y-5171000D01*
X12168100Y-5100000D02*
G75*
G02*
X12026100Y-5100000I-71000J0D01*
G01*
X12026100Y-5100000D02*
G75*
G02*
X12168100Y-5100000I71000J0D01*
G01*
X13529000Y-9939000D02*
X13671000Y-10081000D01*
X13671000Y-9939000D02*
X13529000Y-10081000D01*
X13671000Y-10010000D02*
G75*
G02*
X13529000Y-10010000I-71000J0D01*
G01*
X13529000Y-10010000D02*
G75*
G02*
X13671000Y-10010000I71000J0D01*
G01*
X14791800Y-5029000D02*
X14933800Y-5171000D01*
X14933800Y-5029000D02*
X14791800Y-5171000D01*
X14933800Y-5100000D02*
G75*
G02*
X14791800Y-5100000I-71000J0D01*
G01*
X14791800Y-5100000D02*
G75*
G02*
X14933800Y-5100000I71000J0D01*
G01*
X16054000Y-9939000D02*
X16196000Y-10081000D01*
X16196000Y-9939000D02*
X16054000Y-10081000D01*
X16196000Y-10010000D02*
G75*
G02*
X16054000Y-10010000I-71000J0D01*
G01*
X16054000Y-10010000D02*
G75*
G02*
X16196000Y-10010000I71000J0D01*
G01*
X17557500Y-5029000D02*
X17699500Y-5171000D01*
X17699500Y-5029000D02*
X17557500Y-5171000D01*
X17699500Y-5100000D02*
G75*
G02*
X17557500Y-5100000I-71000J0D01*
G01*
X17557500Y-5100000D02*
G75*
G02*
X17699500Y-5100000I71000J0D01*
G01*
X18579000Y-9939000D02*
X18721000Y-10081000D01*
X18721000Y-9939000D02*
X18579000Y-10081000D01*
X18721000Y-10010000D02*
G75*
G02*
X18579000Y-10010000I-71000J0D01*
G01*
X18579000Y-10010000D02*
G75*
G02*
X18721000Y-10010000I71000J0D01*
G01*
X20323200Y-5029000D02*
X20465200Y-5171000D01*
X20465200Y-5029000D02*
X20323200Y-5171000D01*
X20465200Y-5100000D02*
G75*
G02*
X20323200Y-5100000I-71000J0D01*
G01*
X20323200Y-5100000D02*
G75*
G02*
X20465200Y-5100000I71000J0D01*
G01*
X21104000Y-9939000D02*
X21246000Y-10081000D01*
X21246000Y-9939000D02*
X21104000Y-10081000D01*
X21246000Y-10010000D02*
G75*
G02*
X21104000Y-10010000I-71000J0D01*
G01*
X21104000Y-10010000D02*
G75*
G02*
X21246000Y-10010000I71000J0D01*
G01*
X23088900Y-5029000D02*
X23230900Y-5171000D01*
X23230900Y-5029000D02*
X23088900Y-5171000D01*
X23230900Y-5100000D02*
G75*
G02*
X23088900Y-5100000I-71000J0D01*
G01*
X23088900Y-5100000D02*
G75*
G02*
X23230900Y-5100000I71000J0D01*
G01*
D16*
X3428500Y-10768500D02*
X3571500Y-10911500D01*
X3571500Y-10768500D02*
X3428500Y-10911500D01*
X3500000Y-10768500D02*
X3500000Y-10911500D01*
X3428500Y-10840000D02*
X3571500Y-10840000D01*
X3728500Y-4207500D02*
X3871500Y-4350500D01*
X3871500Y-4207500D02*
X3728500Y-4350500D01*
X3800000Y-4207500D02*
X3800000Y-4350500D01*
X3728500Y-4279000D02*
X3871500Y-4279000D01*
X5953500Y-10768500D02*
X6096500Y-10911500D01*
X6096500Y-10768500D02*
X5953500Y-10911500D01*
X6025000Y-10768500D02*
X6025000Y-10911500D01*
X5953500Y-10840000D02*
X6096500Y-10840000D01*
X6494200Y-4198500D02*
X6637200Y-4341500D01*
X6637200Y-4198500D02*
X6494200Y-4341500D01*
X6565700Y-4198500D02*
X6565700Y-4341500D01*
X6494200Y-4270000D02*
X6637200Y-4270000D01*
X8478500Y-10768500D02*
X8621500Y-10911500D01*
X8621500Y-10768500D02*
X8478500Y-10911500D01*
X8550000Y-10768500D02*
X8550000Y-10911500D01*
X8478500Y-10840000D02*
X8621500Y-10840000D01*
X9259900Y-4198500D02*
X9402900Y-4341500D01*
X9402900Y-4198500D02*
X9259900Y-4341500D01*
X9331400Y-4198500D02*
X9331400Y-4341500D01*
X9259900Y-4270000D02*
X9402900Y-4270000D01*
X11003500Y-10768500D02*
X11146500Y-10911500D01*
X11146500Y-10768500D02*
X11003500Y-10911500D01*
X11075000Y-10768500D02*
X11075000Y-10911500D01*
X11003500Y-10840000D02*
X11146500Y-10840000D01*
X12025600Y-4198500D02*
X12168600Y-4341500D01*
X12168600Y-4198500D02*
X12025600Y-4341500D01*
X12097100Y-4198500D02*
X12097100Y-4341500D01*
X12025600Y-4270000D02*
X12168600Y-4270000D01*
X13528500Y-10768500D02*
X13671500Y-10911500D01*
X13671500Y-10768500D02*
X13528500Y-10911500D01*
X13600000Y-10768500D02*
X13600000Y-10911500D01*
X13528500Y-10840000D02*
X13671500Y-10840000D01*
X14791300Y-4198500D02*
X14934300Y-4341500D01*
X14934300Y-4198500D02*
X14791300Y-4341500D01*
X14862800Y-4198500D02*
X14862800Y-4341500D01*
X14791300Y-4270000D02*
X14934300Y-4270000D01*
X16053500Y-10768500D02*
X16196500Y-10911500D01*
X16196500Y-10768500D02*
X16053500Y-10911500D01*
X16125000Y-10768500D02*
X16125000Y-10911500D01*
X16053500Y-10840000D02*
X16196500Y-10840000D01*
X17557000Y-4198500D02*
X17700000Y-4341500D01*
X17700000Y-4198500D02*
X17557000Y-4341500D01*
X17628500Y-4198500D02*
X17628500Y-4341500D01*
X17557000Y-4270000D02*
X17700000Y-4270000D01*
X18578500Y-10768500D02*
X18721500Y-10911500D01*
X18721500Y-10768500D02*
X18578500Y-10911500D01*
X18650000Y-10768500D02*
X18650000Y-10911500D01*
X18578500Y-10840000D02*
X18721500Y-10840000D01*
X20322700Y-4198500D02*
X20465700Y-4341500D01*
X20465700Y-4198500D02*
X20322700Y-4341500D01*
X20394200Y-4198500D02*
X20394200Y-4341500D01*
X20322700Y-4270000D02*
X20465700Y-4270000D01*
X21103500Y-10768500D02*
X21246500Y-10911500D01*
X21246500Y-10768500D02*
X21103500Y-10911500D01*
X21175000Y-10768500D02*
X21175000Y-10911500D01*
X21103500Y-10840000D02*
X21246500Y-10840000D01*
X23088400Y-4198500D02*
X23231400Y-4341500D01*
X23231400Y-4198500D02*
X23088400Y-4341500D01*
X23159900Y-4198500D02*
X23159900Y-4341500D01*
X23088400Y-4270000D02*
X23231400Y-4270000D01*
D17*
X2916000Y-2161000D02*
X3096000Y-2341000D01*
X3096000Y-2161000D02*
X2916000Y-2341000D01*
X3069640Y-2314640D02*
X3069640Y-2187360D01*
X2942360Y-2187360D01*
X2942360Y-2314640D01*
X3069640Y-2314640D01*
D12*
X2991000Y-2341000D02*
X3021000Y-2341000D01*
X3021000Y-2161000D02*
G75*
G02*
X3021000Y-2341000I0J-90000D01*
G01*
X3021000Y-2161000D02*
X2991000Y-2161000D01*
X2991000Y-2161000D02*
G75*
G03*
X2991000Y-2341000I0J-90000D01*
G01*
D17*
X2916000Y-3041000D02*
X3096000Y-3221000D01*
X3096000Y-3041000D02*
X2916000Y-3221000D01*
X3069640Y-3194640D02*
X3069640Y-3067360D01*
X2942360Y-3067360D01*
X2942360Y-3194640D01*
X3069640Y-3194640D01*
D12*
X2991000Y-3221000D02*
X3021000Y-3221000D01*
X3021000Y-3041000D02*
G75*
G02*
X3021000Y-3221000I0J-90000D01*
G01*
X3021000Y-3041000D02*
X2991000Y-3041000D01*
X2991000Y-3041000D02*
G75*
G03*
X2991000Y-3221000I0J-90000D01*
G01*
D17*
X5681700Y-2152000D02*
X5861700Y-2332000D01*
X5861700Y-2152000D02*
X5681700Y-2332000D01*
X5835340Y-2305640D02*
X5835340Y-2178360D01*
X5708060Y-2178360D01*
X5708060Y-2305640D01*
X5835340Y-2305640D01*
D12*
X5756700Y-2332000D02*
X5786700Y-2332000D01*
X5786700Y-2152000D02*
G75*
G02*
X5786700Y-2332000I0J-90000D01*
G01*
X5786700Y-2152000D02*
X5756700Y-2152000D01*
X5756700Y-2152000D02*
G75*
G03*
X5756700Y-2332000I0J-90000D01*
G01*
D17*
X5681700Y-3032000D02*
X5861700Y-3212000D01*
X5861700Y-3032000D02*
X5681700Y-3212000D01*
X5835340Y-3185640D02*
X5835340Y-3058360D01*
X5708060Y-3058360D01*
X5708060Y-3185640D01*
X5835340Y-3185640D01*
D12*
X5756700Y-3212000D02*
X5786700Y-3212000D01*
X5786700Y-3032000D02*
G75*
G02*
X5786700Y-3212000I0J-90000D01*
G01*
X5786700Y-3032000D02*
X5756700Y-3032000D01*
X5756700Y-3032000D02*
G75*
G03*
X5756700Y-3212000I0J-90000D01*
G01*
D17*
X8447400Y-2152000D02*
X8627400Y-2332000D01*
X8627400Y-2152000D02*
X8447400Y-2332000D01*
X8601040Y-2305640D02*
X8601040Y-2178360D01*
X8473760Y-2178360D01*
X8473760Y-2305640D01*
X8601040Y-2305640D01*
D12*
X8522400Y-2332000D02*
X8552400Y-2332000D01*
X8552400Y-2152000D02*
G75*
G02*
X8552400Y-2332000I0J-90000D01*
G01*
X8552400Y-2152000D02*
X8522400Y-2152000D01*
X8522400Y-2152000D02*
G75*
G03*
X8522400Y-2332000I0J-90000D01*
G01*
D17*
X8447400Y-3032000D02*
X8627400Y-3212000D01*
X8627400Y-3032000D02*
X8447400Y-3212000D01*
X8601040Y-3185640D02*
X8601040Y-3058360D01*
X8473760Y-3058360D01*
X8473760Y-3185640D01*
X8601040Y-3185640D01*
D12*
X8522400Y-3212000D02*
X8552400Y-3212000D01*
X8552400Y-3032000D02*
G75*
G02*
X8552400Y-3212000I0J-90000D01*
G01*
X8552400Y-3032000D02*
X8522400Y-3032000D01*
X8522400Y-3032000D02*
G75*
G03*
X8522400Y-3212000I0J-90000D01*
G01*
D17*
X11213100Y-2152000D02*
X11393100Y-2332000D01*
X11393100Y-2152000D02*
X11213100Y-2332000D01*
X11366740Y-2305640D02*
X11366740Y-2178360D01*
X11239460Y-2178360D01*
X11239460Y-2305640D01*
X11366740Y-2305640D01*
D12*
X11288100Y-2332000D02*
X11318100Y-2332000D01*
X11318100Y-2152000D02*
G75*
G02*
X11318100Y-2332000I0J-90000D01*
G01*
X11318100Y-2152000D02*
X11288100Y-2152000D01*
X11288100Y-2152000D02*
G75*
G03*
X11288100Y-2332000I0J-90000D01*
G01*
D17*
X11213100Y-3032000D02*
X11393100Y-3212000D01*
X11393100Y-3032000D02*
X11213100Y-3212000D01*
X11366740Y-3185640D02*
X11366740Y-3058360D01*
X11239460Y-3058360D01*
X11239460Y-3185640D01*
X11366740Y-3185640D01*
D12*
X11288100Y-3212000D02*
X11318100Y-3212000D01*
X11318100Y-3032000D02*
G75*
G02*
X11318100Y-3212000I0J-90000D01*
G01*
X11318100Y-3032000D02*
X11288100Y-3032000D01*
X11288100Y-3032000D02*
G75*
G03*
X11288100Y-3212000I0J-90000D01*
G01*
D17*
X13978800Y-2152000D02*
X14158800Y-2332000D01*
X14158800Y-2152000D02*
X13978800Y-2332000D01*
X14132440Y-2305640D02*
X14132440Y-2178360D01*
X14005160Y-2178360D01*
X14005160Y-2305640D01*
X14132440Y-2305640D01*
D12*
X14053800Y-2332000D02*
X14083800Y-2332000D01*
X14083800Y-2152000D02*
G75*
G02*
X14083800Y-2332000I0J-90000D01*
G01*
X14083800Y-2152000D02*
X14053800Y-2152000D01*
X14053800Y-2152000D02*
G75*
G03*
X14053800Y-2332000I0J-90000D01*
G01*
D17*
X13978800Y-3032000D02*
X14158800Y-3212000D01*
X14158800Y-3032000D02*
X13978800Y-3212000D01*
X14132440Y-3185640D02*
X14132440Y-3058360D01*
X14005160Y-3058360D01*
X14005160Y-3185640D01*
X14132440Y-3185640D01*
D12*
X14053800Y-3212000D02*
X14083800Y-3212000D01*
X14083800Y-3032000D02*
G75*
G02*
X14083800Y-3212000I0J-90000D01*
G01*
X14083800Y-3032000D02*
X14053800Y-3032000D01*
X14053800Y-3032000D02*
G75*
G03*
X14053800Y-3212000I0J-90000D01*
G01*
D17*
X16744500Y-2152000D02*
X16924500Y-2332000D01*
X16924500Y-2152000D02*
X16744500Y-2332000D01*
X16898140Y-2305640D02*
X16898140Y-2178360D01*
X16770860Y-2178360D01*
X16770860Y-2305640D01*
X16898140Y-2305640D01*
D12*
X16819500Y-2332000D02*
X16849500Y-2332000D01*
X16849500Y-2152000D02*
G75*
G02*
X16849500Y-2332000I0J-90000D01*
G01*
X16849500Y-2152000D02*
X16819500Y-2152000D01*
X16819500Y-2152000D02*
G75*
G03*
X16819500Y-2332000I0J-90000D01*
G01*
D17*
X16744500Y-3032000D02*
X16924500Y-3212000D01*
X16924500Y-3032000D02*
X16744500Y-3212000D01*
X16898140Y-3185640D02*
X16898140Y-3058360D01*
X16770860Y-3058360D01*
X16770860Y-3185640D01*
X16898140Y-3185640D01*
D12*
X16819500Y-3212000D02*
X16849500Y-3212000D01*
X16849500Y-3032000D02*
G75*
G02*
X16849500Y-3212000I0J-90000D01*
G01*
X16849500Y-3032000D02*
X16819500Y-3032000D01*
X16819500Y-3032000D02*
G75*
G03*
X16819500Y-3212000I0J-90000D01*
G01*
D17*
X19510200Y-2152000D02*
X19690200Y-2332000D01*
X19690200Y-2152000D02*
X19510200Y-2332000D01*
X19663840Y-2305640D02*
X19663840Y-2178360D01*
X19536560Y-2178360D01*
X19536560Y-2305640D01*
X19663840Y-2305640D01*
D12*
X19585200Y-2332000D02*
X19615200Y-2332000D01*
X19615200Y-2152000D02*
G75*
G02*
X19615200Y-2332000I0J-90000D01*
G01*
X19615200Y-2152000D02*
X19585200Y-2152000D01*
X19585200Y-2152000D02*
G75*
G03*
X19585200Y-2332000I0J-90000D01*
G01*
D17*
X19510200Y-3032000D02*
X19690200Y-3212000D01*
X19690200Y-3032000D02*
X19510200Y-3212000D01*
X19663840Y-3185640D02*
X19663840Y-3058360D01*
X19536560Y-3058360D01*
X19536560Y-3185640D01*
X19663840Y-3185640D01*
D12*
X19585200Y-3212000D02*
X19615200Y-3212000D01*
X19615200Y-3032000D02*
G75*
G02*
X19615200Y-3212000I0J-90000D01*
G01*
X19615200Y-3032000D02*
X19585200Y-3032000D01*
X19585200Y-3032000D02*
G75*
G03*
X19585200Y-3212000I0J-90000D01*
G01*
D17*
X22275900Y-2152000D02*
X22455900Y-2332000D01*
X22455900Y-2152000D02*
X22275900Y-2332000D01*
X22429540Y-2305640D02*
X22429540Y-2178360D01*
X22302260Y-2178360D01*
X22302260Y-2305640D01*
X22429540Y-2305640D01*
D12*
X22350900Y-2332000D02*
X22380900Y-2332000D01*
X22380900Y-2152000D02*
G75*
G02*
X22380900Y-2332000I0J-90000D01*
G01*
X22380900Y-2152000D02*
X22350900Y-2152000D01*
X22350900Y-2152000D02*
G75*
G03*
X22350900Y-2332000I0J-90000D01*
G01*
D17*
X22275900Y-3032000D02*
X22455900Y-3212000D01*
X22455900Y-3032000D02*
X22275900Y-3212000D01*
X22429540Y-3185640D02*
X22429540Y-3058360D01*
X22302260Y-3058360D01*
X22302260Y-3185640D01*
X22429540Y-3185640D01*
D12*
X22350900Y-3212000D02*
X22380900Y-3212000D01*
X22380900Y-3032000D02*
G75*
G02*
X22380900Y-3212000I0J-90000D01*
G01*
X22380900Y-3032000D02*
X22350900Y-3032000D01*
X22350900Y-3032000D02*
G75*
G03*
X22350900Y-3212000I0J-90000D01*
G01*
D11*
X1758277Y-12963984D02*
X1758277Y-12763984D01*
X1758277Y-12763984D02*
X1805896Y-12763984D01*
X1805896Y-12763984D02*
X1834467Y-12773508D01*
X1834467Y-12773508D02*
X1853515Y-12792555D01*
X1853515Y-12792555D02*
X1863039Y-12811603D01*
X1863039Y-12811603D02*
X1872562Y-12849698D01*
X1872562Y-12849698D02*
X1872562Y-12878269D01*
X1872562Y-12878269D02*
X1863039Y-12916365D01*
X1863039Y-12916365D02*
X1853515Y-12935412D01*
X1853515Y-12935412D02*
X1834467Y-12954460D01*
X1834467Y-12954460D02*
X1805896Y-12963984D01*
X1805896Y-12963984D02*
X1758277Y-12963984D01*
X1958277Y-12963984D02*
X1958277Y-12830650D01*
X1958277Y-12868746D02*
X1967801Y-12849698D01*
X1967801Y-12849698D02*
X1977324Y-12840174D01*
X1977324Y-12840174D02*
X1996372Y-12830650D01*
X1996372Y-12830650D02*
X2015420Y-12830650D01*
X2082086Y-12963984D02*
X2082086Y-12830650D01*
X2082086Y-12763984D02*
X2072562Y-12773508D01*
X2072562Y-12773508D02*
X2082086Y-12783031D01*
X2082086Y-12783031D02*
X2091610Y-12773508D01*
X2091610Y-12773508D02*
X2082086Y-12763984D01*
X2082086Y-12763984D02*
X2082086Y-12783031D01*
X2205896Y-12963984D02*
X2186848Y-12954460D01*
X2186848Y-12954460D02*
X2177324Y-12935412D01*
X2177324Y-12935412D02*
X2177324Y-12763984D01*
X2310658Y-12963984D02*
X2291610Y-12954460D01*
X2291610Y-12954460D02*
X2282086Y-12935412D01*
X2282086Y-12935412D02*
X2282086Y-12763984D01*
X2539229Y-12963984D02*
X2539229Y-12763984D01*
X2539229Y-12763984D02*
X2605896Y-12906841D01*
X2605896Y-12906841D02*
X2672563Y-12763984D01*
X2672563Y-12763984D02*
X2672563Y-12963984D01*
X2853515Y-12963984D02*
X2853515Y-12859222D01*
X2853515Y-12859222D02*
X2843991Y-12840174D01*
X2843991Y-12840174D02*
X2824943Y-12830650D01*
X2824943Y-12830650D02*
X2786848Y-12830650D01*
X2786848Y-12830650D02*
X2767801Y-12840174D01*
X2853515Y-12954460D02*
X2834467Y-12963984D01*
X2834467Y-12963984D02*
X2786848Y-12963984D01*
X2786848Y-12963984D02*
X2767801Y-12954460D01*
X2767801Y-12954460D02*
X2758277Y-12935412D01*
X2758277Y-12935412D02*
X2758277Y-12916365D01*
X2758277Y-12916365D02*
X2767801Y-12897317D01*
X2767801Y-12897317D02*
X2786848Y-12887793D01*
X2786848Y-12887793D02*
X2834467Y-12887793D01*
X2834467Y-12887793D02*
X2853515Y-12878269D01*
X2948753Y-12830650D02*
X2948753Y-13030650D01*
X2948753Y-12840174D02*
X2967801Y-12830650D01*
X2967801Y-12830650D02*
X3005896Y-12830650D01*
X3005896Y-12830650D02*
X3024943Y-12840174D01*
X3024943Y-12840174D02*
X3034467Y-12849698D01*
X3034467Y-12849698D02*
X3043991Y-12868746D01*
X3043991Y-12868746D02*
X3043991Y-12925888D01*
X3043991Y-12925888D02*
X3034467Y-12944936D01*
X3034467Y-12944936D02*
X3024943Y-12954460D01*
X3024943Y-12954460D02*
X3005896Y-12963984D01*
X3005896Y-12963984D02*
X2967801Y-12963984D01*
X2967801Y-12963984D02*
X2948753Y-12954460D01*
X3129705Y-12944936D02*
X3139229Y-12954460D01*
X3139229Y-12954460D02*
X3129705Y-12963984D01*
X3129705Y-12963984D02*
X3120182Y-12954460D01*
X3120182Y-12954460D02*
X3129705Y-12944936D01*
X3129705Y-12944936D02*
X3129705Y-12963984D01*
X3129705Y-12840174D02*
X3139229Y-12849698D01*
X3139229Y-12849698D02*
X3129705Y-12859222D01*
X3129705Y-12859222D02*
X3120182Y-12849698D01*
X3120182Y-12849698D02*
X3129705Y-12840174D01*
X3129705Y-12840174D02*
X3129705Y-12859222D01*
D12*
X1467500Y-13277500D02*
X1497500Y-13307500D01*
X1497500Y-13277500D02*
X1467500Y-13307500D01*
D11*
X1796372Y-13183984D02*
X1815420Y-13183984D01*
X1815420Y-13183984D02*
X1834467Y-13193508D01*
X1834467Y-13193508D02*
X1843991Y-13203031D01*
X1843991Y-13203031D02*
X1853515Y-13222079D01*
X1853515Y-13222079D02*
X1863039Y-13260174D01*
X1863039Y-13260174D02*
X1863039Y-13307793D01*
X1863039Y-13307793D02*
X1853515Y-13345888D01*
X1853515Y-13345888D02*
X1843991Y-13364936D01*
X1843991Y-13364936D02*
X1834467Y-13374460D01*
X1834467Y-13374460D02*
X1815420Y-13383984D01*
X1815420Y-13383984D02*
X1796372Y-13383984D01*
X1796372Y-13383984D02*
X1777324Y-13374460D01*
X1777324Y-13374460D02*
X1767801Y-13364936D01*
X1767801Y-13364936D02*
X1758277Y-13345888D01*
X1758277Y-13345888D02*
X1748753Y-13307793D01*
X1748753Y-13307793D02*
X1748753Y-13260174D01*
X1748753Y-13260174D02*
X1758277Y-13222079D01*
X1758277Y-13222079D02*
X1767801Y-13203031D01*
X1767801Y-13203031D02*
X1777324Y-13193508D01*
X1777324Y-13193508D02*
X1796372Y-13183984D01*
X1948753Y-13364936D02*
X1958277Y-13374460D01*
X1958277Y-13374460D02*
X1948753Y-13383984D01*
X1948753Y-13383984D02*
X1939229Y-13374460D01*
X1939229Y-13374460D02*
X1948753Y-13364936D01*
X1948753Y-13364936D02*
X1948753Y-13383984D01*
X2024943Y-13183984D02*
X2148753Y-13183984D01*
X2148753Y-13183984D02*
X2082086Y-13260174D01*
X2082086Y-13260174D02*
X2110658Y-13260174D01*
X2110658Y-13260174D02*
X2129705Y-13269698D01*
X2129705Y-13269698D02*
X2139229Y-13279222D01*
X2139229Y-13279222D02*
X2148753Y-13298269D01*
X2148753Y-13298269D02*
X2148753Y-13345888D01*
X2148753Y-13345888D02*
X2139229Y-13364936D01*
X2139229Y-13364936D02*
X2129705Y-13374460D01*
X2129705Y-13374460D02*
X2110658Y-13383984D01*
X2110658Y-13383984D02*
X2053515Y-13383984D01*
X2053515Y-13383984D02*
X2034467Y-13374460D01*
X2034467Y-13374460D02*
X2024943Y-13364936D01*
X2272563Y-13183984D02*
X2291610Y-13183984D01*
X2291610Y-13183984D02*
X2310658Y-13193508D01*
X2310658Y-13193508D02*
X2320182Y-13203031D01*
X2320182Y-13203031D02*
X2329705Y-13222079D01*
X2329705Y-13222079D02*
X2339229Y-13260174D01*
X2339229Y-13260174D02*
X2339229Y-13307793D01*
X2339229Y-13307793D02*
X2329705Y-13345888D01*
X2329705Y-13345888D02*
X2320182Y-13364936D01*
X2320182Y-13364936D02*
X2310658Y-13374460D01*
X2310658Y-13374460D02*
X2291610Y-13383984D01*
X2291610Y-13383984D02*
X2272563Y-13383984D01*
X2272563Y-13383984D02*
X2253515Y-13374460D01*
X2253515Y-13374460D02*
X2243991Y-13364936D01*
X2243991Y-13364936D02*
X2234467Y-13345888D01*
X2234467Y-13345888D02*
X2224944Y-13307793D01*
X2224944Y-13307793D02*
X2224944Y-13260174D01*
X2224944Y-13260174D02*
X2234467Y-13222079D01*
X2234467Y-13222079D02*
X2243991Y-13203031D01*
X2243991Y-13203031D02*
X2253515Y-13193508D01*
X2253515Y-13193508D02*
X2272563Y-13183984D01*
X2463039Y-13183984D02*
X2482086Y-13183984D01*
X2482086Y-13183984D02*
X2501134Y-13193508D01*
X2501134Y-13193508D02*
X2510658Y-13203031D01*
X2510658Y-13203031D02*
X2520182Y-13222079D01*
X2520182Y-13222079D02*
X2529705Y-13260174D01*
X2529705Y-13260174D02*
X2529705Y-13307793D01*
X2529705Y-13307793D02*
X2520182Y-13345888D01*
X2520182Y-13345888D02*
X2510658Y-13364936D01*
X2510658Y-13364936D02*
X2501134Y-13374460D01*
X2501134Y-13374460D02*
X2482086Y-13383984D01*
X2482086Y-13383984D02*
X2463039Y-13383984D01*
X2463039Y-13383984D02*
X2443991Y-13374460D01*
X2443991Y-13374460D02*
X2434467Y-13364936D01*
X2434467Y-13364936D02*
X2424944Y-13345888D01*
X2424944Y-13345888D02*
X2415420Y-13307793D01*
X2415420Y-13307793D02*
X2415420Y-13260174D01*
X2415420Y-13260174D02*
X2424944Y-13222079D01*
X2424944Y-13222079D02*
X2434467Y-13203031D01*
X2434467Y-13203031D02*
X2443991Y-13193508D01*
X2443991Y-13193508D02*
X2463039Y-13183984D01*
X2615420Y-13383984D02*
X2615420Y-13250650D01*
X2615420Y-13269698D02*
X2624944Y-13260174D01*
X2624944Y-13260174D02*
X2643991Y-13250650D01*
X2643991Y-13250650D02*
X2672563Y-13250650D01*
X2672563Y-13250650D02*
X2691610Y-13260174D01*
X2691610Y-13260174D02*
X2701134Y-13279222D01*
X2701134Y-13279222D02*
X2701134Y-13383984D01*
X2701134Y-13279222D02*
X2710658Y-13260174D01*
X2710658Y-13260174D02*
X2729705Y-13250650D01*
X2729705Y-13250650D02*
X2758277Y-13250650D01*
X2758277Y-13250650D02*
X2777325Y-13260174D01*
X2777325Y-13260174D02*
X2786848Y-13279222D01*
X2786848Y-13279222D02*
X2786848Y-13383984D01*
X2882086Y-13383984D02*
X2882086Y-13250650D01*
X2882086Y-13269698D02*
X2891610Y-13260174D01*
X2891610Y-13260174D02*
X2910658Y-13250650D01*
X2910658Y-13250650D02*
X2939229Y-13250650D01*
X2939229Y-13250650D02*
X2958277Y-13260174D01*
X2958277Y-13260174D02*
X2967801Y-13279222D01*
X2967801Y-13279222D02*
X2967801Y-13383984D01*
X2967801Y-13279222D02*
X2977324Y-13260174D01*
X2977324Y-13260174D02*
X2996372Y-13250650D01*
X2996372Y-13250650D02*
X3024943Y-13250650D01*
X3024943Y-13250650D02*
X3043991Y-13260174D01*
X3043991Y-13260174D02*
X3053515Y-13279222D01*
X3053515Y-13279222D02*
X3053515Y-13383984D01*
X3443991Y-13174460D02*
X3272563Y-13431603D01*
X3701134Y-13183984D02*
X3720182Y-13183984D01*
X3720182Y-13183984D02*
X3739229Y-13193508D01*
X3739229Y-13193508D02*
X3748753Y-13203031D01*
X3748753Y-13203031D02*
X3758277Y-13222079D01*
X3758277Y-13222079D02*
X3767801Y-13260174D01*
X3767801Y-13260174D02*
X3767801Y-13307793D01*
X3767801Y-13307793D02*
X3758277Y-13345888D01*
X3758277Y-13345888D02*
X3748753Y-13364936D01*
X3748753Y-13364936D02*
X3739229Y-13374460D01*
X3739229Y-13374460D02*
X3720182Y-13383984D01*
X3720182Y-13383984D02*
X3701134Y-13383984D01*
X3701134Y-13383984D02*
X3682086Y-13374460D01*
X3682086Y-13374460D02*
X3672563Y-13364936D01*
X3672563Y-13364936D02*
X3663039Y-13345888D01*
X3663039Y-13345888D02*
X3653515Y-13307793D01*
X3653515Y-13307793D02*
X3653515Y-13260174D01*
X3653515Y-13260174D02*
X3663039Y-13222079D01*
X3663039Y-13222079D02*
X3672563Y-13203031D01*
X3672563Y-13203031D02*
X3682086Y-13193508D01*
X3682086Y-13193508D02*
X3701134Y-13183984D01*
X3853515Y-13364936D02*
X3863039Y-13374460D01*
X3863039Y-13374460D02*
X3853515Y-13383984D01*
X3853515Y-13383984D02*
X3843991Y-13374460D01*
X3843991Y-13374460D02*
X3853515Y-13364936D01*
X3853515Y-13364936D02*
X3853515Y-13383984D01*
X3986848Y-13183984D02*
X4005896Y-13183984D01*
X4005896Y-13183984D02*
X4024944Y-13193508D01*
X4024944Y-13193508D02*
X4034467Y-13203031D01*
X4034467Y-13203031D02*
X4043991Y-13222079D01*
X4043991Y-13222079D02*
X4053515Y-13260174D01*
X4053515Y-13260174D02*
X4053515Y-13307793D01*
X4053515Y-13307793D02*
X4043991Y-13345888D01*
X4043991Y-13345888D02*
X4034467Y-13364936D01*
X4034467Y-13364936D02*
X4024944Y-13374460D01*
X4024944Y-13374460D02*
X4005896Y-13383984D01*
X4005896Y-13383984D02*
X3986848Y-13383984D01*
X3986848Y-13383984D02*
X3967801Y-13374460D01*
X3967801Y-13374460D02*
X3958277Y-13364936D01*
X3958277Y-13364936D02*
X3948753Y-13345888D01*
X3948753Y-13345888D02*
X3939229Y-13307793D01*
X3939229Y-13307793D02*
X3939229Y-13260174D01*
X3939229Y-13260174D02*
X3948753Y-13222079D01*
X3948753Y-13222079D02*
X3958277Y-13203031D01*
X3958277Y-13203031D02*
X3967801Y-13193508D01*
X3967801Y-13193508D02*
X3986848Y-13183984D01*
X4243991Y-13383984D02*
X4129706Y-13383984D01*
X4186848Y-13383984D02*
X4186848Y-13183984D01*
X4186848Y-13183984D02*
X4167801Y-13212555D01*
X4167801Y-13212555D02*
X4148753Y-13231603D01*
X4148753Y-13231603D02*
X4129706Y-13241127D01*
X4434468Y-13383984D02*
X4320182Y-13383984D01*
X4377325Y-13383984D02*
X4377325Y-13183984D01*
X4377325Y-13183984D02*
X4358277Y-13212555D01*
X4358277Y-13212555D02*
X4339229Y-13231603D01*
X4339229Y-13231603D02*
X4320182Y-13241127D01*
X4548753Y-13269698D02*
X4529706Y-13260174D01*
X4529706Y-13260174D02*
X4520182Y-13250650D01*
X4520182Y-13250650D02*
X4510658Y-13231603D01*
X4510658Y-13231603D02*
X4510658Y-13222079D01*
X4510658Y-13222079D02*
X4520182Y-13203031D01*
X4520182Y-13203031D02*
X4529706Y-13193508D01*
X4529706Y-13193508D02*
X4548753Y-13183984D01*
X4548753Y-13183984D02*
X4586849Y-13183984D01*
X4586849Y-13183984D02*
X4605896Y-13193508D01*
X4605896Y-13193508D02*
X4615420Y-13203031D01*
X4615420Y-13203031D02*
X4624944Y-13222079D01*
X4624944Y-13222079D02*
X4624944Y-13231603D01*
X4624944Y-13231603D02*
X4615420Y-13250650D01*
X4615420Y-13250650D02*
X4605896Y-13260174D01*
X4605896Y-13260174D02*
X4586849Y-13269698D01*
X4586849Y-13269698D02*
X4548753Y-13269698D01*
X4548753Y-13269698D02*
X4529706Y-13279222D01*
X4529706Y-13279222D02*
X4520182Y-13288746D01*
X4520182Y-13288746D02*
X4510658Y-13307793D01*
X4510658Y-13307793D02*
X4510658Y-13345888D01*
X4510658Y-13345888D02*
X4520182Y-13364936D01*
X4520182Y-13364936D02*
X4529706Y-13374460D01*
X4529706Y-13374460D02*
X4548753Y-13383984D01*
X4548753Y-13383984D02*
X4586849Y-13383984D01*
X4586849Y-13383984D02*
X4605896Y-13374460D01*
X4605896Y-13374460D02*
X4615420Y-13364936D01*
X4615420Y-13364936D02*
X4624944Y-13345888D01*
X4624944Y-13345888D02*
X4624944Y-13307793D01*
X4624944Y-13307793D02*
X4615420Y-13288746D01*
X4615420Y-13288746D02*
X4605896Y-13279222D01*
X4605896Y-13279222D02*
X4586849Y-13269698D01*
X4701134Y-13183984D02*
X4701134Y-13222079D01*
X4777325Y-13183984D02*
X4777325Y-13222079D01*
X5072563Y-13460174D02*
X5063039Y-13450650D01*
X5063039Y-13450650D02*
X5043991Y-13422079D01*
X5043991Y-13422079D02*
X5034468Y-13403031D01*
X5034468Y-13403031D02*
X5024944Y-13374460D01*
X5024944Y-13374460D02*
X5015420Y-13326841D01*
X5015420Y-13326841D02*
X5015420Y-13288746D01*
X5015420Y-13288746D02*
X5024944Y-13241127D01*
X5024944Y-13241127D02*
X5034468Y-13212555D01*
X5034468Y-13212555D02*
X5043991Y-13193508D01*
X5043991Y-13193508D02*
X5063039Y-13164936D01*
X5063039Y-13164936D02*
X5072563Y-13155412D01*
X5139230Y-13203031D02*
X5148753Y-13193508D01*
X5148753Y-13193508D02*
X5167801Y-13183984D01*
X5167801Y-13183984D02*
X5215420Y-13183984D01*
X5215420Y-13183984D02*
X5234468Y-13193508D01*
X5234468Y-13193508D02*
X5243991Y-13203031D01*
X5243991Y-13203031D02*
X5253515Y-13222079D01*
X5253515Y-13222079D02*
X5253515Y-13241127D01*
X5253515Y-13241127D02*
X5243991Y-13269698D01*
X5243991Y-13269698D02*
X5129706Y-13383984D01*
X5129706Y-13383984D02*
X5253515Y-13383984D01*
X5329706Y-13203031D02*
X5339230Y-13193508D01*
X5339230Y-13193508D02*
X5358277Y-13183984D01*
X5358277Y-13183984D02*
X5405896Y-13183984D01*
X5405896Y-13183984D02*
X5424944Y-13193508D01*
X5424944Y-13193508D02*
X5434468Y-13203031D01*
X5434468Y-13203031D02*
X5443991Y-13222079D01*
X5443991Y-13222079D02*
X5443991Y-13241127D01*
X5443991Y-13241127D02*
X5434468Y-13269698D01*
X5434468Y-13269698D02*
X5320182Y-13383984D01*
X5320182Y-13383984D02*
X5443991Y-13383984D01*
X5615420Y-13250650D02*
X5615420Y-13383984D01*
X5567801Y-13174460D02*
X5520182Y-13317317D01*
X5520182Y-13317317D02*
X5643991Y-13317317D01*
X5872563Y-13383984D02*
X5872563Y-13183984D01*
X5958277Y-13383984D02*
X5958277Y-13279222D01*
X5958277Y-13279222D02*
X5948753Y-13260174D01*
X5948753Y-13260174D02*
X5929706Y-13250650D01*
X5929706Y-13250650D02*
X5901134Y-13250650D01*
X5901134Y-13250650D02*
X5882087Y-13260174D01*
X5882087Y-13260174D02*
X5872563Y-13269698D01*
X6082087Y-13383984D02*
X6063039Y-13374460D01*
X6063039Y-13374460D02*
X6053515Y-13364936D01*
X6053515Y-13364936D02*
X6043991Y-13345888D01*
X6043991Y-13345888D02*
X6043991Y-13288746D01*
X6043991Y-13288746D02*
X6053515Y-13269698D01*
X6053515Y-13269698D02*
X6063039Y-13260174D01*
X6063039Y-13260174D02*
X6082087Y-13250650D01*
X6082087Y-13250650D02*
X6110658Y-13250650D01*
X6110658Y-13250650D02*
X6129706Y-13260174D01*
X6129706Y-13260174D02*
X6139230Y-13269698D01*
X6139230Y-13269698D02*
X6148753Y-13288746D01*
X6148753Y-13288746D02*
X6148753Y-13345888D01*
X6148753Y-13345888D02*
X6139230Y-13364936D01*
X6139230Y-13364936D02*
X6129706Y-13374460D01*
X6129706Y-13374460D02*
X6110658Y-13383984D01*
X6110658Y-13383984D02*
X6082087Y-13383984D01*
X6263039Y-13383984D02*
X6243991Y-13374460D01*
X6243991Y-13374460D02*
X6234468Y-13355412D01*
X6234468Y-13355412D02*
X6234468Y-13183984D01*
X6415420Y-13374460D02*
X6396372Y-13383984D01*
X6396372Y-13383984D02*
X6358277Y-13383984D01*
X6358277Y-13383984D02*
X6339230Y-13374460D01*
X6339230Y-13374460D02*
X6329706Y-13355412D01*
X6329706Y-13355412D02*
X6329706Y-13279222D01*
X6329706Y-13279222D02*
X6339230Y-13260174D01*
X6339230Y-13260174D02*
X6358277Y-13250650D01*
X6358277Y-13250650D02*
X6396372Y-13250650D01*
X6396372Y-13250650D02*
X6415420Y-13260174D01*
X6415420Y-13260174D02*
X6424944Y-13279222D01*
X6424944Y-13279222D02*
X6424944Y-13298269D01*
X6424944Y-13298269D02*
X6329706Y-13317317D01*
X6501134Y-13374460D02*
X6520182Y-13383984D01*
X6520182Y-13383984D02*
X6558277Y-13383984D01*
X6558277Y-13383984D02*
X6577325Y-13374460D01*
X6577325Y-13374460D02*
X6586849Y-13355412D01*
X6586849Y-13355412D02*
X6586849Y-13345888D01*
X6586849Y-13345888D02*
X6577325Y-13326841D01*
X6577325Y-13326841D02*
X6558277Y-13317317D01*
X6558277Y-13317317D02*
X6529706Y-13317317D01*
X6529706Y-13317317D02*
X6510658Y-13307793D01*
X6510658Y-13307793D02*
X6501134Y-13288746D01*
X6501134Y-13288746D02*
X6501134Y-13279222D01*
X6501134Y-13279222D02*
X6510658Y-13260174D01*
X6510658Y-13260174D02*
X6529706Y-13250650D01*
X6529706Y-13250650D02*
X6558277Y-13250650D01*
X6558277Y-13250650D02*
X6577325Y-13260174D01*
X6653515Y-13460174D02*
X6663039Y-13450650D01*
X6663039Y-13450650D02*
X6682087Y-13422079D01*
X6682087Y-13422079D02*
X6691611Y-13403031D01*
X6691611Y-13403031D02*
X6701134Y-13374460D01*
X6701134Y-13374460D02*
X6710658Y-13326841D01*
X6710658Y-13326841D02*
X6710658Y-13288746D01*
X6710658Y-13288746D02*
X6701134Y-13241127D01*
X6701134Y-13241127D02*
X6691611Y-13212555D01*
X6691611Y-13212555D02*
X6682087Y-13193508D01*
X6682087Y-13193508D02*
X6663039Y-13164936D01*
X6663039Y-13164936D02*
X6653515Y-13155412D01*
D12*
X1497500Y-13556500D02*
G75*
G02*
X1407500Y-13556500I-45000J0D01*
G01*
X1407500Y-13556500D02*
G75*
G02*
X1497500Y-13556500I45000J0D01*
G01*
D11*
X1796372Y-13447984D02*
X1815420Y-13447984D01*
X1815420Y-13447984D02*
X1834467Y-13457508D01*
X1834467Y-13457508D02*
X1843991Y-13467031D01*
X1843991Y-13467031D02*
X1853515Y-13486079D01*
X1853515Y-13486079D02*
X1863039Y-13524174D01*
X1863039Y-13524174D02*
X1863039Y-13571793D01*
X1863039Y-13571793D02*
X1853515Y-13609888D01*
X1853515Y-13609888D02*
X1843991Y-13628936D01*
X1843991Y-13628936D02*
X1834467Y-13638460D01*
X1834467Y-13638460D02*
X1815420Y-13647984D01*
X1815420Y-13647984D02*
X1796372Y-13647984D01*
X1796372Y-13647984D02*
X1777324Y-13638460D01*
X1777324Y-13638460D02*
X1767801Y-13628936D01*
X1767801Y-13628936D02*
X1758277Y-13609888D01*
X1758277Y-13609888D02*
X1748753Y-13571793D01*
X1748753Y-13571793D02*
X1748753Y-13524174D01*
X1748753Y-13524174D02*
X1758277Y-13486079D01*
X1758277Y-13486079D02*
X1767801Y-13467031D01*
X1767801Y-13467031D02*
X1777324Y-13457508D01*
X1777324Y-13457508D02*
X1796372Y-13447984D01*
X1948753Y-13628936D02*
X1958277Y-13638460D01*
X1958277Y-13638460D02*
X1948753Y-13647984D01*
X1948753Y-13647984D02*
X1939229Y-13638460D01*
X1939229Y-13638460D02*
X1948753Y-13628936D01*
X1948753Y-13628936D02*
X1948753Y-13647984D01*
X2053515Y-13647984D02*
X2091610Y-13647984D01*
X2091610Y-13647984D02*
X2110658Y-13638460D01*
X2110658Y-13638460D02*
X2120182Y-13628936D01*
X2120182Y-13628936D02*
X2139229Y-13600365D01*
X2139229Y-13600365D02*
X2148753Y-13562269D01*
X2148753Y-13562269D02*
X2148753Y-13486079D01*
X2148753Y-13486079D02*
X2139229Y-13467031D01*
X2139229Y-13467031D02*
X2129705Y-13457508D01*
X2129705Y-13457508D02*
X2110658Y-13447984D01*
X2110658Y-13447984D02*
X2072562Y-13447984D01*
X2072562Y-13447984D02*
X2053515Y-13457508D01*
X2053515Y-13457508D02*
X2043991Y-13467031D01*
X2043991Y-13467031D02*
X2034467Y-13486079D01*
X2034467Y-13486079D02*
X2034467Y-13533698D01*
X2034467Y-13533698D02*
X2043991Y-13552746D01*
X2043991Y-13552746D02*
X2053515Y-13562269D01*
X2053515Y-13562269D02*
X2072562Y-13571793D01*
X2072562Y-13571793D02*
X2110658Y-13571793D01*
X2110658Y-13571793D02*
X2129705Y-13562269D01*
X2129705Y-13562269D02*
X2139229Y-13552746D01*
X2139229Y-13552746D02*
X2148753Y-13533698D01*
X2272563Y-13447984D02*
X2291610Y-13447984D01*
X2291610Y-13447984D02*
X2310658Y-13457508D01*
X2310658Y-13457508D02*
X2320182Y-13467031D01*
X2320182Y-13467031D02*
X2329705Y-13486079D01*
X2329705Y-13486079D02*
X2339229Y-13524174D01*
X2339229Y-13524174D02*
X2339229Y-13571793D01*
X2339229Y-13571793D02*
X2329705Y-13609888D01*
X2329705Y-13609888D02*
X2320182Y-13628936D01*
X2320182Y-13628936D02*
X2310658Y-13638460D01*
X2310658Y-13638460D02*
X2291610Y-13647984D01*
X2291610Y-13647984D02*
X2272563Y-13647984D01*
X2272563Y-13647984D02*
X2253515Y-13638460D01*
X2253515Y-13638460D02*
X2243991Y-13628936D01*
X2243991Y-13628936D02*
X2234467Y-13609888D01*
X2234467Y-13609888D02*
X2224944Y-13571793D01*
X2224944Y-13571793D02*
X2224944Y-13524174D01*
X2224944Y-13524174D02*
X2234467Y-13486079D01*
X2234467Y-13486079D02*
X2243991Y-13467031D01*
X2243991Y-13467031D02*
X2253515Y-13457508D01*
X2253515Y-13457508D02*
X2272563Y-13447984D01*
X2463039Y-13447984D02*
X2482086Y-13447984D01*
X2482086Y-13447984D02*
X2501134Y-13457508D01*
X2501134Y-13457508D02*
X2510658Y-13467031D01*
X2510658Y-13467031D02*
X2520182Y-13486079D01*
X2520182Y-13486079D02*
X2529705Y-13524174D01*
X2529705Y-13524174D02*
X2529705Y-13571793D01*
X2529705Y-13571793D02*
X2520182Y-13609888D01*
X2520182Y-13609888D02*
X2510658Y-13628936D01*
X2510658Y-13628936D02*
X2501134Y-13638460D01*
X2501134Y-13638460D02*
X2482086Y-13647984D01*
X2482086Y-13647984D02*
X2463039Y-13647984D01*
X2463039Y-13647984D02*
X2443991Y-13638460D01*
X2443991Y-13638460D02*
X2434467Y-13628936D01*
X2434467Y-13628936D02*
X2424944Y-13609888D01*
X2424944Y-13609888D02*
X2415420Y-13571793D01*
X2415420Y-13571793D02*
X2415420Y-13524174D01*
X2415420Y-13524174D02*
X2424944Y-13486079D01*
X2424944Y-13486079D02*
X2434467Y-13467031D01*
X2434467Y-13467031D02*
X2443991Y-13457508D01*
X2443991Y-13457508D02*
X2463039Y-13447984D01*
X2615420Y-13647984D02*
X2615420Y-13514650D01*
X2615420Y-13533698D02*
X2624944Y-13524174D01*
X2624944Y-13524174D02*
X2643991Y-13514650D01*
X2643991Y-13514650D02*
X2672563Y-13514650D01*
X2672563Y-13514650D02*
X2691610Y-13524174D01*
X2691610Y-13524174D02*
X2701134Y-13543222D01*
X2701134Y-13543222D02*
X2701134Y-13647984D01*
X2701134Y-13543222D02*
X2710658Y-13524174D01*
X2710658Y-13524174D02*
X2729705Y-13514650D01*
X2729705Y-13514650D02*
X2758277Y-13514650D01*
X2758277Y-13514650D02*
X2777325Y-13524174D01*
X2777325Y-13524174D02*
X2786848Y-13543222D01*
X2786848Y-13543222D02*
X2786848Y-13647984D01*
X2882086Y-13647984D02*
X2882086Y-13514650D01*
X2882086Y-13533698D02*
X2891610Y-13524174D01*
X2891610Y-13524174D02*
X2910658Y-13514650D01*
X2910658Y-13514650D02*
X2939229Y-13514650D01*
X2939229Y-13514650D02*
X2958277Y-13524174D01*
X2958277Y-13524174D02*
X2967801Y-13543222D01*
X2967801Y-13543222D02*
X2967801Y-13647984D01*
X2967801Y-13543222D02*
X2977324Y-13524174D01*
X2977324Y-13524174D02*
X2996372Y-13514650D01*
X2996372Y-13514650D02*
X3024943Y-13514650D01*
X3024943Y-13514650D02*
X3043991Y-13524174D01*
X3043991Y-13524174D02*
X3053515Y-13543222D01*
X3053515Y-13543222D02*
X3053515Y-13647984D01*
X3443991Y-13438460D02*
X3272563Y-13695603D01*
X3701134Y-13447984D02*
X3720182Y-13447984D01*
X3720182Y-13447984D02*
X3739229Y-13457508D01*
X3739229Y-13457508D02*
X3748753Y-13467031D01*
X3748753Y-13467031D02*
X3758277Y-13486079D01*
X3758277Y-13486079D02*
X3767801Y-13524174D01*
X3767801Y-13524174D02*
X3767801Y-13571793D01*
X3767801Y-13571793D02*
X3758277Y-13609888D01*
X3758277Y-13609888D02*
X3748753Y-13628936D01*
X3748753Y-13628936D02*
X3739229Y-13638460D01*
X3739229Y-13638460D02*
X3720182Y-13647984D01*
X3720182Y-13647984D02*
X3701134Y-13647984D01*
X3701134Y-13647984D02*
X3682086Y-13638460D01*
X3682086Y-13638460D02*
X3672563Y-13628936D01*
X3672563Y-13628936D02*
X3663039Y-13609888D01*
X3663039Y-13609888D02*
X3653515Y-13571793D01*
X3653515Y-13571793D02*
X3653515Y-13524174D01*
X3653515Y-13524174D02*
X3663039Y-13486079D01*
X3663039Y-13486079D02*
X3672563Y-13467031D01*
X3672563Y-13467031D02*
X3682086Y-13457508D01*
X3682086Y-13457508D02*
X3701134Y-13447984D01*
X3853515Y-13628936D02*
X3863039Y-13638460D01*
X3863039Y-13638460D02*
X3853515Y-13647984D01*
X3853515Y-13647984D02*
X3843991Y-13638460D01*
X3843991Y-13638460D02*
X3853515Y-13628936D01*
X3853515Y-13628936D02*
X3853515Y-13647984D01*
X3986848Y-13447984D02*
X4005896Y-13447984D01*
X4005896Y-13447984D02*
X4024944Y-13457508D01*
X4024944Y-13457508D02*
X4034467Y-13467031D01*
X4034467Y-13467031D02*
X4043991Y-13486079D01*
X4043991Y-13486079D02*
X4053515Y-13524174D01*
X4053515Y-13524174D02*
X4053515Y-13571793D01*
X4053515Y-13571793D02*
X4043991Y-13609888D01*
X4043991Y-13609888D02*
X4034467Y-13628936D01*
X4034467Y-13628936D02*
X4024944Y-13638460D01*
X4024944Y-13638460D02*
X4005896Y-13647984D01*
X4005896Y-13647984D02*
X3986848Y-13647984D01*
X3986848Y-13647984D02*
X3967801Y-13638460D01*
X3967801Y-13638460D02*
X3958277Y-13628936D01*
X3958277Y-13628936D02*
X3948753Y-13609888D01*
X3948753Y-13609888D02*
X3939229Y-13571793D01*
X3939229Y-13571793D02*
X3939229Y-13524174D01*
X3939229Y-13524174D02*
X3948753Y-13486079D01*
X3948753Y-13486079D02*
X3958277Y-13467031D01*
X3958277Y-13467031D02*
X3967801Y-13457508D01*
X3967801Y-13457508D02*
X3986848Y-13447984D01*
X4120182Y-13447984D02*
X4243991Y-13447984D01*
X4243991Y-13447984D02*
X4177325Y-13524174D01*
X4177325Y-13524174D02*
X4205896Y-13524174D01*
X4205896Y-13524174D02*
X4224944Y-13533698D01*
X4224944Y-13533698D02*
X4234468Y-13543222D01*
X4234468Y-13543222D02*
X4243991Y-13562269D01*
X4243991Y-13562269D02*
X4243991Y-13609888D01*
X4243991Y-13609888D02*
X4234468Y-13628936D01*
X4234468Y-13628936D02*
X4224944Y-13638460D01*
X4224944Y-13638460D02*
X4205896Y-13647984D01*
X4205896Y-13647984D02*
X4148753Y-13647984D01*
X4148753Y-13647984D02*
X4129706Y-13638460D01*
X4129706Y-13638460D02*
X4120182Y-13628936D01*
X4424944Y-13447984D02*
X4329706Y-13447984D01*
X4329706Y-13447984D02*
X4320182Y-13543222D01*
X4320182Y-13543222D02*
X4329706Y-13533698D01*
X4329706Y-13533698D02*
X4348753Y-13524174D01*
X4348753Y-13524174D02*
X4396372Y-13524174D01*
X4396372Y-13524174D02*
X4415420Y-13533698D01*
X4415420Y-13533698D02*
X4424944Y-13543222D01*
X4424944Y-13543222D02*
X4434468Y-13562269D01*
X4434468Y-13562269D02*
X4434468Y-13609888D01*
X4434468Y-13609888D02*
X4424944Y-13628936D01*
X4424944Y-13628936D02*
X4415420Y-13638460D01*
X4415420Y-13638460D02*
X4396372Y-13647984D01*
X4396372Y-13647984D02*
X4348753Y-13647984D01*
X4348753Y-13647984D02*
X4329706Y-13638460D01*
X4329706Y-13638460D02*
X4320182Y-13628936D01*
X4605896Y-13514650D02*
X4605896Y-13647984D01*
X4558277Y-13438460D02*
X4510658Y-13581317D01*
X4510658Y-13581317D02*
X4634468Y-13581317D01*
X4701134Y-13447984D02*
X4701134Y-13486079D01*
X4777325Y-13447984D02*
X4777325Y-13486079D01*
X5072563Y-13724174D02*
X5063039Y-13714650D01*
X5063039Y-13714650D02*
X5043991Y-13686079D01*
X5043991Y-13686079D02*
X5034468Y-13667031D01*
X5034468Y-13667031D02*
X5024944Y-13638460D01*
X5024944Y-13638460D02*
X5015420Y-13590841D01*
X5015420Y-13590841D02*
X5015420Y-13552746D01*
X5015420Y-13552746D02*
X5024944Y-13505127D01*
X5024944Y-13505127D02*
X5034468Y-13476555D01*
X5034468Y-13476555D02*
X5043991Y-13457508D01*
X5043991Y-13457508D02*
X5063039Y-13428936D01*
X5063039Y-13428936D02*
X5072563Y-13419412D01*
X5158277Y-13647984D02*
X5196372Y-13647984D01*
X5196372Y-13647984D02*
X5215420Y-13638460D01*
X5215420Y-13638460D02*
X5224944Y-13628936D01*
X5224944Y-13628936D02*
X5243991Y-13600365D01*
X5243991Y-13600365D02*
X5253515Y-13562269D01*
X5253515Y-13562269D02*
X5253515Y-13486079D01*
X5253515Y-13486079D02*
X5243991Y-13467031D01*
X5243991Y-13467031D02*
X5234468Y-13457508D01*
X5234468Y-13457508D02*
X5215420Y-13447984D01*
X5215420Y-13447984D02*
X5177325Y-13447984D01*
X5177325Y-13447984D02*
X5158277Y-13457508D01*
X5158277Y-13457508D02*
X5148753Y-13467031D01*
X5148753Y-13467031D02*
X5139230Y-13486079D01*
X5139230Y-13486079D02*
X5139230Y-13533698D01*
X5139230Y-13533698D02*
X5148753Y-13552746D01*
X5148753Y-13552746D02*
X5158277Y-13562269D01*
X5158277Y-13562269D02*
X5177325Y-13571793D01*
X5177325Y-13571793D02*
X5215420Y-13571793D01*
X5215420Y-13571793D02*
X5234468Y-13562269D01*
X5234468Y-13562269D02*
X5243991Y-13552746D01*
X5243991Y-13552746D02*
X5253515Y-13533698D01*
X5424944Y-13447984D02*
X5386849Y-13447984D01*
X5386849Y-13447984D02*
X5367801Y-13457508D01*
X5367801Y-13457508D02*
X5358277Y-13467031D01*
X5358277Y-13467031D02*
X5339230Y-13495603D01*
X5339230Y-13495603D02*
X5329706Y-13533698D01*
X5329706Y-13533698D02*
X5329706Y-13609888D01*
X5329706Y-13609888D02*
X5339230Y-13628936D01*
X5339230Y-13628936D02*
X5348753Y-13638460D01*
X5348753Y-13638460D02*
X5367801Y-13647984D01*
X5367801Y-13647984D02*
X5405896Y-13647984D01*
X5405896Y-13647984D02*
X5424944Y-13638460D01*
X5424944Y-13638460D02*
X5434468Y-13628936D01*
X5434468Y-13628936D02*
X5443991Y-13609888D01*
X5443991Y-13609888D02*
X5443991Y-13562269D01*
X5443991Y-13562269D02*
X5434468Y-13543222D01*
X5434468Y-13543222D02*
X5424944Y-13533698D01*
X5424944Y-13533698D02*
X5405896Y-13524174D01*
X5405896Y-13524174D02*
X5367801Y-13524174D01*
X5367801Y-13524174D02*
X5348753Y-13533698D01*
X5348753Y-13533698D02*
X5339230Y-13543222D01*
X5339230Y-13543222D02*
X5329706Y-13562269D01*
X5682087Y-13647984D02*
X5682087Y-13447984D01*
X5767801Y-13647984D02*
X5767801Y-13543222D01*
X5767801Y-13543222D02*
X5758277Y-13524174D01*
X5758277Y-13524174D02*
X5739230Y-13514650D01*
X5739230Y-13514650D02*
X5710658Y-13514650D01*
X5710658Y-13514650D02*
X5691610Y-13524174D01*
X5691610Y-13524174D02*
X5682087Y-13533698D01*
X5891610Y-13647984D02*
X5872563Y-13638460D01*
X5872563Y-13638460D02*
X5863039Y-13628936D01*
X5863039Y-13628936D02*
X5853515Y-13609888D01*
X5853515Y-13609888D02*
X5853515Y-13552746D01*
X5853515Y-13552746D02*
X5863039Y-13533698D01*
X5863039Y-13533698D02*
X5872563Y-13524174D01*
X5872563Y-13524174D02*
X5891610Y-13514650D01*
X5891610Y-13514650D02*
X5920182Y-13514650D01*
X5920182Y-13514650D02*
X5939230Y-13524174D01*
X5939230Y-13524174D02*
X5948753Y-13533698D01*
X5948753Y-13533698D02*
X5958277Y-13552746D01*
X5958277Y-13552746D02*
X5958277Y-13609888D01*
X5958277Y-13609888D02*
X5948753Y-13628936D01*
X5948753Y-13628936D02*
X5939230Y-13638460D01*
X5939230Y-13638460D02*
X5920182Y-13647984D01*
X5920182Y-13647984D02*
X5891610Y-13647984D01*
X6072563Y-13647984D02*
X6053515Y-13638460D01*
X6053515Y-13638460D02*
X6043991Y-13619412D01*
X6043991Y-13619412D02*
X6043991Y-13447984D01*
X6224944Y-13638460D02*
X6205896Y-13647984D01*
X6205896Y-13647984D02*
X6167801Y-13647984D01*
X6167801Y-13647984D02*
X6148753Y-13638460D01*
X6148753Y-13638460D02*
X6139230Y-13619412D01*
X6139230Y-13619412D02*
X6139230Y-13543222D01*
X6139230Y-13543222D02*
X6148753Y-13524174D01*
X6148753Y-13524174D02*
X6167801Y-13514650D01*
X6167801Y-13514650D02*
X6205896Y-13514650D01*
X6205896Y-13514650D02*
X6224944Y-13524174D01*
X6224944Y-13524174D02*
X6234468Y-13543222D01*
X6234468Y-13543222D02*
X6234468Y-13562269D01*
X6234468Y-13562269D02*
X6139230Y-13581317D01*
X6310658Y-13638460D02*
X6329706Y-13647984D01*
X6329706Y-13647984D02*
X6367801Y-13647984D01*
X6367801Y-13647984D02*
X6386849Y-13638460D01*
X6386849Y-13638460D02*
X6396372Y-13619412D01*
X6396372Y-13619412D02*
X6396372Y-13609888D01*
X6396372Y-13609888D02*
X6386849Y-13590841D01*
X6386849Y-13590841D02*
X6367801Y-13581317D01*
X6367801Y-13581317D02*
X6339230Y-13581317D01*
X6339230Y-13581317D02*
X6320182Y-13571793D01*
X6320182Y-13571793D02*
X6310658Y-13552746D01*
X6310658Y-13552746D02*
X6310658Y-13543222D01*
X6310658Y-13543222D02*
X6320182Y-13524174D01*
X6320182Y-13524174D02*
X6339230Y-13514650D01*
X6339230Y-13514650D02*
X6367801Y-13514650D01*
X6367801Y-13514650D02*
X6386849Y-13524174D01*
X6463039Y-13724174D02*
X6472563Y-13714650D01*
X6472563Y-13714650D02*
X6491611Y-13686079D01*
X6491611Y-13686079D02*
X6501134Y-13667031D01*
X6501134Y-13667031D02*
X6510658Y-13638460D01*
X6510658Y-13638460D02*
X6520182Y-13590841D01*
X6520182Y-13590841D02*
X6520182Y-13552746D01*
X6520182Y-13552746D02*
X6510658Y-13505127D01*
X6510658Y-13505127D02*
X6501134Y-13476555D01*
X6501134Y-13476555D02*
X6491611Y-13457508D01*
X6491611Y-13457508D02*
X6472563Y-13428936D01*
X6472563Y-13428936D02*
X6463039Y-13419412D01*
D12*
X1447500Y-13770500D02*
X1447500Y-13870500D01*
X1397500Y-13820500D02*
X1497500Y-13820500D01*
D11*
X1863039Y-13911984D02*
X1748753Y-13911984D01*
X1805896Y-13911984D02*
X1805896Y-13711984D01*
X1805896Y-13711984D02*
X1786848Y-13740555D01*
X1786848Y-13740555D02*
X1767801Y-13759603D01*
X1767801Y-13759603D02*
X1748753Y-13769127D01*
X1948753Y-13892936D02*
X1958277Y-13902460D01*
X1958277Y-13902460D02*
X1948753Y-13911984D01*
X1948753Y-13911984D02*
X1939229Y-13902460D01*
X1939229Y-13902460D02*
X1948753Y-13892936D01*
X1948753Y-13892936D02*
X1948753Y-13911984D01*
X2082086Y-13711984D02*
X2101134Y-13711984D01*
X2101134Y-13711984D02*
X2120182Y-13721508D01*
X2120182Y-13721508D02*
X2129705Y-13731031D01*
X2129705Y-13731031D02*
X2139229Y-13750079D01*
X2139229Y-13750079D02*
X2148753Y-13788174D01*
X2148753Y-13788174D02*
X2148753Y-13835793D01*
X2148753Y-13835793D02*
X2139229Y-13873888D01*
X2139229Y-13873888D02*
X2129705Y-13892936D01*
X2129705Y-13892936D02*
X2120182Y-13902460D01*
X2120182Y-13902460D02*
X2101134Y-13911984D01*
X2101134Y-13911984D02*
X2082086Y-13911984D01*
X2082086Y-13911984D02*
X2063039Y-13902460D01*
X2063039Y-13902460D02*
X2053515Y-13892936D01*
X2053515Y-13892936D02*
X2043991Y-13873888D01*
X2043991Y-13873888D02*
X2034467Y-13835793D01*
X2034467Y-13835793D02*
X2034467Y-13788174D01*
X2034467Y-13788174D02*
X2043991Y-13750079D01*
X2043991Y-13750079D02*
X2053515Y-13731031D01*
X2053515Y-13731031D02*
X2063039Y-13721508D01*
X2063039Y-13721508D02*
X2082086Y-13711984D01*
X2272563Y-13711984D02*
X2291610Y-13711984D01*
X2291610Y-13711984D02*
X2310658Y-13721508D01*
X2310658Y-13721508D02*
X2320182Y-13731031D01*
X2320182Y-13731031D02*
X2329705Y-13750079D01*
X2329705Y-13750079D02*
X2339229Y-13788174D01*
X2339229Y-13788174D02*
X2339229Y-13835793D01*
X2339229Y-13835793D02*
X2329705Y-13873888D01*
X2329705Y-13873888D02*
X2320182Y-13892936D01*
X2320182Y-13892936D02*
X2310658Y-13902460D01*
X2310658Y-13902460D02*
X2291610Y-13911984D01*
X2291610Y-13911984D02*
X2272563Y-13911984D01*
X2272563Y-13911984D02*
X2253515Y-13902460D01*
X2253515Y-13902460D02*
X2243991Y-13892936D01*
X2243991Y-13892936D02*
X2234467Y-13873888D01*
X2234467Y-13873888D02*
X2224944Y-13835793D01*
X2224944Y-13835793D02*
X2224944Y-13788174D01*
X2224944Y-13788174D02*
X2234467Y-13750079D01*
X2234467Y-13750079D02*
X2243991Y-13731031D01*
X2243991Y-13731031D02*
X2253515Y-13721508D01*
X2253515Y-13721508D02*
X2272563Y-13711984D01*
X2463039Y-13711984D02*
X2482086Y-13711984D01*
X2482086Y-13711984D02*
X2501134Y-13721508D01*
X2501134Y-13721508D02*
X2510658Y-13731031D01*
X2510658Y-13731031D02*
X2520182Y-13750079D01*
X2520182Y-13750079D02*
X2529705Y-13788174D01*
X2529705Y-13788174D02*
X2529705Y-13835793D01*
X2529705Y-13835793D02*
X2520182Y-13873888D01*
X2520182Y-13873888D02*
X2510658Y-13892936D01*
X2510658Y-13892936D02*
X2501134Y-13902460D01*
X2501134Y-13902460D02*
X2482086Y-13911984D01*
X2482086Y-13911984D02*
X2463039Y-13911984D01*
X2463039Y-13911984D02*
X2443991Y-13902460D01*
X2443991Y-13902460D02*
X2434467Y-13892936D01*
X2434467Y-13892936D02*
X2424944Y-13873888D01*
X2424944Y-13873888D02*
X2415420Y-13835793D01*
X2415420Y-13835793D02*
X2415420Y-13788174D01*
X2415420Y-13788174D02*
X2424944Y-13750079D01*
X2424944Y-13750079D02*
X2434467Y-13731031D01*
X2434467Y-13731031D02*
X2443991Y-13721508D01*
X2443991Y-13721508D02*
X2463039Y-13711984D01*
X2615420Y-13911984D02*
X2615420Y-13778650D01*
X2615420Y-13797698D02*
X2624944Y-13788174D01*
X2624944Y-13788174D02*
X2643991Y-13778650D01*
X2643991Y-13778650D02*
X2672563Y-13778650D01*
X2672563Y-13778650D02*
X2691610Y-13788174D01*
X2691610Y-13788174D02*
X2701134Y-13807222D01*
X2701134Y-13807222D02*
X2701134Y-13911984D01*
X2701134Y-13807222D02*
X2710658Y-13788174D01*
X2710658Y-13788174D02*
X2729705Y-13778650D01*
X2729705Y-13778650D02*
X2758277Y-13778650D01*
X2758277Y-13778650D02*
X2777325Y-13788174D01*
X2777325Y-13788174D02*
X2786848Y-13807222D01*
X2786848Y-13807222D02*
X2786848Y-13911984D01*
X2882086Y-13911984D02*
X2882086Y-13778650D01*
X2882086Y-13797698D02*
X2891610Y-13788174D01*
X2891610Y-13788174D02*
X2910658Y-13778650D01*
X2910658Y-13778650D02*
X2939229Y-13778650D01*
X2939229Y-13778650D02*
X2958277Y-13788174D01*
X2958277Y-13788174D02*
X2967801Y-13807222D01*
X2967801Y-13807222D02*
X2967801Y-13911984D01*
X2967801Y-13807222D02*
X2977324Y-13788174D01*
X2977324Y-13788174D02*
X2996372Y-13778650D01*
X2996372Y-13778650D02*
X3024943Y-13778650D01*
X3024943Y-13778650D02*
X3043991Y-13788174D01*
X3043991Y-13788174D02*
X3053515Y-13807222D01*
X3053515Y-13807222D02*
X3053515Y-13911984D01*
X3443991Y-13702460D02*
X3272563Y-13959603D01*
X3701134Y-13711984D02*
X3720182Y-13711984D01*
X3720182Y-13711984D02*
X3739229Y-13721508D01*
X3739229Y-13721508D02*
X3748753Y-13731031D01*
X3748753Y-13731031D02*
X3758277Y-13750079D01*
X3758277Y-13750079D02*
X3767801Y-13788174D01*
X3767801Y-13788174D02*
X3767801Y-13835793D01*
X3767801Y-13835793D02*
X3758277Y-13873888D01*
X3758277Y-13873888D02*
X3748753Y-13892936D01*
X3748753Y-13892936D02*
X3739229Y-13902460D01*
X3739229Y-13902460D02*
X3720182Y-13911984D01*
X3720182Y-13911984D02*
X3701134Y-13911984D01*
X3701134Y-13911984D02*
X3682086Y-13902460D01*
X3682086Y-13902460D02*
X3672563Y-13892936D01*
X3672563Y-13892936D02*
X3663039Y-13873888D01*
X3663039Y-13873888D02*
X3653515Y-13835793D01*
X3653515Y-13835793D02*
X3653515Y-13788174D01*
X3653515Y-13788174D02*
X3663039Y-13750079D01*
X3663039Y-13750079D02*
X3672563Y-13731031D01*
X3672563Y-13731031D02*
X3682086Y-13721508D01*
X3682086Y-13721508D02*
X3701134Y-13711984D01*
X3853515Y-13892936D02*
X3863039Y-13902460D01*
X3863039Y-13902460D02*
X3853515Y-13911984D01*
X3853515Y-13911984D02*
X3843991Y-13902460D01*
X3843991Y-13902460D02*
X3853515Y-13892936D01*
X3853515Y-13892936D02*
X3853515Y-13911984D01*
X3986848Y-13711984D02*
X4005896Y-13711984D01*
X4005896Y-13711984D02*
X4024944Y-13721508D01*
X4024944Y-13721508D02*
X4034467Y-13731031D01*
X4034467Y-13731031D02*
X4043991Y-13750079D01*
X4043991Y-13750079D02*
X4053515Y-13788174D01*
X4053515Y-13788174D02*
X4053515Y-13835793D01*
X4053515Y-13835793D02*
X4043991Y-13873888D01*
X4043991Y-13873888D02*
X4034467Y-13892936D01*
X4034467Y-13892936D02*
X4024944Y-13902460D01*
X4024944Y-13902460D02*
X4005896Y-13911984D01*
X4005896Y-13911984D02*
X3986848Y-13911984D01*
X3986848Y-13911984D02*
X3967801Y-13902460D01*
X3967801Y-13902460D02*
X3958277Y-13892936D01*
X3958277Y-13892936D02*
X3948753Y-13873888D01*
X3948753Y-13873888D02*
X3939229Y-13835793D01*
X3939229Y-13835793D02*
X3939229Y-13788174D01*
X3939229Y-13788174D02*
X3948753Y-13750079D01*
X3948753Y-13750079D02*
X3958277Y-13731031D01*
X3958277Y-13731031D02*
X3967801Y-13721508D01*
X3967801Y-13721508D02*
X3986848Y-13711984D01*
X4120182Y-13711984D02*
X4243991Y-13711984D01*
X4243991Y-13711984D02*
X4177325Y-13788174D01*
X4177325Y-13788174D02*
X4205896Y-13788174D01*
X4205896Y-13788174D02*
X4224944Y-13797698D01*
X4224944Y-13797698D02*
X4234468Y-13807222D01*
X4234468Y-13807222D02*
X4243991Y-13826269D01*
X4243991Y-13826269D02*
X4243991Y-13873888D01*
X4243991Y-13873888D02*
X4234468Y-13892936D01*
X4234468Y-13892936D02*
X4224944Y-13902460D01*
X4224944Y-13902460D02*
X4205896Y-13911984D01*
X4205896Y-13911984D02*
X4148753Y-13911984D01*
X4148753Y-13911984D02*
X4129706Y-13902460D01*
X4129706Y-13902460D02*
X4120182Y-13892936D01*
X4339229Y-13911984D02*
X4377325Y-13911984D01*
X4377325Y-13911984D02*
X4396372Y-13902460D01*
X4396372Y-13902460D02*
X4405896Y-13892936D01*
X4405896Y-13892936D02*
X4424944Y-13864365D01*
X4424944Y-13864365D02*
X4434468Y-13826269D01*
X4434468Y-13826269D02*
X4434468Y-13750079D01*
X4434468Y-13750079D02*
X4424944Y-13731031D01*
X4424944Y-13731031D02*
X4415420Y-13721508D01*
X4415420Y-13721508D02*
X4396372Y-13711984D01*
X4396372Y-13711984D02*
X4358277Y-13711984D01*
X4358277Y-13711984D02*
X4339229Y-13721508D01*
X4339229Y-13721508D02*
X4329706Y-13731031D01*
X4329706Y-13731031D02*
X4320182Y-13750079D01*
X4320182Y-13750079D02*
X4320182Y-13797698D01*
X4320182Y-13797698D02*
X4329706Y-13816746D01*
X4329706Y-13816746D02*
X4339229Y-13826269D01*
X4339229Y-13826269D02*
X4358277Y-13835793D01*
X4358277Y-13835793D02*
X4396372Y-13835793D01*
X4396372Y-13835793D02*
X4415420Y-13826269D01*
X4415420Y-13826269D02*
X4424944Y-13816746D01*
X4424944Y-13816746D02*
X4434468Y-13797698D01*
X4605896Y-13778650D02*
X4605896Y-13911984D01*
X4558277Y-13702460D02*
X4510658Y-13845317D01*
X4510658Y-13845317D02*
X4634468Y-13845317D01*
X4701134Y-13711984D02*
X4701134Y-13750079D01*
X4777325Y-13711984D02*
X4777325Y-13750079D01*
X5072563Y-13988174D02*
X5063039Y-13978650D01*
X5063039Y-13978650D02*
X5043991Y-13950079D01*
X5043991Y-13950079D02*
X5034468Y-13931031D01*
X5034468Y-13931031D02*
X5024944Y-13902460D01*
X5024944Y-13902460D02*
X5015420Y-13854841D01*
X5015420Y-13854841D02*
X5015420Y-13816746D01*
X5015420Y-13816746D02*
X5024944Y-13769127D01*
X5024944Y-13769127D02*
X5034468Y-13740555D01*
X5034468Y-13740555D02*
X5043991Y-13721508D01*
X5043991Y-13721508D02*
X5063039Y-13692936D01*
X5063039Y-13692936D02*
X5072563Y-13683412D01*
X5158277Y-13911984D02*
X5196372Y-13911984D01*
X5196372Y-13911984D02*
X5215420Y-13902460D01*
X5215420Y-13902460D02*
X5224944Y-13892936D01*
X5224944Y-13892936D02*
X5243991Y-13864365D01*
X5243991Y-13864365D02*
X5253515Y-13826269D01*
X5253515Y-13826269D02*
X5253515Y-13750079D01*
X5253515Y-13750079D02*
X5243991Y-13731031D01*
X5243991Y-13731031D02*
X5234468Y-13721508D01*
X5234468Y-13721508D02*
X5215420Y-13711984D01*
X5215420Y-13711984D02*
X5177325Y-13711984D01*
X5177325Y-13711984D02*
X5158277Y-13721508D01*
X5158277Y-13721508D02*
X5148753Y-13731031D01*
X5148753Y-13731031D02*
X5139230Y-13750079D01*
X5139230Y-13750079D02*
X5139230Y-13797698D01*
X5139230Y-13797698D02*
X5148753Y-13816746D01*
X5148753Y-13816746D02*
X5158277Y-13826269D01*
X5158277Y-13826269D02*
X5177325Y-13835793D01*
X5177325Y-13835793D02*
X5215420Y-13835793D01*
X5215420Y-13835793D02*
X5234468Y-13826269D01*
X5234468Y-13826269D02*
X5243991Y-13816746D01*
X5243991Y-13816746D02*
X5253515Y-13797698D01*
X5424944Y-13711984D02*
X5386849Y-13711984D01*
X5386849Y-13711984D02*
X5367801Y-13721508D01*
X5367801Y-13721508D02*
X5358277Y-13731031D01*
X5358277Y-13731031D02*
X5339230Y-13759603D01*
X5339230Y-13759603D02*
X5329706Y-13797698D01*
X5329706Y-13797698D02*
X5329706Y-13873888D01*
X5329706Y-13873888D02*
X5339230Y-13892936D01*
X5339230Y-13892936D02*
X5348753Y-13902460D01*
X5348753Y-13902460D02*
X5367801Y-13911984D01*
X5367801Y-13911984D02*
X5405896Y-13911984D01*
X5405896Y-13911984D02*
X5424944Y-13902460D01*
X5424944Y-13902460D02*
X5434468Y-13892936D01*
X5434468Y-13892936D02*
X5443991Y-13873888D01*
X5443991Y-13873888D02*
X5443991Y-13826269D01*
X5443991Y-13826269D02*
X5434468Y-13807222D01*
X5434468Y-13807222D02*
X5424944Y-13797698D01*
X5424944Y-13797698D02*
X5405896Y-13788174D01*
X5405896Y-13788174D02*
X5367801Y-13788174D01*
X5367801Y-13788174D02*
X5348753Y-13797698D01*
X5348753Y-13797698D02*
X5339230Y-13807222D01*
X5339230Y-13807222D02*
X5329706Y-13826269D01*
X5682087Y-13911984D02*
X5682087Y-13711984D01*
X5767801Y-13911984D02*
X5767801Y-13807222D01*
X5767801Y-13807222D02*
X5758277Y-13788174D01*
X5758277Y-13788174D02*
X5739230Y-13778650D01*
X5739230Y-13778650D02*
X5710658Y-13778650D01*
X5710658Y-13778650D02*
X5691610Y-13788174D01*
X5691610Y-13788174D02*
X5682087Y-13797698D01*
X5891610Y-13911984D02*
X5872563Y-13902460D01*
X5872563Y-13902460D02*
X5863039Y-13892936D01*
X5863039Y-13892936D02*
X5853515Y-13873888D01*
X5853515Y-13873888D02*
X5853515Y-13816746D01*
X5853515Y-13816746D02*
X5863039Y-13797698D01*
X5863039Y-13797698D02*
X5872563Y-13788174D01*
X5872563Y-13788174D02*
X5891610Y-13778650D01*
X5891610Y-13778650D02*
X5920182Y-13778650D01*
X5920182Y-13778650D02*
X5939230Y-13788174D01*
X5939230Y-13788174D02*
X5948753Y-13797698D01*
X5948753Y-13797698D02*
X5958277Y-13816746D01*
X5958277Y-13816746D02*
X5958277Y-13873888D01*
X5958277Y-13873888D02*
X5948753Y-13892936D01*
X5948753Y-13892936D02*
X5939230Y-13902460D01*
X5939230Y-13902460D02*
X5920182Y-13911984D01*
X5920182Y-13911984D02*
X5891610Y-13911984D01*
X6072563Y-13911984D02*
X6053515Y-13902460D01*
X6053515Y-13902460D02*
X6043991Y-13883412D01*
X6043991Y-13883412D02*
X6043991Y-13711984D01*
X6224944Y-13902460D02*
X6205896Y-13911984D01*
X6205896Y-13911984D02*
X6167801Y-13911984D01*
X6167801Y-13911984D02*
X6148753Y-13902460D01*
X6148753Y-13902460D02*
X6139230Y-13883412D01*
X6139230Y-13883412D02*
X6139230Y-13807222D01*
X6139230Y-13807222D02*
X6148753Y-13788174D01*
X6148753Y-13788174D02*
X6167801Y-13778650D01*
X6167801Y-13778650D02*
X6205896Y-13778650D01*
X6205896Y-13778650D02*
X6224944Y-13788174D01*
X6224944Y-13788174D02*
X6234468Y-13807222D01*
X6234468Y-13807222D02*
X6234468Y-13826269D01*
X6234468Y-13826269D02*
X6139230Y-13845317D01*
X6310658Y-13902460D02*
X6329706Y-13911984D01*
X6329706Y-13911984D02*
X6367801Y-13911984D01*
X6367801Y-13911984D02*
X6386849Y-13902460D01*
X6386849Y-13902460D02*
X6396372Y-13883412D01*
X6396372Y-13883412D02*
X6396372Y-13873888D01*
X6396372Y-13873888D02*
X6386849Y-13854841D01*
X6386849Y-13854841D02*
X6367801Y-13845317D01*
X6367801Y-13845317D02*
X6339230Y-13845317D01*
X6339230Y-13845317D02*
X6320182Y-13835793D01*
X6320182Y-13835793D02*
X6310658Y-13816746D01*
X6310658Y-13816746D02*
X6310658Y-13807222D01*
X6310658Y-13807222D02*
X6320182Y-13788174D01*
X6320182Y-13788174D02*
X6339230Y-13778650D01*
X6339230Y-13778650D02*
X6367801Y-13778650D01*
X6367801Y-13778650D02*
X6386849Y-13788174D01*
X6463039Y-13988174D02*
X6472563Y-13978650D01*
X6472563Y-13978650D02*
X6491611Y-13950079D01*
X6491611Y-13950079D02*
X6501134Y-13931031D01*
X6501134Y-13931031D02*
X6510658Y-13902460D01*
X6510658Y-13902460D02*
X6520182Y-13854841D01*
X6520182Y-13854841D02*
X6520182Y-13816746D01*
X6520182Y-13816746D02*
X6510658Y-13769127D01*
X6510658Y-13769127D02*
X6501134Y-13740555D01*
X6501134Y-13740555D02*
X6491611Y-13721508D01*
X6491611Y-13721508D02*
X6472563Y-13692936D01*
X6472563Y-13692936D02*
X6463039Y-13683412D01*
D13*
X1482563Y-14120563D02*
X1482563Y-14048437D01*
X1410437Y-14048437D01*
X1410437Y-14120563D01*
X1482563Y-14120563D01*
D11*
X1863039Y-14175984D02*
X1748753Y-14175984D01*
X1805896Y-14175984D02*
X1805896Y-13975984D01*
X1805896Y-13975984D02*
X1786848Y-14004555D01*
X1786848Y-14004555D02*
X1767801Y-14023603D01*
X1767801Y-14023603D02*
X1748753Y-14033127D01*
X1948753Y-14156936D02*
X1958277Y-14166460D01*
X1958277Y-14166460D02*
X1948753Y-14175984D01*
X1948753Y-14175984D02*
X1939229Y-14166460D01*
X1939229Y-14166460D02*
X1948753Y-14156936D01*
X1948753Y-14156936D02*
X1948753Y-14175984D01*
X2082086Y-13975984D02*
X2101134Y-13975984D01*
X2101134Y-13975984D02*
X2120182Y-13985508D01*
X2120182Y-13985508D02*
X2129705Y-13995031D01*
X2129705Y-13995031D02*
X2139229Y-14014079D01*
X2139229Y-14014079D02*
X2148753Y-14052174D01*
X2148753Y-14052174D02*
X2148753Y-14099793D01*
X2148753Y-14099793D02*
X2139229Y-14137888D01*
X2139229Y-14137888D02*
X2129705Y-14156936D01*
X2129705Y-14156936D02*
X2120182Y-14166460D01*
X2120182Y-14166460D02*
X2101134Y-14175984D01*
X2101134Y-14175984D02*
X2082086Y-14175984D01*
X2082086Y-14175984D02*
X2063039Y-14166460D01*
X2063039Y-14166460D02*
X2053515Y-14156936D01*
X2053515Y-14156936D02*
X2043991Y-14137888D01*
X2043991Y-14137888D02*
X2034467Y-14099793D01*
X2034467Y-14099793D02*
X2034467Y-14052174D01*
X2034467Y-14052174D02*
X2043991Y-14014079D01*
X2043991Y-14014079D02*
X2053515Y-13995031D01*
X2053515Y-13995031D02*
X2063039Y-13985508D01*
X2063039Y-13985508D02*
X2082086Y-13975984D01*
X2224944Y-13995031D02*
X2234467Y-13985508D01*
X2234467Y-13985508D02*
X2253515Y-13975984D01*
X2253515Y-13975984D02*
X2301134Y-13975984D01*
X2301134Y-13975984D02*
X2320182Y-13985508D01*
X2320182Y-13985508D02*
X2329705Y-13995031D01*
X2329705Y-13995031D02*
X2339229Y-14014079D01*
X2339229Y-14014079D02*
X2339229Y-14033127D01*
X2339229Y-14033127D02*
X2329705Y-14061698D01*
X2329705Y-14061698D02*
X2215420Y-14175984D01*
X2215420Y-14175984D02*
X2339229Y-14175984D01*
X2463039Y-13975984D02*
X2482086Y-13975984D01*
X2482086Y-13975984D02*
X2501134Y-13985508D01*
X2501134Y-13985508D02*
X2510658Y-13995031D01*
X2510658Y-13995031D02*
X2520182Y-14014079D01*
X2520182Y-14014079D02*
X2529705Y-14052174D01*
X2529705Y-14052174D02*
X2529705Y-14099793D01*
X2529705Y-14099793D02*
X2520182Y-14137888D01*
X2520182Y-14137888D02*
X2510658Y-14156936D01*
X2510658Y-14156936D02*
X2501134Y-14166460D01*
X2501134Y-14166460D02*
X2482086Y-14175984D01*
X2482086Y-14175984D02*
X2463039Y-14175984D01*
X2463039Y-14175984D02*
X2443991Y-14166460D01*
X2443991Y-14166460D02*
X2434467Y-14156936D01*
X2434467Y-14156936D02*
X2424944Y-14137888D01*
X2424944Y-14137888D02*
X2415420Y-14099793D01*
X2415420Y-14099793D02*
X2415420Y-14052174D01*
X2415420Y-14052174D02*
X2424944Y-14014079D01*
X2424944Y-14014079D02*
X2434467Y-13995031D01*
X2434467Y-13995031D02*
X2443991Y-13985508D01*
X2443991Y-13985508D02*
X2463039Y-13975984D01*
X2615420Y-14175984D02*
X2615420Y-14042650D01*
X2615420Y-14061698D02*
X2624944Y-14052174D01*
X2624944Y-14052174D02*
X2643991Y-14042650D01*
X2643991Y-14042650D02*
X2672563Y-14042650D01*
X2672563Y-14042650D02*
X2691610Y-14052174D01*
X2691610Y-14052174D02*
X2701134Y-14071222D01*
X2701134Y-14071222D02*
X2701134Y-14175984D01*
X2701134Y-14071222D02*
X2710658Y-14052174D01*
X2710658Y-14052174D02*
X2729705Y-14042650D01*
X2729705Y-14042650D02*
X2758277Y-14042650D01*
X2758277Y-14042650D02*
X2777325Y-14052174D01*
X2777325Y-14052174D02*
X2786848Y-14071222D01*
X2786848Y-14071222D02*
X2786848Y-14175984D01*
X2882086Y-14175984D02*
X2882086Y-14042650D01*
X2882086Y-14061698D02*
X2891610Y-14052174D01*
X2891610Y-14052174D02*
X2910658Y-14042650D01*
X2910658Y-14042650D02*
X2939229Y-14042650D01*
X2939229Y-14042650D02*
X2958277Y-14052174D01*
X2958277Y-14052174D02*
X2967801Y-14071222D01*
X2967801Y-14071222D02*
X2967801Y-14175984D01*
X2967801Y-14071222D02*
X2977324Y-14052174D01*
X2977324Y-14052174D02*
X2996372Y-14042650D01*
X2996372Y-14042650D02*
X3024943Y-14042650D01*
X3024943Y-14042650D02*
X3043991Y-14052174D01*
X3043991Y-14052174D02*
X3053515Y-14071222D01*
X3053515Y-14071222D02*
X3053515Y-14175984D01*
X3443991Y-13966460D02*
X3272563Y-14223603D01*
X3701134Y-13975984D02*
X3720182Y-13975984D01*
X3720182Y-13975984D02*
X3739229Y-13985508D01*
X3739229Y-13985508D02*
X3748753Y-13995031D01*
X3748753Y-13995031D02*
X3758277Y-14014079D01*
X3758277Y-14014079D02*
X3767801Y-14052174D01*
X3767801Y-14052174D02*
X3767801Y-14099793D01*
X3767801Y-14099793D02*
X3758277Y-14137888D01*
X3758277Y-14137888D02*
X3748753Y-14156936D01*
X3748753Y-14156936D02*
X3739229Y-14166460D01*
X3739229Y-14166460D02*
X3720182Y-14175984D01*
X3720182Y-14175984D02*
X3701134Y-14175984D01*
X3701134Y-14175984D02*
X3682086Y-14166460D01*
X3682086Y-14166460D02*
X3672563Y-14156936D01*
X3672563Y-14156936D02*
X3663039Y-14137888D01*
X3663039Y-14137888D02*
X3653515Y-14099793D01*
X3653515Y-14099793D02*
X3653515Y-14052174D01*
X3653515Y-14052174D02*
X3663039Y-14014079D01*
X3663039Y-14014079D02*
X3672563Y-13995031D01*
X3672563Y-13995031D02*
X3682086Y-13985508D01*
X3682086Y-13985508D02*
X3701134Y-13975984D01*
X3853515Y-14156936D02*
X3863039Y-14166460D01*
X3863039Y-14166460D02*
X3853515Y-14175984D01*
X3853515Y-14175984D02*
X3843991Y-14166460D01*
X3843991Y-14166460D02*
X3853515Y-14156936D01*
X3853515Y-14156936D02*
X3853515Y-14175984D01*
X3986848Y-13975984D02*
X4005896Y-13975984D01*
X4005896Y-13975984D02*
X4024944Y-13985508D01*
X4024944Y-13985508D02*
X4034467Y-13995031D01*
X4034467Y-13995031D02*
X4043991Y-14014079D01*
X4043991Y-14014079D02*
X4053515Y-14052174D01*
X4053515Y-14052174D02*
X4053515Y-14099793D01*
X4053515Y-14099793D02*
X4043991Y-14137888D01*
X4043991Y-14137888D02*
X4034467Y-14156936D01*
X4034467Y-14156936D02*
X4024944Y-14166460D01*
X4024944Y-14166460D02*
X4005896Y-14175984D01*
X4005896Y-14175984D02*
X3986848Y-14175984D01*
X3986848Y-14175984D02*
X3967801Y-14166460D01*
X3967801Y-14166460D02*
X3958277Y-14156936D01*
X3958277Y-14156936D02*
X3948753Y-14137888D01*
X3948753Y-14137888D02*
X3939229Y-14099793D01*
X3939229Y-14099793D02*
X3939229Y-14052174D01*
X3939229Y-14052174D02*
X3948753Y-14014079D01*
X3948753Y-14014079D02*
X3958277Y-13995031D01*
X3958277Y-13995031D02*
X3967801Y-13985508D01*
X3967801Y-13985508D02*
X3986848Y-13975984D01*
X4224944Y-14042650D02*
X4224944Y-14175984D01*
X4177325Y-13966460D02*
X4129706Y-14109317D01*
X4129706Y-14109317D02*
X4253515Y-14109317D01*
X4367801Y-13975984D02*
X4386849Y-13975984D01*
X4386849Y-13975984D02*
X4405896Y-13985508D01*
X4405896Y-13985508D02*
X4415420Y-13995031D01*
X4415420Y-13995031D02*
X4424944Y-14014079D01*
X4424944Y-14014079D02*
X4434468Y-14052174D01*
X4434468Y-14052174D02*
X4434468Y-14099793D01*
X4434468Y-14099793D02*
X4424944Y-14137888D01*
X4424944Y-14137888D02*
X4415420Y-14156936D01*
X4415420Y-14156936D02*
X4405896Y-14166460D01*
X4405896Y-14166460D02*
X4386849Y-14175984D01*
X4386849Y-14175984D02*
X4367801Y-14175984D01*
X4367801Y-14175984D02*
X4348753Y-14166460D01*
X4348753Y-14166460D02*
X4339229Y-14156936D01*
X4339229Y-14156936D02*
X4329706Y-14137888D01*
X4329706Y-14137888D02*
X4320182Y-14099793D01*
X4320182Y-14099793D02*
X4320182Y-14052174D01*
X4320182Y-14052174D02*
X4329706Y-14014079D01*
X4329706Y-14014079D02*
X4339229Y-13995031D01*
X4339229Y-13995031D02*
X4348753Y-13985508D01*
X4348753Y-13985508D02*
X4367801Y-13975984D01*
X4510658Y-13995031D02*
X4520182Y-13985508D01*
X4520182Y-13985508D02*
X4539229Y-13975984D01*
X4539229Y-13975984D02*
X4586849Y-13975984D01*
X4586849Y-13975984D02*
X4605896Y-13985508D01*
X4605896Y-13985508D02*
X4615420Y-13995031D01*
X4615420Y-13995031D02*
X4624944Y-14014079D01*
X4624944Y-14014079D02*
X4624944Y-14033127D01*
X4624944Y-14033127D02*
X4615420Y-14061698D01*
X4615420Y-14061698D02*
X4501134Y-14175984D01*
X4501134Y-14175984D02*
X4624944Y-14175984D01*
X4701134Y-13975984D02*
X4701134Y-14014079D01*
X4777325Y-13975984D02*
X4777325Y-14014079D01*
X5072563Y-14252174D02*
X5063039Y-14242650D01*
X5063039Y-14242650D02*
X5043991Y-14214079D01*
X5043991Y-14214079D02*
X5034468Y-14195031D01*
X5034468Y-14195031D02*
X5024944Y-14166460D01*
X5024944Y-14166460D02*
X5015420Y-14118841D01*
X5015420Y-14118841D02*
X5015420Y-14080746D01*
X5015420Y-14080746D02*
X5024944Y-14033127D01*
X5024944Y-14033127D02*
X5034468Y-14004555D01*
X5034468Y-14004555D02*
X5043991Y-13985508D01*
X5043991Y-13985508D02*
X5063039Y-13956936D01*
X5063039Y-13956936D02*
X5072563Y-13947412D01*
X5234468Y-14042650D02*
X5234468Y-14175984D01*
X5186849Y-13966460D02*
X5139230Y-14109317D01*
X5139230Y-14109317D02*
X5263039Y-14109317D01*
X5377325Y-13975984D02*
X5396372Y-13975984D01*
X5396372Y-13975984D02*
X5415420Y-13985508D01*
X5415420Y-13985508D02*
X5424944Y-13995031D01*
X5424944Y-13995031D02*
X5434468Y-14014079D01*
X5434468Y-14014079D02*
X5443991Y-14052174D01*
X5443991Y-14052174D02*
X5443991Y-14099793D01*
X5443991Y-14099793D02*
X5434468Y-14137888D01*
X5434468Y-14137888D02*
X5424944Y-14156936D01*
X5424944Y-14156936D02*
X5415420Y-14166460D01*
X5415420Y-14166460D02*
X5396372Y-14175984D01*
X5396372Y-14175984D02*
X5377325Y-14175984D01*
X5377325Y-14175984D02*
X5358277Y-14166460D01*
X5358277Y-14166460D02*
X5348753Y-14156936D01*
X5348753Y-14156936D02*
X5339230Y-14137888D01*
X5339230Y-14137888D02*
X5329706Y-14099793D01*
X5329706Y-14099793D02*
X5329706Y-14052174D01*
X5329706Y-14052174D02*
X5339230Y-14014079D01*
X5339230Y-14014079D02*
X5348753Y-13995031D01*
X5348753Y-13995031D02*
X5358277Y-13985508D01*
X5358277Y-13985508D02*
X5377325Y-13975984D01*
X5682087Y-14175984D02*
X5682087Y-13975984D01*
X5767801Y-14175984D02*
X5767801Y-14071222D01*
X5767801Y-14071222D02*
X5758277Y-14052174D01*
X5758277Y-14052174D02*
X5739230Y-14042650D01*
X5739230Y-14042650D02*
X5710658Y-14042650D01*
X5710658Y-14042650D02*
X5691610Y-14052174D01*
X5691610Y-14052174D02*
X5682087Y-14061698D01*
X5891610Y-14175984D02*
X5872563Y-14166460D01*
X5872563Y-14166460D02*
X5863039Y-14156936D01*
X5863039Y-14156936D02*
X5853515Y-14137888D01*
X5853515Y-14137888D02*
X5853515Y-14080746D01*
X5853515Y-14080746D02*
X5863039Y-14061698D01*
X5863039Y-14061698D02*
X5872563Y-14052174D01*
X5872563Y-14052174D02*
X5891610Y-14042650D01*
X5891610Y-14042650D02*
X5920182Y-14042650D01*
X5920182Y-14042650D02*
X5939230Y-14052174D01*
X5939230Y-14052174D02*
X5948753Y-14061698D01*
X5948753Y-14061698D02*
X5958277Y-14080746D01*
X5958277Y-14080746D02*
X5958277Y-14137888D01*
X5958277Y-14137888D02*
X5948753Y-14156936D01*
X5948753Y-14156936D02*
X5939230Y-14166460D01*
X5939230Y-14166460D02*
X5920182Y-14175984D01*
X5920182Y-14175984D02*
X5891610Y-14175984D01*
X6072563Y-14175984D02*
X6053515Y-14166460D01*
X6053515Y-14166460D02*
X6043991Y-14147412D01*
X6043991Y-14147412D02*
X6043991Y-13975984D01*
X6224944Y-14166460D02*
X6205896Y-14175984D01*
X6205896Y-14175984D02*
X6167801Y-14175984D01*
X6167801Y-14175984D02*
X6148753Y-14166460D01*
X6148753Y-14166460D02*
X6139230Y-14147412D01*
X6139230Y-14147412D02*
X6139230Y-14071222D01*
X6139230Y-14071222D02*
X6148753Y-14052174D01*
X6148753Y-14052174D02*
X6167801Y-14042650D01*
X6167801Y-14042650D02*
X6205896Y-14042650D01*
X6205896Y-14042650D02*
X6224944Y-14052174D01*
X6224944Y-14052174D02*
X6234468Y-14071222D01*
X6234468Y-14071222D02*
X6234468Y-14090269D01*
X6234468Y-14090269D02*
X6139230Y-14109317D01*
X6310658Y-14166460D02*
X6329706Y-14175984D01*
X6329706Y-14175984D02*
X6367801Y-14175984D01*
X6367801Y-14175984D02*
X6386849Y-14166460D01*
X6386849Y-14166460D02*
X6396372Y-14147412D01*
X6396372Y-14147412D02*
X6396372Y-14137888D01*
X6396372Y-14137888D02*
X6386849Y-14118841D01*
X6386849Y-14118841D02*
X6367801Y-14109317D01*
X6367801Y-14109317D02*
X6339230Y-14109317D01*
X6339230Y-14109317D02*
X6320182Y-14099793D01*
X6320182Y-14099793D02*
X6310658Y-14080746D01*
X6310658Y-14080746D02*
X6310658Y-14071222D01*
X6310658Y-14071222D02*
X6320182Y-14052174D01*
X6320182Y-14052174D02*
X6339230Y-14042650D01*
X6339230Y-14042650D02*
X6367801Y-14042650D01*
X6367801Y-14042650D02*
X6386849Y-14052174D01*
X6463039Y-14252174D02*
X6472563Y-14242650D01*
X6472563Y-14242650D02*
X6491611Y-14214079D01*
X6491611Y-14214079D02*
X6501134Y-14195031D01*
X6501134Y-14195031D02*
X6510658Y-14166460D01*
X6510658Y-14166460D02*
X6520182Y-14118841D01*
X6520182Y-14118841D02*
X6520182Y-14080746D01*
X6520182Y-14080746D02*
X6510658Y-14033127D01*
X6510658Y-14033127D02*
X6501134Y-14004555D01*
X6501134Y-14004555D02*
X6491611Y-13985508D01*
X6491611Y-13985508D02*
X6472563Y-13956936D01*
X6472563Y-13956936D02*
X6463039Y-13947412D01*
D14*
X1436500Y-14409500D02*
X1497500Y-14348500D01*
X1436500Y-14287500D01*
X1375500Y-14348500D01*
X1436500Y-14409500D01*
D11*
X1863039Y-14439984D02*
X1748753Y-14439984D01*
X1805896Y-14439984D02*
X1805896Y-14239984D01*
X1805896Y-14239984D02*
X1786848Y-14268555D01*
X1786848Y-14268555D02*
X1767801Y-14287603D01*
X1767801Y-14287603D02*
X1748753Y-14297127D01*
X1948753Y-14420936D02*
X1958277Y-14430460D01*
X1958277Y-14430460D02*
X1948753Y-14439984D01*
X1948753Y-14439984D02*
X1939229Y-14430460D01*
X1939229Y-14430460D02*
X1948753Y-14420936D01*
X1948753Y-14420936D02*
X1948753Y-14439984D01*
X2034467Y-14259031D02*
X2043991Y-14249508D01*
X2043991Y-14249508D02*
X2063039Y-14239984D01*
X2063039Y-14239984D02*
X2110658Y-14239984D01*
X2110658Y-14239984D02*
X2129705Y-14249508D01*
X2129705Y-14249508D02*
X2139229Y-14259031D01*
X2139229Y-14259031D02*
X2148753Y-14278079D01*
X2148753Y-14278079D02*
X2148753Y-14297127D01*
X2148753Y-14297127D02*
X2139229Y-14325698D01*
X2139229Y-14325698D02*
X2024943Y-14439984D01*
X2024943Y-14439984D02*
X2148753Y-14439984D01*
X2224944Y-14259031D02*
X2234467Y-14249508D01*
X2234467Y-14249508D02*
X2253515Y-14239984D01*
X2253515Y-14239984D02*
X2301134Y-14239984D01*
X2301134Y-14239984D02*
X2320182Y-14249508D01*
X2320182Y-14249508D02*
X2329705Y-14259031D01*
X2329705Y-14259031D02*
X2339229Y-14278079D01*
X2339229Y-14278079D02*
X2339229Y-14297127D01*
X2339229Y-14297127D02*
X2329705Y-14325698D01*
X2329705Y-14325698D02*
X2215420Y-14439984D01*
X2215420Y-14439984D02*
X2339229Y-14439984D01*
X2463039Y-14239984D02*
X2482086Y-14239984D01*
X2482086Y-14239984D02*
X2501134Y-14249508D01*
X2501134Y-14249508D02*
X2510658Y-14259031D01*
X2510658Y-14259031D02*
X2520182Y-14278079D01*
X2520182Y-14278079D02*
X2529705Y-14316174D01*
X2529705Y-14316174D02*
X2529705Y-14363793D01*
X2529705Y-14363793D02*
X2520182Y-14401888D01*
X2520182Y-14401888D02*
X2510658Y-14420936D01*
X2510658Y-14420936D02*
X2501134Y-14430460D01*
X2501134Y-14430460D02*
X2482086Y-14439984D01*
X2482086Y-14439984D02*
X2463039Y-14439984D01*
X2463039Y-14439984D02*
X2443991Y-14430460D01*
X2443991Y-14430460D02*
X2434467Y-14420936D01*
X2434467Y-14420936D02*
X2424944Y-14401888D01*
X2424944Y-14401888D02*
X2415420Y-14363793D01*
X2415420Y-14363793D02*
X2415420Y-14316174D01*
X2415420Y-14316174D02*
X2424944Y-14278079D01*
X2424944Y-14278079D02*
X2434467Y-14259031D01*
X2434467Y-14259031D02*
X2443991Y-14249508D01*
X2443991Y-14249508D02*
X2463039Y-14239984D01*
X2615420Y-14439984D02*
X2615420Y-14306650D01*
X2615420Y-14325698D02*
X2624944Y-14316174D01*
X2624944Y-14316174D02*
X2643991Y-14306650D01*
X2643991Y-14306650D02*
X2672563Y-14306650D01*
X2672563Y-14306650D02*
X2691610Y-14316174D01*
X2691610Y-14316174D02*
X2701134Y-14335222D01*
X2701134Y-14335222D02*
X2701134Y-14439984D01*
X2701134Y-14335222D02*
X2710658Y-14316174D01*
X2710658Y-14316174D02*
X2729705Y-14306650D01*
X2729705Y-14306650D02*
X2758277Y-14306650D01*
X2758277Y-14306650D02*
X2777325Y-14316174D01*
X2777325Y-14316174D02*
X2786848Y-14335222D01*
X2786848Y-14335222D02*
X2786848Y-14439984D01*
X2882086Y-14439984D02*
X2882086Y-14306650D01*
X2882086Y-14325698D02*
X2891610Y-14316174D01*
X2891610Y-14316174D02*
X2910658Y-14306650D01*
X2910658Y-14306650D02*
X2939229Y-14306650D01*
X2939229Y-14306650D02*
X2958277Y-14316174D01*
X2958277Y-14316174D02*
X2967801Y-14335222D01*
X2967801Y-14335222D02*
X2967801Y-14439984D01*
X2967801Y-14335222D02*
X2977324Y-14316174D01*
X2977324Y-14316174D02*
X2996372Y-14306650D01*
X2996372Y-14306650D02*
X3024943Y-14306650D01*
X3024943Y-14306650D02*
X3043991Y-14316174D01*
X3043991Y-14316174D02*
X3053515Y-14335222D01*
X3053515Y-14335222D02*
X3053515Y-14439984D01*
X3443991Y-14230460D02*
X3272563Y-14487603D01*
X3701134Y-14239984D02*
X3720182Y-14239984D01*
X3720182Y-14239984D02*
X3739229Y-14249508D01*
X3739229Y-14249508D02*
X3748753Y-14259031D01*
X3748753Y-14259031D02*
X3758277Y-14278079D01*
X3758277Y-14278079D02*
X3767801Y-14316174D01*
X3767801Y-14316174D02*
X3767801Y-14363793D01*
X3767801Y-14363793D02*
X3758277Y-14401888D01*
X3758277Y-14401888D02*
X3748753Y-14420936D01*
X3748753Y-14420936D02*
X3739229Y-14430460D01*
X3739229Y-14430460D02*
X3720182Y-14439984D01*
X3720182Y-14439984D02*
X3701134Y-14439984D01*
X3701134Y-14439984D02*
X3682086Y-14430460D01*
X3682086Y-14430460D02*
X3672563Y-14420936D01*
X3672563Y-14420936D02*
X3663039Y-14401888D01*
X3663039Y-14401888D02*
X3653515Y-14363793D01*
X3653515Y-14363793D02*
X3653515Y-14316174D01*
X3653515Y-14316174D02*
X3663039Y-14278079D01*
X3663039Y-14278079D02*
X3672563Y-14259031D01*
X3672563Y-14259031D02*
X3682086Y-14249508D01*
X3682086Y-14249508D02*
X3701134Y-14239984D01*
X3853515Y-14420936D02*
X3863039Y-14430460D01*
X3863039Y-14430460D02*
X3853515Y-14439984D01*
X3853515Y-14439984D02*
X3843991Y-14430460D01*
X3843991Y-14430460D02*
X3853515Y-14420936D01*
X3853515Y-14420936D02*
X3853515Y-14439984D01*
X3986848Y-14239984D02*
X4005896Y-14239984D01*
X4005896Y-14239984D02*
X4024944Y-14249508D01*
X4024944Y-14249508D02*
X4034467Y-14259031D01*
X4034467Y-14259031D02*
X4043991Y-14278079D01*
X4043991Y-14278079D02*
X4053515Y-14316174D01*
X4053515Y-14316174D02*
X4053515Y-14363793D01*
X4053515Y-14363793D02*
X4043991Y-14401888D01*
X4043991Y-14401888D02*
X4034467Y-14420936D01*
X4034467Y-14420936D02*
X4024944Y-14430460D01*
X4024944Y-14430460D02*
X4005896Y-14439984D01*
X4005896Y-14439984D02*
X3986848Y-14439984D01*
X3986848Y-14439984D02*
X3967801Y-14430460D01*
X3967801Y-14430460D02*
X3958277Y-14420936D01*
X3958277Y-14420936D02*
X3948753Y-14401888D01*
X3948753Y-14401888D02*
X3939229Y-14363793D01*
X3939229Y-14363793D02*
X3939229Y-14316174D01*
X3939229Y-14316174D02*
X3948753Y-14278079D01*
X3948753Y-14278079D02*
X3958277Y-14259031D01*
X3958277Y-14259031D02*
X3967801Y-14249508D01*
X3967801Y-14249508D02*
X3986848Y-14239984D01*
X4224944Y-14306650D02*
X4224944Y-14439984D01*
X4177325Y-14230460D02*
X4129706Y-14373317D01*
X4129706Y-14373317D02*
X4253515Y-14373317D01*
X4358277Y-14325698D02*
X4339229Y-14316174D01*
X4339229Y-14316174D02*
X4329706Y-14306650D01*
X4329706Y-14306650D02*
X4320182Y-14287603D01*
X4320182Y-14287603D02*
X4320182Y-14278079D01*
X4320182Y-14278079D02*
X4329706Y-14259031D01*
X4329706Y-14259031D02*
X4339229Y-14249508D01*
X4339229Y-14249508D02*
X4358277Y-14239984D01*
X4358277Y-14239984D02*
X4396372Y-14239984D01*
X4396372Y-14239984D02*
X4415420Y-14249508D01*
X4415420Y-14249508D02*
X4424944Y-14259031D01*
X4424944Y-14259031D02*
X4434468Y-14278079D01*
X4434468Y-14278079D02*
X4434468Y-14287603D01*
X4434468Y-14287603D02*
X4424944Y-14306650D01*
X4424944Y-14306650D02*
X4415420Y-14316174D01*
X4415420Y-14316174D02*
X4396372Y-14325698D01*
X4396372Y-14325698D02*
X4358277Y-14325698D01*
X4358277Y-14325698D02*
X4339229Y-14335222D01*
X4339229Y-14335222D02*
X4329706Y-14344746D01*
X4329706Y-14344746D02*
X4320182Y-14363793D01*
X4320182Y-14363793D02*
X4320182Y-14401888D01*
X4320182Y-14401888D02*
X4329706Y-14420936D01*
X4329706Y-14420936D02*
X4339229Y-14430460D01*
X4339229Y-14430460D02*
X4358277Y-14439984D01*
X4358277Y-14439984D02*
X4396372Y-14439984D01*
X4396372Y-14439984D02*
X4415420Y-14430460D01*
X4415420Y-14430460D02*
X4424944Y-14420936D01*
X4424944Y-14420936D02*
X4434468Y-14401888D01*
X4434468Y-14401888D02*
X4434468Y-14363793D01*
X4434468Y-14363793D02*
X4424944Y-14344746D01*
X4424944Y-14344746D02*
X4415420Y-14335222D01*
X4415420Y-14335222D02*
X4396372Y-14325698D01*
X4558277Y-14239984D02*
X4577325Y-14239984D01*
X4577325Y-14239984D02*
X4596372Y-14249508D01*
X4596372Y-14249508D02*
X4605896Y-14259031D01*
X4605896Y-14259031D02*
X4615420Y-14278079D01*
X4615420Y-14278079D02*
X4624944Y-14316174D01*
X4624944Y-14316174D02*
X4624944Y-14363793D01*
X4624944Y-14363793D02*
X4615420Y-14401888D01*
X4615420Y-14401888D02*
X4605896Y-14420936D01*
X4605896Y-14420936D02*
X4596372Y-14430460D01*
X4596372Y-14430460D02*
X4577325Y-14439984D01*
X4577325Y-14439984D02*
X4558277Y-14439984D01*
X4558277Y-14439984D02*
X4539229Y-14430460D01*
X4539229Y-14430460D02*
X4529706Y-14420936D01*
X4529706Y-14420936D02*
X4520182Y-14401888D01*
X4520182Y-14401888D02*
X4510658Y-14363793D01*
X4510658Y-14363793D02*
X4510658Y-14316174D01*
X4510658Y-14316174D02*
X4520182Y-14278079D01*
X4520182Y-14278079D02*
X4529706Y-14259031D01*
X4529706Y-14259031D02*
X4539229Y-14249508D01*
X4539229Y-14249508D02*
X4558277Y-14239984D01*
X4701134Y-14239984D02*
X4701134Y-14278079D01*
X4777325Y-14239984D02*
X4777325Y-14278079D01*
X5072563Y-14516174D02*
X5063039Y-14506650D01*
X5063039Y-14506650D02*
X5043991Y-14478079D01*
X5043991Y-14478079D02*
X5034468Y-14459031D01*
X5034468Y-14459031D02*
X5024944Y-14430460D01*
X5024944Y-14430460D02*
X5015420Y-14382841D01*
X5015420Y-14382841D02*
X5015420Y-14344746D01*
X5015420Y-14344746D02*
X5024944Y-14297127D01*
X5024944Y-14297127D02*
X5034468Y-14268555D01*
X5034468Y-14268555D02*
X5043991Y-14249508D01*
X5043991Y-14249508D02*
X5063039Y-14220936D01*
X5063039Y-14220936D02*
X5072563Y-14211412D01*
X5253515Y-14439984D02*
X5139230Y-14439984D01*
X5196372Y-14439984D02*
X5196372Y-14239984D01*
X5196372Y-14239984D02*
X5177325Y-14268555D01*
X5177325Y-14268555D02*
X5158277Y-14287603D01*
X5158277Y-14287603D02*
X5139230Y-14297127D01*
X5424944Y-14239984D02*
X5386849Y-14239984D01*
X5386849Y-14239984D02*
X5367801Y-14249508D01*
X5367801Y-14249508D02*
X5358277Y-14259031D01*
X5358277Y-14259031D02*
X5339230Y-14287603D01*
X5339230Y-14287603D02*
X5329706Y-14325698D01*
X5329706Y-14325698D02*
X5329706Y-14401888D01*
X5329706Y-14401888D02*
X5339230Y-14420936D01*
X5339230Y-14420936D02*
X5348753Y-14430460D01*
X5348753Y-14430460D02*
X5367801Y-14439984D01*
X5367801Y-14439984D02*
X5405896Y-14439984D01*
X5405896Y-14439984D02*
X5424944Y-14430460D01*
X5424944Y-14430460D02*
X5434468Y-14420936D01*
X5434468Y-14420936D02*
X5443991Y-14401888D01*
X5443991Y-14401888D02*
X5443991Y-14354269D01*
X5443991Y-14354269D02*
X5434468Y-14335222D01*
X5434468Y-14335222D02*
X5424944Y-14325698D01*
X5424944Y-14325698D02*
X5405896Y-14316174D01*
X5405896Y-14316174D02*
X5367801Y-14316174D01*
X5367801Y-14316174D02*
X5348753Y-14325698D01*
X5348753Y-14325698D02*
X5339230Y-14335222D01*
X5339230Y-14335222D02*
X5329706Y-14354269D01*
X5682087Y-14439984D02*
X5682087Y-14239984D01*
X5767801Y-14439984D02*
X5767801Y-14335222D01*
X5767801Y-14335222D02*
X5758277Y-14316174D01*
X5758277Y-14316174D02*
X5739230Y-14306650D01*
X5739230Y-14306650D02*
X5710658Y-14306650D01*
X5710658Y-14306650D02*
X5691610Y-14316174D01*
X5691610Y-14316174D02*
X5682087Y-14325698D01*
X5891610Y-14439984D02*
X5872563Y-14430460D01*
X5872563Y-14430460D02*
X5863039Y-14420936D01*
X5863039Y-14420936D02*
X5853515Y-14401888D01*
X5853515Y-14401888D02*
X5853515Y-14344746D01*
X5853515Y-14344746D02*
X5863039Y-14325698D01*
X5863039Y-14325698D02*
X5872563Y-14316174D01*
X5872563Y-14316174D02*
X5891610Y-14306650D01*
X5891610Y-14306650D02*
X5920182Y-14306650D01*
X5920182Y-14306650D02*
X5939230Y-14316174D01*
X5939230Y-14316174D02*
X5948753Y-14325698D01*
X5948753Y-14325698D02*
X5958277Y-14344746D01*
X5958277Y-14344746D02*
X5958277Y-14401888D01*
X5958277Y-14401888D02*
X5948753Y-14420936D01*
X5948753Y-14420936D02*
X5939230Y-14430460D01*
X5939230Y-14430460D02*
X5920182Y-14439984D01*
X5920182Y-14439984D02*
X5891610Y-14439984D01*
X6072563Y-14439984D02*
X6053515Y-14430460D01*
X6053515Y-14430460D02*
X6043991Y-14411412D01*
X6043991Y-14411412D02*
X6043991Y-14239984D01*
X6224944Y-14430460D02*
X6205896Y-14439984D01*
X6205896Y-14439984D02*
X6167801Y-14439984D01*
X6167801Y-14439984D02*
X6148753Y-14430460D01*
X6148753Y-14430460D02*
X6139230Y-14411412D01*
X6139230Y-14411412D02*
X6139230Y-14335222D01*
X6139230Y-14335222D02*
X6148753Y-14316174D01*
X6148753Y-14316174D02*
X6167801Y-14306650D01*
X6167801Y-14306650D02*
X6205896Y-14306650D01*
X6205896Y-14306650D02*
X6224944Y-14316174D01*
X6224944Y-14316174D02*
X6234468Y-14335222D01*
X6234468Y-14335222D02*
X6234468Y-14354269D01*
X6234468Y-14354269D02*
X6139230Y-14373317D01*
X6310658Y-14430460D02*
X6329706Y-14439984D01*
X6329706Y-14439984D02*
X6367801Y-14439984D01*
X6367801Y-14439984D02*
X6386849Y-14430460D01*
X6386849Y-14430460D02*
X6396372Y-14411412D01*
X6396372Y-14411412D02*
X6396372Y-14401888D01*
X6396372Y-14401888D02*
X6386849Y-14382841D01*
X6386849Y-14382841D02*
X6367801Y-14373317D01*
X6367801Y-14373317D02*
X6339230Y-14373317D01*
X6339230Y-14373317D02*
X6320182Y-14363793D01*
X6320182Y-14363793D02*
X6310658Y-14344746D01*
X6310658Y-14344746D02*
X6310658Y-14335222D01*
X6310658Y-14335222D02*
X6320182Y-14316174D01*
X6320182Y-14316174D02*
X6339230Y-14306650D01*
X6339230Y-14306650D02*
X6367801Y-14306650D01*
X6367801Y-14306650D02*
X6386849Y-14316174D01*
X6463039Y-14516174D02*
X6472563Y-14506650D01*
X6472563Y-14506650D02*
X6491611Y-14478079D01*
X6491611Y-14478079D02*
X6501134Y-14459031D01*
X6501134Y-14459031D02*
X6510658Y-14430460D01*
X6510658Y-14430460D02*
X6520182Y-14382841D01*
X6520182Y-14382841D02*
X6520182Y-14344746D01*
X6520182Y-14344746D02*
X6510658Y-14297127D01*
X6510658Y-14297127D02*
X6501134Y-14268555D01*
X6501134Y-14268555D02*
X6491611Y-14249508D01*
X6491611Y-14249508D02*
X6472563Y-14220936D01*
X6472563Y-14220936D02*
X6463039Y-14211412D01*
D15*
X1355500Y-14541500D02*
X1497500Y-14683500D01*
X1497500Y-14541500D02*
X1355500Y-14683500D01*
X1497500Y-14612500D02*
G75*
G02*
X1355500Y-14612500I-71000J0D01*
G01*
X1355500Y-14612500D02*
G75*
G02*
X1497500Y-14612500I71000J0D01*
G01*
D11*
X1863039Y-14703984D02*
X1748753Y-14703984D01*
X1805896Y-14703984D02*
X1805896Y-14503984D01*
X1805896Y-14503984D02*
X1786848Y-14532555D01*
X1786848Y-14532555D02*
X1767801Y-14551603D01*
X1767801Y-14551603D02*
X1748753Y-14561127D01*
X1948753Y-14684936D02*
X1958277Y-14694460D01*
X1958277Y-14694460D02*
X1948753Y-14703984D01*
X1948753Y-14703984D02*
X1939229Y-14694460D01*
X1939229Y-14694460D02*
X1948753Y-14684936D01*
X1948753Y-14684936D02*
X1948753Y-14703984D01*
X2129705Y-14570650D02*
X2129705Y-14703984D01*
X2082086Y-14494460D02*
X2034467Y-14637317D01*
X2034467Y-14637317D02*
X2158277Y-14637317D01*
X2224944Y-14523031D02*
X2234467Y-14513508D01*
X2234467Y-14513508D02*
X2253515Y-14503984D01*
X2253515Y-14503984D02*
X2301134Y-14503984D01*
X2301134Y-14503984D02*
X2320182Y-14513508D01*
X2320182Y-14513508D02*
X2329705Y-14523031D01*
X2329705Y-14523031D02*
X2339229Y-14542079D01*
X2339229Y-14542079D02*
X2339229Y-14561127D01*
X2339229Y-14561127D02*
X2329705Y-14589698D01*
X2329705Y-14589698D02*
X2215420Y-14703984D01*
X2215420Y-14703984D02*
X2339229Y-14703984D01*
X2463039Y-14503984D02*
X2482086Y-14503984D01*
X2482086Y-14503984D02*
X2501134Y-14513508D01*
X2501134Y-14513508D02*
X2510658Y-14523031D01*
X2510658Y-14523031D02*
X2520182Y-14542079D01*
X2520182Y-14542079D02*
X2529705Y-14580174D01*
X2529705Y-14580174D02*
X2529705Y-14627793D01*
X2529705Y-14627793D02*
X2520182Y-14665888D01*
X2520182Y-14665888D02*
X2510658Y-14684936D01*
X2510658Y-14684936D02*
X2501134Y-14694460D01*
X2501134Y-14694460D02*
X2482086Y-14703984D01*
X2482086Y-14703984D02*
X2463039Y-14703984D01*
X2463039Y-14703984D02*
X2443991Y-14694460D01*
X2443991Y-14694460D02*
X2434467Y-14684936D01*
X2434467Y-14684936D02*
X2424944Y-14665888D01*
X2424944Y-14665888D02*
X2415420Y-14627793D01*
X2415420Y-14627793D02*
X2415420Y-14580174D01*
X2415420Y-14580174D02*
X2424944Y-14542079D01*
X2424944Y-14542079D02*
X2434467Y-14523031D01*
X2434467Y-14523031D02*
X2443991Y-14513508D01*
X2443991Y-14513508D02*
X2463039Y-14503984D01*
X2615420Y-14703984D02*
X2615420Y-14570650D01*
X2615420Y-14589698D02*
X2624944Y-14580174D01*
X2624944Y-14580174D02*
X2643991Y-14570650D01*
X2643991Y-14570650D02*
X2672563Y-14570650D01*
X2672563Y-14570650D02*
X2691610Y-14580174D01*
X2691610Y-14580174D02*
X2701134Y-14599222D01*
X2701134Y-14599222D02*
X2701134Y-14703984D01*
X2701134Y-14599222D02*
X2710658Y-14580174D01*
X2710658Y-14580174D02*
X2729705Y-14570650D01*
X2729705Y-14570650D02*
X2758277Y-14570650D01*
X2758277Y-14570650D02*
X2777325Y-14580174D01*
X2777325Y-14580174D02*
X2786848Y-14599222D01*
X2786848Y-14599222D02*
X2786848Y-14703984D01*
X2882086Y-14703984D02*
X2882086Y-14570650D01*
X2882086Y-14589698D02*
X2891610Y-14580174D01*
X2891610Y-14580174D02*
X2910658Y-14570650D01*
X2910658Y-14570650D02*
X2939229Y-14570650D01*
X2939229Y-14570650D02*
X2958277Y-14580174D01*
X2958277Y-14580174D02*
X2967801Y-14599222D01*
X2967801Y-14599222D02*
X2967801Y-14703984D01*
X2967801Y-14599222D02*
X2977324Y-14580174D01*
X2977324Y-14580174D02*
X2996372Y-14570650D01*
X2996372Y-14570650D02*
X3024943Y-14570650D01*
X3024943Y-14570650D02*
X3043991Y-14580174D01*
X3043991Y-14580174D02*
X3053515Y-14599222D01*
X3053515Y-14599222D02*
X3053515Y-14703984D01*
X3443991Y-14494460D02*
X3272563Y-14751603D01*
X3701134Y-14503984D02*
X3720182Y-14503984D01*
X3720182Y-14503984D02*
X3739229Y-14513508D01*
X3739229Y-14513508D02*
X3748753Y-14523031D01*
X3748753Y-14523031D02*
X3758277Y-14542079D01*
X3758277Y-14542079D02*
X3767801Y-14580174D01*
X3767801Y-14580174D02*
X3767801Y-14627793D01*
X3767801Y-14627793D02*
X3758277Y-14665888D01*
X3758277Y-14665888D02*
X3748753Y-14684936D01*
X3748753Y-14684936D02*
X3739229Y-14694460D01*
X3739229Y-14694460D02*
X3720182Y-14703984D01*
X3720182Y-14703984D02*
X3701134Y-14703984D01*
X3701134Y-14703984D02*
X3682086Y-14694460D01*
X3682086Y-14694460D02*
X3672563Y-14684936D01*
X3672563Y-14684936D02*
X3663039Y-14665888D01*
X3663039Y-14665888D02*
X3653515Y-14627793D01*
X3653515Y-14627793D02*
X3653515Y-14580174D01*
X3653515Y-14580174D02*
X3663039Y-14542079D01*
X3663039Y-14542079D02*
X3672563Y-14523031D01*
X3672563Y-14523031D02*
X3682086Y-14513508D01*
X3682086Y-14513508D02*
X3701134Y-14503984D01*
X3853515Y-14684936D02*
X3863039Y-14694460D01*
X3863039Y-14694460D02*
X3853515Y-14703984D01*
X3853515Y-14703984D02*
X3843991Y-14694460D01*
X3843991Y-14694460D02*
X3853515Y-14684936D01*
X3853515Y-14684936D02*
X3853515Y-14703984D01*
X3986848Y-14503984D02*
X4005896Y-14503984D01*
X4005896Y-14503984D02*
X4024944Y-14513508D01*
X4024944Y-14513508D02*
X4034467Y-14523031D01*
X4034467Y-14523031D02*
X4043991Y-14542079D01*
X4043991Y-14542079D02*
X4053515Y-14580174D01*
X4053515Y-14580174D02*
X4053515Y-14627793D01*
X4053515Y-14627793D02*
X4043991Y-14665888D01*
X4043991Y-14665888D02*
X4034467Y-14684936D01*
X4034467Y-14684936D02*
X4024944Y-14694460D01*
X4024944Y-14694460D02*
X4005896Y-14703984D01*
X4005896Y-14703984D02*
X3986848Y-14703984D01*
X3986848Y-14703984D02*
X3967801Y-14694460D01*
X3967801Y-14694460D02*
X3958277Y-14684936D01*
X3958277Y-14684936D02*
X3948753Y-14665888D01*
X3948753Y-14665888D02*
X3939229Y-14627793D01*
X3939229Y-14627793D02*
X3939229Y-14580174D01*
X3939229Y-14580174D02*
X3948753Y-14542079D01*
X3948753Y-14542079D02*
X3958277Y-14523031D01*
X3958277Y-14523031D02*
X3967801Y-14513508D01*
X3967801Y-14513508D02*
X3986848Y-14503984D01*
X4234468Y-14503984D02*
X4139229Y-14503984D01*
X4139229Y-14503984D02*
X4129706Y-14599222D01*
X4129706Y-14599222D02*
X4139229Y-14589698D01*
X4139229Y-14589698D02*
X4158277Y-14580174D01*
X4158277Y-14580174D02*
X4205896Y-14580174D01*
X4205896Y-14580174D02*
X4224944Y-14589698D01*
X4224944Y-14589698D02*
X4234468Y-14599222D01*
X4234468Y-14599222D02*
X4243991Y-14618269D01*
X4243991Y-14618269D02*
X4243991Y-14665888D01*
X4243991Y-14665888D02*
X4234468Y-14684936D01*
X4234468Y-14684936D02*
X4224944Y-14694460D01*
X4224944Y-14694460D02*
X4205896Y-14703984D01*
X4205896Y-14703984D02*
X4158277Y-14703984D01*
X4158277Y-14703984D02*
X4139229Y-14694460D01*
X4139229Y-14694460D02*
X4129706Y-14684936D01*
X4424944Y-14503984D02*
X4329706Y-14503984D01*
X4329706Y-14503984D02*
X4320182Y-14599222D01*
X4320182Y-14599222D02*
X4329706Y-14589698D01*
X4329706Y-14589698D02*
X4348753Y-14580174D01*
X4348753Y-14580174D02*
X4396372Y-14580174D01*
X4396372Y-14580174D02*
X4415420Y-14589698D01*
X4415420Y-14589698D02*
X4424944Y-14599222D01*
X4424944Y-14599222D02*
X4434468Y-14618269D01*
X4434468Y-14618269D02*
X4434468Y-14665888D01*
X4434468Y-14665888D02*
X4424944Y-14684936D01*
X4424944Y-14684936D02*
X4415420Y-14694460D01*
X4415420Y-14694460D02*
X4396372Y-14703984D01*
X4396372Y-14703984D02*
X4348753Y-14703984D01*
X4348753Y-14703984D02*
X4329706Y-14694460D01*
X4329706Y-14694460D02*
X4320182Y-14684936D01*
X4529706Y-14703984D02*
X4567801Y-14703984D01*
X4567801Y-14703984D02*
X4586849Y-14694460D01*
X4586849Y-14694460D02*
X4596372Y-14684936D01*
X4596372Y-14684936D02*
X4615420Y-14656365D01*
X4615420Y-14656365D02*
X4624944Y-14618269D01*
X4624944Y-14618269D02*
X4624944Y-14542079D01*
X4624944Y-14542079D02*
X4615420Y-14523031D01*
X4615420Y-14523031D02*
X4605896Y-14513508D01*
X4605896Y-14513508D02*
X4586849Y-14503984D01*
X4586849Y-14503984D02*
X4548753Y-14503984D01*
X4548753Y-14503984D02*
X4529706Y-14513508D01*
X4529706Y-14513508D02*
X4520182Y-14523031D01*
X4520182Y-14523031D02*
X4510658Y-14542079D01*
X4510658Y-14542079D02*
X4510658Y-14589698D01*
X4510658Y-14589698D02*
X4520182Y-14608746D01*
X4520182Y-14608746D02*
X4529706Y-14618269D01*
X4529706Y-14618269D02*
X4548753Y-14627793D01*
X4548753Y-14627793D02*
X4586849Y-14627793D01*
X4586849Y-14627793D02*
X4605896Y-14618269D01*
X4605896Y-14618269D02*
X4615420Y-14608746D01*
X4615420Y-14608746D02*
X4624944Y-14589698D01*
X4701134Y-14503984D02*
X4701134Y-14542079D01*
X4777325Y-14503984D02*
X4777325Y-14542079D01*
X5072563Y-14780174D02*
X5063039Y-14770650D01*
X5063039Y-14770650D02*
X5043991Y-14742079D01*
X5043991Y-14742079D02*
X5034468Y-14723031D01*
X5034468Y-14723031D02*
X5024944Y-14694460D01*
X5024944Y-14694460D02*
X5015420Y-14646841D01*
X5015420Y-14646841D02*
X5015420Y-14608746D01*
X5015420Y-14608746D02*
X5024944Y-14561127D01*
X5024944Y-14561127D02*
X5034468Y-14532555D01*
X5034468Y-14532555D02*
X5043991Y-14513508D01*
X5043991Y-14513508D02*
X5063039Y-14484936D01*
X5063039Y-14484936D02*
X5072563Y-14475412D01*
X5253515Y-14703984D02*
X5139230Y-14703984D01*
X5196372Y-14703984D02*
X5196372Y-14503984D01*
X5196372Y-14503984D02*
X5177325Y-14532555D01*
X5177325Y-14532555D02*
X5158277Y-14551603D01*
X5158277Y-14551603D02*
X5139230Y-14561127D01*
X5424944Y-14503984D02*
X5386849Y-14503984D01*
X5386849Y-14503984D02*
X5367801Y-14513508D01*
X5367801Y-14513508D02*
X5358277Y-14523031D01*
X5358277Y-14523031D02*
X5339230Y-14551603D01*
X5339230Y-14551603D02*
X5329706Y-14589698D01*
X5329706Y-14589698D02*
X5329706Y-14665888D01*
X5329706Y-14665888D02*
X5339230Y-14684936D01*
X5339230Y-14684936D02*
X5348753Y-14694460D01*
X5348753Y-14694460D02*
X5367801Y-14703984D01*
X5367801Y-14703984D02*
X5405896Y-14703984D01*
X5405896Y-14703984D02*
X5424944Y-14694460D01*
X5424944Y-14694460D02*
X5434468Y-14684936D01*
X5434468Y-14684936D02*
X5443991Y-14665888D01*
X5443991Y-14665888D02*
X5443991Y-14618269D01*
X5443991Y-14618269D02*
X5434468Y-14599222D01*
X5434468Y-14599222D02*
X5424944Y-14589698D01*
X5424944Y-14589698D02*
X5405896Y-14580174D01*
X5405896Y-14580174D02*
X5367801Y-14580174D01*
X5367801Y-14580174D02*
X5348753Y-14589698D01*
X5348753Y-14589698D02*
X5339230Y-14599222D01*
X5339230Y-14599222D02*
X5329706Y-14618269D01*
X5682087Y-14703984D02*
X5682087Y-14503984D01*
X5767801Y-14703984D02*
X5767801Y-14599222D01*
X5767801Y-14599222D02*
X5758277Y-14580174D01*
X5758277Y-14580174D02*
X5739230Y-14570650D01*
X5739230Y-14570650D02*
X5710658Y-14570650D01*
X5710658Y-14570650D02*
X5691610Y-14580174D01*
X5691610Y-14580174D02*
X5682087Y-14589698D01*
X5891610Y-14703984D02*
X5872563Y-14694460D01*
X5872563Y-14694460D02*
X5863039Y-14684936D01*
X5863039Y-14684936D02*
X5853515Y-14665888D01*
X5853515Y-14665888D02*
X5853515Y-14608746D01*
X5853515Y-14608746D02*
X5863039Y-14589698D01*
X5863039Y-14589698D02*
X5872563Y-14580174D01*
X5872563Y-14580174D02*
X5891610Y-14570650D01*
X5891610Y-14570650D02*
X5920182Y-14570650D01*
X5920182Y-14570650D02*
X5939230Y-14580174D01*
X5939230Y-14580174D02*
X5948753Y-14589698D01*
X5948753Y-14589698D02*
X5958277Y-14608746D01*
X5958277Y-14608746D02*
X5958277Y-14665888D01*
X5958277Y-14665888D02*
X5948753Y-14684936D01*
X5948753Y-14684936D02*
X5939230Y-14694460D01*
X5939230Y-14694460D02*
X5920182Y-14703984D01*
X5920182Y-14703984D02*
X5891610Y-14703984D01*
X6072563Y-14703984D02*
X6053515Y-14694460D01*
X6053515Y-14694460D02*
X6043991Y-14675412D01*
X6043991Y-14675412D02*
X6043991Y-14503984D01*
X6224944Y-14694460D02*
X6205896Y-14703984D01*
X6205896Y-14703984D02*
X6167801Y-14703984D01*
X6167801Y-14703984D02*
X6148753Y-14694460D01*
X6148753Y-14694460D02*
X6139230Y-14675412D01*
X6139230Y-14675412D02*
X6139230Y-14599222D01*
X6139230Y-14599222D02*
X6148753Y-14580174D01*
X6148753Y-14580174D02*
X6167801Y-14570650D01*
X6167801Y-14570650D02*
X6205896Y-14570650D01*
X6205896Y-14570650D02*
X6224944Y-14580174D01*
X6224944Y-14580174D02*
X6234468Y-14599222D01*
X6234468Y-14599222D02*
X6234468Y-14618269D01*
X6234468Y-14618269D02*
X6139230Y-14637317D01*
X6310658Y-14694460D02*
X6329706Y-14703984D01*
X6329706Y-14703984D02*
X6367801Y-14703984D01*
X6367801Y-14703984D02*
X6386849Y-14694460D01*
X6386849Y-14694460D02*
X6396372Y-14675412D01*
X6396372Y-14675412D02*
X6396372Y-14665888D01*
X6396372Y-14665888D02*
X6386849Y-14646841D01*
X6386849Y-14646841D02*
X6367801Y-14637317D01*
X6367801Y-14637317D02*
X6339230Y-14637317D01*
X6339230Y-14637317D02*
X6320182Y-14627793D01*
X6320182Y-14627793D02*
X6310658Y-14608746D01*
X6310658Y-14608746D02*
X6310658Y-14599222D01*
X6310658Y-14599222D02*
X6320182Y-14580174D01*
X6320182Y-14580174D02*
X6339230Y-14570650D01*
X6339230Y-14570650D02*
X6367801Y-14570650D01*
X6367801Y-14570650D02*
X6386849Y-14580174D01*
X6463039Y-14780174D02*
X6472563Y-14770650D01*
X6472563Y-14770650D02*
X6491611Y-14742079D01*
X6491611Y-14742079D02*
X6501134Y-14723031D01*
X6501134Y-14723031D02*
X6510658Y-14694460D01*
X6510658Y-14694460D02*
X6520182Y-14646841D01*
X6520182Y-14646841D02*
X6520182Y-14608746D01*
X6520182Y-14608746D02*
X6510658Y-14561127D01*
X6510658Y-14561127D02*
X6501134Y-14532555D01*
X6501134Y-14532555D02*
X6491611Y-14513508D01*
X6491611Y-14513508D02*
X6472563Y-14484936D01*
X6472563Y-14484936D02*
X6463039Y-14475412D01*
D16*
X1354500Y-14805000D02*
X1497500Y-14948000D01*
X1497500Y-14805000D02*
X1354500Y-14948000D01*
X1426000Y-14805000D02*
X1426000Y-14948000D01*
X1354500Y-14876500D02*
X1497500Y-14876500D01*
D11*
X1863039Y-14967984D02*
X1748753Y-14967984D01*
X1805896Y-14967984D02*
X1805896Y-14767984D01*
X1805896Y-14767984D02*
X1786848Y-14796555D01*
X1786848Y-14796555D02*
X1767801Y-14815603D01*
X1767801Y-14815603D02*
X1748753Y-14825127D01*
X1948753Y-14948936D02*
X1958277Y-14958460D01*
X1958277Y-14958460D02*
X1948753Y-14967984D01*
X1948753Y-14967984D02*
X1939229Y-14958460D01*
X1939229Y-14958460D02*
X1948753Y-14948936D01*
X1948753Y-14948936D02*
X1948753Y-14967984D01*
X2129705Y-14834650D02*
X2129705Y-14967984D01*
X2082086Y-14758460D02*
X2034467Y-14901317D01*
X2034467Y-14901317D02*
X2158277Y-14901317D01*
X2215420Y-14767984D02*
X2339229Y-14767984D01*
X2339229Y-14767984D02*
X2272563Y-14844174D01*
X2272563Y-14844174D02*
X2301134Y-14844174D01*
X2301134Y-14844174D02*
X2320182Y-14853698D01*
X2320182Y-14853698D02*
X2329705Y-14863222D01*
X2329705Y-14863222D02*
X2339229Y-14882269D01*
X2339229Y-14882269D02*
X2339229Y-14929888D01*
X2339229Y-14929888D02*
X2329705Y-14948936D01*
X2329705Y-14948936D02*
X2320182Y-14958460D01*
X2320182Y-14958460D02*
X2301134Y-14967984D01*
X2301134Y-14967984D02*
X2243991Y-14967984D01*
X2243991Y-14967984D02*
X2224944Y-14958460D01*
X2224944Y-14958460D02*
X2215420Y-14948936D01*
X2463039Y-14767984D02*
X2482086Y-14767984D01*
X2482086Y-14767984D02*
X2501134Y-14777508D01*
X2501134Y-14777508D02*
X2510658Y-14787031D01*
X2510658Y-14787031D02*
X2520182Y-14806079D01*
X2520182Y-14806079D02*
X2529705Y-14844174D01*
X2529705Y-14844174D02*
X2529705Y-14891793D01*
X2529705Y-14891793D02*
X2520182Y-14929888D01*
X2520182Y-14929888D02*
X2510658Y-14948936D01*
X2510658Y-14948936D02*
X2501134Y-14958460D01*
X2501134Y-14958460D02*
X2482086Y-14967984D01*
X2482086Y-14967984D02*
X2463039Y-14967984D01*
X2463039Y-14967984D02*
X2443991Y-14958460D01*
X2443991Y-14958460D02*
X2434467Y-14948936D01*
X2434467Y-14948936D02*
X2424944Y-14929888D01*
X2424944Y-14929888D02*
X2415420Y-14891793D01*
X2415420Y-14891793D02*
X2415420Y-14844174D01*
X2415420Y-14844174D02*
X2424944Y-14806079D01*
X2424944Y-14806079D02*
X2434467Y-14787031D01*
X2434467Y-14787031D02*
X2443991Y-14777508D01*
X2443991Y-14777508D02*
X2463039Y-14767984D01*
X2615420Y-14967984D02*
X2615420Y-14834650D01*
X2615420Y-14853698D02*
X2624944Y-14844174D01*
X2624944Y-14844174D02*
X2643991Y-14834650D01*
X2643991Y-14834650D02*
X2672563Y-14834650D01*
X2672563Y-14834650D02*
X2691610Y-14844174D01*
X2691610Y-14844174D02*
X2701134Y-14863222D01*
X2701134Y-14863222D02*
X2701134Y-14967984D01*
X2701134Y-14863222D02*
X2710658Y-14844174D01*
X2710658Y-14844174D02*
X2729705Y-14834650D01*
X2729705Y-14834650D02*
X2758277Y-14834650D01*
X2758277Y-14834650D02*
X2777325Y-14844174D01*
X2777325Y-14844174D02*
X2786848Y-14863222D01*
X2786848Y-14863222D02*
X2786848Y-14967984D01*
X2882086Y-14967984D02*
X2882086Y-14834650D01*
X2882086Y-14853698D02*
X2891610Y-14844174D01*
X2891610Y-14844174D02*
X2910658Y-14834650D01*
X2910658Y-14834650D02*
X2939229Y-14834650D01*
X2939229Y-14834650D02*
X2958277Y-14844174D01*
X2958277Y-14844174D02*
X2967801Y-14863222D01*
X2967801Y-14863222D02*
X2967801Y-14967984D01*
X2967801Y-14863222D02*
X2977324Y-14844174D01*
X2977324Y-14844174D02*
X2996372Y-14834650D01*
X2996372Y-14834650D02*
X3024943Y-14834650D01*
X3024943Y-14834650D02*
X3043991Y-14844174D01*
X3043991Y-14844174D02*
X3053515Y-14863222D01*
X3053515Y-14863222D02*
X3053515Y-14967984D01*
X3443991Y-14758460D02*
X3272563Y-15015603D01*
X3701134Y-14767984D02*
X3720182Y-14767984D01*
X3720182Y-14767984D02*
X3739229Y-14777508D01*
X3739229Y-14777508D02*
X3748753Y-14787031D01*
X3748753Y-14787031D02*
X3758277Y-14806079D01*
X3758277Y-14806079D02*
X3767801Y-14844174D01*
X3767801Y-14844174D02*
X3767801Y-14891793D01*
X3767801Y-14891793D02*
X3758277Y-14929888D01*
X3758277Y-14929888D02*
X3748753Y-14948936D01*
X3748753Y-14948936D02*
X3739229Y-14958460D01*
X3739229Y-14958460D02*
X3720182Y-14967984D01*
X3720182Y-14967984D02*
X3701134Y-14967984D01*
X3701134Y-14967984D02*
X3682086Y-14958460D01*
X3682086Y-14958460D02*
X3672563Y-14948936D01*
X3672563Y-14948936D02*
X3663039Y-14929888D01*
X3663039Y-14929888D02*
X3653515Y-14891793D01*
X3653515Y-14891793D02*
X3653515Y-14844174D01*
X3653515Y-14844174D02*
X3663039Y-14806079D01*
X3663039Y-14806079D02*
X3672563Y-14787031D01*
X3672563Y-14787031D02*
X3682086Y-14777508D01*
X3682086Y-14777508D02*
X3701134Y-14767984D01*
X3853515Y-14948936D02*
X3863039Y-14958460D01*
X3863039Y-14958460D02*
X3853515Y-14967984D01*
X3853515Y-14967984D02*
X3843991Y-14958460D01*
X3843991Y-14958460D02*
X3853515Y-14948936D01*
X3853515Y-14948936D02*
X3853515Y-14967984D01*
X3986848Y-14767984D02*
X4005896Y-14767984D01*
X4005896Y-14767984D02*
X4024944Y-14777508D01*
X4024944Y-14777508D02*
X4034467Y-14787031D01*
X4034467Y-14787031D02*
X4043991Y-14806079D01*
X4043991Y-14806079D02*
X4053515Y-14844174D01*
X4053515Y-14844174D02*
X4053515Y-14891793D01*
X4053515Y-14891793D02*
X4043991Y-14929888D01*
X4043991Y-14929888D02*
X4034467Y-14948936D01*
X4034467Y-14948936D02*
X4024944Y-14958460D01*
X4024944Y-14958460D02*
X4005896Y-14967984D01*
X4005896Y-14967984D02*
X3986848Y-14967984D01*
X3986848Y-14967984D02*
X3967801Y-14958460D01*
X3967801Y-14958460D02*
X3958277Y-14948936D01*
X3958277Y-14948936D02*
X3948753Y-14929888D01*
X3948753Y-14929888D02*
X3939229Y-14891793D01*
X3939229Y-14891793D02*
X3939229Y-14844174D01*
X3939229Y-14844174D02*
X3948753Y-14806079D01*
X3948753Y-14806079D02*
X3958277Y-14787031D01*
X3958277Y-14787031D02*
X3967801Y-14777508D01*
X3967801Y-14777508D02*
X3986848Y-14767984D01*
X4234468Y-14767984D02*
X4139229Y-14767984D01*
X4139229Y-14767984D02*
X4129706Y-14863222D01*
X4129706Y-14863222D02*
X4139229Y-14853698D01*
X4139229Y-14853698D02*
X4158277Y-14844174D01*
X4158277Y-14844174D02*
X4205896Y-14844174D01*
X4205896Y-14844174D02*
X4224944Y-14853698D01*
X4224944Y-14853698D02*
X4234468Y-14863222D01*
X4234468Y-14863222D02*
X4243991Y-14882269D01*
X4243991Y-14882269D02*
X4243991Y-14929888D01*
X4243991Y-14929888D02*
X4234468Y-14948936D01*
X4234468Y-14948936D02*
X4224944Y-14958460D01*
X4224944Y-14958460D02*
X4205896Y-14967984D01*
X4205896Y-14967984D02*
X4158277Y-14967984D01*
X4158277Y-14967984D02*
X4139229Y-14958460D01*
X4139229Y-14958460D02*
X4129706Y-14948936D01*
X4415420Y-14767984D02*
X4377325Y-14767984D01*
X4377325Y-14767984D02*
X4358277Y-14777508D01*
X4358277Y-14777508D02*
X4348753Y-14787031D01*
X4348753Y-14787031D02*
X4329706Y-14815603D01*
X4329706Y-14815603D02*
X4320182Y-14853698D01*
X4320182Y-14853698D02*
X4320182Y-14929888D01*
X4320182Y-14929888D02*
X4329706Y-14948936D01*
X4329706Y-14948936D02*
X4339229Y-14958460D01*
X4339229Y-14958460D02*
X4358277Y-14967984D01*
X4358277Y-14967984D02*
X4396372Y-14967984D01*
X4396372Y-14967984D02*
X4415420Y-14958460D01*
X4415420Y-14958460D02*
X4424944Y-14948936D01*
X4424944Y-14948936D02*
X4434468Y-14929888D01*
X4434468Y-14929888D02*
X4434468Y-14882269D01*
X4434468Y-14882269D02*
X4424944Y-14863222D01*
X4424944Y-14863222D02*
X4415420Y-14853698D01*
X4415420Y-14853698D02*
X4396372Y-14844174D01*
X4396372Y-14844174D02*
X4358277Y-14844174D01*
X4358277Y-14844174D02*
X4339229Y-14853698D01*
X4339229Y-14853698D02*
X4329706Y-14863222D01*
X4329706Y-14863222D02*
X4320182Y-14882269D01*
X4501134Y-14767984D02*
X4624944Y-14767984D01*
X4624944Y-14767984D02*
X4558277Y-14844174D01*
X4558277Y-14844174D02*
X4586849Y-14844174D01*
X4586849Y-14844174D02*
X4605896Y-14853698D01*
X4605896Y-14853698D02*
X4615420Y-14863222D01*
X4615420Y-14863222D02*
X4624944Y-14882269D01*
X4624944Y-14882269D02*
X4624944Y-14929888D01*
X4624944Y-14929888D02*
X4615420Y-14948936D01*
X4615420Y-14948936D02*
X4605896Y-14958460D01*
X4605896Y-14958460D02*
X4586849Y-14967984D01*
X4586849Y-14967984D02*
X4529706Y-14967984D01*
X4529706Y-14967984D02*
X4510658Y-14958460D01*
X4510658Y-14958460D02*
X4501134Y-14948936D01*
X4701134Y-14767984D02*
X4701134Y-14806079D01*
X4777325Y-14767984D02*
X4777325Y-14806079D01*
X5072563Y-15044174D02*
X5063039Y-15034650D01*
X5063039Y-15034650D02*
X5043991Y-15006079D01*
X5043991Y-15006079D02*
X5034468Y-14987031D01*
X5034468Y-14987031D02*
X5024944Y-14958460D01*
X5024944Y-14958460D02*
X5015420Y-14910841D01*
X5015420Y-14910841D02*
X5015420Y-14872746D01*
X5015420Y-14872746D02*
X5024944Y-14825127D01*
X5024944Y-14825127D02*
X5034468Y-14796555D01*
X5034468Y-14796555D02*
X5043991Y-14777508D01*
X5043991Y-14777508D02*
X5063039Y-14748936D01*
X5063039Y-14748936D02*
X5072563Y-14739412D01*
X5253515Y-14967984D02*
X5139230Y-14967984D01*
X5196372Y-14967984D02*
X5196372Y-14767984D01*
X5196372Y-14767984D02*
X5177325Y-14796555D01*
X5177325Y-14796555D02*
X5158277Y-14815603D01*
X5158277Y-14815603D02*
X5139230Y-14825127D01*
X5424944Y-14767984D02*
X5386849Y-14767984D01*
X5386849Y-14767984D02*
X5367801Y-14777508D01*
X5367801Y-14777508D02*
X5358277Y-14787031D01*
X5358277Y-14787031D02*
X5339230Y-14815603D01*
X5339230Y-14815603D02*
X5329706Y-14853698D01*
X5329706Y-14853698D02*
X5329706Y-14929888D01*
X5329706Y-14929888D02*
X5339230Y-14948936D01*
X5339230Y-14948936D02*
X5348753Y-14958460D01*
X5348753Y-14958460D02*
X5367801Y-14967984D01*
X5367801Y-14967984D02*
X5405896Y-14967984D01*
X5405896Y-14967984D02*
X5424944Y-14958460D01*
X5424944Y-14958460D02*
X5434468Y-14948936D01*
X5434468Y-14948936D02*
X5443991Y-14929888D01*
X5443991Y-14929888D02*
X5443991Y-14882269D01*
X5443991Y-14882269D02*
X5434468Y-14863222D01*
X5434468Y-14863222D02*
X5424944Y-14853698D01*
X5424944Y-14853698D02*
X5405896Y-14844174D01*
X5405896Y-14844174D02*
X5367801Y-14844174D01*
X5367801Y-14844174D02*
X5348753Y-14853698D01*
X5348753Y-14853698D02*
X5339230Y-14863222D01*
X5339230Y-14863222D02*
X5329706Y-14882269D01*
X5682087Y-14967984D02*
X5682087Y-14767984D01*
X5767801Y-14967984D02*
X5767801Y-14863222D01*
X5767801Y-14863222D02*
X5758277Y-14844174D01*
X5758277Y-14844174D02*
X5739230Y-14834650D01*
X5739230Y-14834650D02*
X5710658Y-14834650D01*
X5710658Y-14834650D02*
X5691610Y-14844174D01*
X5691610Y-14844174D02*
X5682087Y-14853698D01*
X5891610Y-14967984D02*
X5872563Y-14958460D01*
X5872563Y-14958460D02*
X5863039Y-14948936D01*
X5863039Y-14948936D02*
X5853515Y-14929888D01*
X5853515Y-14929888D02*
X5853515Y-14872746D01*
X5853515Y-14872746D02*
X5863039Y-14853698D01*
X5863039Y-14853698D02*
X5872563Y-14844174D01*
X5872563Y-14844174D02*
X5891610Y-14834650D01*
X5891610Y-14834650D02*
X5920182Y-14834650D01*
X5920182Y-14834650D02*
X5939230Y-14844174D01*
X5939230Y-14844174D02*
X5948753Y-14853698D01*
X5948753Y-14853698D02*
X5958277Y-14872746D01*
X5958277Y-14872746D02*
X5958277Y-14929888D01*
X5958277Y-14929888D02*
X5948753Y-14948936D01*
X5948753Y-14948936D02*
X5939230Y-14958460D01*
X5939230Y-14958460D02*
X5920182Y-14967984D01*
X5920182Y-14967984D02*
X5891610Y-14967984D01*
X6072563Y-14967984D02*
X6053515Y-14958460D01*
X6053515Y-14958460D02*
X6043991Y-14939412D01*
X6043991Y-14939412D02*
X6043991Y-14767984D01*
X6224944Y-14958460D02*
X6205896Y-14967984D01*
X6205896Y-14967984D02*
X6167801Y-14967984D01*
X6167801Y-14967984D02*
X6148753Y-14958460D01*
X6148753Y-14958460D02*
X6139230Y-14939412D01*
X6139230Y-14939412D02*
X6139230Y-14863222D01*
X6139230Y-14863222D02*
X6148753Y-14844174D01*
X6148753Y-14844174D02*
X6167801Y-14834650D01*
X6167801Y-14834650D02*
X6205896Y-14834650D01*
X6205896Y-14834650D02*
X6224944Y-14844174D01*
X6224944Y-14844174D02*
X6234468Y-14863222D01*
X6234468Y-14863222D02*
X6234468Y-14882269D01*
X6234468Y-14882269D02*
X6139230Y-14901317D01*
X6310658Y-14958460D02*
X6329706Y-14967984D01*
X6329706Y-14967984D02*
X6367801Y-14967984D01*
X6367801Y-14967984D02*
X6386849Y-14958460D01*
X6386849Y-14958460D02*
X6396372Y-14939412D01*
X6396372Y-14939412D02*
X6396372Y-14929888D01*
X6396372Y-14929888D02*
X6386849Y-14910841D01*
X6386849Y-14910841D02*
X6367801Y-14901317D01*
X6367801Y-14901317D02*
X6339230Y-14901317D01*
X6339230Y-14901317D02*
X6320182Y-14891793D01*
X6320182Y-14891793D02*
X6310658Y-14872746D01*
X6310658Y-14872746D02*
X6310658Y-14863222D01*
X6310658Y-14863222D02*
X6320182Y-14844174D01*
X6320182Y-14844174D02*
X6339230Y-14834650D01*
X6339230Y-14834650D02*
X6367801Y-14834650D01*
X6367801Y-14834650D02*
X6386849Y-14844174D01*
X6463039Y-15044174D02*
X6472563Y-15034650D01*
X6472563Y-15034650D02*
X6491611Y-15006079D01*
X6491611Y-15006079D02*
X6501134Y-14987031D01*
X6501134Y-14987031D02*
X6510658Y-14958460D01*
X6510658Y-14958460D02*
X6520182Y-14910841D01*
X6520182Y-14910841D02*
X6520182Y-14872746D01*
X6520182Y-14872746D02*
X6510658Y-14825127D01*
X6510658Y-14825127D02*
X6501134Y-14796555D01*
X6501134Y-14796555D02*
X6491611Y-14777508D01*
X6491611Y-14777508D02*
X6472563Y-14748936D01*
X6472563Y-14748936D02*
X6463039Y-14739412D01*
D17*
X1317500Y-15050500D02*
X1497500Y-15230500D01*
X1497500Y-15050500D02*
X1317500Y-15230500D01*
X1471140Y-15204140D02*
X1471140Y-15076860D01*
X1343860Y-15076860D01*
X1343860Y-15204140D01*
X1471140Y-15204140D01*
D11*
X1863039Y-15231984D02*
X1748753Y-15231984D01*
X1805896Y-15231984D02*
X1805896Y-15031984D01*
X1805896Y-15031984D02*
X1786848Y-15060555D01*
X1786848Y-15060555D02*
X1767801Y-15079603D01*
X1767801Y-15079603D02*
X1748753Y-15089127D01*
X1948753Y-15212936D02*
X1958277Y-15222460D01*
X1958277Y-15222460D02*
X1948753Y-15231984D01*
X1948753Y-15231984D02*
X1939229Y-15222460D01*
X1939229Y-15222460D02*
X1948753Y-15212936D01*
X1948753Y-15212936D02*
X1948753Y-15231984D01*
X2072562Y-15117698D02*
X2053515Y-15108174D01*
X2053515Y-15108174D02*
X2043991Y-15098650D01*
X2043991Y-15098650D02*
X2034467Y-15079603D01*
X2034467Y-15079603D02*
X2034467Y-15070079D01*
X2034467Y-15070079D02*
X2043991Y-15051031D01*
X2043991Y-15051031D02*
X2053515Y-15041508D01*
X2053515Y-15041508D02*
X2072562Y-15031984D01*
X2072562Y-15031984D02*
X2110658Y-15031984D01*
X2110658Y-15031984D02*
X2129705Y-15041508D01*
X2129705Y-15041508D02*
X2139229Y-15051031D01*
X2139229Y-15051031D02*
X2148753Y-15070079D01*
X2148753Y-15070079D02*
X2148753Y-15079603D01*
X2148753Y-15079603D02*
X2139229Y-15098650D01*
X2139229Y-15098650D02*
X2129705Y-15108174D01*
X2129705Y-15108174D02*
X2110658Y-15117698D01*
X2110658Y-15117698D02*
X2072562Y-15117698D01*
X2072562Y-15117698D02*
X2053515Y-15127222D01*
X2053515Y-15127222D02*
X2043991Y-15136746D01*
X2043991Y-15136746D02*
X2034467Y-15155793D01*
X2034467Y-15155793D02*
X2034467Y-15193888D01*
X2034467Y-15193888D02*
X2043991Y-15212936D01*
X2043991Y-15212936D02*
X2053515Y-15222460D01*
X2053515Y-15222460D02*
X2072562Y-15231984D01*
X2072562Y-15231984D02*
X2110658Y-15231984D01*
X2110658Y-15231984D02*
X2129705Y-15222460D01*
X2129705Y-15222460D02*
X2139229Y-15212936D01*
X2139229Y-15212936D02*
X2148753Y-15193888D01*
X2148753Y-15193888D02*
X2148753Y-15155793D01*
X2148753Y-15155793D02*
X2139229Y-15136746D01*
X2139229Y-15136746D02*
X2129705Y-15127222D01*
X2129705Y-15127222D02*
X2110658Y-15117698D01*
X2272563Y-15031984D02*
X2291610Y-15031984D01*
X2291610Y-15031984D02*
X2310658Y-15041508D01*
X2310658Y-15041508D02*
X2320182Y-15051031D01*
X2320182Y-15051031D02*
X2329705Y-15070079D01*
X2329705Y-15070079D02*
X2339229Y-15108174D01*
X2339229Y-15108174D02*
X2339229Y-15155793D01*
X2339229Y-15155793D02*
X2329705Y-15193888D01*
X2329705Y-15193888D02*
X2320182Y-15212936D01*
X2320182Y-15212936D02*
X2310658Y-15222460D01*
X2310658Y-15222460D02*
X2291610Y-15231984D01*
X2291610Y-15231984D02*
X2272563Y-15231984D01*
X2272563Y-15231984D02*
X2253515Y-15222460D01*
X2253515Y-15222460D02*
X2243991Y-15212936D01*
X2243991Y-15212936D02*
X2234467Y-15193888D01*
X2234467Y-15193888D02*
X2224944Y-15155793D01*
X2224944Y-15155793D02*
X2224944Y-15108174D01*
X2224944Y-15108174D02*
X2234467Y-15070079D01*
X2234467Y-15070079D02*
X2243991Y-15051031D01*
X2243991Y-15051031D02*
X2253515Y-15041508D01*
X2253515Y-15041508D02*
X2272563Y-15031984D01*
X2463039Y-15031984D02*
X2482086Y-15031984D01*
X2482086Y-15031984D02*
X2501134Y-15041508D01*
X2501134Y-15041508D02*
X2510658Y-15051031D01*
X2510658Y-15051031D02*
X2520182Y-15070079D01*
X2520182Y-15070079D02*
X2529705Y-15108174D01*
X2529705Y-15108174D02*
X2529705Y-15155793D01*
X2529705Y-15155793D02*
X2520182Y-15193888D01*
X2520182Y-15193888D02*
X2510658Y-15212936D01*
X2510658Y-15212936D02*
X2501134Y-15222460D01*
X2501134Y-15222460D02*
X2482086Y-15231984D01*
X2482086Y-15231984D02*
X2463039Y-15231984D01*
X2463039Y-15231984D02*
X2443991Y-15222460D01*
X2443991Y-15222460D02*
X2434467Y-15212936D01*
X2434467Y-15212936D02*
X2424944Y-15193888D01*
X2424944Y-15193888D02*
X2415420Y-15155793D01*
X2415420Y-15155793D02*
X2415420Y-15108174D01*
X2415420Y-15108174D02*
X2424944Y-15070079D01*
X2424944Y-15070079D02*
X2434467Y-15051031D01*
X2434467Y-15051031D02*
X2443991Y-15041508D01*
X2443991Y-15041508D02*
X2463039Y-15031984D01*
X2615420Y-15231984D02*
X2615420Y-15098650D01*
X2615420Y-15117698D02*
X2624944Y-15108174D01*
X2624944Y-15108174D02*
X2643991Y-15098650D01*
X2643991Y-15098650D02*
X2672563Y-15098650D01*
X2672563Y-15098650D02*
X2691610Y-15108174D01*
X2691610Y-15108174D02*
X2701134Y-15127222D01*
X2701134Y-15127222D02*
X2701134Y-15231984D01*
X2701134Y-15127222D02*
X2710658Y-15108174D01*
X2710658Y-15108174D02*
X2729705Y-15098650D01*
X2729705Y-15098650D02*
X2758277Y-15098650D01*
X2758277Y-15098650D02*
X2777325Y-15108174D01*
X2777325Y-15108174D02*
X2786848Y-15127222D01*
X2786848Y-15127222D02*
X2786848Y-15231984D01*
X2882086Y-15231984D02*
X2882086Y-15098650D01*
X2882086Y-15117698D02*
X2891610Y-15108174D01*
X2891610Y-15108174D02*
X2910658Y-15098650D01*
X2910658Y-15098650D02*
X2939229Y-15098650D01*
X2939229Y-15098650D02*
X2958277Y-15108174D01*
X2958277Y-15108174D02*
X2967801Y-15127222D01*
X2967801Y-15127222D02*
X2967801Y-15231984D01*
X2967801Y-15127222D02*
X2977324Y-15108174D01*
X2977324Y-15108174D02*
X2996372Y-15098650D01*
X2996372Y-15098650D02*
X3024943Y-15098650D01*
X3024943Y-15098650D02*
X3043991Y-15108174D01*
X3043991Y-15108174D02*
X3053515Y-15127222D01*
X3053515Y-15127222D02*
X3053515Y-15231984D01*
X3443991Y-15022460D02*
X3272563Y-15279603D01*
X3701134Y-15031984D02*
X3720182Y-15031984D01*
X3720182Y-15031984D02*
X3739229Y-15041508D01*
X3739229Y-15041508D02*
X3748753Y-15051031D01*
X3748753Y-15051031D02*
X3758277Y-15070079D01*
X3758277Y-15070079D02*
X3767801Y-15108174D01*
X3767801Y-15108174D02*
X3767801Y-15155793D01*
X3767801Y-15155793D02*
X3758277Y-15193888D01*
X3758277Y-15193888D02*
X3748753Y-15212936D01*
X3748753Y-15212936D02*
X3739229Y-15222460D01*
X3739229Y-15222460D02*
X3720182Y-15231984D01*
X3720182Y-15231984D02*
X3701134Y-15231984D01*
X3701134Y-15231984D02*
X3682086Y-15222460D01*
X3682086Y-15222460D02*
X3672563Y-15212936D01*
X3672563Y-15212936D02*
X3663039Y-15193888D01*
X3663039Y-15193888D02*
X3653515Y-15155793D01*
X3653515Y-15155793D02*
X3653515Y-15108174D01*
X3653515Y-15108174D02*
X3663039Y-15070079D01*
X3663039Y-15070079D02*
X3672563Y-15051031D01*
X3672563Y-15051031D02*
X3682086Y-15041508D01*
X3682086Y-15041508D02*
X3701134Y-15031984D01*
X3853515Y-15212936D02*
X3863039Y-15222460D01*
X3863039Y-15222460D02*
X3853515Y-15231984D01*
X3853515Y-15231984D02*
X3843991Y-15222460D01*
X3843991Y-15222460D02*
X3853515Y-15212936D01*
X3853515Y-15212936D02*
X3853515Y-15231984D01*
X3986848Y-15031984D02*
X4005896Y-15031984D01*
X4005896Y-15031984D02*
X4024944Y-15041508D01*
X4024944Y-15041508D02*
X4034467Y-15051031D01*
X4034467Y-15051031D02*
X4043991Y-15070079D01*
X4043991Y-15070079D02*
X4053515Y-15108174D01*
X4053515Y-15108174D02*
X4053515Y-15155793D01*
X4053515Y-15155793D02*
X4043991Y-15193888D01*
X4043991Y-15193888D02*
X4034467Y-15212936D01*
X4034467Y-15212936D02*
X4024944Y-15222460D01*
X4024944Y-15222460D02*
X4005896Y-15231984D01*
X4005896Y-15231984D02*
X3986848Y-15231984D01*
X3986848Y-15231984D02*
X3967801Y-15222460D01*
X3967801Y-15222460D02*
X3958277Y-15212936D01*
X3958277Y-15212936D02*
X3948753Y-15193888D01*
X3948753Y-15193888D02*
X3939229Y-15155793D01*
X3939229Y-15155793D02*
X3939229Y-15108174D01*
X3939229Y-15108174D02*
X3948753Y-15070079D01*
X3948753Y-15070079D02*
X3958277Y-15051031D01*
X3958277Y-15051031D02*
X3967801Y-15041508D01*
X3967801Y-15041508D02*
X3986848Y-15031984D01*
X4120182Y-15031984D02*
X4253515Y-15031984D01*
X4253515Y-15031984D02*
X4167801Y-15231984D01*
X4367801Y-15031984D02*
X4386849Y-15031984D01*
X4386849Y-15031984D02*
X4405896Y-15041508D01*
X4405896Y-15041508D02*
X4415420Y-15051031D01*
X4415420Y-15051031D02*
X4424944Y-15070079D01*
X4424944Y-15070079D02*
X4434468Y-15108174D01*
X4434468Y-15108174D02*
X4434468Y-15155793D01*
X4434468Y-15155793D02*
X4424944Y-15193888D01*
X4424944Y-15193888D02*
X4415420Y-15212936D01*
X4415420Y-15212936D02*
X4405896Y-15222460D01*
X4405896Y-15222460D02*
X4386849Y-15231984D01*
X4386849Y-15231984D02*
X4367801Y-15231984D01*
X4367801Y-15231984D02*
X4348753Y-15222460D01*
X4348753Y-15222460D02*
X4339229Y-15212936D01*
X4339229Y-15212936D02*
X4329706Y-15193888D01*
X4329706Y-15193888D02*
X4320182Y-15155793D01*
X4320182Y-15155793D02*
X4320182Y-15108174D01*
X4320182Y-15108174D02*
X4329706Y-15070079D01*
X4329706Y-15070079D02*
X4339229Y-15051031D01*
X4339229Y-15051031D02*
X4348753Y-15041508D01*
X4348753Y-15041508D02*
X4367801Y-15031984D01*
X4529706Y-15231984D02*
X4567801Y-15231984D01*
X4567801Y-15231984D02*
X4586849Y-15222460D01*
X4586849Y-15222460D02*
X4596372Y-15212936D01*
X4596372Y-15212936D02*
X4615420Y-15184365D01*
X4615420Y-15184365D02*
X4624944Y-15146269D01*
X4624944Y-15146269D02*
X4624944Y-15070079D01*
X4624944Y-15070079D02*
X4615420Y-15051031D01*
X4615420Y-15051031D02*
X4605896Y-15041508D01*
X4605896Y-15041508D02*
X4586849Y-15031984D01*
X4586849Y-15031984D02*
X4548753Y-15031984D01*
X4548753Y-15031984D02*
X4529706Y-15041508D01*
X4529706Y-15041508D02*
X4520182Y-15051031D01*
X4520182Y-15051031D02*
X4510658Y-15070079D01*
X4510658Y-15070079D02*
X4510658Y-15117698D01*
X4510658Y-15117698D02*
X4520182Y-15136746D01*
X4520182Y-15136746D02*
X4529706Y-15146269D01*
X4529706Y-15146269D02*
X4548753Y-15155793D01*
X4548753Y-15155793D02*
X4586849Y-15155793D01*
X4586849Y-15155793D02*
X4605896Y-15146269D01*
X4605896Y-15146269D02*
X4615420Y-15136746D01*
X4615420Y-15136746D02*
X4624944Y-15117698D01*
X4701134Y-15031984D02*
X4701134Y-15070079D01*
X4777325Y-15031984D02*
X4777325Y-15070079D01*
X5072563Y-15308174D02*
X5063039Y-15298650D01*
X5063039Y-15298650D02*
X5043991Y-15270079D01*
X5043991Y-15270079D02*
X5034468Y-15251031D01*
X5034468Y-15251031D02*
X5024944Y-15222460D01*
X5024944Y-15222460D02*
X5015420Y-15174841D01*
X5015420Y-15174841D02*
X5015420Y-15136746D01*
X5015420Y-15136746D02*
X5024944Y-15089127D01*
X5024944Y-15089127D02*
X5034468Y-15060555D01*
X5034468Y-15060555D02*
X5043991Y-15041508D01*
X5043991Y-15041508D02*
X5063039Y-15012936D01*
X5063039Y-15012936D02*
X5072563Y-15003412D01*
X5186849Y-15031984D02*
X5205896Y-15031984D01*
X5205896Y-15031984D02*
X5224944Y-15041508D01*
X5224944Y-15041508D02*
X5234468Y-15051031D01*
X5234468Y-15051031D02*
X5243991Y-15070079D01*
X5243991Y-15070079D02*
X5253515Y-15108174D01*
X5253515Y-15108174D02*
X5253515Y-15155793D01*
X5253515Y-15155793D02*
X5243991Y-15193888D01*
X5243991Y-15193888D02*
X5234468Y-15212936D01*
X5234468Y-15212936D02*
X5224944Y-15222460D01*
X5224944Y-15222460D02*
X5205896Y-15231984D01*
X5205896Y-15231984D02*
X5186849Y-15231984D01*
X5186849Y-15231984D02*
X5167801Y-15222460D01*
X5167801Y-15222460D02*
X5158277Y-15212936D01*
X5158277Y-15212936D02*
X5148753Y-15193888D01*
X5148753Y-15193888D02*
X5139230Y-15155793D01*
X5139230Y-15155793D02*
X5139230Y-15108174D01*
X5139230Y-15108174D02*
X5148753Y-15070079D01*
X5148753Y-15070079D02*
X5158277Y-15051031D01*
X5158277Y-15051031D02*
X5167801Y-15041508D01*
X5167801Y-15041508D02*
X5186849Y-15031984D01*
X5491611Y-15231984D02*
X5491611Y-15031984D01*
X5577325Y-15231984D02*
X5577325Y-15127222D01*
X5577325Y-15127222D02*
X5567801Y-15108174D01*
X5567801Y-15108174D02*
X5548753Y-15098650D01*
X5548753Y-15098650D02*
X5520182Y-15098650D01*
X5520182Y-15098650D02*
X5501134Y-15108174D01*
X5501134Y-15108174D02*
X5491611Y-15117698D01*
X5701134Y-15231984D02*
X5682087Y-15222460D01*
X5682087Y-15222460D02*
X5672563Y-15212936D01*
X5672563Y-15212936D02*
X5663039Y-15193888D01*
X5663039Y-15193888D02*
X5663039Y-15136746D01*
X5663039Y-15136746D02*
X5672563Y-15117698D01*
X5672563Y-15117698D02*
X5682087Y-15108174D01*
X5682087Y-15108174D02*
X5701134Y-15098650D01*
X5701134Y-15098650D02*
X5729706Y-15098650D01*
X5729706Y-15098650D02*
X5748753Y-15108174D01*
X5748753Y-15108174D02*
X5758277Y-15117698D01*
X5758277Y-15117698D02*
X5767801Y-15136746D01*
X5767801Y-15136746D02*
X5767801Y-15193888D01*
X5767801Y-15193888D02*
X5758277Y-15212936D01*
X5758277Y-15212936D02*
X5748753Y-15222460D01*
X5748753Y-15222460D02*
X5729706Y-15231984D01*
X5729706Y-15231984D02*
X5701134Y-15231984D01*
X5882087Y-15231984D02*
X5863039Y-15222460D01*
X5863039Y-15222460D02*
X5853515Y-15203412D01*
X5853515Y-15203412D02*
X5853515Y-15031984D01*
X6034468Y-15222460D02*
X6015420Y-15231984D01*
X6015420Y-15231984D02*
X5977325Y-15231984D01*
X5977325Y-15231984D02*
X5958277Y-15222460D01*
X5958277Y-15222460D02*
X5948753Y-15203412D01*
X5948753Y-15203412D02*
X5948753Y-15127222D01*
X5948753Y-15127222D02*
X5958277Y-15108174D01*
X5958277Y-15108174D02*
X5977325Y-15098650D01*
X5977325Y-15098650D02*
X6015420Y-15098650D01*
X6015420Y-15098650D02*
X6034468Y-15108174D01*
X6034468Y-15108174D02*
X6043991Y-15127222D01*
X6043991Y-15127222D02*
X6043991Y-15146269D01*
X6043991Y-15146269D02*
X5948753Y-15165317D01*
X6120182Y-15222460D02*
X6139230Y-15231984D01*
X6139230Y-15231984D02*
X6177325Y-15231984D01*
X6177325Y-15231984D02*
X6196372Y-15222460D01*
X6196372Y-15222460D02*
X6205896Y-15203412D01*
X6205896Y-15203412D02*
X6205896Y-15193888D01*
X6205896Y-15193888D02*
X6196372Y-15174841D01*
X6196372Y-15174841D02*
X6177325Y-15165317D01*
X6177325Y-15165317D02*
X6148753Y-15165317D01*
X6148753Y-15165317D02*
X6129706Y-15155793D01*
X6129706Y-15155793D02*
X6120182Y-15136746D01*
X6120182Y-15136746D02*
X6120182Y-15127222D01*
X6120182Y-15127222D02*
X6129706Y-15108174D01*
X6129706Y-15108174D02*
X6148753Y-15098650D01*
X6148753Y-15098650D02*
X6177325Y-15098650D01*
X6177325Y-15098650D02*
X6196372Y-15108174D01*
X6443992Y-15155793D02*
X6596373Y-15155793D01*
X6520182Y-15231984D02*
X6520182Y-15079603D01*
X6948753Y-15231984D02*
X6834468Y-15231984D01*
X6891611Y-15231984D02*
X6891611Y-15031984D01*
X6891611Y-15031984D02*
X6872563Y-15060555D01*
X6872563Y-15060555D02*
X6853515Y-15079603D01*
X6853515Y-15079603D02*
X6834468Y-15089127D01*
X7120182Y-15031984D02*
X7082087Y-15031984D01*
X7082087Y-15031984D02*
X7063039Y-15041508D01*
X7063039Y-15041508D02*
X7053515Y-15051031D01*
X7053515Y-15051031D02*
X7034468Y-15079603D01*
X7034468Y-15079603D02*
X7024944Y-15117698D01*
X7024944Y-15117698D02*
X7024944Y-15193888D01*
X7024944Y-15193888D02*
X7034468Y-15212936D01*
X7034468Y-15212936D02*
X7043992Y-15222460D01*
X7043992Y-15222460D02*
X7063039Y-15231984D01*
X7063039Y-15231984D02*
X7101134Y-15231984D01*
X7101134Y-15231984D02*
X7120182Y-15222460D01*
X7120182Y-15222460D02*
X7129706Y-15212936D01*
X7129706Y-15212936D02*
X7139230Y-15193888D01*
X7139230Y-15193888D02*
X7139230Y-15146269D01*
X7139230Y-15146269D02*
X7129706Y-15127222D01*
X7129706Y-15127222D02*
X7120182Y-15117698D01*
X7120182Y-15117698D02*
X7101134Y-15108174D01*
X7101134Y-15108174D02*
X7063039Y-15108174D01*
X7063039Y-15108174D02*
X7043992Y-15117698D01*
X7043992Y-15117698D02*
X7034468Y-15127222D01*
X7034468Y-15127222D02*
X7024944Y-15146269D01*
X7367801Y-15222460D02*
X7386849Y-15231984D01*
X7386849Y-15231984D02*
X7424944Y-15231984D01*
X7424944Y-15231984D02*
X7443992Y-15222460D01*
X7443992Y-15222460D02*
X7453515Y-15203412D01*
X7453515Y-15203412D02*
X7453515Y-15193888D01*
X7453515Y-15193888D02*
X7443992Y-15174841D01*
X7443992Y-15174841D02*
X7424944Y-15165317D01*
X7424944Y-15165317D02*
X7396373Y-15165317D01*
X7396373Y-15165317D02*
X7377325Y-15155793D01*
X7377325Y-15155793D02*
X7367801Y-15136746D01*
X7367801Y-15136746D02*
X7367801Y-15127222D01*
X7367801Y-15127222D02*
X7377325Y-15108174D01*
X7377325Y-15108174D02*
X7396373Y-15098650D01*
X7396373Y-15098650D02*
X7424944Y-15098650D01*
X7424944Y-15098650D02*
X7443992Y-15108174D01*
X7567801Y-15231984D02*
X7548754Y-15222460D01*
X7548754Y-15222460D02*
X7539230Y-15203412D01*
X7539230Y-15203412D02*
X7539230Y-15031984D01*
X7672563Y-15231984D02*
X7653515Y-15222460D01*
X7653515Y-15222460D02*
X7643992Y-15212936D01*
X7643992Y-15212936D02*
X7634468Y-15193888D01*
X7634468Y-15193888D02*
X7634468Y-15136746D01*
X7634468Y-15136746D02*
X7643992Y-15117698D01*
X7643992Y-15117698D02*
X7653515Y-15108174D01*
X7653515Y-15108174D02*
X7672563Y-15098650D01*
X7672563Y-15098650D02*
X7701135Y-15098650D01*
X7701135Y-15098650D02*
X7720182Y-15108174D01*
X7720182Y-15108174D02*
X7729706Y-15117698D01*
X7729706Y-15117698D02*
X7739230Y-15136746D01*
X7739230Y-15136746D02*
X7739230Y-15193888D01*
X7739230Y-15193888D02*
X7729706Y-15212936D01*
X7729706Y-15212936D02*
X7720182Y-15222460D01*
X7720182Y-15222460D02*
X7701135Y-15231984D01*
X7701135Y-15231984D02*
X7672563Y-15231984D01*
X7796373Y-15098650D02*
X7872563Y-15098650D01*
X7824944Y-15031984D02*
X7824944Y-15203412D01*
X7824944Y-15203412D02*
X7834468Y-15222460D01*
X7834468Y-15222460D02*
X7853515Y-15231984D01*
X7853515Y-15231984D02*
X7872563Y-15231984D01*
X7929706Y-15222460D02*
X7948754Y-15231984D01*
X7948754Y-15231984D02*
X7986849Y-15231984D01*
X7986849Y-15231984D02*
X8005896Y-15222460D01*
X8005896Y-15222460D02*
X8015420Y-15203412D01*
X8015420Y-15203412D02*
X8015420Y-15193888D01*
X8015420Y-15193888D02*
X8005896Y-15174841D01*
X8005896Y-15174841D02*
X7986849Y-15165317D01*
X7986849Y-15165317D02*
X7958277Y-15165317D01*
X7958277Y-15165317D02*
X7939230Y-15155793D01*
X7939230Y-15155793D02*
X7929706Y-15136746D01*
X7929706Y-15136746D02*
X7929706Y-15127222D01*
X7929706Y-15127222D02*
X7939230Y-15108174D01*
X7939230Y-15108174D02*
X7958277Y-15098650D01*
X7958277Y-15098650D02*
X7986849Y-15098650D01*
X7986849Y-15098650D02*
X8005896Y-15108174D01*
X8082087Y-15308174D02*
X8091611Y-15298650D01*
X8091611Y-15298650D02*
X8110658Y-15270079D01*
X8110658Y-15270079D02*
X8120182Y-15251031D01*
X8120182Y-15251031D02*
X8129706Y-15222460D01*
X8129706Y-15222460D02*
X8139230Y-15174841D01*
X8139230Y-15174841D02*
X8139230Y-15136746D01*
X8139230Y-15136746D02*
X8129706Y-15089127D01*
X8129706Y-15089127D02*
X8120182Y-15060555D01*
X8120182Y-15060555D02*
X8110658Y-15041508D01*
X8110658Y-15041508D02*
X8091611Y-15012936D01*
X8091611Y-15012936D02*
X8082087Y-15003412D01*
M02*
