G04 #@! TF.GenerationSoftware,KiCad,Pcbnew,9.0.0*
G04 #@! TF.CreationDate,2025-06-12T15:22:14-04:00*
G04 #@! TF.ProjectId,Oblique Palette 0.5.1 PCB Main,4f626c69-7175-4652-9050-616c65747465,rev?*
G04 #@! TF.SameCoordinates,Original*
G04 #@! TF.FileFunction,Copper,L1,Top*
G04 #@! TF.FilePolarity,Positive*
%FSLAX46Y46*%
G04 Gerber Fmt 4.6, Leading zero omitted, Abs format (unit mm)*
G04 Created by KiCad (PCBNEW 9.0.0) date 2025-06-12 15:22:14*
%MOMM*%
%LPD*%
G01*
G04 APERTURE LIST*
G04 Aperture macros list*
%AMRoundRect*
0 Rectangle with rounded corners*
0 $1 Rounding radius*
0 $2 $3 $4 $5 $6 $7 $8 $9 X,Y pos of 4 corners*
0 Add a 4 corners polygon primitive as box body*
4,1,4,$2,$3,$4,$5,$6,$7,$8,$9,$2,$3,0*
0 Add four circle primitives for the rounded corners*
1,1,$1+$1,$2,$3*
1,1,$1+$1,$4,$5*
1,1,$1+$1,$6,$7*
1,1,$1+$1,$8,$9*
0 Add four rect primitives between the rounded corners*
20,1,$1+$1,$2,$3,$4,$5,0*
20,1,$1+$1,$4,$5,$6,$7,0*
20,1,$1+$1,$6,$7,$8,$9,0*
20,1,$1+$1,$8,$9,$2,$3,0*%
G04 Aperture macros list end*
G04 #@! TA.AperFunction,ComponentPad*
%ADD10R,1.700000X1.700000*%
G04 #@! TD*
G04 #@! TA.AperFunction,ComponentPad*
%ADD11O,1.700000X1.700000*%
G04 #@! TD*
G04 #@! TA.AperFunction,ComponentPad*
%ADD12R,1.800000X1.800000*%
G04 #@! TD*
G04 #@! TA.AperFunction,ComponentPad*
%ADD13C,1.800000*%
G04 #@! TD*
G04 #@! TA.AperFunction,ComponentPad*
%ADD14RoundRect,0.750000X-1.250000X-0.750000X1.250000X-0.750000X1.250000X0.750000X-1.250000X0.750000X0*%
G04 #@! TD*
G04 #@! TA.AperFunction,ComponentPad*
%ADD15R,1.930000X1.830000*%
G04 #@! TD*
G04 #@! TA.AperFunction,ComponentPad*
%ADD16C,2.130000*%
G04 #@! TD*
G04 #@! TA.AperFunction,ViaPad*
%ADD17C,0.600000*%
G04 #@! TD*
G04 #@! TA.AperFunction,Conductor*
%ADD18C,0.200000*%
G04 #@! TD*
G04 APERTURE END LIST*
D10*
G04 #@! TO.P,J56,1,Pin_1*
G04 #@! TO.N,Net-(J56-Pin_1)*
X138525000Y-120180000D03*
D11*
G04 #@! TO.P,J56,2,Pin_2*
G04 #@! TO.N,VCC*
X135985000Y-120180000D03*
G04 #@! TO.P,J56,3,Pin_3*
G04 #@! TO.N,GNDREF*
X133445000Y-120180000D03*
G04 #@! TD*
D10*
G04 #@! TO.P,J2,1,Pin_1*
G04 #@! TO.N,SERVO_1*
X37432763Y-114282794D03*
D11*
G04 #@! TO.P,J2,2,Pin_2*
G04 #@! TO.N,VCC*
X34892763Y-114282794D03*
G04 #@! TO.P,J2,3,Pin_3*
G04 #@! TO.N,GNDREF*
X32352763Y-114282794D03*
G04 #@! TD*
D12*
G04 #@! TO.P,RV2,1,1*
G04 #@! TO.N,GNDREF*
X50717000Y-24320000D03*
D13*
G04 #@! TO.P,RV2,2,2*
G04 #@! TO.N,Net-(J19-Pin_1)*
X50717000Y-26820000D03*
G04 #@! TO.P,RV2,3,3*
G04 #@! TO.N,Net-(D10-A)*
X50717000Y-29320000D03*
D14*
G04 #@! TO.P,RV2,MP,MountPin*
G04 #@! TO.N,unconnected-(RV2-MountPin-PadMP)*
X57717000Y-22420000D03*
G04 #@! TO.N,unconnected-(RV2-MountPin-PadMP)_1*
X57717000Y-31220000D03*
G04 #@! TD*
D12*
G04 #@! TO.P,D75,1,K*
G04 #@! TO.N,Net-(D75-K)*
X174500000Y-103350000D03*
D13*
G04 #@! TO.P,D75,2,A*
G04 #@! TO.N,Net-(D75-A)*
X171960000Y-103350000D03*
G04 #@! TD*
D12*
G04 #@! TO.P,D2,1,K*
G04 #@! TO.N,Net-(D2-K)*
X23000000Y-60760000D03*
D13*
G04 #@! TO.P,D2,2,A*
G04 #@! TO.N,Net-(D2-A)*
X20460000Y-60760000D03*
G04 #@! TD*
D12*
G04 #@! TO.P,RV3,1,1*
G04 #@! TO.N,GNDREF*
X78374000Y-24320000D03*
D13*
G04 #@! TO.P,RV3,2,2*
G04 #@! TO.N,Net-(J22-Pin_1)*
X78374000Y-26820000D03*
G04 #@! TO.P,RV3,3,3*
G04 #@! TO.N,Net-(D16-A)*
X78374000Y-29320000D03*
D14*
G04 #@! TO.P,RV3,MP,MountPin*
G04 #@! TO.N,unconnected-(RV3-MountPin-PadMP)_1*
X85374000Y-22420000D03*
G04 #@! TO.N,unconnected-(RV3-MountPin-PadMP)*
X85374000Y-31220000D03*
G04 #@! TD*
D15*
G04 #@! TO.P,J42,S*
G04 #@! TO.N,GNDREF*
X35000000Y-97000000D03*
D16*
G04 #@! TO.P,J42,T*
G04 #@! TO.N,Net-(J40-Pin_1)*
X35000000Y-108400000D03*
G04 #@! TO.P,J42,TN*
G04 #@! TO.N,unconnected-(J42-PadTN)*
X35000000Y-100100000D03*
G04 #@! TD*
D12*
G04 #@! TO.P,D67,1,K*
G04 #@! TO.N,Net-(D67-K)*
X124000000Y-103350000D03*
D13*
G04 #@! TO.P,D67,2,A*
G04 #@! TO.N,Net-(D67-A)*
X121460000Y-103350000D03*
G04 #@! TD*
D10*
G04 #@! TO.P,J16,1,Pin_1*
G04 #@! TO.N,Net-(J16-Pin_1)*
X40580000Y-60410000D03*
D11*
G04 #@! TO.P,J16,2,Pin_2*
G04 #@! TO.N,VCC*
X38040000Y-60410000D03*
G04 #@! TO.P,J16,3,Pin_3*
G04 #@! TO.N,GNDREF*
X35500000Y-60410000D03*
G04 #@! TD*
D12*
G04 #@! TO.P,D58,1,K*
G04 #@! TO.N,Net-(D58-K)*
X73500000Y-106700000D03*
D13*
G04 #@! TO.P,D58,2,A*
G04 #@! TO.N,Net-(D58-A)*
X70960000Y-106700000D03*
G04 #@! TD*
D12*
G04 #@! TO.P,D32,1,K*
G04 #@! TO.N,Net-(D32-K)*
X161285000Y-60670000D03*
D13*
G04 #@! TO.P,D32,2,A*
G04 #@! TO.N,Net-(D32-A)*
X158745000Y-60670000D03*
G04 #@! TD*
D12*
G04 #@! TO.P,D18,1,K*
G04 #@! TO.N,Net-(D18-K)*
X78314000Y-53970000D03*
D13*
G04 #@! TO.P,D18,2,A*
G04 #@! TO.N,Net-(D18-A)*
X75774000Y-53970000D03*
G04 #@! TD*
D12*
G04 #@! TO.P,D78,1,K*
G04 #@! TO.N,Net-(D78-K)*
X199750000Y-106700000D03*
D13*
G04 #@! TO.P,D78,2,A*
G04 #@! TO.N,Net-(D78-A)*
X197210000Y-106700000D03*
G04 #@! TD*
D12*
G04 #@! TO.P,D56,1,K*
G04 #@! TO.N,Net-(D56-K)*
X48250000Y-100000000D03*
D13*
G04 #@! TO.P,D56,2,A*
G04 #@! TO.N,Net-(D56-A)*
X45710000Y-100000000D03*
G04 #@! TD*
D12*
G04 #@! TO.P,RV8,1,1*
G04 #@! TO.N,GNDREF*
X216659000Y-24320000D03*
D13*
G04 #@! TO.P,RV8,2,2*
G04 #@! TO.N,Net-(J37-Pin_1)*
X216659000Y-26820000D03*
G04 #@! TO.P,RV8,3,3*
G04 #@! TO.N,Net-(D46-A)*
X216659000Y-29320000D03*
D14*
G04 #@! TO.P,RV8,MP,MountPin*
G04 #@! TO.N,unconnected-(RV8-MountPin-PadMP)_1*
X223659000Y-22420000D03*
G04 #@! TO.N,unconnected-(RV8-MountPin-PadMP)*
X223659000Y-31220000D03*
G04 #@! TD*
D12*
G04 #@! TO.P,D24,1,K*
G04 #@! TO.N,Net-(D24-K)*
X105971000Y-53970000D03*
D13*
G04 #@! TO.P,D24,2,A*
G04 #@! TO.N,Net-(D24-A)*
X103431000Y-53970000D03*
G04 #@! TD*
D15*
G04 #@! TO.P,J46,S*
G04 #@! TO.N,GNDREF*
X60250000Y-97000000D03*
D16*
G04 #@! TO.P,J46,T*
G04 #@! TO.N,Net-(J44-Pin_1)*
X60250000Y-108400000D03*
G04 #@! TO.P,J46,TN*
G04 #@! TO.N,unconnected-(J46-PadTN)*
X60250000Y-100100000D03*
G04 #@! TD*
D10*
G04 #@! TO.P,J44,1,Pin_1*
G04 #@! TO.N,Net-(J44-Pin_1)*
X62775000Y-120180000D03*
D11*
G04 #@! TO.P,J44,2,Pin_2*
G04 #@! TO.N,VCC*
X60235000Y-120180000D03*
G04 #@! TO.P,J44,3,Pin_3*
G04 #@! TO.N,GNDREF*
X57695000Y-120180000D03*
G04 #@! TD*
D12*
G04 #@! TO.P,D48,1,K*
G04 #@! TO.N,Net-(D48-K)*
X216599000Y-53970000D03*
D13*
G04 #@! TO.P,D48,2,A*
G04 #@! TO.N,Net-(D48-A)*
X214059000Y-53970000D03*
G04 #@! TD*
D12*
G04 #@! TO.P,D36,1,K*
G04 #@! TO.N,Net-(D36-K)*
X161285000Y-53970000D03*
D13*
G04 #@! TO.P,D36,2,A*
G04 #@! TO.N,Net-(D36-A)*
X158745000Y-53970000D03*
G04 #@! TD*
D10*
G04 #@! TO.P,J31,1,Pin_1*
G04 #@! TO.N,Net-(J31-Pin_1)*
X178865000Y-60320000D03*
D11*
G04 #@! TO.P,J31,2,Pin_2*
G04 #@! TO.N,VCC*
X176325000Y-60320000D03*
G04 #@! TO.P,J31,3,Pin_3*
G04 #@! TO.N,GNDREF*
X173785000Y-60320000D03*
G04 #@! TD*
D10*
G04 #@! TO.P,J7,1,Pin_1*
G04 #@! TO.N,SERVO_4*
X113193477Y-113958108D03*
D11*
G04 #@! TO.P,J7,2,Pin_2*
G04 #@! TO.N,VCC*
X110653477Y-113958108D03*
G04 #@! TO.P,J7,3,Pin_3*
G04 #@! TO.N,GNDREF*
X108113477Y-113958108D03*
G04 #@! TD*
D12*
G04 #@! TO.P,RV4,1,1*
G04 #@! TO.N,GNDREF*
X106031000Y-24320000D03*
D13*
G04 #@! TO.P,RV4,2,2*
G04 #@! TO.N,Net-(J25-Pin_1)*
X106031000Y-26820000D03*
G04 #@! TO.P,RV4,3,3*
G04 #@! TO.N,Net-(D22-A)*
X106031000Y-29320000D03*
D14*
G04 #@! TO.P,RV4,MP,MountPin*
G04 #@! TO.N,unconnected-(RV4-MountPin-PadMP)_1*
X113031000Y-22420000D03*
G04 #@! TO.N,unconnected-(RV4-MountPin-PadMP)*
X113031000Y-31220000D03*
G04 #@! TD*
D12*
G04 #@! TO.P,D38,1,K*
G04 #@! TO.N,Net-(D38-K)*
X188942000Y-60670000D03*
D13*
G04 #@! TO.P,D38,2,A*
G04 #@! TO.N,Net-(D38-A)*
X186402000Y-60670000D03*
G04 #@! TD*
D10*
G04 #@! TO.P,J13,1,Pin_1*
G04 #@! TO.N,SERVO_7*
X188954192Y-114445137D03*
D11*
G04 #@! TO.P,J13,2,Pin_2*
G04 #@! TO.N,VCC*
X186414192Y-114445137D03*
G04 #@! TO.P,J13,3,Pin_3*
G04 #@! TO.N,GNDREF*
X183874192Y-114445137D03*
G04 #@! TD*
D12*
G04 #@! TO.P,D76,1,K*
G04 #@! TO.N,Net-(D76-K)*
X174500000Y-100000000D03*
D13*
G04 #@! TO.P,D76,2,A*
G04 #@! TO.N,Net-(D76-A)*
X171960000Y-100000000D03*
G04 #@! TD*
D12*
G04 #@! TO.P,D66,1,K*
G04 #@! TO.N,Net-(D66-K)*
X124000000Y-106700000D03*
D13*
G04 #@! TO.P,D66,2,A*
G04 #@! TO.N,Net-(D66-A)*
X121460000Y-106700000D03*
G04 #@! TD*
D10*
G04 #@! TO.P,J11,1,Pin_1*
G04 #@! TO.N,SERVO_6*
X163700620Y-114039279D03*
D11*
G04 #@! TO.P,J11,2,Pin_2*
G04 #@! TO.N,VCC*
X161160620Y-114039279D03*
G04 #@! TO.P,J11,3,Pin_3*
G04 #@! TO.N,GNDREF*
X158620620Y-114039279D03*
G04 #@! TD*
D12*
G04 #@! TO.P,D64,1,K*
G04 #@! TO.N,Net-(D64-K)*
X98750000Y-100000000D03*
D13*
G04 #@! TO.P,D64,2,A*
G04 #@! TO.N,Net-(D64-A)*
X96210000Y-100000000D03*
G04 #@! TD*
D12*
G04 #@! TO.P,RV5,1,1*
G04 #@! TO.N,GNDREF*
X133688000Y-24320000D03*
D13*
G04 #@! TO.P,RV5,2,2*
G04 #@! TO.N,Net-(J28-Pin_1)*
X133688000Y-26820000D03*
G04 #@! TO.P,RV5,3,3*
G04 #@! TO.N,Net-(D28-A)*
X133688000Y-29320000D03*
D14*
G04 #@! TO.P,RV5,MP,MountPin*
G04 #@! TO.N,unconnected-(RV5-MountPin-PadMP)*
X140688000Y-22420000D03*
G04 #@! TO.N,unconnected-(RV5-MountPin-PadMP)_1*
X140688000Y-31220000D03*
G04 #@! TD*
D12*
G04 #@! TO.P,D8,1,K*
G04 #@! TO.N,Net-(D8-K)*
X50657000Y-60670000D03*
D13*
G04 #@! TO.P,D8,2,A*
G04 #@! TO.N,Net-(D8-A)*
X48117000Y-60670000D03*
G04 #@! TD*
D10*
G04 #@! TO.P,J4,1,Pin_1*
G04 #@! TO.N,SERVO_2*
X62686334Y-114363965D03*
D11*
G04 #@! TO.P,J4,2,Pin_2*
G04 #@! TO.N,VCC*
X60146334Y-114363965D03*
G04 #@! TO.P,J4,3,Pin_3*
G04 #@! TO.N,GNDREF*
X57606334Y-114363965D03*
G04 #@! TD*
D12*
G04 #@! TO.P,D71,1,K*
G04 #@! TO.N,Net-(D71-K)*
X149250000Y-103350000D03*
D13*
G04 #@! TO.P,D71,2,A*
G04 #@! TO.N,Net-(D71-A)*
X146710000Y-103350000D03*
G04 #@! TD*
D10*
G04 #@! TO.P,J25,1,Pin_1*
G04 #@! TO.N,Net-(J25-Pin_1)*
X123551000Y-60320000D03*
D11*
G04 #@! TO.P,J25,2,Pin_2*
G04 #@! TO.N,VCC*
X121011000Y-60320000D03*
G04 #@! TO.P,J25,3,Pin_3*
G04 #@! TO.N,GNDREF*
X118471000Y-60320000D03*
G04 #@! TD*
D10*
G04 #@! TO.P,J14,1,Pin_1*
G04 #@! TO.N,SERVO_8*
X214207763Y-113876936D03*
D11*
G04 #@! TO.P,J14,2,Pin_2*
G04 #@! TO.N,VCC*
X211667763Y-113876936D03*
G04 #@! TO.P,J14,3,Pin_3*
G04 #@! TO.N,GNDREF*
X209127763Y-113876936D03*
G04 #@! TD*
D15*
G04 #@! TO.P,J17,S*
G04 #@! TO.N,GNDREF*
X38000000Y-54190000D03*
D16*
G04 #@! TO.P,J17,T*
G04 #@! TO.N,Net-(D4-A)*
X38000000Y-42790000D03*
G04 #@! TO.P,J17,TN*
G04 #@! TO.N,VCC*
X38000000Y-51090000D03*
G04 #@! TD*
D12*
G04 #@! TO.P,D74,1,K*
G04 #@! TO.N,Net-(D74-K)*
X174500000Y-106700000D03*
D13*
G04 #@! TO.P,D74,2,A*
G04 #@! TO.N,Net-(D74-A)*
X171960000Y-106700000D03*
G04 #@! TD*
D12*
G04 #@! TO.P,D68,1,K*
G04 #@! TO.N,Net-(D68-K)*
X124000000Y-100000000D03*
D13*
G04 #@! TO.P,D68,2,A*
G04 #@! TO.N,Net-(D68-A)*
X121460000Y-100000000D03*
G04 #@! TD*
D15*
G04 #@! TO.P,J20,S*
G04 #@! TO.N,GNDREF*
X65657000Y-54100000D03*
D16*
G04 #@! TO.P,J20,T*
G04 #@! TO.N,Net-(D10-A)*
X65657000Y-42700000D03*
G04 #@! TO.P,J20,TN*
G04 #@! TO.N,VCC*
X65657000Y-51000000D03*
G04 #@! TD*
D10*
G04 #@! TO.P,J40,1,Pin_1*
G04 #@! TO.N,Net-(J40-Pin_1)*
X37525000Y-120180000D03*
D11*
G04 #@! TO.P,J40,2,Pin_2*
G04 #@! TO.N,VCC*
X34985000Y-120180000D03*
G04 #@! TO.P,J40,3,Pin_3*
G04 #@! TO.N,GNDREF*
X32445000Y-120180000D03*
G04 #@! TD*
D10*
G04 #@! TO.P,J9,1,Pin_1*
G04 #@! TO.N,SERVO_5*
X138447049Y-114201622D03*
D11*
G04 #@! TO.P,J9,2,Pin_2*
G04 #@! TO.N,VCC*
X135907049Y-114201622D03*
G04 #@! TO.P,J9,3,Pin_3*
G04 #@! TO.N,GNDREF*
X133367049Y-114201622D03*
G04 #@! TD*
D12*
G04 #@! TO.P,D80,1,K*
G04 #@! TO.N,Net-(D80-K)*
X199750000Y-100000000D03*
D13*
G04 #@! TO.P,D80,2,A*
G04 #@! TO.N,Net-(D80-A)*
X197210000Y-100000000D03*
G04 #@! TD*
D12*
G04 #@! TO.P,D3,1,K*
G04 #@! TO.N,Net-(D3-K)*
X23000000Y-57410000D03*
D13*
G04 #@! TO.P,D3,2,A*
G04 #@! TO.N,Net-(D3-A)*
X20460000Y-57410000D03*
G04 #@! TD*
D12*
G04 #@! TO.P,D62,1,K*
G04 #@! TO.N,Net-(D62-K)*
X98750000Y-106700000D03*
D13*
G04 #@! TO.P,D62,2,A*
G04 #@! TO.N,Net-(D62-A)*
X96210000Y-106700000D03*
G04 #@! TD*
D12*
G04 #@! TO.P,D50,1,K*
G04 #@! TO.N,Net-(D50-K)*
X23000000Y-106700000D03*
D13*
G04 #@! TO.P,D50,2,A*
G04 #@! TO.N,Net-(D50-A)*
X20460000Y-106700000D03*
G04 #@! TD*
D15*
G04 #@! TO.P,J32,S*
G04 #@! TO.N,GNDREF*
X176285000Y-54100000D03*
D16*
G04 #@! TO.P,J32,T*
G04 #@! TO.N,Net-(D34-A)*
X176285000Y-42700000D03*
G04 #@! TO.P,J32,TN*
G04 #@! TO.N,VCC*
X176285000Y-51000000D03*
G04 #@! TD*
D12*
G04 #@! TO.P,D15,1,K*
G04 #@! TO.N,Net-(D15-K)*
X78314000Y-57320000D03*
D13*
G04 #@! TO.P,D15,2,A*
G04 #@! TO.N,Net-(D15-A)*
X75774000Y-57320000D03*
G04 #@! TD*
D10*
G04 #@! TO.P,J22,1,Pin_1*
G04 #@! TO.N,Net-(J22-Pin_1)*
X95894000Y-60320000D03*
D11*
G04 #@! TO.P,J22,2,Pin_2*
G04 #@! TO.N,VCC*
X93354000Y-60320000D03*
G04 #@! TO.P,J22,3,Pin_3*
G04 #@! TO.N,GNDREF*
X90814000Y-60320000D03*
G04 #@! TD*
D15*
G04 #@! TO.P,J66,S*
G04 #@! TO.N,GNDREF*
X186500000Y-97000000D03*
D16*
G04 #@! TO.P,J66,T*
G04 #@! TO.N,Net-(J64-Pin_1)*
X186500000Y-108400000D03*
G04 #@! TO.P,J66,TN*
G04 #@! TO.N,unconnected-(J66-PadTN)*
X186500000Y-100100000D03*
G04 #@! TD*
D10*
G04 #@! TO.P,J28,1,Pin_1*
G04 #@! TO.N,Net-(J28-Pin_1)*
X151208000Y-60320000D03*
D11*
G04 #@! TO.P,J28,2,Pin_2*
G04 #@! TO.N,VCC*
X148668000Y-60320000D03*
G04 #@! TO.P,J28,3,Pin_3*
G04 #@! TO.N,GNDREF*
X146128000Y-60320000D03*
G04 #@! TD*
D12*
G04 #@! TO.P,D14,1,K*
G04 #@! TO.N,Net-(D14-K)*
X78314000Y-60670000D03*
D13*
G04 #@! TO.P,D14,2,A*
G04 #@! TO.N,Net-(D14-A)*
X75774000Y-60670000D03*
G04 #@! TD*
D12*
G04 #@! TO.P,RV6,1,1*
G04 #@! TO.N,GNDREF*
X161345000Y-24320000D03*
D13*
G04 #@! TO.P,RV6,2,2*
G04 #@! TO.N,Net-(J31-Pin_1)*
X161345000Y-26820000D03*
G04 #@! TO.P,RV6,3,3*
G04 #@! TO.N,Net-(D34-A)*
X161345000Y-29320000D03*
D14*
G04 #@! TO.P,RV6,MP,MountPin*
G04 #@! TO.N,unconnected-(RV6-MountPin-PadMP)*
X168345000Y-22420000D03*
G04 #@! TO.N,unconnected-(RV6-MountPin-PadMP)_1*
X168345000Y-31220000D03*
G04 #@! TD*
D12*
G04 #@! TO.P,D59,1,K*
G04 #@! TO.N,Net-(D59-K)*
X73500000Y-103350000D03*
D13*
G04 #@! TO.P,D59,2,A*
G04 #@! TO.N,Net-(D59-A)*
X70960000Y-103350000D03*
G04 #@! TD*
D15*
G04 #@! TO.P,J62,S*
G04 #@! TO.N,GNDREF*
X161250000Y-97000000D03*
D16*
G04 #@! TO.P,J62,T*
G04 #@! TO.N,Net-(J60-Pin_1)*
X161250000Y-108400000D03*
G04 #@! TO.P,J62,TN*
G04 #@! TO.N,unconnected-(J62-PadTN)*
X161250000Y-100100000D03*
G04 #@! TD*
D12*
G04 #@! TO.P,D60,1,K*
G04 #@! TO.N,Net-(D60-K)*
X73500000Y-100000000D03*
D13*
G04 #@! TO.P,D60,2,A*
G04 #@! TO.N,Net-(D60-A)*
X70960000Y-100000000D03*
G04 #@! TD*
D10*
G04 #@! TO.P,J19,1,Pin_1*
G04 #@! TO.N,Net-(J19-Pin_1)*
X68237000Y-60320000D03*
D11*
G04 #@! TO.P,J19,2,Pin_2*
G04 #@! TO.N,VCC*
X65697000Y-60320000D03*
G04 #@! TO.P,J19,3,Pin_3*
G04 #@! TO.N,GNDREF*
X63157000Y-60320000D03*
G04 #@! TD*
D12*
G04 #@! TO.P,D30,1,K*
G04 #@! TO.N,Net-(D30-K)*
X133628000Y-53970000D03*
D13*
G04 #@! TO.P,D30,2,A*
G04 #@! TO.N,Net-(D30-A)*
X131088000Y-53970000D03*
G04 #@! TD*
D12*
G04 #@! TO.P,D63,1,K*
G04 #@! TO.N,Net-(D63-K)*
X98750000Y-103350000D03*
D13*
G04 #@! TO.P,D63,2,A*
G04 #@! TO.N,Net-(D63-A)*
X96210000Y-103350000D03*
G04 #@! TD*
D10*
G04 #@! TO.P,J64,1,Pin_1*
G04 #@! TO.N,Net-(J64-Pin_1)*
X189025000Y-120180000D03*
D11*
G04 #@! TO.P,J64,2,Pin_2*
G04 #@! TO.N,VCC*
X186485000Y-120180000D03*
G04 #@! TO.P,J64,3,Pin_3*
G04 #@! TO.N,GNDREF*
X183945000Y-120180000D03*
G04 #@! TD*
D12*
G04 #@! TO.P,D42,1,K*
G04 #@! TO.N,Net-(D42-K)*
X188942000Y-53970000D03*
D13*
G04 #@! TO.P,D42,2,A*
G04 #@! TO.N,Net-(D42-A)*
X186402000Y-53970000D03*
G04 #@! TD*
D10*
G04 #@! TO.P,J34,1,Pin_1*
G04 #@! TO.N,Net-(J34-Pin_1)*
X206522000Y-60320000D03*
D11*
G04 #@! TO.P,J34,2,Pin_2*
G04 #@! TO.N,VCC*
X203982000Y-60320000D03*
G04 #@! TO.P,J34,3,Pin_3*
G04 #@! TO.N,GNDREF*
X201442000Y-60320000D03*
G04 #@! TD*
D15*
G04 #@! TO.P,J35,S*
G04 #@! TO.N,GNDREF*
X203942000Y-54100000D03*
D16*
G04 #@! TO.P,J35,T*
G04 #@! TO.N,Net-(D40-A)*
X203942000Y-42700000D03*
G04 #@! TO.P,J35,TN*
G04 #@! TO.N,VCC*
X203942000Y-51000000D03*
G04 #@! TD*
D15*
G04 #@! TO.P,J23,S*
G04 #@! TO.N,GNDREF*
X93314000Y-54100000D03*
D16*
G04 #@! TO.P,J23,T*
G04 #@! TO.N,Net-(D16-A)*
X93314000Y-42700000D03*
G04 #@! TO.P,J23,TN*
G04 #@! TO.N,VCC*
X93314000Y-51000000D03*
G04 #@! TD*
D10*
G04 #@! TO.P,J68,1,Pin_1*
G04 #@! TO.N,Net-(J68-Pin_1)*
X214275000Y-120180000D03*
D11*
G04 #@! TO.P,J68,2,Pin_2*
G04 #@! TO.N,VCC*
X211735000Y-120180000D03*
G04 #@! TO.P,J68,3,Pin_3*
G04 #@! TO.N,GNDREF*
X209195000Y-120180000D03*
G04 #@! TD*
D15*
G04 #@! TO.P,J29,S*
G04 #@! TO.N,GNDREF*
X148628000Y-54100000D03*
D16*
G04 #@! TO.P,J29,T*
G04 #@! TO.N,Net-(D28-A)*
X148628000Y-42700000D03*
G04 #@! TO.P,J29,TN*
G04 #@! TO.N,VCC*
X148628000Y-51000000D03*
G04 #@! TD*
D12*
G04 #@! TO.P,D26,1,K*
G04 #@! TO.N,Net-(D26-K)*
X133628000Y-60670000D03*
D13*
G04 #@! TO.P,D26,2,A*
G04 #@! TO.N,Net-(D26-A)*
X131088000Y-60670000D03*
G04 #@! TD*
D15*
G04 #@! TO.P,J58,S*
G04 #@! TO.N,GNDREF*
X136000000Y-97000000D03*
D16*
G04 #@! TO.P,J58,T*
G04 #@! TO.N,Net-(J56-Pin_1)*
X136000000Y-108400000D03*
G04 #@! TO.P,J58,TN*
G04 #@! TO.N,unconnected-(J58-PadTN)*
X136000000Y-100100000D03*
G04 #@! TD*
D12*
G04 #@! TO.P,D20,1,K*
G04 #@! TO.N,Net-(D20-K)*
X105971000Y-60670000D03*
D13*
G04 #@! TO.P,D20,2,A*
G04 #@! TO.N,Net-(D20-A)*
X103431000Y-60670000D03*
G04 #@! TD*
D12*
G04 #@! TO.P,RV1,1,1*
G04 #@! TO.N,GNDREF*
X23060000Y-24410000D03*
D13*
G04 #@! TO.P,RV1,2,2*
G04 #@! TO.N,Net-(J16-Pin_1)*
X23060000Y-26910000D03*
G04 #@! TO.P,RV1,3,3*
G04 #@! TO.N,Net-(D4-A)*
X23060000Y-29410000D03*
D14*
G04 #@! TO.P,RV1,MP,MountPin*
G04 #@! TO.N,unconnected-(RV1-MountPin-PadMP)_1*
X30060000Y-22510000D03*
G04 #@! TO.N,unconnected-(RV1-MountPin-PadMP)*
X30060000Y-31310000D03*
G04 #@! TD*
D15*
G04 #@! TO.P,J70,S*
G04 #@! TO.N,GNDREF*
X211750000Y-97000000D03*
D16*
G04 #@! TO.P,J70,T*
G04 #@! TO.N,Net-(J68-Pin_1)*
X211750000Y-108400000D03*
G04 #@! TO.P,J70,TN*
G04 #@! TO.N,unconnected-(J70-PadTN)*
X211750000Y-100100000D03*
G04 #@! TD*
D12*
G04 #@! TO.P,D21,1,K*
G04 #@! TO.N,Net-(D21-K)*
X105971000Y-57320000D03*
D13*
G04 #@! TO.P,D21,2,A*
G04 #@! TO.N,Net-(D21-A)*
X103431000Y-57320000D03*
G04 #@! TD*
D12*
G04 #@! TO.P,D45,1,K*
G04 #@! TO.N,Net-(D45-K)*
X216599000Y-57320000D03*
D13*
G04 #@! TO.P,D45,2,A*
G04 #@! TO.N,Net-(D45-A)*
X214059000Y-57320000D03*
G04 #@! TD*
D15*
G04 #@! TO.P,J26,S*
G04 #@! TO.N,GNDREF*
X120971000Y-54100000D03*
D16*
G04 #@! TO.P,J26,T*
G04 #@! TO.N,Net-(D22-A)*
X120971000Y-42700000D03*
G04 #@! TO.P,J26,TN*
G04 #@! TO.N,VCC*
X120971000Y-51000000D03*
G04 #@! TD*
D12*
G04 #@! TO.P,D72,1,K*
G04 #@! TO.N,Net-(D72-K)*
X149250000Y-100000000D03*
D13*
G04 #@! TO.P,D72,2,A*
G04 #@! TO.N,Net-(D72-A)*
X146710000Y-100000000D03*
G04 #@! TD*
D12*
G04 #@! TO.P,D44,1,K*
G04 #@! TO.N,Net-(D44-K)*
X216599000Y-60670000D03*
D13*
G04 #@! TO.P,D44,2,A*
G04 #@! TO.N,Net-(D44-A)*
X214059000Y-60670000D03*
G04 #@! TD*
D12*
G04 #@! TO.P,D55,1,K*
G04 #@! TO.N,Net-(D55-K)*
X48250000Y-103350000D03*
D13*
G04 #@! TO.P,D55,2,A*
G04 #@! TO.N,Net-(D55-A)*
X45710000Y-103350000D03*
G04 #@! TD*
D12*
G04 #@! TO.P,D39,1,K*
G04 #@! TO.N,Net-(D39-K)*
X188942000Y-57320000D03*
D13*
G04 #@! TO.P,D39,2,A*
G04 #@! TO.N,Net-(D39-A)*
X186402000Y-57320000D03*
G04 #@! TD*
D15*
G04 #@! TO.P,J38,S*
G04 #@! TO.N,GNDREF*
X231599000Y-54100000D03*
D16*
G04 #@! TO.P,J38,T*
G04 #@! TO.N,Net-(D46-A)*
X231599000Y-42700000D03*
G04 #@! TO.P,J38,TN*
G04 #@! TO.N,VCC*
X231599000Y-51000000D03*
G04 #@! TD*
D10*
G04 #@! TO.P,J37,1,Pin_1*
G04 #@! TO.N,Net-(J37-Pin_1)*
X234179000Y-60320000D03*
D11*
G04 #@! TO.P,J37,2,Pin_2*
G04 #@! TO.N,VCC*
X231639000Y-60320000D03*
G04 #@! TO.P,J37,3,Pin_3*
G04 #@! TO.N,GNDREF*
X229099000Y-60320000D03*
G04 #@! TD*
D12*
G04 #@! TO.P,D27,1,K*
G04 #@! TO.N,Net-(D27-K)*
X133628000Y-57320000D03*
D13*
G04 #@! TO.P,D27,2,A*
G04 #@! TO.N,Net-(D27-A)*
X131088000Y-57320000D03*
G04 #@! TD*
D12*
G04 #@! TO.P,D70,1,K*
G04 #@! TO.N,Net-(D70-K)*
X149250000Y-106700000D03*
D13*
G04 #@! TO.P,D70,2,A*
G04 #@! TO.N,Net-(D70-A)*
X146710000Y-106700000D03*
G04 #@! TD*
D10*
G04 #@! TO.P,J5,1,Pin_1*
G04 #@! TO.N,SERVO_3*
X87939906Y-114120451D03*
D11*
G04 #@! TO.P,J5,2,Pin_2*
G04 #@! TO.N,VCC*
X85399906Y-114120451D03*
G04 #@! TO.P,J5,3,Pin_3*
G04 #@! TO.N,GNDREF*
X82859906Y-114120451D03*
G04 #@! TD*
D15*
G04 #@! TO.P,J54,S*
G04 #@! TO.N,GNDREF*
X110750000Y-97000000D03*
D16*
G04 #@! TO.P,J54,T*
G04 #@! TO.N,Net-(J52-Pin_1)*
X110750000Y-108400000D03*
G04 #@! TO.P,J54,TN*
G04 #@! TO.N,unconnected-(J54-PadTN)*
X110750000Y-100100000D03*
G04 #@! TD*
D12*
G04 #@! TO.P,D54,1,K*
G04 #@! TO.N,Net-(D54-K)*
X48250000Y-106700000D03*
D13*
G04 #@! TO.P,D54,2,A*
G04 #@! TO.N,Net-(D54-A)*
X45710000Y-106700000D03*
G04 #@! TD*
D12*
G04 #@! TO.P,D52,1,K*
G04 #@! TO.N,Net-(D52-K)*
X23000000Y-100000000D03*
D13*
G04 #@! TO.P,D52,2,A*
G04 #@! TO.N,Net-(D52-A)*
X20460000Y-100000000D03*
G04 #@! TD*
D12*
G04 #@! TO.P,D6,1,K*
G04 #@! TO.N,Net-(D6-K)*
X23000000Y-54060000D03*
D13*
G04 #@! TO.P,D6,2,A*
G04 #@! TO.N,Net-(D6-A)*
X20460000Y-54060000D03*
G04 #@! TD*
D12*
G04 #@! TO.P,D12,1,K*
G04 #@! TO.N,Net-(D12-K)*
X50657000Y-53970000D03*
D13*
G04 #@! TO.P,D12,2,A*
G04 #@! TO.N,Net-(D12-A)*
X48117000Y-53970000D03*
G04 #@! TD*
D12*
G04 #@! TO.P,D9,1,K*
G04 #@! TO.N,Net-(D9-K)*
X50657000Y-57320000D03*
D13*
G04 #@! TO.P,D9,2,A*
G04 #@! TO.N,Net-(D9-A)*
X48117000Y-57320000D03*
G04 #@! TD*
D10*
G04 #@! TO.P,J48,1,Pin_1*
G04 #@! TO.N,Net-(J48-Pin_1)*
X88025000Y-120180000D03*
D11*
G04 #@! TO.P,J48,2,Pin_2*
G04 #@! TO.N,VCC*
X85485000Y-120180000D03*
G04 #@! TO.P,J48,3,Pin_3*
G04 #@! TO.N,GNDREF*
X82945000Y-120180000D03*
G04 #@! TD*
D12*
G04 #@! TO.P,D51,1,K*
G04 #@! TO.N,Net-(D51-K)*
X23000000Y-103350000D03*
D13*
G04 #@! TO.P,D51,2,A*
G04 #@! TO.N,Net-(D51-A)*
X20460000Y-103350000D03*
G04 #@! TD*
D12*
G04 #@! TO.P,D79,1,K*
G04 #@! TO.N,Net-(D79-K)*
X199750000Y-103350000D03*
D13*
G04 #@! TO.P,D79,2,A*
G04 #@! TO.N,Net-(D79-A)*
X197210000Y-103350000D03*
G04 #@! TD*
D12*
G04 #@! TO.P,RV7,1,1*
G04 #@! TO.N,GNDREF*
X189002000Y-24320000D03*
D13*
G04 #@! TO.P,RV7,2,2*
G04 #@! TO.N,Net-(J34-Pin_1)*
X189002000Y-26820000D03*
G04 #@! TO.P,RV7,3,3*
G04 #@! TO.N,Net-(D40-A)*
X189002000Y-29320000D03*
D14*
G04 #@! TO.P,RV7,MP,MountPin*
G04 #@! TO.N,unconnected-(RV7-MountPin-PadMP)_1*
X196002000Y-22420000D03*
G04 #@! TO.N,unconnected-(RV7-MountPin-PadMP)*
X196002000Y-31220000D03*
G04 #@! TD*
D12*
G04 #@! TO.P,D33,1,K*
G04 #@! TO.N,Net-(D33-K)*
X161285000Y-57320000D03*
D13*
G04 #@! TO.P,D33,2,A*
G04 #@! TO.N,Net-(D33-A)*
X158745000Y-57320000D03*
G04 #@! TD*
D10*
G04 #@! TO.P,J52,1,Pin_1*
G04 #@! TO.N,Net-(J52-Pin_1)*
X113275000Y-120180000D03*
D11*
G04 #@! TO.P,J52,2,Pin_2*
G04 #@! TO.N,VCC*
X110735000Y-120180000D03*
G04 #@! TO.P,J52,3,Pin_3*
G04 #@! TO.N,GNDREF*
X108195000Y-120180000D03*
G04 #@! TD*
D15*
G04 #@! TO.P,J50,S*
G04 #@! TO.N,GNDREF*
X85500000Y-97000000D03*
D16*
G04 #@! TO.P,J50,T*
G04 #@! TO.N,Net-(J48-Pin_1)*
X85500000Y-108400000D03*
G04 #@! TO.P,J50,TN*
G04 #@! TO.N,unconnected-(J50-PadTN)*
X85500000Y-100100000D03*
G04 #@! TD*
D10*
G04 #@! TO.P,J60,1,Pin_1*
G04 #@! TO.N,Net-(J60-Pin_1)*
X163775000Y-120180000D03*
D11*
G04 #@! TO.P,J60,2,Pin_2*
G04 #@! TO.N,VCC*
X161235000Y-120180000D03*
G04 #@! TO.P,J60,3,Pin_3*
G04 #@! TO.N,GNDREF*
X158695000Y-120180000D03*
G04 #@! TD*
G04 #@! TO.P,U2,1,GPIO0*
G04 #@! TO.N,SDA_0*
X240390000Y-73150000D03*
G04 #@! TO.P,U2,2,GPIO1*
G04 #@! TO.N,SCL_0*
X240390000Y-75690000D03*
D10*
G04 #@! TO.P,U2,3,GND*
G04 #@! TO.N,GNDREF*
X240390000Y-78230000D03*
D11*
G04 #@! TO.P,U2,4,GPIO2*
G04 #@! TO.N,SERVO_1*
X240390000Y-80770000D03*
G04 #@! TO.P,U2,5,GPIO3*
G04 #@! TO.N,SERVO_2*
X240390000Y-83310000D03*
G04 #@! TO.P,U2,6,GPIO4*
G04 #@! TO.N,SERVO_3*
X240390000Y-85850000D03*
G04 #@! TO.P,U2,7,GPIO5*
G04 #@! TO.N,SERVO_4*
X240390000Y-88390000D03*
D10*
G04 #@! TO.P,U2,8,GND*
G04 #@! TO.N,GNDREF*
X240390000Y-90930000D03*
D11*
G04 #@! TO.P,U2,9,GPIO6*
G04 #@! TO.N,SERVO_5*
X240390000Y-93470000D03*
G04 #@! TO.P,U2,10,GPIO7*
G04 #@! TO.N,SERVO_6*
X240390000Y-96010000D03*
G04 #@! TO.P,U2,11,GPIO8*
G04 #@! TO.N,SERVO_7*
X240390000Y-98550000D03*
G04 #@! TO.P,U2,12,GPIO9*
G04 #@! TO.N,SERVO_8*
X240390000Y-101090000D03*
D10*
G04 #@! TO.P,U2,13,GND*
G04 #@! TO.N,GNDREF*
X240390000Y-103630000D03*
D11*
G04 #@! TO.P,U2,14,GPIO10*
G04 #@! TO.N,SDA_1*
X240390000Y-106170000D03*
G04 #@! TO.P,U2,15,GPIO11*
G04 #@! TO.N,SCL_1*
X240390000Y-108710000D03*
G04 #@! TO.P,U2,16,GPIO12*
G04 #@! TO.N,unconnected-(U2-GPIO12-Pad16)_1*
X240390000Y-111250000D03*
G04 #@! TO.P,U2,17,GPIO13*
G04 #@! TO.N,unconnected-(U2-GPIO13-Pad17)*
X240390000Y-113790000D03*
D10*
G04 #@! TO.P,U2,18,GND*
G04 #@! TO.N,GNDREF*
X240390000Y-116330000D03*
D11*
G04 #@! TO.P,U2,19,GPIO14*
G04 #@! TO.N,unconnected-(U2-GPIO14-Pad19)*
X240390000Y-118870000D03*
G04 #@! TO.P,U2,20,GPIO15*
G04 #@! TO.N,unconnected-(U2-GPIO15-Pad20)*
X240390000Y-121410000D03*
G04 #@! TO.P,U2,21,GPIO16*
G04 #@! TO.N,unconnected-(U2-GPIO16-Pad21)*
X222610000Y-121410000D03*
G04 #@! TO.P,U2,22,GPIO17*
G04 #@! TO.N,Net-(U1-C)*
X222610000Y-118870000D03*
D10*
G04 #@! TO.P,U2,23,GND*
G04 #@! TO.N,GNDREF*
X222610000Y-116330000D03*
D11*
G04 #@! TO.P,U2,24,GPIO18*
G04 #@! TO.N,unconnected-(U2-GPIO18-Pad24)*
X222610000Y-113790000D03*
G04 #@! TO.P,U2,25,GPIO19*
G04 #@! TO.N,unconnected-(U2-GPIO19-Pad25)*
X222610000Y-111250000D03*
G04 #@! TO.P,U2,26,GPIO20*
G04 #@! TO.N,Net-(U1-B)*
X222610000Y-108710000D03*
G04 #@! TO.P,U2,27,GPIO21*
G04 #@! TO.N,Net-(U1-A)*
X222610000Y-106170000D03*
D10*
G04 #@! TO.P,U2,28,GND*
G04 #@! TO.N,GNDREF*
X222610000Y-103630000D03*
D11*
G04 #@! TO.P,U2,29,GPIO22*
G04 #@! TO.N,unconnected-(U2-GPIO22-Pad29)*
X222610000Y-101090000D03*
G04 #@! TO.P,U2,30,RUN*
G04 #@! TO.N,unconnected-(U2-RUN-Pad30)*
X222610000Y-98550000D03*
G04 #@! TO.P,U2,31,GPIO26_ADC0*
G04 #@! TO.N,unconnected-(U2-GPIO26_ADC0-Pad31)*
X222610000Y-96010000D03*
G04 #@! TO.P,U2,32,GPIO27_ADC1*
G04 #@! TO.N,unconnected-(U2-GPIO27_ADC1-Pad32)_1*
X222610000Y-93470000D03*
D10*
G04 #@! TO.P,U2,33,AGND*
G04 #@! TO.N,unconnected-(U2-AGND-Pad33)*
X222610000Y-90930000D03*
D11*
G04 #@! TO.P,U2,34,GPIO28_ADC2*
G04 #@! TO.N,Net-(U1-X)*
X222610000Y-88390000D03*
G04 #@! TO.P,U2,35,ADC_VREF*
G04 #@! TO.N,unconnected-(U2-ADC_VREF-Pad35)*
X222610000Y-85850000D03*
G04 #@! TO.P,U2,36,3V3*
G04 #@! TO.N,+3.3V*
X222610000Y-83310000D03*
G04 #@! TO.P,U2,37,3V3_EN*
G04 #@! TO.N,unconnected-(U2-3V3_EN-Pad37)*
X222610000Y-80770000D03*
D10*
G04 #@! TO.P,U2,38,GND*
G04 #@! TO.N,GNDREF*
X222610000Y-78230000D03*
D11*
G04 #@! TO.P,U2,39,VSYS*
G04 #@! TO.N,unconnected-(U2-VSYS-Pad39)*
X222610000Y-75690000D03*
G04 #@! TO.P,U2,40,VBUS*
G04 #@! TO.N,VCC*
X222610000Y-73150000D03*
G04 #@! TD*
D17*
G04 #@! TO.N,Net-(J52-Pin_1)*
X110500000Y-87410000D03*
G04 #@! TO.N,GNDREF*
X30500000Y-60910000D03*
X236096350Y-90910000D03*
X242000000Y-61910000D03*
X58157000Y-60820000D03*
X224099000Y-60820000D03*
G04 #@! TO.N,Net-(J40-Pin_1)*
X34600000Y-87360000D03*
G04 #@! TO.N,Net-(J44-Pin_1)*
X59850000Y-87360000D03*
G04 #@! TO.N,Net-(J48-Pin_1)*
X85100000Y-87360000D03*
G04 #@! TO.N,Net-(J56-Pin_1)*
X135600000Y-87360000D03*
G04 #@! TO.N,Net-(D3-A)*
X22124640Y-40800844D03*
G04 #@! TO.N,Net-(J60-Pin_1)*
X160850000Y-87360000D03*
G04 #@! TO.N,Net-(J64-Pin_1)*
X186100000Y-87360000D03*
G04 #@! TO.N,Net-(J68-Pin_1)*
X211350000Y-87360000D03*
G04 #@! TO.N,Net-(D6-A)*
X24500000Y-36410000D03*
G04 #@! TO.N,Net-(D66-A)*
X127980000Y-87360000D03*
G04 #@! TO.N,Net-(J16-Pin_1)*
X30467155Y-49410000D03*
X26350000Y-39410000D03*
G04 #@! TO.N,+3.3V*
X173000000Y-122545000D03*
X72000000Y-123410000D03*
X221599000Y-44270000D03*
X110971000Y-44270000D03*
X166285000Y-44270000D03*
X138628000Y-44270000D03*
X20500000Y-123910000D03*
X193942000Y-44270000D03*
X55657000Y-44270000D03*
X147750000Y-123410000D03*
X97250000Y-123410000D03*
X46750000Y-123410000D03*
X122500000Y-123410000D03*
X83314000Y-44270000D03*
X198250000Y-122510000D03*
X28000000Y-44360000D03*
G04 #@! TO.N,Net-(U18D--)*
X95337500Y-115410000D03*
X109080000Y-82410000D03*
G04 #@! TO.N,Net-(U18C--)*
X100750000Y-94910000D03*
X100750000Y-91910000D03*
G04 #@! TO.N,Net-(J19-Pin_1)*
X58124155Y-49320000D03*
X54078804Y-39320000D03*
G04 #@! TO.N,Net-(J22-Pin_1)*
X82044000Y-39320000D03*
X85781155Y-49320000D03*
G04 #@! TO.N,Net-(J25-Pin_1)*
X109328172Y-39320000D03*
X113438155Y-49320000D03*
G04 #@! TO.N,Net-(J28-Pin_1)*
X141095155Y-49320000D03*
X137358000Y-39320000D03*
G04 #@! TO.N,Net-(D70-A)*
X153230000Y-87360000D03*
G04 #@! TO.N,Net-(J31-Pin_1)*
X165015000Y-39320000D03*
X168752155Y-49320000D03*
G04 #@! TO.N,Net-(J34-Pin_1)*
X192672000Y-39320000D03*
X196409155Y-49320000D03*
G04 #@! TO.N,Net-(J37-Pin_1)*
X224066155Y-49320000D03*
X220329000Y-39320000D03*
G04 #@! TO.N,Net-(U12B-+)*
X32000000Y-83910000D03*
X29587500Y-90322500D03*
G04 #@! TO.N,Net-(U14B-+)*
X54837500Y-90322500D03*
X57250000Y-83910000D03*
G04 #@! TO.N,Net-(U16B-+)*
X80087500Y-90322500D03*
X82500000Y-83910000D03*
G04 #@! TO.N,Net-(U18B-+)*
X107750000Y-83910000D03*
X105337500Y-90322500D03*
G04 #@! TO.N,Net-(U20B-+)*
X133000000Y-83910000D03*
X130587500Y-90322500D03*
G04 #@! TO.N,Net-(U22B-+)*
X155837500Y-90322500D03*
X158250000Y-83910000D03*
G04 #@! TO.N,Net-(U24B-+)*
X183500000Y-83910000D03*
X181087500Y-90322500D03*
G04 #@! TO.N,Net-(U26B-+)*
X206337500Y-90322500D03*
X208750000Y-83910000D03*
G04 #@! TO.N,Net-(D74-A)*
X178480000Y-87360000D03*
G04 #@! TO.N,Net-(D39-A)*
X188066640Y-40710844D03*
G04 #@! TO.N,Net-(D33-A)*
X160409640Y-40710844D03*
G04 #@! TO.N,Net-(D36-A)*
X162785000Y-36320000D03*
G04 #@! TO.N,Net-(D27-A)*
X132752640Y-40710844D03*
G04 #@! TO.N,Net-(D9-A)*
X49781640Y-40710844D03*
G04 #@! TO.N,Net-(D12-A)*
X52157000Y-36320000D03*
G04 #@! TO.N,Net-(D15-A)*
X77438640Y-40710844D03*
G04 #@! TO.N,Net-(D78-A)*
X203730000Y-87360000D03*
G04 #@! TO.N,Net-(D18-A)*
X79814000Y-36320000D03*
G04 #@! TO.N,Net-(D48-A)*
X218099000Y-36320000D03*
G04 #@! TO.N,Net-(D45-A)*
X215723640Y-40710844D03*
G04 #@! TO.N,Net-(D62-A)*
X102730000Y-87360000D03*
G04 #@! TO.N,Net-(U1-C)*
X218000000Y-119910000D03*
X217500000Y-80910000D03*
X115050000Y-76530000D03*
X214000000Y-73844604D03*
G04 #@! TO.N,Net-(D24-A)*
X107471000Y-36320000D03*
G04 #@! TO.N,Net-(D21-A)*
X105095640Y-40710844D03*
G04 #@! TO.N,Net-(D30-A)*
X135128000Y-36320000D03*
G04 #@! TO.N,Net-(D42-A)*
X190442000Y-36320000D03*
G04 #@! TO.N,Net-(D50-A)*
X26980000Y-87360000D03*
G04 #@! TO.N,Net-(U1-B)*
X217999000Y-83910000D03*
X215375735Y-74134265D03*
X218000000Y-108410000D03*
X115050000Y-75260000D03*
G04 #@! TO.N,Net-(D54-A)*
X52230000Y-87360000D03*
G04 #@! TO.N,Net-(U1-X)*
X225500000Y-76410000D03*
X225500000Y-81410000D03*
G04 #@! TO.N,Net-(D58-A)*
X77480000Y-87360000D03*
G04 #@! TO.N,SERVO_1*
X231627218Y-107967130D03*
X229022794Y-113432794D03*
G04 #@! TO.N,Net-(U16C--)*
X75500000Y-91910000D03*
X75500000Y-94910000D03*
G04 #@! TO.N,Net-(U16D--)*
X70087500Y-115410000D03*
X83830000Y-82410000D03*
G04 #@! TO.N,SERVO_2*
X228162628Y-113444431D03*
X230500000Y-108910000D03*
G04 #@! TO.N,SERVO_3*
X229500000Y-109639000D03*
X227324266Y-113434263D03*
G04 #@! TO.N,SERVO_4*
X226500000Y-113410000D03*
X228500000Y-110239000D03*
G04 #@! TO.N,SERVO_6*
X226450000Y-111439000D03*
X224864198Y-113394332D03*
G04 #@! TO.N,SERVO_7*
X225371000Y-112039000D03*
X224000000Y-113410000D03*
G04 #@! TO.N,SCL_0*
X60500000Y-79410000D03*
X118500000Y-79410000D03*
X89500000Y-79910000D03*
X54162500Y-92410000D03*
X239500000Y-70410000D03*
X61975000Y-93260000D03*
X79412500Y-92410000D03*
X126500000Y-75410000D03*
X87225000Y-93260000D03*
X46053684Y-79509000D03*
X36725000Y-93260000D03*
X112475000Y-93260000D03*
X28912500Y-92410000D03*
X104662500Y-92410000D03*
G04 #@! TO.N,SDA_0*
X111000000Y-93410000D03*
X226500000Y-70910000D03*
X85500000Y-93410000D03*
X108000000Y-78709000D03*
X108000000Y-79910000D03*
X60250000Y-93410000D03*
X35000000Y-93410000D03*
G04 #@! TO.N,Net-(U12C--)*
X25000000Y-94910000D03*
X25000000Y-91910000D03*
G04 #@! TO.N,Net-(U12D--)*
X33330000Y-82410000D03*
X19587500Y-115410000D03*
G04 #@! TO.N,Net-(U14C--)*
X50250000Y-91910000D03*
X50250000Y-94910000D03*
G04 #@! TO.N,Net-(U14D--)*
X44837500Y-115410000D03*
X58580000Y-82410000D03*
G04 #@! TO.N,SDA_1*
X129912500Y-92410000D03*
X237600000Y-106410000D03*
X213475000Y-93260000D03*
X188225000Y-93260000D03*
X218840235Y-104721235D03*
X155162500Y-92410000D03*
X231500000Y-104781000D03*
X137725000Y-93260000D03*
X162975000Y-93260000D03*
X180412500Y-92410000D03*
X205662500Y-92410000D03*
G04 #@! TO.N,SCL_1*
X211750000Y-93410000D03*
X157000000Y-77910000D03*
X232000000Y-83410000D03*
X207500000Y-77910000D03*
X136000000Y-93410000D03*
X132000000Y-77910000D03*
X182500000Y-77910000D03*
X186500000Y-93410000D03*
X161250000Y-93410000D03*
G04 #@! TO.N,Net-(U20C--)*
X126000000Y-91910000D03*
X126000000Y-94910000D03*
G04 #@! TO.N,Net-(U20D--)*
X120587500Y-115410000D03*
X134330000Y-82410000D03*
G04 #@! TO.N,Net-(U22C--)*
X151250000Y-91910000D03*
X151250000Y-94910000D03*
G04 #@! TO.N,Net-(U22D--)*
X145837500Y-115410000D03*
X159580000Y-82410000D03*
G04 #@! TO.N,Net-(U24C--)*
X176500000Y-91910000D03*
X176500000Y-94910000D03*
G04 #@! TO.N,Net-(U24D--)*
X171087500Y-115410000D03*
X184830000Y-82410000D03*
G04 #@! TO.N,Net-(U26C--)*
X201750000Y-91910000D03*
X201750000Y-94910000D03*
G04 #@! TO.N,Net-(U26D--)*
X196337500Y-115410000D03*
X210080000Y-82410000D03*
G04 #@! TO.N,SERVO_5*
X225700006Y-113407052D03*
X227501000Y-110839000D03*
G04 #@! TO.N,VCC*
X231599000Y-27520000D03*
X110000000Y-63910000D03*
X93314000Y-27520000D03*
X57000000Y-63910000D03*
X190500000Y-94210000D03*
X176285000Y-27520000D03*
X112475000Y-92310000D03*
X61975000Y-92310000D03*
X178675000Y-96410000D03*
X65697000Y-62607000D03*
X77675000Y-96410000D03*
X215750000Y-94210000D03*
X203942000Y-27520000D03*
X85000000Y-63910000D03*
X56040000Y-87360000D03*
X157040000Y-87360000D03*
X203925000Y-96410000D03*
X213475000Y-92310000D03*
X148628000Y-27520000D03*
X81290000Y-87360000D03*
X165250000Y-94210000D03*
X64250000Y-94210000D03*
X38000000Y-27610000D03*
X27175000Y-96410000D03*
X140000000Y-94210000D03*
X182290000Y-87360000D03*
X52425000Y-96410000D03*
X128175000Y-96410000D03*
X89500000Y-94210000D03*
X207540000Y-87360000D03*
X102925000Y-96410000D03*
X65657000Y-27520000D03*
X30790000Y-87360000D03*
X114750000Y-94210000D03*
X88500000Y-63910000D03*
X153425000Y-96410000D03*
X113500000Y-63910000D03*
X131790000Y-87360000D03*
X106540000Y-87360000D03*
X39000000Y-94210000D03*
X115050000Y-67640000D03*
X120971000Y-27520000D03*
G04 #@! TD*
D18*
G04 #@! TO.N,SDA_0*
X77300000Y-78909000D02*
X77500000Y-78909000D01*
X77500000Y-85853661D02*
X76429000Y-86924661D01*
X79825057Y-93410000D02*
X85500000Y-93410000D01*
X69358000Y-95052000D02*
X69358000Y-115530443D01*
X76429000Y-86924661D02*
X76429000Y-87981000D01*
X70336443Y-116011000D02*
X76500000Y-109847443D01*
X76429000Y-87981000D02*
X69358000Y-95052000D01*
X69358000Y-115530443D02*
X69838557Y-116011000D01*
X69838557Y-116011000D02*
X70336443Y-116011000D01*
X77500000Y-78909000D02*
X77500000Y-85853661D01*
X76500000Y-109847443D02*
X76500000Y-96735057D01*
X76500000Y-96735057D02*
X79825057Y-93410000D01*
X77300000Y-78909000D02*
X107800000Y-78909000D01*
X107800000Y-78909000D02*
X108000000Y-78709000D01*
G04 #@! TO.N,SCL_0*
X80500000Y-86910000D02*
X80500000Y-87910000D01*
X110000000Y-79310000D02*
X90100000Y-79310000D01*
X90100000Y-79310000D02*
X89500000Y-79910000D01*
X86500000Y-82910000D02*
X84500000Y-82910000D01*
X89500000Y-79910000D02*
X86500000Y-82910000D01*
X84500000Y-82910000D02*
X80500000Y-86910000D01*
X80500000Y-87910000D02*
X85000000Y-92410000D01*
X85000000Y-92410000D02*
X81500000Y-92410000D01*
G04 #@! TO.N,SDA_0*
X47000000Y-79910000D02*
X48001000Y-78909000D01*
X48001000Y-78909000D02*
X48500000Y-78909000D01*
X60250000Y-93410000D02*
X53250000Y-93410000D01*
X53250000Y-93410000D02*
X50905763Y-95754237D01*
X46500000Y-92910000D02*
X46500000Y-79910000D01*
X50905763Y-95754237D02*
X50905763Y-110743885D01*
X50905763Y-110743885D02*
X44989648Y-116660000D01*
X44989648Y-116660000D02*
X44500000Y-116660000D01*
X44500000Y-116660000D02*
X44109000Y-116269000D01*
X44109000Y-116269000D02*
X44109000Y-95301000D01*
X44109000Y-95301000D02*
X46500000Y-92910000D01*
X46500000Y-79910000D02*
X47000000Y-79910000D01*
X48500000Y-78909000D02*
X60151057Y-78909000D01*
X48500000Y-78909000D02*
X47500000Y-78909000D01*
X37433900Y-78909000D02*
X47500000Y-78909000D01*
X60848943Y-78909000D02*
X77300000Y-78909000D01*
X60151057Y-78909000D02*
X60251057Y-78809000D01*
X60251057Y-78809000D02*
X60748943Y-78809000D01*
X60748943Y-78809000D02*
X60848943Y-78909000D01*
G04 #@! TO.N,SCL_0*
X46053684Y-79509000D02*
X44599000Y-79509000D01*
X44599000Y-79509000D02*
X44400000Y-79310000D01*
X44400000Y-79310000D02*
X37600000Y-79310000D01*
X37600000Y-79310000D02*
X30000000Y-86910000D01*
X30000000Y-87910000D02*
X34500000Y-92410000D01*
X34500000Y-92410000D02*
X31000000Y-92410000D01*
X30000000Y-86910000D02*
X30000000Y-87910000D01*
G04 #@! TO.N,SDA_0*
X47500000Y-78909000D02*
X48001000Y-78909000D01*
X35000000Y-93410000D02*
X28000000Y-93410000D01*
X28000000Y-93410000D02*
X25655763Y-95754237D01*
X35500000Y-80410000D02*
X37000000Y-78910000D01*
X25655763Y-110743885D02*
X19739648Y-116660000D01*
X25655763Y-95754237D02*
X25655763Y-110743885D01*
X18500000Y-115910000D02*
X18500000Y-90910000D01*
X19739648Y-116660000D02*
X19250000Y-116660000D01*
X18500000Y-90910000D02*
X29000000Y-80410000D01*
X19250000Y-116660000D02*
X18500000Y-115910000D01*
X29000000Y-80410000D02*
X35500000Y-80410000D01*
X37000000Y-78910000D02*
X37432900Y-78910000D01*
X37432900Y-78910000D02*
X37433900Y-78909000D01*
G04 #@! TO.N,SCL_0*
X126500000Y-75410000D02*
X126049000Y-75861000D01*
X114801057Y-75861000D02*
X114449000Y-75508943D01*
X114449000Y-75011057D02*
X119151057Y-70309000D01*
X171601000Y-69410000D02*
X172500000Y-70309000D01*
X172500000Y-70309000D02*
X239399000Y-70309000D01*
X126049000Y-75861000D02*
X114801057Y-75861000D01*
X114449000Y-75508943D02*
X114449000Y-75011057D01*
X119151057Y-70309000D02*
X167601000Y-70309000D01*
X168500000Y-69410000D02*
X171601000Y-69410000D01*
X167601000Y-70309000D02*
X168500000Y-69410000D01*
X239399000Y-70309000D02*
X239500000Y-70410000D01*
G04 #@! TO.N,SDA_0*
X111000000Y-93410000D02*
X105075057Y-93410000D01*
X105075057Y-93410000D02*
X99951000Y-98534057D01*
X94500000Y-115422443D02*
X95088557Y-116011000D01*
X95586443Y-116011000D02*
X99951000Y-111646443D01*
X99951000Y-98534057D02*
X99951000Y-111646443D01*
X94500000Y-115422443D02*
X94500000Y-95410000D01*
X95586443Y-116011000D02*
X95088557Y-116011000D01*
X94500000Y-95410000D02*
X101679000Y-88231000D01*
X101679000Y-88231000D02*
X101679000Y-86924661D01*
X101679000Y-86924661D02*
X106594661Y-82009000D01*
X106594661Y-82009000D02*
X107901000Y-82009000D01*
X107901000Y-82009000D02*
X108000000Y-81910000D01*
X108000000Y-81910000D02*
X108000000Y-79910000D01*
G04 #@! TO.N,Net-(J52-Pin_1)*
X116000000Y-103150000D02*
X116000000Y-92910000D01*
G04 #@! TO.N,SCL_0*
X110000000Y-82509943D02*
X110000000Y-79310000D01*
G04 #@! TO.N,SDA_0*
X130351058Y-78709000D02*
X134051057Y-75009000D01*
X108000000Y-78709000D02*
X130351058Y-78709000D01*
G04 #@! TO.N,Net-(J52-Pin_1)*
X116000000Y-92910000D02*
X110500000Y-87410000D01*
G04 #@! TO.N,GNDREF*
X173785000Y-60320000D02*
X176285000Y-57820000D01*
X175336000Y-61871000D02*
X199891000Y-61871000D01*
X120022000Y-61871000D02*
X144577000Y-61871000D01*
X203942000Y-57820000D02*
X203942000Y-54100000D01*
X229099000Y-60320000D02*
X230689000Y-61910000D01*
X120971000Y-57820000D02*
X120971000Y-54100000D01*
X63157000Y-60320000D02*
X64708000Y-61871000D01*
X224000000Y-61871000D02*
X224000000Y-60910000D01*
X146128000Y-60320000D02*
X147679000Y-61871000D01*
X58657000Y-60320000D02*
X58157000Y-60820000D01*
X172234000Y-61871000D02*
X173785000Y-60320000D01*
X63157000Y-60320000D02*
X65657000Y-57820000D01*
X201442000Y-60320000D02*
X202993000Y-61871000D01*
X116920000Y-61871000D02*
X118471000Y-60320000D01*
X64708000Y-61871000D02*
X89263000Y-61871000D01*
X118471000Y-60320000D02*
X120022000Y-61871000D01*
X176285000Y-57820000D02*
X176285000Y-54100000D01*
X93314000Y-57820000D02*
X93314000Y-54100000D01*
X173785000Y-60320000D02*
X175336000Y-61871000D01*
X147679000Y-61871000D02*
X172234000Y-61871000D01*
X229099000Y-60320000D02*
X231599000Y-57820000D01*
X31000000Y-60410000D02*
X30500000Y-60910000D01*
X65657000Y-57820000D02*
X65657000Y-54100000D01*
X227548000Y-61871000D02*
X229099000Y-60320000D01*
X90814000Y-60320000D02*
X92365000Y-61871000D01*
X199891000Y-61871000D02*
X201442000Y-60320000D01*
X38000000Y-57910000D02*
X38000000Y-54190000D01*
X92365000Y-61871000D02*
X116920000Y-61871000D01*
X148628000Y-57820000D02*
X148628000Y-54100000D01*
X144577000Y-61871000D02*
X146128000Y-60320000D01*
X35500000Y-60410000D02*
X31000000Y-60410000D01*
X35500000Y-60410000D02*
X38000000Y-57910000D01*
X231599000Y-57820000D02*
X231599000Y-54100000D01*
X89263000Y-61871000D02*
X90814000Y-60320000D01*
X224000000Y-61871000D02*
X227548000Y-61871000D01*
X202993000Y-61871000D02*
X224000000Y-61871000D01*
X201442000Y-60320000D02*
X203942000Y-57820000D01*
X63157000Y-60320000D02*
X58657000Y-60320000D01*
X118471000Y-60320000D02*
X120971000Y-57820000D01*
X90814000Y-60320000D02*
X93314000Y-57820000D01*
X146128000Y-60320000D02*
X148628000Y-57820000D01*
X224009000Y-60910000D02*
X224099000Y-60820000D01*
X236096350Y-90910000D02*
X240370000Y-90910000D01*
X224000000Y-60910000D02*
X224009000Y-60910000D01*
X230689000Y-61910000D02*
X242000000Y-61910000D01*
G04 #@! TO.N,Net-(J40-Pin_1)*
X40201000Y-103199000D02*
X35000000Y-108400000D01*
X39500000Y-112900000D02*
X35000000Y-108400000D01*
X40201000Y-92961000D02*
X40201000Y-103199000D01*
X37525000Y-120180000D02*
X39500000Y-118205000D01*
X34600000Y-87360000D02*
X40201000Y-92961000D01*
X39500000Y-118205000D02*
X39500000Y-112900000D01*
G04 #@! TO.N,Net-(J44-Pin_1)*
X64750000Y-112900000D02*
X60250000Y-108400000D01*
X62775000Y-120180000D02*
X64750000Y-118205000D01*
X59850000Y-87360000D02*
X65451000Y-92961000D01*
X65451000Y-103199000D02*
X60250000Y-108400000D01*
X65451000Y-92961000D02*
X65451000Y-103199000D01*
X64750000Y-118205000D02*
X64750000Y-112900000D01*
G04 #@! TO.N,Net-(J48-Pin_1)*
X88025000Y-120180000D02*
X90000000Y-118205000D01*
X90000000Y-118205000D02*
X90000000Y-112900000D01*
X90000000Y-112900000D02*
X85500000Y-108400000D01*
X90701000Y-92961000D02*
X90701000Y-103199000D01*
X90701000Y-103199000D02*
X85500000Y-108400000D01*
X85100000Y-87360000D02*
X90701000Y-92961000D01*
G04 #@! TO.N,Net-(J52-Pin_1)*
X113275000Y-120180000D02*
X114344477Y-119110523D01*
X110750000Y-108400000D02*
X116000000Y-103150000D01*
X114344477Y-111994477D02*
X110750000Y-108400000D01*
X114344477Y-119110523D02*
X114344477Y-111994477D01*
G04 #@! TO.N,Net-(J56-Pin_1)*
X141201000Y-103199000D02*
X136000000Y-108400000D01*
X141201000Y-92961000D02*
X141201000Y-103199000D01*
X135600000Y-87360000D02*
X141201000Y-92961000D01*
X140500000Y-118205000D02*
X140500000Y-112900000D01*
X138525000Y-120180000D02*
X140500000Y-118205000D01*
X140500000Y-112900000D02*
X136000000Y-108400000D01*
G04 #@! TO.N,Net-(D3-A)*
X19259000Y-56209000D02*
X19259000Y-49151000D01*
X21850000Y-41075484D02*
X22124640Y-40800844D01*
X21850000Y-46560000D02*
X21850000Y-41075484D01*
X20460000Y-57410000D02*
X19259000Y-56209000D01*
X19259000Y-49151000D02*
X21850000Y-46560000D01*
G04 #@! TO.N,Net-(J60-Pin_1)*
X160850000Y-87360000D02*
X166451000Y-92961000D01*
X166451000Y-92961000D02*
X166451000Y-103199000D01*
X166451000Y-103199000D02*
X161250000Y-108400000D01*
X165750000Y-112900000D02*
X161250000Y-108400000D01*
X163775000Y-120180000D02*
X165750000Y-118205000D01*
X165750000Y-118205000D02*
X165750000Y-112900000D01*
G04 #@! TO.N,Net-(J64-Pin_1)*
X189025000Y-120180000D02*
X191000000Y-118205000D01*
X191000000Y-118205000D02*
X191000000Y-112900000D01*
X186100000Y-87360000D02*
X191701000Y-92961000D01*
X191701000Y-103199000D02*
X186500000Y-108400000D01*
X191701000Y-92961000D02*
X191701000Y-103199000D01*
X191000000Y-112900000D02*
X186500000Y-108400000D01*
G04 #@! TO.N,Net-(J68-Pin_1)*
X216250000Y-118205000D02*
X216250000Y-112900000D01*
X216250000Y-112900000D02*
X211750000Y-108400000D01*
X211350000Y-87360000D02*
X216951000Y-92961000D01*
X216951000Y-92961000D02*
X216951000Y-103199000D01*
X214275000Y-120180000D02*
X216250000Y-118205000D01*
X216951000Y-103199000D02*
X211750000Y-108400000D01*
G04 #@! TO.N,Net-(D6-A)*
X20460000Y-54060000D02*
X20460000Y-48950000D01*
X22774640Y-46635360D02*
X22774640Y-40531605D01*
X22774640Y-40531605D02*
X22500000Y-40256965D01*
X22500000Y-38410000D02*
X24500000Y-36410000D01*
X20460000Y-48950000D02*
X22774640Y-46635360D01*
X22500000Y-40256965D02*
X22500000Y-38410000D01*
G04 #@! TO.N,Net-(D66-A)*
X122799000Y-105361000D02*
X122799000Y-93530240D01*
X127980000Y-88349240D02*
X127980000Y-87360000D01*
X121460000Y-106700000D02*
X122799000Y-105361000D01*
X122799000Y-93530240D02*
X127980000Y-88349240D01*
G04 #@! TO.N,Net-(J16-Pin_1)*
X25250000Y-29100000D02*
X25250000Y-44192845D01*
X25250000Y-44192845D02*
X26733578Y-45676422D01*
X26733578Y-45676422D02*
X30467155Y-49410000D01*
X26233578Y-39676422D02*
X26500000Y-39410000D01*
X26233578Y-45176422D02*
X26233578Y-39676422D01*
X23060000Y-26910000D02*
X25250000Y-29100000D01*
X26733578Y-45676422D02*
X26233578Y-45176422D01*
G04 #@! TO.N,+3.3V*
X28000000Y-18410000D02*
X26000000Y-20410000D01*
X110971000Y-38272251D02*
X109000000Y-36301251D01*
X56500000Y-18410000D02*
X55500000Y-18410000D01*
X249399000Y-62011000D02*
X249399000Y-21736066D01*
X26000000Y-36410000D02*
X28000000Y-38410000D01*
X16500000Y-22410000D02*
X16500000Y-121910000D01*
X109000000Y-36301251D02*
X109000000Y-20410000D01*
X55500000Y-18410000D02*
X53500000Y-20410000D01*
X136500000Y-20410000D02*
X138500000Y-18410000D01*
X191616159Y-18793841D02*
X192000000Y-18410000D01*
X56500000Y-18410000D02*
X83500000Y-18410000D01*
X18500000Y-123910000D02*
X20500000Y-123910000D01*
X120500000Y-125410000D02*
X122500000Y-123410000D01*
X192000000Y-18410000D02*
X165000000Y-18410000D01*
X46750000Y-123410000D02*
X48750000Y-125410000D01*
X173000000Y-123410000D02*
X171000000Y-125410000D01*
X26000000Y-20410000D02*
X18500000Y-20410000D01*
X221099000Y-43770000D02*
X221099000Y-38009000D01*
X221099000Y-38009000D02*
X219286665Y-36196665D01*
X138128000Y-38038000D02*
X136500000Y-36410000D01*
X25051000Y-124013290D02*
X23966710Y-122929000D01*
X44750000Y-125410000D02*
X25051000Y-125410000D01*
X243651000Y-18986710D02*
X242566710Y-20071000D01*
X99250000Y-125410000D02*
X120500000Y-125410000D01*
X219286665Y-36196665D02*
X219286665Y-18909999D01*
X56500000Y-18410000D02*
X28000000Y-18410000D01*
X16500000Y-22410000D02*
X18500000Y-20410000D01*
X196000000Y-125410000D02*
X198250000Y-123160000D01*
X111000000Y-18410000D02*
X138500000Y-18410000D01*
X165785000Y-43770000D02*
X166285000Y-44270000D01*
X136500000Y-36410000D02*
X136500000Y-20410000D01*
X81000000Y-20410000D02*
X83000000Y-18410000D01*
X95250000Y-125410000D02*
X97250000Y-123410000D01*
X124500000Y-125410000D02*
X145750000Y-125410000D01*
X82814000Y-43770000D02*
X82814000Y-38027265D01*
X28000000Y-38410000D02*
X28000000Y-44360000D01*
X242566710Y-20071000D02*
X241033290Y-20071000D01*
X138628000Y-44270000D02*
X138128000Y-43770000D01*
X239949000Y-18410000D02*
X220500000Y-18410000D01*
X83500000Y-18410000D02*
X111000000Y-18410000D01*
X222610000Y-83310000D02*
X228100000Y-83310000D01*
X83314000Y-44270000D02*
X82814000Y-43770000D01*
X97250000Y-123410000D02*
X99250000Y-125410000D01*
X173000000Y-122545000D02*
X173000000Y-123410000D01*
X138128000Y-43770000D02*
X138128000Y-38038000D01*
X175000000Y-125410000D02*
X196000000Y-125410000D01*
X48750000Y-125410000D02*
X70000000Y-125410000D01*
X145750000Y-125410000D02*
X147750000Y-123410000D01*
X74000000Y-125410000D02*
X95250000Y-125410000D01*
X165000000Y-18410000D02*
X164500000Y-18410000D01*
X164000000Y-36410000D02*
X165785000Y-38195000D01*
X46750000Y-123410000D02*
X44750000Y-125410000D01*
X83000000Y-18410000D02*
X83500000Y-18410000D01*
X55657000Y-38412855D02*
X55657000Y-44270000D01*
X241033290Y-20071000D02*
X239949000Y-18986710D01*
X191616159Y-36453830D02*
X191616159Y-18793841D01*
X165785000Y-38195000D02*
X165785000Y-43770000D01*
X243651000Y-18410000D02*
X243651000Y-18986710D01*
X21349000Y-123806710D02*
X20603290Y-123806710D01*
X82814000Y-38027265D02*
X81000000Y-36213265D01*
X70000000Y-125410000D02*
X72000000Y-123410000D01*
X81000000Y-36213265D02*
X81000000Y-20410000D01*
X249399000Y-21736066D02*
X249389488Y-21299488D01*
X239949000Y-18986710D02*
X239949000Y-18410000D01*
X149750000Y-125410000D02*
X147750000Y-123410000D01*
X72000000Y-123410000D02*
X74000000Y-125410000D01*
X246500000Y-18410000D02*
X243651000Y-18410000D01*
X109000000Y-20410000D02*
X111000000Y-18410000D01*
X193942000Y-38779671D02*
X191616159Y-36453830D01*
X192000000Y-18410000D02*
X220500000Y-18410000D01*
X22226710Y-122929000D02*
X21349000Y-123806710D01*
X122500000Y-123410000D02*
X124500000Y-125410000D01*
X26000000Y-20410000D02*
X26000000Y-36410000D01*
X198250000Y-123160000D02*
X198250000Y-122510000D01*
X53500000Y-36255855D02*
X55657000Y-38412855D01*
X23966710Y-122929000D02*
X22226710Y-122929000D01*
X171000000Y-125410000D02*
X149750000Y-125410000D01*
X53500000Y-20410000D02*
X53500000Y-36255855D01*
X173000000Y-123410000D02*
X175000000Y-125410000D01*
X219286665Y-18909999D02*
X219786664Y-18410000D01*
X110971000Y-44270000D02*
X110971000Y-38272251D01*
X165000000Y-18410000D02*
X138500000Y-18410000D01*
X228100000Y-83310000D02*
X249399000Y-62011000D01*
X249389488Y-21299488D02*
X246500000Y-18410000D01*
X20603290Y-123806710D02*
X20500000Y-123910000D01*
X219786664Y-18410000D02*
X220500000Y-18410000D01*
X221599000Y-44270000D02*
X221099000Y-43770000D01*
X16500000Y-121910000D02*
X18500000Y-123910000D01*
X193942000Y-44270000D02*
X193942000Y-38779671D01*
X164000000Y-18910000D02*
X164000000Y-36410000D01*
X25051000Y-125410000D02*
X25051000Y-124013290D01*
X164500000Y-18410000D02*
X164000000Y-18910000D01*
G04 #@! TO.N,Net-(U18D--)*
X95009000Y-95504555D02*
X95009000Y-114381500D01*
X102080000Y-88433555D02*
X95009000Y-95504555D01*
X106760761Y-82410000D02*
X102080000Y-87090761D01*
X95337500Y-114710000D02*
X95337500Y-115410000D01*
X102080000Y-87090761D02*
X102080000Y-88433555D01*
X95009000Y-114381500D02*
X95337500Y-114710000D01*
X109080000Y-82410000D02*
X106760761Y-82410000D01*
G04 #@! TO.N,Net-(U18C--)*
X100750000Y-94910000D02*
X100750000Y-91910000D01*
G04 #@! TO.N,Net-(J19-Pin_1)*
X53890578Y-39586422D02*
X54157000Y-39320000D01*
X50717000Y-26820000D02*
X52907000Y-29010000D01*
X52907000Y-29010000D02*
X52907000Y-44102845D01*
X54390578Y-45586422D02*
X53890578Y-45086422D01*
X53890578Y-45086422D02*
X53890578Y-39586422D01*
X54390578Y-45586422D02*
X58124155Y-49320000D01*
X52907000Y-44102845D02*
X54390578Y-45586422D01*
G04 #@! TO.N,Net-(J22-Pin_1)*
X81547578Y-39586422D02*
X81814000Y-39320000D01*
X80564000Y-29010000D02*
X80564000Y-44102845D01*
X78374000Y-26820000D02*
X80564000Y-29010000D01*
X82047578Y-45586422D02*
X81547578Y-45086422D01*
X81547578Y-45086422D02*
X81547578Y-39586422D01*
X80564000Y-44102845D02*
X82047578Y-45586422D01*
X82047578Y-45586422D02*
X85781155Y-49320000D01*
G04 #@! TO.N,Net-(J25-Pin_1)*
X108221000Y-29010000D02*
X108221000Y-44102845D01*
X109204578Y-45086422D02*
X109204578Y-39586422D01*
X108221000Y-44102845D02*
X109704578Y-45586422D01*
X109204578Y-39586422D02*
X109471000Y-39320000D01*
X106031000Y-26820000D02*
X108221000Y-29010000D01*
X109704578Y-45586422D02*
X109204578Y-45086422D01*
X109704578Y-45586422D02*
X113438155Y-49320000D01*
G04 #@! TO.N,Net-(J28-Pin_1)*
X137361578Y-45586422D02*
X141095155Y-49320000D01*
X135878000Y-29010000D02*
X133688000Y-26820000D01*
X135878000Y-44102845D02*
X135878000Y-29010000D01*
X137361578Y-45586422D02*
X136861578Y-45086422D01*
X136861578Y-45086422D02*
X136861578Y-39586422D01*
X137361578Y-45586422D02*
X135878000Y-44102845D01*
X136861578Y-39586422D02*
X137128000Y-39320000D01*
G04 #@! TO.N,Net-(D70-A)*
X146710000Y-106700000D02*
X148049000Y-105361000D01*
X153230000Y-88349240D02*
X153230000Y-87360000D01*
X148049000Y-93530240D02*
X153230000Y-88349240D01*
X148049000Y-105361000D02*
X148049000Y-93530240D01*
G04 #@! TO.N,Net-(J31-Pin_1)*
X165018578Y-45586422D02*
X164518578Y-45086422D01*
X164518578Y-45086422D02*
X164518578Y-39586422D01*
X163535000Y-29010000D02*
X163535000Y-44102845D01*
X161345000Y-26820000D02*
X163535000Y-29010000D01*
X164518578Y-39586422D02*
X164785000Y-39320000D01*
X165018578Y-45586422D02*
X168752155Y-49320000D01*
X163535000Y-44102845D02*
X165018578Y-45586422D01*
G04 #@! TO.N,Net-(J34-Pin_1)*
X192175578Y-45086422D02*
X192175578Y-39586422D01*
X189002000Y-26820000D02*
X191192000Y-29010000D01*
X192675578Y-45586422D02*
X196409155Y-49320000D01*
X191192000Y-29010000D02*
X191192000Y-44102845D01*
X192675578Y-45586422D02*
X192175578Y-45086422D01*
X191192000Y-44102845D02*
X192675578Y-45586422D01*
X192175578Y-39586422D02*
X192442000Y-39320000D01*
G04 #@! TO.N,Net-(J37-Pin_1)*
X219832578Y-39586422D02*
X220099000Y-39320000D01*
X220332578Y-45586422D02*
X219832578Y-45086422D01*
X218849000Y-29010000D02*
X218849000Y-44102845D01*
X219832578Y-45086422D02*
X219832578Y-39586422D01*
X218849000Y-44102845D02*
X220332578Y-45586422D01*
X216659000Y-26820000D02*
X218849000Y-29010000D01*
X220332578Y-45586422D02*
X224066155Y-49320000D01*
G04 #@! TO.N,Net-(U12B-+)*
X29587500Y-86322500D02*
X32000000Y-83910000D01*
X29587500Y-90322500D02*
X29587500Y-86322500D01*
G04 #@! TO.N,Net-(U14B-+)*
X54837500Y-90322500D02*
X54837500Y-86322500D01*
X54837500Y-86322500D02*
X57250000Y-83910000D01*
G04 #@! TO.N,Net-(U16B-+)*
X80087500Y-86322500D02*
X82500000Y-83910000D01*
X80087500Y-90322500D02*
X80087500Y-86322500D01*
G04 #@! TO.N,Net-(U18B-+)*
X105337500Y-86322500D02*
X107750000Y-83910000D01*
X105337500Y-90322500D02*
X105337500Y-86322500D01*
G04 #@! TO.N,Net-(U20B-+)*
X130587500Y-86322500D02*
X133000000Y-83910000D01*
X130587500Y-90322500D02*
X130587500Y-86322500D01*
G04 #@! TO.N,Net-(U22B-+)*
X155837500Y-86322500D02*
X158250000Y-83910000D01*
X155837500Y-90322500D02*
X155837500Y-86322500D01*
G04 #@! TO.N,Net-(U24B-+)*
X181087500Y-86322500D02*
X183500000Y-83910000D01*
X181087500Y-90322500D02*
X181087500Y-86322500D01*
G04 #@! TO.N,Net-(U26B-+)*
X206337500Y-86322500D02*
X208750000Y-83910000D01*
X206337500Y-90322500D02*
X206337500Y-86322500D01*
G04 #@! TO.N,Net-(D74-A)*
X173299000Y-93530240D02*
X178480000Y-88349240D01*
X171960000Y-106700000D02*
X173299000Y-105361000D01*
X178480000Y-88349240D02*
X178480000Y-87360000D01*
X173299000Y-105361000D02*
X173299000Y-93530240D01*
G04 #@! TO.N,Net-(D39-A)*
X185201000Y-56119000D02*
X185201000Y-49061000D01*
X187792000Y-46470000D02*
X187792000Y-40985484D01*
X185201000Y-49061000D02*
X187792000Y-46470000D01*
X186402000Y-57320000D02*
X185201000Y-56119000D01*
X187792000Y-40985484D02*
X188066640Y-40710844D01*
G04 #@! TO.N,Net-(D33-A)*
X160135000Y-46470000D02*
X160135000Y-40985484D01*
X158745000Y-57320000D02*
X157544000Y-56119000D01*
X157544000Y-49061000D02*
X160135000Y-46470000D01*
X160135000Y-40985484D02*
X160409640Y-40710844D01*
X157544000Y-56119000D02*
X157544000Y-49061000D01*
G04 #@! TO.N,Net-(D36-A)*
X158745000Y-53970000D02*
X158745000Y-48860000D01*
X160785000Y-38320000D02*
X162785000Y-36320000D01*
X161059640Y-40441605D02*
X160785000Y-40166965D01*
X161059640Y-46545360D02*
X161059640Y-40441605D01*
X158745000Y-48860000D02*
X161059640Y-46545360D01*
X160785000Y-40166965D02*
X160785000Y-38320000D01*
G04 #@! TO.N,Net-(D27-A)*
X129887000Y-49061000D02*
X132478000Y-46470000D01*
X131088000Y-57320000D02*
X129887000Y-56119000D01*
X132478000Y-46470000D02*
X132478000Y-40985484D01*
X129887000Y-56119000D02*
X129887000Y-49061000D01*
X132478000Y-40985484D02*
X132752640Y-40710844D01*
G04 #@! TO.N,Net-(D9-A)*
X48117000Y-57320000D02*
X46916000Y-56119000D01*
X46916000Y-49061000D02*
X49507000Y-46470000D01*
X46916000Y-56119000D02*
X46916000Y-49061000D01*
X49507000Y-46470000D02*
X49507000Y-40985484D01*
X49507000Y-40985484D02*
X49781640Y-40710844D01*
G04 #@! TO.N,Net-(D12-A)*
X48117000Y-53970000D02*
X48117000Y-48860000D01*
X50157000Y-40166965D02*
X50157000Y-38320000D01*
X50431640Y-40441605D02*
X50157000Y-40166965D01*
X48117000Y-48860000D02*
X50431640Y-46545360D01*
X50157000Y-38320000D02*
X52157000Y-36320000D01*
X50431640Y-46545360D02*
X50431640Y-40441605D01*
G04 #@! TO.N,Net-(D15-A)*
X77164000Y-40985484D02*
X77438640Y-40710844D01*
X75774000Y-57320000D02*
X74573000Y-56119000D01*
X77164000Y-46470000D02*
X77164000Y-40985484D01*
X74573000Y-56119000D02*
X74573000Y-49061000D01*
X74573000Y-49061000D02*
X77164000Y-46470000D01*
G04 #@! TO.N,Net-(D78-A)*
X198549000Y-105361000D02*
X198549000Y-93530240D01*
X197210000Y-106700000D02*
X198549000Y-105361000D01*
X198549000Y-93530240D02*
X203730000Y-88349240D01*
X203730000Y-88349240D02*
X203730000Y-87360000D01*
G04 #@! TO.N,Net-(D18-A)*
X77814000Y-40166965D02*
X77814000Y-38320000D01*
X75774000Y-53970000D02*
X75774000Y-48860000D01*
X75774000Y-48860000D02*
X78088640Y-46545360D01*
X78088640Y-40441605D02*
X77814000Y-40166965D01*
X77814000Y-38320000D02*
X79814000Y-36320000D01*
X78088640Y-46545360D02*
X78088640Y-40441605D01*
G04 #@! TO.N,Net-(D48-A)*
X216373640Y-46545360D02*
X216373640Y-40441605D01*
X216099000Y-40166965D02*
X216099000Y-38320000D01*
X214059000Y-48860000D02*
X216373640Y-46545360D01*
X214059000Y-53970000D02*
X214059000Y-48860000D01*
X216373640Y-40441605D02*
X216099000Y-40166965D01*
X216099000Y-38320000D02*
X218099000Y-36320000D01*
G04 #@! TO.N,Net-(D45-A)*
X212858000Y-49061000D02*
X215449000Y-46470000D01*
X214059000Y-57320000D02*
X212858000Y-56119000D01*
X212858000Y-56119000D02*
X212858000Y-49061000D01*
X215449000Y-40985484D02*
X215723640Y-40710844D01*
X215449000Y-46470000D02*
X215449000Y-40985484D01*
G04 #@! TO.N,Net-(D62-A)*
X97549000Y-105361000D02*
X97549000Y-93530240D01*
X97549000Y-93530240D02*
X102730000Y-88349240D01*
X102730000Y-88349240D02*
X102730000Y-87360000D01*
X96210000Y-106700000D02*
X97549000Y-105361000D01*
G04 #@! TO.N,Net-(U1-C)*
X217398000Y-81012000D02*
X217398000Y-119308000D01*
X211166100Y-74311000D02*
X134099000Y-74311000D01*
X217398000Y-119308000D02*
X218000000Y-119910000D01*
X213934604Y-73910000D02*
X211567100Y-73910000D01*
X211567100Y-73910000D02*
X211166100Y-74311000D01*
X214000000Y-73844604D02*
X213934604Y-73910000D01*
X134099000Y-74311000D02*
X131880000Y-76530000D01*
X131880000Y-76530000D02*
X115050000Y-76530000D01*
X217500000Y-80910000D02*
X217398000Y-81012000D01*
G04 #@! TO.N,Net-(D24-A)*
X105471000Y-38320000D02*
X107471000Y-36320000D01*
X105471000Y-40166965D02*
X105471000Y-38320000D01*
X103431000Y-53970000D02*
X103431000Y-48860000D01*
X105745640Y-46545360D02*
X105745640Y-40441605D01*
X103431000Y-48860000D02*
X105745640Y-46545360D01*
X105745640Y-40441605D02*
X105471000Y-40166965D01*
G04 #@! TO.N,Net-(D21-A)*
X102230000Y-49061000D02*
X104821000Y-46470000D01*
X104821000Y-46470000D02*
X104821000Y-40985484D01*
X102230000Y-56119000D02*
X102230000Y-49061000D01*
X103431000Y-57320000D02*
X102230000Y-56119000D01*
X104821000Y-40985484D02*
X105095640Y-40710844D01*
G04 #@! TO.N,Net-(D30-A)*
X133402640Y-40441605D02*
X133128000Y-40166965D01*
X131088000Y-48860000D02*
X133402640Y-46545360D01*
X133128000Y-38320000D02*
X135128000Y-36320000D01*
X133402640Y-46545360D02*
X133402640Y-40441605D01*
X133128000Y-40166965D02*
X133128000Y-38320000D01*
X131088000Y-53970000D02*
X131088000Y-48860000D01*
G04 #@! TO.N,Net-(D42-A)*
X186402000Y-48860000D02*
X188716640Y-46545360D01*
X188716640Y-46545360D02*
X188716640Y-40441605D01*
X188442000Y-40166965D02*
X188442000Y-38320000D01*
X188716640Y-40441605D02*
X188442000Y-40166965D01*
X188442000Y-38320000D02*
X190442000Y-36320000D01*
X186402000Y-53970000D02*
X186402000Y-48860000D01*
G04 #@! TO.N,Net-(D50-A)*
X20460000Y-106700000D02*
X21799000Y-105361000D01*
X21799000Y-93530240D02*
X26980000Y-88349240D01*
X21799000Y-105361000D02*
X21799000Y-93530240D01*
X26980000Y-88349240D02*
X26980000Y-87360000D01*
G04 #@! TO.N,Net-(U1-B)*
X215375735Y-74134265D02*
X214151470Y-72910000D01*
X214151470Y-72910000D02*
X212000000Y-72910000D01*
X116400000Y-73910000D02*
X211000000Y-73910000D01*
X212000000Y-72910000D02*
X211000000Y-73910000D01*
X115050000Y-75260000D02*
X116400000Y-73910000D01*
X217999000Y-83910000D02*
X218000000Y-83911000D01*
X218000000Y-83911000D02*
X218000000Y-108410000D01*
G04 #@! TO.N,Net-(D54-A)*
X47049000Y-93530240D02*
X52230000Y-88349240D01*
X52230000Y-88349240D02*
X52230000Y-87360000D01*
X47049000Y-105361000D02*
X47049000Y-93530240D01*
X45710000Y-106700000D02*
X47049000Y-105361000D01*
G04 #@! TO.N,Net-(U1-X)*
X225500000Y-76410000D02*
X225500000Y-81410000D01*
G04 #@! TO.N,Net-(D58-A)*
X77480000Y-88349240D02*
X77480000Y-87360000D01*
X72299000Y-93622170D02*
X77480000Y-88441169D01*
X77480000Y-88441169D02*
X77480000Y-87360000D01*
X72299000Y-105361000D02*
X72299000Y-93530240D01*
X72299000Y-105361000D02*
X72299000Y-93622170D01*
X72299000Y-93530240D02*
X77480000Y-88349240D01*
X70960000Y-106700000D02*
X72299000Y-105361000D01*
G04 #@! TO.N,SERVO_1*
X231500000Y-108094348D02*
X231500000Y-110955588D01*
X231500000Y-110955588D02*
X229022794Y-113432794D01*
X231627218Y-107967130D02*
X231500000Y-108094348D01*
G04 #@! TO.N,Net-(U16C--)*
X75500000Y-94910000D02*
X75500000Y-91910000D01*
G04 #@! TO.N,Net-(U16D--)*
X83830000Y-82410000D02*
X81510761Y-82410000D01*
X76830000Y-88433555D02*
X69759000Y-95504555D01*
X69759000Y-95504555D02*
X69759000Y-114381500D01*
X69759000Y-114381500D02*
X70087500Y-114710000D01*
X76830000Y-87090761D02*
X76830000Y-88433555D01*
X81510761Y-82410000D02*
X76830000Y-87090761D01*
X70087500Y-114710000D02*
X70087500Y-115410000D01*
G04 #@! TO.N,SERVO_2*
X228162628Y-113444431D02*
X230500000Y-111107059D01*
X230500000Y-111107059D02*
X230500000Y-108910000D01*
G04 #@! TO.N,SERVO_3*
X229500000Y-111258529D02*
X229500000Y-109639000D01*
X227324266Y-113434263D02*
X229500000Y-111258529D01*
G04 #@! TO.N,SERVO_4*
X226500000Y-113410000D02*
X228500000Y-111410000D01*
X228500000Y-111410000D02*
X228500000Y-110239000D01*
G04 #@! TO.N,SERVO_6*
X226450000Y-111808529D02*
X226450000Y-111439000D01*
X224864198Y-113394332D02*
X225061628Y-113196901D01*
X225061628Y-113196901D02*
X225061628Y-113195488D01*
X225061628Y-113195488D02*
X225063040Y-113195488D01*
X225063040Y-113195488D02*
X226450000Y-111808529D01*
G04 #@! TO.N,SERVO_7*
X225371000Y-112039000D02*
X224000000Y-113410000D01*
G04 #@! TO.N,SCL_0*
X116400000Y-79310000D02*
X116500000Y-79410000D01*
X60500000Y-81910000D02*
X60500000Y-79410000D01*
X57000000Y-92410000D02*
X61125000Y-92410000D01*
X110000000Y-79310000D02*
X116400000Y-79310000D01*
X110500000Y-92410000D02*
X105939000Y-87849000D01*
X116500000Y-79410000D02*
X118500000Y-79410000D01*
X105939000Y-87849000D02*
X105939000Y-86570943D01*
X105939000Y-86570943D02*
X110000000Y-82509943D01*
X55439000Y-90849000D02*
X55439000Y-86971000D01*
X81500000Y-92410000D02*
X86375000Y-92410000D01*
X61125000Y-92410000D02*
X61975000Y-93260000D01*
X110500000Y-92410000D02*
X111625000Y-92410000D01*
X104662500Y-92410000D02*
X110500000Y-92410000D01*
X54162500Y-92410000D02*
X57000000Y-92410000D01*
X55439000Y-86971000D02*
X60500000Y-81910000D01*
X79412500Y-92410000D02*
X81500000Y-92410000D01*
X57000000Y-92410000D02*
X55439000Y-90849000D01*
X28912500Y-92410000D02*
X31000000Y-92410000D01*
X111625000Y-92410000D02*
X112475000Y-93260000D01*
X86375000Y-92410000D02*
X87225000Y-93260000D01*
X35875000Y-92410000D02*
X36725000Y-93260000D01*
X31000000Y-92410000D02*
X35875000Y-92410000D01*
G04 #@! TO.N,SDA_0*
X219123240Y-75009000D02*
X134051057Y-75009000D01*
X223222240Y-70910000D02*
X219123240Y-75009000D01*
X226500000Y-70910000D02*
X223222240Y-70910000D01*
G04 #@! TO.N,Net-(U12C--)*
X25000000Y-94910000D02*
X25000000Y-91910000D01*
G04 #@! TO.N,Net-(U12D--)*
X19259000Y-95504555D02*
X19259000Y-114381500D01*
X33330000Y-82410000D02*
X31010761Y-82410000D01*
X26330000Y-87090761D02*
X26330000Y-88433555D01*
X19259000Y-114381500D02*
X19587500Y-114710000D01*
X31010761Y-82410000D02*
X26330000Y-87090761D01*
X26330000Y-88433555D02*
X19259000Y-95504555D01*
X19587500Y-114710000D02*
X19587500Y-115410000D01*
G04 #@! TO.N,Net-(U14C--)*
X50250000Y-94910000D02*
X50250000Y-91910000D01*
G04 #@! TO.N,Net-(U14D--)*
X51580000Y-87090761D02*
X51580000Y-88433555D01*
X56260761Y-82410000D02*
X51580000Y-87090761D01*
X44509000Y-114381500D02*
X44837500Y-114710000D01*
X44509000Y-95504555D02*
X44509000Y-114381500D01*
X58580000Y-82410000D02*
X56260761Y-82410000D01*
X51580000Y-88433555D02*
X44509000Y-95504555D01*
X44837500Y-114710000D02*
X44837500Y-115410000D01*
G04 #@! TO.N,SDA_1*
X218599000Y-104480000D02*
X218840235Y-104721235D01*
X218840235Y-77750235D02*
X218840235Y-82344905D01*
X181500000Y-86910000D02*
X186500000Y-81910000D01*
X164500000Y-75410000D02*
X165000000Y-75410000D01*
X211500000Y-78410000D02*
X214500000Y-75410000D01*
X138000000Y-75410000D02*
X165000000Y-75410000D01*
X206750000Y-86910000D02*
X211500000Y-82160000D01*
X234500000Y-106410000D02*
X237600000Y-106410000D01*
X211250000Y-92410000D02*
X207750000Y-92410000D01*
X216500000Y-75410000D02*
X218840235Y-77750235D01*
X232871000Y-104781000D02*
X234500000Y-106410000D01*
X188500000Y-75410000D02*
X213500000Y-75410000D01*
X136000000Y-81910000D02*
X136000000Y-77410000D01*
X160750000Y-92410000D02*
X157250000Y-92410000D01*
X182500000Y-92410000D02*
X187375000Y-92410000D01*
X206750000Y-87910000D02*
X211250000Y-92410000D01*
X206750000Y-86910000D02*
X206750000Y-87910000D01*
X136000000Y-77410000D02*
X138000000Y-75410000D01*
X131000000Y-86910000D02*
X136000000Y-81910000D01*
X186500000Y-77410000D02*
X188500000Y-75410000D01*
X186500000Y-81910000D02*
X186500000Y-77410000D01*
X161500000Y-81660000D02*
X161500000Y-78410000D01*
X213500000Y-75410000D02*
X216500000Y-75410000D01*
X181500000Y-87910000D02*
X186000000Y-92410000D01*
X180412500Y-92410000D02*
X182500000Y-92410000D01*
X212625000Y-92410000D02*
X213475000Y-93260000D01*
X218840235Y-82344905D02*
X218599000Y-82586140D01*
X211500000Y-82160000D02*
X211500000Y-78410000D01*
X162125000Y-92410000D02*
X162975000Y-93260000D01*
X187375000Y-92410000D02*
X188225000Y-93260000D01*
X156250000Y-86910000D02*
X156250000Y-87910000D01*
X218599000Y-82586140D02*
X218599000Y-104480000D01*
X165000000Y-75410000D02*
X188500000Y-75410000D01*
X205662500Y-92410000D02*
X207750000Y-92410000D01*
X157250000Y-92410000D02*
X162125000Y-92410000D01*
X156250000Y-87910000D02*
X160750000Y-92410000D01*
X214500000Y-75410000D02*
X213500000Y-75410000D01*
X131000000Y-87910000D02*
X135500000Y-92410000D01*
X161500000Y-78410000D02*
X164500000Y-75410000D01*
X135500000Y-92410000D02*
X132000000Y-92410000D01*
X155162500Y-92410000D02*
X157250000Y-92410000D01*
X131000000Y-86910000D02*
X131000000Y-87910000D01*
X156250000Y-86910000D02*
X161500000Y-81660000D01*
X136875000Y-92410000D02*
X137725000Y-93260000D01*
X186000000Y-92410000D02*
X182500000Y-92410000D01*
X129912500Y-92410000D02*
X132000000Y-92410000D01*
X207750000Y-92410000D02*
X212625000Y-92410000D01*
X181500000Y-86910000D02*
X181500000Y-87910000D01*
X132000000Y-92410000D02*
X136875000Y-92410000D01*
X231500000Y-104781000D02*
X232871000Y-104781000D01*
G04 #@! TO.N,SCL_1*
X177143228Y-88553227D02*
X177143228Y-87210433D01*
X170358000Y-95338455D02*
X177143228Y-88553227D01*
X153096831Y-85813169D02*
X157000000Y-81910000D01*
X171000000Y-116660000D02*
X170358000Y-116018000D01*
X152179000Y-86924661D02*
X153096831Y-86006830D01*
X126929000Y-86924661D02*
X126929000Y-87981000D01*
X119858000Y-95052000D02*
X119858000Y-114547600D01*
X132000000Y-77910000D02*
X132000000Y-81910000D01*
X207500000Y-77910000D02*
X207500000Y-82103661D01*
X171000000Y-116660000D02*
X170750000Y-116660000D01*
X207500000Y-82103661D02*
X202500000Y-87103661D01*
X131844661Y-82009000D02*
X126929000Y-86924661D01*
X153096831Y-86006830D02*
X153096831Y-85813169D01*
X195500000Y-116160000D02*
X196000000Y-116660000D01*
X171239648Y-116660000D02*
X171000000Y-116660000D01*
X232000000Y-99910000D02*
X240390000Y-108300000D01*
X145000000Y-95446455D02*
X152179000Y-88267455D01*
X157000000Y-81910000D02*
X157000000Y-77910000D01*
X119859000Y-114548600D02*
X119859000Y-116269000D01*
X202405763Y-95754237D02*
X202405763Y-110743885D01*
X196489648Y-116660000D02*
X196000000Y-116660000D01*
X145250000Y-116660000D02*
X145000000Y-116410000D01*
X145250000Y-116660000D02*
X145989648Y-116660000D01*
X126655763Y-95754237D02*
X126655763Y-110743885D01*
X179500000Y-93410000D02*
X177155763Y-95754237D01*
X182500000Y-81853661D02*
X182500000Y-77910000D01*
X119859000Y-116269000D02*
X120250000Y-116660000D01*
X195500000Y-95410000D02*
X195500000Y-116160000D01*
X204750000Y-93410000D02*
X202405763Y-95754237D01*
X151905763Y-95754237D02*
X151905763Y-110743885D01*
X126655763Y-110743885D02*
X120739648Y-116660000D01*
X132000000Y-81910000D02*
X131901000Y-82009000D01*
X145000000Y-116410000D02*
X145000000Y-95446455D01*
X131901000Y-82009000D02*
X131844661Y-82009000D01*
X170358000Y-116018000D02*
X170358000Y-95338455D01*
X119858000Y-114547600D02*
X119859000Y-114548600D01*
X136000000Y-93410000D02*
X129000000Y-93410000D01*
X151905763Y-110743885D02*
X145989648Y-116660000D01*
X154250000Y-93410000D02*
X151905763Y-95754237D01*
X177155763Y-95754237D02*
X177155763Y-110743885D01*
X129000000Y-93410000D02*
X126655763Y-95754237D01*
X171239648Y-116660000D02*
X170750000Y-116660000D01*
X126929000Y-87981000D02*
X119858000Y-95052000D01*
X177143228Y-87210433D02*
X182500000Y-81853661D01*
X202500000Y-88410000D02*
X195500000Y-95410000D01*
X211750000Y-93410000D02*
X204750000Y-93410000D01*
X177155763Y-110743885D02*
X171239648Y-116660000D01*
X232000000Y-83410000D02*
X232000000Y-99910000D01*
X202405763Y-110743885D02*
X196489648Y-116660000D01*
X186500000Y-93410000D02*
X179500000Y-93410000D01*
X152179000Y-88267455D02*
X152179000Y-86924661D01*
X202500000Y-87103661D02*
X202500000Y-88410000D01*
X120739648Y-116660000D02*
X120250000Y-116660000D01*
X161250000Y-93410000D02*
X154250000Y-93410000D01*
G04 #@! TO.N,Net-(U20C--)*
X126000000Y-94910000D02*
X126000000Y-91910000D01*
G04 #@! TO.N,Net-(U20D--)*
X120259000Y-114381500D02*
X120587500Y-114710000D01*
X132010761Y-82410000D02*
X127330000Y-87090761D01*
X120259000Y-95504555D02*
X120259000Y-114381500D01*
X127330000Y-88433555D02*
X120259000Y-95504555D01*
X127330000Y-87090761D02*
X127330000Y-88433555D01*
X120587500Y-114710000D02*
X120587500Y-115410000D01*
X134330000Y-82410000D02*
X132010761Y-82410000D01*
G04 #@! TO.N,Net-(U22C--)*
X151250000Y-94910000D02*
X151250000Y-91910000D01*
G04 #@! TO.N,Net-(U22D--)*
X152580000Y-88433555D02*
X145509000Y-95504555D01*
X152580000Y-87090761D02*
X152580000Y-88433555D01*
X145509000Y-95504555D02*
X145509000Y-114381500D01*
X157260761Y-82410000D02*
X152580000Y-87090761D01*
X159580000Y-82410000D02*
X157260761Y-82410000D01*
X145509000Y-114381500D02*
X145837500Y-114710000D01*
X145837500Y-114710000D02*
X145837500Y-115410000D01*
G04 #@! TO.N,Net-(U24C--)*
X176500000Y-94910000D02*
X176500000Y-91910000D01*
G04 #@! TO.N,Net-(U24D--)*
X171087500Y-114710000D02*
X171087500Y-115410000D01*
X182510761Y-82410000D02*
X177830000Y-87090761D01*
X170759000Y-95504555D02*
X170759000Y-114381500D01*
X177830000Y-88433555D02*
X170759000Y-95504555D01*
X177830000Y-87090761D02*
X177830000Y-88433555D01*
X170759000Y-114381500D02*
X171087500Y-114710000D01*
X184830000Y-82410000D02*
X182510761Y-82410000D01*
G04 #@! TO.N,Net-(U26C--)*
X201750000Y-94910000D02*
X201750000Y-91910000D01*
G04 #@! TO.N,Net-(U26D--)*
X196337500Y-114710000D02*
X196337500Y-115410000D01*
X203080000Y-87090761D02*
X203080000Y-88433555D01*
X196009000Y-114381500D02*
X196337500Y-114710000D01*
X207760761Y-82410000D02*
X203080000Y-87090761D01*
X196009000Y-95504555D02*
X196009000Y-114381500D01*
X203080000Y-88433555D02*
X196009000Y-95504555D01*
X210080000Y-82410000D02*
X207760761Y-82410000D01*
G04 #@! TO.N,SERVO_5*
X225700006Y-113407052D02*
X225899000Y-113208058D01*
X225899000Y-113161057D02*
X226251057Y-112809000D01*
X227501000Y-111606058D02*
X227501000Y-110839000D01*
X225899000Y-113208058D02*
X225899000Y-113161057D01*
X226251057Y-112809000D02*
X226298058Y-112809000D01*
X226298058Y-112809000D02*
X227501000Y-111606058D01*
G04 #@! TO.N,VCC*
X62350000Y-92310000D02*
X64250000Y-94210000D01*
X178785000Y-48500000D02*
X178785000Y-30020000D01*
X94580000Y-59094000D02*
X94580000Y-52266000D01*
X223761000Y-79381000D02*
X222371240Y-79381000D01*
X39266000Y-52356000D02*
X38000000Y-51090000D01*
X231639000Y-60320000D02*
X232865000Y-59094000D01*
X112723943Y-93861000D02*
X112049000Y-93861000D01*
X148628000Y-51000000D02*
X151128000Y-48500000D01*
X219000000Y-105410000D02*
X219000000Y-120410000D01*
X89500000Y-94210000D02*
X88700000Y-93410000D01*
X64394000Y-63910000D02*
X65697000Y-62607000D01*
X111000000Y-94410000D02*
X104925000Y-94410000D01*
X113076000Y-93508943D02*
X112723943Y-93861000D01*
X232865000Y-52266000D02*
X231599000Y-51000000D01*
X135985000Y-120180000D02*
X133862500Y-122302500D01*
X122237000Y-59094000D02*
X122237000Y-52266000D01*
X149894000Y-59094000D02*
X149894000Y-52266000D01*
X217500000Y-121910000D02*
X213465000Y-121910000D01*
X178785000Y-30020000D02*
X176285000Y-27520000D01*
X85748943Y-94011000D02*
X85251057Y-94011000D01*
X148668000Y-60320000D02*
X149894000Y-59094000D01*
X205208000Y-59094000D02*
X205208000Y-52266000D01*
X123471000Y-48500000D02*
X123471000Y-30020000D01*
X60851000Y-93410000D02*
X60851000Y-93658943D01*
X85051057Y-93811000D02*
X80274000Y-93811000D01*
X66923000Y-52266000D02*
X65657000Y-51000000D01*
X57000000Y-63910000D02*
X64394000Y-63910000D01*
X86624000Y-93508943D02*
X86624000Y-93410000D01*
X112475000Y-91935000D02*
X112475000Y-92310000D01*
X112000000Y-93910000D02*
X111500000Y-93910000D01*
X107900000Y-87360000D02*
X112475000Y-91935000D01*
X38000000Y-51090000D02*
X40500000Y-48590000D01*
X111500000Y-93910000D02*
X111000000Y-94410000D01*
X57400000Y-87360000D02*
X61975000Y-91935000D01*
X114750000Y-94210000D02*
X113950000Y-93410000D01*
X112049000Y-93861000D02*
X112000000Y-93910000D01*
X87826000Y-93410000D02*
X87826000Y-93508943D01*
X87473943Y-93861000D02*
X86976057Y-93861000D01*
X219000000Y-105410000D02*
X219500000Y-104910000D01*
X60235000Y-120180000D02*
X62465000Y-122410000D01*
X231599000Y-51000000D02*
X234099000Y-48500000D01*
X86976057Y-93861000D02*
X86624000Y-93508943D01*
X37215000Y-122410000D02*
X34985000Y-120180000D01*
X219500000Y-104910000D02*
X219500000Y-104410000D01*
X206442000Y-30020000D02*
X203942000Y-27520000D01*
X213475000Y-91935000D02*
X213475000Y-92310000D01*
X87826000Y-93508943D02*
X87473943Y-93861000D01*
X62576000Y-93410000D02*
X62576000Y-93508943D01*
X205208000Y-52266000D02*
X203942000Y-51000000D01*
X86101000Y-93658943D02*
X85748943Y-94011000D01*
X222610000Y-73150000D02*
X224000000Y-74540000D01*
X61374000Y-93508943D02*
X61374000Y-93410000D01*
X151128000Y-48500000D02*
X151128000Y-30020000D01*
X120971000Y-51000000D02*
X123471000Y-48500000D01*
X206442000Y-48500000D02*
X206442000Y-30020000D01*
X108505000Y-122410000D02*
X110735000Y-120180000D01*
X210005000Y-121910000D02*
X188215000Y-121910000D01*
X60235000Y-120180000D02*
X58005000Y-122410000D01*
X219000000Y-120410000D02*
X217500000Y-121910000D01*
X213475000Y-92310000D02*
X213850000Y-92310000D01*
X232865000Y-59094000D02*
X232865000Y-52266000D01*
X38040000Y-60410000D02*
X39266000Y-59184000D01*
X123471000Y-30020000D02*
X120971000Y-27520000D01*
X208900000Y-87360000D02*
X213475000Y-91935000D01*
X83255000Y-122410000D02*
X85485000Y-120180000D01*
X213850000Y-92310000D02*
X215750000Y-94210000D01*
X85485000Y-120180000D02*
X87715000Y-122410000D01*
X40500000Y-48590000D02*
X40500000Y-30110000D01*
X85251057Y-94011000D02*
X85051057Y-93811000D01*
X163000000Y-121945000D02*
X161235000Y-120180000D01*
X211735000Y-120180000D02*
X210005000Y-121910000D01*
X61975000Y-92310000D02*
X62350000Y-92310000D01*
X219500000Y-104410000D02*
X219000000Y-103910000D01*
X61374000Y-93410000D02*
X60851000Y-93410000D01*
X66923000Y-59094000D02*
X66923000Y-52266000D01*
X86624000Y-93410000D02*
X86101000Y-93410000D01*
X213465000Y-121910000D02*
X211735000Y-120180000D01*
X68157000Y-30020000D02*
X65657000Y-27520000D01*
X113500000Y-63910000D02*
X110000000Y-63910000D01*
X149894000Y-52266000D02*
X148628000Y-51000000D01*
X40500000Y-30110000D02*
X38000000Y-27610000D01*
X203982000Y-60320000D02*
X205208000Y-59094000D01*
X115050000Y-65460000D02*
X115050000Y-67640000D01*
X177551000Y-52266000D02*
X176285000Y-51000000D01*
X60851000Y-93658943D02*
X60498943Y-94011000D01*
X88700000Y-93410000D02*
X87826000Y-93410000D01*
X133862500Y-122302500D02*
X112857500Y-122302500D01*
X61975000Y-91935000D02*
X61975000Y-92310000D01*
X62465000Y-122410000D02*
X83255000Y-122410000D01*
X122237000Y-52266000D02*
X120971000Y-51000000D01*
X131790000Y-87360000D02*
X133150000Y-87360000D01*
X63450000Y-93410000D02*
X62576000Y-93410000D01*
X113950000Y-93410000D02*
X113076000Y-93410000D01*
X224000000Y-74540000D02*
X224000000Y-79142000D01*
X138215000Y-122410000D02*
X159005000Y-122410000D01*
X222371240Y-79381000D02*
X219000000Y-82752240D01*
X61726057Y-93861000D02*
X61374000Y-93508943D01*
X58005000Y-122410000D02*
X37215000Y-122410000D01*
X224000000Y-79142000D02*
X223761000Y-79381000D01*
X82650000Y-87360000D02*
X89500000Y-94210000D01*
X113076000Y-93410000D02*
X113076000Y-93508943D01*
X208900000Y-87360000D02*
X215750000Y-94210000D01*
X65657000Y-51000000D02*
X68157000Y-48500000D01*
X56040000Y-87360000D02*
X57400000Y-87360000D01*
X80274000Y-93811000D02*
X77675000Y-96410000D01*
X177551000Y-59094000D02*
X177551000Y-52266000D01*
X176325000Y-60320000D02*
X177551000Y-59094000D01*
X206125000Y-94210000D02*
X203925000Y-96410000D01*
X27175000Y-112370000D02*
X34985000Y-120180000D01*
X106540000Y-87360000D02*
X107900000Y-87360000D01*
X57400000Y-87360000D02*
X64250000Y-94210000D01*
X165250000Y-94210000D02*
X155625000Y-94210000D01*
X178675000Y-96410000D02*
X178675000Y-112370000D01*
X159005000Y-122410000D02*
X161235000Y-120180000D01*
X151128000Y-30020000D02*
X148628000Y-27520000D01*
X39266000Y-59184000D02*
X39266000Y-52356000D01*
X30790000Y-87360000D02*
X32150000Y-87360000D01*
X140000000Y-94210000D02*
X130375000Y-94210000D01*
X180875000Y-94210000D02*
X178675000Y-96410000D01*
X95814000Y-30020000D02*
X93314000Y-27520000D01*
X59801057Y-93811000D02*
X55024000Y-93811000D01*
X215750000Y-94210000D02*
X206125000Y-94210000D01*
X95814000Y-48500000D02*
X95814000Y-30020000D01*
X190500000Y-94210000D02*
X180875000Y-94210000D01*
X27175000Y-96410000D02*
X27175000Y-112370000D01*
X62223943Y-93861000D02*
X61726057Y-93861000D01*
X130375000Y-94210000D02*
X128175000Y-96410000D01*
X207540000Y-87360000D02*
X208900000Y-87360000D01*
X87715000Y-122410000D02*
X108505000Y-122410000D01*
X115050000Y-65460000D02*
X113500000Y-63910000D01*
X186485000Y-120180000D02*
X184720000Y-121945000D01*
X203925000Y-96410000D02*
X203925000Y-112370000D01*
X77675000Y-112370000D02*
X85485000Y-120180000D01*
X158400000Y-87360000D02*
X165250000Y-94210000D01*
X29375000Y-94210000D02*
X27175000Y-96410000D01*
X112857500Y-122302500D02*
X110735000Y-120180000D01*
X94580000Y-52266000D02*
X93314000Y-51000000D01*
X104925000Y-94410000D02*
X102925000Y-96410000D01*
X85000000Y-63910000D02*
X88500000Y-63910000D01*
X55024000Y-93811000D02*
X52425000Y-96410000D01*
X188215000Y-121910000D02*
X186485000Y-120180000D01*
X86101000Y-93410000D02*
X86101000Y-93658943D01*
X32150000Y-87360000D02*
X39000000Y-94210000D01*
X107900000Y-87360000D02*
X114750000Y-94210000D01*
X102925000Y-96410000D02*
X102925000Y-112370000D01*
X128175000Y-96410000D02*
X128175000Y-112370000D01*
X203942000Y-51000000D02*
X206442000Y-48500000D01*
X68157000Y-48500000D02*
X68157000Y-30020000D01*
X52425000Y-112370000D02*
X60235000Y-120180000D01*
X102925000Y-112370000D02*
X110735000Y-120180000D01*
X64250000Y-94210000D02*
X63450000Y-93410000D01*
X52425000Y-96410000D02*
X52425000Y-112370000D01*
X135985000Y-120180000D02*
X138215000Y-122410000D01*
X234099000Y-48500000D02*
X234099000Y-30020000D01*
X234099000Y-30020000D02*
X231599000Y-27520000D01*
X176285000Y-51000000D02*
X178785000Y-48500000D01*
X60498943Y-94011000D02*
X60001057Y-94011000D01*
X153425000Y-112370000D02*
X161235000Y-120180000D01*
X178675000Y-112370000D02*
X186485000Y-120180000D01*
X219000000Y-82752240D02*
X219000000Y-103910000D01*
X62576000Y-93508943D02*
X62223943Y-93861000D01*
X39000000Y-94210000D02*
X29375000Y-94210000D01*
X93354000Y-60320000D02*
X94580000Y-59094000D01*
X183650000Y-87360000D02*
X190500000Y-94210000D01*
X65697000Y-60320000D02*
X66923000Y-59094000D01*
X93314000Y-51000000D02*
X95814000Y-48500000D01*
X155625000Y-94210000D02*
X153425000Y-96410000D01*
X157040000Y-87360000D02*
X158400000Y-87360000D01*
X184720000Y-121945000D02*
X163000000Y-121945000D01*
X203925000Y-112370000D02*
X211735000Y-120180000D01*
X133150000Y-87360000D02*
X140000000Y-94210000D01*
X77675000Y-96410000D02*
X77675000Y-112370000D01*
X128175000Y-112370000D02*
X135985000Y-120180000D01*
X182290000Y-87360000D02*
X183650000Y-87360000D01*
X60001057Y-94011000D02*
X59801057Y-93811000D01*
X121011000Y-60320000D02*
X122237000Y-59094000D01*
X153425000Y-96410000D02*
X153425000Y-112370000D01*
X81290000Y-87360000D02*
X82650000Y-87360000D01*
G04 #@! TD*
M02*
