G04 #@! TF.GenerationSoftware,KiCad,Pcbnew,9.0.0*
G04 #@! TF.CreationDate,2025-06-12T15:22:14-04:00*
G04 #@! TF.ProjectId,Oblique Palette 0.5.1 PCB Main,4f626c69-7175-4652-9050-616c65747465,rev?*
G04 #@! TF.SameCoordinates,Original*
G04 #@! TF.FileFunction,Other,Comment*
%FSLAX46Y46*%
G04 Gerber Fmt 4.6, Leading zero omitted, Abs format (unit mm)*
G04 Created by KiCad (PCBNEW 9.0.0) date 2025-06-12 15:22:14*
%MOMM*%
%LPD*%
G01*
G04 APERTURE LIST*
%ADD10C,0.051000*%
G04 APERTURE END LIST*
D10*
X33761904Y-103662395D02*
X33761904Y-103262395D01*
X33990475Y-103662395D02*
X33819046Y-103433824D01*
X33990475Y-103262395D02*
X33761904Y-103490967D01*
X34161904Y-103452871D02*
X34295237Y-103452871D01*
X34352380Y-103662395D02*
X34161904Y-103662395D01*
X34161904Y-103662395D02*
X34161904Y-103262395D01*
X34161904Y-103262395D02*
X34352380Y-103262395D01*
X34523809Y-103452871D02*
X34657142Y-103452871D01*
X34714285Y-103662395D02*
X34523809Y-103662395D01*
X34523809Y-103662395D02*
X34523809Y-103262395D01*
X34523809Y-103262395D02*
X34714285Y-103262395D01*
X34885714Y-103662395D02*
X34885714Y-103262395D01*
X34885714Y-103262395D02*
X35038095Y-103262395D01*
X35038095Y-103262395D02*
X35076190Y-103281443D01*
X35076190Y-103281443D02*
X35095237Y-103300490D01*
X35095237Y-103300490D02*
X35114285Y-103338586D01*
X35114285Y-103338586D02*
X35114285Y-103395728D01*
X35114285Y-103395728D02*
X35095237Y-103433824D01*
X35095237Y-103433824D02*
X35076190Y-103452871D01*
X35076190Y-103452871D02*
X35038095Y-103471919D01*
X35038095Y-103471919D02*
X34885714Y-103471919D01*
X35361904Y-103262395D02*
X35438095Y-103262395D01*
X35438095Y-103262395D02*
X35476190Y-103281443D01*
X35476190Y-103281443D02*
X35514285Y-103319538D01*
X35514285Y-103319538D02*
X35533333Y-103395728D01*
X35533333Y-103395728D02*
X35533333Y-103529062D01*
X35533333Y-103529062D02*
X35514285Y-103605252D01*
X35514285Y-103605252D02*
X35476190Y-103643348D01*
X35476190Y-103643348D02*
X35438095Y-103662395D01*
X35438095Y-103662395D02*
X35361904Y-103662395D01*
X35361904Y-103662395D02*
X35323809Y-103643348D01*
X35323809Y-103643348D02*
X35285714Y-103605252D01*
X35285714Y-103605252D02*
X35266666Y-103529062D01*
X35266666Y-103529062D02*
X35266666Y-103395728D01*
X35266666Y-103395728D02*
X35285714Y-103319538D01*
X35285714Y-103319538D02*
X35323809Y-103281443D01*
X35323809Y-103281443D02*
X35361904Y-103262395D01*
X35704762Y-103262395D02*
X35704762Y-103586205D01*
X35704762Y-103586205D02*
X35723809Y-103624300D01*
X35723809Y-103624300D02*
X35742857Y-103643348D01*
X35742857Y-103643348D02*
X35780952Y-103662395D01*
X35780952Y-103662395D02*
X35857143Y-103662395D01*
X35857143Y-103662395D02*
X35895238Y-103643348D01*
X35895238Y-103643348D02*
X35914285Y-103624300D01*
X35914285Y-103624300D02*
X35933333Y-103586205D01*
X35933333Y-103586205D02*
X35933333Y-103262395D01*
X36066667Y-103262395D02*
X36295238Y-103262395D01*
X36180952Y-103662395D02*
X36180952Y-103262395D01*
X59011904Y-103662395D02*
X59011904Y-103262395D01*
X59240475Y-103662395D02*
X59069046Y-103433824D01*
X59240475Y-103262395D02*
X59011904Y-103490967D01*
X59411904Y-103452871D02*
X59545237Y-103452871D01*
X59602380Y-103662395D02*
X59411904Y-103662395D01*
X59411904Y-103662395D02*
X59411904Y-103262395D01*
X59411904Y-103262395D02*
X59602380Y-103262395D01*
X59773809Y-103452871D02*
X59907142Y-103452871D01*
X59964285Y-103662395D02*
X59773809Y-103662395D01*
X59773809Y-103662395D02*
X59773809Y-103262395D01*
X59773809Y-103262395D02*
X59964285Y-103262395D01*
X60135714Y-103662395D02*
X60135714Y-103262395D01*
X60135714Y-103262395D02*
X60288095Y-103262395D01*
X60288095Y-103262395D02*
X60326190Y-103281443D01*
X60326190Y-103281443D02*
X60345237Y-103300490D01*
X60345237Y-103300490D02*
X60364285Y-103338586D01*
X60364285Y-103338586D02*
X60364285Y-103395728D01*
X60364285Y-103395728D02*
X60345237Y-103433824D01*
X60345237Y-103433824D02*
X60326190Y-103452871D01*
X60326190Y-103452871D02*
X60288095Y-103471919D01*
X60288095Y-103471919D02*
X60135714Y-103471919D01*
X60611904Y-103262395D02*
X60688095Y-103262395D01*
X60688095Y-103262395D02*
X60726190Y-103281443D01*
X60726190Y-103281443D02*
X60764285Y-103319538D01*
X60764285Y-103319538D02*
X60783333Y-103395728D01*
X60783333Y-103395728D02*
X60783333Y-103529062D01*
X60783333Y-103529062D02*
X60764285Y-103605252D01*
X60764285Y-103605252D02*
X60726190Y-103643348D01*
X60726190Y-103643348D02*
X60688095Y-103662395D01*
X60688095Y-103662395D02*
X60611904Y-103662395D01*
X60611904Y-103662395D02*
X60573809Y-103643348D01*
X60573809Y-103643348D02*
X60535714Y-103605252D01*
X60535714Y-103605252D02*
X60516666Y-103529062D01*
X60516666Y-103529062D02*
X60516666Y-103395728D01*
X60516666Y-103395728D02*
X60535714Y-103319538D01*
X60535714Y-103319538D02*
X60573809Y-103281443D01*
X60573809Y-103281443D02*
X60611904Y-103262395D01*
X60954762Y-103262395D02*
X60954762Y-103586205D01*
X60954762Y-103586205D02*
X60973809Y-103624300D01*
X60973809Y-103624300D02*
X60992857Y-103643348D01*
X60992857Y-103643348D02*
X61030952Y-103662395D01*
X61030952Y-103662395D02*
X61107143Y-103662395D01*
X61107143Y-103662395D02*
X61145238Y-103643348D01*
X61145238Y-103643348D02*
X61164285Y-103624300D01*
X61164285Y-103624300D02*
X61183333Y-103586205D01*
X61183333Y-103586205D02*
X61183333Y-103262395D01*
X61316667Y-103262395D02*
X61545238Y-103262395D01*
X61430952Y-103662395D02*
X61430952Y-103262395D01*
X36761904Y-47892395D02*
X36761904Y-47492395D01*
X36990475Y-47892395D02*
X36819046Y-47663824D01*
X36990475Y-47492395D02*
X36761904Y-47720967D01*
X37161904Y-47682871D02*
X37295237Y-47682871D01*
X37352380Y-47892395D02*
X37161904Y-47892395D01*
X37161904Y-47892395D02*
X37161904Y-47492395D01*
X37161904Y-47492395D02*
X37352380Y-47492395D01*
X37523809Y-47682871D02*
X37657142Y-47682871D01*
X37714285Y-47892395D02*
X37523809Y-47892395D01*
X37523809Y-47892395D02*
X37523809Y-47492395D01*
X37523809Y-47492395D02*
X37714285Y-47492395D01*
X37885714Y-47892395D02*
X37885714Y-47492395D01*
X37885714Y-47492395D02*
X38038095Y-47492395D01*
X38038095Y-47492395D02*
X38076190Y-47511443D01*
X38076190Y-47511443D02*
X38095237Y-47530490D01*
X38095237Y-47530490D02*
X38114285Y-47568586D01*
X38114285Y-47568586D02*
X38114285Y-47625728D01*
X38114285Y-47625728D02*
X38095237Y-47663824D01*
X38095237Y-47663824D02*
X38076190Y-47682871D01*
X38076190Y-47682871D02*
X38038095Y-47701919D01*
X38038095Y-47701919D02*
X37885714Y-47701919D01*
X38361904Y-47492395D02*
X38438095Y-47492395D01*
X38438095Y-47492395D02*
X38476190Y-47511443D01*
X38476190Y-47511443D02*
X38514285Y-47549538D01*
X38514285Y-47549538D02*
X38533333Y-47625728D01*
X38533333Y-47625728D02*
X38533333Y-47759062D01*
X38533333Y-47759062D02*
X38514285Y-47835252D01*
X38514285Y-47835252D02*
X38476190Y-47873348D01*
X38476190Y-47873348D02*
X38438095Y-47892395D01*
X38438095Y-47892395D02*
X38361904Y-47892395D01*
X38361904Y-47892395D02*
X38323809Y-47873348D01*
X38323809Y-47873348D02*
X38285714Y-47835252D01*
X38285714Y-47835252D02*
X38266666Y-47759062D01*
X38266666Y-47759062D02*
X38266666Y-47625728D01*
X38266666Y-47625728D02*
X38285714Y-47549538D01*
X38285714Y-47549538D02*
X38323809Y-47511443D01*
X38323809Y-47511443D02*
X38361904Y-47492395D01*
X38704762Y-47492395D02*
X38704762Y-47816205D01*
X38704762Y-47816205D02*
X38723809Y-47854300D01*
X38723809Y-47854300D02*
X38742857Y-47873348D01*
X38742857Y-47873348D02*
X38780952Y-47892395D01*
X38780952Y-47892395D02*
X38857143Y-47892395D01*
X38857143Y-47892395D02*
X38895238Y-47873348D01*
X38895238Y-47873348D02*
X38914285Y-47854300D01*
X38914285Y-47854300D02*
X38933333Y-47816205D01*
X38933333Y-47816205D02*
X38933333Y-47492395D01*
X39066667Y-47492395D02*
X39295238Y-47492395D01*
X39180952Y-47892395D02*
X39180952Y-47492395D01*
X64418904Y-47802395D02*
X64418904Y-47402395D01*
X64647475Y-47802395D02*
X64476046Y-47573824D01*
X64647475Y-47402395D02*
X64418904Y-47630967D01*
X64818904Y-47592871D02*
X64952237Y-47592871D01*
X65009380Y-47802395D02*
X64818904Y-47802395D01*
X64818904Y-47802395D02*
X64818904Y-47402395D01*
X64818904Y-47402395D02*
X65009380Y-47402395D01*
X65180809Y-47592871D02*
X65314142Y-47592871D01*
X65371285Y-47802395D02*
X65180809Y-47802395D01*
X65180809Y-47802395D02*
X65180809Y-47402395D01*
X65180809Y-47402395D02*
X65371285Y-47402395D01*
X65542714Y-47802395D02*
X65542714Y-47402395D01*
X65542714Y-47402395D02*
X65695095Y-47402395D01*
X65695095Y-47402395D02*
X65733190Y-47421443D01*
X65733190Y-47421443D02*
X65752237Y-47440490D01*
X65752237Y-47440490D02*
X65771285Y-47478586D01*
X65771285Y-47478586D02*
X65771285Y-47535728D01*
X65771285Y-47535728D02*
X65752237Y-47573824D01*
X65752237Y-47573824D02*
X65733190Y-47592871D01*
X65733190Y-47592871D02*
X65695095Y-47611919D01*
X65695095Y-47611919D02*
X65542714Y-47611919D01*
X66018904Y-47402395D02*
X66095095Y-47402395D01*
X66095095Y-47402395D02*
X66133190Y-47421443D01*
X66133190Y-47421443D02*
X66171285Y-47459538D01*
X66171285Y-47459538D02*
X66190333Y-47535728D01*
X66190333Y-47535728D02*
X66190333Y-47669062D01*
X66190333Y-47669062D02*
X66171285Y-47745252D01*
X66171285Y-47745252D02*
X66133190Y-47783348D01*
X66133190Y-47783348D02*
X66095095Y-47802395D01*
X66095095Y-47802395D02*
X66018904Y-47802395D01*
X66018904Y-47802395D02*
X65980809Y-47783348D01*
X65980809Y-47783348D02*
X65942714Y-47745252D01*
X65942714Y-47745252D02*
X65923666Y-47669062D01*
X65923666Y-47669062D02*
X65923666Y-47535728D01*
X65923666Y-47535728D02*
X65942714Y-47459538D01*
X65942714Y-47459538D02*
X65980809Y-47421443D01*
X65980809Y-47421443D02*
X66018904Y-47402395D01*
X66361762Y-47402395D02*
X66361762Y-47726205D01*
X66361762Y-47726205D02*
X66380809Y-47764300D01*
X66380809Y-47764300D02*
X66399857Y-47783348D01*
X66399857Y-47783348D02*
X66437952Y-47802395D01*
X66437952Y-47802395D02*
X66514143Y-47802395D01*
X66514143Y-47802395D02*
X66552238Y-47783348D01*
X66552238Y-47783348D02*
X66571285Y-47764300D01*
X66571285Y-47764300D02*
X66590333Y-47726205D01*
X66590333Y-47726205D02*
X66590333Y-47402395D01*
X66723667Y-47402395D02*
X66952238Y-47402395D01*
X66837952Y-47802395D02*
X66837952Y-47402395D01*
X175046904Y-47802395D02*
X175046904Y-47402395D01*
X175275475Y-47802395D02*
X175104046Y-47573824D01*
X175275475Y-47402395D02*
X175046904Y-47630967D01*
X175446904Y-47592871D02*
X175580237Y-47592871D01*
X175637380Y-47802395D02*
X175446904Y-47802395D01*
X175446904Y-47802395D02*
X175446904Y-47402395D01*
X175446904Y-47402395D02*
X175637380Y-47402395D01*
X175808809Y-47592871D02*
X175942142Y-47592871D01*
X175999285Y-47802395D02*
X175808809Y-47802395D01*
X175808809Y-47802395D02*
X175808809Y-47402395D01*
X175808809Y-47402395D02*
X175999285Y-47402395D01*
X176170714Y-47802395D02*
X176170714Y-47402395D01*
X176170714Y-47402395D02*
X176323095Y-47402395D01*
X176323095Y-47402395D02*
X176361190Y-47421443D01*
X176361190Y-47421443D02*
X176380237Y-47440490D01*
X176380237Y-47440490D02*
X176399285Y-47478586D01*
X176399285Y-47478586D02*
X176399285Y-47535728D01*
X176399285Y-47535728D02*
X176380237Y-47573824D01*
X176380237Y-47573824D02*
X176361190Y-47592871D01*
X176361190Y-47592871D02*
X176323095Y-47611919D01*
X176323095Y-47611919D02*
X176170714Y-47611919D01*
X176646904Y-47402395D02*
X176723095Y-47402395D01*
X176723095Y-47402395D02*
X176761190Y-47421443D01*
X176761190Y-47421443D02*
X176799285Y-47459538D01*
X176799285Y-47459538D02*
X176818333Y-47535728D01*
X176818333Y-47535728D02*
X176818333Y-47669062D01*
X176818333Y-47669062D02*
X176799285Y-47745252D01*
X176799285Y-47745252D02*
X176761190Y-47783348D01*
X176761190Y-47783348D02*
X176723095Y-47802395D01*
X176723095Y-47802395D02*
X176646904Y-47802395D01*
X176646904Y-47802395D02*
X176608809Y-47783348D01*
X176608809Y-47783348D02*
X176570714Y-47745252D01*
X176570714Y-47745252D02*
X176551666Y-47669062D01*
X176551666Y-47669062D02*
X176551666Y-47535728D01*
X176551666Y-47535728D02*
X176570714Y-47459538D01*
X176570714Y-47459538D02*
X176608809Y-47421443D01*
X176608809Y-47421443D02*
X176646904Y-47402395D01*
X176989762Y-47402395D02*
X176989762Y-47726205D01*
X176989762Y-47726205D02*
X177008809Y-47764300D01*
X177008809Y-47764300D02*
X177027857Y-47783348D01*
X177027857Y-47783348D02*
X177065952Y-47802395D01*
X177065952Y-47802395D02*
X177142143Y-47802395D01*
X177142143Y-47802395D02*
X177180238Y-47783348D01*
X177180238Y-47783348D02*
X177199285Y-47764300D01*
X177199285Y-47764300D02*
X177218333Y-47726205D01*
X177218333Y-47726205D02*
X177218333Y-47402395D01*
X177351667Y-47402395D02*
X177580238Y-47402395D01*
X177465952Y-47802395D02*
X177465952Y-47402395D01*
X185261904Y-103662395D02*
X185261904Y-103262395D01*
X185490475Y-103662395D02*
X185319046Y-103433824D01*
X185490475Y-103262395D02*
X185261904Y-103490967D01*
X185661904Y-103452871D02*
X185795237Y-103452871D01*
X185852380Y-103662395D02*
X185661904Y-103662395D01*
X185661904Y-103662395D02*
X185661904Y-103262395D01*
X185661904Y-103262395D02*
X185852380Y-103262395D01*
X186023809Y-103452871D02*
X186157142Y-103452871D01*
X186214285Y-103662395D02*
X186023809Y-103662395D01*
X186023809Y-103662395D02*
X186023809Y-103262395D01*
X186023809Y-103262395D02*
X186214285Y-103262395D01*
X186385714Y-103662395D02*
X186385714Y-103262395D01*
X186385714Y-103262395D02*
X186538095Y-103262395D01*
X186538095Y-103262395D02*
X186576190Y-103281443D01*
X186576190Y-103281443D02*
X186595237Y-103300490D01*
X186595237Y-103300490D02*
X186614285Y-103338586D01*
X186614285Y-103338586D02*
X186614285Y-103395728D01*
X186614285Y-103395728D02*
X186595237Y-103433824D01*
X186595237Y-103433824D02*
X186576190Y-103452871D01*
X186576190Y-103452871D02*
X186538095Y-103471919D01*
X186538095Y-103471919D02*
X186385714Y-103471919D01*
X186861904Y-103262395D02*
X186938095Y-103262395D01*
X186938095Y-103262395D02*
X186976190Y-103281443D01*
X186976190Y-103281443D02*
X187014285Y-103319538D01*
X187014285Y-103319538D02*
X187033333Y-103395728D01*
X187033333Y-103395728D02*
X187033333Y-103529062D01*
X187033333Y-103529062D02*
X187014285Y-103605252D01*
X187014285Y-103605252D02*
X186976190Y-103643348D01*
X186976190Y-103643348D02*
X186938095Y-103662395D01*
X186938095Y-103662395D02*
X186861904Y-103662395D01*
X186861904Y-103662395D02*
X186823809Y-103643348D01*
X186823809Y-103643348D02*
X186785714Y-103605252D01*
X186785714Y-103605252D02*
X186766666Y-103529062D01*
X186766666Y-103529062D02*
X186766666Y-103395728D01*
X186766666Y-103395728D02*
X186785714Y-103319538D01*
X186785714Y-103319538D02*
X186823809Y-103281443D01*
X186823809Y-103281443D02*
X186861904Y-103262395D01*
X187204762Y-103262395D02*
X187204762Y-103586205D01*
X187204762Y-103586205D02*
X187223809Y-103624300D01*
X187223809Y-103624300D02*
X187242857Y-103643348D01*
X187242857Y-103643348D02*
X187280952Y-103662395D01*
X187280952Y-103662395D02*
X187357143Y-103662395D01*
X187357143Y-103662395D02*
X187395238Y-103643348D01*
X187395238Y-103643348D02*
X187414285Y-103624300D01*
X187414285Y-103624300D02*
X187433333Y-103586205D01*
X187433333Y-103586205D02*
X187433333Y-103262395D01*
X187566667Y-103262395D02*
X187795238Y-103262395D01*
X187680952Y-103662395D02*
X187680952Y-103262395D01*
X160011904Y-103662395D02*
X160011904Y-103262395D01*
X160240475Y-103662395D02*
X160069046Y-103433824D01*
X160240475Y-103262395D02*
X160011904Y-103490967D01*
X160411904Y-103452871D02*
X160545237Y-103452871D01*
X160602380Y-103662395D02*
X160411904Y-103662395D01*
X160411904Y-103662395D02*
X160411904Y-103262395D01*
X160411904Y-103262395D02*
X160602380Y-103262395D01*
X160773809Y-103452871D02*
X160907142Y-103452871D01*
X160964285Y-103662395D02*
X160773809Y-103662395D01*
X160773809Y-103662395D02*
X160773809Y-103262395D01*
X160773809Y-103262395D02*
X160964285Y-103262395D01*
X161135714Y-103662395D02*
X161135714Y-103262395D01*
X161135714Y-103262395D02*
X161288095Y-103262395D01*
X161288095Y-103262395D02*
X161326190Y-103281443D01*
X161326190Y-103281443D02*
X161345237Y-103300490D01*
X161345237Y-103300490D02*
X161364285Y-103338586D01*
X161364285Y-103338586D02*
X161364285Y-103395728D01*
X161364285Y-103395728D02*
X161345237Y-103433824D01*
X161345237Y-103433824D02*
X161326190Y-103452871D01*
X161326190Y-103452871D02*
X161288095Y-103471919D01*
X161288095Y-103471919D02*
X161135714Y-103471919D01*
X161611904Y-103262395D02*
X161688095Y-103262395D01*
X161688095Y-103262395D02*
X161726190Y-103281443D01*
X161726190Y-103281443D02*
X161764285Y-103319538D01*
X161764285Y-103319538D02*
X161783333Y-103395728D01*
X161783333Y-103395728D02*
X161783333Y-103529062D01*
X161783333Y-103529062D02*
X161764285Y-103605252D01*
X161764285Y-103605252D02*
X161726190Y-103643348D01*
X161726190Y-103643348D02*
X161688095Y-103662395D01*
X161688095Y-103662395D02*
X161611904Y-103662395D01*
X161611904Y-103662395D02*
X161573809Y-103643348D01*
X161573809Y-103643348D02*
X161535714Y-103605252D01*
X161535714Y-103605252D02*
X161516666Y-103529062D01*
X161516666Y-103529062D02*
X161516666Y-103395728D01*
X161516666Y-103395728D02*
X161535714Y-103319538D01*
X161535714Y-103319538D02*
X161573809Y-103281443D01*
X161573809Y-103281443D02*
X161611904Y-103262395D01*
X161954762Y-103262395D02*
X161954762Y-103586205D01*
X161954762Y-103586205D02*
X161973809Y-103624300D01*
X161973809Y-103624300D02*
X161992857Y-103643348D01*
X161992857Y-103643348D02*
X162030952Y-103662395D01*
X162030952Y-103662395D02*
X162107143Y-103662395D01*
X162107143Y-103662395D02*
X162145238Y-103643348D01*
X162145238Y-103643348D02*
X162164285Y-103624300D01*
X162164285Y-103624300D02*
X162183333Y-103586205D01*
X162183333Y-103586205D02*
X162183333Y-103262395D01*
X162316667Y-103262395D02*
X162545238Y-103262395D01*
X162430952Y-103662395D02*
X162430952Y-103262395D01*
X202703904Y-47802395D02*
X202703904Y-47402395D01*
X202932475Y-47802395D02*
X202761046Y-47573824D01*
X202932475Y-47402395D02*
X202703904Y-47630967D01*
X203103904Y-47592871D02*
X203237237Y-47592871D01*
X203294380Y-47802395D02*
X203103904Y-47802395D01*
X203103904Y-47802395D02*
X203103904Y-47402395D01*
X203103904Y-47402395D02*
X203294380Y-47402395D01*
X203465809Y-47592871D02*
X203599142Y-47592871D01*
X203656285Y-47802395D02*
X203465809Y-47802395D01*
X203465809Y-47802395D02*
X203465809Y-47402395D01*
X203465809Y-47402395D02*
X203656285Y-47402395D01*
X203827714Y-47802395D02*
X203827714Y-47402395D01*
X203827714Y-47402395D02*
X203980095Y-47402395D01*
X203980095Y-47402395D02*
X204018190Y-47421443D01*
X204018190Y-47421443D02*
X204037237Y-47440490D01*
X204037237Y-47440490D02*
X204056285Y-47478586D01*
X204056285Y-47478586D02*
X204056285Y-47535728D01*
X204056285Y-47535728D02*
X204037237Y-47573824D01*
X204037237Y-47573824D02*
X204018190Y-47592871D01*
X204018190Y-47592871D02*
X203980095Y-47611919D01*
X203980095Y-47611919D02*
X203827714Y-47611919D01*
X204303904Y-47402395D02*
X204380095Y-47402395D01*
X204380095Y-47402395D02*
X204418190Y-47421443D01*
X204418190Y-47421443D02*
X204456285Y-47459538D01*
X204456285Y-47459538D02*
X204475333Y-47535728D01*
X204475333Y-47535728D02*
X204475333Y-47669062D01*
X204475333Y-47669062D02*
X204456285Y-47745252D01*
X204456285Y-47745252D02*
X204418190Y-47783348D01*
X204418190Y-47783348D02*
X204380095Y-47802395D01*
X204380095Y-47802395D02*
X204303904Y-47802395D01*
X204303904Y-47802395D02*
X204265809Y-47783348D01*
X204265809Y-47783348D02*
X204227714Y-47745252D01*
X204227714Y-47745252D02*
X204208666Y-47669062D01*
X204208666Y-47669062D02*
X204208666Y-47535728D01*
X204208666Y-47535728D02*
X204227714Y-47459538D01*
X204227714Y-47459538D02*
X204265809Y-47421443D01*
X204265809Y-47421443D02*
X204303904Y-47402395D01*
X204646762Y-47402395D02*
X204646762Y-47726205D01*
X204646762Y-47726205D02*
X204665809Y-47764300D01*
X204665809Y-47764300D02*
X204684857Y-47783348D01*
X204684857Y-47783348D02*
X204722952Y-47802395D01*
X204722952Y-47802395D02*
X204799143Y-47802395D01*
X204799143Y-47802395D02*
X204837238Y-47783348D01*
X204837238Y-47783348D02*
X204856285Y-47764300D01*
X204856285Y-47764300D02*
X204875333Y-47726205D01*
X204875333Y-47726205D02*
X204875333Y-47402395D01*
X205008667Y-47402395D02*
X205237238Y-47402395D01*
X205122952Y-47802395D02*
X205122952Y-47402395D01*
X92075904Y-47802395D02*
X92075904Y-47402395D01*
X92304475Y-47802395D02*
X92133046Y-47573824D01*
X92304475Y-47402395D02*
X92075904Y-47630967D01*
X92475904Y-47592871D02*
X92609237Y-47592871D01*
X92666380Y-47802395D02*
X92475904Y-47802395D01*
X92475904Y-47802395D02*
X92475904Y-47402395D01*
X92475904Y-47402395D02*
X92666380Y-47402395D01*
X92837809Y-47592871D02*
X92971142Y-47592871D01*
X93028285Y-47802395D02*
X92837809Y-47802395D01*
X92837809Y-47802395D02*
X92837809Y-47402395D01*
X92837809Y-47402395D02*
X93028285Y-47402395D01*
X93199714Y-47802395D02*
X93199714Y-47402395D01*
X93199714Y-47402395D02*
X93352095Y-47402395D01*
X93352095Y-47402395D02*
X93390190Y-47421443D01*
X93390190Y-47421443D02*
X93409237Y-47440490D01*
X93409237Y-47440490D02*
X93428285Y-47478586D01*
X93428285Y-47478586D02*
X93428285Y-47535728D01*
X93428285Y-47535728D02*
X93409237Y-47573824D01*
X93409237Y-47573824D02*
X93390190Y-47592871D01*
X93390190Y-47592871D02*
X93352095Y-47611919D01*
X93352095Y-47611919D02*
X93199714Y-47611919D01*
X93675904Y-47402395D02*
X93752095Y-47402395D01*
X93752095Y-47402395D02*
X93790190Y-47421443D01*
X93790190Y-47421443D02*
X93828285Y-47459538D01*
X93828285Y-47459538D02*
X93847333Y-47535728D01*
X93847333Y-47535728D02*
X93847333Y-47669062D01*
X93847333Y-47669062D02*
X93828285Y-47745252D01*
X93828285Y-47745252D02*
X93790190Y-47783348D01*
X93790190Y-47783348D02*
X93752095Y-47802395D01*
X93752095Y-47802395D02*
X93675904Y-47802395D01*
X93675904Y-47802395D02*
X93637809Y-47783348D01*
X93637809Y-47783348D02*
X93599714Y-47745252D01*
X93599714Y-47745252D02*
X93580666Y-47669062D01*
X93580666Y-47669062D02*
X93580666Y-47535728D01*
X93580666Y-47535728D02*
X93599714Y-47459538D01*
X93599714Y-47459538D02*
X93637809Y-47421443D01*
X93637809Y-47421443D02*
X93675904Y-47402395D01*
X94018762Y-47402395D02*
X94018762Y-47726205D01*
X94018762Y-47726205D02*
X94037809Y-47764300D01*
X94037809Y-47764300D02*
X94056857Y-47783348D01*
X94056857Y-47783348D02*
X94094952Y-47802395D01*
X94094952Y-47802395D02*
X94171143Y-47802395D01*
X94171143Y-47802395D02*
X94209238Y-47783348D01*
X94209238Y-47783348D02*
X94228285Y-47764300D01*
X94228285Y-47764300D02*
X94247333Y-47726205D01*
X94247333Y-47726205D02*
X94247333Y-47402395D01*
X94380667Y-47402395D02*
X94609238Y-47402395D01*
X94494952Y-47802395D02*
X94494952Y-47402395D01*
X147389904Y-47802395D02*
X147389904Y-47402395D01*
X147618475Y-47802395D02*
X147447046Y-47573824D01*
X147618475Y-47402395D02*
X147389904Y-47630967D01*
X147789904Y-47592871D02*
X147923237Y-47592871D01*
X147980380Y-47802395D02*
X147789904Y-47802395D01*
X147789904Y-47802395D02*
X147789904Y-47402395D01*
X147789904Y-47402395D02*
X147980380Y-47402395D01*
X148151809Y-47592871D02*
X148285142Y-47592871D01*
X148342285Y-47802395D02*
X148151809Y-47802395D01*
X148151809Y-47802395D02*
X148151809Y-47402395D01*
X148151809Y-47402395D02*
X148342285Y-47402395D01*
X148513714Y-47802395D02*
X148513714Y-47402395D01*
X148513714Y-47402395D02*
X148666095Y-47402395D01*
X148666095Y-47402395D02*
X148704190Y-47421443D01*
X148704190Y-47421443D02*
X148723237Y-47440490D01*
X148723237Y-47440490D02*
X148742285Y-47478586D01*
X148742285Y-47478586D02*
X148742285Y-47535728D01*
X148742285Y-47535728D02*
X148723237Y-47573824D01*
X148723237Y-47573824D02*
X148704190Y-47592871D01*
X148704190Y-47592871D02*
X148666095Y-47611919D01*
X148666095Y-47611919D02*
X148513714Y-47611919D01*
X148989904Y-47402395D02*
X149066095Y-47402395D01*
X149066095Y-47402395D02*
X149104190Y-47421443D01*
X149104190Y-47421443D02*
X149142285Y-47459538D01*
X149142285Y-47459538D02*
X149161333Y-47535728D01*
X149161333Y-47535728D02*
X149161333Y-47669062D01*
X149161333Y-47669062D02*
X149142285Y-47745252D01*
X149142285Y-47745252D02*
X149104190Y-47783348D01*
X149104190Y-47783348D02*
X149066095Y-47802395D01*
X149066095Y-47802395D02*
X148989904Y-47802395D01*
X148989904Y-47802395D02*
X148951809Y-47783348D01*
X148951809Y-47783348D02*
X148913714Y-47745252D01*
X148913714Y-47745252D02*
X148894666Y-47669062D01*
X148894666Y-47669062D02*
X148894666Y-47535728D01*
X148894666Y-47535728D02*
X148913714Y-47459538D01*
X148913714Y-47459538D02*
X148951809Y-47421443D01*
X148951809Y-47421443D02*
X148989904Y-47402395D01*
X149332762Y-47402395D02*
X149332762Y-47726205D01*
X149332762Y-47726205D02*
X149351809Y-47764300D01*
X149351809Y-47764300D02*
X149370857Y-47783348D01*
X149370857Y-47783348D02*
X149408952Y-47802395D01*
X149408952Y-47802395D02*
X149485143Y-47802395D01*
X149485143Y-47802395D02*
X149523238Y-47783348D01*
X149523238Y-47783348D02*
X149542285Y-47764300D01*
X149542285Y-47764300D02*
X149561333Y-47726205D01*
X149561333Y-47726205D02*
X149561333Y-47402395D01*
X149694667Y-47402395D02*
X149923238Y-47402395D01*
X149808952Y-47802395D02*
X149808952Y-47402395D01*
X134761904Y-103662395D02*
X134761904Y-103262395D01*
X134990475Y-103662395D02*
X134819046Y-103433824D01*
X134990475Y-103262395D02*
X134761904Y-103490967D01*
X135161904Y-103452871D02*
X135295237Y-103452871D01*
X135352380Y-103662395D02*
X135161904Y-103662395D01*
X135161904Y-103662395D02*
X135161904Y-103262395D01*
X135161904Y-103262395D02*
X135352380Y-103262395D01*
X135523809Y-103452871D02*
X135657142Y-103452871D01*
X135714285Y-103662395D02*
X135523809Y-103662395D01*
X135523809Y-103662395D02*
X135523809Y-103262395D01*
X135523809Y-103262395D02*
X135714285Y-103262395D01*
X135885714Y-103662395D02*
X135885714Y-103262395D01*
X135885714Y-103262395D02*
X136038095Y-103262395D01*
X136038095Y-103262395D02*
X136076190Y-103281443D01*
X136076190Y-103281443D02*
X136095237Y-103300490D01*
X136095237Y-103300490D02*
X136114285Y-103338586D01*
X136114285Y-103338586D02*
X136114285Y-103395728D01*
X136114285Y-103395728D02*
X136095237Y-103433824D01*
X136095237Y-103433824D02*
X136076190Y-103452871D01*
X136076190Y-103452871D02*
X136038095Y-103471919D01*
X136038095Y-103471919D02*
X135885714Y-103471919D01*
X136361904Y-103262395D02*
X136438095Y-103262395D01*
X136438095Y-103262395D02*
X136476190Y-103281443D01*
X136476190Y-103281443D02*
X136514285Y-103319538D01*
X136514285Y-103319538D02*
X136533333Y-103395728D01*
X136533333Y-103395728D02*
X136533333Y-103529062D01*
X136533333Y-103529062D02*
X136514285Y-103605252D01*
X136514285Y-103605252D02*
X136476190Y-103643348D01*
X136476190Y-103643348D02*
X136438095Y-103662395D01*
X136438095Y-103662395D02*
X136361904Y-103662395D01*
X136361904Y-103662395D02*
X136323809Y-103643348D01*
X136323809Y-103643348D02*
X136285714Y-103605252D01*
X136285714Y-103605252D02*
X136266666Y-103529062D01*
X136266666Y-103529062D02*
X136266666Y-103395728D01*
X136266666Y-103395728D02*
X136285714Y-103319538D01*
X136285714Y-103319538D02*
X136323809Y-103281443D01*
X136323809Y-103281443D02*
X136361904Y-103262395D01*
X136704762Y-103262395D02*
X136704762Y-103586205D01*
X136704762Y-103586205D02*
X136723809Y-103624300D01*
X136723809Y-103624300D02*
X136742857Y-103643348D01*
X136742857Y-103643348D02*
X136780952Y-103662395D01*
X136780952Y-103662395D02*
X136857143Y-103662395D01*
X136857143Y-103662395D02*
X136895238Y-103643348D01*
X136895238Y-103643348D02*
X136914285Y-103624300D01*
X136914285Y-103624300D02*
X136933333Y-103586205D01*
X136933333Y-103586205D02*
X136933333Y-103262395D01*
X137066667Y-103262395D02*
X137295238Y-103262395D01*
X137180952Y-103662395D02*
X137180952Y-103262395D01*
X210511904Y-103662395D02*
X210511904Y-103262395D01*
X210740475Y-103662395D02*
X210569046Y-103433824D01*
X210740475Y-103262395D02*
X210511904Y-103490967D01*
X210911904Y-103452871D02*
X211045237Y-103452871D01*
X211102380Y-103662395D02*
X210911904Y-103662395D01*
X210911904Y-103662395D02*
X210911904Y-103262395D01*
X210911904Y-103262395D02*
X211102380Y-103262395D01*
X211273809Y-103452871D02*
X211407142Y-103452871D01*
X211464285Y-103662395D02*
X211273809Y-103662395D01*
X211273809Y-103662395D02*
X211273809Y-103262395D01*
X211273809Y-103262395D02*
X211464285Y-103262395D01*
X211635714Y-103662395D02*
X211635714Y-103262395D01*
X211635714Y-103262395D02*
X211788095Y-103262395D01*
X211788095Y-103262395D02*
X211826190Y-103281443D01*
X211826190Y-103281443D02*
X211845237Y-103300490D01*
X211845237Y-103300490D02*
X211864285Y-103338586D01*
X211864285Y-103338586D02*
X211864285Y-103395728D01*
X211864285Y-103395728D02*
X211845237Y-103433824D01*
X211845237Y-103433824D02*
X211826190Y-103452871D01*
X211826190Y-103452871D02*
X211788095Y-103471919D01*
X211788095Y-103471919D02*
X211635714Y-103471919D01*
X212111904Y-103262395D02*
X212188095Y-103262395D01*
X212188095Y-103262395D02*
X212226190Y-103281443D01*
X212226190Y-103281443D02*
X212264285Y-103319538D01*
X212264285Y-103319538D02*
X212283333Y-103395728D01*
X212283333Y-103395728D02*
X212283333Y-103529062D01*
X212283333Y-103529062D02*
X212264285Y-103605252D01*
X212264285Y-103605252D02*
X212226190Y-103643348D01*
X212226190Y-103643348D02*
X212188095Y-103662395D01*
X212188095Y-103662395D02*
X212111904Y-103662395D01*
X212111904Y-103662395D02*
X212073809Y-103643348D01*
X212073809Y-103643348D02*
X212035714Y-103605252D01*
X212035714Y-103605252D02*
X212016666Y-103529062D01*
X212016666Y-103529062D02*
X212016666Y-103395728D01*
X212016666Y-103395728D02*
X212035714Y-103319538D01*
X212035714Y-103319538D02*
X212073809Y-103281443D01*
X212073809Y-103281443D02*
X212111904Y-103262395D01*
X212454762Y-103262395D02*
X212454762Y-103586205D01*
X212454762Y-103586205D02*
X212473809Y-103624300D01*
X212473809Y-103624300D02*
X212492857Y-103643348D01*
X212492857Y-103643348D02*
X212530952Y-103662395D01*
X212530952Y-103662395D02*
X212607143Y-103662395D01*
X212607143Y-103662395D02*
X212645238Y-103643348D01*
X212645238Y-103643348D02*
X212664285Y-103624300D01*
X212664285Y-103624300D02*
X212683333Y-103586205D01*
X212683333Y-103586205D02*
X212683333Y-103262395D01*
X212816667Y-103262395D02*
X213045238Y-103262395D01*
X212930952Y-103662395D02*
X212930952Y-103262395D01*
X119732904Y-47802395D02*
X119732904Y-47402395D01*
X119961475Y-47802395D02*
X119790046Y-47573824D01*
X119961475Y-47402395D02*
X119732904Y-47630967D01*
X120132904Y-47592871D02*
X120266237Y-47592871D01*
X120323380Y-47802395D02*
X120132904Y-47802395D01*
X120132904Y-47802395D02*
X120132904Y-47402395D01*
X120132904Y-47402395D02*
X120323380Y-47402395D01*
X120494809Y-47592871D02*
X120628142Y-47592871D01*
X120685285Y-47802395D02*
X120494809Y-47802395D01*
X120494809Y-47802395D02*
X120494809Y-47402395D01*
X120494809Y-47402395D02*
X120685285Y-47402395D01*
X120856714Y-47802395D02*
X120856714Y-47402395D01*
X120856714Y-47402395D02*
X121009095Y-47402395D01*
X121009095Y-47402395D02*
X121047190Y-47421443D01*
X121047190Y-47421443D02*
X121066237Y-47440490D01*
X121066237Y-47440490D02*
X121085285Y-47478586D01*
X121085285Y-47478586D02*
X121085285Y-47535728D01*
X121085285Y-47535728D02*
X121066237Y-47573824D01*
X121066237Y-47573824D02*
X121047190Y-47592871D01*
X121047190Y-47592871D02*
X121009095Y-47611919D01*
X121009095Y-47611919D02*
X120856714Y-47611919D01*
X121332904Y-47402395D02*
X121409095Y-47402395D01*
X121409095Y-47402395D02*
X121447190Y-47421443D01*
X121447190Y-47421443D02*
X121485285Y-47459538D01*
X121485285Y-47459538D02*
X121504333Y-47535728D01*
X121504333Y-47535728D02*
X121504333Y-47669062D01*
X121504333Y-47669062D02*
X121485285Y-47745252D01*
X121485285Y-47745252D02*
X121447190Y-47783348D01*
X121447190Y-47783348D02*
X121409095Y-47802395D01*
X121409095Y-47802395D02*
X121332904Y-47802395D01*
X121332904Y-47802395D02*
X121294809Y-47783348D01*
X121294809Y-47783348D02*
X121256714Y-47745252D01*
X121256714Y-47745252D02*
X121237666Y-47669062D01*
X121237666Y-47669062D02*
X121237666Y-47535728D01*
X121237666Y-47535728D02*
X121256714Y-47459538D01*
X121256714Y-47459538D02*
X121294809Y-47421443D01*
X121294809Y-47421443D02*
X121332904Y-47402395D01*
X121675762Y-47402395D02*
X121675762Y-47726205D01*
X121675762Y-47726205D02*
X121694809Y-47764300D01*
X121694809Y-47764300D02*
X121713857Y-47783348D01*
X121713857Y-47783348D02*
X121751952Y-47802395D01*
X121751952Y-47802395D02*
X121828143Y-47802395D01*
X121828143Y-47802395D02*
X121866238Y-47783348D01*
X121866238Y-47783348D02*
X121885285Y-47764300D01*
X121885285Y-47764300D02*
X121904333Y-47726205D01*
X121904333Y-47726205D02*
X121904333Y-47402395D01*
X122037667Y-47402395D02*
X122266238Y-47402395D01*
X122151952Y-47802395D02*
X122151952Y-47402395D01*
X230360904Y-47802395D02*
X230360904Y-47402395D01*
X230589475Y-47802395D02*
X230418046Y-47573824D01*
X230589475Y-47402395D02*
X230360904Y-47630967D01*
X230760904Y-47592871D02*
X230894237Y-47592871D01*
X230951380Y-47802395D02*
X230760904Y-47802395D01*
X230760904Y-47802395D02*
X230760904Y-47402395D01*
X230760904Y-47402395D02*
X230951380Y-47402395D01*
X231122809Y-47592871D02*
X231256142Y-47592871D01*
X231313285Y-47802395D02*
X231122809Y-47802395D01*
X231122809Y-47802395D02*
X231122809Y-47402395D01*
X231122809Y-47402395D02*
X231313285Y-47402395D01*
X231484714Y-47802395D02*
X231484714Y-47402395D01*
X231484714Y-47402395D02*
X231637095Y-47402395D01*
X231637095Y-47402395D02*
X231675190Y-47421443D01*
X231675190Y-47421443D02*
X231694237Y-47440490D01*
X231694237Y-47440490D02*
X231713285Y-47478586D01*
X231713285Y-47478586D02*
X231713285Y-47535728D01*
X231713285Y-47535728D02*
X231694237Y-47573824D01*
X231694237Y-47573824D02*
X231675190Y-47592871D01*
X231675190Y-47592871D02*
X231637095Y-47611919D01*
X231637095Y-47611919D02*
X231484714Y-47611919D01*
X231960904Y-47402395D02*
X232037095Y-47402395D01*
X232037095Y-47402395D02*
X232075190Y-47421443D01*
X232075190Y-47421443D02*
X232113285Y-47459538D01*
X232113285Y-47459538D02*
X232132333Y-47535728D01*
X232132333Y-47535728D02*
X232132333Y-47669062D01*
X232132333Y-47669062D02*
X232113285Y-47745252D01*
X232113285Y-47745252D02*
X232075190Y-47783348D01*
X232075190Y-47783348D02*
X232037095Y-47802395D01*
X232037095Y-47802395D02*
X231960904Y-47802395D01*
X231960904Y-47802395D02*
X231922809Y-47783348D01*
X231922809Y-47783348D02*
X231884714Y-47745252D01*
X231884714Y-47745252D02*
X231865666Y-47669062D01*
X231865666Y-47669062D02*
X231865666Y-47535728D01*
X231865666Y-47535728D02*
X231884714Y-47459538D01*
X231884714Y-47459538D02*
X231922809Y-47421443D01*
X231922809Y-47421443D02*
X231960904Y-47402395D01*
X232303762Y-47402395D02*
X232303762Y-47726205D01*
X232303762Y-47726205D02*
X232322809Y-47764300D01*
X232322809Y-47764300D02*
X232341857Y-47783348D01*
X232341857Y-47783348D02*
X232379952Y-47802395D01*
X232379952Y-47802395D02*
X232456143Y-47802395D01*
X232456143Y-47802395D02*
X232494238Y-47783348D01*
X232494238Y-47783348D02*
X232513285Y-47764300D01*
X232513285Y-47764300D02*
X232532333Y-47726205D01*
X232532333Y-47726205D02*
X232532333Y-47402395D01*
X232665667Y-47402395D02*
X232894238Y-47402395D01*
X232779952Y-47802395D02*
X232779952Y-47402395D01*
X109511904Y-103662395D02*
X109511904Y-103262395D01*
X109740475Y-103662395D02*
X109569046Y-103433824D01*
X109740475Y-103262395D02*
X109511904Y-103490967D01*
X109911904Y-103452871D02*
X110045237Y-103452871D01*
X110102380Y-103662395D02*
X109911904Y-103662395D01*
X109911904Y-103662395D02*
X109911904Y-103262395D01*
X109911904Y-103262395D02*
X110102380Y-103262395D01*
X110273809Y-103452871D02*
X110407142Y-103452871D01*
X110464285Y-103662395D02*
X110273809Y-103662395D01*
X110273809Y-103662395D02*
X110273809Y-103262395D01*
X110273809Y-103262395D02*
X110464285Y-103262395D01*
X110635714Y-103662395D02*
X110635714Y-103262395D01*
X110635714Y-103262395D02*
X110788095Y-103262395D01*
X110788095Y-103262395D02*
X110826190Y-103281443D01*
X110826190Y-103281443D02*
X110845237Y-103300490D01*
X110845237Y-103300490D02*
X110864285Y-103338586D01*
X110864285Y-103338586D02*
X110864285Y-103395728D01*
X110864285Y-103395728D02*
X110845237Y-103433824D01*
X110845237Y-103433824D02*
X110826190Y-103452871D01*
X110826190Y-103452871D02*
X110788095Y-103471919D01*
X110788095Y-103471919D02*
X110635714Y-103471919D01*
X111111904Y-103262395D02*
X111188095Y-103262395D01*
X111188095Y-103262395D02*
X111226190Y-103281443D01*
X111226190Y-103281443D02*
X111264285Y-103319538D01*
X111264285Y-103319538D02*
X111283333Y-103395728D01*
X111283333Y-103395728D02*
X111283333Y-103529062D01*
X111283333Y-103529062D02*
X111264285Y-103605252D01*
X111264285Y-103605252D02*
X111226190Y-103643348D01*
X111226190Y-103643348D02*
X111188095Y-103662395D01*
X111188095Y-103662395D02*
X111111904Y-103662395D01*
X111111904Y-103662395D02*
X111073809Y-103643348D01*
X111073809Y-103643348D02*
X111035714Y-103605252D01*
X111035714Y-103605252D02*
X111016666Y-103529062D01*
X111016666Y-103529062D02*
X111016666Y-103395728D01*
X111016666Y-103395728D02*
X111035714Y-103319538D01*
X111035714Y-103319538D02*
X111073809Y-103281443D01*
X111073809Y-103281443D02*
X111111904Y-103262395D01*
X111454762Y-103262395D02*
X111454762Y-103586205D01*
X111454762Y-103586205D02*
X111473809Y-103624300D01*
X111473809Y-103624300D02*
X111492857Y-103643348D01*
X111492857Y-103643348D02*
X111530952Y-103662395D01*
X111530952Y-103662395D02*
X111607143Y-103662395D01*
X111607143Y-103662395D02*
X111645238Y-103643348D01*
X111645238Y-103643348D02*
X111664285Y-103624300D01*
X111664285Y-103624300D02*
X111683333Y-103586205D01*
X111683333Y-103586205D02*
X111683333Y-103262395D01*
X111816667Y-103262395D02*
X112045238Y-103262395D01*
X111930952Y-103662395D02*
X111930952Y-103262395D01*
X84261904Y-103662395D02*
X84261904Y-103262395D01*
X84490475Y-103662395D02*
X84319046Y-103433824D01*
X84490475Y-103262395D02*
X84261904Y-103490967D01*
X84661904Y-103452871D02*
X84795237Y-103452871D01*
X84852380Y-103662395D02*
X84661904Y-103662395D01*
X84661904Y-103662395D02*
X84661904Y-103262395D01*
X84661904Y-103262395D02*
X84852380Y-103262395D01*
X85023809Y-103452871D02*
X85157142Y-103452871D01*
X85214285Y-103662395D02*
X85023809Y-103662395D01*
X85023809Y-103662395D02*
X85023809Y-103262395D01*
X85023809Y-103262395D02*
X85214285Y-103262395D01*
X85385714Y-103662395D02*
X85385714Y-103262395D01*
X85385714Y-103262395D02*
X85538095Y-103262395D01*
X85538095Y-103262395D02*
X85576190Y-103281443D01*
X85576190Y-103281443D02*
X85595237Y-103300490D01*
X85595237Y-103300490D02*
X85614285Y-103338586D01*
X85614285Y-103338586D02*
X85614285Y-103395728D01*
X85614285Y-103395728D02*
X85595237Y-103433824D01*
X85595237Y-103433824D02*
X85576190Y-103452871D01*
X85576190Y-103452871D02*
X85538095Y-103471919D01*
X85538095Y-103471919D02*
X85385714Y-103471919D01*
X85861904Y-103262395D02*
X85938095Y-103262395D01*
X85938095Y-103262395D02*
X85976190Y-103281443D01*
X85976190Y-103281443D02*
X86014285Y-103319538D01*
X86014285Y-103319538D02*
X86033333Y-103395728D01*
X86033333Y-103395728D02*
X86033333Y-103529062D01*
X86033333Y-103529062D02*
X86014285Y-103605252D01*
X86014285Y-103605252D02*
X85976190Y-103643348D01*
X85976190Y-103643348D02*
X85938095Y-103662395D01*
X85938095Y-103662395D02*
X85861904Y-103662395D01*
X85861904Y-103662395D02*
X85823809Y-103643348D01*
X85823809Y-103643348D02*
X85785714Y-103605252D01*
X85785714Y-103605252D02*
X85766666Y-103529062D01*
X85766666Y-103529062D02*
X85766666Y-103395728D01*
X85766666Y-103395728D02*
X85785714Y-103319538D01*
X85785714Y-103319538D02*
X85823809Y-103281443D01*
X85823809Y-103281443D02*
X85861904Y-103262395D01*
X86204762Y-103262395D02*
X86204762Y-103586205D01*
X86204762Y-103586205D02*
X86223809Y-103624300D01*
X86223809Y-103624300D02*
X86242857Y-103643348D01*
X86242857Y-103643348D02*
X86280952Y-103662395D01*
X86280952Y-103662395D02*
X86357143Y-103662395D01*
X86357143Y-103662395D02*
X86395238Y-103643348D01*
X86395238Y-103643348D02*
X86414285Y-103624300D01*
X86414285Y-103624300D02*
X86433333Y-103586205D01*
X86433333Y-103586205D02*
X86433333Y-103262395D01*
X86566667Y-103262395D02*
X86795238Y-103262395D01*
X86680952Y-103662395D02*
X86680952Y-103262395D01*
M02*
