G04 #@! TF.GenerationSoftware,KiCad,Pcbnew,9.0.0*
G04 #@! TF.CreationDate,2025-06-12T15:22:14-04:00*
G04 #@! TF.ProjectId,Oblique Palette 0.5.1 PCB Main,4f626c69-7175-4652-9050-616c65747465,rev?*
G04 #@! TF.SameCoordinates,Original*
G04 #@! TF.FileFunction,Soldermask,Bot*
G04 #@! TF.FilePolarity,Negative*
%FSLAX46Y46*%
G04 Gerber Fmt 4.6, Leading zero omitted, Abs format (unit mm)*
G04 Created by KiCad (PCBNEW 9.0.0) date 2025-06-12 15:22:14*
%MOMM*%
%LPD*%
G01*
G04 APERTURE LIST*
G04 Aperture macros list*
%AMRoundRect*
0 Rectangle with rounded corners*
0 $1 Rounding radius*
0 $2 $3 $4 $5 $6 $7 $8 $9 X,Y pos of 4 corners*
0 Add a 4 corners polygon primitive as box body*
4,1,4,$2,$3,$4,$5,$6,$7,$8,$9,$2,$3,0*
0 Add four circle primitives for the rounded corners*
1,1,$1+$1,$2,$3*
1,1,$1+$1,$4,$5*
1,1,$1+$1,$6,$7*
1,1,$1+$1,$8,$9*
0 Add four rect primitives between the rounded corners*
20,1,$1+$1,$2,$3,$4,$5,0*
20,1,$1+$1,$4,$5,$6,$7,0*
20,1,$1+$1,$6,$7,$8,$9,0*
20,1,$1+$1,$8,$9,$2,$3,0*%
G04 Aperture macros list end*
%ADD10RoundRect,0.150000X0.825000X0.150000X-0.825000X0.150000X-0.825000X-0.150000X0.825000X-0.150000X0*%
%ADD11R,1.700000X1.700000*%
%ADD12O,1.700000X1.700000*%
%ADD13R,1.800000X1.800000*%
%ADD14C,1.800000*%
%ADD15RoundRect,0.750000X-1.250000X-0.750000X1.250000X-0.750000X1.250000X0.750000X-1.250000X0.750000X0*%
%ADD16R,1.930000X1.830000*%
%ADD17C,2.130000*%
%ADD18RoundRect,0.250000X0.262500X0.450000X-0.262500X0.450000X-0.262500X-0.450000X0.262500X-0.450000X0*%
%ADD19RoundRect,0.250000X0.450000X-0.262500X0.450000X0.262500X-0.450000X0.262500X-0.450000X-0.262500X0*%
%ADD20RoundRect,0.250000X-0.262500X-0.450000X0.262500X-0.450000X0.262500X0.450000X-0.262500X0.450000X0*%
%ADD21RoundRect,0.150000X0.512500X0.150000X-0.512500X0.150000X-0.512500X-0.150000X0.512500X-0.150000X0*%
%ADD22RoundRect,0.225000X-0.375000X0.225000X-0.375000X-0.225000X0.375000X-0.225000X0.375000X0.225000X0*%
%ADD23RoundRect,0.250000X1.000000X-1.750000X1.000000X1.750000X-1.000000X1.750000X-1.000000X-1.750000X0*%
%ADD24RoundRect,0.150000X0.150000X-0.825000X0.150000X0.825000X-0.150000X0.825000X-0.150000X-0.825000X0*%
%ADD25RoundRect,0.250000X0.475000X-0.250000X0.475000X0.250000X-0.475000X0.250000X-0.475000X-0.250000X0*%
%ADD26R,3.500000X1.700000*%
G04 APERTURE END LIST*
D10*
G04 #@! TO.C,U1*
X115050000Y-67640000D03*
X115050000Y-68910000D03*
X115050000Y-70180000D03*
X115050000Y-71450000D03*
X115050000Y-72720000D03*
X115050000Y-73990000D03*
X115050000Y-75260000D03*
X115050000Y-76530000D03*
X120000000Y-76530000D03*
X120000000Y-75260000D03*
X120000000Y-73990000D03*
X120000000Y-72720000D03*
X120000000Y-71450000D03*
X120000000Y-70180000D03*
X120000000Y-68910000D03*
X120000000Y-67640000D03*
G04 #@! TD*
D11*
G04 #@! TO.C,J56*
X138525000Y-120180000D03*
D12*
X135985000Y-120180000D03*
X133445000Y-120180000D03*
G04 #@! TD*
D11*
G04 #@! TO.C,J2*
X37432763Y-114282794D03*
D12*
X34892763Y-114282794D03*
X32352763Y-114282794D03*
G04 #@! TD*
D13*
G04 #@! TO.C,RV2*
X50717000Y-24320000D03*
D14*
X50717000Y-26820000D03*
X50717000Y-29320000D03*
D15*
X57717000Y-22420000D03*
X57717000Y-31220000D03*
G04 #@! TD*
D13*
G04 #@! TO.C,D75*
X174500000Y-103350000D03*
D14*
X171960000Y-103350000D03*
G04 #@! TD*
D13*
G04 #@! TO.C,D2*
X23000000Y-60760000D03*
D14*
X20460000Y-60760000D03*
G04 #@! TD*
D13*
G04 #@! TO.C,RV3*
X78374000Y-24320000D03*
D14*
X78374000Y-26820000D03*
X78374000Y-29320000D03*
D15*
X85374000Y-22420000D03*
X85374000Y-31220000D03*
G04 #@! TD*
D16*
G04 #@! TO.C,J42*
X35000000Y-97000000D03*
D17*
X35000000Y-108400000D03*
X35000000Y-100100000D03*
G04 #@! TD*
D13*
G04 #@! TO.C,D67*
X124000000Y-103350000D03*
D14*
X121460000Y-103350000D03*
G04 #@! TD*
D11*
G04 #@! TO.C,J16*
X40580000Y-60410000D03*
D12*
X38040000Y-60410000D03*
X35500000Y-60410000D03*
G04 #@! TD*
D13*
G04 #@! TO.C,D58*
X73500000Y-106700000D03*
D14*
X70960000Y-106700000D03*
G04 #@! TD*
D13*
G04 #@! TO.C,D32*
X161285000Y-60670000D03*
D14*
X158745000Y-60670000D03*
G04 #@! TD*
D13*
G04 #@! TO.C,D18*
X78314000Y-53970000D03*
D14*
X75774000Y-53970000D03*
G04 #@! TD*
D13*
G04 #@! TO.C,D78*
X199750000Y-106700000D03*
D14*
X197210000Y-106700000D03*
G04 #@! TD*
D13*
G04 #@! TO.C,D56*
X48250000Y-100000000D03*
D14*
X45710000Y-100000000D03*
G04 #@! TD*
D13*
G04 #@! TO.C,RV8*
X216659000Y-24320000D03*
D14*
X216659000Y-26820000D03*
X216659000Y-29320000D03*
D15*
X223659000Y-22420000D03*
X223659000Y-31220000D03*
G04 #@! TD*
D13*
G04 #@! TO.C,D24*
X105971000Y-53970000D03*
D14*
X103431000Y-53970000D03*
G04 #@! TD*
D16*
G04 #@! TO.C,J46*
X60250000Y-97000000D03*
D17*
X60250000Y-108400000D03*
X60250000Y-100100000D03*
G04 #@! TD*
D11*
G04 #@! TO.C,J44*
X62775000Y-120180000D03*
D12*
X60235000Y-120180000D03*
X57695000Y-120180000D03*
G04 #@! TD*
D13*
G04 #@! TO.C,D48*
X216599000Y-53970000D03*
D14*
X214059000Y-53970000D03*
G04 #@! TD*
D13*
G04 #@! TO.C,D36*
X161285000Y-53970000D03*
D14*
X158745000Y-53970000D03*
G04 #@! TD*
D11*
G04 #@! TO.C,J31*
X178865000Y-60320000D03*
D12*
X176325000Y-60320000D03*
X173785000Y-60320000D03*
G04 #@! TD*
D11*
G04 #@! TO.C,J7*
X113193477Y-113958108D03*
D12*
X110653477Y-113958108D03*
X108113477Y-113958108D03*
G04 #@! TD*
D13*
G04 #@! TO.C,RV4*
X106031000Y-24320000D03*
D14*
X106031000Y-26820000D03*
X106031000Y-29320000D03*
D15*
X113031000Y-22420000D03*
X113031000Y-31220000D03*
G04 #@! TD*
D13*
G04 #@! TO.C,D38*
X188942000Y-60670000D03*
D14*
X186402000Y-60670000D03*
G04 #@! TD*
D11*
G04 #@! TO.C,J13*
X188954192Y-114445137D03*
D12*
X186414192Y-114445137D03*
X183874192Y-114445137D03*
G04 #@! TD*
D13*
G04 #@! TO.C,D76*
X174500000Y-100000000D03*
D14*
X171960000Y-100000000D03*
G04 #@! TD*
D13*
G04 #@! TO.C,D66*
X124000000Y-106700000D03*
D14*
X121460000Y-106700000D03*
G04 #@! TD*
D11*
G04 #@! TO.C,J11*
X163700620Y-114039279D03*
D12*
X161160620Y-114039279D03*
X158620620Y-114039279D03*
G04 #@! TD*
D13*
G04 #@! TO.C,D64*
X98750000Y-100000000D03*
D14*
X96210000Y-100000000D03*
G04 #@! TD*
D13*
G04 #@! TO.C,RV5*
X133688000Y-24320000D03*
D14*
X133688000Y-26820000D03*
X133688000Y-29320000D03*
D15*
X140688000Y-22420000D03*
X140688000Y-31220000D03*
G04 #@! TD*
D13*
G04 #@! TO.C,D8*
X50657000Y-60670000D03*
D14*
X48117000Y-60670000D03*
G04 #@! TD*
D11*
G04 #@! TO.C,J4*
X62686334Y-114363965D03*
D12*
X60146334Y-114363965D03*
X57606334Y-114363965D03*
G04 #@! TD*
D13*
G04 #@! TO.C,D71*
X149250000Y-103350000D03*
D14*
X146710000Y-103350000D03*
G04 #@! TD*
D11*
G04 #@! TO.C,J25*
X123551000Y-60320000D03*
D12*
X121011000Y-60320000D03*
X118471000Y-60320000D03*
G04 #@! TD*
D11*
G04 #@! TO.C,J14*
X214207763Y-113876936D03*
D12*
X211667763Y-113876936D03*
X209127763Y-113876936D03*
G04 #@! TD*
D16*
G04 #@! TO.C,J17*
X38000000Y-54190000D03*
D17*
X38000000Y-42790000D03*
X38000000Y-51090000D03*
G04 #@! TD*
D13*
G04 #@! TO.C,D74*
X174500000Y-106700000D03*
D14*
X171960000Y-106700000D03*
G04 #@! TD*
D13*
G04 #@! TO.C,D68*
X124000000Y-100000000D03*
D14*
X121460000Y-100000000D03*
G04 #@! TD*
D16*
G04 #@! TO.C,J20*
X65657000Y-54100000D03*
D17*
X65657000Y-42700000D03*
X65657000Y-51000000D03*
G04 #@! TD*
D11*
G04 #@! TO.C,J40*
X37525000Y-120180000D03*
D12*
X34985000Y-120180000D03*
X32445000Y-120180000D03*
G04 #@! TD*
D11*
G04 #@! TO.C,J9*
X138447049Y-114201622D03*
D12*
X135907049Y-114201622D03*
X133367049Y-114201622D03*
G04 #@! TD*
D13*
G04 #@! TO.C,D80*
X199750000Y-100000000D03*
D14*
X197210000Y-100000000D03*
G04 #@! TD*
D13*
G04 #@! TO.C,D3*
X23000000Y-57410000D03*
D14*
X20460000Y-57410000D03*
G04 #@! TD*
D13*
G04 #@! TO.C,D62*
X98750000Y-106700000D03*
D14*
X96210000Y-106700000D03*
G04 #@! TD*
D13*
G04 #@! TO.C,D50*
X23000000Y-106700000D03*
D14*
X20460000Y-106700000D03*
G04 #@! TD*
D16*
G04 #@! TO.C,J32*
X176285000Y-54100000D03*
D17*
X176285000Y-42700000D03*
X176285000Y-51000000D03*
G04 #@! TD*
D13*
G04 #@! TO.C,D15*
X78314000Y-57320000D03*
D14*
X75774000Y-57320000D03*
G04 #@! TD*
D11*
G04 #@! TO.C,J22*
X95894000Y-60320000D03*
D12*
X93354000Y-60320000D03*
X90814000Y-60320000D03*
G04 #@! TD*
D16*
G04 #@! TO.C,J66*
X186500000Y-97000000D03*
D17*
X186500000Y-108400000D03*
X186500000Y-100100000D03*
G04 #@! TD*
D11*
G04 #@! TO.C,J28*
X151208000Y-60320000D03*
D12*
X148668000Y-60320000D03*
X146128000Y-60320000D03*
G04 #@! TD*
D13*
G04 #@! TO.C,D14*
X78314000Y-60670000D03*
D14*
X75774000Y-60670000D03*
G04 #@! TD*
D13*
G04 #@! TO.C,RV6*
X161345000Y-24320000D03*
D14*
X161345000Y-26820000D03*
X161345000Y-29320000D03*
D15*
X168345000Y-22420000D03*
X168345000Y-31220000D03*
G04 #@! TD*
D13*
G04 #@! TO.C,D59*
X73500000Y-103350000D03*
D14*
X70960000Y-103350000D03*
G04 #@! TD*
D16*
G04 #@! TO.C,J62*
X161250000Y-97000000D03*
D17*
X161250000Y-108400000D03*
X161250000Y-100100000D03*
G04 #@! TD*
D13*
G04 #@! TO.C,D60*
X73500000Y-100000000D03*
D14*
X70960000Y-100000000D03*
G04 #@! TD*
D11*
G04 #@! TO.C,J19*
X68237000Y-60320000D03*
D12*
X65697000Y-60320000D03*
X63157000Y-60320000D03*
G04 #@! TD*
D13*
G04 #@! TO.C,D30*
X133628000Y-53970000D03*
D14*
X131088000Y-53970000D03*
G04 #@! TD*
D13*
G04 #@! TO.C,D63*
X98750000Y-103350000D03*
D14*
X96210000Y-103350000D03*
G04 #@! TD*
D11*
G04 #@! TO.C,J64*
X189025000Y-120180000D03*
D12*
X186485000Y-120180000D03*
X183945000Y-120180000D03*
G04 #@! TD*
D13*
G04 #@! TO.C,D42*
X188942000Y-53970000D03*
D14*
X186402000Y-53970000D03*
G04 #@! TD*
D11*
G04 #@! TO.C,J34*
X206522000Y-60320000D03*
D12*
X203982000Y-60320000D03*
X201442000Y-60320000D03*
G04 #@! TD*
D16*
G04 #@! TO.C,J35*
X203942000Y-54100000D03*
D17*
X203942000Y-42700000D03*
X203942000Y-51000000D03*
G04 #@! TD*
D16*
G04 #@! TO.C,J23*
X93314000Y-54100000D03*
D17*
X93314000Y-42700000D03*
X93314000Y-51000000D03*
G04 #@! TD*
D11*
G04 #@! TO.C,J68*
X214275000Y-120180000D03*
D12*
X211735000Y-120180000D03*
X209195000Y-120180000D03*
G04 #@! TD*
D16*
G04 #@! TO.C,J29*
X148628000Y-54100000D03*
D17*
X148628000Y-42700000D03*
X148628000Y-51000000D03*
G04 #@! TD*
D13*
G04 #@! TO.C,D26*
X133628000Y-60670000D03*
D14*
X131088000Y-60670000D03*
G04 #@! TD*
D16*
G04 #@! TO.C,J58*
X136000000Y-97000000D03*
D17*
X136000000Y-108400000D03*
X136000000Y-100100000D03*
G04 #@! TD*
D13*
G04 #@! TO.C,D20*
X105971000Y-60670000D03*
D14*
X103431000Y-60670000D03*
G04 #@! TD*
D13*
G04 #@! TO.C,RV1*
X23060000Y-24410000D03*
D14*
X23060000Y-26910000D03*
X23060000Y-29410000D03*
D15*
X30060000Y-22510000D03*
X30060000Y-31310000D03*
G04 #@! TD*
D16*
G04 #@! TO.C,J70*
X211750000Y-97000000D03*
D17*
X211750000Y-108400000D03*
X211750000Y-100100000D03*
G04 #@! TD*
D13*
G04 #@! TO.C,D21*
X105971000Y-57320000D03*
D14*
X103431000Y-57320000D03*
G04 #@! TD*
D13*
G04 #@! TO.C,D45*
X216599000Y-57320000D03*
D14*
X214059000Y-57320000D03*
G04 #@! TD*
D16*
G04 #@! TO.C,J26*
X120971000Y-54100000D03*
D17*
X120971000Y-42700000D03*
X120971000Y-51000000D03*
G04 #@! TD*
D13*
G04 #@! TO.C,D72*
X149250000Y-100000000D03*
D14*
X146710000Y-100000000D03*
G04 #@! TD*
D13*
G04 #@! TO.C,D44*
X216599000Y-60670000D03*
D14*
X214059000Y-60670000D03*
G04 #@! TD*
D13*
G04 #@! TO.C,D55*
X48250000Y-103350000D03*
D14*
X45710000Y-103350000D03*
G04 #@! TD*
D13*
G04 #@! TO.C,D39*
X188942000Y-57320000D03*
D14*
X186402000Y-57320000D03*
G04 #@! TD*
D16*
G04 #@! TO.C,J38*
X231599000Y-54100000D03*
D17*
X231599000Y-42700000D03*
X231599000Y-51000000D03*
G04 #@! TD*
D11*
G04 #@! TO.C,J37*
X234179000Y-60320000D03*
D12*
X231639000Y-60320000D03*
X229099000Y-60320000D03*
G04 #@! TD*
D13*
G04 #@! TO.C,D27*
X133628000Y-57320000D03*
D14*
X131088000Y-57320000D03*
G04 #@! TD*
D13*
G04 #@! TO.C,D70*
X149250000Y-106700000D03*
D14*
X146710000Y-106700000D03*
G04 #@! TD*
D11*
G04 #@! TO.C,J5*
X87939906Y-114120451D03*
D12*
X85399906Y-114120451D03*
X82859906Y-114120451D03*
G04 #@! TD*
D16*
G04 #@! TO.C,J54*
X110750000Y-97000000D03*
D17*
X110750000Y-108400000D03*
X110750000Y-100100000D03*
G04 #@! TD*
D13*
G04 #@! TO.C,D54*
X48250000Y-106700000D03*
D14*
X45710000Y-106700000D03*
G04 #@! TD*
D13*
G04 #@! TO.C,D52*
X23000000Y-100000000D03*
D14*
X20460000Y-100000000D03*
G04 #@! TD*
D13*
G04 #@! TO.C,D6*
X23000000Y-54060000D03*
D14*
X20460000Y-54060000D03*
G04 #@! TD*
D13*
G04 #@! TO.C,D12*
X50657000Y-53970000D03*
D14*
X48117000Y-53970000D03*
G04 #@! TD*
D13*
G04 #@! TO.C,D9*
X50657000Y-57320000D03*
D14*
X48117000Y-57320000D03*
G04 #@! TD*
D11*
G04 #@! TO.C,J48*
X88025000Y-120180000D03*
D12*
X85485000Y-120180000D03*
X82945000Y-120180000D03*
G04 #@! TD*
D13*
G04 #@! TO.C,D51*
X23000000Y-103350000D03*
D14*
X20460000Y-103350000D03*
G04 #@! TD*
D13*
G04 #@! TO.C,D79*
X199750000Y-103350000D03*
D14*
X197210000Y-103350000D03*
G04 #@! TD*
D13*
G04 #@! TO.C,RV7*
X189002000Y-24320000D03*
D14*
X189002000Y-26820000D03*
X189002000Y-29320000D03*
D15*
X196002000Y-22420000D03*
X196002000Y-31220000D03*
G04 #@! TD*
D13*
G04 #@! TO.C,D33*
X161285000Y-57320000D03*
D14*
X158745000Y-57320000D03*
G04 #@! TD*
D11*
G04 #@! TO.C,J52*
X113275000Y-120180000D03*
D12*
X110735000Y-120180000D03*
X108195000Y-120180000D03*
G04 #@! TD*
D16*
G04 #@! TO.C,J50*
X85500000Y-97000000D03*
D17*
X85500000Y-108400000D03*
X85500000Y-100100000D03*
G04 #@! TD*
D11*
G04 #@! TO.C,J60*
X163775000Y-120180000D03*
D12*
X161235000Y-120180000D03*
X158695000Y-120180000D03*
G04 #@! TD*
D18*
G04 #@! TO.C,R116*
X54162500Y-104195700D03*
X52337500Y-104195700D03*
G04 #@! TD*
D19*
G04 #@! TO.C,R22*
X75814000Y-40732500D03*
X75814000Y-38907500D03*
G04 #@! TD*
D20*
G04 #@! TO.C,R161*
X67744500Y-38820000D03*
X69569500Y-38820000D03*
G04 #@! TD*
G04 #@! TO.C,R31*
X111646000Y-53820000D03*
X113471000Y-53820000D03*
G04 #@! TD*
G04 #@! TO.C,R152*
X203750000Y-119910000D03*
X205575000Y-119910000D03*
G04 #@! TD*
D18*
G04 #@! TO.C,R101*
X196442000Y-50820000D03*
X194617000Y-50820000D03*
G04 #@! TD*
D20*
G04 #@! TO.C,R136*
X171087500Y-115410000D03*
X172912500Y-115410000D03*
G04 #@! TD*
G04 #@! TO.C,R97*
X77500000Y-119910000D03*
X79325000Y-119910000D03*
G04 #@! TD*
D18*
G04 #@! TO.C,R94*
X168785000Y-50820000D03*
X166960000Y-50820000D03*
G04 #@! TD*
D20*
G04 #@! TO.C,R114*
X120587500Y-115410000D03*
X122412500Y-115410000D03*
G04 #@! TD*
G04 #@! TO.C,R117*
X128087500Y-112052900D03*
X129912500Y-112052900D03*
G04 #@! TD*
D19*
G04 #@! TO.C,R4*
X20500000Y-44822500D03*
X20500000Y-42997500D03*
G04 #@! TD*
D18*
G04 #@! TO.C,R123*
X79412500Y-104195700D03*
X77587500Y-104195700D03*
G04 #@! TD*
D21*
G04 #@! TO.C,U11*
X39000000Y-92310000D03*
X39000000Y-93260000D03*
X39000000Y-94210000D03*
X36725000Y-94210000D03*
X36725000Y-93260000D03*
X36725000Y-92310000D03*
G04 #@! TD*
D20*
G04 #@! TO.C,R74*
X27087500Y-115981400D03*
X28912500Y-115981400D03*
G04 #@! TD*
D18*
G04 #@! TO.C,R79*
X85814000Y-50820000D03*
X83989000Y-50820000D03*
G04 #@! TD*
D20*
G04 #@! TO.C,R53*
X194617000Y-57320000D03*
X196442000Y-57320000D03*
G04 #@! TD*
D22*
G04 #@! TO.C,D41*
X207492000Y-27520000D03*
X207492000Y-30820000D03*
G04 #@! TD*
D20*
G04 #@! TO.C,R61*
X222274000Y-57320000D03*
X224099000Y-57320000D03*
G04 #@! TD*
D19*
G04 #@! TO.C,R52*
X186442000Y-44732500D03*
X186442000Y-42907500D03*
G04 #@! TD*
G04 #@! TO.C,R12*
X48157000Y-44732500D03*
X48157000Y-42907500D03*
G04 #@! TD*
D18*
G04 #@! TO.C,R98*
X104662500Y-92410000D03*
X102837500Y-92410000D03*
G04 #@! TD*
D23*
G04 #@! TO.C,C4*
X45000000Y-76410000D03*
X45000000Y-68410000D03*
G04 #@! TD*
D20*
G04 #@! TO.C,R27*
X111646000Y-60820000D03*
X113471000Y-60820000D03*
G04 #@! TD*
D22*
G04 #@! TO.C,D29*
X152178000Y-27520000D03*
X152178000Y-30820000D03*
G04 #@! TD*
D23*
G04 #@! TO.C,C2*
X56000000Y-76410000D03*
X56000000Y-68410000D03*
G04 #@! TD*
D20*
G04 #@! TO.C,R81*
X44837500Y-115410000D03*
X46662500Y-115410000D03*
G04 #@! TD*
D18*
G04 #@! TO.C,R100*
X104750000Y-96410000D03*
X102925000Y-96410000D03*
G04 #@! TD*
D19*
G04 #@! TO.C,R16*
X47657000Y-30232500D03*
X47657000Y-28407500D03*
G04 #@! TD*
D24*
G04 #@! TO.C,U4*
X59467000Y-44270000D03*
X58197000Y-44270000D03*
X56927000Y-44270000D03*
X55657000Y-44270000D03*
X54387000Y-44270000D03*
X53117000Y-44270000D03*
X51847000Y-44270000D03*
X51847000Y-39320000D03*
X53117000Y-39320000D03*
X54387000Y-39320000D03*
X55657000Y-39320000D03*
X56927000Y-39320000D03*
X58197000Y-39320000D03*
X59467000Y-39320000D03*
G04 #@! TD*
D25*
G04 #@! TO.C,C14*
X179756000Y-24995700D03*
X179756000Y-23095700D03*
G04 #@! TD*
D18*
G04 #@! TO.C,R138*
X155162500Y-104195700D03*
X153337500Y-104195700D03*
G04 #@! TD*
D19*
G04 #@! TO.C,R30*
X103471000Y-40732500D03*
X103471000Y-38907500D03*
G04 #@! TD*
D20*
G04 #@! TO.C,R141*
X178500000Y-119910000D03*
X180325000Y-119910000D03*
G04 #@! TD*
D24*
G04 #@! TO.C,U9*
X197752000Y-44270000D03*
X196482000Y-44270000D03*
X195212000Y-44270000D03*
X193942000Y-44270000D03*
X192672000Y-44270000D03*
X191402000Y-44270000D03*
X190132000Y-44270000D03*
X190132000Y-39320000D03*
X191402000Y-39320000D03*
X192672000Y-39320000D03*
X193942000Y-39320000D03*
X195212000Y-39320000D03*
X196482000Y-39320000D03*
X197752000Y-39320000D03*
G04 #@! TD*
G04 #@! TO.C,U7*
X142438000Y-44270000D03*
X141168000Y-44270000D03*
X139898000Y-44270000D03*
X138628000Y-44270000D03*
X137358000Y-44270000D03*
X136088000Y-44270000D03*
X134818000Y-44270000D03*
X134818000Y-39320000D03*
X136088000Y-39320000D03*
X137358000Y-39320000D03*
X138628000Y-39320000D03*
X139898000Y-39320000D03*
X141168000Y-39320000D03*
X142438000Y-39320000D03*
G04 #@! TD*
D20*
G04 #@! TO.C,R73*
X27087500Y-112052900D03*
X28912500Y-112052900D03*
G04 #@! TD*
G04 #@! TO.C,R129*
X153337500Y-115981400D03*
X155162500Y-115981400D03*
G04 #@! TD*
D19*
G04 #@! TO.C,R46*
X158785000Y-40732500D03*
X158785000Y-38907500D03*
G04 #@! TD*
D20*
G04 #@! TO.C,R125*
X145837500Y-115410000D03*
X147662500Y-115410000D03*
G04 #@! TD*
G04 #@! TO.C,R147*
X196337500Y-115410000D03*
X198162500Y-115410000D03*
G04 #@! TD*
G04 #@! TO.C,R139*
X178587500Y-112052900D03*
X180412500Y-112052900D03*
G04 #@! TD*
G04 #@! TO.C,R11*
X56332000Y-60820000D03*
X58157000Y-60820000D03*
G04 #@! TD*
G04 #@! TO.C,R84*
X52337500Y-112052900D03*
X54162500Y-112052900D03*
G04 #@! TD*
G04 #@! TO.C,R21*
X83989000Y-57320000D03*
X85814000Y-57320000D03*
G04 #@! TD*
G04 #@! TO.C,R63*
X222274000Y-53820000D03*
X224099000Y-53820000D03*
G04 #@! TD*
D24*
G04 #@! TO.C,U3*
X31810000Y-44360000D03*
X30540000Y-44360000D03*
X29270000Y-44360000D03*
X28000000Y-44360000D03*
X26730000Y-44360000D03*
X25460000Y-44360000D03*
X24190000Y-44360000D03*
X24190000Y-39410000D03*
X25460000Y-39410000D03*
X26730000Y-39410000D03*
X28000000Y-39410000D03*
X29270000Y-39410000D03*
X30540000Y-39410000D03*
X31810000Y-39410000D03*
G04 #@! TD*
D21*
G04 #@! TO.C,U23*
X190500000Y-92310000D03*
X190500000Y-93260000D03*
X190500000Y-94210000D03*
X188225000Y-94210000D03*
X188225000Y-93260000D03*
X188225000Y-92310000D03*
G04 #@! TD*
D20*
G04 #@! TO.C,R19*
X83989000Y-60820000D03*
X85814000Y-60820000D03*
G04 #@! TD*
D24*
G04 #@! TO.C,U5*
X87124000Y-44270000D03*
X85854000Y-44270000D03*
X84584000Y-44270000D03*
X83314000Y-44270000D03*
X82044000Y-44270000D03*
X80774000Y-44270000D03*
X79504000Y-44270000D03*
X79504000Y-39320000D03*
X80774000Y-39320000D03*
X82044000Y-39320000D03*
X83314000Y-39320000D03*
X84584000Y-39320000D03*
X85854000Y-39320000D03*
X87124000Y-39320000D03*
G04 #@! TD*
D20*
G04 #@! TO.C,R168*
X208425000Y-92410000D03*
X210250000Y-92410000D03*
G04 #@! TD*
D21*
G04 #@! TO.C,U13*
X64250000Y-92310000D03*
X64250000Y-93260000D03*
X64250000Y-94210000D03*
X61975000Y-94210000D03*
X61975000Y-93260000D03*
X61975000Y-92310000D03*
G04 #@! TD*
D18*
G04 #@! TO.C,R122*
X155250000Y-96410000D03*
X153425000Y-96410000D03*
G04 #@! TD*
D23*
G04 #@! TO.C,C5*
X78000000Y-76410000D03*
X78000000Y-68410000D03*
G04 #@! TD*
D20*
G04 #@! TO.C,R164*
X150715500Y-38820000D03*
X152540500Y-38820000D03*
G04 #@! TD*
D25*
G04 #@! TO.C,C16*
X235070000Y-24995700D03*
X235070000Y-23095700D03*
G04 #@! TD*
D20*
G04 #@! TO.C,R45*
X166960000Y-57320000D03*
X168785000Y-57320000D03*
G04 #@! TD*
D19*
G04 #@! TO.C,R40*
X130628000Y-30232500D03*
X130628000Y-28407500D03*
G04 #@! TD*
G04 #@! TO.C,R62*
X214099000Y-40732500D03*
X214099000Y-38907500D03*
G04 #@! TD*
D20*
G04 #@! TO.C,R154*
X56925000Y-92410000D03*
X58750000Y-92410000D03*
G04 #@! TD*
G04 #@! TO.C,R153*
X31675000Y-92410000D03*
X33500000Y-92410000D03*
G04 #@! TD*
D18*
G04 #@! TO.C,R111*
X130000000Y-96410000D03*
X128175000Y-96410000D03*
G04 #@! TD*
G04 #@! TO.C,R68*
X30500000Y-50910000D03*
X28675000Y-50910000D03*
G04 #@! TD*
D20*
G04 #@! TO.C,R107*
X102837500Y-115981400D03*
X104662500Y-115981400D03*
G04 #@! TD*
D18*
G04 #@! TO.C,R131*
X180412500Y-92410000D03*
X178587500Y-92410000D03*
G04 #@! TD*
D20*
G04 #@! TO.C,R140*
X178587500Y-115981400D03*
X180412500Y-115981400D03*
G04 #@! TD*
D24*
G04 #@! TO.C,U18*
X110350000Y-87360000D03*
X109080000Y-87360000D03*
X107810000Y-87360000D03*
X106540000Y-87360000D03*
X105270000Y-87360000D03*
X104000000Y-87360000D03*
X102730000Y-87360000D03*
X102730000Y-82410000D03*
X104000000Y-82410000D03*
X105270000Y-82410000D03*
X106540000Y-82410000D03*
X107810000Y-82410000D03*
X109080000Y-82410000D03*
X110350000Y-82410000D03*
G04 #@! TD*
D22*
G04 #@! TO.C,D46*
X231599000Y-27520000D03*
X231599000Y-30820000D03*
G04 #@! TD*
D20*
G04 #@! TO.C,R135*
X178587500Y-108124300D03*
X180412500Y-108124300D03*
G04 #@! TD*
D22*
G04 #@! TO.C,D47*
X235149000Y-27520000D03*
X235149000Y-30820000D03*
G04 #@! TD*
D18*
G04 #@! TO.C,R93*
X72000000Y-120910000D03*
X70175000Y-120910000D03*
G04 #@! TD*
D22*
G04 #@! TO.C,D4*
X38000000Y-27610000D03*
X38000000Y-30910000D03*
G04 #@! TD*
D19*
G04 #@! TO.C,R38*
X131128000Y-40732500D03*
X131128000Y-38907500D03*
G04 #@! TD*
D20*
G04 #@! TO.C,R118*
X128087500Y-115981400D03*
X129912500Y-115981400D03*
G04 #@! TD*
D23*
G04 #@! TO.C,C6*
X34000000Y-76410000D03*
X34000000Y-68410000D03*
G04 #@! TD*
D21*
G04 #@! TO.C,U25*
X215750000Y-92310000D03*
X215750000Y-93260000D03*
X215750000Y-94210000D03*
X213475000Y-94210000D03*
X213475000Y-93260000D03*
X213475000Y-92310000D03*
G04 #@! TD*
D20*
G04 #@! TO.C,R160*
X40087500Y-38910000D03*
X41912500Y-38910000D03*
G04 #@! TD*
G04 #@! TO.C,R70*
X19587500Y-115410000D03*
X21412500Y-115410000D03*
G04 #@! TD*
D18*
G04 #@! TO.C,R149*
X205662500Y-104195700D03*
X203837500Y-104195700D03*
G04 #@! TD*
D19*
G04 #@! TO.C,R56*
X185942000Y-30232500D03*
X185942000Y-28407500D03*
G04 #@! TD*
D20*
G04 #@! TO.C,R7*
X28675000Y-53910000D03*
X30500000Y-53910000D03*
G04 #@! TD*
G04 #@! TO.C,R5*
X28675000Y-57410000D03*
X30500000Y-57410000D03*
G04 #@! TD*
D18*
G04 #@! TO.C,R145*
X180412500Y-104195700D03*
X178587500Y-104195700D03*
G04 #@! TD*
D23*
G04 #@! TO.C,C1*
X103000000Y-76410000D03*
X103000000Y-68410000D03*
G04 #@! TD*
D21*
G04 #@! TO.C,U19*
X140000000Y-92310000D03*
X140000000Y-93260000D03*
X140000000Y-94210000D03*
X137725000Y-94210000D03*
X137725000Y-93260000D03*
X137725000Y-92310000D03*
G04 #@! TD*
D20*
G04 #@! TO.C,R39*
X139303000Y-53820000D03*
X141128000Y-53820000D03*
G04 #@! TD*
G04 #@! TO.C,R157*
X132675000Y-92410000D03*
X134500000Y-92410000D03*
G04 #@! TD*
G04 #@! TO.C,R43*
X166960000Y-60820000D03*
X168785000Y-60820000D03*
G04 #@! TD*
D18*
G04 #@! TO.C,R148*
X198250000Y-120910000D03*
X196425000Y-120910000D03*
G04 #@! TD*
D20*
G04 #@! TO.C,R128*
X153337500Y-112052900D03*
X155162500Y-112052900D03*
G04 #@! TD*
D24*
G04 #@! TO.C,U20*
X135600000Y-87360000D03*
X134330000Y-87360000D03*
X133060000Y-87360000D03*
X131790000Y-87360000D03*
X130520000Y-87360000D03*
X129250000Y-87360000D03*
X127980000Y-87360000D03*
X127980000Y-82410000D03*
X129250000Y-82410000D03*
X130520000Y-82410000D03*
X131790000Y-82410000D03*
X133060000Y-82410000D03*
X134330000Y-82410000D03*
X135600000Y-82410000D03*
G04 #@! TD*
G04 #@! TO.C,U22*
X160850000Y-87360000D03*
X159580000Y-87360000D03*
X158310000Y-87360000D03*
X157040000Y-87360000D03*
X155770000Y-87360000D03*
X154500000Y-87360000D03*
X153230000Y-87360000D03*
X153230000Y-82410000D03*
X154500000Y-82410000D03*
X155770000Y-82410000D03*
X157040000Y-82410000D03*
X158310000Y-82410000D03*
X159580000Y-82410000D03*
X160850000Y-82410000D03*
G04 #@! TD*
D21*
G04 #@! TO.C,U21*
X165250000Y-92310000D03*
X165250000Y-93260000D03*
X165250000Y-94210000D03*
X162975000Y-94210000D03*
X162975000Y-93260000D03*
X162975000Y-92310000D03*
G04 #@! TD*
D20*
G04 #@! TO.C,R158*
X157925000Y-92410000D03*
X159750000Y-92410000D03*
G04 #@! TD*
G04 #@! TO.C,R95*
X77587500Y-112052900D03*
X79412500Y-112052900D03*
G04 #@! TD*
D12*
G04 #@! TO.C,U2*
X240390000Y-73150000D03*
D26*
X241290000Y-73150000D03*
D12*
X240390000Y-75690000D03*
D26*
X241290000Y-75690000D03*
D11*
X240390000Y-78230000D03*
D26*
X241290000Y-78230000D03*
D12*
X240390000Y-80770000D03*
D26*
X241290000Y-80770000D03*
D12*
X240390000Y-83310000D03*
D26*
X241290000Y-83310000D03*
D12*
X240390000Y-85850000D03*
D26*
X241290000Y-85850000D03*
D12*
X240390000Y-88390000D03*
D26*
X241290000Y-88390000D03*
D11*
X240390000Y-90930000D03*
D26*
X241290000Y-90930000D03*
D12*
X240390000Y-93470000D03*
D26*
X241290000Y-93470000D03*
D12*
X240390000Y-96010000D03*
D26*
X241290000Y-96010000D03*
D12*
X240390000Y-98550000D03*
D26*
X241290000Y-98550000D03*
D12*
X240390000Y-101090000D03*
D26*
X241290000Y-101090000D03*
D11*
X240390000Y-103630000D03*
D26*
X241290000Y-103630000D03*
D12*
X240390000Y-106170000D03*
D26*
X241290000Y-106170000D03*
D12*
X240390000Y-108710000D03*
D26*
X241290000Y-108710000D03*
D12*
X240390000Y-111250000D03*
D26*
X241290000Y-111250000D03*
D12*
X240390000Y-113790000D03*
D26*
X241290000Y-113790000D03*
D11*
X240390000Y-116330000D03*
D26*
X241290000Y-116330000D03*
D12*
X240390000Y-118870000D03*
D26*
X241290000Y-118870000D03*
D12*
X240390000Y-121410000D03*
D26*
X241290000Y-121410000D03*
D12*
X222610000Y-121410000D03*
D26*
X221710000Y-121410000D03*
D12*
X222610000Y-118870000D03*
D26*
X221710000Y-118870000D03*
D11*
X222610000Y-116330000D03*
D26*
X221710000Y-116330000D03*
D12*
X222610000Y-113790000D03*
D26*
X221710000Y-113790000D03*
D12*
X222610000Y-111250000D03*
D26*
X221710000Y-111250000D03*
D12*
X222610000Y-108710000D03*
D26*
X221710000Y-108710000D03*
D12*
X222610000Y-106170000D03*
D26*
X221710000Y-106170000D03*
D11*
X222610000Y-103630000D03*
D26*
X221710000Y-103630000D03*
D12*
X222610000Y-101090000D03*
D26*
X221710000Y-101090000D03*
D12*
X222610000Y-98550000D03*
D26*
X221710000Y-98550000D03*
D12*
X222610000Y-96010000D03*
D26*
X221710000Y-96010000D03*
D12*
X222610000Y-93470000D03*
D26*
X221710000Y-93470000D03*
D11*
X222610000Y-90930000D03*
D26*
X221710000Y-90930000D03*
D12*
X222610000Y-88390000D03*
D26*
X221710000Y-88390000D03*
D12*
X222610000Y-85850000D03*
D26*
X221710000Y-85850000D03*
D12*
X222610000Y-83310000D03*
D26*
X221710000Y-83310000D03*
D12*
X222610000Y-80770000D03*
D26*
X221710000Y-80770000D03*
D11*
X222610000Y-78230000D03*
D26*
X221710000Y-78230000D03*
D12*
X222610000Y-75690000D03*
D26*
X221710000Y-75690000D03*
D12*
X222610000Y-73150000D03*
D26*
X221710000Y-73150000D03*
G04 #@! TD*
D22*
G04 #@! TO.C,D5*
X41550000Y-27610000D03*
X41550000Y-30910000D03*
G04 #@! TD*
D20*
G04 #@! TO.C,R163*
X123058500Y-38820000D03*
X124883500Y-38820000D03*
G04 #@! TD*
D18*
G04 #@! TO.C,R90*
X141128000Y-50820000D03*
X139303000Y-50820000D03*
G04 #@! TD*
D20*
G04 #@! TO.C,R59*
X222274000Y-60820000D03*
X224099000Y-60820000D03*
G04 #@! TD*
D19*
G04 #@! TO.C,R20*
X75814000Y-44732500D03*
X75814000Y-42907500D03*
G04 #@! TD*
G04 #@! TO.C,R8*
X20000000Y-30322500D03*
X20000000Y-28497500D03*
G04 #@! TD*
D20*
G04 #@! TO.C,R155*
X82175000Y-92410000D03*
X84000000Y-92410000D03*
G04 #@! TD*
G04 #@! TO.C,R124*
X153337500Y-108124300D03*
X155162500Y-108124300D03*
G04 #@! TD*
G04 #@! TO.C,R80*
X52337500Y-108124300D03*
X54162500Y-108124300D03*
G04 #@! TD*
D22*
G04 #@! TO.C,D10*
X65657000Y-27520000D03*
X65657000Y-30820000D03*
G04 #@! TD*
D20*
G04 #@! TO.C,R96*
X77587500Y-115981400D03*
X79412500Y-115981400D03*
G04 #@! TD*
G04 #@! TO.C,R55*
X194617000Y-53820000D03*
X196442000Y-53820000D03*
G04 #@! TD*
G04 #@! TO.C,R75*
X27000000Y-119910000D03*
X28825000Y-119910000D03*
G04 #@! TD*
G04 #@! TO.C,R35*
X139303000Y-60820000D03*
X141128000Y-60820000D03*
G04 #@! TD*
G04 #@! TO.C,R165*
X178372500Y-38820000D03*
X180197500Y-38820000D03*
G04 #@! TD*
D22*
G04 #@! TO.C,D28*
X148628000Y-27520000D03*
X148628000Y-30820000D03*
G04 #@! TD*
D25*
G04 #@! TO.C,C12*
X124442000Y-24995700D03*
X124442000Y-23095700D03*
G04 #@! TD*
D19*
G04 #@! TO.C,R64*
X213599000Y-30232500D03*
X213599000Y-28407500D03*
G04 #@! TD*
D18*
G04 #@! TO.C,R83*
X113471000Y-50820000D03*
X111646000Y-50820000D03*
G04 #@! TD*
D22*
G04 #@! TO.C,D35*
X179835000Y-27520000D03*
X179835000Y-30820000D03*
G04 #@! TD*
D25*
G04 #@! TO.C,C15*
X207413000Y-24995700D03*
X207413000Y-23095700D03*
G04 #@! TD*
D18*
G04 #@! TO.C,R133*
X180500000Y-96410000D03*
X178675000Y-96410000D03*
G04 #@! TD*
D20*
G04 #@! TO.C,R85*
X52337500Y-115981400D03*
X54162500Y-115981400D03*
G04 #@! TD*
D19*
G04 #@! TO.C,R32*
X102971000Y-30232500D03*
X102971000Y-28407500D03*
G04 #@! TD*
D24*
G04 #@! TO.C,U10*
X225409000Y-44270000D03*
X224139000Y-44270000D03*
X222869000Y-44270000D03*
X221599000Y-44270000D03*
X220329000Y-44270000D03*
X219059000Y-44270000D03*
X217789000Y-44270000D03*
X217789000Y-39320000D03*
X219059000Y-39320000D03*
X220329000Y-39320000D03*
X221599000Y-39320000D03*
X222869000Y-39320000D03*
X224139000Y-39320000D03*
X225409000Y-39320000D03*
G04 #@! TD*
D19*
G04 #@! TO.C,R54*
X186442000Y-40732500D03*
X186442000Y-38907500D03*
G04 #@! TD*
D20*
G04 #@! TO.C,R37*
X139303000Y-57320000D03*
X141128000Y-57320000D03*
G04 #@! TD*
G04 #@! TO.C,R69*
X27087500Y-108124300D03*
X28912500Y-108124300D03*
G04 #@! TD*
G04 #@! TO.C,R108*
X102750000Y-119910000D03*
X104575000Y-119910000D03*
G04 #@! TD*
D24*
G04 #@! TO.C,U26*
X211350000Y-87360000D03*
X210080000Y-87360000D03*
X208810000Y-87360000D03*
X207540000Y-87360000D03*
X206270000Y-87360000D03*
X205000000Y-87360000D03*
X203730000Y-87360000D03*
X203730000Y-82410000D03*
X205000000Y-82410000D03*
X206270000Y-82410000D03*
X207540000Y-82410000D03*
X208810000Y-82410000D03*
X210080000Y-82410000D03*
X211350000Y-82410000D03*
G04 #@! TD*
D19*
G04 #@! TO.C,R28*
X103471000Y-44732500D03*
X103471000Y-42907500D03*
G04 #@! TD*
D20*
G04 #@! TO.C,R156*
X107425000Y-92410000D03*
X109250000Y-92410000D03*
G04 #@! TD*
D22*
G04 #@! TO.C,D16*
X93314000Y-27520000D03*
X93314000Y-30820000D03*
G04 #@! TD*
D20*
G04 #@! TO.C,R150*
X203837500Y-112052900D03*
X205662500Y-112052900D03*
G04 #@! TD*
D21*
G04 #@! TO.C,U15*
X89500000Y-92310000D03*
X89500000Y-93260000D03*
X89500000Y-94210000D03*
X87225000Y-94210000D03*
X87225000Y-93260000D03*
X87225000Y-92310000D03*
G04 #@! TD*
D18*
G04 #@! TO.C,R109*
X129912500Y-92410000D03*
X128087500Y-92410000D03*
G04 #@! TD*
D23*
G04 #@! TO.C,C8*
X23000000Y-76410000D03*
X23000000Y-68410000D03*
G04 #@! TD*
D20*
G04 #@! TO.C,R106*
X102837500Y-112052900D03*
X104662500Y-112052900D03*
G04 #@! TD*
G04 #@! TO.C,R15*
X56332000Y-53820000D03*
X58157000Y-53820000D03*
G04 #@! TD*
D23*
G04 #@! TO.C,C3*
X92000000Y-76410000D03*
X92000000Y-68410000D03*
G04 #@! TD*
D25*
G04 #@! TO.C,C10*
X69128000Y-24995700D03*
X69128000Y-23095700D03*
G04 #@! TD*
D18*
G04 #@! TO.C,R127*
X104662500Y-104195700D03*
X102837500Y-104195700D03*
G04 #@! TD*
D20*
G04 #@! TO.C,R103*
X95337500Y-115410000D03*
X97162500Y-115410000D03*
G04 #@! TD*
D19*
G04 #@! TO.C,R36*
X131128000Y-44732500D03*
X131128000Y-42907500D03*
G04 #@! TD*
D25*
G04 #@! TO.C,C11*
X96785000Y-24995700D03*
X96785000Y-23095700D03*
G04 #@! TD*
D18*
G04 #@! TO.C,R78*
X54250000Y-96410000D03*
X52425000Y-96410000D03*
G04 #@! TD*
G04 #@! TO.C,R134*
X129912500Y-104195700D03*
X128087500Y-104195700D03*
G04 #@! TD*
D20*
G04 #@! TO.C,R146*
X203837500Y-108124300D03*
X205662500Y-108124300D03*
G04 #@! TD*
D18*
G04 #@! TO.C,R126*
X147750000Y-120910000D03*
X145925000Y-120910000D03*
G04 #@! TD*
D25*
G04 #@! TO.C,C9*
X41471000Y-25085700D03*
X41471000Y-23185700D03*
G04 #@! TD*
D24*
G04 #@! TO.C,U24*
X186100000Y-87360000D03*
X184830000Y-87360000D03*
X183560000Y-87360000D03*
X182290000Y-87360000D03*
X181020000Y-87360000D03*
X179750000Y-87360000D03*
X178480000Y-87360000D03*
X178480000Y-82410000D03*
X179750000Y-82410000D03*
X181020000Y-82410000D03*
X182290000Y-82410000D03*
X183560000Y-82410000D03*
X184830000Y-82410000D03*
X186100000Y-82410000D03*
G04 #@! TD*
D18*
G04 #@! TO.C,R76*
X54162500Y-92410000D03*
X52337500Y-92410000D03*
G04 #@! TD*
D20*
G04 #@! TO.C,R23*
X83989000Y-53820000D03*
X85814000Y-53820000D03*
G04 #@! TD*
D19*
G04 #@! TO.C,R24*
X75314000Y-30232500D03*
X75314000Y-28407500D03*
G04 #@! TD*
D20*
G04 #@! TO.C,R3*
X28675000Y-60910000D03*
X30500000Y-60910000D03*
G04 #@! TD*
G04 #@! TO.C,R86*
X52250000Y-119910000D03*
X54075000Y-119910000D03*
G04 #@! TD*
D25*
G04 #@! TO.C,C13*
X152099000Y-24995700D03*
X152099000Y-23095700D03*
G04 #@! TD*
D19*
G04 #@! TO.C,R60*
X214099000Y-44732500D03*
X214099000Y-42907500D03*
G04 #@! TD*
D20*
G04 #@! TO.C,R119*
X128000000Y-119910000D03*
X129825000Y-119910000D03*
G04 #@! TD*
G04 #@! TO.C,R166*
X206029500Y-38820000D03*
X207854500Y-38820000D03*
G04 #@! TD*
D18*
G04 #@! TO.C,R67*
X29000000Y-96410000D03*
X27175000Y-96410000D03*
G04 #@! TD*
D23*
G04 #@! TO.C,C7*
X67000000Y-76410000D03*
X67000000Y-68410000D03*
G04 #@! TD*
D20*
G04 #@! TO.C,R159*
X183175000Y-92410000D03*
X185000000Y-92410000D03*
G04 #@! TD*
D22*
G04 #@! TO.C,D23*
X124521000Y-27520000D03*
X124521000Y-30820000D03*
G04 #@! TD*
D20*
G04 #@! TO.C,R29*
X111646000Y-57320000D03*
X113471000Y-57320000D03*
G04 #@! TD*
D22*
G04 #@! TO.C,D17*
X96864000Y-27520000D03*
X96864000Y-30820000D03*
G04 #@! TD*
G04 #@! TO.C,D22*
X120971000Y-27520000D03*
X120971000Y-30820000D03*
G04 #@! TD*
D24*
G04 #@! TO.C,U14*
X59850000Y-87360000D03*
X58580000Y-87360000D03*
X57310000Y-87360000D03*
X56040000Y-87360000D03*
X54770000Y-87360000D03*
X53500000Y-87360000D03*
X52230000Y-87360000D03*
X52230000Y-82410000D03*
X53500000Y-82410000D03*
X54770000Y-82410000D03*
X56040000Y-82410000D03*
X57310000Y-82410000D03*
X58580000Y-82410000D03*
X59850000Y-82410000D03*
G04 #@! TD*
D19*
G04 #@! TO.C,R44*
X158785000Y-44732500D03*
X158785000Y-42907500D03*
G04 #@! TD*
D24*
G04 #@! TO.C,U8*
X170095000Y-44270000D03*
X168825000Y-44270000D03*
X167555000Y-44270000D03*
X166285000Y-44270000D03*
X165015000Y-44270000D03*
X163745000Y-44270000D03*
X162475000Y-44270000D03*
X162475000Y-39320000D03*
X163745000Y-39320000D03*
X165015000Y-39320000D03*
X166285000Y-39320000D03*
X167555000Y-39320000D03*
X168825000Y-39320000D03*
X170095000Y-39320000D03*
G04 #@! TD*
D20*
G04 #@! TO.C,R130*
X153250000Y-119910000D03*
X155075000Y-119910000D03*
G04 #@! TD*
D18*
G04 #@! TO.C,R144*
X205750000Y-96410000D03*
X203925000Y-96410000D03*
G04 #@! TD*
G04 #@! TO.C,R137*
X173000000Y-120910000D03*
X171175000Y-120910000D03*
G04 #@! TD*
D22*
G04 #@! TO.C,D34*
X176285000Y-27520000D03*
X176285000Y-30820000D03*
G04 #@! TD*
D20*
G04 #@! TO.C,R102*
X102837500Y-108124300D03*
X104662500Y-108124300D03*
G04 #@! TD*
D18*
G04 #@! TO.C,R72*
X58157000Y-50820000D03*
X56332000Y-50820000D03*
G04 #@! TD*
D20*
G04 #@! TO.C,R162*
X95401500Y-38820000D03*
X97226500Y-38820000D03*
G04 #@! TD*
D18*
G04 #@! TO.C,R105*
X224099000Y-50820000D03*
X222274000Y-50820000D03*
G04 #@! TD*
D19*
G04 #@! TO.C,R48*
X158285000Y-30232500D03*
X158285000Y-28407500D03*
G04 #@! TD*
D20*
G04 #@! TO.C,R13*
X56332000Y-57320000D03*
X58157000Y-57320000D03*
G04 #@! TD*
G04 #@! TO.C,R151*
X203837500Y-115981400D03*
X205662500Y-115981400D03*
G04 #@! TD*
G04 #@! TO.C,R113*
X128087500Y-108124300D03*
X129912500Y-108124300D03*
G04 #@! TD*
D18*
G04 #@! TO.C,R71*
X21500000Y-120910000D03*
X19675000Y-120910000D03*
G04 #@! TD*
G04 #@! TO.C,R112*
X28912500Y-104195700D03*
X27087500Y-104195700D03*
G04 #@! TD*
D22*
G04 #@! TO.C,D11*
X69207000Y-27520000D03*
X69207000Y-30820000D03*
G04 #@! TD*
D20*
G04 #@! TO.C,R167*
X233686500Y-38820000D03*
X235511500Y-38820000D03*
G04 #@! TD*
D18*
G04 #@! TO.C,R115*
X122500000Y-120910000D03*
X120675000Y-120910000D03*
G04 #@! TD*
D24*
G04 #@! TO.C,U6*
X114781000Y-44270000D03*
X113511000Y-44270000D03*
X112241000Y-44270000D03*
X110971000Y-44270000D03*
X109701000Y-44270000D03*
X108431000Y-44270000D03*
X107161000Y-44270000D03*
X107161000Y-39320000D03*
X108431000Y-39320000D03*
X109701000Y-39320000D03*
X110971000Y-39320000D03*
X112241000Y-39320000D03*
X113511000Y-39320000D03*
X114781000Y-39320000D03*
G04 #@! TD*
G04 #@! TO.C,U12*
X34600000Y-87360000D03*
X33330000Y-87360000D03*
X32060000Y-87360000D03*
X30790000Y-87360000D03*
X29520000Y-87360000D03*
X28250000Y-87360000D03*
X26980000Y-87360000D03*
X26980000Y-82410000D03*
X28250000Y-82410000D03*
X29520000Y-82410000D03*
X30790000Y-82410000D03*
X32060000Y-82410000D03*
X33330000Y-82410000D03*
X34600000Y-82410000D03*
G04 #@! TD*
D18*
G04 #@! TO.C,R82*
X46750000Y-120910000D03*
X44925000Y-120910000D03*
G04 #@! TD*
D20*
G04 #@! TO.C,R91*
X77587500Y-108124300D03*
X79412500Y-108124300D03*
G04 #@! TD*
D21*
G04 #@! TO.C,U17*
X114750000Y-92310000D03*
X114750000Y-93260000D03*
X114750000Y-94210000D03*
X112475000Y-94210000D03*
X112475000Y-93260000D03*
X112475000Y-92310000D03*
G04 #@! TD*
D18*
G04 #@! TO.C,R87*
X79412500Y-92410000D03*
X77587500Y-92410000D03*
G04 #@! TD*
D24*
G04 #@! TO.C,U16*
X85100000Y-87360000D03*
X83830000Y-87360000D03*
X82560000Y-87360000D03*
X81290000Y-87360000D03*
X80020000Y-87360000D03*
X78750000Y-87360000D03*
X77480000Y-87360000D03*
X77480000Y-82410000D03*
X78750000Y-82410000D03*
X80020000Y-82410000D03*
X81290000Y-82410000D03*
X82560000Y-82410000D03*
X83830000Y-82410000D03*
X85100000Y-82410000D03*
G04 #@! TD*
D18*
G04 #@! TO.C,R89*
X79500000Y-96410000D03*
X77675000Y-96410000D03*
G04 #@! TD*
G04 #@! TO.C,R104*
X97250000Y-120910000D03*
X95425000Y-120910000D03*
G04 #@! TD*
D20*
G04 #@! TO.C,R92*
X70087500Y-115410000D03*
X71912500Y-115410000D03*
G04 #@! TD*
D22*
G04 #@! TO.C,D40*
X203942000Y-27520000D03*
X203942000Y-30820000D03*
G04 #@! TD*
D19*
G04 #@! TO.C,R14*
X48157000Y-40732500D03*
X48157000Y-38907500D03*
G04 #@! TD*
D20*
G04 #@! TO.C,R47*
X166960000Y-53820000D03*
X168785000Y-53820000D03*
G04 #@! TD*
D18*
G04 #@! TO.C,R65*
X28912500Y-92410000D03*
X27087500Y-92410000D03*
G04 #@! TD*
D19*
G04 #@! TO.C,R6*
X20500000Y-40822500D03*
X20500000Y-38997500D03*
G04 #@! TD*
D18*
G04 #@! TO.C,R142*
X205662500Y-92410000D03*
X203837500Y-92410000D03*
G04 #@! TD*
G04 #@! TO.C,R120*
X155162500Y-92410000D03*
X153337500Y-92410000D03*
G04 #@! TD*
D20*
G04 #@! TO.C,R51*
X194617000Y-60820000D03*
X196442000Y-60820000D03*
G04 #@! TD*
M02*
