M48
; DRILL file {KiCad 9.0.0} date 2025-06-12T15:22:15-0400
; FORMAT={-:-/ absolute / metric / decimal}
; #@! TF.CreationDate,2025-06-12T15:22:15-04:00
; #@! TF.GenerationSoftware,Kicad,Pcbnew,9.0.0
; #@! TF.FileFunction,Plated,1,2,PTH
FMAT,2
METRIC
; #@! TA.AperFunction,Plated,PTH,ViaDrill
T1C0.300
; #@! TA.AperFunction,Plated,PTH,ComponentDrill
T2C0.900
; #@! TA.AperFunction,Plated,PTH,ComponentDrill
T3C1.000
; #@! TA.AperFunction,Plated,PTH,ComponentDrill
T4C1.020
; #@! TA.AperFunction,Plated,PTH,ComponentDrill
T5C1.220
; #@! TA.AperFunction,Plated,PTH,ComponentDrill
T6C1.420
; #@! TA.AperFunction,Plated,PTH,ComponentDrill
T7C1.430
; #@! TA.AperFunction,Plated,PTH,ComponentDrill
T8C1.800
%
G90
G05
T1
X19.587Y-115.41
X20.5Y-123.91
X22.125Y-40.801
X24.5Y-36.41
X25.0Y-91.91
X25.0Y-94.91
X26.35Y-39.41
X26.98Y-87.36
X27.175Y-96.41
X28.0Y-44.36
X28.912Y-92.41
X29.587Y-90.322
X30.467Y-49.41
X30.5Y-60.91
X30.79Y-87.36
X32.0Y-83.91
X33.33Y-82.41
X34.6Y-87.36
X35.0Y-93.41
X36.725Y-93.26
X38.0Y-27.61
X39.0Y-94.21
X44.837Y-115.41
X46.054Y-79.509
X46.75Y-123.41
X49.782Y-40.711
X50.25Y-91.91
X50.25Y-94.91
X52.157Y-36.32
X52.23Y-87.36
X52.425Y-96.41
X54.079Y-39.32
X54.162Y-92.41
X54.837Y-90.322
X55.657Y-44.27
X56.04Y-87.36
X57.0Y-63.91
X57.25Y-83.91
X58.124Y-49.32
X58.157Y-60.82
X58.58Y-82.41
X59.85Y-87.36
X60.25Y-93.41
X60.5Y-79.41
X61.975Y-92.31
X61.975Y-93.26
X64.25Y-94.21
X65.657Y-27.52
X65.697Y-62.607
X70.087Y-115.41
X72.0Y-123.41
X75.5Y-91.91
X75.5Y-94.91
X77.439Y-40.711
X77.48Y-87.36
X77.675Y-96.41
X79.412Y-92.41
X79.814Y-36.32
X80.087Y-90.322
X81.29Y-87.36
X82.044Y-39.32
X82.5Y-83.91
X83.314Y-44.27
X83.83Y-82.41
X85.0Y-63.91
X85.1Y-87.36
X85.5Y-93.41
X85.781Y-49.32
X87.225Y-93.26
X88.5Y-63.91
X89.5Y-79.91
X89.5Y-94.21
X93.314Y-27.52
X95.337Y-115.41
X97.25Y-123.41
X100.75Y-91.91
X100.75Y-94.91
X102.73Y-87.36
X102.925Y-96.41
X104.662Y-92.41
X105.096Y-40.711
X105.337Y-90.322
X106.54Y-87.36
X107.471Y-36.32
X107.75Y-83.91
X108.0Y-78.709
X108.0Y-79.91
X109.08Y-82.41
X109.328Y-39.32
X110.0Y-63.91
X110.5Y-87.41
X110.971Y-44.27
X111.0Y-93.41
X112.475Y-92.31
X112.475Y-93.26
X113.438Y-49.32
X113.5Y-63.91
X114.75Y-94.21
X115.05Y-67.64
X115.05Y-75.26
X115.05Y-76.53
X118.5Y-79.41
X120.587Y-115.41
X120.971Y-27.52
X122.5Y-123.41
X126.0Y-91.91
X126.0Y-94.91
X126.5Y-75.41
X127.98Y-87.36
X128.175Y-96.41
X129.912Y-92.41
X130.588Y-90.322
X131.79Y-87.36
X132.0Y-77.91
X132.753Y-40.711
X133.0Y-83.91
X134.33Y-82.41
X135.128Y-36.32
X135.6Y-87.36
X136.0Y-93.41
X137.358Y-39.32
X137.725Y-93.26
X138.628Y-44.27
X140.0Y-94.21
X141.095Y-49.32
X145.838Y-115.41
X147.75Y-123.41
X148.628Y-27.52
X151.25Y-91.91
X151.25Y-94.91
X153.23Y-87.36
X153.425Y-96.41
X155.162Y-92.41
X155.838Y-90.322
X157.0Y-77.91
X157.04Y-87.36
X158.25Y-83.91
X159.58Y-82.41
X160.41Y-40.711
X160.85Y-87.36
X161.25Y-93.41
X162.785Y-36.32
X162.975Y-93.26
X165.015Y-39.32
X165.25Y-94.21
X166.285Y-44.27
X168.752Y-49.32
X171.088Y-115.41
X173.0Y-122.545
X176.285Y-27.52
X176.5Y-91.91
X176.5Y-94.91
X178.48Y-87.36
X178.675Y-96.41
X180.412Y-92.41
X181.088Y-90.322
X182.29Y-87.36
X182.5Y-77.91
X183.5Y-83.91
X184.83Y-82.41
X186.1Y-87.36
X186.5Y-93.41
X188.067Y-40.711
X188.225Y-93.26
X190.442Y-36.32
X190.5Y-94.21
X192.672Y-39.32
X193.942Y-44.27
X196.337Y-115.41
X196.409Y-49.32
X198.25Y-122.51
X201.75Y-91.91
X201.75Y-94.91
X203.73Y-87.36
X203.925Y-96.41
X203.942Y-27.52
X205.662Y-92.41
X206.337Y-90.322
X207.5Y-77.91
X207.54Y-87.36
X208.75Y-83.91
X210.08Y-82.41
X211.35Y-87.36
X211.75Y-93.41
X213.475Y-92.31
X213.475Y-93.26
X214.0Y-73.845
X215.376Y-74.134
X215.724Y-40.711
X215.75Y-94.21
X217.5Y-80.91
X217.999Y-83.91
X218.0Y-108.41
X218.0Y-119.91
X218.099Y-36.32
X218.84Y-104.721
X220.329Y-39.32
X221.599Y-44.27
X224.0Y-113.41
X224.066Y-49.32
X224.099Y-60.82
X224.864Y-113.394
X225.371Y-112.039
X225.5Y-76.41
X225.5Y-81.41
X225.7Y-113.407
X226.45Y-111.439
X226.5Y-70.91
X226.5Y-113.41
X227.324Y-113.434
X227.501Y-110.839
X228.163Y-113.444
X228.5Y-110.239
X229.023Y-113.433
X229.5Y-109.639
X230.5Y-108.91
X231.5Y-104.781
X231.599Y-27.52
X231.627Y-107.967
X232.0Y-83.41
X236.096Y-90.91
X237.6Y-106.41
X239.5Y-70.41
X242.0Y-61.91
T2
X20.46Y-54.06
X20.46Y-57.41
X20.46Y-60.76
X20.46Y-100.0
X20.46Y-103.35
X20.46Y-106.7
X23.0Y-54.06
X23.0Y-57.41
X23.0Y-60.76
X23.0Y-100.0
X23.0Y-103.35
X23.0Y-106.7
X45.71Y-100.0
X45.71Y-103.35
X45.71Y-106.7
X48.117Y-53.97
X48.117Y-57.32
X48.117Y-60.67
X48.25Y-100.0
X48.25Y-103.35
X48.25Y-106.7
X50.657Y-53.97
X50.657Y-57.32
X50.657Y-60.67
X70.96Y-100.0
X70.96Y-103.35
X70.96Y-106.7
X73.5Y-100.0
X73.5Y-103.35
X73.5Y-106.7
X75.774Y-53.97
X75.774Y-57.32
X75.774Y-60.67
X78.314Y-53.97
X78.314Y-57.32
X78.314Y-60.67
X96.21Y-100.0
X96.21Y-103.35
X96.21Y-106.7
X98.75Y-100.0
X98.75Y-103.35
X98.75Y-106.7
X103.431Y-53.97
X103.431Y-57.32
X103.431Y-60.67
X105.971Y-53.97
X105.971Y-57.32
X105.971Y-60.67
X121.46Y-100.0
X121.46Y-103.35
X121.46Y-106.7
X124.0Y-100.0
X124.0Y-103.35
X124.0Y-106.7
X131.088Y-53.97
X131.088Y-57.32
X131.088Y-60.67
X133.628Y-53.97
X133.628Y-57.32
X133.628Y-60.67
X146.71Y-100.0
X146.71Y-103.35
X146.71Y-106.7
X149.25Y-100.0
X149.25Y-103.35
X149.25Y-106.7
X158.745Y-53.97
X158.745Y-57.32
X158.745Y-60.67
X161.285Y-53.97
X161.285Y-57.32
X161.285Y-60.67
X171.96Y-100.0
X171.96Y-103.35
X171.96Y-106.7
X174.5Y-100.0
X174.5Y-103.35
X174.5Y-106.7
X186.402Y-53.97
X186.402Y-57.32
X186.402Y-60.67
X188.942Y-53.97
X188.942Y-57.32
X188.942Y-60.67
X197.21Y-100.0
X197.21Y-103.35
X197.21Y-106.7
X199.75Y-100.0
X199.75Y-103.35
X199.75Y-106.7
X214.059Y-53.97
X214.059Y-57.32
X214.059Y-60.67
X216.599Y-53.97
X216.599Y-57.32
X216.599Y-60.67
T3
X23.06Y-24.41
X23.06Y-26.91
X23.06Y-29.41
X32.353Y-114.283
X32.445Y-120.18
X34.893Y-114.283
X34.985Y-120.18
X35.5Y-60.41
X37.433Y-114.283
X37.525Y-120.18
X38.04Y-60.41
X40.58Y-60.41
X50.717Y-24.32
X50.717Y-26.82
X50.717Y-29.32
X57.606Y-114.364
X57.695Y-120.18
X60.146Y-114.364
X60.235Y-120.18
X62.686Y-114.364
X62.775Y-120.18
X63.157Y-60.32
X65.697Y-60.32
X68.237Y-60.32
X78.374Y-24.32
X78.374Y-26.82
X78.374Y-29.32
X82.86Y-114.12
X82.945Y-120.18
X85.4Y-114.12
X85.485Y-120.18
X87.94Y-114.12
X88.025Y-120.18
X90.814Y-60.32
X93.354Y-60.32
X95.894Y-60.32
X106.031Y-24.32
X106.031Y-26.82
X106.031Y-29.32
X108.113Y-113.958
X108.195Y-120.18
X110.653Y-113.958
X110.735Y-120.18
X113.193Y-113.958
X113.275Y-120.18
X118.471Y-60.32
X121.011Y-60.32
X123.551Y-60.32
X133.367Y-114.202
X133.445Y-120.18
X133.688Y-24.32
X133.688Y-26.82
X133.688Y-29.32
X135.907Y-114.202
X135.985Y-120.18
X138.447Y-114.202
X138.525Y-120.18
X146.128Y-60.32
X148.668Y-60.32
X151.208Y-60.32
X158.621Y-114.039
X158.695Y-120.18
X161.161Y-114.039
X161.235Y-120.18
X161.345Y-24.32
X161.345Y-26.82
X161.345Y-29.32
X163.701Y-114.039
X163.775Y-120.18
X173.785Y-60.32
X176.325Y-60.32
X178.865Y-60.32
X183.874Y-114.445
X183.945Y-120.18
X186.414Y-114.445
X186.485Y-120.18
X188.954Y-114.445
X189.002Y-24.32
X189.002Y-26.82
X189.002Y-29.32
X189.025Y-120.18
X201.442Y-60.32
X203.982Y-60.32
X206.522Y-60.32
X209.128Y-113.877
X209.195Y-120.18
X211.668Y-113.877
X211.735Y-120.18
X214.208Y-113.877
X214.275Y-120.18
X216.659Y-24.32
X216.659Y-26.82
X216.659Y-29.32
X229.099Y-60.32
X231.639Y-60.32
X234.179Y-60.32
T4
X222.61Y-73.15
X222.61Y-75.69
X222.61Y-78.23
X222.61Y-80.77
X222.61Y-83.31
X222.61Y-85.85
X222.61Y-88.39
X222.61Y-90.93
X222.61Y-93.47
X222.61Y-96.01
X222.61Y-98.55
X222.61Y-101.09
X222.61Y-103.63
X222.61Y-106.17
X222.61Y-108.71
X222.61Y-111.25
X222.61Y-113.79
X222.61Y-116.33
X222.61Y-118.87
X222.61Y-121.41
X240.39Y-73.15
X240.39Y-75.69
X240.39Y-78.23
X240.39Y-80.77
X240.39Y-83.31
X240.39Y-85.85
X240.39Y-88.39
X240.39Y-90.93
X240.39Y-93.47
X240.39Y-96.01
X240.39Y-98.55
X240.39Y-101.09
X240.39Y-103.63
X240.39Y-106.17
X240.39Y-108.71
X240.39Y-111.25
X240.39Y-113.79
X240.39Y-116.33
X240.39Y-118.87
X240.39Y-121.41
T5
X35.0Y-97.0
X38.0Y-54.19
X60.25Y-97.0
X65.657Y-54.1
X85.5Y-97.0
X93.314Y-54.1
X110.75Y-97.0
X120.971Y-54.1
X136.0Y-97.0
X148.628Y-54.1
X161.25Y-97.0
X176.285Y-54.1
X186.5Y-97.0
X203.942Y-54.1
X211.75Y-97.0
X231.599Y-54.1
T6
X35.0Y-100.1
X38.0Y-51.09
X60.25Y-100.1
X65.657Y-51.0
X85.5Y-100.1
X93.314Y-51.0
X110.75Y-100.1
X120.971Y-51.0
X136.0Y-100.1
X148.628Y-51.0
X161.25Y-100.1
X176.285Y-51.0
X186.5Y-100.1
X203.942Y-51.0
X211.75Y-100.1
X231.599Y-51.0
T7
X35.0Y-108.4
X38.0Y-42.79
X60.25Y-108.4
X65.657Y-42.7
X85.5Y-108.4
X93.314Y-42.7
X110.75Y-108.4
X120.971Y-42.7
X136.0Y-108.4
X148.628Y-42.7
X161.25Y-108.4
X176.285Y-42.7
X186.5Y-108.4
X203.942Y-42.7
X211.75Y-108.4
X231.599Y-42.7
T8
G00X29.91Y-22.51
M15
G01X30.21Y-22.51
M16
G05
G00X29.91Y-31.31
M15
G01X30.21Y-31.31
M16
G05
G00X57.567Y-22.42
M15
G01X57.867Y-22.42
M16
G05
G00X57.567Y-31.22
M15
G01X57.867Y-31.22
M16
G05
G00X85.224Y-22.42
M15
G01X85.524Y-22.42
M16
G05
G00X85.224Y-31.22
M15
G01X85.524Y-31.22
M16
G05
G00X112.881Y-22.42
M15
G01X113.181Y-22.42
M16
G05
G00X112.881Y-31.22
M15
G01X113.181Y-31.22
M16
G05
G00X140.538Y-22.42
M15
G01X140.838Y-22.42
M16
G05
G00X140.538Y-31.22
M15
G01X140.838Y-31.22
M16
G05
G00X168.195Y-22.42
M15
G01X168.495Y-22.42
M16
G05
G00X168.195Y-31.22
M15
G01X168.495Y-31.22
M16
G05
G00X195.852Y-22.42
M15
G01X196.152Y-22.42
M16
G05
G00X195.852Y-31.22
M15
G01X196.152Y-31.22
M16
G05
G00X223.509Y-22.42
M15
G01X223.809Y-22.42
M16
G05
G00X223.509Y-31.22
M15
G01X223.809Y-31.22
M16
G05
M30
