G04 #@! TF.GenerationSoftware,KiCad,Pcbnew,9.0.0*
G04 #@! TF.CreationDate,2025-06-12T15:22:14-04:00*
G04 #@! TF.ProjectId,Oblique Palette 0.5.1 PCB Main,4f626c69-7175-4652-9050-616c65747465,rev?*
G04 #@! TF.SameCoordinates,Original*
G04 #@! TF.FileFunction,Other,User*
%FSLAX46Y46*%
G04 Gerber Fmt 4.6, Leading zero omitted, Abs format (unit mm)*
G04 Created by KiCad (PCBNEW 9.0.0) date 2025-06-12 15:22:14*
%MOMM*%
%LPD*%
G01*
G04 APERTURE LIST*
%ADD10C,0.050000*%
G04 APERTURE END LIST*
D10*
G04 #@! TO.C,J56*
X131675000Y-118380000D02*
X140325000Y-118380000D01*
X131675000Y-121930000D02*
X131675000Y-118380000D01*
X140325000Y-118380000D02*
X140325000Y-121930000D01*
X140325000Y-121930000D02*
X131675000Y-121930000D01*
G04 #@! TO.C,J2*
X30582763Y-112482794D02*
X30582763Y-116082794D01*
X30582763Y-116082794D02*
X39232763Y-116082794D01*
X39232763Y-112482794D02*
X30582763Y-112482794D01*
X39232763Y-116082794D02*
X39232763Y-112482794D01*
G04 #@! TO.C,RV2*
X49567000Y-20170000D02*
X49567000Y-33470000D01*
X49567000Y-33470000D02*
X63967000Y-33470000D01*
X63967000Y-20170000D02*
X49567000Y-20170000D01*
X63967000Y-33470000D02*
X63967000Y-20170000D01*
G04 #@! TO.C,D75*
X170670000Y-102200000D02*
X170670000Y-104500000D01*
X170670000Y-104500000D02*
X175790000Y-104500000D01*
X175790000Y-102200000D02*
X170670000Y-102200000D01*
X175790000Y-104500000D02*
X175790000Y-102200000D01*
G04 #@! TO.C,D2*
X19170000Y-59610000D02*
X19170000Y-61910000D01*
X19170000Y-61910000D02*
X24290000Y-61910000D01*
X24290000Y-59610000D02*
X19170000Y-59610000D01*
X24290000Y-61910000D02*
X24290000Y-59610000D01*
G04 #@! TO.C,RV3*
X77224000Y-20170000D02*
X77224000Y-33470000D01*
X77224000Y-33470000D02*
X91624000Y-33470000D01*
X91624000Y-20170000D02*
X77224000Y-20170000D01*
X91624000Y-33470000D02*
X91624000Y-20170000D01*
G04 #@! TO.C,J42*
X30000000Y-109980000D02*
X30000000Y-95580000D01*
X40000000Y-95580000D02*
X30000000Y-95580000D01*
X40000000Y-109980000D02*
X30000000Y-109980000D01*
X40000000Y-109980000D02*
X40000000Y-95580000D01*
G04 #@! TO.C,D67*
X120170000Y-102200000D02*
X120170000Y-104500000D01*
X120170000Y-104500000D02*
X125290000Y-104500000D01*
X125290000Y-102200000D02*
X120170000Y-102200000D01*
X125290000Y-104500000D02*
X125290000Y-102200000D01*
G04 #@! TO.C,J16*
X33730000Y-58610000D02*
X42380000Y-58610000D01*
X33730000Y-62160000D02*
X33730000Y-58610000D01*
X42380000Y-58610000D02*
X42380000Y-62160000D01*
X42380000Y-62160000D02*
X33730000Y-62160000D01*
G04 #@! TO.C,D58*
X69670000Y-105550000D02*
X69670000Y-107850000D01*
X69670000Y-107850000D02*
X74790000Y-107850000D01*
X74790000Y-105550000D02*
X69670000Y-105550000D01*
X74790000Y-107850000D02*
X74790000Y-105550000D01*
G04 #@! TO.C,D32*
X157455000Y-59520000D02*
X157455000Y-61820000D01*
X157455000Y-61820000D02*
X162575000Y-61820000D01*
X162575000Y-59520000D02*
X157455000Y-59520000D01*
X162575000Y-61820000D02*
X162575000Y-59520000D01*
G04 #@! TO.C,D18*
X74484000Y-52820000D02*
X74484000Y-55120000D01*
X74484000Y-55120000D02*
X79604000Y-55120000D01*
X79604000Y-52820000D02*
X74484000Y-52820000D01*
X79604000Y-55120000D02*
X79604000Y-52820000D01*
G04 #@! TO.C,D78*
X195920000Y-105550000D02*
X195920000Y-107850000D01*
X195920000Y-107850000D02*
X201040000Y-107850000D01*
X201040000Y-105550000D02*
X195920000Y-105550000D01*
X201040000Y-107850000D02*
X201040000Y-105550000D01*
G04 #@! TO.C,D56*
X44420000Y-98850000D02*
X44420000Y-101150000D01*
X44420000Y-101150000D02*
X49540000Y-101150000D01*
X49540000Y-98850000D02*
X44420000Y-98850000D01*
X49540000Y-101150000D02*
X49540000Y-98850000D01*
G04 #@! TO.C,RV8*
X215509000Y-20170000D02*
X215509000Y-33470000D01*
X215509000Y-33470000D02*
X229909000Y-33470000D01*
X229909000Y-20170000D02*
X215509000Y-20170000D01*
X229909000Y-33470000D02*
X229909000Y-20170000D01*
G04 #@! TO.C,D24*
X102141000Y-52820000D02*
X102141000Y-55120000D01*
X102141000Y-55120000D02*
X107261000Y-55120000D01*
X107261000Y-52820000D02*
X102141000Y-52820000D01*
X107261000Y-55120000D02*
X107261000Y-52820000D01*
G04 #@! TO.C,J46*
X55250000Y-109980000D02*
X55250000Y-95580000D01*
X65250000Y-95580000D02*
X55250000Y-95580000D01*
X65250000Y-109980000D02*
X55250000Y-109980000D01*
X65250000Y-109980000D02*
X65250000Y-95580000D01*
G04 #@! TO.C,J44*
X55925000Y-118380000D02*
X64575000Y-118380000D01*
X55925000Y-121930000D02*
X55925000Y-118380000D01*
X64575000Y-118380000D02*
X64575000Y-121930000D01*
X64575000Y-121930000D02*
X55925000Y-121930000D01*
G04 #@! TO.C,D48*
X212769000Y-52820000D02*
X212769000Y-55120000D01*
X212769000Y-55120000D02*
X217889000Y-55120000D01*
X217889000Y-52820000D02*
X212769000Y-52820000D01*
X217889000Y-55120000D02*
X217889000Y-52820000D01*
G04 #@! TO.C,D36*
X157455000Y-52820000D02*
X157455000Y-55120000D01*
X157455000Y-55120000D02*
X162575000Y-55120000D01*
X162575000Y-52820000D02*
X157455000Y-52820000D01*
X162575000Y-55120000D02*
X162575000Y-52820000D01*
G04 #@! TO.C,J31*
X172015000Y-58520000D02*
X180665000Y-58520000D01*
X172015000Y-62070000D02*
X172015000Y-58520000D01*
X180665000Y-58520000D02*
X180665000Y-62070000D01*
X180665000Y-62070000D02*
X172015000Y-62070000D01*
G04 #@! TO.C,J7*
X106343477Y-112158108D02*
X106343477Y-115758108D01*
X106343477Y-115758108D02*
X114993477Y-115758108D01*
X114993477Y-112158108D02*
X106343477Y-112158108D01*
X114993477Y-115758108D02*
X114993477Y-112158108D01*
G04 #@! TO.C,RV4*
X104881000Y-20170000D02*
X104881000Y-33470000D01*
X104881000Y-33470000D02*
X119281000Y-33470000D01*
X119281000Y-20170000D02*
X104881000Y-20170000D01*
X119281000Y-33470000D02*
X119281000Y-20170000D01*
G04 #@! TO.C,D38*
X185112000Y-59520000D02*
X185112000Y-61820000D01*
X185112000Y-61820000D02*
X190232000Y-61820000D01*
X190232000Y-59520000D02*
X185112000Y-59520000D01*
X190232000Y-61820000D02*
X190232000Y-59520000D01*
G04 #@! TO.C,J13*
X182104192Y-112645137D02*
X182104192Y-116245137D01*
X182104192Y-116245137D02*
X190754192Y-116245137D01*
X190754192Y-112645137D02*
X182104192Y-112645137D01*
X190754192Y-116245137D02*
X190754192Y-112645137D01*
G04 #@! TO.C,D76*
X170670000Y-98850000D02*
X170670000Y-101150000D01*
X170670000Y-101150000D02*
X175790000Y-101150000D01*
X175790000Y-98850000D02*
X170670000Y-98850000D01*
X175790000Y-101150000D02*
X175790000Y-98850000D01*
G04 #@! TO.C,D66*
X120170000Y-105550000D02*
X120170000Y-107850000D01*
X120170000Y-107850000D02*
X125290000Y-107850000D01*
X125290000Y-105550000D02*
X120170000Y-105550000D01*
X125290000Y-107850000D02*
X125290000Y-105550000D01*
G04 #@! TO.C,J11*
X156850620Y-112239279D02*
X156850620Y-115839279D01*
X156850620Y-115839279D02*
X165500620Y-115839279D01*
X165500620Y-112239279D02*
X156850620Y-112239279D01*
X165500620Y-115839279D02*
X165500620Y-112239279D01*
G04 #@! TO.C,D64*
X94920000Y-98850000D02*
X94920000Y-101150000D01*
X94920000Y-101150000D02*
X100040000Y-101150000D01*
X100040000Y-98850000D02*
X94920000Y-98850000D01*
X100040000Y-101150000D02*
X100040000Y-98850000D01*
G04 #@! TO.C,RV5*
X132538000Y-20170000D02*
X132538000Y-33470000D01*
X132538000Y-33470000D02*
X146938000Y-33470000D01*
X146938000Y-20170000D02*
X132538000Y-20170000D01*
X146938000Y-33470000D02*
X146938000Y-20170000D01*
G04 #@! TO.C,D8*
X46827000Y-59520000D02*
X46827000Y-61820000D01*
X46827000Y-61820000D02*
X51947000Y-61820000D01*
X51947000Y-59520000D02*
X46827000Y-59520000D01*
X51947000Y-61820000D02*
X51947000Y-59520000D01*
G04 #@! TO.C,J4*
X55836334Y-112563965D02*
X55836334Y-116163965D01*
X55836334Y-116163965D02*
X64486334Y-116163965D01*
X64486334Y-112563965D02*
X55836334Y-112563965D01*
X64486334Y-116163965D02*
X64486334Y-112563965D01*
G04 #@! TO.C,D71*
X145420000Y-102200000D02*
X145420000Y-104500000D01*
X145420000Y-104500000D02*
X150540000Y-104500000D01*
X150540000Y-102200000D02*
X145420000Y-102200000D01*
X150540000Y-104500000D02*
X150540000Y-102200000D01*
G04 #@! TO.C,J25*
X116701000Y-58520000D02*
X125351000Y-58520000D01*
X116701000Y-62070000D02*
X116701000Y-58520000D01*
X125351000Y-58520000D02*
X125351000Y-62070000D01*
X125351000Y-62070000D02*
X116701000Y-62070000D01*
G04 #@! TO.C,J14*
X207357763Y-112076936D02*
X207357763Y-115676936D01*
X207357763Y-115676936D02*
X216007763Y-115676936D01*
X216007763Y-112076936D02*
X207357763Y-112076936D01*
X216007763Y-115676936D02*
X216007763Y-112076936D01*
G04 #@! TO.C,J17*
X33000000Y-41210000D02*
X33000000Y-55610000D01*
X33000000Y-41210000D02*
X43000000Y-41210000D01*
X33000000Y-55610000D02*
X43000000Y-55610000D01*
X43000000Y-41210000D02*
X43000000Y-55610000D01*
G04 #@! TO.C,D74*
X170670000Y-105550000D02*
X170670000Y-107850000D01*
X170670000Y-107850000D02*
X175790000Y-107850000D01*
X175790000Y-105550000D02*
X170670000Y-105550000D01*
X175790000Y-107850000D02*
X175790000Y-105550000D01*
G04 #@! TO.C,D68*
X120170000Y-98850000D02*
X120170000Y-101150000D01*
X120170000Y-101150000D02*
X125290000Y-101150000D01*
X125290000Y-98850000D02*
X120170000Y-98850000D01*
X125290000Y-101150000D02*
X125290000Y-98850000D01*
G04 #@! TO.C,J20*
X60657000Y-41120000D02*
X60657000Y-55520000D01*
X60657000Y-41120000D02*
X70657000Y-41120000D01*
X60657000Y-55520000D02*
X70657000Y-55520000D01*
X70657000Y-41120000D02*
X70657000Y-55520000D01*
G04 #@! TO.C,J40*
X30675000Y-118380000D02*
X39325000Y-118380000D01*
X30675000Y-121930000D02*
X30675000Y-118380000D01*
X39325000Y-118380000D02*
X39325000Y-121930000D01*
X39325000Y-121930000D02*
X30675000Y-121930000D01*
G04 #@! TO.C,J9*
X131597049Y-112401622D02*
X131597049Y-116001622D01*
X131597049Y-116001622D02*
X140247049Y-116001622D01*
X140247049Y-112401622D02*
X131597049Y-112401622D01*
X140247049Y-116001622D02*
X140247049Y-112401622D01*
G04 #@! TO.C,D80*
X195920000Y-98850000D02*
X195920000Y-101150000D01*
X195920000Y-101150000D02*
X201040000Y-101150000D01*
X201040000Y-98850000D02*
X195920000Y-98850000D01*
X201040000Y-101150000D02*
X201040000Y-98850000D01*
G04 #@! TO.C,D3*
X19170000Y-56260000D02*
X19170000Y-58560000D01*
X19170000Y-58560000D02*
X24290000Y-58560000D01*
X24290000Y-56260000D02*
X19170000Y-56260000D01*
X24290000Y-58560000D02*
X24290000Y-56260000D01*
G04 #@! TO.C,D62*
X94920000Y-105550000D02*
X94920000Y-107850000D01*
X94920000Y-107850000D02*
X100040000Y-107850000D01*
X100040000Y-105550000D02*
X94920000Y-105550000D01*
X100040000Y-107850000D02*
X100040000Y-105550000D01*
G04 #@! TO.C,D50*
X19170000Y-105550000D02*
X19170000Y-107850000D01*
X19170000Y-107850000D02*
X24290000Y-107850000D01*
X24290000Y-105550000D02*
X19170000Y-105550000D01*
X24290000Y-107850000D02*
X24290000Y-105550000D01*
G04 #@! TO.C,J32*
X171285000Y-41120000D02*
X171285000Y-55520000D01*
X171285000Y-41120000D02*
X181285000Y-41120000D01*
X171285000Y-55520000D02*
X181285000Y-55520000D01*
X181285000Y-41120000D02*
X181285000Y-55520000D01*
G04 #@! TO.C,D15*
X74484000Y-56170000D02*
X74484000Y-58470000D01*
X74484000Y-58470000D02*
X79604000Y-58470000D01*
X79604000Y-56170000D02*
X74484000Y-56170000D01*
X79604000Y-58470000D02*
X79604000Y-56170000D01*
G04 #@! TO.C,J22*
X89044000Y-58520000D02*
X97694000Y-58520000D01*
X89044000Y-62070000D02*
X89044000Y-58520000D01*
X97694000Y-58520000D02*
X97694000Y-62070000D01*
X97694000Y-62070000D02*
X89044000Y-62070000D01*
G04 #@! TO.C,J66*
X181500000Y-109980000D02*
X181500000Y-95580000D01*
X191500000Y-95580000D02*
X181500000Y-95580000D01*
X191500000Y-109980000D02*
X181500000Y-109980000D01*
X191500000Y-109980000D02*
X191500000Y-95580000D01*
G04 #@! TO.C,J28*
X144358000Y-58520000D02*
X153008000Y-58520000D01*
X144358000Y-62070000D02*
X144358000Y-58520000D01*
X153008000Y-58520000D02*
X153008000Y-62070000D01*
X153008000Y-62070000D02*
X144358000Y-62070000D01*
G04 #@! TO.C,D14*
X74484000Y-59520000D02*
X74484000Y-61820000D01*
X74484000Y-61820000D02*
X79604000Y-61820000D01*
X79604000Y-59520000D02*
X74484000Y-59520000D01*
X79604000Y-61820000D02*
X79604000Y-59520000D01*
G04 #@! TO.C,RV6*
X160195000Y-20170000D02*
X160195000Y-33470000D01*
X160195000Y-33470000D02*
X174595000Y-33470000D01*
X174595000Y-20170000D02*
X160195000Y-20170000D01*
X174595000Y-33470000D02*
X174595000Y-20170000D01*
G04 #@! TO.C,D59*
X69670000Y-102200000D02*
X69670000Y-104500000D01*
X69670000Y-104500000D02*
X74790000Y-104500000D01*
X74790000Y-102200000D02*
X69670000Y-102200000D01*
X74790000Y-104500000D02*
X74790000Y-102200000D01*
G04 #@! TO.C,J62*
X156250000Y-109980000D02*
X156250000Y-95580000D01*
X166250000Y-95580000D02*
X156250000Y-95580000D01*
X166250000Y-109980000D02*
X156250000Y-109980000D01*
X166250000Y-109980000D02*
X166250000Y-95580000D01*
G04 #@! TO.C,D60*
X69670000Y-98850000D02*
X69670000Y-101150000D01*
X69670000Y-101150000D02*
X74790000Y-101150000D01*
X74790000Y-98850000D02*
X69670000Y-98850000D01*
X74790000Y-101150000D02*
X74790000Y-98850000D01*
G04 #@! TO.C,J19*
X61387000Y-58520000D02*
X70037000Y-58520000D01*
X61387000Y-62070000D02*
X61387000Y-58520000D01*
X70037000Y-58520000D02*
X70037000Y-62070000D01*
X70037000Y-62070000D02*
X61387000Y-62070000D01*
G04 #@! TO.C,D30*
X129798000Y-52820000D02*
X129798000Y-55120000D01*
X129798000Y-55120000D02*
X134918000Y-55120000D01*
X134918000Y-52820000D02*
X129798000Y-52820000D01*
X134918000Y-55120000D02*
X134918000Y-52820000D01*
G04 #@! TO.C,D63*
X94920000Y-102200000D02*
X94920000Y-104500000D01*
X94920000Y-104500000D02*
X100040000Y-104500000D01*
X100040000Y-102200000D02*
X94920000Y-102200000D01*
X100040000Y-104500000D02*
X100040000Y-102200000D01*
G04 #@! TO.C,J64*
X182175000Y-118380000D02*
X190825000Y-118380000D01*
X182175000Y-121930000D02*
X182175000Y-118380000D01*
X190825000Y-118380000D02*
X190825000Y-121930000D01*
X190825000Y-121930000D02*
X182175000Y-121930000D01*
G04 #@! TO.C,D42*
X185112000Y-52820000D02*
X185112000Y-55120000D01*
X185112000Y-55120000D02*
X190232000Y-55120000D01*
X190232000Y-52820000D02*
X185112000Y-52820000D01*
X190232000Y-55120000D02*
X190232000Y-52820000D01*
G04 #@! TO.C,J34*
X199672000Y-58520000D02*
X208322000Y-58520000D01*
X199672000Y-62070000D02*
X199672000Y-58520000D01*
X208322000Y-58520000D02*
X208322000Y-62070000D01*
X208322000Y-62070000D02*
X199672000Y-62070000D01*
G04 #@! TO.C,J35*
X198942000Y-41120000D02*
X198942000Y-55520000D01*
X198942000Y-41120000D02*
X208942000Y-41120000D01*
X198942000Y-55520000D02*
X208942000Y-55520000D01*
X208942000Y-41120000D02*
X208942000Y-55520000D01*
G04 #@! TO.C,J23*
X88314000Y-41120000D02*
X88314000Y-55520000D01*
X88314000Y-41120000D02*
X98314000Y-41120000D01*
X88314000Y-55520000D02*
X98314000Y-55520000D01*
X98314000Y-41120000D02*
X98314000Y-55520000D01*
G04 #@! TO.C,J68*
X207425000Y-118380000D02*
X216075000Y-118380000D01*
X207425000Y-121930000D02*
X207425000Y-118380000D01*
X216075000Y-118380000D02*
X216075000Y-121930000D01*
X216075000Y-121930000D02*
X207425000Y-121930000D01*
G04 #@! TO.C,J29*
X143628000Y-41120000D02*
X143628000Y-55520000D01*
X143628000Y-41120000D02*
X153628000Y-41120000D01*
X143628000Y-55520000D02*
X153628000Y-55520000D01*
X153628000Y-41120000D02*
X153628000Y-55520000D01*
G04 #@! TO.C,D26*
X129798000Y-59520000D02*
X129798000Y-61820000D01*
X129798000Y-61820000D02*
X134918000Y-61820000D01*
X134918000Y-59520000D02*
X129798000Y-59520000D01*
X134918000Y-61820000D02*
X134918000Y-59520000D01*
G04 #@! TO.C,J58*
X131000000Y-109980000D02*
X131000000Y-95580000D01*
X141000000Y-95580000D02*
X131000000Y-95580000D01*
X141000000Y-109980000D02*
X131000000Y-109980000D01*
X141000000Y-109980000D02*
X141000000Y-95580000D01*
G04 #@! TO.C,D20*
X102141000Y-59520000D02*
X102141000Y-61820000D01*
X102141000Y-61820000D02*
X107261000Y-61820000D01*
X107261000Y-59520000D02*
X102141000Y-59520000D01*
X107261000Y-61820000D02*
X107261000Y-59520000D01*
G04 #@! TO.C,RV1*
X21910000Y-20260000D02*
X21910000Y-33560000D01*
X21910000Y-33560000D02*
X36310000Y-33560000D01*
X36310000Y-20260000D02*
X21910000Y-20260000D01*
X36310000Y-33560000D02*
X36310000Y-20260000D01*
G04 #@! TO.C,J70*
X206750000Y-109980000D02*
X206750000Y-95580000D01*
X216750000Y-95580000D02*
X206750000Y-95580000D01*
X216750000Y-109980000D02*
X206750000Y-109980000D01*
X216750000Y-109980000D02*
X216750000Y-95580000D01*
G04 #@! TO.C,D21*
X102141000Y-56170000D02*
X102141000Y-58470000D01*
X102141000Y-58470000D02*
X107261000Y-58470000D01*
X107261000Y-56170000D02*
X102141000Y-56170000D01*
X107261000Y-58470000D02*
X107261000Y-56170000D01*
G04 #@! TO.C,D45*
X212769000Y-56170000D02*
X212769000Y-58470000D01*
X212769000Y-58470000D02*
X217889000Y-58470000D01*
X217889000Y-56170000D02*
X212769000Y-56170000D01*
X217889000Y-58470000D02*
X217889000Y-56170000D01*
G04 #@! TO.C,J26*
X115971000Y-41120000D02*
X115971000Y-55520000D01*
X115971000Y-41120000D02*
X125971000Y-41120000D01*
X115971000Y-55520000D02*
X125971000Y-55520000D01*
X125971000Y-41120000D02*
X125971000Y-55520000D01*
G04 #@! TO.C,D72*
X145420000Y-98850000D02*
X145420000Y-101150000D01*
X145420000Y-101150000D02*
X150540000Y-101150000D01*
X150540000Y-98850000D02*
X145420000Y-98850000D01*
X150540000Y-101150000D02*
X150540000Y-98850000D01*
G04 #@! TO.C,D44*
X212769000Y-59520000D02*
X212769000Y-61820000D01*
X212769000Y-61820000D02*
X217889000Y-61820000D01*
X217889000Y-59520000D02*
X212769000Y-59520000D01*
X217889000Y-61820000D02*
X217889000Y-59520000D01*
G04 #@! TO.C,D55*
X44420000Y-102200000D02*
X44420000Y-104500000D01*
X44420000Y-104500000D02*
X49540000Y-104500000D01*
X49540000Y-102200000D02*
X44420000Y-102200000D01*
X49540000Y-104500000D02*
X49540000Y-102200000D01*
G04 #@! TO.C,D39*
X185112000Y-56170000D02*
X185112000Y-58470000D01*
X185112000Y-58470000D02*
X190232000Y-58470000D01*
X190232000Y-56170000D02*
X185112000Y-56170000D01*
X190232000Y-58470000D02*
X190232000Y-56170000D01*
G04 #@! TO.C,J38*
X226599000Y-41120000D02*
X226599000Y-55520000D01*
X226599000Y-41120000D02*
X236599000Y-41120000D01*
X226599000Y-55520000D02*
X236599000Y-55520000D01*
X236599000Y-41120000D02*
X236599000Y-55520000D01*
G04 #@! TO.C,J37*
X227329000Y-58520000D02*
X235979000Y-58520000D01*
X227329000Y-62070000D02*
X227329000Y-58520000D01*
X235979000Y-58520000D02*
X235979000Y-62070000D01*
X235979000Y-62070000D02*
X227329000Y-62070000D01*
G04 #@! TO.C,D27*
X129798000Y-56170000D02*
X129798000Y-58470000D01*
X129798000Y-58470000D02*
X134918000Y-58470000D01*
X134918000Y-56170000D02*
X129798000Y-56170000D01*
X134918000Y-58470000D02*
X134918000Y-56170000D01*
G04 #@! TO.C,D70*
X145420000Y-105550000D02*
X145420000Y-107850000D01*
X145420000Y-107850000D02*
X150540000Y-107850000D01*
X150540000Y-105550000D02*
X145420000Y-105550000D01*
X150540000Y-107850000D02*
X150540000Y-105550000D01*
G04 #@! TO.C,J5*
X81089906Y-112320451D02*
X81089906Y-115920451D01*
X81089906Y-115920451D02*
X89739906Y-115920451D01*
X89739906Y-112320451D02*
X81089906Y-112320451D01*
X89739906Y-115920451D02*
X89739906Y-112320451D01*
G04 #@! TO.C,J54*
X105750000Y-109980000D02*
X105750000Y-95580000D01*
X115750000Y-95580000D02*
X105750000Y-95580000D01*
X115750000Y-109980000D02*
X105750000Y-109980000D01*
X115750000Y-109980000D02*
X115750000Y-95580000D01*
G04 #@! TO.C,D54*
X44420000Y-105550000D02*
X44420000Y-107850000D01*
X44420000Y-107850000D02*
X49540000Y-107850000D01*
X49540000Y-105550000D02*
X44420000Y-105550000D01*
X49540000Y-107850000D02*
X49540000Y-105550000D01*
G04 #@! TO.C,D52*
X19170000Y-98850000D02*
X19170000Y-101150000D01*
X19170000Y-101150000D02*
X24290000Y-101150000D01*
X24290000Y-98850000D02*
X19170000Y-98850000D01*
X24290000Y-101150000D02*
X24290000Y-98850000D01*
G04 #@! TO.C,D6*
X19170000Y-52910000D02*
X19170000Y-55210000D01*
X19170000Y-55210000D02*
X24290000Y-55210000D01*
X24290000Y-52910000D02*
X19170000Y-52910000D01*
X24290000Y-55210000D02*
X24290000Y-52910000D01*
G04 #@! TO.C,D12*
X46827000Y-52820000D02*
X46827000Y-55120000D01*
X46827000Y-55120000D02*
X51947000Y-55120000D01*
X51947000Y-52820000D02*
X46827000Y-52820000D01*
X51947000Y-55120000D02*
X51947000Y-52820000D01*
G04 #@! TO.C,D9*
X46827000Y-56170000D02*
X46827000Y-58470000D01*
X46827000Y-58470000D02*
X51947000Y-58470000D01*
X51947000Y-56170000D02*
X46827000Y-56170000D01*
X51947000Y-58470000D02*
X51947000Y-56170000D01*
G04 #@! TO.C,J48*
X81175000Y-118380000D02*
X89825000Y-118380000D01*
X81175000Y-121930000D02*
X81175000Y-118380000D01*
X89825000Y-118380000D02*
X89825000Y-121930000D01*
X89825000Y-121930000D02*
X81175000Y-121930000D01*
G04 #@! TO.C,D51*
X19170000Y-102200000D02*
X19170000Y-104500000D01*
X19170000Y-104500000D02*
X24290000Y-104500000D01*
X24290000Y-102200000D02*
X19170000Y-102200000D01*
X24290000Y-104500000D02*
X24290000Y-102200000D01*
G04 #@! TO.C,D79*
X195920000Y-102200000D02*
X195920000Y-104500000D01*
X195920000Y-104500000D02*
X201040000Y-104500000D01*
X201040000Y-102200000D02*
X195920000Y-102200000D01*
X201040000Y-104500000D02*
X201040000Y-102200000D01*
G04 #@! TO.C,RV7*
X187852000Y-20170000D02*
X187852000Y-33470000D01*
X187852000Y-33470000D02*
X202252000Y-33470000D01*
X202252000Y-20170000D02*
X187852000Y-20170000D01*
X202252000Y-33470000D02*
X202252000Y-20170000D01*
G04 #@! TO.C,D33*
X157455000Y-56170000D02*
X157455000Y-58470000D01*
X157455000Y-58470000D02*
X162575000Y-58470000D01*
X162575000Y-56170000D02*
X157455000Y-56170000D01*
X162575000Y-58470000D02*
X162575000Y-56170000D01*
G04 #@! TO.C,J52*
X106425000Y-118380000D02*
X115075000Y-118380000D01*
X106425000Y-121930000D02*
X106425000Y-118380000D01*
X115075000Y-118380000D02*
X115075000Y-121930000D01*
X115075000Y-121930000D02*
X106425000Y-121930000D01*
G04 #@! TO.C,J50*
X80500000Y-109980000D02*
X80500000Y-95580000D01*
X90500000Y-95580000D02*
X80500000Y-95580000D01*
X90500000Y-109980000D02*
X80500000Y-109980000D01*
X90500000Y-109980000D02*
X90500000Y-95580000D01*
G04 #@! TO.C,J60*
X156925000Y-118380000D02*
X165575000Y-118380000D01*
X156925000Y-121930000D02*
X156925000Y-118380000D01*
X165575000Y-118380000D02*
X165575000Y-121930000D01*
X165575000Y-121930000D02*
X156925000Y-121930000D01*
G04 #@! TD*
M02*
