%TF.GenerationSoftware,KiCad,Pcbnew,8.0.8-8.0.8-0~ubuntu24.04.1*%
%TF.CreationDate,2025-02-26T09:10:28-05:00*%
%TF.ProjectId,Oblique Palette 0.5.1 PCB Main,4f626c69-7175-4652-9050-616c65747465,rev?*%
%TF.SameCoordinates,Original*%
%TF.FileFunction,Soldermask,Top*%
%TF.FilePolarity,Negative*%
%FSLAX46Y46*%
G04 Gerber Fmt 4.6, Leading zero omitted, Abs format (unit mm)*
G04 Created by KiCad (PCBNEW 8.0.8-8.0.8-0~ubuntu24.04.1) date 2025-02-26 09:10:28*
%MOMM*%
%LPD*%
G01*
G04 APERTURE LIST*
G04 Aperture macros list*
%AMRoundRect*
0 Rectangle with rounded corners*
0 $1 Rounding radius*
0 $2 $3 $4 $5 $6 $7 $8 $9 X,Y pos of 4 corners*
0 Add a 4 corners polygon primitive as box body*
4,1,4,$2,$3,$4,$5,$6,$7,$8,$9,$2,$3,0*
0 Add four circle primitives for the rounded corners*
1,1,$1+$1,$2,$3*
1,1,$1+$1,$4,$5*
1,1,$1+$1,$6,$7*
1,1,$1+$1,$8,$9*
0 Add four rect primitives between the rounded corners*
20,1,$1+$1,$2,$3,$4,$5,0*
20,1,$1+$1,$4,$5,$6,$7,0*
20,1,$1+$1,$6,$7,$8,$9,0*
20,1,$1+$1,$8,$9,$2,$3,0*%
G04 Aperture macros list end*
%ADD10R,1.700000X1.700000*%
%ADD11O,1.700000X1.700000*%
%ADD12R,1.800000X1.800000*%
%ADD13C,1.800000*%
%ADD14RoundRect,0.750000X-1.250000X-0.750000X1.250000X-0.750000X1.250000X0.750000X-1.250000X0.750000X0*%
%ADD15R,1.930000X1.830000*%
%ADD16C,2.130000*%
%ADD17R,1.600000X1.600000*%
%ADD18C,1.600000*%
%ADD19O,1.800000X1.800000*%
%ADD20O,1.500000X1.500000*%
G04 APERTURE END LIST*
D10*
%TO.C,J69*%
X214275000Y-116480000D03*
D11*
X211735000Y-116480000D03*
X209195000Y-116480000D03*
%TD*%
D10*
%TO.C,J14*%
X244580000Y-50010000D03*
D11*
X242040000Y-50010000D03*
X239500000Y-50010000D03*
%TD*%
D12*
%TO.C,D65*%
X124000000Y-110050000D03*
D13*
X121460000Y-110050000D03*
%TD*%
D10*
%TO.C,J31*%
X178685000Y-62910000D03*
D11*
X176145000Y-62910000D03*
X173605000Y-62910000D03*
%TD*%
D10*
%TO.C,J56*%
X138525000Y-120180000D03*
D11*
X135985000Y-120180000D03*
X133445000Y-120180000D03*
%TD*%
D12*
%TO.C,RV2*%
X50717000Y-24320000D03*
D13*
X50717000Y-26820000D03*
X50717000Y-29320000D03*
D14*
X57717000Y-22420000D03*
X57717000Y-31220000D03*
%TD*%
D12*
%TO.C,D75*%
X174500000Y-103350000D03*
D13*
X171960000Y-103350000D03*
%TD*%
D10*
%TO.C,J28*%
X151028000Y-62910000D03*
D11*
X148488000Y-62910000D03*
X145948000Y-62910000D03*
%TD*%
D12*
%TO.C,D2*%
X23000000Y-60760000D03*
D13*
X20460000Y-60760000D03*
%TD*%
D12*
%TO.C,RV3*%
X78374000Y-24320000D03*
D13*
X78374000Y-26820000D03*
X78374000Y-29320000D03*
D14*
X85374000Y-22420000D03*
X85374000Y-31220000D03*
%TD*%
D15*
%TO.C,J42*%
X35000000Y-97000000D03*
D16*
X35000000Y-108400000D03*
X35000000Y-100100000D03*
%TD*%
D12*
%TO.C,D67*%
X124000000Y-103350000D03*
D13*
X121460000Y-103350000D03*
%TD*%
D12*
%TO.C,D58*%
X73500000Y-106700000D03*
D13*
X70960000Y-106700000D03*
%TD*%
D12*
%TO.C,D32*%
X161285000Y-60760000D03*
D13*
X158745000Y-60760000D03*
%TD*%
D12*
%TO.C,D7*%
X50657000Y-64110000D03*
D13*
X48117000Y-64110000D03*
%TD*%
D12*
%TO.C,D18*%
X78314000Y-54060000D03*
D13*
X75774000Y-54060000D03*
%TD*%
D10*
%TO.C,J21*%
X95714000Y-58930000D03*
D11*
X93174000Y-58930000D03*
X90634000Y-58930000D03*
%TD*%
D12*
%TO.C,D78*%
X199750000Y-106700000D03*
D13*
X197210000Y-106700000D03*
%TD*%
D12*
%TO.C,D56*%
X48250000Y-100000000D03*
D13*
X45710000Y-100000000D03*
%TD*%
D10*
%TO.C,J18*%
X68057000Y-58930000D03*
D11*
X65517000Y-58930000D03*
X62977000Y-58930000D03*
%TD*%
D12*
%TO.C,D77*%
X199750000Y-110050000D03*
D13*
X197210000Y-110050000D03*
%TD*%
D12*
%TO.C,RV8*%
X216659000Y-24320000D03*
D13*
X216659000Y-26820000D03*
X216659000Y-29320000D03*
D14*
X223659000Y-22420000D03*
X223659000Y-31220000D03*
%TD*%
D12*
%TO.C,D24*%
X105971000Y-54060000D03*
D13*
X103431000Y-54060000D03*
%TD*%
D15*
%TO.C,J46*%
X60250000Y-97000000D03*
D16*
X60250000Y-108400000D03*
X60250000Y-100100000D03*
%TD*%
D10*
%TO.C,J44*%
X62775000Y-120180000D03*
D11*
X60235000Y-120180000D03*
X57695000Y-120180000D03*
%TD*%
D12*
%TO.C,D48*%
X216599000Y-54060000D03*
D13*
X214059000Y-54060000D03*
%TD*%
D12*
%TO.C,D36*%
X161285000Y-54060000D03*
D13*
X158745000Y-54060000D03*
%TD*%
D10*
%TO.C,J7*%
X244580000Y-36060000D03*
D11*
X242040000Y-36060000D03*
X239500000Y-36060000D03*
%TD*%
D12*
%TO.C,RV4*%
X106031000Y-24320000D03*
D13*
X106031000Y-26820000D03*
X106031000Y-29320000D03*
D14*
X113031000Y-22420000D03*
X113031000Y-31220000D03*
%TD*%
D12*
%TO.C,D38*%
X188942000Y-60760000D03*
D13*
X186402000Y-60760000D03*
%TD*%
D10*
%TO.C,J65*%
X189025000Y-116480000D03*
D11*
X186485000Y-116480000D03*
X183945000Y-116480000D03*
%TD*%
D12*
%TO.C,D76*%
X174500000Y-100000000D03*
D13*
X171960000Y-100000000D03*
%TD*%
D12*
%TO.C,D66*%
X124000000Y-106700000D03*
D13*
X121460000Y-106700000D03*
%TD*%
D10*
%TO.C,J16*%
X40400000Y-62910000D03*
D11*
X37860000Y-62910000D03*
X35320000Y-62910000D03*
%TD*%
D12*
%TO.C,D64*%
X98750000Y-100000000D03*
D13*
X96210000Y-100000000D03*
%TD*%
D12*
%TO.C,RV5*%
X133688000Y-24320000D03*
D13*
X133688000Y-26820000D03*
X133688000Y-29320000D03*
D14*
X140688000Y-22420000D03*
X140688000Y-31220000D03*
%TD*%
D10*
%TO.C,J34*%
X206342000Y-62910000D03*
D11*
X203802000Y-62910000D03*
X201262000Y-62910000D03*
%TD*%
D12*
%TO.C,D8*%
X50657000Y-60760000D03*
D13*
X48117000Y-60760000D03*
%TD*%
D10*
%TO.C,J19*%
X68057000Y-62910000D03*
D11*
X65517000Y-62910000D03*
X62977000Y-62910000D03*
%TD*%
D10*
%TO.C,J4*%
X244580000Y-26760000D03*
D11*
X242040000Y-26760000D03*
X239500000Y-26760000D03*
%TD*%
D12*
%TO.C,D71*%
X149250000Y-103350000D03*
D13*
X146710000Y-103350000D03*
%TD*%
D12*
%TO.C,D61*%
X98750000Y-110050000D03*
D13*
X96210000Y-110050000D03*
%TD*%
D15*
%TO.C,J17*%
X37875000Y-50510000D03*
D16*
X37875000Y-39110000D03*
X37875000Y-47410000D03*
%TD*%
D10*
%TO.C,J24*%
X123371000Y-58930000D03*
D11*
X120831000Y-58930000D03*
X118291000Y-58930000D03*
%TD*%
D12*
%TO.C,D74*%
X174500000Y-106700000D03*
D13*
X171960000Y-106700000D03*
%TD*%
D12*
%TO.C,D68*%
X124000000Y-100000000D03*
D13*
X121460000Y-100000000D03*
%TD*%
D15*
%TO.C,J20*%
X65532000Y-50510000D03*
D16*
X65532000Y-39110000D03*
X65532000Y-47410000D03*
%TD*%
D10*
%TO.C,J40*%
X37525000Y-120180000D03*
D11*
X34985000Y-120180000D03*
X32445000Y-120180000D03*
%TD*%
D10*
%TO.C,J27*%
X151028000Y-58930000D03*
D11*
X148488000Y-58930000D03*
X145948000Y-58930000D03*
%TD*%
D12*
%TO.C,D80*%
X199750000Y-100000000D03*
D13*
X197210000Y-100000000D03*
%TD*%
D10*
%TO.C,J41*%
X37525000Y-116480000D03*
D11*
X34985000Y-116480000D03*
X32445000Y-116480000D03*
%TD*%
D12*
%TO.C,D3*%
X23000000Y-57410000D03*
D13*
X20460000Y-57410000D03*
%TD*%
D12*
%TO.C,D62*%
X98750000Y-106700000D03*
D13*
X96210000Y-106700000D03*
%TD*%
D10*
%TO.C,J13*%
X244580000Y-45360000D03*
D11*
X242040000Y-45360000D03*
X239500000Y-45360000D03*
%TD*%
D12*
%TO.C,D50*%
X23000000Y-106700000D03*
D13*
X20460000Y-106700000D03*
%TD*%
D12*
%TO.C,D69*%
X149250000Y-110050000D03*
D13*
X146710000Y-110050000D03*
%TD*%
D10*
%TO.C,J37*%
X233999000Y-62910000D03*
D11*
X231459000Y-62910000D03*
X228919000Y-62910000D03*
%TD*%
D15*
%TO.C,J32*%
X176160000Y-50510000D03*
D16*
X176160000Y-39110000D03*
X176160000Y-47410000D03*
%TD*%
D10*
%TO.C,J15*%
X40400000Y-58930000D03*
D11*
X37860000Y-58930000D03*
X35320000Y-58930000D03*
%TD*%
D10*
%TO.C,J25*%
X123371000Y-62910000D03*
D11*
X120831000Y-62910000D03*
X118291000Y-62910000D03*
%TD*%
D12*
%TO.C,D15*%
X78314000Y-57410000D03*
D13*
X75774000Y-57410000D03*
%TD*%
D10*
%TO.C,J45*%
X62775000Y-116480000D03*
D11*
X60235000Y-116480000D03*
X57695000Y-116480000D03*
%TD*%
D12*
%TO.C,D53*%
X48250000Y-110050000D03*
D13*
X45710000Y-110050000D03*
%TD*%
D15*
%TO.C,J66*%
X186500000Y-97000000D03*
D16*
X186500000Y-108400000D03*
X186500000Y-100100000D03*
%TD*%
D12*
%TO.C,D14*%
X78314000Y-60760000D03*
D13*
X75774000Y-60760000D03*
%TD*%
D12*
%TO.C,RV6*%
X161345000Y-24320000D03*
D13*
X161345000Y-26820000D03*
X161345000Y-29320000D03*
D14*
X168345000Y-22420000D03*
X168345000Y-31220000D03*
%TD*%
D12*
%TO.C,D1*%
X23000000Y-64110000D03*
D13*
X20460000Y-64110000D03*
%TD*%
D12*
%TO.C,D59*%
X73500000Y-103350000D03*
D13*
X70960000Y-103350000D03*
%TD*%
D15*
%TO.C,J62*%
X161250000Y-97000000D03*
D16*
X161250000Y-108400000D03*
X161250000Y-100100000D03*
%TD*%
D12*
%TO.C,D60*%
X73500000Y-100000000D03*
D13*
X70960000Y-100000000D03*
%TD*%
D12*
%TO.C,D30*%
X133628000Y-54060000D03*
D13*
X131088000Y-54060000D03*
%TD*%
D10*
%TO.C,J57*%
X138525000Y-116480000D03*
D11*
X135985000Y-116480000D03*
X133445000Y-116480000D03*
%TD*%
D12*
%TO.C,D63*%
X98750000Y-103350000D03*
D13*
X96210000Y-103350000D03*
%TD*%
D10*
%TO.C,J64*%
X189025000Y-120180000D03*
D11*
X186485000Y-120180000D03*
X183945000Y-120180000D03*
%TD*%
D12*
%TO.C,D42*%
X188942000Y-54060000D03*
D13*
X186402000Y-54060000D03*
%TD*%
D10*
%TO.C,J61*%
X163775000Y-116480000D03*
D11*
X161235000Y-116480000D03*
X158695000Y-116480000D03*
%TD*%
D12*
%TO.C,D13*%
X78314000Y-64110000D03*
D13*
X75774000Y-64110000D03*
%TD*%
D10*
%TO.C,J30*%
X178685000Y-58930000D03*
D11*
X176145000Y-58930000D03*
X173605000Y-58930000D03*
%TD*%
D10*
%TO.C,J49*%
X88025000Y-116480000D03*
D11*
X85485000Y-116480000D03*
X82945000Y-116480000D03*
%TD*%
D15*
%TO.C,J35*%
X203817000Y-50510000D03*
D16*
X203817000Y-39110000D03*
X203817000Y-47410000D03*
%TD*%
D10*
%TO.C,J9*%
X244450000Y-55130000D03*
D11*
X241910000Y-55130000D03*
X239370000Y-55130000D03*
%TD*%
D15*
%TO.C,J23*%
X93189000Y-50510000D03*
D16*
X93189000Y-39110000D03*
X93189000Y-47410000D03*
%TD*%
D12*
%TO.C,D19*%
X105971000Y-64110000D03*
D13*
X103431000Y-64110000D03*
%TD*%
D10*
%TO.C,J68*%
X214275000Y-120180000D03*
D11*
X211735000Y-120180000D03*
X209195000Y-120180000D03*
%TD*%
D15*
%TO.C,J29*%
X148503000Y-50510000D03*
D16*
X148503000Y-39110000D03*
X148503000Y-47410000D03*
%TD*%
D12*
%TO.C,D26*%
X133628000Y-60760000D03*
D13*
X131088000Y-60760000D03*
%TD*%
D15*
%TO.C,J58*%
X136000000Y-97000000D03*
D16*
X136000000Y-108400000D03*
X136000000Y-100100000D03*
%TD*%
D12*
%TO.C,D20*%
X105971000Y-60760000D03*
D13*
X103431000Y-60760000D03*
%TD*%
D12*
%TO.C,RV1*%
X23060000Y-24320000D03*
D13*
X23060000Y-26820000D03*
X23060000Y-29320000D03*
D14*
X30060000Y-22420000D03*
X30060000Y-31220000D03*
%TD*%
D15*
%TO.C,J70*%
X211750000Y-97000000D03*
D16*
X211750000Y-108400000D03*
X211750000Y-100100000D03*
%TD*%
D12*
%TO.C,D21*%
X105971000Y-57410000D03*
D13*
X103431000Y-57410000D03*
%TD*%
D12*
%TO.C,D73*%
X174500000Y-110050000D03*
D13*
X171960000Y-110050000D03*
%TD*%
D12*
%TO.C,D45*%
X216599000Y-57410000D03*
D13*
X214059000Y-57410000D03*
%TD*%
D10*
%TO.C,J33*%
X206342000Y-58930000D03*
D11*
X203802000Y-58930000D03*
X201262000Y-58930000D03*
%TD*%
D10*
%TO.C,J36*%
X233999000Y-58930000D03*
D11*
X231459000Y-58930000D03*
X228919000Y-58930000D03*
%TD*%
D12*
%TO.C,D72*%
X149250000Y-100000000D03*
D13*
X146710000Y-100000000D03*
%TD*%
D12*
%TO.C,D44*%
X216599000Y-60760000D03*
D13*
X214059000Y-60760000D03*
%TD*%
D12*
%TO.C,D55*%
X48250000Y-103350000D03*
D13*
X45710000Y-103350000D03*
%TD*%
D12*
%TO.C,D31*%
X161285000Y-64110000D03*
D13*
X158745000Y-64110000D03*
%TD*%
D10*
%TO.C,J5*%
X244580000Y-31410000D03*
D11*
X242040000Y-31410000D03*
X239500000Y-31410000D03*
%TD*%
D10*
%TO.C,J22*%
X95714000Y-62910000D03*
D11*
X93174000Y-62910000D03*
X90634000Y-62910000D03*
%TD*%
D12*
%TO.C,D37*%
X188942000Y-64110000D03*
D13*
X186402000Y-64110000D03*
%TD*%
D12*
%TO.C,D39*%
X188942000Y-57410000D03*
D13*
X186402000Y-57410000D03*
%TD*%
D15*
%TO.C,J38*%
X231474000Y-50510000D03*
D16*
X231474000Y-39110000D03*
X231474000Y-47410000D03*
%TD*%
D10*
%TO.C,J11*%
X244580000Y-40710000D03*
D11*
X242040000Y-40710000D03*
X239500000Y-40710000D03*
%TD*%
D12*
%TO.C,D27*%
X133628000Y-57410000D03*
D13*
X131088000Y-57410000D03*
%TD*%
D12*
%TO.C,D70*%
X149250000Y-106700000D03*
D13*
X146710000Y-106700000D03*
%TD*%
D15*
%TO.C,J54*%
X110750000Y-97000000D03*
D16*
X110750000Y-108400000D03*
X110750000Y-100100000D03*
%TD*%
D12*
%TO.C,D54*%
X48250000Y-106700000D03*
D13*
X45710000Y-106700000D03*
%TD*%
D12*
%TO.C,D52*%
X23000000Y-100000000D03*
D13*
X20460000Y-100000000D03*
%TD*%
D12*
%TO.C,D43*%
X216599000Y-64110000D03*
D13*
X214059000Y-64110000D03*
%TD*%
D12*
%TO.C,D6*%
X23000000Y-54060000D03*
D13*
X20460000Y-54060000D03*
%TD*%
D12*
%TO.C,D12*%
X50657000Y-54060000D03*
D13*
X48117000Y-54060000D03*
%TD*%
D12*
%TO.C,D9*%
X50657000Y-57410000D03*
D13*
X48117000Y-57410000D03*
%TD*%
D10*
%TO.C,J48*%
X88025000Y-120180000D03*
D11*
X85485000Y-120180000D03*
X82945000Y-120180000D03*
%TD*%
D10*
%TO.C,J53*%
X113275000Y-116480000D03*
D11*
X110735000Y-116480000D03*
X108195000Y-116480000D03*
%TD*%
D12*
%TO.C,D51*%
X23000000Y-103350000D03*
D13*
X20460000Y-103350000D03*
%TD*%
D12*
%TO.C,D79*%
X199750000Y-103350000D03*
D13*
X197210000Y-103350000D03*
%TD*%
D12*
%TO.C,D49*%
X23000000Y-110050000D03*
D13*
X20460000Y-110050000D03*
%TD*%
D12*
%TO.C,D25*%
X133628000Y-64110000D03*
D13*
X131088000Y-64110000D03*
%TD*%
D12*
%TO.C,RV7*%
X189002000Y-24320000D03*
D13*
X189002000Y-26820000D03*
X189002000Y-29320000D03*
D14*
X196002000Y-22420000D03*
X196002000Y-31220000D03*
%TD*%
D12*
%TO.C,D33*%
X161285000Y-57410000D03*
D13*
X158745000Y-57410000D03*
%TD*%
D10*
%TO.C,J52*%
X113275000Y-120180000D03*
D11*
X110735000Y-120180000D03*
X108195000Y-120180000D03*
%TD*%
D15*
%TO.C,J50*%
X85500000Y-97000000D03*
D16*
X85500000Y-108400000D03*
X85500000Y-100100000D03*
%TD*%
D10*
%TO.C,J2*%
X244580000Y-22110000D03*
D11*
X242040000Y-22110000D03*
X239500000Y-22110000D03*
%TD*%
D12*
%TO.C,D57*%
X73500000Y-110050000D03*
D13*
X70960000Y-110050000D03*
%TD*%
D10*
%TO.C,J60*%
X163775000Y-120180000D03*
D11*
X161235000Y-120180000D03*
X158695000Y-120180000D03*
%TD*%
D17*
%TO.C,C8*%
X31080700Y-72910000D03*
D18*
X28580700Y-72910000D03*
%TD*%
D10*
%TO.C,J51*%
X96250000Y-95535000D03*
D11*
X96250000Y-92995000D03*
%TD*%
D10*
%TO.C,J72*%
X20000000Y-74410000D03*
D11*
X20000000Y-71870000D03*
%TD*%
D10*
%TO.C,J43*%
X45750000Y-95535000D03*
D11*
X45750000Y-92995000D03*
%TD*%
D10*
%TO.C,J55*%
X121500000Y-95535000D03*
D11*
X121500000Y-92995000D03*
%TD*%
%TO.C,U2*%
X228960000Y-119660000D03*
D10*
X231500000Y-119660000D03*
D11*
X234040000Y-119660000D03*
X222610000Y-71630000D03*
X222610000Y-74170000D03*
D10*
X222610000Y-76710000D03*
D11*
X222610000Y-79250000D03*
X222610000Y-81790000D03*
X222610000Y-84330000D03*
X222610000Y-86870000D03*
D10*
X222610000Y-89410000D03*
D11*
X222610000Y-91950000D03*
X222610000Y-94490000D03*
X222610000Y-97030000D03*
X222610000Y-99570000D03*
D10*
X222610000Y-102110000D03*
D11*
X222610000Y-104650000D03*
X222610000Y-107190000D03*
X222610000Y-109730000D03*
X222610000Y-112270000D03*
D10*
X222610000Y-114810000D03*
D11*
X222610000Y-117350000D03*
X222610000Y-119890000D03*
X240390000Y-119890000D03*
X240390000Y-117350000D03*
D10*
X240390000Y-114810000D03*
D11*
X240390000Y-112270000D03*
X240390000Y-109730000D03*
X240390000Y-107190000D03*
X240390000Y-104650000D03*
D10*
X240390000Y-102110000D03*
D11*
X240390000Y-99570000D03*
X240390000Y-97030000D03*
X240390000Y-94490000D03*
X240390000Y-91950000D03*
D10*
X240390000Y-89410000D03*
D11*
X240390000Y-86870000D03*
X240390000Y-84330000D03*
X240390000Y-81790000D03*
X240390000Y-79250000D03*
D10*
X240390000Y-76710000D03*
D11*
X240390000Y-74170000D03*
X240390000Y-71630000D03*
D19*
X228775000Y-71760000D03*
D20*
X229075000Y-74790000D03*
X233925000Y-74790000D03*
D19*
X234225000Y-71760000D03*
%TD*%
D17*
%TO.C,C3*%
X70860200Y-72910000D03*
D18*
X68360200Y-72910000D03*
%TD*%
D10*
%TO.C,J59*%
X146750000Y-95535000D03*
D11*
X146750000Y-92995000D03*
%TD*%
D10*
%TO.C,J63*%
X172000000Y-95535000D03*
D11*
X172000000Y-92995000D03*
%TD*%
D17*
%TO.C,C4*%
X44360200Y-72910000D03*
D18*
X41860200Y-72910000D03*
%TD*%
D17*
%TO.C,C5*%
X64220500Y-72910000D03*
D18*
X61720500Y-72910000D03*
%TD*%
D17*
%TO.C,C7*%
X57580700Y-72910000D03*
D18*
X55080700Y-72910000D03*
%TD*%
D17*
%TO.C,C6*%
X37720500Y-72910000D03*
D18*
X35220500Y-72910000D03*
%TD*%
D17*
%TO.C,C1*%
X77500000Y-72910000D03*
D18*
X75000000Y-72910000D03*
%TD*%
D10*
%TO.C,J67*%
X197250000Y-95535000D03*
D11*
X197250000Y-92995000D03*
%TD*%
D15*
%TO.C,J26*%
X120846000Y-50510000D03*
D16*
X120846000Y-39110000D03*
X120846000Y-47410000D03*
%TD*%
D17*
%TO.C,C2*%
X51000000Y-72910000D03*
D18*
X48500000Y-72910000D03*
%TD*%
D10*
%TO.C,J39*%
X20500000Y-95535000D03*
D11*
X20500000Y-92995000D03*
%TD*%
D10*
%TO.C,J71*%
X24500000Y-75300000D03*
D11*
X24500000Y-72760000D03*
X24500000Y-70220000D03*
%TD*%
D10*
%TO.C,J47*%
X71000000Y-95535000D03*
D11*
X71000000Y-92995000D03*
%TD*%
M02*
