M48
; DRILL file {KiCad 8.0.8-8.0.8-0~ubuntu24.04.1} date 2025-02-26T09:08:18-0500
; FORMAT={-:-/ absolute / inch / decimal}
; #@! TF.CreationDate,2025-02-26T09:08:18-05:00
; #@! TF.GenerationSoftware,Kicad,Pcbnew,8.0.8-8.0.8-0~ubuntu24.04.1
; #@! TF.FileFunction,Plated,1,2,PTH
FMAT,2
INCH
; #@! TA.AperFunction,Plated,PTH,ViaDrill
T1C0.0118
; #@! TA.AperFunction,Plated,PTH,ComponentDrill
T2C0.0315
; #@! TA.AperFunction,Plated,PTH,ComponentDrill
T3C0.0354
; #@! TA.AperFunction,Plated,PTH,ComponentDrill
T4C0.0394
; #@! TA.AperFunction,Plated,PTH,ComponentDrill
T5C0.0402
; #@! TA.AperFunction,Plated,PTH,ComponentDrill
T6C0.0480
; #@! TA.AperFunction,Plated,PTH,ComponentDrill
T7C0.0559
; #@! TA.AperFunction,Plated,PTH,ComponentDrill
T8C0.0563
; #@! TA.AperFunction,Plated,PTH,ComponentDrill
T9C0.0709
%
G90
G05
T1
X0.6761Y-1.8665
X0.7836Y-4.4247
X0.9698Y-2.0691
X0.9843Y-3.6026
X1.0138Y-2.2155
X1.0664Y-3.7001
X1.1236Y-4.1761
X1.1383Y-3.5773
X1.1384Y-4.2255
X1.1503Y-2.2056
X1.1787Y-3.8189
X1.2214Y-3.7612
X1.2342Y-2.0691
X1.2557Y-3.7245
X1.3089Y-3.9412
X1.3866Y-3.6026
X1.3986Y-3.6357
X1.4772Y-3.8012
X1.4859Y-3.7318
X1.5245Y-3.5773
X1.6409Y-1.5251
X1.8741Y-4.6862
X1.9282Y-1.8371
X2.0054Y-4.0891
X2.0353Y-3.3718
X2.0365Y-3.7644
X2.0605Y-3.6999
X2.0774Y-1.5144
X2.1773Y-3.5773
X2.2026Y-4.1488
X2.2188Y-3.5656
X2.3243Y-2.5833
X2.3563Y-3.3636
X2.44Y-3.6014
X2.44Y-3.7412
X2.7035Y-4.2737
X2.7263Y-1.5999
X2.8881Y-3.8566
X2.9144Y-3.8293
X2.9831Y-3.9177
X2.9938Y-3.8649
X3.0058Y-3.7612
X3.0097Y-3.6635
X3.1112Y-4.4998
X3.1141Y-1.5229
X3.1265Y-3.5656
X3.1265Y-3.8597
X3.1934Y-3.7612
X3.4341Y-3.5904
X3.4785Y-3.7276
X3.4807Y-3.5998
X3.667Y-0.9575
X3.7229Y-2.5788
X3.8498Y-1.5883
X3.9825Y-1.8078
X3.9907Y-4.1262
X4.0061Y-4.4591
X4.008Y-3.6537
X4.0533Y-1.9886
X4.0604Y-3.7612
X4.1181Y-3.5998
X4.1902Y-1.5883
X4.3211Y-3.5288
X4.3568Y-3.7149
X4.3698Y-3.6478
X4.3931Y-1.6159
X4.5115Y-3.7612
X4.5742Y-3.5288
X4.6337Y-3.8759
X4.6826Y-3.5275
X4.7069Y-2.8781
X4.8069Y-2.8964
X4.8228Y-0.9575
X4.8406Y-1.8769
X4.8569Y-2.5382
X4.9069Y-2.6189
X4.9198Y-3.5944
X4.951Y-1.6772
X4.9511Y-3.4201
X4.9569Y-2.5833
X4.9771Y-3.763
X4.983Y-2.6093
X4.9972Y-3.6612
X5.0069Y-2.5586
X5.008Y-2.8582
X5.0571Y-3.5944
X5.1024Y-2.8796
X5.1097Y-1.9886
X5.1359Y-4.5387
X5.144Y-2.0728
X5.1653Y-3.8189
X5.2251Y-4.3393
X5.2292Y-3.6011
X5.2493Y-4.2008
X5.3498Y-3.6612
X5.4129Y-3.822
X5.5388Y-2.3017
X5.5891Y-2.0728
X5.5974Y-1.6111
X5.711Y-3.9994
X5.9596Y-3.7027
X5.9927Y-3.6612
X6.0694Y-3.7426
X6.1088Y-3.859
X6.1206Y-3.6011
X6.13Y-4.5387
X6.1713Y-1.8061
X6.2077Y-3.8189
X6.2335Y-1.8082
X6.2417Y-4.2008
X6.2577Y-3.8846
X6.2802Y-1.4078
X6.3491Y-3.6612
X6.3766Y-1.4078
X6.4095Y-3.7725
X6.4639Y-3.5998
X6.5302Y-1.5008
X6.5494Y-1.6393
X6.5823Y-3.69
X6.7051Y-4.0021
X6.7418Y-1.9941
X6.9885Y-3.6612
X7.001Y-0.9575
X7.0231Y-4.4773
X7.0431Y-3.7612
X7.1103Y-3.6007
X7.1981Y-1.5251
X7.1981Y-2.1283
X7.2018Y-3.6155
X7.2412Y-1.6299
X7.2504Y-2.8796
X7.2662Y-1.9886
X7.3519Y-3.6471
X7.4071Y-3.8581
X7.5461Y-3.6155
X7.5473Y-1.5144
X7.6469Y-1.6299
X7.7854Y-3.8818
X7.8116Y-2.8964
X7.9747Y-3.7739
X7.9827Y-3.6612
X8.0178Y-4.4817
X8.0969Y-3.6008
X8.1402Y-3.8189
X8.1434Y-3.866
X8.1776Y-3.7463
X8.2643Y-1.5251
X8.2857Y-1.4938
X8.292Y-3.5275
X8.3418Y-1.8536
X8.3582Y-3.6358
X8.4003Y-3.7706
X8.4341Y-3.6011
X8.4848Y-3.7463
X8.4987Y-2.921
X8.6085Y-1.4938
X8.7462Y-1.5251
X9.1759Y-0.9575
X9.2387Y-3.6724
X9.3065Y-2.8201
X9.3065Y-3.7658
X9.7052Y-3.7201
X9.7232Y-3.4201
X9.7497Y-3.3201
X9.7739Y-3.1201
T2
X1.1252Y-2.8705
X1.2236Y-2.8705
X1.3866Y-2.8705
X1.4851Y-2.8705
X1.648Y-2.8705
X1.7465Y-2.8705
X1.9094Y-2.8705
X2.0079Y-2.8705
X2.1685Y-2.8705
X2.267Y-2.8705
X2.4299Y-2.8705
X2.5284Y-2.8705
X2.6913Y-2.8705
X2.7898Y-2.8705
X2.9528Y-2.8705
X3.0512Y-2.8705
T3
X0.8055Y-2.1283
X0.8055Y-2.2602
X0.8055Y-2.3921
X0.8055Y-2.524
X0.8055Y-3.937
X0.8055Y-4.0689
X0.8055Y-4.2008
X0.8055Y-4.3327
X0.9055Y-2.1283
X0.9055Y-2.2602
X0.9055Y-2.3921
X0.9055Y-2.524
X0.9055Y-3.937
X0.9055Y-4.0689
X0.9055Y-4.2008
X0.9055Y-4.3327
X1.7996Y-3.937
X1.7996Y-4.0689
X1.7996Y-4.2008
X1.7996Y-4.3327
X1.8944Y-2.1283
X1.8944Y-2.2602
X1.8944Y-2.3921
X1.8944Y-2.524
X1.8996Y-3.937
X1.8996Y-4.0689
X1.8996Y-4.2008
X1.8996Y-4.3327
X1.9944Y-2.1283
X1.9944Y-2.2602
X1.9944Y-2.3921
X1.9944Y-2.524
X2.7937Y-3.937
X2.7937Y-4.0689
X2.7937Y-4.2008
X2.7937Y-4.3327
X2.8937Y-3.937
X2.8937Y-4.0689
X2.8937Y-4.2008
X2.8937Y-4.3327
X2.9832Y-2.1283
X2.9832Y-2.2602
X2.9832Y-2.3921
X2.9832Y-2.524
X3.0832Y-2.1283
X3.0832Y-2.2602
X3.0832Y-2.3921
X3.0832Y-2.524
X3.7878Y-3.937
X3.7878Y-4.0689
X3.7878Y-4.2008
X3.7878Y-4.3327
X3.8878Y-3.937
X3.8878Y-4.0689
X3.8878Y-4.2008
X3.8878Y-4.3327
X4.0721Y-2.1283
X4.0721Y-2.2602
X4.0721Y-2.3921
X4.0721Y-2.524
X4.1721Y-2.1283
X4.1721Y-2.2602
X4.1721Y-2.3921
X4.1721Y-2.524
X4.7819Y-3.937
X4.7819Y-4.0689
X4.7819Y-4.2008
X4.7819Y-4.3327
X4.8819Y-3.937
X4.8819Y-4.0689
X4.8819Y-4.2008
X4.8819Y-4.3327
X5.1609Y-2.1283
X5.1609Y-2.2602
X5.1609Y-2.3921
X5.1609Y-2.524
X5.2609Y-2.1283
X5.2609Y-2.2602
X5.2609Y-2.3921
X5.2609Y-2.524
X5.776Y-3.937
X5.776Y-4.0689
X5.776Y-4.2008
X5.776Y-4.3327
X5.876Y-3.937
X5.876Y-4.0689
X5.876Y-4.2008
X5.876Y-4.3327
X6.2498Y-2.1283
X6.2498Y-2.2602
X6.2498Y-2.3921
X6.2498Y-2.524
X6.3498Y-2.1283
X6.3498Y-2.2602
X6.3498Y-2.3921
X6.3498Y-2.524
X6.7701Y-3.937
X6.7701Y-4.0689
X6.7701Y-4.2008
X6.7701Y-4.3327
X6.8701Y-3.937
X6.8701Y-4.0689
X6.8701Y-4.2008
X6.8701Y-4.3327
X7.3387Y-2.1283
X7.3387Y-2.2602
X7.3387Y-2.3921
X7.3387Y-2.524
X7.4387Y-2.1283
X7.4387Y-2.2602
X7.4387Y-2.3921
X7.4387Y-2.524
X7.7642Y-3.937
X7.7642Y-4.0689
X7.7642Y-4.2008
X7.7642Y-4.3327
X7.8642Y-3.937
X7.8642Y-4.0689
X7.8642Y-4.2008
X7.8642Y-4.3327
X8.4275Y-2.1283
X8.4275Y-2.2602
X8.4275Y-2.3921
X8.4275Y-2.524
X8.5275Y-2.1283
X8.5275Y-2.2602
X8.5275Y-2.3921
X8.5275Y-2.524
T4
X0.7874Y-2.8295
X0.7874Y-2.9295
X0.8071Y-3.6612
X0.8071Y-3.7612
X0.9079Y-0.9575
X0.9079Y-1.0559
X0.9079Y-1.1543
X0.9646Y-2.7646
X0.9646Y-2.8646
X0.9646Y-2.9646
X1.2774Y-4.5858
X1.2774Y-4.7315
X1.3774Y-4.5858
X1.3774Y-4.7315
X1.3906Y-2.3201
X1.3906Y-2.4768
X1.4774Y-4.5858
X1.4774Y-4.7315
X1.4906Y-2.3201
X1.4906Y-2.4768
X1.5906Y-2.3201
X1.5906Y-2.4768
X1.8012Y-3.6612
X1.8012Y-3.7612
X1.9967Y-0.9575
X1.9967Y-1.0559
X1.9967Y-1.1543
X2.2715Y-4.5858
X2.2715Y-4.7315
X2.3715Y-4.5858
X2.3715Y-4.7315
X2.4715Y-4.5858
X2.4715Y-4.7315
X2.4794Y-2.3201
X2.4794Y-2.4768
X2.5794Y-2.3201
X2.5794Y-2.4768
X2.6794Y-2.3201
X2.6794Y-2.4768
X2.7953Y-3.6612
X2.7953Y-3.7612
X3.0856Y-0.9575
X3.0856Y-1.0559
X3.0856Y-1.1543
X3.2656Y-4.5858
X3.2656Y-4.7315
X3.3656Y-4.5858
X3.3656Y-4.7315
X3.4656Y-4.5858
X3.4656Y-4.7315
X3.5683Y-2.3201
X3.5683Y-2.4768
X3.6683Y-2.3201
X3.6683Y-2.4768
X3.7683Y-2.3201
X3.7683Y-2.4768
X3.7894Y-3.6612
X3.7894Y-3.7612
X4.1744Y-0.9575
X4.1744Y-1.0559
X4.1744Y-1.1543
X4.2596Y-4.5858
X4.2596Y-4.7315
X4.3596Y-4.5858
X4.3596Y-4.7315
X4.4596Y-4.5858
X4.4596Y-4.7315
X4.6571Y-2.3201
X4.6571Y-2.4768
X4.7571Y-2.3201
X4.7571Y-2.4768
X4.7835Y-3.6612
X4.7835Y-3.7612
X4.8571Y-2.3201
X4.8571Y-2.4768
X5.2537Y-4.5858
X5.2537Y-4.7315
X5.2633Y-0.9575
X5.2633Y-1.0559
X5.2633Y-1.1543
X5.3537Y-4.5858
X5.3537Y-4.7315
X5.4537Y-4.5858
X5.4537Y-4.7315
X5.746Y-2.3201
X5.746Y-2.4768
X5.7776Y-3.6612
X5.7776Y-3.7612
X5.846Y-2.3201
X5.846Y-2.4768
X5.946Y-2.3201
X5.946Y-2.4768
X6.2478Y-4.5858
X6.2478Y-4.7315
X6.3478Y-4.5858
X6.3478Y-4.7315
X6.3522Y-0.9575
X6.3522Y-1.0559
X6.3522Y-1.1543
X6.4478Y-4.5858
X6.4478Y-4.7315
X6.7717Y-3.6612
X6.7717Y-3.7612
X6.8348Y-2.3201
X6.8348Y-2.4768
X6.9348Y-2.3201
X6.9348Y-2.4768
X7.0348Y-2.3201
X7.0348Y-2.4768
X7.2419Y-4.5858
X7.2419Y-4.7315
X7.3419Y-4.5858
X7.3419Y-4.7315
X7.441Y-0.9575
X7.441Y-1.0559
X7.441Y-1.1543
X7.4419Y-4.5858
X7.4419Y-4.7315
X7.7657Y-3.6612
X7.7657Y-3.7612
X7.9237Y-2.3201
X7.9237Y-2.4768
X8.0237Y-2.3201
X8.0237Y-2.4768
X8.1237Y-2.3201
X8.1237Y-2.4768
X8.236Y-4.5858
X8.236Y-4.7315
X8.336Y-4.5858
X8.336Y-4.7315
X8.436Y-4.5858
X8.436Y-4.7315
X8.5299Y-0.9575
X8.5299Y-1.0559
X8.5299Y-1.1543
X9.0126Y-2.3201
X9.0126Y-2.4768
X9.1126Y-2.3201
X9.1126Y-2.4768
X9.2126Y-2.3201
X9.2126Y-2.4768
X9.424Y-2.1705
X9.4291Y-0.8705
X9.4291Y-1.0535
X9.4291Y-1.2366
X9.4291Y-1.4197
X9.4291Y-1.6028
X9.4291Y-1.7858
X9.4291Y-1.9689
X9.524Y-2.1705
X9.5291Y-0.8705
X9.5291Y-1.0535
X9.5291Y-1.2366
X9.5291Y-1.4197
X9.5291Y-1.6028
X9.5291Y-1.7858
X9.5291Y-1.9689
X9.624Y-2.1705
X9.6291Y-0.8705
X9.6291Y-1.0535
X9.6291Y-1.2366
X9.6291Y-1.4197
X9.6291Y-1.6028
X9.6291Y-1.7858
X9.6291Y-1.9689
T5
X8.7642Y-2.8201
X8.7642Y-2.9201
X8.7642Y-3.0201
X8.7642Y-3.1201
X8.7642Y-3.2201
X8.7642Y-3.3201
X8.7642Y-3.4201
X8.7642Y-3.5201
X8.7642Y-3.6201
X8.7642Y-3.7201
X8.7642Y-3.8201
X8.7642Y-3.9201
X8.7642Y-4.0201
X8.7642Y-4.1201
X8.7642Y-4.2201
X8.7642Y-4.3201
X8.7642Y-4.4201
X8.7642Y-4.5201
X8.7642Y-4.6201
X8.7642Y-4.7201
X9.0142Y-4.711
X9.1142Y-4.711
X9.2142Y-4.711
X9.4642Y-2.8201
X9.4642Y-2.9201
X9.4642Y-3.0201
X9.4642Y-3.1201
X9.4642Y-3.2201
X9.4642Y-3.3201
X9.4642Y-3.4201
X9.4642Y-3.5201
X9.4642Y-3.6201
X9.4642Y-3.7201
X9.4642Y-3.8201
X9.4642Y-3.9201
X9.4642Y-4.0201
X9.4642Y-4.1201
X9.4642Y-4.2201
X9.4642Y-4.3201
X9.4642Y-4.4201
X9.4642Y-4.5201
X9.4642Y-4.6201
X9.4642Y-4.7201
T6
X1.378Y-3.8189
X1.4911Y-1.9886
X2.372Y-3.8189
X2.58Y-1.9886
X3.3661Y-3.8189
X3.6689Y-1.9886
X4.3602Y-3.8189
X4.7577Y-1.9886
X5.3543Y-3.8189
X5.8466Y-1.9886
X6.3484Y-3.8189
X6.9354Y-1.9886
X7.3425Y-3.8189
X8.0243Y-1.9886
X8.3366Y-3.8189
X9.1131Y-1.9886
T7
X1.378Y-3.9409
X1.4911Y-1.8665
X2.372Y-3.9409
X2.58Y-1.8665
X3.3661Y-3.9409
X3.6689Y-1.8665
X4.3602Y-3.9409
X4.7577Y-1.8665
X5.3543Y-3.9409
X5.8466Y-1.8665
X6.3484Y-3.9409
X6.9354Y-1.8665
X7.3425Y-3.9409
X8.0243Y-1.8665
X8.3366Y-3.9409
X9.1131Y-1.8665
T8
X1.378Y-4.2677
X1.4911Y-1.5398
X2.372Y-4.2677
X2.58Y-1.5398
X3.3661Y-4.2677
X3.6689Y-1.5398
X4.3602Y-4.2677
X4.7577Y-1.5398
X5.3543Y-4.2677
X5.8466Y-1.5398
X6.3484Y-4.2677
X6.9354Y-1.5398
X7.3425Y-4.2677
X8.0243Y-1.5398
X8.3366Y-4.2677
X9.1131Y-1.5398
T9
G00X1.1776Y-0.8827
M15
G01X1.1894Y-0.8827
M16
G05
G00X1.1776Y-1.2291
M15
G01X1.1894Y-1.2291
M16
G05
G00X2.2664Y-0.8827
M15
G01X2.2782Y-0.8827
M16
G05
G00X2.2664Y-1.2291
M15
G01X2.2782Y-1.2291
M16
G05
G00X3.3553Y-0.8827
M15
G01X3.3671Y-0.8827
M16
G05
G00X3.3553Y-1.2291
M15
G01X3.3671Y-1.2291
M16
G05
G00X4.4441Y-0.8827
M15
G01X4.4559Y-0.8827
M16
G05
G00X4.4441Y-1.2291
M15
G01X4.4559Y-1.2291
M16
G05
G00X5.533Y-0.8827
M15
G01X5.5448Y-0.8827
M16
G05
G00X5.533Y-1.2291
M15
G01X5.5448Y-1.2291
M16
G05
G00X6.6219Y-0.8827
M15
G01X6.6337Y-0.8827
M16
G05
G00X6.6219Y-1.2291
M15
G01X6.6337Y-1.2291
M16
G05
G00X7.7107Y-0.8827
M15
G01X7.7225Y-0.8827
M16
G05
G00X7.7107Y-1.2291
M15
G01X7.7225Y-1.2291
M16
G05
G00X8.7996Y-0.8827
M15
G01X8.8114Y-0.8827
M16
G05
G00X8.7996Y-1.2291
M15
G01X8.8114Y-1.2291
M16
G05
M30
