M48
; DRILL file {KiCad 9.0.0} date 2025-06-12T15:08:18-0400
; FORMAT={-:-/ absolute / inch / decimal}
; #@! TF.CreationDate,2025-06-12T15:08:18-04:00
; #@! TF.GenerationSoftware,Kicad,Pcbnew,9.0.0
; #@! TF.FileFunction,Plated,1,2,PTH
FMAT,2
INCH
; #@! TA.AperFunction,Plated,PTH,ViaDrill
T1C0.0118
; #@! TA.AperFunction,Plated,PTH,ComponentDrill
T2C0.0354
; #@! TA.AperFunction,Plated,PTH,ComponentDrill
T3C0.0394
; #@! TA.AperFunction,Plated,PTH,ComponentDrill
T4C0.0402
; #@! TA.AperFunction,Plated,PTH,ComponentDrill
T5C0.0480
; #@! TA.AperFunction,Plated,PTH,ComponentDrill
T6C0.0559
; #@! TA.AperFunction,Plated,PTH,ComponentDrill
T7C0.0563
; #@! TA.AperFunction,Plated,PTH,ComponentDrill
T8C0.0709
%
G90
G05
T1
X0.7712Y-4.5437
X0.8071Y-4.8783
X0.871Y-1.6063
X0.9646Y-1.4335
X0.9843Y-3.6185
X0.9843Y-3.7366
X1.0374Y-1.5516
X1.0622Y-3.4394
X1.0699Y-3.7957
X1.1024Y-1.7465
X1.1383Y-3.6382
X1.1649Y-3.556
X1.1995Y-1.9453
X1.2008Y-2.398
X1.2122Y-3.4394
X1.2598Y-3.3035
X1.3122Y-3.2445
X1.3622Y-3.4394
X1.378Y-3.6776
X1.4459Y-3.6717
X1.4961Y-1.087
X1.5354Y-3.7091
X1.7653Y-4.5437
X1.8131Y-3.1303
X1.8406Y-4.8587
X1.9599Y-1.6028
X1.9783Y-3.6185
X1.9783Y-3.7366
X2.0534Y-1.4299
X2.0563Y-3.4394
X2.064Y-3.7957
X2.1291Y-1.548
X2.1324Y-3.6382
X2.159Y-3.556
X2.1912Y-1.7429
X2.2063Y-3.4394
X2.2441Y-2.5161
X2.2539Y-3.3035
X2.2884Y-1.9417
X2.2896Y-2.3945
X2.3063Y-3.2445
X2.3563Y-3.4394
X2.372Y-3.6776
X2.3819Y-3.1264
X2.44Y-3.6343
X2.44Y-3.6717
X2.5295Y-3.7091
X2.5849Y-1.0835
X2.5865Y-2.4648
X2.7594Y-4.5437
X2.8346Y-4.8587
X2.9724Y-3.6185
X2.9724Y-3.7366
X3.0488Y-1.6028
X3.0504Y-3.4394
X3.0581Y-3.7957
X3.1265Y-3.6382
X3.1423Y-1.4299
X3.1531Y-3.556
X3.2004Y-3.4394
X3.2301Y-1.548
X3.248Y-3.3035
X3.2801Y-1.7429
X3.3004Y-3.2445
X3.3465Y-2.5161
X3.3504Y-3.4394
X3.3661Y-3.6776
X3.3772Y-1.9417
X3.4341Y-3.6717
X3.4843Y-2.5161
X3.5236Y-3.1461
X3.5236Y-3.7091
X3.6738Y-1.0835
X3.7534Y-4.5437
X3.8287Y-4.8587
X3.9665Y-3.6185
X3.9665Y-3.7366
X4.0445Y-3.4394
X4.0522Y-3.7957
X4.1206Y-3.6382
X4.1376Y-1.6028
X4.1471Y-3.556
X4.1945Y-3.4394
X4.2311Y-1.4299
X4.2421Y-3.3035
X4.252Y-3.0988
X4.252Y-3.1461
X4.2945Y-3.2445
X4.3043Y-1.548
X4.3307Y-2.5161
X4.3504Y-3.4413
X4.3689Y-1.7429
X4.3701Y-3.6776
X4.4281Y-3.6343
X4.4281Y-3.6717
X4.4661Y-1.9417
X4.4685Y-2.5161
X4.5177Y-3.7091
X4.5295Y-2.663
X4.5295Y-2.963
X4.5295Y-3.013
X4.6654Y-3.1264
X4.7475Y-4.5437
X4.7626Y-1.0835
X4.8228Y-4.8587
X4.9606Y-3.6185
X4.9606Y-3.7366
X4.9803Y-2.9689
X5.0386Y-3.4394
X5.0463Y-3.7957
X5.1147Y-3.6382
X5.1412Y-3.556
X5.1886Y-3.4394
X5.1969Y-3.0673
X5.2265Y-1.6028
X5.2362Y-3.3035
X5.2886Y-3.2445
X5.32Y-1.4299
X5.3386Y-3.4394
X5.3543Y-3.6776
X5.4078Y-1.548
X5.4222Y-3.6717
X5.4578Y-1.7429
X5.5118Y-3.7091
X5.5549Y-1.9417
X5.7416Y-4.5437
X5.8169Y-4.8587
X5.8515Y-1.0835
X5.9547Y-3.6185
X5.9547Y-3.7366
X6.0327Y-3.4394
X6.0404Y-3.7957
X6.1088Y-3.6382
X6.1353Y-3.556
X6.1811Y-3.0673
X6.1827Y-3.4394
X6.2303Y-3.3035
X6.2827Y-3.2445
X6.3153Y-1.6028
X6.3327Y-3.4394
X6.3484Y-3.6776
X6.4089Y-1.4299
X6.4163Y-3.6717
X6.4967Y-1.548
X6.5059Y-3.7091
X6.5467Y-1.7429
X6.6438Y-1.9417
X6.7357Y-4.5437
X6.811Y-4.8246
X6.9404Y-1.0835
X6.9488Y-3.6185
X6.9488Y-3.7366
X7.0268Y-3.4394
X7.0344Y-3.7957
X7.1029Y-3.6382
X7.1294Y-3.556
X7.1768Y-3.4394
X7.185Y-3.0673
X7.2244Y-3.3035
X7.2768Y-3.2445
X7.3268Y-3.4394
X7.3425Y-3.6776
X7.4042Y-1.6028
X7.4104Y-3.6717
X7.4977Y-1.4299
X7.5Y-3.7091
X7.5855Y-1.548
X7.6355Y-1.7429
X7.7298Y-4.5437
X7.7326Y-1.9417
X7.8051Y-4.8232
X7.9429Y-3.6185
X7.9429Y-3.7366
X8.0209Y-3.4394
X8.0285Y-3.7957
X8.0292Y-1.0835
X8.0969Y-3.6382
X8.1235Y-3.556
X8.1693Y-3.0673
X8.1709Y-3.4394
X8.2185Y-3.3035
X8.2709Y-3.2445
X8.3209Y-3.4394
X8.3366Y-3.6776
X8.4045Y-3.6343
X8.4045Y-3.6717
X8.4252Y-2.9073
X8.4794Y-2.9187
X8.4931Y-1.6028
X8.4941Y-3.7091
X8.563Y-3.1854
X8.5826Y-3.3035
X8.5827Y-4.2681
X8.5827Y-4.7209
X8.5866Y-1.4299
X8.6158Y-4.1229
X8.6744Y-1.548
X8.7244Y-1.7429
X8.8189Y-4.465
X8.8215Y-1.9417
X8.8228Y-2.3945
X8.8529Y-4.4643
X8.8729Y-4.411
X8.878Y-3.0083
X8.878Y-3.2051
X8.8858Y-4.4648
X8.9154Y-4.3874
X8.9173Y-2.7917
X8.9173Y-4.465
X8.9498Y-4.4659
X8.9567Y-4.3637
X8.9828Y-4.4663
X8.9961Y-4.3401
X9.0166Y-4.4659
X9.0354Y-4.3165
X9.0748Y-4.2878
X9.1142Y-4.1252
X9.1181Y-1.0835
X9.1192Y-4.2507
X9.1339Y-3.2839
X9.2951Y-3.5791
X9.3543Y-4.1894
X9.4291Y-2.772
X9.5276Y-2.4374
T2
X0.8055Y-2.1283
X0.8055Y-2.2602
X0.8055Y-2.3921
X0.8055Y-3.937
X0.8055Y-4.0689
X0.8055Y-4.2008
X0.9055Y-2.1283
X0.9055Y-2.2602
X0.9055Y-2.3921
X0.9055Y-3.937
X0.9055Y-4.0689
X0.9055Y-4.2008
X1.7996Y-3.937
X1.7996Y-4.0689
X1.7996Y-4.2008
X1.8944Y-2.1248
X1.8944Y-2.2567
X1.8944Y-2.3886
X1.8996Y-3.937
X1.8996Y-4.0689
X1.8996Y-4.2008
X1.9944Y-2.1248
X1.9944Y-2.2567
X1.9944Y-2.3886
X2.7937Y-3.937
X2.7937Y-4.0689
X2.7937Y-4.2008
X2.8937Y-3.937
X2.8937Y-4.0689
X2.8937Y-4.2008
X2.9832Y-2.1248
X2.9832Y-2.2567
X2.9832Y-2.3886
X3.0832Y-2.1248
X3.0832Y-2.2567
X3.0832Y-2.3886
X3.7878Y-3.937
X3.7878Y-4.0689
X3.7878Y-4.2008
X3.8878Y-3.937
X3.8878Y-4.0689
X3.8878Y-4.2008
X4.0721Y-2.1248
X4.0721Y-2.2567
X4.0721Y-2.3886
X4.1721Y-2.1248
X4.1721Y-2.2567
X4.1721Y-2.3886
X4.7819Y-3.937
X4.7819Y-4.0689
X4.7819Y-4.2008
X4.8819Y-3.937
X4.8819Y-4.0689
X4.8819Y-4.2008
X5.1609Y-2.1248
X5.1609Y-2.2567
X5.1609Y-2.3886
X5.2609Y-2.1248
X5.2609Y-2.2567
X5.2609Y-2.3886
X5.776Y-3.937
X5.776Y-4.0689
X5.776Y-4.2008
X5.876Y-3.937
X5.876Y-4.0689
X5.876Y-4.2008
X6.2498Y-2.1248
X6.2498Y-2.2567
X6.2498Y-2.3886
X6.3498Y-2.1248
X6.3498Y-2.2567
X6.3498Y-2.3886
X6.7701Y-3.937
X6.7701Y-4.0689
X6.7701Y-4.2008
X6.8701Y-3.937
X6.8701Y-4.0689
X6.8701Y-4.2008
X7.3387Y-2.1248
X7.3387Y-2.2567
X7.3387Y-2.3886
X7.4387Y-2.1248
X7.4387Y-2.2567
X7.4387Y-2.3886
X7.7642Y-3.937
X7.7642Y-4.0689
X7.7642Y-4.2008
X7.8642Y-3.937
X7.8642Y-4.0689
X7.8642Y-4.2008
X8.4275Y-2.1248
X8.4275Y-2.2567
X8.4275Y-2.3886
X8.5275Y-2.1248
X8.5275Y-2.2567
X8.5275Y-2.3886
T3
X0.9079Y-0.961
X0.9079Y-1.0594
X0.9079Y-1.1579
X1.2737Y-4.4993
X1.2774Y-4.7315
X1.3737Y-4.4993
X1.3774Y-4.7315
X1.3976Y-2.3783
X1.4737Y-4.4993
X1.4774Y-4.7315
X1.4976Y-2.3783
X1.5976Y-2.3783
X1.9967Y-0.9575
X1.9967Y-1.0559
X1.9967Y-1.1543
X2.268Y-4.5025
X2.2715Y-4.7315
X2.368Y-4.5025
X2.3715Y-4.7315
X2.468Y-4.5025
X2.4715Y-4.7315
X2.4865Y-2.3748
X2.5865Y-2.3748
X2.6865Y-2.3748
X3.0856Y-0.9575
X3.0856Y-1.0559
X3.0856Y-1.1543
X3.2622Y-4.4929
X3.2656Y-4.7315
X3.3622Y-4.4929
X3.3656Y-4.7315
X3.4622Y-4.4929
X3.4656Y-4.7315
X3.5754Y-2.3748
X3.6754Y-2.3748
X3.7754Y-2.3748
X4.1744Y-0.9575
X4.1744Y-1.0559
X4.1744Y-1.1543
X4.2564Y-4.4865
X4.2596Y-4.7315
X4.3564Y-4.4865
X4.3596Y-4.7315
X4.4564Y-4.4865
X4.4596Y-4.7315
X4.6642Y-2.3748
X4.7642Y-2.3748
X4.8642Y-2.3748
X5.2507Y-4.4961
X5.2537Y-4.7315
X5.2633Y-0.9575
X5.2633Y-1.0559
X5.2633Y-1.1543
X5.3507Y-4.4961
X5.3537Y-4.7315
X5.4507Y-4.4961
X5.4537Y-4.7315
X5.7531Y-2.3748
X5.8531Y-2.3748
X5.9531Y-2.3748
X6.2449Y-4.4897
X6.2478Y-4.7315
X6.3449Y-4.4897
X6.3478Y-4.7315
X6.3522Y-0.9575
X6.3522Y-1.0559
X6.3522Y-1.1543
X6.4449Y-4.4897
X6.4478Y-4.7315
X6.8419Y-2.3748
X6.9419Y-2.3748
X7.0419Y-2.3748
X7.2391Y-4.5057
X7.2419Y-4.7315
X7.3391Y-4.5057
X7.3419Y-4.7315
X7.4391Y-4.5057
X7.441Y-0.9575
X7.441Y-1.0559
X7.441Y-1.1543
X7.4419Y-4.7315
X7.9308Y-2.3748
X8.0308Y-2.3748
X8.1308Y-2.3748
X8.2334Y-4.4833
X8.236Y-4.7315
X8.3334Y-4.4833
X8.336Y-4.7315
X8.4334Y-4.4833
X8.436Y-4.7315
X8.5299Y-0.9575
X8.5299Y-1.0559
X8.5299Y-1.1543
X9.0196Y-2.3748
X9.1196Y-2.3748
X9.2196Y-2.3748
T4
X8.7642Y-2.8799
X8.7642Y-2.9799
X8.7642Y-3.0799
X8.7642Y-3.1799
X8.7642Y-3.2799
X8.7642Y-3.3799
X8.7642Y-3.4799
X8.7642Y-3.5799
X8.7642Y-3.6799
X8.7642Y-3.7799
X8.7642Y-3.8799
X8.7642Y-3.9799
X8.7642Y-4.0799
X8.7642Y-4.1799
X8.7642Y-4.2799
X8.7642Y-4.3799
X8.7642Y-4.4799
X8.7642Y-4.5799
X8.7642Y-4.6799
X8.7642Y-4.7799
X9.4642Y-2.8799
X9.4642Y-2.9799
X9.4642Y-3.0799
X9.4642Y-3.1799
X9.4642Y-3.2799
X9.4642Y-3.3799
X9.4642Y-3.4799
X9.4642Y-3.5799
X9.4642Y-3.6799
X9.4642Y-3.7799
X9.4642Y-3.8799
X9.4642Y-3.9799
X9.4642Y-4.0799
X9.4642Y-4.1799
X9.4642Y-4.2799
X9.4642Y-4.3799
X9.4642Y-4.4799
X9.4642Y-4.5799
X9.4642Y-4.6799
X9.4642Y-4.7799
T5
X1.378Y-3.8189
X1.4961Y-2.1335
X2.372Y-3.8189
X2.5849Y-2.1299
X3.3661Y-3.8189
X3.6738Y-2.1299
X4.3602Y-3.8189
X4.7626Y-2.1299
X5.3543Y-3.8189
X5.8515Y-2.1299
X6.3484Y-3.8189
X6.9404Y-2.1299
X7.3425Y-3.8189
X8.0292Y-2.1299
X8.3366Y-3.8189
X9.1181Y-2.1299
T6
X1.378Y-3.9409
X1.4961Y-2.0114
X2.372Y-3.9409
X2.5849Y-2.0079
X3.3661Y-3.9409
X3.6738Y-2.0079
X4.3602Y-3.9409
X4.7626Y-2.0079
X5.3543Y-3.9409
X5.8515Y-2.0079
X6.3484Y-3.9409
X6.9404Y-2.0079
X7.3425Y-3.9409
X8.0292Y-2.0079
X8.3366Y-3.9409
X9.1181Y-2.0079
T7
X1.378Y-4.2677
X1.4961Y-1.6846
X2.372Y-4.2677
X2.5849Y-1.6811
X3.3661Y-4.2677
X3.6738Y-1.6811
X4.3602Y-4.2677
X4.7626Y-1.6811
X5.3543Y-4.2677
X5.8515Y-1.6811
X6.3484Y-4.2677
X6.9404Y-1.6811
X7.3425Y-4.2677
X8.0292Y-1.6811
X8.3366Y-4.2677
X9.1181Y-1.6811
T8
G00X1.1776Y-0.8862
M15
G01X1.1894Y-0.8862
M16
G05
G00X1.1776Y-1.2327
M15
G01X1.1894Y-1.2327
M16
G05
G00X2.2664Y-0.8827
M15
G01X2.2782Y-0.8827
M16
G05
G00X2.2664Y-1.2291
M15
G01X2.2782Y-1.2291
M16
G05
G00X3.3553Y-0.8827
M15
G01X3.3671Y-0.8827
M16
G05
G00X3.3553Y-1.2291
M15
G01X3.3671Y-1.2291
M16
G05
G00X4.4441Y-0.8827
M15
G01X4.4559Y-0.8827
M16
G05
G00X4.4441Y-1.2291
M15
G01X4.4559Y-1.2291
M16
G05
G00X5.533Y-0.8827
M15
G01X5.5448Y-0.8827
M16
G05
G00X5.533Y-1.2291
M15
G01X5.5448Y-1.2291
M16
G05
G00X6.6219Y-0.8827
M15
G01X6.6337Y-0.8827
M16
G05
G00X6.6219Y-1.2291
M15
G01X6.6337Y-1.2291
M16
G05
G00X7.7107Y-0.8827
M15
G01X7.7225Y-0.8827
M16
G05
G00X7.7107Y-1.2291
M15
G01X7.7225Y-1.2291
M16
G05
G00X8.7996Y-0.8827
M15
G01X8.8114Y-0.8827
M16
G05
G00X8.7996Y-1.2291
M15
G01X8.8114Y-1.2291
M16
G05
M30
