%TF.GenerationSoftware,KiCad,Pcbnew,8.0.8-8.0.8-0~ubuntu24.04.1*%
%TF.CreationDate,2025-02-27T08:39:19-05:00*%
%TF.ProjectId,Oblique Pallette 5x Eurorack Faceplate,4f626c69-7175-4652-9050-616c6c657474,rev?*%
%TF.SameCoordinates,Original*%
%TF.FileFunction,Copper,L1,Top*%
%TF.FilePolarity,Positive*%
%FSLAX46Y46*%
G04 Gerber Fmt 4.6, Leading zero omitted, Abs format (unit mm)*
G04 Created by KiCad (PCBNEW 8.0.8-8.0.8-0~ubuntu24.04.1) date 2025-02-27 08:39:19*
%MOMM*%
%LPD*%
G01*
G04 APERTURE LIST*
%TA.AperFunction,Profile*%
%ADD10C,0.100000*%
%TD*%
%TA.AperFunction,Profile*%
%ADD11C,0.050000*%
%TD*%
G04 APERTURE END LIST*
D10*
X157892466Y-80624466D02*
X167092466Y-80624466D01*
X167092466Y-88124466D01*
X157892466Y-88124466D01*
X157892466Y-80624466D01*
X83588894Y-122244964D02*
X88788894Y-122244964D01*
X88788894Y-134744964D01*
X83588894Y-134744964D01*
X83588894Y-122244964D01*
X48011370Y-50284466D02*
G75*
G02*
X41037562Y-50284466I-3486904J0D01*
G01*
X41037562Y-50284466D02*
G75*
G02*
X48011370Y-50284466I3486904J0D01*
G01*
X213206466Y-80624466D02*
X222406466Y-80624466D01*
X222406466Y-88124466D01*
X213206466Y-88124466D01*
X213206466Y-80624466D01*
D11*
X257014466Y-157744466D02*
G75*
G02*
X254514466Y-157744466I-1250000J0D01*
G01*
X254514466Y-157744466D02*
G75*
G02*
X257014466Y-157744466I1250000J0D01*
G01*
D10*
X226693466Y-76300466D02*
X231893466Y-76300466D01*
X231893466Y-88800466D01*
X226693466Y-88800466D01*
X226693466Y-76300466D01*
X60751466Y-76300466D02*
X65951466Y-76300466D01*
X65951466Y-88800466D01*
X60751466Y-88800466D01*
X60751466Y-76300466D01*
X69655055Y-138004735D02*
X78855055Y-138004735D01*
X78855055Y-145504735D01*
X69655055Y-145504735D01*
X69655055Y-138004735D01*
X213953370Y-50284466D02*
G75*
G02*
X206979562Y-50284466I-3486904J0D01*
G01*
X206979562Y-50284466D02*
G75*
G02*
X213953370Y-50284466I3486904J0D01*
G01*
X178214466Y-126944466D02*
G75*
G02*
X172214466Y-126944466I-3000000J0D01*
G01*
X172214466Y-126944466D02*
G75*
G02*
X178214466Y-126944466I3000000J0D01*
G01*
X88408466Y-76300466D02*
X93608466Y-76300466D01*
X93608466Y-88800466D01*
X88408466Y-88800466D01*
X88408466Y-76300466D01*
X209838894Y-122244964D02*
X215038894Y-122244964D01*
X215038894Y-134744964D01*
X209838894Y-134744964D01*
X209838894Y-122244964D01*
X158639370Y-50284466D02*
G75*
G02*
X151665562Y-50284466I-3486904J0D01*
G01*
X151665562Y-50284466D02*
G75*
G02*
X158639370Y-50284466I3486904J0D01*
G01*
X102464466Y-126944466D02*
G75*
G02*
X96464466Y-126944466I-3000000J0D01*
G01*
X96464466Y-126944466D02*
G75*
G02*
X102464466Y-126944466I3000000J0D01*
G01*
X116065466Y-76300466D02*
X121265466Y-76300466D01*
X121265466Y-88800466D01*
X116065466Y-88800466D01*
X116065466Y-76300466D01*
X241610370Y-50284466D02*
G75*
G02*
X234636562Y-50284466I-3486904J0D01*
G01*
X234636562Y-50284466D02*
G75*
G02*
X241610370Y-50284466I3486904J0D01*
G01*
X228714466Y-126944466D02*
G75*
G02*
X222714466Y-126944466I-3000000J0D01*
G01*
X222714466Y-126944466D02*
G75*
G02*
X228714466Y-126944466I3000000J0D01*
G01*
X251264466Y-43374466D02*
X260964466Y-43374466D01*
X260964466Y-80874466D01*
X251264466Y-80874466D01*
X251264466Y-43374466D01*
X240863466Y-80624466D02*
X250063466Y-80624466D01*
X250063466Y-88124466D01*
X240863466Y-88124466D01*
X240863466Y-80624466D01*
X185549466Y-80624466D02*
X194749466Y-80624466D01*
X194749466Y-88124466D01*
X185549466Y-88124466D01*
X185549466Y-80624466D01*
X51964466Y-126944466D02*
G75*
G02*
X45964466Y-126944466I-3000000J0D01*
G01*
X45964466Y-126944466D02*
G75*
G02*
X51964466Y-126944466I3000000J0D01*
G01*
X103325370Y-50284466D02*
G75*
G02*
X96351562Y-50284466I-3486904J0D01*
G01*
X96351562Y-50284466D02*
G75*
G02*
X103325370Y-50284466I3486904J0D01*
G01*
X120155055Y-138004735D02*
X129355055Y-138004735D01*
X129355055Y-145504735D01*
X120155055Y-145504735D01*
X120155055Y-138004735D01*
X74921466Y-80624466D02*
X84121466Y-80624466D01*
X84121466Y-88124466D01*
X74921466Y-88124466D01*
X74921466Y-80624466D01*
X171379466Y-76300466D02*
X176579466Y-76300466D01*
X176579466Y-88800466D01*
X171379466Y-88800466D01*
X171379466Y-76300466D01*
X186296370Y-50284466D02*
G75*
G02*
X179322562Y-50284466I-3486904J0D01*
G01*
X179322562Y-50284466D02*
G75*
G02*
X186296370Y-50284466I3486904J0D01*
G01*
X195905055Y-138004735D02*
X205105055Y-138004735D01*
X205105055Y-145504735D01*
X195905055Y-145504735D01*
X195905055Y-138004735D01*
X143722466Y-76300466D02*
X148922466Y-76300466D01*
X148922466Y-88800466D01*
X143722466Y-88800466D01*
X143722466Y-76300466D01*
D11*
X38414466Y-157744466D02*
G75*
G02*
X35914466Y-157744466I-1250000J0D01*
G01*
X35914466Y-157744466D02*
G75*
G02*
X38414466Y-157744466I1250000J0D01*
G01*
D10*
X203464466Y-126944466D02*
G75*
G02*
X197464466Y-126944466I-3000000J0D01*
G01*
X197464466Y-126944466D02*
G75*
G02*
X203464466Y-126944466I3000000J0D01*
G01*
X47264466Y-80624466D02*
X56464466Y-80624466D01*
X56464466Y-88124466D01*
X47264466Y-88124466D01*
X47264466Y-80624466D01*
X33094466Y-76300466D02*
X38294466Y-76300466D01*
X38294466Y-88800466D01*
X33094466Y-88800466D01*
X33094466Y-76300466D01*
X159338894Y-122244964D02*
X164538894Y-122244964D01*
X164538894Y-134744964D01*
X159338894Y-134744964D01*
X159338894Y-122244964D01*
D11*
X257014466Y-32184466D02*
G75*
G02*
X254514466Y-32184466I-1250000J0D01*
G01*
X254514466Y-32184466D02*
G75*
G02*
X257014466Y-32184466I1250000J0D01*
G01*
D10*
X170655055Y-138004735D02*
X179855055Y-138004735D01*
X179855055Y-145504735D01*
X170655055Y-145504735D01*
X170655055Y-138004735D01*
X44405055Y-138004735D02*
X53605055Y-138004735D01*
X53605055Y-145504735D01*
X44405055Y-145504735D01*
X44405055Y-138004735D01*
X199036466Y-76300466D02*
X204236466Y-76300466D01*
X204236466Y-88800466D01*
X199036466Y-88800466D01*
X199036466Y-76300466D01*
X145405055Y-138004735D02*
X154605055Y-138004735D01*
X154605055Y-145504735D01*
X145405055Y-145504735D01*
X145405055Y-138004735D01*
X75668370Y-50284466D02*
G75*
G02*
X68694562Y-50284466I-3486904J0D01*
G01*
X68694562Y-50284466D02*
G75*
G02*
X75668370Y-50284466I3486904J0D01*
G01*
X77214466Y-126944466D02*
G75*
G02*
X71214466Y-126944466I-3000000J0D01*
G01*
X71214466Y-126944466D02*
G75*
G02*
X77214466Y-126944466I3000000J0D01*
G01*
X134088894Y-122244964D02*
X139288894Y-122244964D01*
X139288894Y-134744964D01*
X134088894Y-134744964D01*
X134088894Y-122244964D01*
X33088894Y-122244964D02*
X38288894Y-122244964D01*
X38288894Y-134744964D01*
X33088894Y-134744964D01*
X33088894Y-122244964D01*
X102578466Y-80624466D02*
X111778466Y-80624466D01*
X111778466Y-88124466D01*
X102578466Y-88124466D01*
X102578466Y-80624466D01*
D11*
X38414466Y-32184466D02*
G75*
G02*
X35914466Y-32184466I-1250000J0D01*
G01*
X35914466Y-32184466D02*
G75*
G02*
X38414466Y-32184466I1250000J0D01*
G01*
D10*
X130982370Y-50284466D02*
G75*
G02*
X124008562Y-50284466I-3486904J0D01*
G01*
X124008562Y-50284466D02*
G75*
G02*
X130982370Y-50284466I3486904J0D01*
G01*
X221155055Y-138004735D02*
X230355055Y-138004735D01*
X230355055Y-145504735D01*
X221155055Y-145504735D01*
X221155055Y-138004735D01*
X108838894Y-122244964D02*
X114038894Y-122244964D01*
X114038894Y-134744964D01*
X108838894Y-134744964D01*
X108838894Y-122244964D01*
X127714466Y-126944466D02*
G75*
G02*
X121714466Y-126944466I-3000000J0D01*
G01*
X121714466Y-126944466D02*
G75*
G02*
X127714466Y-126944466I3000000J0D01*
G01*
X184588894Y-122244964D02*
X189788894Y-122244964D01*
X189788894Y-134744964D01*
X184588894Y-134744964D01*
X184588894Y-122244964D01*
X58338894Y-122244964D02*
X63538894Y-122244964D01*
X63538894Y-134744964D01*
X58338894Y-134744964D01*
X58338894Y-122244964D01*
X94905055Y-138004735D02*
X104105055Y-138004735D01*
X104105055Y-145504735D01*
X94905055Y-145504735D01*
X94905055Y-138004735D01*
X130235466Y-80624466D02*
X139435466Y-80624466D01*
X139435466Y-88124466D01*
X130235466Y-88124466D01*
X130235466Y-80624466D01*
D11*
X28964466Y-30518000D02*
X263964466Y-30518000D01*
X263964466Y-159518000D01*
X28964466Y-159518000D01*
X28964466Y-30518000D01*
M02*
