M48
; DRILL file {KiCad 9.0.3} date 2025-08-26T17:21:35-0400
; FORMAT={-:-/ absolute / metric / decimal}
; #@! TF.CreationDate,2025-08-26T17:21:35-04:00
; #@! TF.GenerationSoftware,Kicad,Pcbnew,9.0.3
; #@! TF.FileFunction,Plated,1,2,PTH
FMAT,2
METRIC
; #@! TA.AperFunction,Plated,PTH,ViaDrill
T1C0.300
; #@! TA.AperFunction,Plated,PTH,ComponentDrill
T2C0.900
; #@! TA.AperFunction,Plated,PTH,ComponentDrill
T3C1.000
; #@! TA.AperFunction,Plated,PTH,ComponentDrill
T4C1.020
; #@! TA.AperFunction,Plated,PTH,ComponentDrill
T5C1.220
; #@! TA.AperFunction,Plated,PTH,ComponentDrill
T6C1.420
; #@! TA.AperFunction,Plated,PTH,ComponentDrill
T7C1.430
; #@! TA.AperFunction,Plated,PTH,ComponentDrill
T8C1.800
%
G90
G05
T1
X18.915Y-46.91
X22.157Y-61.597
X23.422Y-94.444
X23.547Y-74.457
X23.893Y-31.258
X26.612Y-96.444
X29.152Y-96.444
X30.422Y-101.394
X31.447Y-28.047
X32.717Y-23.097
X32.717Y-28.047
X32.889Y-106.444
X32.922Y-117.944
X34.232Y-101.394
X34.547Y-74.457
X37.382Y-33.947
X37.382Y-34.897
X39.047Y-23.457
X39.657Y-34.897
X40.422Y-84.644
X41.0Y-24.91
X41.913Y-18.241
X43.047Y-32.457
X43.764Y-46.707
X44.165Y-49.91
X45.047Y-33.957
X45.547Y-74.457
X46.447Y-32.457
X49.0Y-63.697
X50.907Y-35.008
X51.547Y-85.457
X52.0Y-37.91
X52.448Y-94.354
X52.879Y-33.789
X52.887Y-28.047
X53.298Y-98.254
X54.129Y-32.539
X56.547Y-74.457
X57.967Y-23.097
X57.968Y-27.957
X58.178Y-96.354
X59.448Y-101.304
X61.948Y-117.854
X61.965Y-103.454
X62.632Y-32.997
X62.632Y-33.947
X62.632Y-34.897
X63.258Y-101.304
X64.907Y-34.897
X66.547Y-23.457
X67.547Y-74.457
X68.964Y-46.56
X69.448Y-84.554
X70.0Y-49.91
X71.547Y-31.957
X72.657Y-63.727
X75.385Y-34.56
X77.0Y-37.91
X78.137Y-28.047
X78.547Y-74.457
X80.474Y-85.442
X80.547Y-34.357
X80.547Y-35.959
X81.474Y-94.354
X81.947Y-28.047
X82.324Y-98.254
X83.217Y-23.097
X83.217Y-28.047
X87.204Y-96.354
X87.882Y-33.947
X87.882Y-34.897
X88.474Y-101.304
X90.157Y-34.897
X90.941Y-106.354
X90.974Y-117.854
X92.284Y-101.304
X92.547Y-22.607
X94.047Y-46.457
X95.326Y-49.741
X95.547Y-31.457
X95.547Y-74.457
X97.907Y-62.91
X98.474Y-84.554
X101.241Y-34.229
X101.407Y-37.91
X103.387Y-28.047
X106.547Y-74.457
X107.197Y-28.047
X108.467Y-23.097
X108.467Y-28.047
X109.547Y-85.457
X110.5Y-94.354
X111.35Y-98.254
X113.047Y-33.957
X113.132Y-32.997
X113.132Y-34.897
X114.17Y-79.58
X115.407Y-34.897
X116.23Y-96.354
X117.5Y-101.304
X118.047Y-22.107
X119.047Y-45.957
X119.547Y-29.957
X119.967Y-106.354
X120.0Y-117.854
X120.728Y-49.182
X121.31Y-101.304
X123.157Y-63.727
X125.072Y-72.862
X126.657Y-31.91
X127.5Y-84.554
X128.0Y-36.91
X128.637Y-28.047
X130.022Y-71.592
X130.022Y-72.857
X130.022Y-74.132
X130.022Y-75.402
X131.473Y-75.071
X132.447Y-28.047
X133.717Y-23.097
X133.717Y-28.047
X138.382Y-33.947
X138.382Y-34.897
X138.526Y-85.442
X139.526Y-94.354
X140.264Y-80.185
X140.376Y-98.254
X140.657Y-34.897
X143.547Y-22.457
X144.324Y-45.957
X145.256Y-96.354
X145.364Y-48.91
X146.526Y-101.304
X147.047Y-28.957
X148.407Y-63.557
X148.993Y-106.354
X149.026Y-117.854
X149.066Y-101.304
X151.907Y-33.957
X153.0Y-36.91
X153.887Y-28.047
X156.526Y-84.554
X157.697Y-28.047
X158.967Y-23.097
X158.967Y-28.047
X163.632Y-32.997
X163.632Y-33.947
X163.632Y-34.897
X165.907Y-34.897
X167.551Y-85.442
X168.547Y-21.957
X168.551Y-94.354
X169.401Y-98.254
X170.0Y-46.91
X171.0Y-49.91
X171.957Y-28.047
X173.547Y-63.727
X174.281Y-96.354
X175.551Y-101.304
X176.555Y-33.355
X178.0Y-36.91
X178.019Y-106.354
X178.051Y-117.854
X179.137Y-28.047
X179.361Y-101.304
X182.947Y-28.047
X184.047Y-75.957
X184.217Y-23.097
X184.217Y-28.047
X185.551Y-84.554
X188.866Y-33.963
X188.882Y-34.897
X191.157Y-34.897
X194.047Y-22.957
X195.216Y-47.37
X196.577Y-85.442
X196.603Y-49.307
X197.047Y-27.957
X197.577Y-94.354
X198.427Y-98.254
X199.047Y-63.909
X202.047Y-78.457
X202.407Y-33.957
X202.407Y-37.91
X202.874Y-21.01
X203.307Y-96.354
X204.387Y-28.047
X204.577Y-101.304
X207.044Y-106.354
X207.077Y-117.854
X207.117Y-101.304
X208.197Y-23.107
X208.197Y-28.047
X209.467Y-23.097
X209.467Y-28.047
X214.132Y-32.997
X214.132Y-33.947
X214.132Y-34.897
X214.577Y-84.554
X216.291Y-66.201
X216.407Y-34.897
X217.047Y-51.957
X218.047Y-20.957
X219.047Y-60.957
X219.547Y-20.958
X219.775Y-17.393
X220.579Y-17.198
X221.135Y-66.957
X225.5Y-76.41
X225.853Y-85.442
X226.853Y-94.354
X227.703Y-98.254
X228.547Y-26.377
X230.138Y-72.849
X231.0Y-79.91
X232.583Y-96.354
X233.047Y-20.957
X233.853Y-101.304
X234.047Y-20.957
X235.047Y-20.971
X236.047Y-20.971
X236.32Y-106.354
X236.353Y-117.854
X236.393Y-101.304
X237.047Y-20.971
X238.047Y-20.971
X238.261Y-65.412
X239.047Y-20.971
X240.0Y-20.954
X243.853Y-84.554
T2
X21.117Y-40.687
X21.117Y-44.037
X21.117Y-47.387
X22.882Y-111.094
X22.882Y-114.444
X22.882Y-117.794
X23.657Y-40.687
X23.657Y-44.037
X23.657Y-47.387
X25.422Y-111.094
X25.422Y-114.444
X25.422Y-117.794
X46.367Y-40.687
X46.367Y-44.037
X46.367Y-47.387
X48.907Y-40.687
X48.907Y-44.037
X48.907Y-47.387
X51.908Y-111.004
X51.908Y-114.354
X51.908Y-117.704
X54.448Y-111.004
X54.448Y-114.354
X54.448Y-117.704
X71.617Y-40.687
X71.617Y-44.037
X71.617Y-47.387
X74.157Y-40.687
X74.157Y-44.037
X74.157Y-47.387
X80.934Y-111.004
X80.934Y-114.354
X80.934Y-117.704
X83.474Y-111.004
X83.474Y-114.354
X83.474Y-117.704
X96.867Y-40.687
X96.867Y-44.037
X96.867Y-47.387
X99.407Y-40.687
X99.407Y-44.037
X99.407Y-47.387
X109.96Y-111.004
X109.96Y-114.354
X109.96Y-117.704
X112.5Y-111.004
X112.5Y-114.354
X112.5Y-117.704
X122.117Y-40.687
X122.117Y-44.037
X122.117Y-47.387
X124.657Y-40.687
X124.657Y-44.037
X124.657Y-47.387
X138.986Y-111.004
X138.986Y-114.354
X138.986Y-117.704
X141.526Y-111.004
X141.526Y-114.354
X141.526Y-117.704
X147.367Y-40.687
X147.367Y-44.037
X147.367Y-47.387
X149.907Y-40.687
X149.907Y-44.037
X149.907Y-47.387
X168.011Y-111.004
X168.011Y-114.354
X168.011Y-117.704
X170.551Y-111.004
X170.551Y-114.354
X170.551Y-117.704
X172.617Y-40.687
X172.617Y-44.037
X172.617Y-47.387
X175.157Y-40.687
X175.157Y-44.037
X175.157Y-47.387
X197.037Y-111.004
X197.037Y-114.354
X197.037Y-117.704
X197.867Y-40.687
X197.867Y-44.037
X197.867Y-47.387
X199.577Y-111.004
X199.577Y-114.354
X199.577Y-117.704
X200.407Y-40.687
X200.407Y-44.037
X200.407Y-47.387
X226.313Y-111.004
X226.313Y-114.354
X226.313Y-117.704
X228.853Y-111.004
X228.853Y-114.354
X228.853Y-117.704
T3
X25.482Y-81.444
X25.482Y-83.944
X25.482Y-86.444
X32.883Y-55.457
X32.892Y-60.982
X35.423Y-55.457
X35.432Y-60.982
X37.922Y-117.444
X37.963Y-55.457
X37.972Y-60.982
X40.462Y-117.444
X43.002Y-117.444
X54.508Y-81.354
X54.508Y-83.854
X54.508Y-86.354
X58.142Y-60.982
X58.157Y-55.439
X60.682Y-60.982
X60.697Y-55.439
X63.222Y-60.982
X63.237Y-55.439
X66.948Y-117.354
X69.488Y-117.354
X72.028Y-117.354
X83.392Y-60.982
X83.407Y-55.439
X83.534Y-81.354
X83.534Y-83.854
X83.534Y-86.354
X85.932Y-60.982
X85.947Y-55.439
X88.472Y-60.982
X88.487Y-55.439
X95.974Y-117.354
X98.514Y-117.354
X101.054Y-117.354
X108.642Y-60.982
X108.657Y-55.439
X111.182Y-60.982
X111.197Y-55.439
X112.56Y-81.354
X112.56Y-83.854
X112.56Y-86.354
X113.722Y-60.982
X113.737Y-55.439
X125.0Y-117.354
X127.54Y-117.354
X130.08Y-117.354
X133.892Y-60.982
X133.967Y-55.439
X136.432Y-60.982
X136.507Y-55.439
X138.972Y-60.982
X139.047Y-55.439
X141.586Y-81.354
X141.586Y-83.854
X141.586Y-86.354
X154.026Y-117.354
X156.566Y-117.354
X159.106Y-117.354
X159.142Y-60.982
X159.467Y-55.439
X161.682Y-60.982
X162.007Y-55.439
X164.222Y-60.982
X164.547Y-55.439
X170.611Y-81.354
X170.611Y-83.854
X170.611Y-86.354
X183.051Y-117.354
X184.392Y-60.982
X184.467Y-55.439
X185.591Y-117.354
X186.932Y-60.982
X187.007Y-55.439
X188.131Y-117.354
X189.472Y-60.982
X189.547Y-55.439
X199.637Y-81.354
X199.637Y-83.854
X199.637Y-86.354
X209.642Y-60.982
X209.967Y-55.457
X212.077Y-117.354
X212.182Y-60.982
X212.507Y-55.457
X214.617Y-117.354
X214.722Y-60.982
X215.047Y-55.457
X217.157Y-117.354
X228.913Y-81.354
X228.913Y-83.854
X228.913Y-86.354
X241.353Y-117.354
X243.893Y-117.354
X246.433Y-117.354
T4
X226.267Y-21.297
X226.267Y-23.837
X226.267Y-26.377
X226.267Y-28.917
X226.267Y-31.457
X226.267Y-33.997
X226.267Y-36.537
X226.267Y-39.077
X226.267Y-41.617
X226.267Y-44.157
X226.267Y-46.697
X226.267Y-49.237
X226.267Y-51.777
X226.267Y-54.317
X226.267Y-56.857
X226.267Y-59.397
X226.267Y-61.937
X226.267Y-64.477
X226.267Y-67.017
X226.267Y-69.557
X244.047Y-21.297
X244.047Y-23.837
X244.047Y-26.377
X244.047Y-28.917
X244.047Y-31.457
X244.047Y-33.997
X244.047Y-36.537
X244.047Y-39.077
X244.047Y-41.617
X244.047Y-44.157
X244.047Y-46.697
X244.047Y-49.237
X244.047Y-51.777
X244.047Y-54.317
X244.047Y-56.857
X244.047Y-59.397
X244.047Y-61.937
X244.047Y-64.477
X244.047Y-67.017
X244.047Y-69.557
T5
X35.657Y-37.687
X40.422Y-111.224
X60.907Y-37.687
X69.448Y-111.134
X86.157Y-37.687
X98.474Y-111.134
X111.407Y-37.687
X127.5Y-111.134
X136.657Y-37.687
X156.526Y-111.134
X161.907Y-37.687
X185.551Y-111.134
X187.157Y-37.687
X212.407Y-37.687
X214.577Y-111.134
X243.853Y-111.134
T6
X35.657Y-40.787
X40.422Y-108.124
X60.907Y-40.787
X69.448Y-108.034
X86.157Y-40.787
X98.474Y-108.034
X111.407Y-40.787
X127.5Y-108.034
X136.657Y-40.787
X156.526Y-108.034
X161.907Y-40.787
X185.551Y-108.034
X187.157Y-40.787
X212.407Y-40.787
X214.577Y-108.034
X243.853Y-108.034
T7
X35.657Y-49.087
X40.422Y-99.824
X60.907Y-49.087
X69.448Y-99.734
X86.157Y-49.087
X98.474Y-99.734
X111.407Y-49.087
X127.5Y-99.734
X136.657Y-49.087
X156.526Y-99.734
X161.907Y-49.087
X185.551Y-99.734
X187.157Y-49.087
X212.407Y-49.087
X214.577Y-99.734
X243.853Y-99.734
T8
G00X32.332Y-79.544
M15
G01X32.632Y-79.544
M16
G05
G00X32.332Y-88.344
M15
G01X32.632Y-88.344
M16
G05
G00X61.358Y-79.454
M15
G01X61.658Y-79.454
M16
G05
G00X61.358Y-88.254
M15
G01X61.658Y-88.254
M16
G05
G00X90.384Y-79.454
M15
G01X90.684Y-79.454
M16
G05
G00X90.384Y-88.254
M15
G01X90.684Y-88.254
M16
G05
G00X119.41Y-79.454
M15
G01X119.71Y-79.454
M16
G05
G00X119.41Y-88.254
M15
G01X119.71Y-88.254
M16
G05
G00X148.436Y-79.454
M15
G01X148.736Y-79.454
M16
G05
G00X148.436Y-88.254
M15
G01X148.736Y-88.254
M16
G05
G00X177.461Y-79.454
M15
G01X177.761Y-79.454
M16
G05
G00X177.461Y-88.254
M15
G01X177.761Y-88.254
M16
G05
G00X206.487Y-79.454
M15
G01X206.787Y-79.454
M16
G05
G00X206.487Y-88.254
M15
G01X206.787Y-88.254
M16
G05
G00X235.763Y-79.454
M15
G01X236.063Y-79.454
M16
G05
G00X235.763Y-88.254
M15
G01X236.063Y-88.254
M16
G05
M30
