G04 #@! TF.GenerationSoftware,KiCad,Pcbnew,9.0.3*
G04 #@! TF.CreationDate,2025-08-26T17:21:35-04:00*
G04 #@! TF.ProjectId,Oblique Palette 0.5.4 PCB Main,4f626c69-7175-4652-9050-616c65747465,0.5.5*
G04 #@! TF.SameCoordinates,Original*
G04 #@! TF.FileFunction,Other,User*
%FSLAX46Y46*%
G04 Gerber Fmt 4.6, Leading zero omitted, Abs format (unit mm)*
G04 Created by KiCad (PCBNEW 9.0.3) date 2025-08-26 17:21:35*
%MOMM*%
%LPD*%
G01*
G04 APERTURE LIST*
%ADD10C,0.050000*%
G04 APERTURE END LIST*
D10*
G04 #@! TO.C,J38*
X248853143Y-98154450D02*
X248853143Y-112554450D01*
X238853143Y-112554450D02*
X248853143Y-112554450D01*
X238853143Y-98154450D02*
X248853143Y-98154450D01*
X238853143Y-98154450D02*
X238853143Y-112554450D01*
G04 #@! TO.C,D48*
X230393143Y-112314450D02*
X230393143Y-109694450D01*
X230393143Y-109694450D02*
X224773143Y-109694450D01*
X224773143Y-112314450D02*
X230393143Y-112314450D01*
X224773143Y-109694450D02*
X224773143Y-112314450D01*
G04 #@! TO.C,D45*
X230393143Y-115664450D02*
X230393143Y-113044450D01*
X230393143Y-113044450D02*
X224773143Y-113044450D01*
X224773143Y-115664450D02*
X230393143Y-115664450D01*
X224773143Y-113044450D02*
X224773143Y-115664450D01*
G04 #@! TO.C,D44*
X230393143Y-119014450D02*
X230393143Y-116394450D01*
X230393143Y-116394450D02*
X224773143Y-116394450D01*
X224773143Y-119014450D02*
X230393143Y-119014450D01*
X224773143Y-116394450D02*
X224773143Y-119014450D01*
G04 #@! TO.C,D42*
X201117286Y-112314450D02*
X201117286Y-109694450D01*
X201117286Y-109694450D02*
X195497286Y-109694450D01*
X195497286Y-112314450D02*
X201117286Y-112314450D01*
X195497286Y-109694450D02*
X195497286Y-112314450D01*
G04 #@! TO.C,D39*
X201117286Y-115664450D02*
X201117286Y-113044450D01*
X201117286Y-113044450D02*
X195497286Y-113044450D01*
X195497286Y-115664450D02*
X201117286Y-115664450D01*
X195497286Y-113044450D02*
X195497286Y-115664450D01*
G04 #@! TO.C,D38*
X201117286Y-119014450D02*
X201117286Y-116394450D01*
X201117286Y-116394450D02*
X195497286Y-116394450D01*
X195497286Y-119014450D02*
X201117286Y-119014450D01*
X195497286Y-116394450D02*
X195497286Y-119014450D01*
G04 #@! TO.C,D36*
X172091429Y-112314450D02*
X172091429Y-109694450D01*
X172091429Y-109694450D02*
X166471429Y-109694450D01*
X166471429Y-112314450D02*
X172091429Y-112314450D01*
X166471429Y-109694450D02*
X166471429Y-112314450D01*
G04 #@! TO.C,D33*
X172091429Y-115664450D02*
X172091429Y-113044450D01*
X172091429Y-113044450D02*
X166471429Y-113044450D01*
X166471429Y-115664450D02*
X172091429Y-115664450D01*
X166471429Y-113044450D02*
X166471429Y-115664450D01*
G04 #@! TO.C,D32*
X172091429Y-119014450D02*
X172091429Y-116394450D01*
X172091429Y-116394450D02*
X166471429Y-116394450D01*
X166471429Y-119014450D02*
X172091429Y-119014450D01*
X166471429Y-116394450D02*
X166471429Y-119014450D01*
G04 #@! TO.C,D30*
X143065572Y-112314450D02*
X143065572Y-109694450D01*
X143065572Y-109694450D02*
X137445572Y-109694450D01*
X137445572Y-112314450D02*
X143065572Y-112314450D01*
X137445572Y-109694450D02*
X137445572Y-112314450D01*
G04 #@! TO.C,D27*
X143065572Y-115664450D02*
X143065572Y-113044450D01*
X143065572Y-113044450D02*
X137445572Y-113044450D01*
X137445572Y-115664450D02*
X143065572Y-115664450D01*
X137445572Y-113044450D02*
X137445572Y-115664450D01*
G04 #@! TO.C,D26*
X143065572Y-119014450D02*
X143065572Y-116394450D01*
X143065572Y-116394450D02*
X137445572Y-116394450D01*
X137445572Y-119014450D02*
X143065572Y-119014450D01*
X137445572Y-116394450D02*
X137445572Y-119014450D01*
G04 #@! TO.C,D24*
X114039714Y-112314450D02*
X114039714Y-109694450D01*
X114039714Y-109694450D02*
X108419714Y-109694450D01*
X108419714Y-112314450D02*
X114039714Y-112314450D01*
X108419714Y-109694450D02*
X108419714Y-112314450D01*
G04 #@! TO.C,D21*
X114039714Y-115664450D02*
X114039714Y-113044450D01*
X114039714Y-113044450D02*
X108419714Y-113044450D01*
X108419714Y-115664450D02*
X114039714Y-115664450D01*
X108419714Y-113044450D02*
X108419714Y-115664450D01*
G04 #@! TO.C,D20*
X114039714Y-119014450D02*
X114039714Y-116394450D01*
X114039714Y-116394450D02*
X108419714Y-116394450D01*
X108419714Y-119014450D02*
X114039714Y-119014450D01*
X108419714Y-116394450D02*
X108419714Y-119014450D01*
G04 #@! TO.C,D18*
X85013857Y-112314450D02*
X85013857Y-109694450D01*
X85013857Y-109694450D02*
X79393857Y-109694450D01*
X79393857Y-112314450D02*
X85013857Y-112314450D01*
X79393857Y-109694450D02*
X79393857Y-112314450D01*
G04 #@! TO.C,D15*
X85013857Y-115664450D02*
X85013857Y-113044450D01*
X85013857Y-113044450D02*
X79393857Y-113044450D01*
X79393857Y-115664450D02*
X85013857Y-115664450D01*
X79393857Y-113044450D02*
X79393857Y-115664450D01*
G04 #@! TO.C,D14*
X85013857Y-119014450D02*
X85013857Y-116394450D01*
X85013857Y-116394450D02*
X79393857Y-116394450D01*
X79393857Y-119014450D02*
X85013857Y-119014450D01*
X79393857Y-116394450D02*
X79393857Y-119014450D01*
G04 #@! TO.C,D12*
X55988000Y-112314450D02*
X55988000Y-109694450D01*
X55988000Y-109694450D02*
X50368000Y-109694450D01*
X50368000Y-112314450D02*
X55988000Y-112314450D01*
X50368000Y-109694450D02*
X50368000Y-112314450D01*
G04 #@! TO.C,D9*
X55988000Y-115664450D02*
X55988000Y-113044450D01*
X55988000Y-113044450D02*
X50368000Y-113044450D01*
X50368000Y-115664450D02*
X55988000Y-115664450D01*
X50368000Y-113044450D02*
X50368000Y-115664450D01*
G04 #@! TO.C,D8*
X55988000Y-119014450D02*
X55988000Y-116394450D01*
X55988000Y-116394450D02*
X50368000Y-116394450D01*
X50368000Y-119014450D02*
X55988000Y-119014450D01*
X50368000Y-116394450D02*
X50368000Y-119014450D01*
G04 #@! TO.C,D6*
X26962143Y-112404450D02*
X26962143Y-109784450D01*
X26962143Y-109784450D02*
X21342143Y-109784450D01*
X21342143Y-112404450D02*
X26962143Y-112404450D01*
X21342143Y-109784450D02*
X21342143Y-112404450D01*
G04 #@! TO.C,D3*
X26962143Y-115754450D02*
X26962143Y-113134450D01*
X26962143Y-113134450D02*
X21342143Y-113134450D01*
X21342143Y-115754450D02*
X26962143Y-115754450D01*
X21342143Y-113134450D02*
X21342143Y-115754450D01*
G04 #@! TO.C,D2*
X26962143Y-119104450D02*
X26962143Y-116484450D01*
X26962143Y-116484450D02*
X21342143Y-116484450D01*
X21342143Y-119104450D02*
X26962143Y-119104450D01*
X21342143Y-116484450D02*
X21342143Y-119104450D01*
G04 #@! TO.C,D75*
X176697000Y-45347000D02*
X176697000Y-42727000D01*
X176697000Y-42727000D02*
X171077000Y-42727000D01*
X171077000Y-45347000D02*
X176697000Y-45347000D01*
X171077000Y-42727000D02*
X171077000Y-45347000D01*
G04 #@! TO.C,D67*
X126197000Y-45347000D02*
X126197000Y-42727000D01*
X126197000Y-42727000D02*
X120577000Y-42727000D01*
X120577000Y-45347000D02*
X126197000Y-45347000D01*
X120577000Y-42727000D02*
X120577000Y-45347000D01*
G04 #@! TO.C,D58*
X75697000Y-48697000D02*
X75697000Y-46077000D01*
X75697000Y-46077000D02*
X70077000Y-46077000D01*
X70077000Y-48697000D02*
X75697000Y-48697000D01*
X70077000Y-46077000D02*
X70077000Y-48697000D01*
G04 #@! TO.C,D78*
X201947000Y-48697000D02*
X201947000Y-46077000D01*
X201947000Y-46077000D02*
X196327000Y-46077000D01*
X196327000Y-48697000D02*
X201947000Y-48697000D01*
X196327000Y-46077000D02*
X196327000Y-48697000D01*
G04 #@! TO.C,D56*
X50447000Y-41997000D02*
X50447000Y-39377000D01*
X50447000Y-39377000D02*
X44827000Y-39377000D01*
X44827000Y-41997000D02*
X50447000Y-41997000D01*
X44827000Y-39377000D02*
X44827000Y-41997000D01*
G04 #@! TO.C,D76*
X176697000Y-41997000D02*
X176697000Y-39377000D01*
X176697000Y-39377000D02*
X171077000Y-39377000D01*
X171077000Y-41997000D02*
X176697000Y-41997000D01*
X171077000Y-39377000D02*
X171077000Y-41997000D01*
G04 #@! TO.C,D66*
X126197000Y-48697000D02*
X126197000Y-46077000D01*
X126197000Y-46077000D02*
X120577000Y-46077000D01*
X120577000Y-48697000D02*
X126197000Y-48697000D01*
X120577000Y-46077000D02*
X120577000Y-48697000D01*
G04 #@! TO.C,D64*
X100947000Y-41997000D02*
X100947000Y-39377000D01*
X100947000Y-39377000D02*
X95327000Y-39377000D01*
X95327000Y-41997000D02*
X100947000Y-41997000D01*
X95327000Y-39377000D02*
X95327000Y-41997000D01*
G04 #@! TO.C,D71*
X151447000Y-45347000D02*
X151447000Y-42727000D01*
X151447000Y-42727000D02*
X145827000Y-42727000D01*
X145827000Y-45347000D02*
X151447000Y-45347000D01*
X145827000Y-42727000D02*
X145827000Y-45347000D01*
G04 #@! TO.C,D74*
X176697000Y-48697000D02*
X176697000Y-46077000D01*
X176697000Y-46077000D02*
X171077000Y-46077000D01*
X171077000Y-48697000D02*
X176697000Y-48697000D01*
X171077000Y-46077000D02*
X171077000Y-48697000D01*
G04 #@! TO.C,D68*
X126197000Y-41997000D02*
X126197000Y-39377000D01*
X126197000Y-39377000D02*
X120577000Y-39377000D01*
X120577000Y-41997000D02*
X126197000Y-41997000D01*
X120577000Y-39377000D02*
X120577000Y-41997000D01*
G04 #@! TO.C,D80*
X201947000Y-41997000D02*
X201947000Y-39377000D01*
X201947000Y-39377000D02*
X196327000Y-39377000D01*
X196327000Y-41997000D02*
X201947000Y-41997000D01*
X196327000Y-39377000D02*
X196327000Y-41997000D01*
G04 #@! TO.C,D62*
X100947000Y-48697000D02*
X100947000Y-46077000D01*
X100947000Y-46077000D02*
X95327000Y-46077000D01*
X95327000Y-48697000D02*
X100947000Y-48697000D01*
X95327000Y-46077000D02*
X95327000Y-48697000D01*
G04 #@! TO.C,D50*
X25197000Y-48697000D02*
X25197000Y-46077000D01*
X25197000Y-46077000D02*
X19577000Y-46077000D01*
X19577000Y-48697000D02*
X25197000Y-48697000D01*
X19577000Y-46077000D02*
X19577000Y-48697000D01*
G04 #@! TO.C,D59*
X75697000Y-45347000D02*
X75697000Y-42727000D01*
X75697000Y-42727000D02*
X70077000Y-42727000D01*
X70077000Y-45347000D02*
X75697000Y-45347000D01*
X70077000Y-42727000D02*
X70077000Y-45347000D01*
G04 #@! TO.C,D60*
X75697000Y-41997000D02*
X75697000Y-39377000D01*
X75697000Y-39377000D02*
X70077000Y-39377000D01*
X70077000Y-41997000D02*
X75697000Y-41997000D01*
X70077000Y-39377000D02*
X70077000Y-41997000D01*
G04 #@! TO.C,D63*
X100947000Y-45347000D02*
X100947000Y-42727000D01*
X100947000Y-42727000D02*
X95327000Y-42727000D01*
X95327000Y-45347000D02*
X100947000Y-45347000D01*
X95327000Y-42727000D02*
X95327000Y-45347000D01*
G04 #@! TO.C,D72*
X151447000Y-41997000D02*
X151447000Y-39377000D01*
X151447000Y-39377000D02*
X145827000Y-39377000D01*
X145827000Y-41997000D02*
X151447000Y-41997000D01*
X145827000Y-39377000D02*
X145827000Y-41997000D01*
G04 #@! TO.C,D55*
X50447000Y-45347000D02*
X50447000Y-42727000D01*
X50447000Y-42727000D02*
X44827000Y-42727000D01*
X44827000Y-45347000D02*
X50447000Y-45347000D01*
X44827000Y-42727000D02*
X44827000Y-45347000D01*
G04 #@! TO.C,D70*
X151447000Y-48697000D02*
X151447000Y-46077000D01*
X151447000Y-46077000D02*
X145827000Y-46077000D01*
X145827000Y-48697000D02*
X151447000Y-48697000D01*
X145827000Y-46077000D02*
X145827000Y-48697000D01*
G04 #@! TO.C,D52*
X25197000Y-41997000D02*
X25197000Y-39377000D01*
X25197000Y-39377000D02*
X19577000Y-39377000D01*
X19577000Y-41997000D02*
X25197000Y-41997000D01*
X19577000Y-39377000D02*
X19577000Y-41997000D01*
G04 #@! TO.C,D51*
X25197000Y-45347000D02*
X25197000Y-42727000D01*
X25197000Y-42727000D02*
X19577000Y-42727000D01*
X19577000Y-45347000D02*
X25197000Y-45347000D01*
X19577000Y-42727000D02*
X19577000Y-45347000D01*
G04 #@! TO.C,D79*
X201947000Y-45347000D02*
X201947000Y-42727000D01*
X201947000Y-42727000D02*
X196327000Y-42727000D01*
X196327000Y-45347000D02*
X201947000Y-45347000D01*
X196327000Y-42727000D02*
X196327000Y-45347000D01*
G04 #@! TO.C,D54*
X50447000Y-48697000D02*
X50447000Y-46077000D01*
X50447000Y-46077000D02*
X44827000Y-46077000D01*
X44827000Y-48697000D02*
X50447000Y-48697000D01*
X44827000Y-46077000D02*
X44827000Y-48697000D01*
G04 #@! TO.C,J16*
X44802143Y-119194450D02*
X36152143Y-119194450D01*
X44802143Y-115644450D02*
X44802143Y-119194450D01*
X36152143Y-119194450D02*
X36152143Y-115644450D01*
X36152143Y-115644450D02*
X44802143Y-115644450D01*
G04 #@! TO.C,J17*
X45422143Y-98244450D02*
X45422143Y-112644450D01*
X35422143Y-112644450D02*
X45422143Y-112644450D01*
X35422143Y-98244450D02*
X45422143Y-98244450D01*
X35422143Y-98244450D02*
X35422143Y-112644450D01*
G04 #@! TO.C,RV1*
X38732143Y-90594450D02*
X38732143Y-77294450D01*
X38732143Y-77294450D02*
X24332143Y-77294450D01*
X24332143Y-90594450D02*
X38732143Y-90594450D01*
X24332143Y-77294450D02*
X24332143Y-90594450D01*
G04 #@! TO.C,J56*
X132122000Y-59182000D02*
X140772000Y-59182000D01*
X132122000Y-62732000D02*
X132122000Y-59182000D01*
X140772000Y-59182000D02*
X140772000Y-62732000D01*
X140772000Y-62732000D02*
X132122000Y-62732000D01*
G04 #@! TO.C,RV2*
X53358000Y-77204450D02*
X53358000Y-90504450D01*
X53358000Y-90504450D02*
X67758000Y-90504450D01*
X67758000Y-77204450D02*
X53358000Y-77204450D01*
X67758000Y-90504450D02*
X67758000Y-77204450D01*
G04 #@! TO.C,RV3*
X82383857Y-77204450D02*
X82383857Y-90504450D01*
X82383857Y-90504450D02*
X96783857Y-90504450D01*
X96783857Y-77204450D02*
X82383857Y-77204450D01*
X96783857Y-90504450D02*
X96783857Y-77204450D01*
G04 #@! TO.C,J42*
X30657000Y-50667000D02*
X30657000Y-36267000D01*
X40657000Y-36267000D02*
X30657000Y-36267000D01*
X40657000Y-50667000D02*
X30657000Y-50667000D01*
X40657000Y-50667000D02*
X40657000Y-36267000D01*
G04 #@! TO.C,J8*
X106887000Y-53669010D02*
X106887000Y-57209010D01*
X106887000Y-57209010D02*
X115507000Y-57209010D01*
X115507000Y-53669010D02*
X106887000Y-53669010D01*
X115507000Y-57209010D02*
X115507000Y-53669010D01*
G04 #@! TO.C,J15*
X182697000Y-53669010D02*
X182697000Y-57209010D01*
X182697000Y-57209010D02*
X191317000Y-57209010D01*
X191317000Y-53669010D02*
X182697000Y-53669010D01*
X191317000Y-57209010D02*
X191317000Y-53669010D01*
G04 #@! TO.C,RV8*
X227763143Y-77204450D02*
X227763143Y-90504450D01*
X227763143Y-90504450D02*
X242163143Y-90504450D01*
X242163143Y-77204450D02*
X227763143Y-77204450D01*
X242163143Y-90504450D02*
X242163143Y-77204450D01*
G04 #@! TO.C,J46*
X55907000Y-50667000D02*
X55907000Y-36267000D01*
X65907000Y-36267000D02*
X55907000Y-36267000D01*
X65907000Y-50667000D02*
X55907000Y-50667000D01*
X65907000Y-50667000D02*
X65907000Y-36267000D01*
G04 #@! TO.C,J44*
X56372000Y-59182000D02*
X65022000Y-59182000D01*
X56372000Y-62732000D02*
X56372000Y-59182000D01*
X65022000Y-59182000D02*
X65022000Y-62732000D01*
X65022000Y-62732000D02*
X56372000Y-62732000D01*
G04 #@! TO.C,J31*
X181281429Y-115554450D02*
X189931429Y-115554450D01*
X181281429Y-119104450D02*
X181281429Y-115554450D01*
X189931429Y-115554450D02*
X189931429Y-119104450D01*
X189931429Y-119104450D02*
X181281429Y-119104450D01*
G04 #@! TO.C,J12*
X132197000Y-53669010D02*
X132197000Y-57209010D01*
X132197000Y-57209010D02*
X140817000Y-57209010D01*
X140817000Y-53669010D02*
X132197000Y-53669010D01*
X140817000Y-57209010D02*
X140817000Y-53669010D01*
G04 #@! TO.C,RV4*
X111409714Y-77204450D02*
X111409714Y-90504450D01*
X111409714Y-90504450D02*
X125809714Y-90504450D01*
X125809714Y-77204450D02*
X111409714Y-77204450D01*
X125809714Y-90504450D02*
X125809714Y-77204450D01*
G04 #@! TO.C,J10*
X157697000Y-53669010D02*
X157697000Y-57209010D01*
X157697000Y-57209010D02*
X166317000Y-57209010D01*
X166317000Y-53669010D02*
X157697000Y-53669010D01*
X166317000Y-57209010D02*
X166317000Y-53669010D01*
G04 #@! TO.C,RV5*
X140435572Y-77204450D02*
X140435572Y-90504450D01*
X140435572Y-90504450D02*
X154835572Y-90504450D01*
X154835572Y-77204450D02*
X140435572Y-77204450D01*
X154835572Y-90504450D02*
X154835572Y-77204450D01*
G04 #@! TO.C,J25*
X123229714Y-115554450D02*
X131879714Y-115554450D01*
X123229714Y-119104450D02*
X123229714Y-115554450D01*
X131879714Y-115554450D02*
X131879714Y-119104450D01*
X131879714Y-119104450D02*
X123229714Y-119104450D01*
G04 #@! TO.C,J20*
X64448000Y-98154450D02*
X64448000Y-112554450D01*
X64448000Y-98154450D02*
X74448000Y-98154450D01*
X64448000Y-112554450D02*
X74448000Y-112554450D01*
X74448000Y-98154450D02*
X74448000Y-112554450D01*
G04 #@! TO.C,J40*
X31122000Y-59182000D02*
X39772000Y-59182000D01*
X31122000Y-62732000D02*
X31122000Y-59182000D01*
X39772000Y-59182000D02*
X39772000Y-62732000D01*
X39772000Y-62732000D02*
X31122000Y-62732000D01*
G04 #@! TO.C,J32*
X180551429Y-98154450D02*
X180551429Y-112554450D01*
X180551429Y-98154450D02*
X190551429Y-98154450D01*
X180551429Y-112554450D02*
X190551429Y-112554450D01*
X190551429Y-98154450D02*
X190551429Y-112554450D01*
G04 #@! TO.C,J1*
X31112903Y-53686998D02*
X31112903Y-57226998D01*
X31112903Y-57226998D02*
X39732903Y-57226998D01*
X39732903Y-53686998D02*
X31112903Y-53686998D01*
X39732903Y-57226998D02*
X39732903Y-53686998D01*
G04 #@! TO.C,J22*
X94203857Y-115554450D02*
X102853857Y-115554450D01*
X94203857Y-119104450D02*
X94203857Y-115554450D01*
X102853857Y-115554450D02*
X102853857Y-119104450D01*
X102853857Y-119104450D02*
X94203857Y-119104450D01*
G04 #@! TO.C,J66*
X182157000Y-50667000D02*
X182157000Y-36267000D01*
X192157000Y-36267000D02*
X182157000Y-36267000D01*
X192157000Y-50667000D02*
X182157000Y-50667000D01*
X192157000Y-50667000D02*
X192157000Y-36267000D01*
G04 #@! TO.C,J28*
X152255572Y-115554450D02*
X160905572Y-115554450D01*
X152255572Y-119104450D02*
X152255572Y-115554450D01*
X160905572Y-115554450D02*
X160905572Y-119104450D01*
X160905572Y-119104450D02*
X152255572Y-119104450D01*
G04 #@! TO.C,RV6*
X169461429Y-77204450D02*
X169461429Y-90504450D01*
X169461429Y-90504450D02*
X183861429Y-90504450D01*
X183861429Y-77204450D02*
X169461429Y-77204450D01*
X183861429Y-90504450D02*
X183861429Y-77204450D01*
G04 #@! TO.C,J62*
X156907000Y-50667000D02*
X156907000Y-36267000D01*
X166907000Y-36267000D02*
X156907000Y-36267000D01*
X166907000Y-50667000D02*
X156907000Y-50667000D01*
X166907000Y-50667000D02*
X166907000Y-36267000D01*
G04 #@! TO.C,J19*
X65178000Y-115554450D02*
X73828000Y-115554450D01*
X65178000Y-119104450D02*
X65178000Y-115554450D01*
X73828000Y-115554450D02*
X73828000Y-119104450D01*
X73828000Y-119104450D02*
X65178000Y-119104450D01*
G04 #@! TO.C,J64*
X182622000Y-59182000D02*
X191272000Y-59182000D01*
X182622000Y-62732000D02*
X182622000Y-59182000D01*
X191272000Y-59182000D02*
X191272000Y-62732000D01*
X191272000Y-62732000D02*
X182622000Y-62732000D01*
G04 #@! TO.C,J34*
X210307286Y-115554450D02*
X218957286Y-115554450D01*
X210307286Y-119104450D02*
X210307286Y-115554450D01*
X218957286Y-115554450D02*
X218957286Y-119104450D01*
X218957286Y-119104450D02*
X210307286Y-119104450D01*
G04 #@! TO.C,J35*
X209577286Y-98154450D02*
X209577286Y-112554450D01*
X209577286Y-98154450D02*
X219577286Y-98154450D01*
X209577286Y-112554450D02*
X219577286Y-112554450D01*
X219577286Y-98154450D02*
X219577286Y-112554450D01*
G04 #@! TO.C,J23*
X93473857Y-98154450D02*
X93473857Y-112554450D01*
X93473857Y-98154450D02*
X103473857Y-98154450D01*
X93473857Y-112554450D02*
X103473857Y-112554450D01*
X103473857Y-98154450D02*
X103473857Y-112554450D01*
G04 #@! TO.C,J68*
X207872000Y-59182000D02*
X216522000Y-59182000D01*
X207872000Y-62732000D02*
X207872000Y-59182000D01*
X216522000Y-59182000D02*
X216522000Y-62732000D01*
X216522000Y-62732000D02*
X207872000Y-62732000D01*
G04 #@! TO.C,J29*
X151525572Y-98154450D02*
X151525572Y-112554450D01*
X151525572Y-98154450D02*
X161525572Y-98154450D01*
X151525572Y-112554450D02*
X161525572Y-112554450D01*
X161525572Y-98154450D02*
X161525572Y-112554450D01*
G04 #@! TO.C,J58*
X131657000Y-50667000D02*
X131657000Y-36267000D01*
X141657000Y-36267000D02*
X131657000Y-36267000D01*
X141657000Y-50667000D02*
X131657000Y-50667000D01*
X141657000Y-50667000D02*
X141657000Y-36267000D01*
G04 #@! TO.C,J6*
X81637000Y-53669010D02*
X81637000Y-57209010D01*
X81637000Y-57209010D02*
X90257000Y-57209010D01*
X90257000Y-53669010D02*
X81637000Y-53669010D01*
X90257000Y-57209010D02*
X90257000Y-53669010D01*
G04 #@! TO.C,J70*
X207407000Y-50667000D02*
X207407000Y-36267000D01*
X217407000Y-36267000D02*
X207407000Y-36267000D01*
X217407000Y-50667000D02*
X207407000Y-50667000D01*
X217407000Y-50667000D02*
X217407000Y-36267000D01*
G04 #@! TO.C,J26*
X122499714Y-98154450D02*
X122499714Y-112554450D01*
X122499714Y-98154450D02*
X132499714Y-98154450D01*
X122499714Y-112554450D02*
X132499714Y-112554450D01*
X132499714Y-98154450D02*
X132499714Y-112554450D01*
G04 #@! TO.C,J37*
X239583143Y-115554450D02*
X248233143Y-115554450D01*
X239583143Y-119104450D02*
X239583143Y-115554450D01*
X248233143Y-115554450D02*
X248233143Y-119104450D01*
X248233143Y-119104450D02*
X239583143Y-119104450D01*
G04 #@! TO.C,J54*
X106407000Y-50667000D02*
X106407000Y-36267000D01*
X116407000Y-36267000D02*
X106407000Y-36267000D01*
X116407000Y-50667000D02*
X106407000Y-50667000D01*
X116407000Y-50667000D02*
X116407000Y-36267000D01*
G04 #@! TO.C,J3*
X56387000Y-53669010D02*
X56387000Y-57209010D01*
X56387000Y-57209010D02*
X65007000Y-57209010D01*
X65007000Y-53669010D02*
X56387000Y-53669010D01*
X65007000Y-57209010D02*
X65007000Y-53669010D01*
G04 #@! TO.C,J48*
X81622000Y-59182000D02*
X90272000Y-59182000D01*
X81622000Y-62732000D02*
X81622000Y-59182000D01*
X90272000Y-59182000D02*
X90272000Y-62732000D01*
X90272000Y-62732000D02*
X81622000Y-62732000D01*
G04 #@! TO.C,RV7*
X198487286Y-77204450D02*
X198487286Y-90504450D01*
X198487286Y-90504450D02*
X212887286Y-90504450D01*
X212887286Y-77204450D02*
X198487286Y-77204450D01*
X212887286Y-90504450D02*
X212887286Y-77204450D01*
G04 #@! TO.C,J18*
X208197000Y-53687000D02*
X208197000Y-57227000D01*
X208197000Y-57227000D02*
X216817000Y-57227000D01*
X216817000Y-53687000D02*
X208197000Y-53687000D01*
X216817000Y-57227000D02*
X216817000Y-53687000D01*
G04 #@! TO.C,J52*
X106872000Y-59182000D02*
X115522000Y-59182000D01*
X106872000Y-62732000D02*
X106872000Y-59182000D01*
X115522000Y-59182000D02*
X115522000Y-62732000D01*
X115522000Y-62732000D02*
X106872000Y-62732000D01*
G04 #@! TO.C,J50*
X81157000Y-50667000D02*
X81157000Y-36267000D01*
X91157000Y-36267000D02*
X81157000Y-36267000D01*
X91157000Y-50667000D02*
X81157000Y-50667000D01*
X91157000Y-50667000D02*
X91157000Y-36267000D01*
G04 #@! TO.C,J60*
X157372000Y-59182000D02*
X166022000Y-59182000D01*
X157372000Y-62732000D02*
X157372000Y-59182000D01*
X166022000Y-59182000D02*
X166022000Y-62732000D01*
X166022000Y-62732000D02*
X157372000Y-62732000D01*
G04 #@! TD*
M02*
