G04 #@! TF.GenerationSoftware,KiCad,Pcbnew,9.0.3*
G04 #@! TF.CreationDate,2025-08-26T17:21:35-04:00*
G04 #@! TF.ProjectId,Oblique Palette 0.5.4 PCB Main,4f626c69-7175-4652-9050-616c65747465,0.5.5*
G04 #@! TF.SameCoordinates,Original*
G04 #@! TF.FileFunction,OtherDrawing,Comment*
%FSLAX46Y46*%
G04 Gerber Fmt 4.6, Leading zero omitted, Abs format (unit mm)*
G04 Created by KiCad (PCBNEW 9.0.3) date 2025-08-26 17:21:35*
%MOMM*%
%LPD*%
G01*
G04 APERTURE LIST*
%ADD10C,0.150000*%
%ADD11C,0.050000*%
G04 APERTURE END LIST*
D10*
X275054819Y-74563809D02*
X275054819Y-75135237D01*
X275054819Y-74849523D02*
X274054819Y-74849523D01*
X274054819Y-74849523D02*
X274197676Y-74944761D01*
X274197676Y-74944761D02*
X274292914Y-75039999D01*
X274292914Y-75039999D02*
X274340533Y-75135237D01*
X275054819Y-73611428D02*
X275054819Y-74182856D01*
X275054819Y-73897142D02*
X274054819Y-73897142D01*
X274054819Y-73897142D02*
X274197676Y-73992380D01*
X274197676Y-73992380D02*
X274292914Y-74087618D01*
X274292914Y-74087618D02*
X274340533Y-74182856D01*
X274054819Y-72992380D02*
X274054819Y-72897142D01*
X274054819Y-72897142D02*
X274102438Y-72801904D01*
X274102438Y-72801904D02*
X274150057Y-72754285D01*
X274150057Y-72754285D02*
X274245295Y-72706666D01*
X274245295Y-72706666D02*
X274435771Y-72659047D01*
X274435771Y-72659047D02*
X274673866Y-72659047D01*
X274673866Y-72659047D02*
X274864342Y-72706666D01*
X274864342Y-72706666D02*
X274959580Y-72754285D01*
X274959580Y-72754285D02*
X275007200Y-72801904D01*
X275007200Y-72801904D02*
X275054819Y-72897142D01*
X275054819Y-72897142D02*
X275054819Y-72992380D01*
X275054819Y-72992380D02*
X275007200Y-73087618D01*
X275007200Y-73087618D02*
X274959580Y-73135237D01*
X274959580Y-73135237D02*
X274864342Y-73182856D01*
X274864342Y-73182856D02*
X274673866Y-73230475D01*
X274673866Y-73230475D02*
X274435771Y-73230475D01*
X274435771Y-73230475D02*
X274245295Y-73182856D01*
X274245295Y-73182856D02*
X274150057Y-73135237D01*
X274150057Y-73135237D02*
X274102438Y-73087618D01*
X274102438Y-73087618D02*
X274054819Y-72992380D01*
X274959580Y-72230475D02*
X275007200Y-72182856D01*
X275007200Y-72182856D02*
X275054819Y-72230475D01*
X275054819Y-72230475D02*
X275007200Y-72278094D01*
X275007200Y-72278094D02*
X274959580Y-72230475D01*
X274959580Y-72230475D02*
X275054819Y-72230475D01*
X274054819Y-71563809D02*
X274054819Y-71468571D01*
X274054819Y-71468571D02*
X274102438Y-71373333D01*
X274102438Y-71373333D02*
X274150057Y-71325714D01*
X274150057Y-71325714D02*
X274245295Y-71278095D01*
X274245295Y-71278095D02*
X274435771Y-71230476D01*
X274435771Y-71230476D02*
X274673866Y-71230476D01*
X274673866Y-71230476D02*
X274864342Y-71278095D01*
X274864342Y-71278095D02*
X274959580Y-71325714D01*
X274959580Y-71325714D02*
X275007200Y-71373333D01*
X275007200Y-71373333D02*
X275054819Y-71468571D01*
X275054819Y-71468571D02*
X275054819Y-71563809D01*
X275054819Y-71563809D02*
X275007200Y-71659047D01*
X275007200Y-71659047D02*
X274959580Y-71706666D01*
X274959580Y-71706666D02*
X274864342Y-71754285D01*
X274864342Y-71754285D02*
X274673866Y-71801904D01*
X274673866Y-71801904D02*
X274435771Y-71801904D01*
X274435771Y-71801904D02*
X274245295Y-71754285D01*
X274245295Y-71754285D02*
X274150057Y-71706666D01*
X274150057Y-71706666D02*
X274102438Y-71659047D01*
X274102438Y-71659047D02*
X274054819Y-71563809D01*
X274054819Y-70611428D02*
X274054819Y-70516190D01*
X274054819Y-70516190D02*
X274102438Y-70420952D01*
X274102438Y-70420952D02*
X274150057Y-70373333D01*
X274150057Y-70373333D02*
X274245295Y-70325714D01*
X274245295Y-70325714D02*
X274435771Y-70278095D01*
X274435771Y-70278095D02*
X274673866Y-70278095D01*
X274673866Y-70278095D02*
X274864342Y-70325714D01*
X274864342Y-70325714D02*
X274959580Y-70373333D01*
X274959580Y-70373333D02*
X275007200Y-70420952D01*
X275007200Y-70420952D02*
X275054819Y-70516190D01*
X275054819Y-70516190D02*
X275054819Y-70611428D01*
X275054819Y-70611428D02*
X275007200Y-70706666D01*
X275007200Y-70706666D02*
X274959580Y-70754285D01*
X274959580Y-70754285D02*
X274864342Y-70801904D01*
X274864342Y-70801904D02*
X274673866Y-70849523D01*
X274673866Y-70849523D02*
X274435771Y-70849523D01*
X274435771Y-70849523D02*
X274245295Y-70801904D01*
X274245295Y-70801904D02*
X274150057Y-70754285D01*
X274150057Y-70754285D02*
X274102438Y-70706666D01*
X274102438Y-70706666D02*
X274054819Y-70611428D01*
X274054819Y-69659047D02*
X274054819Y-69563809D01*
X274054819Y-69563809D02*
X274102438Y-69468571D01*
X274102438Y-69468571D02*
X274150057Y-69420952D01*
X274150057Y-69420952D02*
X274245295Y-69373333D01*
X274245295Y-69373333D02*
X274435771Y-69325714D01*
X274435771Y-69325714D02*
X274673866Y-69325714D01*
X274673866Y-69325714D02*
X274864342Y-69373333D01*
X274864342Y-69373333D02*
X274959580Y-69420952D01*
X274959580Y-69420952D02*
X275007200Y-69468571D01*
X275007200Y-69468571D02*
X275054819Y-69563809D01*
X275054819Y-69563809D02*
X275054819Y-69659047D01*
X275054819Y-69659047D02*
X275007200Y-69754285D01*
X275007200Y-69754285D02*
X274959580Y-69801904D01*
X274959580Y-69801904D02*
X274864342Y-69849523D01*
X274864342Y-69849523D02*
X274673866Y-69897142D01*
X274673866Y-69897142D02*
X274435771Y-69897142D01*
X274435771Y-69897142D02*
X274245295Y-69849523D01*
X274245295Y-69849523D02*
X274150057Y-69801904D01*
X274150057Y-69801904D02*
X274102438Y-69754285D01*
X274102438Y-69754285D02*
X274054819Y-69659047D01*
X274054819Y-68706666D02*
X274054819Y-68611428D01*
X274054819Y-68611428D02*
X274102438Y-68516190D01*
X274102438Y-68516190D02*
X274150057Y-68468571D01*
X274150057Y-68468571D02*
X274245295Y-68420952D01*
X274245295Y-68420952D02*
X274435771Y-68373333D01*
X274435771Y-68373333D02*
X274673866Y-68373333D01*
X274673866Y-68373333D02*
X274864342Y-68420952D01*
X274864342Y-68420952D02*
X274959580Y-68468571D01*
X274959580Y-68468571D02*
X275007200Y-68516190D01*
X275007200Y-68516190D02*
X275054819Y-68611428D01*
X275054819Y-68611428D02*
X275054819Y-68706666D01*
X275054819Y-68706666D02*
X275007200Y-68801904D01*
X275007200Y-68801904D02*
X274959580Y-68849523D01*
X274959580Y-68849523D02*
X274864342Y-68897142D01*
X274864342Y-68897142D02*
X274673866Y-68944761D01*
X274673866Y-68944761D02*
X274435771Y-68944761D01*
X274435771Y-68944761D02*
X274245295Y-68897142D01*
X274245295Y-68897142D02*
X274150057Y-68849523D01*
X274150057Y-68849523D02*
X274102438Y-68801904D01*
X274102438Y-68801904D02*
X274054819Y-68706666D01*
X275054819Y-67182856D02*
X274388152Y-67182856D01*
X274483390Y-67182856D02*
X274435771Y-67135237D01*
X274435771Y-67135237D02*
X274388152Y-67039999D01*
X274388152Y-67039999D02*
X274388152Y-66897142D01*
X274388152Y-66897142D02*
X274435771Y-66801904D01*
X274435771Y-66801904D02*
X274531009Y-66754285D01*
X274531009Y-66754285D02*
X275054819Y-66754285D01*
X274531009Y-66754285D02*
X274435771Y-66706666D01*
X274435771Y-66706666D02*
X274388152Y-66611428D01*
X274388152Y-66611428D02*
X274388152Y-66468571D01*
X274388152Y-66468571D02*
X274435771Y-66373332D01*
X274435771Y-66373332D02*
X274531009Y-66325713D01*
X274531009Y-66325713D02*
X275054819Y-66325713D01*
X275054819Y-65849523D02*
X274388152Y-65849523D01*
X274483390Y-65849523D02*
X274435771Y-65801904D01*
X274435771Y-65801904D02*
X274388152Y-65706666D01*
X274388152Y-65706666D02*
X274388152Y-65563809D01*
X274388152Y-65563809D02*
X274435771Y-65468571D01*
X274435771Y-65468571D02*
X274531009Y-65420952D01*
X274531009Y-65420952D02*
X275054819Y-65420952D01*
X274531009Y-65420952D02*
X274435771Y-65373333D01*
X274435771Y-65373333D02*
X274388152Y-65278095D01*
X274388152Y-65278095D02*
X274388152Y-65135238D01*
X274388152Y-65135238D02*
X274435771Y-65039999D01*
X274435771Y-65039999D02*
X274531009Y-64992380D01*
X274531009Y-64992380D02*
X275054819Y-64992380D01*
D11*
X255250000Y-125040000D02*
X276336420Y-125040000D01*
X276336420Y-15040000D02*
X251750000Y-15040000D01*
X275750000Y-125040000D02*
X275750000Y-15040000D01*
X275750000Y-125040000D02*
X275163579Y-123913496D01*
X275750000Y-125040000D02*
X276336421Y-123913496D01*
X275750000Y-15040000D02*
X276336421Y-16166504D01*
X275750000Y-15040000D02*
X275163579Y-16166504D01*
M02*
