%TF.GenerationSoftware,KiCad,Pcbnew,9.0.3*%
%TF.CreationDate,2025-08-26T17:21:35-04:00*%
%TF.ProjectId,Oblique Palette 0.5.4 PCB Main,4f626c69-7175-4652-9050-616c65747465,0.5.5*%
%TF.SameCoordinates,Original*%
%TF.FileFunction,Drillmap*%
%TF.FilePolarity,Positive*%
%FSLAX45Y45*%
G04 Gerber Fmt 4.5, Leading zero omitted, Abs format (unit mm)*
G04 Created by KiCad (PCBNEW 9.0.3) date 2025-08-26 17:21:35*
%MOMM*%
%LPD*%
G01*
G04 APERTURE LIST*
%ADD10C,0.050000*%
%ADD11C,0.200000*%
%ADD12C,0.100000*%
%ADD13C,0.102000*%
%ADD14C,0.122000*%
%ADD15C,0.142000*%
%ADD16C,0.143000*%
%ADD17C,0.180000*%
G04 APERTURE END LIST*
D10*
X25125000Y-12266000D02*
G75*
G02*
X24875000Y-12516000I-250000J0D01*
G01*
X24875000Y-12516000D02*
X1875000Y-12516000D01*
X1625000Y-1766000D02*
G75*
G02*
X1875000Y-1516000I250000J0D01*
G01*
X8805000Y-7066000D02*
G75*
G02*
X8595000Y-7066000I-105000J0D01*
G01*
X8595000Y-7066000D02*
G75*
G02*
X8805000Y-7066000I105000J0D01*
G01*
X1875000Y-1516000D02*
X24875000Y-1516000D01*
X25125000Y-1766000D02*
X25125000Y-12266000D01*
X1875000Y-12516000D02*
G75*
G02*
X1625000Y-12266000I0J250000D01*
G01*
X1625000Y-12266000D02*
X1625000Y-1766000D01*
X24875000Y-1516000D02*
G75*
G02*
X25125000Y-1766000I0J-250000D01*
G01*
X17307852Y-7059366D02*
G75*
G02*
X17097852Y-7059366I-105000J0D01*
G01*
X17097852Y-7059366D02*
G75*
G02*
X17307852Y-7059366I105000J0D01*
G01*
D11*
D12*
X1876500Y-4676000D02*
X1906500Y-4706000D01*
X1906500Y-4676000D02*
X1876500Y-4706000D01*
X2200700Y-6144700D02*
X2230700Y-6174700D01*
X2230700Y-6144700D02*
X2200700Y-6174700D01*
X2327214Y-9429445D02*
X2357214Y-9459445D01*
X2357214Y-9429445D02*
X2327214Y-9459445D01*
X2339700Y-7430700D02*
X2369700Y-7460700D01*
X2369700Y-7430700D02*
X2339700Y-7460700D01*
X2374282Y-3110763D02*
X2404282Y-3140763D01*
X2404282Y-3110763D02*
X2374282Y-3140763D01*
X2646214Y-9629445D02*
X2676214Y-9659445D01*
X2676214Y-9629445D02*
X2646214Y-9659445D01*
X2900214Y-9629445D02*
X2930214Y-9659445D01*
X2930214Y-9629445D02*
X2900214Y-9659445D01*
X3027214Y-10124445D02*
X3057214Y-10154445D01*
X3057214Y-10124445D02*
X3027214Y-10154445D01*
X3129700Y-2789700D02*
X3159700Y-2819700D01*
X3159700Y-2789700D02*
X3129700Y-2819700D01*
X3256700Y-2294700D02*
X3286700Y-2324700D01*
X3286700Y-2294700D02*
X3256700Y-2324700D01*
X3256700Y-2789700D02*
X3286700Y-2819700D01*
X3286700Y-2789700D02*
X3256700Y-2819700D01*
X3273930Y-10629445D02*
X3303930Y-10659445D01*
X3303930Y-10629445D02*
X3273930Y-10659445D01*
X3277214Y-11779445D02*
X3307214Y-11809445D01*
X3307214Y-11779445D02*
X3277214Y-11809445D01*
X3408214Y-10124445D02*
X3438214Y-10154445D01*
X3438214Y-10124445D02*
X3408214Y-10154445D01*
X3439700Y-7430700D02*
X3469700Y-7460700D01*
X3469700Y-7430700D02*
X3439700Y-7460700D01*
X3723200Y-3379700D02*
X3753200Y-3409700D01*
X3753200Y-3379700D02*
X3723200Y-3409700D01*
X3723200Y-3474700D02*
X3753200Y-3504700D01*
X3753200Y-3474700D02*
X3723200Y-3504700D01*
X3889700Y-2330700D02*
X3919700Y-2360700D01*
X3919700Y-2330700D02*
X3889700Y-2360700D01*
X3950700Y-3474700D02*
X3980700Y-3504700D01*
X3980700Y-3474700D02*
X3950700Y-3504700D01*
X4027214Y-8449445D02*
X4057214Y-8479445D01*
X4057214Y-8449445D02*
X4027214Y-8479445D01*
X4085000Y-2476000D02*
X4115000Y-2506000D01*
X4115000Y-2476000D02*
X4085000Y-2506000D01*
X4176331Y-1809075D02*
X4206331Y-1839075D01*
X4206331Y-1809075D02*
X4176331Y-1839075D01*
X4289700Y-3230700D02*
X4319700Y-3260700D01*
X4319700Y-3230700D02*
X4289700Y-3260700D01*
X4361400Y-4655700D02*
X4391400Y-4685700D01*
X4391400Y-4655700D02*
X4361400Y-4685700D01*
X4401500Y-4976000D02*
X4431500Y-5006000D01*
X4431500Y-4976000D02*
X4401500Y-5006000D01*
X4489700Y-3380700D02*
X4519700Y-3410700D01*
X4519700Y-3380700D02*
X4489700Y-3410700D01*
X4539700Y-7430700D02*
X4569700Y-7460700D01*
X4569700Y-7430700D02*
X4539700Y-7460700D01*
X4629700Y-3230700D02*
X4659700Y-3260700D01*
X4659700Y-3230700D02*
X4629700Y-3260700D01*
X4885000Y-6354700D02*
X4915000Y-6384700D01*
X4915000Y-6354700D02*
X4885000Y-6384700D01*
X5075700Y-3485800D02*
X5105700Y-3515800D01*
X5105700Y-3485800D02*
X5075700Y-3515800D01*
X5139700Y-8530700D02*
X5169700Y-8560700D01*
X5169700Y-8530700D02*
X5139700Y-8560700D01*
X5185000Y-3776000D02*
X5215000Y-3806000D01*
X5215000Y-3776000D02*
X5185000Y-3806000D01*
X5229800Y-9420445D02*
X5259800Y-9450445D01*
X5259800Y-9420445D02*
X5229800Y-9450445D01*
X5272883Y-3363883D02*
X5302883Y-3393883D01*
X5302883Y-3363883D02*
X5272883Y-3393883D01*
X5273700Y-2789700D02*
X5303700Y-2819700D01*
X5303700Y-2789700D02*
X5273700Y-2819700D01*
X5314800Y-9810445D02*
X5344800Y-9840445D01*
X5344800Y-9810445D02*
X5314800Y-9840445D01*
X5397883Y-3238883D02*
X5427883Y-3268883D01*
X5427883Y-3238883D02*
X5397883Y-3268883D01*
X5639700Y-7430700D02*
X5669700Y-7460700D01*
X5669700Y-7430700D02*
X5639700Y-7460700D01*
X5781700Y-2294700D02*
X5811700Y-2324700D01*
X5811700Y-2294700D02*
X5781700Y-2324700D01*
X5781800Y-2780700D02*
X5811800Y-2810700D01*
X5811800Y-2780700D02*
X5781800Y-2810700D01*
X5802800Y-9620445D02*
X5832800Y-9650445D01*
X5832800Y-9620445D02*
X5802800Y-9650445D01*
X5929800Y-10115445D02*
X5959800Y-10145445D01*
X5959800Y-10115445D02*
X5929800Y-10145445D01*
X6179800Y-11770445D02*
X6209800Y-11800445D01*
X6209800Y-11770445D02*
X6179800Y-11800445D01*
X6181455Y-10330445D02*
X6211455Y-10360445D01*
X6211455Y-10330445D02*
X6181455Y-10360445D01*
X6248200Y-3284700D02*
X6278200Y-3314700D01*
X6278200Y-3284700D02*
X6248200Y-3314700D01*
X6248200Y-3379700D02*
X6278200Y-3409700D01*
X6278200Y-3379700D02*
X6248200Y-3409700D01*
X6248200Y-3474700D02*
X6278200Y-3504700D01*
X6278200Y-3474700D02*
X6248200Y-3504700D01*
X6310800Y-10115445D02*
X6340800Y-10145445D01*
X6340800Y-10115445D02*
X6310800Y-10145445D01*
X6475700Y-3474700D02*
X6505700Y-3504700D01*
X6505700Y-3474700D02*
X6475700Y-3504700D01*
X6639700Y-2330700D02*
X6669700Y-2360700D01*
X6669700Y-2330700D02*
X6639700Y-2360700D01*
X6739700Y-7430700D02*
X6769700Y-7460700D01*
X6769700Y-7430700D02*
X6739700Y-7460700D01*
X6881400Y-4641001D02*
X6911400Y-4671001D01*
X6911400Y-4641001D02*
X6881400Y-4671001D01*
X6929800Y-8440445D02*
X6959800Y-8470445D01*
X6959800Y-8440445D02*
X6929800Y-8470445D01*
X6985000Y-4976000D02*
X7015000Y-5006000D01*
X7015000Y-4976000D02*
X6985000Y-5006000D01*
X7139700Y-3180700D02*
X7169700Y-3210700D01*
X7169700Y-3180700D02*
X7139700Y-3210700D01*
X7250700Y-6357750D02*
X7280700Y-6387750D01*
X7280700Y-6357750D02*
X7250700Y-6387750D01*
X7523528Y-3441000D02*
X7553528Y-3471000D01*
X7553528Y-3441000D02*
X7523528Y-3471000D01*
X7685000Y-3776000D02*
X7715000Y-3806000D01*
X7715000Y-3776000D02*
X7685000Y-3806000D01*
X7798700Y-2789700D02*
X7828700Y-2819700D01*
X7828700Y-2789700D02*
X7798700Y-2819700D01*
X7839700Y-7430700D02*
X7869700Y-7460700D01*
X7869700Y-7430700D02*
X7839700Y-7460700D01*
X8032386Y-8529195D02*
X8062386Y-8559195D01*
X8062386Y-8529195D02*
X8032386Y-8559195D01*
X8039700Y-3420700D02*
X8069700Y-3450700D01*
X8069700Y-3420700D02*
X8039700Y-3450700D01*
X8039700Y-3580900D02*
X8069700Y-3610900D01*
X8069700Y-3580900D02*
X8039700Y-3610900D01*
X8132386Y-9420445D02*
X8162386Y-9450445D01*
X8162386Y-9420445D02*
X8132386Y-9450445D01*
X8179700Y-2789700D02*
X8209700Y-2819700D01*
X8209700Y-2789700D02*
X8179700Y-2819700D01*
X8217386Y-9810445D02*
X8247386Y-9840445D01*
X8247386Y-9810445D02*
X8217386Y-9840445D01*
X8306700Y-2294700D02*
X8336700Y-2324700D01*
X8336700Y-2294700D02*
X8306700Y-2324700D01*
X8306700Y-2789700D02*
X8336700Y-2819700D01*
X8336700Y-2789700D02*
X8306700Y-2819700D01*
X8705386Y-9620445D02*
X8735386Y-9650445D01*
X8735386Y-9620445D02*
X8705386Y-9650445D01*
X8773200Y-3379700D02*
X8803200Y-3409700D01*
X8803200Y-3379700D02*
X8773200Y-3409700D01*
X8773200Y-3474700D02*
X8803200Y-3504700D01*
X8803200Y-3474700D02*
X8773200Y-3504700D01*
X8832386Y-10115445D02*
X8862386Y-10145445D01*
X8862386Y-10115445D02*
X8832386Y-10145445D01*
X9000700Y-3474700D02*
X9030700Y-3504700D01*
X9030700Y-3474700D02*
X9000700Y-3504700D01*
X9079101Y-10620445D02*
X9109101Y-10650445D01*
X9109101Y-10620445D02*
X9079101Y-10650445D01*
X9082386Y-11770445D02*
X9112386Y-11800445D01*
X9112386Y-11770445D02*
X9082386Y-11800445D01*
X9213386Y-10115445D02*
X9243386Y-10145445D01*
X9243386Y-10115445D02*
X9213386Y-10145445D01*
X9239700Y-2245700D02*
X9269700Y-2275700D01*
X9269700Y-2245700D02*
X9239700Y-2275700D01*
X9389700Y-4630700D02*
X9419700Y-4660700D01*
X9419700Y-4630700D02*
X9389700Y-4660700D01*
X9517637Y-4959075D02*
X9547637Y-4989075D01*
X9547637Y-4959075D02*
X9517637Y-4989075D01*
X9539700Y-3130700D02*
X9569700Y-3160700D01*
X9569700Y-3130700D02*
X9539700Y-3160700D01*
X9539700Y-7430700D02*
X9569700Y-7460700D01*
X9569700Y-7430700D02*
X9539700Y-7460700D01*
X9775700Y-6276000D02*
X9805700Y-6306000D01*
X9805700Y-6276000D02*
X9775700Y-6306000D01*
X9832386Y-8440445D02*
X9862386Y-8470445D01*
X9862386Y-8440445D02*
X9832386Y-8470445D01*
X10109143Y-3407918D02*
X10139143Y-3437918D01*
X10139143Y-3407918D02*
X10109143Y-3437918D01*
X10125700Y-3776000D02*
X10155700Y-3806000D01*
X10155700Y-3776000D02*
X10125700Y-3806000D01*
X10323700Y-2789700D02*
X10353700Y-2819700D01*
X10353700Y-2789700D02*
X10323700Y-2819700D01*
X10639700Y-7430700D02*
X10669700Y-7460700D01*
X10669700Y-7430700D02*
X10639700Y-7460700D01*
X10704700Y-2789700D02*
X10734700Y-2819700D01*
X10734700Y-2789700D02*
X10704700Y-2819700D01*
X10831700Y-2294700D02*
X10861700Y-2324700D01*
X10861700Y-2294700D02*
X10831700Y-2324700D01*
X10831700Y-2789700D02*
X10861700Y-2819700D01*
X10861700Y-2789700D02*
X10831700Y-2819700D01*
X10939700Y-8530700D02*
X10969700Y-8560700D01*
X10969700Y-8530700D02*
X10939700Y-8560700D01*
X11034971Y-9420445D02*
X11064971Y-9450445D01*
X11064971Y-9420445D02*
X11034971Y-9450445D01*
X11119971Y-9810445D02*
X11149971Y-9840445D01*
X11149971Y-9810445D02*
X11119971Y-9840445D01*
X11289700Y-3380700D02*
X11319700Y-3410700D01*
X11319700Y-3380700D02*
X11289700Y-3410700D01*
X11298200Y-3284700D02*
X11328200Y-3314700D01*
X11328200Y-3284700D02*
X11298200Y-3314700D01*
X11298200Y-3474700D02*
X11328200Y-3504700D01*
X11328200Y-3474700D02*
X11298200Y-3504700D01*
X11401999Y-7942999D02*
X11431999Y-7972999D01*
X11431999Y-7942999D02*
X11401999Y-7972999D01*
X11525700Y-3474700D02*
X11555700Y-3504700D01*
X11555700Y-3474700D02*
X11525700Y-3504700D01*
X11607971Y-9620445D02*
X11637971Y-9650445D01*
X11637971Y-9620445D02*
X11607971Y-9650445D01*
X11734971Y-10115445D02*
X11764971Y-10145445D01*
X11764971Y-10115445D02*
X11734971Y-10145445D01*
X11789700Y-2195700D02*
X11819700Y-2225700D01*
X11819700Y-2195700D02*
X11789700Y-2225700D01*
X11889700Y-4580700D02*
X11919700Y-4610700D01*
X11919700Y-4580700D02*
X11889700Y-4610700D01*
X11939700Y-2980700D02*
X11969700Y-3010700D01*
X11969700Y-2980700D02*
X11939700Y-3010700D01*
X11981687Y-10620445D02*
X12011687Y-10650445D01*
X12011687Y-10620445D02*
X11981687Y-10650445D01*
X11984971Y-11770445D02*
X12014971Y-11800445D01*
X12014971Y-11770445D02*
X11984971Y-11800445D01*
X12057830Y-4903170D02*
X12087830Y-4933170D01*
X12087830Y-4903170D02*
X12057830Y-4933170D01*
X12115971Y-10115445D02*
X12145971Y-10145445D01*
X12145971Y-10115445D02*
X12115971Y-10145445D01*
X12300700Y-6357750D02*
X12330700Y-6387750D01*
X12330700Y-6357750D02*
X12300700Y-6387750D01*
X12492200Y-7271200D02*
X12522200Y-7301200D01*
X12522200Y-7271200D02*
X12492200Y-7301200D01*
X12650700Y-3176000D02*
X12680700Y-3206000D01*
X12680700Y-3176000D02*
X12650700Y-3206000D01*
X12734971Y-8440445D02*
X12764971Y-8470445D01*
X12764971Y-8440445D02*
X12734971Y-8470445D01*
X12785000Y-3676000D02*
X12815000Y-3706000D01*
X12815000Y-3676000D02*
X12785000Y-3706000D01*
X12848700Y-2789700D02*
X12878700Y-2819700D01*
X12878700Y-2789700D02*
X12848700Y-2819700D01*
X12987200Y-7144200D02*
X13017200Y-7174200D01*
X13017200Y-7144200D02*
X12987200Y-7174200D01*
X12987200Y-7270700D02*
X13017200Y-7300700D01*
X13017200Y-7270700D02*
X12987200Y-7300700D01*
X12987200Y-7398200D02*
X13017200Y-7428200D01*
X13017200Y-7398200D02*
X12987200Y-7428200D01*
X12987200Y-7525200D02*
X13017200Y-7555200D01*
X13017200Y-7525200D02*
X12987200Y-7555200D01*
X13132305Y-7492093D02*
X13162305Y-7522093D01*
X13162305Y-7492093D02*
X13132305Y-7522093D01*
X13229700Y-2789700D02*
X13259700Y-2819700D01*
X13259700Y-2789700D02*
X13229700Y-2819700D01*
X13356700Y-2294700D02*
X13386700Y-2324700D01*
X13386700Y-2294700D02*
X13356700Y-2324700D01*
X13356700Y-2789700D02*
X13386700Y-2819700D01*
X13386700Y-2789700D02*
X13356700Y-2819700D01*
X13823200Y-3379700D02*
X13853200Y-3409700D01*
X13853200Y-3379700D02*
X13823200Y-3409700D01*
X13823200Y-3474700D02*
X13853200Y-3504700D01*
X13853200Y-3474700D02*
X13823200Y-3504700D01*
X13837557Y-8529195D02*
X13867557Y-8559195D01*
X13867557Y-8529195D02*
X13837557Y-8559195D01*
X13937557Y-9420445D02*
X13967557Y-9450445D01*
X13967557Y-9420445D02*
X13937557Y-9450445D01*
X14011414Y-8003538D02*
X14041414Y-8033538D01*
X14041414Y-8003538D02*
X14011414Y-8033538D01*
X14022557Y-9810445D02*
X14052557Y-9840445D01*
X14052557Y-9810445D02*
X14022557Y-9840445D01*
X14050700Y-3474700D02*
X14080700Y-3504700D01*
X14080700Y-3474700D02*
X14050700Y-3504700D01*
X14339700Y-2230700D02*
X14369700Y-2260700D01*
X14369700Y-2230700D02*
X14339700Y-2260700D01*
X14417392Y-4580700D02*
X14447392Y-4610700D01*
X14447392Y-4580700D02*
X14417392Y-4610700D01*
X14510557Y-9620445D02*
X14540557Y-9650445D01*
X14540557Y-9620445D02*
X14510557Y-9650445D01*
X14521400Y-4876000D02*
X14551400Y-4906000D01*
X14551400Y-4876000D02*
X14521400Y-4906000D01*
X14637557Y-10115445D02*
X14667557Y-10145445D01*
X14667557Y-10115445D02*
X14637557Y-10145445D01*
X14689700Y-2880700D02*
X14719700Y-2910700D01*
X14719700Y-2880700D02*
X14689700Y-2910700D01*
X14825700Y-6340700D02*
X14855700Y-6370700D01*
X14855700Y-6340700D02*
X14825700Y-6370700D01*
X14884273Y-10620445D02*
X14914273Y-10650445D01*
X14914273Y-10620445D02*
X14884273Y-10650445D01*
X14887557Y-11770445D02*
X14917557Y-11800445D01*
X14917557Y-11770445D02*
X14887557Y-11800445D01*
X14891557Y-10115445D02*
X14921557Y-10145445D01*
X14921557Y-10115445D02*
X14891557Y-10145445D01*
X15175700Y-3380700D02*
X15205700Y-3410700D01*
X15205700Y-3380700D02*
X15175700Y-3410700D01*
X15285000Y-3676000D02*
X15315000Y-3706000D01*
X15315000Y-3676000D02*
X15285000Y-3706000D01*
X15373700Y-2789700D02*
X15403700Y-2819700D01*
X15403700Y-2789700D02*
X15373700Y-2819700D01*
X15637557Y-8440445D02*
X15667557Y-8470445D01*
X15667557Y-8440445D02*
X15637557Y-8470445D01*
X15754700Y-2789700D02*
X15784700Y-2819700D01*
X15784700Y-2789700D02*
X15754700Y-2819700D01*
X15881700Y-2294700D02*
X15911700Y-2324700D01*
X15911700Y-2294700D02*
X15881700Y-2324700D01*
X15881700Y-2789700D02*
X15911700Y-2819700D01*
X15911700Y-2789700D02*
X15881700Y-2819700D01*
X16348200Y-3284700D02*
X16378200Y-3314700D01*
X16378200Y-3284700D02*
X16348200Y-3314700D01*
X16348200Y-3379700D02*
X16378200Y-3409700D01*
X16378200Y-3379700D02*
X16348200Y-3409700D01*
X16348200Y-3474700D02*
X16378200Y-3504700D01*
X16378200Y-3474700D02*
X16348200Y-3504700D01*
X16575700Y-3474700D02*
X16605700Y-3504700D01*
X16605700Y-3474700D02*
X16575700Y-3504700D01*
X16740143Y-8529195D02*
X16770143Y-8559195D01*
X16770143Y-8529195D02*
X16740143Y-8559195D01*
X16839700Y-2180700D02*
X16869700Y-2210700D01*
X16869700Y-2180700D02*
X16839700Y-2210700D01*
X16840143Y-9420445D02*
X16870143Y-9450445D01*
X16870143Y-9420445D02*
X16840143Y-9450445D01*
X16925143Y-9810445D02*
X16955143Y-9840445D01*
X16955143Y-9810445D02*
X16925143Y-9840445D01*
X16985000Y-4676000D02*
X17015000Y-4706000D01*
X17015000Y-4676000D02*
X16985000Y-4706000D01*
X17085000Y-4976000D02*
X17115000Y-5006000D01*
X17115000Y-4976000D02*
X17085000Y-5006000D01*
X17180700Y-2789700D02*
X17210700Y-2819700D01*
X17210700Y-2789700D02*
X17180700Y-2819700D01*
X17339700Y-6357750D02*
X17369700Y-6387750D01*
X17369700Y-6357750D02*
X17339700Y-6387750D01*
X17413143Y-9620445D02*
X17443143Y-9650445D01*
X17443143Y-9620445D02*
X17413143Y-9650445D01*
X17540143Y-10115445D02*
X17570143Y-10145445D01*
X17570143Y-10115445D02*
X17540143Y-10145445D01*
X17640500Y-3320500D02*
X17670500Y-3350500D01*
X17670500Y-3320500D02*
X17640500Y-3350500D01*
X17785000Y-3676000D02*
X17815000Y-3706000D01*
X17815000Y-3676000D02*
X17785000Y-3706000D01*
X17786858Y-10620445D02*
X17816858Y-10650445D01*
X17816858Y-10620445D02*
X17786858Y-10650445D01*
X17790143Y-11770445D02*
X17820143Y-11800445D01*
X17820143Y-11770445D02*
X17790143Y-11800445D01*
X17898700Y-2789700D02*
X17928700Y-2819700D01*
X17928700Y-2789700D02*
X17898700Y-2819700D01*
X17921143Y-10115445D02*
X17951143Y-10145445D01*
X17951143Y-10115445D02*
X17921143Y-10145445D01*
X18279700Y-2789700D02*
X18309700Y-2819700D01*
X18309700Y-2789700D02*
X18279700Y-2819700D01*
X18389700Y-7580700D02*
X18419700Y-7610700D01*
X18419700Y-7580700D02*
X18389700Y-7610700D01*
X18406700Y-2294700D02*
X18436700Y-2324700D01*
X18436700Y-2294700D02*
X18406700Y-2324700D01*
X18406700Y-2789700D02*
X18436700Y-2819700D01*
X18436700Y-2789700D02*
X18406700Y-2819700D01*
X18540143Y-8440445D02*
X18570143Y-8470445D01*
X18570143Y-8440445D02*
X18540143Y-8470445D01*
X18871640Y-3381260D02*
X18901640Y-3411260D01*
X18901640Y-3381260D02*
X18871640Y-3411260D01*
X18873200Y-3474700D02*
X18903200Y-3504700D01*
X18903200Y-3474700D02*
X18873200Y-3504700D01*
X19100700Y-3474700D02*
X19130700Y-3504700D01*
X19130700Y-3474700D02*
X19100700Y-3504700D01*
X19389700Y-2280700D02*
X19419700Y-2310700D01*
X19419700Y-2280700D02*
X19389700Y-2310700D01*
X19506600Y-4721962D02*
X19536600Y-4751962D01*
X19536600Y-4721962D02*
X19506600Y-4751962D01*
X19642729Y-8529195D02*
X19672729Y-8559195D01*
X19672729Y-8529195D02*
X19642729Y-8559195D01*
X19645330Y-4915670D02*
X19675330Y-4945670D01*
X19675330Y-4915670D02*
X19645330Y-4945670D01*
X19689700Y-2780700D02*
X19719700Y-2810700D01*
X19719700Y-2780700D02*
X19689700Y-2810700D01*
X19742729Y-9420445D02*
X19772729Y-9450445D01*
X19772729Y-9420445D02*
X19742729Y-9450445D01*
X19827729Y-9810445D02*
X19857729Y-9840445D01*
X19857729Y-9810445D02*
X19827729Y-9840445D01*
X19889700Y-6375949D02*
X19919700Y-6405949D01*
X19919700Y-6375949D02*
X19889700Y-6405949D01*
X20189700Y-7830700D02*
X20219700Y-7860700D01*
X20219700Y-7830700D02*
X20189700Y-7860700D01*
X20225700Y-3380700D02*
X20255700Y-3410700D01*
X20255700Y-3380700D02*
X20225700Y-3410700D01*
X20225700Y-3776000D02*
X20255700Y-3806000D01*
X20255700Y-3776000D02*
X20225700Y-3806000D01*
X20272406Y-2086024D02*
X20302406Y-2116024D01*
X20302406Y-2086024D02*
X20272406Y-2116024D01*
X20315729Y-9620445D02*
X20345729Y-9650445D01*
X20345729Y-9620445D02*
X20315729Y-9650445D01*
X20423700Y-2789700D02*
X20453700Y-2819700D01*
X20453700Y-2789700D02*
X20423700Y-2819700D01*
X20442729Y-10115445D02*
X20472729Y-10145445D01*
X20472729Y-10115445D02*
X20442729Y-10145445D01*
X20689444Y-10620445D02*
X20719444Y-10650445D01*
X20719444Y-10620445D02*
X20689444Y-10650445D01*
X20692729Y-11770445D02*
X20722729Y-11800445D01*
X20722729Y-11770445D02*
X20692729Y-11800445D01*
X20696729Y-10115445D02*
X20726729Y-10145445D01*
X20726729Y-10115445D02*
X20696729Y-10145445D01*
X20804700Y-2295700D02*
X20834700Y-2325700D01*
X20834700Y-2295700D02*
X20804700Y-2325700D01*
X20804700Y-2789700D02*
X20834700Y-2819700D01*
X20834700Y-2789700D02*
X20804700Y-2819700D01*
X20931700Y-2294700D02*
X20961700Y-2324700D01*
X20961700Y-2294700D02*
X20931700Y-2324700D01*
X20931700Y-2789700D02*
X20961700Y-2819700D01*
X20961700Y-2789700D02*
X20931700Y-2819700D01*
X21398200Y-3284700D02*
X21428200Y-3314700D01*
X21428200Y-3284700D02*
X21398200Y-3314700D01*
X21398200Y-3379700D02*
X21428200Y-3409700D01*
X21428200Y-3379700D02*
X21398200Y-3409700D01*
X21398200Y-3474700D02*
X21428200Y-3504700D01*
X21428200Y-3474700D02*
X21398200Y-3504700D01*
X21442729Y-8440445D02*
X21472729Y-8470445D01*
X21472729Y-8440445D02*
X21442729Y-8470445D01*
X21614061Y-6605061D02*
X21644061Y-6635061D01*
X21644061Y-6605061D02*
X21614061Y-6635061D01*
X21625700Y-3474700D02*
X21655700Y-3504700D01*
X21655700Y-3474700D02*
X21625700Y-3504700D01*
X21689700Y-5180700D02*
X21719700Y-5210700D01*
X21719700Y-5180700D02*
X21689700Y-5210700D01*
X21789700Y-2080700D02*
X21819700Y-2110700D01*
X21819700Y-2080700D02*
X21789700Y-2110700D01*
X21889700Y-6080700D02*
X21919700Y-6110700D01*
X21919700Y-6080700D02*
X21889700Y-6110700D01*
X21939700Y-2080800D02*
X21969700Y-2110800D01*
X21969700Y-2080800D02*
X21939700Y-2110800D01*
X21962483Y-1724272D02*
X21992483Y-1754272D01*
X21992483Y-1724272D02*
X21962483Y-1754272D01*
X22042917Y-1704800D02*
X22072917Y-1734800D01*
X22072917Y-1704800D02*
X22042917Y-1734800D01*
X22098450Y-6680700D02*
X22128450Y-6710700D01*
X22128450Y-6680700D02*
X22098450Y-6710700D01*
X22535000Y-7626000D02*
X22565000Y-7656000D01*
X22565000Y-7626000D02*
X22535000Y-7656000D01*
X22570314Y-8529195D02*
X22600314Y-8559195D01*
X22600314Y-8529195D02*
X22570314Y-8559195D01*
X22670314Y-9420445D02*
X22700314Y-9450445D01*
X22700314Y-9420445D02*
X22670314Y-9450445D01*
X22755314Y-9810445D02*
X22785314Y-9840445D01*
X22785314Y-9810445D02*
X22755314Y-9840445D01*
X22839700Y-2622700D02*
X22869700Y-2652700D01*
X22869700Y-2622700D02*
X22839700Y-2652700D01*
X22998786Y-7269886D02*
X23028786Y-7299886D01*
X23028786Y-7269886D02*
X22998786Y-7299886D01*
X23085000Y-7976000D02*
X23115000Y-8006000D01*
X23115000Y-7976000D02*
X23085000Y-8006000D01*
X23243314Y-9620445D02*
X23273314Y-9650445D01*
X23273314Y-9620445D02*
X23243314Y-9650445D01*
X23289700Y-2080700D02*
X23319700Y-2110700D01*
X23319700Y-2080700D02*
X23289700Y-2110700D01*
X23370314Y-10115445D02*
X23400314Y-10145445D01*
X23400314Y-10115445D02*
X23370314Y-10145445D01*
X23389700Y-2080700D02*
X23419700Y-2110700D01*
X23419700Y-2080700D02*
X23389700Y-2110700D01*
X23489700Y-2082073D02*
X23519700Y-2112073D01*
X23519700Y-2082073D02*
X23489700Y-2112073D01*
X23589700Y-2082073D02*
X23619700Y-2112073D01*
X23619700Y-2082073D02*
X23589700Y-2112073D01*
X23617030Y-10620445D02*
X23647030Y-10650445D01*
X23647030Y-10620445D02*
X23617030Y-10650445D01*
X23620314Y-11770445D02*
X23650314Y-11800445D01*
X23650314Y-11770445D02*
X23620314Y-11800445D01*
X23624314Y-10115445D02*
X23654314Y-10145445D01*
X23654314Y-10115445D02*
X23624314Y-10145445D01*
X23689700Y-2082073D02*
X23719700Y-2112073D01*
X23719700Y-2082073D02*
X23689700Y-2112073D01*
X23789700Y-2082073D02*
X23819700Y-2112073D01*
X23819700Y-2082073D02*
X23789700Y-2112073D01*
X23811139Y-6526184D02*
X23841139Y-6556184D01*
X23841139Y-6526184D02*
X23811139Y-6556184D01*
X23889700Y-2082073D02*
X23919700Y-2112073D01*
X23919700Y-2082073D02*
X23889700Y-2112073D01*
X23985000Y-2080383D02*
X24015000Y-2110384D01*
X24015000Y-2080383D02*
X23985000Y-2110384D01*
X24370314Y-8440445D02*
X24400314Y-8470445D01*
X24400314Y-8440445D02*
X24370314Y-8470445D01*
X2156700Y-4068700D02*
G75*
G02*
X2066700Y-4068700I-45000J0D01*
G01*
X2066700Y-4068700D02*
G75*
G02*
X2156700Y-4068700I45000J0D01*
G01*
X2156700Y-4403700D02*
G75*
G02*
X2066700Y-4403700I-45000J0D01*
G01*
X2066700Y-4403700D02*
G75*
G02*
X2156700Y-4403700I45000J0D01*
G01*
X2156700Y-4738700D02*
G75*
G02*
X2066700Y-4738700I-45000J0D01*
G01*
X2066700Y-4738700D02*
G75*
G02*
X2156700Y-4738700I45000J0D01*
G01*
X2333214Y-11109445D02*
G75*
G02*
X2243214Y-11109445I-45000J0D01*
G01*
X2243214Y-11109445D02*
G75*
G02*
X2333214Y-11109445I45000J0D01*
G01*
X2333214Y-11444445D02*
G75*
G02*
X2243214Y-11444445I-45000J0D01*
G01*
X2243214Y-11444445D02*
G75*
G02*
X2333214Y-11444445I45000J0D01*
G01*
X2333214Y-11779445D02*
G75*
G02*
X2243214Y-11779445I-45000J0D01*
G01*
X2243214Y-11779445D02*
G75*
G02*
X2333214Y-11779445I45000J0D01*
G01*
X2410700Y-4068700D02*
G75*
G02*
X2320700Y-4068700I-45000J0D01*
G01*
X2320700Y-4068700D02*
G75*
G02*
X2410700Y-4068700I45000J0D01*
G01*
X2410700Y-4403700D02*
G75*
G02*
X2320700Y-4403700I-45000J0D01*
G01*
X2320700Y-4403700D02*
G75*
G02*
X2410700Y-4403700I45000J0D01*
G01*
X2410700Y-4738700D02*
G75*
G02*
X2320700Y-4738700I-45000J0D01*
G01*
X2320700Y-4738700D02*
G75*
G02*
X2410700Y-4738700I45000J0D01*
G01*
X2587214Y-11109445D02*
G75*
G02*
X2497214Y-11109445I-45000J0D01*
G01*
X2497214Y-11109445D02*
G75*
G02*
X2587214Y-11109445I45000J0D01*
G01*
X2587214Y-11444445D02*
G75*
G02*
X2497214Y-11444445I-45000J0D01*
G01*
X2497214Y-11444445D02*
G75*
G02*
X2587214Y-11444445I45000J0D01*
G01*
X2587214Y-11779445D02*
G75*
G02*
X2497214Y-11779445I-45000J0D01*
G01*
X2497214Y-11779445D02*
G75*
G02*
X2587214Y-11779445I45000J0D01*
G01*
X4681700Y-4068700D02*
G75*
G02*
X4591700Y-4068700I-45000J0D01*
G01*
X4591700Y-4068700D02*
G75*
G02*
X4681700Y-4068700I45000J0D01*
G01*
X4681700Y-4403700D02*
G75*
G02*
X4591700Y-4403700I-45000J0D01*
G01*
X4591700Y-4403700D02*
G75*
G02*
X4681700Y-4403700I45000J0D01*
G01*
X4681700Y-4738700D02*
G75*
G02*
X4591700Y-4738700I-45000J0D01*
G01*
X4591700Y-4738700D02*
G75*
G02*
X4681700Y-4738700I45000J0D01*
G01*
X4935700Y-4068700D02*
G75*
G02*
X4845700Y-4068700I-45000J0D01*
G01*
X4845700Y-4068700D02*
G75*
G02*
X4935700Y-4068700I45000J0D01*
G01*
X4935700Y-4403700D02*
G75*
G02*
X4845700Y-4403700I-45000J0D01*
G01*
X4845700Y-4403700D02*
G75*
G02*
X4935700Y-4403700I45000J0D01*
G01*
X4935700Y-4738700D02*
G75*
G02*
X4845700Y-4738700I-45000J0D01*
G01*
X4845700Y-4738700D02*
G75*
G02*
X4935700Y-4738700I45000J0D01*
G01*
X5235800Y-11100445D02*
G75*
G02*
X5145800Y-11100445I-45000J0D01*
G01*
X5145800Y-11100445D02*
G75*
G02*
X5235800Y-11100445I45000J0D01*
G01*
X5235800Y-11435445D02*
G75*
G02*
X5145800Y-11435445I-45000J0D01*
G01*
X5145800Y-11435445D02*
G75*
G02*
X5235800Y-11435445I45000J0D01*
G01*
X5235800Y-11770445D02*
G75*
G02*
X5145800Y-11770445I-45000J0D01*
G01*
X5145800Y-11770445D02*
G75*
G02*
X5235800Y-11770445I45000J0D01*
G01*
X5489800Y-11100445D02*
G75*
G02*
X5399800Y-11100445I-45000J0D01*
G01*
X5399800Y-11100445D02*
G75*
G02*
X5489800Y-11100445I45000J0D01*
G01*
X5489800Y-11435445D02*
G75*
G02*
X5399800Y-11435445I-45000J0D01*
G01*
X5399800Y-11435445D02*
G75*
G02*
X5489800Y-11435445I45000J0D01*
G01*
X5489800Y-11770445D02*
G75*
G02*
X5399800Y-11770445I-45000J0D01*
G01*
X5399800Y-11770445D02*
G75*
G02*
X5489800Y-11770445I45000J0D01*
G01*
X7206700Y-4068700D02*
G75*
G02*
X7116700Y-4068700I-45000J0D01*
G01*
X7116700Y-4068700D02*
G75*
G02*
X7206700Y-4068700I45000J0D01*
G01*
X7206700Y-4403700D02*
G75*
G02*
X7116700Y-4403700I-45000J0D01*
G01*
X7116700Y-4403700D02*
G75*
G02*
X7206700Y-4403700I45000J0D01*
G01*
X7206700Y-4738700D02*
G75*
G02*
X7116700Y-4738700I-45000J0D01*
G01*
X7116700Y-4738700D02*
G75*
G02*
X7206700Y-4738700I45000J0D01*
G01*
X7460700Y-4068700D02*
G75*
G02*
X7370700Y-4068700I-45000J0D01*
G01*
X7370700Y-4068700D02*
G75*
G02*
X7460700Y-4068700I45000J0D01*
G01*
X7460700Y-4403700D02*
G75*
G02*
X7370700Y-4403700I-45000J0D01*
G01*
X7370700Y-4403700D02*
G75*
G02*
X7460700Y-4403700I45000J0D01*
G01*
X7460700Y-4738700D02*
G75*
G02*
X7370700Y-4738700I-45000J0D01*
G01*
X7370700Y-4738700D02*
G75*
G02*
X7460700Y-4738700I45000J0D01*
G01*
X8138386Y-11100445D02*
G75*
G02*
X8048386Y-11100445I-45000J0D01*
G01*
X8048386Y-11100445D02*
G75*
G02*
X8138386Y-11100445I45000J0D01*
G01*
X8138386Y-11435445D02*
G75*
G02*
X8048386Y-11435445I-45000J0D01*
G01*
X8048386Y-11435445D02*
G75*
G02*
X8138386Y-11435445I45000J0D01*
G01*
X8138386Y-11770445D02*
G75*
G02*
X8048386Y-11770445I-45000J0D01*
G01*
X8048386Y-11770445D02*
G75*
G02*
X8138386Y-11770445I45000J0D01*
G01*
X8392386Y-11100445D02*
G75*
G02*
X8302386Y-11100445I-45000J0D01*
G01*
X8302386Y-11100445D02*
G75*
G02*
X8392386Y-11100445I45000J0D01*
G01*
X8392386Y-11435445D02*
G75*
G02*
X8302386Y-11435445I-45000J0D01*
G01*
X8302386Y-11435445D02*
G75*
G02*
X8392386Y-11435445I45000J0D01*
G01*
X8392386Y-11770445D02*
G75*
G02*
X8302386Y-11770445I-45000J0D01*
G01*
X8302386Y-11770445D02*
G75*
G02*
X8392386Y-11770445I45000J0D01*
G01*
X9731700Y-4068700D02*
G75*
G02*
X9641700Y-4068700I-45000J0D01*
G01*
X9641700Y-4068700D02*
G75*
G02*
X9731700Y-4068700I45000J0D01*
G01*
X9731700Y-4403700D02*
G75*
G02*
X9641700Y-4403700I-45000J0D01*
G01*
X9641700Y-4403700D02*
G75*
G02*
X9731700Y-4403700I45000J0D01*
G01*
X9731700Y-4738700D02*
G75*
G02*
X9641700Y-4738700I-45000J0D01*
G01*
X9641700Y-4738700D02*
G75*
G02*
X9731700Y-4738700I45000J0D01*
G01*
X9985700Y-4068700D02*
G75*
G02*
X9895700Y-4068700I-45000J0D01*
G01*
X9895700Y-4068700D02*
G75*
G02*
X9985700Y-4068700I45000J0D01*
G01*
X9985700Y-4403700D02*
G75*
G02*
X9895700Y-4403700I-45000J0D01*
G01*
X9895700Y-4403700D02*
G75*
G02*
X9985700Y-4403700I45000J0D01*
G01*
X9985700Y-4738700D02*
G75*
G02*
X9895700Y-4738700I-45000J0D01*
G01*
X9895700Y-4738700D02*
G75*
G02*
X9985700Y-4738700I45000J0D01*
G01*
X11040971Y-11100445D02*
G75*
G02*
X10950971Y-11100445I-45000J0D01*
G01*
X10950971Y-11100445D02*
G75*
G02*
X11040971Y-11100445I45000J0D01*
G01*
X11040971Y-11435445D02*
G75*
G02*
X10950971Y-11435445I-45000J0D01*
G01*
X10950971Y-11435445D02*
G75*
G02*
X11040971Y-11435445I45000J0D01*
G01*
X11040971Y-11770445D02*
G75*
G02*
X10950971Y-11770445I-45000J0D01*
G01*
X10950971Y-11770445D02*
G75*
G02*
X11040971Y-11770445I45000J0D01*
G01*
X11294971Y-11100445D02*
G75*
G02*
X11204971Y-11100445I-45000J0D01*
G01*
X11204971Y-11100445D02*
G75*
G02*
X11294971Y-11100445I45000J0D01*
G01*
X11294971Y-11435445D02*
G75*
G02*
X11204971Y-11435445I-45000J0D01*
G01*
X11204971Y-11435445D02*
G75*
G02*
X11294971Y-11435445I45000J0D01*
G01*
X11294971Y-11770445D02*
G75*
G02*
X11204971Y-11770445I-45000J0D01*
G01*
X11204971Y-11770445D02*
G75*
G02*
X11294971Y-11770445I45000J0D01*
G01*
X12256700Y-4068700D02*
G75*
G02*
X12166700Y-4068700I-45000J0D01*
G01*
X12166700Y-4068700D02*
G75*
G02*
X12256700Y-4068700I45000J0D01*
G01*
X12256700Y-4403700D02*
G75*
G02*
X12166700Y-4403700I-45000J0D01*
G01*
X12166700Y-4403700D02*
G75*
G02*
X12256700Y-4403700I45000J0D01*
G01*
X12256700Y-4738700D02*
G75*
G02*
X12166700Y-4738700I-45000J0D01*
G01*
X12166700Y-4738700D02*
G75*
G02*
X12256700Y-4738700I45000J0D01*
G01*
X12510700Y-4068700D02*
G75*
G02*
X12420700Y-4068700I-45000J0D01*
G01*
X12420700Y-4068700D02*
G75*
G02*
X12510700Y-4068700I45000J0D01*
G01*
X12510700Y-4403700D02*
G75*
G02*
X12420700Y-4403700I-45000J0D01*
G01*
X12420700Y-4403700D02*
G75*
G02*
X12510700Y-4403700I45000J0D01*
G01*
X12510700Y-4738700D02*
G75*
G02*
X12420700Y-4738700I-45000J0D01*
G01*
X12420700Y-4738700D02*
G75*
G02*
X12510700Y-4738700I45000J0D01*
G01*
X13943557Y-11100445D02*
G75*
G02*
X13853557Y-11100445I-45000J0D01*
G01*
X13853557Y-11100445D02*
G75*
G02*
X13943557Y-11100445I45000J0D01*
G01*
X13943557Y-11435445D02*
G75*
G02*
X13853557Y-11435445I-45000J0D01*
G01*
X13853557Y-11435445D02*
G75*
G02*
X13943557Y-11435445I45000J0D01*
G01*
X13943557Y-11770445D02*
G75*
G02*
X13853557Y-11770445I-45000J0D01*
G01*
X13853557Y-11770445D02*
G75*
G02*
X13943557Y-11770445I45000J0D01*
G01*
X14197557Y-11100445D02*
G75*
G02*
X14107557Y-11100445I-45000J0D01*
G01*
X14107557Y-11100445D02*
G75*
G02*
X14197557Y-11100445I45000J0D01*
G01*
X14197557Y-11435445D02*
G75*
G02*
X14107557Y-11435445I-45000J0D01*
G01*
X14107557Y-11435445D02*
G75*
G02*
X14197557Y-11435445I45000J0D01*
G01*
X14197557Y-11770445D02*
G75*
G02*
X14107557Y-11770445I-45000J0D01*
G01*
X14107557Y-11770445D02*
G75*
G02*
X14197557Y-11770445I45000J0D01*
G01*
X14781700Y-4068700D02*
G75*
G02*
X14691700Y-4068700I-45000J0D01*
G01*
X14691700Y-4068700D02*
G75*
G02*
X14781700Y-4068700I45000J0D01*
G01*
X14781700Y-4403700D02*
G75*
G02*
X14691700Y-4403700I-45000J0D01*
G01*
X14691700Y-4403700D02*
G75*
G02*
X14781700Y-4403700I45000J0D01*
G01*
X14781700Y-4738700D02*
G75*
G02*
X14691700Y-4738700I-45000J0D01*
G01*
X14691700Y-4738700D02*
G75*
G02*
X14781700Y-4738700I45000J0D01*
G01*
X15035700Y-4068700D02*
G75*
G02*
X14945700Y-4068700I-45000J0D01*
G01*
X14945700Y-4068700D02*
G75*
G02*
X15035700Y-4068700I45000J0D01*
G01*
X15035700Y-4403700D02*
G75*
G02*
X14945700Y-4403700I-45000J0D01*
G01*
X14945700Y-4403700D02*
G75*
G02*
X15035700Y-4403700I45000J0D01*
G01*
X15035700Y-4738700D02*
G75*
G02*
X14945700Y-4738700I-45000J0D01*
G01*
X14945700Y-4738700D02*
G75*
G02*
X15035700Y-4738700I45000J0D01*
G01*
X16846143Y-11100445D02*
G75*
G02*
X16756143Y-11100445I-45000J0D01*
G01*
X16756143Y-11100445D02*
G75*
G02*
X16846143Y-11100445I45000J0D01*
G01*
X16846143Y-11435445D02*
G75*
G02*
X16756143Y-11435445I-45000J0D01*
G01*
X16756143Y-11435445D02*
G75*
G02*
X16846143Y-11435445I45000J0D01*
G01*
X16846143Y-11770445D02*
G75*
G02*
X16756143Y-11770445I-45000J0D01*
G01*
X16756143Y-11770445D02*
G75*
G02*
X16846143Y-11770445I45000J0D01*
G01*
X17100143Y-11100445D02*
G75*
G02*
X17010143Y-11100445I-45000J0D01*
G01*
X17010143Y-11100445D02*
G75*
G02*
X17100143Y-11100445I45000J0D01*
G01*
X17100143Y-11435445D02*
G75*
G02*
X17010143Y-11435445I-45000J0D01*
G01*
X17010143Y-11435445D02*
G75*
G02*
X17100143Y-11435445I45000J0D01*
G01*
X17100143Y-11770445D02*
G75*
G02*
X17010143Y-11770445I-45000J0D01*
G01*
X17010143Y-11770445D02*
G75*
G02*
X17100143Y-11770445I45000J0D01*
G01*
X17306700Y-4068700D02*
G75*
G02*
X17216700Y-4068700I-45000J0D01*
G01*
X17216700Y-4068700D02*
G75*
G02*
X17306700Y-4068700I45000J0D01*
G01*
X17306700Y-4403700D02*
G75*
G02*
X17216700Y-4403700I-45000J0D01*
G01*
X17216700Y-4403700D02*
G75*
G02*
X17306700Y-4403700I45000J0D01*
G01*
X17306700Y-4738700D02*
G75*
G02*
X17216700Y-4738700I-45000J0D01*
G01*
X17216700Y-4738700D02*
G75*
G02*
X17306700Y-4738700I45000J0D01*
G01*
X17560700Y-4068700D02*
G75*
G02*
X17470700Y-4068700I-45000J0D01*
G01*
X17470700Y-4068700D02*
G75*
G02*
X17560700Y-4068700I45000J0D01*
G01*
X17560700Y-4403700D02*
G75*
G02*
X17470700Y-4403700I-45000J0D01*
G01*
X17470700Y-4403700D02*
G75*
G02*
X17560700Y-4403700I45000J0D01*
G01*
X17560700Y-4738700D02*
G75*
G02*
X17470700Y-4738700I-45000J0D01*
G01*
X17470700Y-4738700D02*
G75*
G02*
X17560700Y-4738700I45000J0D01*
G01*
X19748729Y-11100445D02*
G75*
G02*
X19658729Y-11100445I-45000J0D01*
G01*
X19658729Y-11100445D02*
G75*
G02*
X19748729Y-11100445I45000J0D01*
G01*
X19748729Y-11435445D02*
G75*
G02*
X19658729Y-11435445I-45000J0D01*
G01*
X19658729Y-11435445D02*
G75*
G02*
X19748729Y-11435445I45000J0D01*
G01*
X19748729Y-11770445D02*
G75*
G02*
X19658729Y-11770445I-45000J0D01*
G01*
X19658729Y-11770445D02*
G75*
G02*
X19748729Y-11770445I45000J0D01*
G01*
X19831700Y-4068700D02*
G75*
G02*
X19741700Y-4068700I-45000J0D01*
G01*
X19741700Y-4068700D02*
G75*
G02*
X19831700Y-4068700I45000J0D01*
G01*
X19831700Y-4403700D02*
G75*
G02*
X19741700Y-4403700I-45000J0D01*
G01*
X19741700Y-4403700D02*
G75*
G02*
X19831700Y-4403700I45000J0D01*
G01*
X19831700Y-4738700D02*
G75*
G02*
X19741700Y-4738700I-45000J0D01*
G01*
X19741700Y-4738700D02*
G75*
G02*
X19831700Y-4738700I45000J0D01*
G01*
X20002729Y-11100445D02*
G75*
G02*
X19912729Y-11100445I-45000J0D01*
G01*
X19912729Y-11100445D02*
G75*
G02*
X20002729Y-11100445I45000J0D01*
G01*
X20002729Y-11435445D02*
G75*
G02*
X19912729Y-11435445I-45000J0D01*
G01*
X19912729Y-11435445D02*
G75*
G02*
X20002729Y-11435445I45000J0D01*
G01*
X20002729Y-11770445D02*
G75*
G02*
X19912729Y-11770445I-45000J0D01*
G01*
X19912729Y-11770445D02*
G75*
G02*
X20002729Y-11770445I45000J0D01*
G01*
X20085700Y-4068700D02*
G75*
G02*
X19995700Y-4068700I-45000J0D01*
G01*
X19995700Y-4068700D02*
G75*
G02*
X20085700Y-4068700I45000J0D01*
G01*
X20085700Y-4403700D02*
G75*
G02*
X19995700Y-4403700I-45000J0D01*
G01*
X19995700Y-4403700D02*
G75*
G02*
X20085700Y-4403700I45000J0D01*
G01*
X20085700Y-4738700D02*
G75*
G02*
X19995700Y-4738700I-45000J0D01*
G01*
X19995700Y-4738700D02*
G75*
G02*
X20085700Y-4738700I45000J0D01*
G01*
X22676314Y-11100445D02*
G75*
G02*
X22586314Y-11100445I-45000J0D01*
G01*
X22586314Y-11100445D02*
G75*
G02*
X22676314Y-11100445I45000J0D01*
G01*
X22676314Y-11435445D02*
G75*
G02*
X22586314Y-11435445I-45000J0D01*
G01*
X22586314Y-11435445D02*
G75*
G02*
X22676314Y-11435445I45000J0D01*
G01*
X22676314Y-11770445D02*
G75*
G02*
X22586314Y-11770445I-45000J0D01*
G01*
X22586314Y-11770445D02*
G75*
G02*
X22676314Y-11770445I45000J0D01*
G01*
X22930314Y-11100445D02*
G75*
G02*
X22840314Y-11100445I-45000J0D01*
G01*
X22840314Y-11100445D02*
G75*
G02*
X22930314Y-11100445I45000J0D01*
G01*
X22930314Y-11435445D02*
G75*
G02*
X22840314Y-11435445I-45000J0D01*
G01*
X22840314Y-11435445D02*
G75*
G02*
X22930314Y-11435445I45000J0D01*
G01*
X22930314Y-11770445D02*
G75*
G02*
X22840314Y-11770445I-45000J0D01*
G01*
X22840314Y-11770445D02*
G75*
G02*
X22930314Y-11770445I45000J0D01*
G01*
X2548214Y-8094445D02*
X2548214Y-8194445D01*
X2498214Y-8144445D02*
X2598214Y-8144445D01*
X2548214Y-8344445D02*
X2548214Y-8444445D01*
X2498214Y-8394445D02*
X2598214Y-8394445D01*
X2548214Y-8594445D02*
X2548214Y-8694445D01*
X2498214Y-8644445D02*
X2598214Y-8644445D01*
X3288290Y-5495700D02*
X3288290Y-5595700D01*
X3238290Y-5545700D02*
X3338290Y-5545700D01*
X3289200Y-6048200D02*
X3289200Y-6148200D01*
X3239200Y-6098200D02*
X3339200Y-6098200D01*
X3542290Y-5495700D02*
X3542290Y-5595700D01*
X3492290Y-5545700D02*
X3592290Y-5545700D01*
X3543200Y-6048200D02*
X3543200Y-6148200D01*
X3493200Y-6098200D02*
X3593200Y-6098200D01*
X3792214Y-11694445D02*
X3792214Y-11794445D01*
X3742214Y-11744445D02*
X3842214Y-11744445D01*
X3796290Y-5495700D02*
X3796290Y-5595700D01*
X3746290Y-5545700D02*
X3846290Y-5545700D01*
X3797200Y-6048200D02*
X3797200Y-6148200D01*
X3747200Y-6098200D02*
X3847200Y-6098200D01*
X4046214Y-11694445D02*
X4046214Y-11794445D01*
X3996214Y-11744445D02*
X4096214Y-11744445D01*
X4300214Y-11694445D02*
X4300214Y-11794445D01*
X4250214Y-11744445D02*
X4350214Y-11744445D01*
X5450800Y-8085445D02*
X5450800Y-8185445D01*
X5400800Y-8135445D02*
X5500800Y-8135445D01*
X5450800Y-8335445D02*
X5450800Y-8435445D01*
X5400800Y-8385445D02*
X5500800Y-8385445D01*
X5450800Y-8585445D02*
X5450800Y-8685445D01*
X5400800Y-8635445D02*
X5500800Y-8635445D01*
X5814200Y-6048200D02*
X5814200Y-6148200D01*
X5764200Y-6098200D02*
X5864200Y-6098200D01*
X5815700Y-5493901D02*
X5815700Y-5593901D01*
X5765700Y-5543901D02*
X5865700Y-5543901D01*
X6068200Y-6048200D02*
X6068200Y-6148200D01*
X6018200Y-6098200D02*
X6118200Y-6098200D01*
X6069700Y-5493901D02*
X6069700Y-5593901D01*
X6019700Y-5543901D02*
X6119700Y-5543901D01*
X6322200Y-6048200D02*
X6322200Y-6148200D01*
X6272200Y-6098200D02*
X6372200Y-6098200D01*
X6323700Y-5493901D02*
X6323700Y-5593901D01*
X6273700Y-5543901D02*
X6373700Y-5543901D01*
X6694800Y-11685445D02*
X6694800Y-11785445D01*
X6644800Y-11735445D02*
X6744800Y-11735445D01*
X6948800Y-11685445D02*
X6948800Y-11785445D01*
X6898800Y-11735445D02*
X6998800Y-11735445D01*
X7202800Y-11685445D02*
X7202800Y-11785445D01*
X7152800Y-11735445D02*
X7252800Y-11735445D01*
X8339200Y-6048200D02*
X8339200Y-6148200D01*
X8289200Y-6098200D02*
X8389200Y-6098200D01*
X8340700Y-5493901D02*
X8340700Y-5593901D01*
X8290700Y-5543901D02*
X8390700Y-5543901D01*
X8353386Y-8085445D02*
X8353386Y-8185445D01*
X8303386Y-8135445D02*
X8403386Y-8135445D01*
X8353386Y-8335445D02*
X8353386Y-8435445D01*
X8303386Y-8385445D02*
X8403386Y-8385445D01*
X8353386Y-8585445D02*
X8353386Y-8685445D01*
X8303386Y-8635445D02*
X8403386Y-8635445D01*
X8593200Y-6048200D02*
X8593200Y-6148200D01*
X8543200Y-6098200D02*
X8643200Y-6098200D01*
X8594700Y-5493901D02*
X8594700Y-5593901D01*
X8544700Y-5543901D02*
X8644700Y-5543901D01*
X8847200Y-6048200D02*
X8847200Y-6148200D01*
X8797200Y-6098200D02*
X8897200Y-6098200D01*
X8848700Y-5493901D02*
X8848700Y-5593901D01*
X8798700Y-5543901D02*
X8898700Y-5543901D01*
X9597386Y-11685445D02*
X9597386Y-11785445D01*
X9547386Y-11735445D02*
X9647386Y-11735445D01*
X9851386Y-11685445D02*
X9851386Y-11785445D01*
X9801386Y-11735445D02*
X9901386Y-11735445D01*
X10105386Y-11685445D02*
X10105386Y-11785445D01*
X10055386Y-11735445D02*
X10155386Y-11735445D01*
X10864200Y-6048200D02*
X10864200Y-6148200D01*
X10814200Y-6098200D02*
X10914200Y-6098200D01*
X10865700Y-5493901D02*
X10865700Y-5593901D01*
X10815700Y-5543901D02*
X10915700Y-5543901D01*
X11118200Y-6048200D02*
X11118200Y-6148200D01*
X11068200Y-6098200D02*
X11168200Y-6098200D01*
X11119700Y-5493901D02*
X11119700Y-5593901D01*
X11069700Y-5543901D02*
X11169700Y-5543901D01*
X11255971Y-8085445D02*
X11255971Y-8185445D01*
X11205971Y-8135445D02*
X11305971Y-8135445D01*
X11255971Y-8335445D02*
X11255971Y-8435445D01*
X11205971Y-8385445D02*
X11305971Y-8385445D01*
X11255971Y-8585445D02*
X11255971Y-8685445D01*
X11205971Y-8635445D02*
X11305971Y-8635445D01*
X11372200Y-6048200D02*
X11372200Y-6148200D01*
X11322200Y-6098200D02*
X11422200Y-6098200D01*
X11373700Y-5493901D02*
X11373700Y-5593901D01*
X11323700Y-5543901D02*
X11423700Y-5543901D01*
X12499971Y-11685445D02*
X12499971Y-11785445D01*
X12449971Y-11735445D02*
X12549971Y-11735445D01*
X12753971Y-11685445D02*
X12753971Y-11785445D01*
X12703971Y-11735445D02*
X12803971Y-11735445D01*
X13007971Y-11685445D02*
X13007971Y-11785445D01*
X12957971Y-11735445D02*
X13057971Y-11735445D01*
X13389200Y-6048200D02*
X13389200Y-6148200D01*
X13339200Y-6098200D02*
X13439200Y-6098200D01*
X13396700Y-5493901D02*
X13396700Y-5593901D01*
X13346700Y-5543901D02*
X13446700Y-5543901D01*
X13643200Y-6048200D02*
X13643200Y-6148200D01*
X13593200Y-6098200D02*
X13693200Y-6098200D01*
X13650700Y-5493901D02*
X13650700Y-5593901D01*
X13600700Y-5543901D02*
X13700700Y-5543901D01*
X13897200Y-6048200D02*
X13897200Y-6148200D01*
X13847200Y-6098200D02*
X13947200Y-6098200D01*
X13904700Y-5493901D02*
X13904700Y-5593901D01*
X13854700Y-5543901D02*
X13954700Y-5543901D01*
X14158557Y-8085445D02*
X14158557Y-8185445D01*
X14108557Y-8135445D02*
X14208557Y-8135445D01*
X14158557Y-8335445D02*
X14158557Y-8435445D01*
X14108557Y-8385445D02*
X14208557Y-8385445D01*
X14158557Y-8585445D02*
X14158557Y-8685445D01*
X14108557Y-8635445D02*
X14208557Y-8635445D01*
X15402557Y-11685445D02*
X15402557Y-11785445D01*
X15352557Y-11735445D02*
X15452557Y-11735445D01*
X15656557Y-11685445D02*
X15656557Y-11785445D01*
X15606557Y-11735445D02*
X15706557Y-11735445D01*
X15910557Y-11685445D02*
X15910557Y-11785445D01*
X15860557Y-11735445D02*
X15960557Y-11735445D01*
X15914200Y-6048200D02*
X15914200Y-6148200D01*
X15864200Y-6098200D02*
X15964200Y-6098200D01*
X15946700Y-5493901D02*
X15946700Y-5593901D01*
X15896700Y-5543901D02*
X15996700Y-5543901D01*
X16168200Y-6048200D02*
X16168200Y-6148200D01*
X16118200Y-6098200D02*
X16218200Y-6098200D01*
X16200700Y-5493901D02*
X16200700Y-5593901D01*
X16150700Y-5543901D02*
X16250700Y-5543901D01*
X16422200Y-6048200D02*
X16422200Y-6148200D01*
X16372200Y-6098200D02*
X16472200Y-6098200D01*
X16454700Y-5493901D02*
X16454700Y-5593901D01*
X16404700Y-5543901D02*
X16504700Y-5543901D01*
X17061143Y-8085445D02*
X17061143Y-8185445D01*
X17011143Y-8135445D02*
X17111143Y-8135445D01*
X17061143Y-8335445D02*
X17061143Y-8435445D01*
X17011143Y-8385445D02*
X17111143Y-8385445D01*
X17061143Y-8585445D02*
X17061143Y-8685445D01*
X17011143Y-8635445D02*
X17111143Y-8635445D01*
X18305143Y-11685445D02*
X18305143Y-11785445D01*
X18255143Y-11735445D02*
X18355143Y-11735445D01*
X18439200Y-6048200D02*
X18439200Y-6148200D01*
X18389200Y-6098200D02*
X18489200Y-6098200D01*
X18446700Y-5493901D02*
X18446700Y-5593901D01*
X18396700Y-5543901D02*
X18496700Y-5543901D01*
X18559143Y-11685445D02*
X18559143Y-11785445D01*
X18509143Y-11735445D02*
X18609143Y-11735445D01*
X18693200Y-6048200D02*
X18693200Y-6148200D01*
X18643200Y-6098200D02*
X18743200Y-6098200D01*
X18700700Y-5493901D02*
X18700700Y-5593901D01*
X18650700Y-5543901D02*
X18750700Y-5543901D01*
X18813143Y-11685445D02*
X18813143Y-11785445D01*
X18763143Y-11735445D02*
X18863143Y-11735445D01*
X18947200Y-6048200D02*
X18947200Y-6148200D01*
X18897200Y-6098200D02*
X18997200Y-6098200D01*
X18954700Y-5493901D02*
X18954700Y-5593901D01*
X18904700Y-5543901D02*
X19004700Y-5543901D01*
X19963729Y-8085445D02*
X19963729Y-8185445D01*
X19913729Y-8135445D02*
X20013729Y-8135445D01*
X19963729Y-8335445D02*
X19963729Y-8435445D01*
X19913729Y-8385445D02*
X20013729Y-8385445D01*
X19963729Y-8585445D02*
X19963729Y-8685445D01*
X19913729Y-8635445D02*
X20013729Y-8635445D01*
X20964200Y-6048200D02*
X20964200Y-6148200D01*
X20914200Y-6098200D02*
X21014200Y-6098200D01*
X20996700Y-5495700D02*
X20996700Y-5595700D01*
X20946700Y-5545700D02*
X21046700Y-5545700D01*
X21207729Y-11685445D02*
X21207729Y-11785445D01*
X21157729Y-11735445D02*
X21257729Y-11735445D01*
X21218200Y-6048200D02*
X21218200Y-6148200D01*
X21168200Y-6098200D02*
X21268200Y-6098200D01*
X21250700Y-5495700D02*
X21250700Y-5595700D01*
X21200700Y-5545700D02*
X21300700Y-5545700D01*
X21461729Y-11685445D02*
X21461729Y-11785445D01*
X21411729Y-11735445D02*
X21511729Y-11735445D01*
X21472200Y-6048200D02*
X21472200Y-6148200D01*
X21422200Y-6098200D02*
X21522200Y-6098200D01*
X21504700Y-5495700D02*
X21504700Y-5595700D01*
X21454700Y-5545700D02*
X21554700Y-5545700D01*
X21715729Y-11685445D02*
X21715729Y-11785445D01*
X21665729Y-11735445D02*
X21765729Y-11735445D01*
X22891314Y-8085445D02*
X22891314Y-8185445D01*
X22841314Y-8135445D02*
X22941314Y-8135445D01*
X22891314Y-8335445D02*
X22891314Y-8435445D01*
X22841314Y-8385445D02*
X22941314Y-8385445D01*
X22891314Y-8585445D02*
X22891314Y-8685445D01*
X22841314Y-8635445D02*
X22941314Y-8635445D01*
X24135314Y-11685445D02*
X24135314Y-11785445D01*
X24085314Y-11735445D02*
X24185314Y-11735445D01*
X24389314Y-11685445D02*
X24389314Y-11785445D01*
X24339314Y-11735445D02*
X24439314Y-11735445D01*
X24643314Y-11685445D02*
X24643314Y-11785445D01*
X24593314Y-11735445D02*
X24693314Y-11735445D01*
D13*
X22662763Y-2165763D02*
X22662763Y-2093637D01*
X22590637Y-2093637D01*
X22590637Y-2165763D01*
X22662763Y-2165763D01*
X22662763Y-2419763D02*
X22662763Y-2347637D01*
X22590637Y-2347637D01*
X22590637Y-2419763D01*
X22662763Y-2419763D01*
X22662763Y-2673763D02*
X22662763Y-2601637D01*
X22590637Y-2601637D01*
X22590637Y-2673763D01*
X22662763Y-2673763D01*
X22662763Y-2927763D02*
X22662763Y-2855637D01*
X22590637Y-2855637D01*
X22590637Y-2927763D01*
X22662763Y-2927763D01*
X22662763Y-3181763D02*
X22662763Y-3109637D01*
X22590637Y-3109637D01*
X22590637Y-3181763D01*
X22662763Y-3181763D01*
X22662763Y-3435763D02*
X22662763Y-3363637D01*
X22590637Y-3363637D01*
X22590637Y-3435763D01*
X22662763Y-3435763D01*
X22662763Y-3689763D02*
X22662763Y-3617637D01*
X22590637Y-3617637D01*
X22590637Y-3689763D01*
X22662763Y-3689763D01*
X22662763Y-3943763D02*
X22662763Y-3871637D01*
X22590637Y-3871637D01*
X22590637Y-3943763D01*
X22662763Y-3943763D01*
X22662763Y-4197763D02*
X22662763Y-4125637D01*
X22590637Y-4125637D01*
X22590637Y-4197763D01*
X22662763Y-4197763D01*
X22662763Y-4451763D02*
X22662763Y-4379637D01*
X22590637Y-4379637D01*
X22590637Y-4451763D01*
X22662763Y-4451763D01*
X22662763Y-4705763D02*
X22662763Y-4633637D01*
X22590637Y-4633637D01*
X22590637Y-4705763D01*
X22662763Y-4705763D01*
X22662763Y-4959763D02*
X22662763Y-4887637D01*
X22590637Y-4887637D01*
X22590637Y-4959763D01*
X22662763Y-4959763D01*
X22662763Y-5213763D02*
X22662763Y-5141637D01*
X22590637Y-5141637D01*
X22590637Y-5213763D01*
X22662763Y-5213763D01*
X22662763Y-5467763D02*
X22662763Y-5395637D01*
X22590637Y-5395637D01*
X22590637Y-5467763D01*
X22662763Y-5467763D01*
X22662763Y-5721763D02*
X22662763Y-5649637D01*
X22590637Y-5649637D01*
X22590637Y-5721763D01*
X22662763Y-5721763D01*
X22662763Y-5975763D02*
X22662763Y-5903637D01*
X22590637Y-5903637D01*
X22590637Y-5975763D01*
X22662763Y-5975763D01*
X22662763Y-6229763D02*
X22662763Y-6157637D01*
X22590637Y-6157637D01*
X22590637Y-6229763D01*
X22662763Y-6229763D01*
X22662763Y-6483763D02*
X22662763Y-6411637D01*
X22590637Y-6411637D01*
X22590637Y-6483763D01*
X22662763Y-6483763D01*
X22662763Y-6737763D02*
X22662763Y-6665637D01*
X22590637Y-6665637D01*
X22590637Y-6737763D01*
X22662763Y-6737763D01*
X22662763Y-6991763D02*
X22662763Y-6919637D01*
X22590637Y-6919637D01*
X22590637Y-6991763D01*
X22662763Y-6991763D01*
X24440763Y-2165763D02*
X24440763Y-2093637D01*
X24368637Y-2093637D01*
X24368637Y-2165763D01*
X24440763Y-2165763D01*
X24440763Y-2419763D02*
X24440763Y-2347637D01*
X24368637Y-2347637D01*
X24368637Y-2419763D01*
X24440763Y-2419763D01*
X24440763Y-2673763D02*
X24440763Y-2601637D01*
X24368637Y-2601637D01*
X24368637Y-2673763D01*
X24440763Y-2673763D01*
X24440763Y-2927763D02*
X24440763Y-2855637D01*
X24368637Y-2855637D01*
X24368637Y-2927763D01*
X24440763Y-2927763D01*
X24440763Y-3181763D02*
X24440763Y-3109637D01*
X24368637Y-3109637D01*
X24368637Y-3181763D01*
X24440763Y-3181763D01*
X24440763Y-3435763D02*
X24440763Y-3363637D01*
X24368637Y-3363637D01*
X24368637Y-3435763D01*
X24440763Y-3435763D01*
X24440763Y-3689763D02*
X24440763Y-3617637D01*
X24368637Y-3617637D01*
X24368637Y-3689763D01*
X24440763Y-3689763D01*
X24440763Y-3943763D02*
X24440763Y-3871637D01*
X24368637Y-3871637D01*
X24368637Y-3943763D01*
X24440763Y-3943763D01*
X24440763Y-4197763D02*
X24440763Y-4125637D01*
X24368637Y-4125637D01*
X24368637Y-4197763D01*
X24440763Y-4197763D01*
X24440763Y-4451763D02*
X24440763Y-4379637D01*
X24368637Y-4379637D01*
X24368637Y-4451763D01*
X24440763Y-4451763D01*
X24440763Y-4705763D02*
X24440763Y-4633637D01*
X24368637Y-4633637D01*
X24368637Y-4705763D01*
X24440763Y-4705763D01*
X24440763Y-4959763D02*
X24440763Y-4887637D01*
X24368637Y-4887637D01*
X24368637Y-4959763D01*
X24440763Y-4959763D01*
X24440763Y-5213763D02*
X24440763Y-5141637D01*
X24368637Y-5141637D01*
X24368637Y-5213763D01*
X24440763Y-5213763D01*
X24440763Y-5467763D02*
X24440763Y-5395637D01*
X24368637Y-5395637D01*
X24368637Y-5467763D01*
X24440763Y-5467763D01*
X24440763Y-5721763D02*
X24440763Y-5649637D01*
X24368637Y-5649637D01*
X24368637Y-5721763D01*
X24440763Y-5721763D01*
X24440763Y-5975763D02*
X24440763Y-5903637D01*
X24368637Y-5903637D01*
X24368637Y-5975763D01*
X24440763Y-5975763D01*
X24440763Y-6229763D02*
X24440763Y-6157637D01*
X24368637Y-6157637D01*
X24368637Y-6229763D01*
X24440763Y-6229763D01*
X24440763Y-6483763D02*
X24440763Y-6411637D01*
X24368637Y-6411637D01*
X24368637Y-6483763D01*
X24440763Y-6483763D01*
X24440763Y-6737763D02*
X24440763Y-6665637D01*
X24368637Y-6665637D01*
X24368637Y-6737763D01*
X24440763Y-6737763D01*
X24440763Y-6991763D02*
X24440763Y-6919637D01*
X24368637Y-6919637D01*
X24368637Y-6991763D01*
X24440763Y-6991763D01*
D14*
X3565700Y-3829700D02*
X3626700Y-3768700D01*
X3565700Y-3707700D01*
X3504700Y-3768700D01*
X3565700Y-3829700D01*
X4042214Y-11183445D02*
X4103214Y-11122445D01*
X4042214Y-11061445D01*
X3981214Y-11122445D01*
X4042214Y-11183445D01*
X6090700Y-3829700D02*
X6151700Y-3768700D01*
X6090700Y-3707700D01*
X6029700Y-3768700D01*
X6090700Y-3829700D01*
X6944800Y-11174445D02*
X7005800Y-11113445D01*
X6944800Y-11052445D01*
X6883800Y-11113445D01*
X6944800Y-11174445D01*
X8615700Y-3829700D02*
X8676700Y-3768700D01*
X8615700Y-3707700D01*
X8554700Y-3768700D01*
X8615700Y-3829700D01*
X9847386Y-11174445D02*
X9908386Y-11113445D01*
X9847386Y-11052445D01*
X9786386Y-11113445D01*
X9847386Y-11174445D01*
X11140700Y-3829700D02*
X11201700Y-3768700D01*
X11140700Y-3707700D01*
X11079700Y-3768700D01*
X11140700Y-3829700D01*
X12749971Y-11174445D02*
X12810971Y-11113445D01*
X12749971Y-11052445D01*
X12688971Y-11113445D01*
X12749971Y-11174445D01*
X13665700Y-3829700D02*
X13726700Y-3768700D01*
X13665700Y-3707700D01*
X13604700Y-3768700D01*
X13665700Y-3829700D01*
X15652557Y-11174445D02*
X15713557Y-11113445D01*
X15652557Y-11052445D01*
X15591557Y-11113445D01*
X15652557Y-11174445D01*
X16190700Y-3829700D02*
X16251700Y-3768700D01*
X16190700Y-3707700D01*
X16129700Y-3768700D01*
X16190700Y-3829700D01*
X18555143Y-11174445D02*
X18616143Y-11113445D01*
X18555143Y-11052445D01*
X18494143Y-11113445D01*
X18555143Y-11174445D01*
X18715700Y-3829700D02*
X18776700Y-3768700D01*
X18715700Y-3707700D01*
X18654700Y-3768700D01*
X18715700Y-3829700D01*
X21240700Y-3829700D02*
X21301700Y-3768700D01*
X21240700Y-3707700D01*
X21179700Y-3768700D01*
X21240700Y-3829700D01*
X21457729Y-11174445D02*
X21518729Y-11113445D01*
X21457729Y-11052445D01*
X21396729Y-11113445D01*
X21457729Y-11174445D01*
X24385314Y-11174445D02*
X24446314Y-11113445D01*
X24385314Y-11052445D01*
X24324314Y-11113445D01*
X24385314Y-11174445D01*
D15*
X3494700Y-4007700D02*
X3636700Y-4149700D01*
X3636700Y-4007700D02*
X3494700Y-4149700D01*
X3636700Y-4078700D02*
G75*
G02*
X3494700Y-4078700I-71000J0D01*
G01*
X3494700Y-4078700D02*
G75*
G02*
X3636700Y-4078700I71000J0D01*
G01*
X3971214Y-10741445D02*
X4113214Y-10883445D01*
X4113214Y-10741445D02*
X3971214Y-10883445D01*
X4113214Y-10812445D02*
G75*
G02*
X3971214Y-10812445I-71000J0D01*
G01*
X3971214Y-10812445D02*
G75*
G02*
X4113214Y-10812445I71000J0D01*
G01*
X6019700Y-4007700D02*
X6161700Y-4149700D01*
X6161700Y-4007700D02*
X6019700Y-4149700D01*
X6161700Y-4078700D02*
G75*
G02*
X6019700Y-4078700I-71000J0D01*
G01*
X6019700Y-4078700D02*
G75*
G02*
X6161700Y-4078700I71000J0D01*
G01*
X6873800Y-10732445D02*
X7015800Y-10874445D01*
X7015800Y-10732445D02*
X6873800Y-10874445D01*
X7015800Y-10803445D02*
G75*
G02*
X6873800Y-10803445I-71000J0D01*
G01*
X6873800Y-10803445D02*
G75*
G02*
X7015800Y-10803445I71000J0D01*
G01*
X8544700Y-4007700D02*
X8686700Y-4149700D01*
X8686700Y-4007700D02*
X8544700Y-4149700D01*
X8686700Y-4078700D02*
G75*
G02*
X8544700Y-4078700I-71000J0D01*
G01*
X8544700Y-4078700D02*
G75*
G02*
X8686700Y-4078700I71000J0D01*
G01*
X9776386Y-10732445D02*
X9918386Y-10874445D01*
X9918386Y-10732445D02*
X9776386Y-10874445D01*
X9918386Y-10803445D02*
G75*
G02*
X9776386Y-10803445I-71000J0D01*
G01*
X9776386Y-10803445D02*
G75*
G02*
X9918386Y-10803445I71000J0D01*
G01*
X11069700Y-4007700D02*
X11211700Y-4149700D01*
X11211700Y-4007700D02*
X11069700Y-4149700D01*
X11211700Y-4078700D02*
G75*
G02*
X11069700Y-4078700I-71000J0D01*
G01*
X11069700Y-4078700D02*
G75*
G02*
X11211700Y-4078700I71000J0D01*
G01*
X12678971Y-10732445D02*
X12820971Y-10874445D01*
X12820971Y-10732445D02*
X12678971Y-10874445D01*
X12820971Y-10803445D02*
G75*
G02*
X12678971Y-10803445I-71000J0D01*
G01*
X12678971Y-10803445D02*
G75*
G02*
X12820971Y-10803445I71000J0D01*
G01*
X13594700Y-4007700D02*
X13736700Y-4149700D01*
X13736700Y-4007700D02*
X13594700Y-4149700D01*
X13736700Y-4078700D02*
G75*
G02*
X13594700Y-4078700I-71000J0D01*
G01*
X13594700Y-4078700D02*
G75*
G02*
X13736700Y-4078700I71000J0D01*
G01*
X15581557Y-10732445D02*
X15723557Y-10874445D01*
X15723557Y-10732445D02*
X15581557Y-10874445D01*
X15723557Y-10803445D02*
G75*
G02*
X15581557Y-10803445I-71000J0D01*
G01*
X15581557Y-10803445D02*
G75*
G02*
X15723557Y-10803445I71000J0D01*
G01*
X16119700Y-4007700D02*
X16261700Y-4149700D01*
X16261700Y-4007700D02*
X16119700Y-4149700D01*
X16261700Y-4078700D02*
G75*
G02*
X16119700Y-4078700I-71000J0D01*
G01*
X16119700Y-4078700D02*
G75*
G02*
X16261700Y-4078700I71000J0D01*
G01*
X18484143Y-10732445D02*
X18626143Y-10874445D01*
X18626143Y-10732445D02*
X18484143Y-10874445D01*
X18626143Y-10803445D02*
G75*
G02*
X18484143Y-10803445I-71000J0D01*
G01*
X18484143Y-10803445D02*
G75*
G02*
X18626143Y-10803445I71000J0D01*
G01*
X18644700Y-4007700D02*
X18786700Y-4149700D01*
X18786700Y-4007700D02*
X18644700Y-4149700D01*
X18786700Y-4078700D02*
G75*
G02*
X18644700Y-4078700I-71000J0D01*
G01*
X18644700Y-4078700D02*
G75*
G02*
X18786700Y-4078700I71000J0D01*
G01*
X21169700Y-4007700D02*
X21311700Y-4149700D01*
X21311700Y-4007700D02*
X21169700Y-4149700D01*
X21311700Y-4078700D02*
G75*
G02*
X21169700Y-4078700I-71000J0D01*
G01*
X21169700Y-4078700D02*
G75*
G02*
X21311700Y-4078700I71000J0D01*
G01*
X21386729Y-10732445D02*
X21528729Y-10874445D01*
X21528729Y-10732445D02*
X21386729Y-10874445D01*
X21528729Y-10803445D02*
G75*
G02*
X21386729Y-10803445I-71000J0D01*
G01*
X21386729Y-10803445D02*
G75*
G02*
X21528729Y-10803445I71000J0D01*
G01*
X24314314Y-10732445D02*
X24456314Y-10874445D01*
X24456314Y-10732445D02*
X24314314Y-10874445D01*
X24456314Y-10803445D02*
G75*
G02*
X24314314Y-10803445I-71000J0D01*
G01*
X24314314Y-10803445D02*
G75*
G02*
X24456314Y-10803445I71000J0D01*
G01*
D16*
X3494200Y-4837200D02*
X3637200Y-4980200D01*
X3637200Y-4837200D02*
X3494200Y-4980200D01*
X3565700Y-4837200D02*
X3565700Y-4980200D01*
X3494200Y-4908700D02*
X3637200Y-4908700D01*
X3970714Y-9910945D02*
X4113714Y-10053945D01*
X4113714Y-9910945D02*
X3970714Y-10053945D01*
X4042214Y-9910945D02*
X4042214Y-10053945D01*
X3970714Y-9982445D02*
X4113714Y-9982445D01*
X6019200Y-4837200D02*
X6162200Y-4980200D01*
X6162200Y-4837200D02*
X6019200Y-4980200D01*
X6090700Y-4837200D02*
X6090700Y-4980200D01*
X6019200Y-4908700D02*
X6162200Y-4908700D01*
X6873300Y-9901945D02*
X7016300Y-10044945D01*
X7016300Y-9901945D02*
X6873300Y-10044945D01*
X6944800Y-9901945D02*
X6944800Y-10044945D01*
X6873300Y-9973445D02*
X7016300Y-9973445D01*
X8544200Y-4837200D02*
X8687200Y-4980200D01*
X8687200Y-4837200D02*
X8544200Y-4980200D01*
X8615700Y-4837200D02*
X8615700Y-4980200D01*
X8544200Y-4908700D02*
X8687200Y-4908700D01*
X9775886Y-9901945D02*
X9918886Y-10044945D01*
X9918886Y-9901945D02*
X9775886Y-10044945D01*
X9847386Y-9901945D02*
X9847386Y-10044945D01*
X9775886Y-9973445D02*
X9918886Y-9973445D01*
X11069200Y-4837200D02*
X11212200Y-4980200D01*
X11212200Y-4837200D02*
X11069200Y-4980200D01*
X11140700Y-4837200D02*
X11140700Y-4980200D01*
X11069200Y-4908700D02*
X11212200Y-4908700D01*
X12678471Y-9901945D02*
X12821471Y-10044945D01*
X12821471Y-9901945D02*
X12678471Y-10044945D01*
X12749971Y-9901945D02*
X12749971Y-10044945D01*
X12678471Y-9973445D02*
X12821471Y-9973445D01*
X13594200Y-4837200D02*
X13737200Y-4980200D01*
X13737200Y-4837200D02*
X13594200Y-4980200D01*
X13665700Y-4837200D02*
X13665700Y-4980200D01*
X13594200Y-4908700D02*
X13737200Y-4908700D01*
X15581057Y-9901945D02*
X15724057Y-10044945D01*
X15724057Y-9901945D02*
X15581057Y-10044945D01*
X15652557Y-9901945D02*
X15652557Y-10044945D01*
X15581057Y-9973445D02*
X15724057Y-9973445D01*
X16119200Y-4837200D02*
X16262200Y-4980200D01*
X16262200Y-4837200D02*
X16119200Y-4980200D01*
X16190700Y-4837200D02*
X16190700Y-4980200D01*
X16119200Y-4908700D02*
X16262200Y-4908700D01*
X18483643Y-9901945D02*
X18626643Y-10044945D01*
X18626643Y-9901945D02*
X18483643Y-10044945D01*
X18555143Y-9901945D02*
X18555143Y-10044945D01*
X18483643Y-9973445D02*
X18626643Y-9973445D01*
X18644200Y-4837200D02*
X18787200Y-4980200D01*
X18787200Y-4837200D02*
X18644200Y-4980200D01*
X18715700Y-4837200D02*
X18715700Y-4980200D01*
X18644200Y-4908700D02*
X18787200Y-4908700D01*
X21169200Y-4837200D02*
X21312200Y-4980200D01*
X21312200Y-4837200D02*
X21169200Y-4980200D01*
X21240700Y-4837200D02*
X21240700Y-4980200D01*
X21169200Y-4908700D02*
X21312200Y-4908700D01*
X21386229Y-9901945D02*
X21529229Y-10044945D01*
X21529229Y-9901945D02*
X21386229Y-10044945D01*
X21457729Y-9901945D02*
X21457729Y-10044945D01*
X21386229Y-9973445D02*
X21529229Y-9973445D01*
X24313814Y-9901945D02*
X24456814Y-10044945D01*
X24456814Y-9901945D02*
X24313814Y-10044945D01*
X24385314Y-9901945D02*
X24385314Y-10044945D01*
X24313814Y-9973445D02*
X24456814Y-9973445D01*
D17*
X3158214Y-7864445D02*
X3338214Y-8044445D01*
X3338214Y-7864445D02*
X3158214Y-8044445D01*
X3311854Y-8018085D02*
X3311854Y-7890805D01*
X3184574Y-7890805D01*
X3184574Y-8018085D01*
X3311854Y-8018085D01*
D12*
X3233214Y-8044445D02*
X3263214Y-8044445D01*
X3263214Y-7864445D02*
G75*
G02*
X3263214Y-8044445I0J-90000D01*
G01*
X3263214Y-7864445D02*
X3233214Y-7864445D01*
X3233214Y-7864445D02*
G75*
G03*
X3233214Y-8044445I0J-90000D01*
G01*
D17*
X3158214Y-8744445D02*
X3338214Y-8924445D01*
X3338214Y-8744445D02*
X3158214Y-8924445D01*
X3311854Y-8898085D02*
X3311854Y-8770805D01*
X3184574Y-8770805D01*
X3184574Y-8898085D01*
X3311854Y-8898085D01*
D12*
X3233214Y-8924445D02*
X3263214Y-8924445D01*
X3263214Y-8744445D02*
G75*
G02*
X3263214Y-8924445I0J-90000D01*
G01*
X3263214Y-8744445D02*
X3233214Y-8744445D01*
X3233214Y-8744445D02*
G75*
G03*
X3233214Y-8924445I0J-90000D01*
G01*
D17*
X6060800Y-7855445D02*
X6240800Y-8035445D01*
X6240800Y-7855445D02*
X6060800Y-8035445D01*
X6214440Y-8009085D02*
X6214440Y-7881805D01*
X6087160Y-7881805D01*
X6087160Y-8009085D01*
X6214440Y-8009085D01*
D12*
X6135800Y-8035445D02*
X6165800Y-8035445D01*
X6165800Y-7855445D02*
G75*
G02*
X6165800Y-8035445I0J-90000D01*
G01*
X6165800Y-7855445D02*
X6135800Y-7855445D01*
X6135800Y-7855445D02*
G75*
G03*
X6135800Y-8035445I0J-90000D01*
G01*
D17*
X6060800Y-8735445D02*
X6240800Y-8915445D01*
X6240800Y-8735445D02*
X6060800Y-8915445D01*
X6214440Y-8889085D02*
X6214440Y-8761805D01*
X6087160Y-8761805D01*
X6087160Y-8889085D01*
X6214440Y-8889085D01*
D12*
X6135800Y-8915445D02*
X6165800Y-8915445D01*
X6165800Y-8735445D02*
G75*
G02*
X6165800Y-8915445I0J-90000D01*
G01*
X6165800Y-8735445D02*
X6135800Y-8735445D01*
X6135800Y-8735445D02*
G75*
G03*
X6135800Y-8915445I0J-90000D01*
G01*
D17*
X8963386Y-7855445D02*
X9143386Y-8035445D01*
X9143386Y-7855445D02*
X8963386Y-8035445D01*
X9117026Y-8009085D02*
X9117026Y-7881805D01*
X8989746Y-7881805D01*
X8989746Y-8009085D01*
X9117026Y-8009085D01*
D12*
X9038386Y-8035445D02*
X9068386Y-8035445D01*
X9068386Y-7855445D02*
G75*
G02*
X9068386Y-8035445I0J-90000D01*
G01*
X9068386Y-7855445D02*
X9038386Y-7855445D01*
X9038386Y-7855445D02*
G75*
G03*
X9038386Y-8035445I0J-90000D01*
G01*
D17*
X8963386Y-8735445D02*
X9143386Y-8915445D01*
X9143386Y-8735445D02*
X8963386Y-8915445D01*
X9117026Y-8889085D02*
X9117026Y-8761805D01*
X8989746Y-8761805D01*
X8989746Y-8889085D01*
X9117026Y-8889085D01*
D12*
X9038386Y-8915445D02*
X9068386Y-8915445D01*
X9068386Y-8735445D02*
G75*
G02*
X9068386Y-8915445I0J-90000D01*
G01*
X9068386Y-8735445D02*
X9038386Y-8735445D01*
X9038386Y-8735445D02*
G75*
G03*
X9038386Y-8915445I0J-90000D01*
G01*
D17*
X11865971Y-7855445D02*
X12045971Y-8035445D01*
X12045971Y-7855445D02*
X11865971Y-8035445D01*
X12019612Y-8009085D02*
X12019612Y-7881805D01*
X11892331Y-7881805D01*
X11892331Y-8009085D01*
X12019612Y-8009085D01*
D12*
X11940971Y-8035445D02*
X11970971Y-8035445D01*
X11970971Y-7855445D02*
G75*
G02*
X11970971Y-8035445I0J-90000D01*
G01*
X11970971Y-7855445D02*
X11940971Y-7855445D01*
X11940971Y-7855445D02*
G75*
G03*
X11940971Y-8035445I0J-90000D01*
G01*
D17*
X11865971Y-8735445D02*
X12045971Y-8915445D01*
X12045971Y-8735445D02*
X11865971Y-8915445D01*
X12019612Y-8889085D02*
X12019612Y-8761805D01*
X11892331Y-8761805D01*
X11892331Y-8889085D01*
X12019612Y-8889085D01*
D12*
X11940971Y-8915445D02*
X11970971Y-8915445D01*
X11970971Y-8735445D02*
G75*
G02*
X11970971Y-8915445I0J-90000D01*
G01*
X11970971Y-8735445D02*
X11940971Y-8735445D01*
X11940971Y-8735445D02*
G75*
G03*
X11940971Y-8915445I0J-90000D01*
G01*
D17*
X14768557Y-7855445D02*
X14948557Y-8035445D01*
X14948557Y-7855445D02*
X14768557Y-8035445D01*
X14922197Y-8009085D02*
X14922197Y-7881805D01*
X14794917Y-7881805D01*
X14794917Y-8009085D01*
X14922197Y-8009085D01*
D12*
X14843557Y-8035445D02*
X14873557Y-8035445D01*
X14873557Y-7855445D02*
G75*
G02*
X14873557Y-8035445I0J-90000D01*
G01*
X14873557Y-7855445D02*
X14843557Y-7855445D01*
X14843557Y-7855445D02*
G75*
G03*
X14843557Y-8035445I0J-90000D01*
G01*
D17*
X14768557Y-8735445D02*
X14948557Y-8915445D01*
X14948557Y-8735445D02*
X14768557Y-8915445D01*
X14922197Y-8889085D02*
X14922197Y-8761805D01*
X14794917Y-8761805D01*
X14794917Y-8889085D01*
X14922197Y-8889085D01*
D12*
X14843557Y-8915445D02*
X14873557Y-8915445D01*
X14873557Y-8735445D02*
G75*
G02*
X14873557Y-8915445I0J-90000D01*
G01*
X14873557Y-8735445D02*
X14843557Y-8735445D01*
X14843557Y-8735445D02*
G75*
G03*
X14843557Y-8915445I0J-90000D01*
G01*
D17*
X17671143Y-7855445D02*
X17851143Y-8035445D01*
X17851143Y-7855445D02*
X17671143Y-8035445D01*
X17824783Y-8009085D02*
X17824783Y-7881805D01*
X17697503Y-7881805D01*
X17697503Y-8009085D01*
X17824783Y-8009085D01*
D12*
X17746143Y-8035445D02*
X17776143Y-8035445D01*
X17776143Y-7855445D02*
G75*
G02*
X17776143Y-8035445I0J-90000D01*
G01*
X17776143Y-7855445D02*
X17746143Y-7855445D01*
X17746143Y-7855445D02*
G75*
G03*
X17746143Y-8035445I0J-90000D01*
G01*
D17*
X17671143Y-8735445D02*
X17851143Y-8915445D01*
X17851143Y-8735445D02*
X17671143Y-8915445D01*
X17824783Y-8889085D02*
X17824783Y-8761805D01*
X17697503Y-8761805D01*
X17697503Y-8889085D01*
X17824783Y-8889085D01*
D12*
X17746143Y-8915445D02*
X17776143Y-8915445D01*
X17776143Y-8735445D02*
G75*
G02*
X17776143Y-8915445I0J-90000D01*
G01*
X17776143Y-8735445D02*
X17746143Y-8735445D01*
X17746143Y-8735445D02*
G75*
G03*
X17746143Y-8915445I0J-90000D01*
G01*
D17*
X20573729Y-7855445D02*
X20753729Y-8035445D01*
X20753729Y-7855445D02*
X20573729Y-8035445D01*
X20727369Y-8009085D02*
X20727369Y-7881805D01*
X20600088Y-7881805D01*
X20600088Y-8009085D01*
X20727369Y-8009085D01*
D12*
X20648729Y-8035445D02*
X20678729Y-8035445D01*
X20678729Y-7855445D02*
G75*
G02*
X20678729Y-8035445I0J-90000D01*
G01*
X20678729Y-7855445D02*
X20648729Y-7855445D01*
X20648729Y-7855445D02*
G75*
G03*
X20648729Y-8035445I0J-90000D01*
G01*
D17*
X20573729Y-8735445D02*
X20753729Y-8915445D01*
X20753729Y-8735445D02*
X20573729Y-8915445D01*
X20727369Y-8889085D02*
X20727369Y-8761805D01*
X20600088Y-8761805D01*
X20600088Y-8889085D01*
X20727369Y-8889085D01*
D12*
X20648729Y-8915445D02*
X20678729Y-8915445D01*
X20678729Y-8735445D02*
G75*
G02*
X20678729Y-8915445I0J-90000D01*
G01*
X20678729Y-8735445D02*
X20648729Y-8735445D01*
X20648729Y-8735445D02*
G75*
G03*
X20648729Y-8915445I0J-90000D01*
G01*
D17*
X23501314Y-7855445D02*
X23681314Y-8035445D01*
X23681314Y-7855445D02*
X23501314Y-8035445D01*
X23654954Y-8009085D02*
X23654954Y-7881805D01*
X23527674Y-7881805D01*
X23527674Y-8009085D01*
X23654954Y-8009085D01*
D12*
X23576314Y-8035445D02*
X23606314Y-8035445D01*
X23606314Y-7855445D02*
G75*
G02*
X23606314Y-8035445I0J-90000D01*
G01*
X23606314Y-7855445D02*
X23576314Y-7855445D01*
X23576314Y-7855445D02*
G75*
G03*
X23576314Y-8035445I0J-90000D01*
G01*
D17*
X23501314Y-8735445D02*
X23681314Y-8915445D01*
X23681314Y-8735445D02*
X23501314Y-8915445D01*
X23654954Y-8889085D02*
X23654954Y-8761805D01*
X23527674Y-8761805D01*
X23527674Y-8889085D01*
X23654954Y-8889085D01*
D12*
X23576314Y-8915445D02*
X23606314Y-8915445D01*
X23606314Y-8735445D02*
G75*
G02*
X23606314Y-8915445I0J-90000D01*
G01*
X23606314Y-8735445D02*
X23576314Y-8735445D01*
X23576314Y-8735445D02*
G75*
G03*
X23576314Y-8915445I0J-90000D01*
G01*
D11*
X1883277Y-12829984D02*
X1883277Y-12629984D01*
X1883277Y-12629984D02*
X1930896Y-12629984D01*
X1930896Y-12629984D02*
X1959467Y-12639508D01*
X1959467Y-12639508D02*
X1978515Y-12658555D01*
X1978515Y-12658555D02*
X1988039Y-12677603D01*
X1988039Y-12677603D02*
X1997562Y-12715698D01*
X1997562Y-12715698D02*
X1997562Y-12744269D01*
X1997562Y-12744269D02*
X1988039Y-12782365D01*
X1988039Y-12782365D02*
X1978515Y-12801412D01*
X1978515Y-12801412D02*
X1959467Y-12820460D01*
X1959467Y-12820460D02*
X1930896Y-12829984D01*
X1930896Y-12829984D02*
X1883277Y-12829984D01*
X2083277Y-12829984D02*
X2083277Y-12696650D01*
X2083277Y-12734746D02*
X2092801Y-12715698D01*
X2092801Y-12715698D02*
X2102324Y-12706174D01*
X2102324Y-12706174D02*
X2121372Y-12696650D01*
X2121372Y-12696650D02*
X2140420Y-12696650D01*
X2207086Y-12829984D02*
X2207086Y-12696650D01*
X2207086Y-12629984D02*
X2197563Y-12639508D01*
X2197563Y-12639508D02*
X2207086Y-12649031D01*
X2207086Y-12649031D02*
X2216610Y-12639508D01*
X2216610Y-12639508D02*
X2207086Y-12629984D01*
X2207086Y-12629984D02*
X2207086Y-12649031D01*
X2330896Y-12829984D02*
X2311848Y-12820460D01*
X2311848Y-12820460D02*
X2302324Y-12801412D01*
X2302324Y-12801412D02*
X2302324Y-12629984D01*
X2435658Y-12829984D02*
X2416610Y-12820460D01*
X2416610Y-12820460D02*
X2407086Y-12801412D01*
X2407086Y-12801412D02*
X2407086Y-12629984D01*
X2664229Y-12829984D02*
X2664229Y-12629984D01*
X2664229Y-12629984D02*
X2730896Y-12772841D01*
X2730896Y-12772841D02*
X2797562Y-12629984D01*
X2797562Y-12629984D02*
X2797562Y-12829984D01*
X2978515Y-12829984D02*
X2978515Y-12725222D01*
X2978515Y-12725222D02*
X2968991Y-12706174D01*
X2968991Y-12706174D02*
X2949943Y-12696650D01*
X2949943Y-12696650D02*
X2911848Y-12696650D01*
X2911848Y-12696650D02*
X2892801Y-12706174D01*
X2978515Y-12820460D02*
X2959467Y-12829984D01*
X2959467Y-12829984D02*
X2911848Y-12829984D01*
X2911848Y-12829984D02*
X2892801Y-12820460D01*
X2892801Y-12820460D02*
X2883277Y-12801412D01*
X2883277Y-12801412D02*
X2883277Y-12782365D01*
X2883277Y-12782365D02*
X2892801Y-12763317D01*
X2892801Y-12763317D02*
X2911848Y-12753793D01*
X2911848Y-12753793D02*
X2959467Y-12753793D01*
X2959467Y-12753793D02*
X2978515Y-12744269D01*
X3073753Y-12696650D02*
X3073753Y-12896650D01*
X3073753Y-12706174D02*
X3092801Y-12696650D01*
X3092801Y-12696650D02*
X3130896Y-12696650D01*
X3130896Y-12696650D02*
X3149943Y-12706174D01*
X3149943Y-12706174D02*
X3159467Y-12715698D01*
X3159467Y-12715698D02*
X3168991Y-12734746D01*
X3168991Y-12734746D02*
X3168991Y-12791888D01*
X3168991Y-12791888D02*
X3159467Y-12810936D01*
X3159467Y-12810936D02*
X3149943Y-12820460D01*
X3149943Y-12820460D02*
X3130896Y-12829984D01*
X3130896Y-12829984D02*
X3092801Y-12829984D01*
X3092801Y-12829984D02*
X3073753Y-12820460D01*
X3254705Y-12810936D02*
X3264229Y-12820460D01*
X3264229Y-12820460D02*
X3254705Y-12829984D01*
X3254705Y-12829984D02*
X3245182Y-12820460D01*
X3245182Y-12820460D02*
X3254705Y-12810936D01*
X3254705Y-12810936D02*
X3254705Y-12829984D01*
X3254705Y-12706174D02*
X3264229Y-12715698D01*
X3264229Y-12715698D02*
X3254705Y-12725222D01*
X3254705Y-12725222D02*
X3245182Y-12715698D01*
X3245182Y-12715698D02*
X3254705Y-12706174D01*
X3254705Y-12706174D02*
X3254705Y-12725222D01*
D12*
X1592500Y-13143500D02*
X1622500Y-13173500D01*
X1622500Y-13143500D02*
X1592500Y-13173500D01*
D11*
X1921372Y-13049984D02*
X1940420Y-13049984D01*
X1940420Y-13049984D02*
X1959467Y-13059508D01*
X1959467Y-13059508D02*
X1968991Y-13069031D01*
X1968991Y-13069031D02*
X1978515Y-13088079D01*
X1978515Y-13088079D02*
X1988039Y-13126174D01*
X1988039Y-13126174D02*
X1988039Y-13173793D01*
X1988039Y-13173793D02*
X1978515Y-13211888D01*
X1978515Y-13211888D02*
X1968991Y-13230936D01*
X1968991Y-13230936D02*
X1959467Y-13240460D01*
X1959467Y-13240460D02*
X1940420Y-13249984D01*
X1940420Y-13249984D02*
X1921372Y-13249984D01*
X1921372Y-13249984D02*
X1902324Y-13240460D01*
X1902324Y-13240460D02*
X1892801Y-13230936D01*
X1892801Y-13230936D02*
X1883277Y-13211888D01*
X1883277Y-13211888D02*
X1873753Y-13173793D01*
X1873753Y-13173793D02*
X1873753Y-13126174D01*
X1873753Y-13126174D02*
X1883277Y-13088079D01*
X1883277Y-13088079D02*
X1892801Y-13069031D01*
X1892801Y-13069031D02*
X1902324Y-13059508D01*
X1902324Y-13059508D02*
X1921372Y-13049984D01*
X2073753Y-13230936D02*
X2083277Y-13240460D01*
X2083277Y-13240460D02*
X2073753Y-13249984D01*
X2073753Y-13249984D02*
X2064229Y-13240460D01*
X2064229Y-13240460D02*
X2073753Y-13230936D01*
X2073753Y-13230936D02*
X2073753Y-13249984D01*
X2149944Y-13049984D02*
X2273753Y-13049984D01*
X2273753Y-13049984D02*
X2207086Y-13126174D01*
X2207086Y-13126174D02*
X2235658Y-13126174D01*
X2235658Y-13126174D02*
X2254705Y-13135698D01*
X2254705Y-13135698D02*
X2264229Y-13145222D01*
X2264229Y-13145222D02*
X2273753Y-13164269D01*
X2273753Y-13164269D02*
X2273753Y-13211888D01*
X2273753Y-13211888D02*
X2264229Y-13230936D01*
X2264229Y-13230936D02*
X2254705Y-13240460D01*
X2254705Y-13240460D02*
X2235658Y-13249984D01*
X2235658Y-13249984D02*
X2178515Y-13249984D01*
X2178515Y-13249984D02*
X2159467Y-13240460D01*
X2159467Y-13240460D02*
X2149944Y-13230936D01*
X2397563Y-13049984D02*
X2416610Y-13049984D01*
X2416610Y-13049984D02*
X2435658Y-13059508D01*
X2435658Y-13059508D02*
X2445182Y-13069031D01*
X2445182Y-13069031D02*
X2454705Y-13088079D01*
X2454705Y-13088079D02*
X2464229Y-13126174D01*
X2464229Y-13126174D02*
X2464229Y-13173793D01*
X2464229Y-13173793D02*
X2454705Y-13211888D01*
X2454705Y-13211888D02*
X2445182Y-13230936D01*
X2445182Y-13230936D02*
X2435658Y-13240460D01*
X2435658Y-13240460D02*
X2416610Y-13249984D01*
X2416610Y-13249984D02*
X2397563Y-13249984D01*
X2397563Y-13249984D02*
X2378515Y-13240460D01*
X2378515Y-13240460D02*
X2368991Y-13230936D01*
X2368991Y-13230936D02*
X2359467Y-13211888D01*
X2359467Y-13211888D02*
X2349944Y-13173793D01*
X2349944Y-13173793D02*
X2349944Y-13126174D01*
X2349944Y-13126174D02*
X2359467Y-13088079D01*
X2359467Y-13088079D02*
X2368991Y-13069031D01*
X2368991Y-13069031D02*
X2378515Y-13059508D01*
X2378515Y-13059508D02*
X2397563Y-13049984D01*
X2588039Y-13049984D02*
X2607086Y-13049984D01*
X2607086Y-13049984D02*
X2626134Y-13059508D01*
X2626134Y-13059508D02*
X2635658Y-13069031D01*
X2635658Y-13069031D02*
X2645182Y-13088079D01*
X2645182Y-13088079D02*
X2654705Y-13126174D01*
X2654705Y-13126174D02*
X2654705Y-13173793D01*
X2654705Y-13173793D02*
X2645182Y-13211888D01*
X2645182Y-13211888D02*
X2635658Y-13230936D01*
X2635658Y-13230936D02*
X2626134Y-13240460D01*
X2626134Y-13240460D02*
X2607086Y-13249984D01*
X2607086Y-13249984D02*
X2588039Y-13249984D01*
X2588039Y-13249984D02*
X2568991Y-13240460D01*
X2568991Y-13240460D02*
X2559467Y-13230936D01*
X2559467Y-13230936D02*
X2549944Y-13211888D01*
X2549944Y-13211888D02*
X2540420Y-13173793D01*
X2540420Y-13173793D02*
X2540420Y-13126174D01*
X2540420Y-13126174D02*
X2549944Y-13088079D01*
X2549944Y-13088079D02*
X2559467Y-13069031D01*
X2559467Y-13069031D02*
X2568991Y-13059508D01*
X2568991Y-13059508D02*
X2588039Y-13049984D01*
X2740420Y-13249984D02*
X2740420Y-13116650D01*
X2740420Y-13135698D02*
X2749944Y-13126174D01*
X2749944Y-13126174D02*
X2768991Y-13116650D01*
X2768991Y-13116650D02*
X2797563Y-13116650D01*
X2797563Y-13116650D02*
X2816610Y-13126174D01*
X2816610Y-13126174D02*
X2826134Y-13145222D01*
X2826134Y-13145222D02*
X2826134Y-13249984D01*
X2826134Y-13145222D02*
X2835658Y-13126174D01*
X2835658Y-13126174D02*
X2854705Y-13116650D01*
X2854705Y-13116650D02*
X2883277Y-13116650D01*
X2883277Y-13116650D02*
X2902324Y-13126174D01*
X2902324Y-13126174D02*
X2911848Y-13145222D01*
X2911848Y-13145222D02*
X2911848Y-13249984D01*
X3007086Y-13249984D02*
X3007086Y-13116650D01*
X3007086Y-13135698D02*
X3016610Y-13126174D01*
X3016610Y-13126174D02*
X3035658Y-13116650D01*
X3035658Y-13116650D02*
X3064229Y-13116650D01*
X3064229Y-13116650D02*
X3083277Y-13126174D01*
X3083277Y-13126174D02*
X3092801Y-13145222D01*
X3092801Y-13145222D02*
X3092801Y-13249984D01*
X3092801Y-13145222D02*
X3102324Y-13126174D01*
X3102324Y-13126174D02*
X3121372Y-13116650D01*
X3121372Y-13116650D02*
X3149943Y-13116650D01*
X3149943Y-13116650D02*
X3168991Y-13126174D01*
X3168991Y-13126174D02*
X3178515Y-13145222D01*
X3178515Y-13145222D02*
X3178515Y-13249984D01*
X3568991Y-13040460D02*
X3397563Y-13297603D01*
X3826134Y-13049984D02*
X3845182Y-13049984D01*
X3845182Y-13049984D02*
X3864229Y-13059508D01*
X3864229Y-13059508D02*
X3873753Y-13069031D01*
X3873753Y-13069031D02*
X3883277Y-13088079D01*
X3883277Y-13088079D02*
X3892801Y-13126174D01*
X3892801Y-13126174D02*
X3892801Y-13173793D01*
X3892801Y-13173793D02*
X3883277Y-13211888D01*
X3883277Y-13211888D02*
X3873753Y-13230936D01*
X3873753Y-13230936D02*
X3864229Y-13240460D01*
X3864229Y-13240460D02*
X3845182Y-13249984D01*
X3845182Y-13249984D02*
X3826134Y-13249984D01*
X3826134Y-13249984D02*
X3807086Y-13240460D01*
X3807086Y-13240460D02*
X3797563Y-13230936D01*
X3797563Y-13230936D02*
X3788039Y-13211888D01*
X3788039Y-13211888D02*
X3778515Y-13173793D01*
X3778515Y-13173793D02*
X3778515Y-13126174D01*
X3778515Y-13126174D02*
X3788039Y-13088079D01*
X3788039Y-13088079D02*
X3797563Y-13069031D01*
X3797563Y-13069031D02*
X3807086Y-13059508D01*
X3807086Y-13059508D02*
X3826134Y-13049984D01*
X3978515Y-13230936D02*
X3988039Y-13240460D01*
X3988039Y-13240460D02*
X3978515Y-13249984D01*
X3978515Y-13249984D02*
X3968991Y-13240460D01*
X3968991Y-13240460D02*
X3978515Y-13230936D01*
X3978515Y-13230936D02*
X3978515Y-13249984D01*
X4111848Y-13049984D02*
X4130896Y-13049984D01*
X4130896Y-13049984D02*
X4149944Y-13059508D01*
X4149944Y-13059508D02*
X4159467Y-13069031D01*
X4159467Y-13069031D02*
X4168991Y-13088079D01*
X4168991Y-13088079D02*
X4178515Y-13126174D01*
X4178515Y-13126174D02*
X4178515Y-13173793D01*
X4178515Y-13173793D02*
X4168991Y-13211888D01*
X4168991Y-13211888D02*
X4159467Y-13230936D01*
X4159467Y-13230936D02*
X4149944Y-13240460D01*
X4149944Y-13240460D02*
X4130896Y-13249984D01*
X4130896Y-13249984D02*
X4111848Y-13249984D01*
X4111848Y-13249984D02*
X4092801Y-13240460D01*
X4092801Y-13240460D02*
X4083277Y-13230936D01*
X4083277Y-13230936D02*
X4073753Y-13211888D01*
X4073753Y-13211888D02*
X4064229Y-13173793D01*
X4064229Y-13173793D02*
X4064229Y-13126174D01*
X4064229Y-13126174D02*
X4073753Y-13088079D01*
X4073753Y-13088079D02*
X4083277Y-13069031D01*
X4083277Y-13069031D02*
X4092801Y-13059508D01*
X4092801Y-13059508D02*
X4111848Y-13049984D01*
X4368991Y-13249984D02*
X4254706Y-13249984D01*
X4311848Y-13249984D02*
X4311848Y-13049984D01*
X4311848Y-13049984D02*
X4292801Y-13078555D01*
X4292801Y-13078555D02*
X4273753Y-13097603D01*
X4273753Y-13097603D02*
X4254706Y-13107127D01*
X4559468Y-13249984D02*
X4445182Y-13249984D01*
X4502325Y-13249984D02*
X4502325Y-13049984D01*
X4502325Y-13049984D02*
X4483277Y-13078555D01*
X4483277Y-13078555D02*
X4464229Y-13097603D01*
X4464229Y-13097603D02*
X4445182Y-13107127D01*
X4673753Y-13135698D02*
X4654706Y-13126174D01*
X4654706Y-13126174D02*
X4645182Y-13116650D01*
X4645182Y-13116650D02*
X4635658Y-13097603D01*
X4635658Y-13097603D02*
X4635658Y-13088079D01*
X4635658Y-13088079D02*
X4645182Y-13069031D01*
X4645182Y-13069031D02*
X4654706Y-13059508D01*
X4654706Y-13059508D02*
X4673753Y-13049984D01*
X4673753Y-13049984D02*
X4711849Y-13049984D01*
X4711849Y-13049984D02*
X4730896Y-13059508D01*
X4730896Y-13059508D02*
X4740420Y-13069031D01*
X4740420Y-13069031D02*
X4749944Y-13088079D01*
X4749944Y-13088079D02*
X4749944Y-13097603D01*
X4749944Y-13097603D02*
X4740420Y-13116650D01*
X4740420Y-13116650D02*
X4730896Y-13126174D01*
X4730896Y-13126174D02*
X4711849Y-13135698D01*
X4711849Y-13135698D02*
X4673753Y-13135698D01*
X4673753Y-13135698D02*
X4654706Y-13145222D01*
X4654706Y-13145222D02*
X4645182Y-13154746D01*
X4645182Y-13154746D02*
X4635658Y-13173793D01*
X4635658Y-13173793D02*
X4635658Y-13211888D01*
X4635658Y-13211888D02*
X4645182Y-13230936D01*
X4645182Y-13230936D02*
X4654706Y-13240460D01*
X4654706Y-13240460D02*
X4673753Y-13249984D01*
X4673753Y-13249984D02*
X4711849Y-13249984D01*
X4711849Y-13249984D02*
X4730896Y-13240460D01*
X4730896Y-13240460D02*
X4740420Y-13230936D01*
X4740420Y-13230936D02*
X4749944Y-13211888D01*
X4749944Y-13211888D02*
X4749944Y-13173793D01*
X4749944Y-13173793D02*
X4740420Y-13154746D01*
X4740420Y-13154746D02*
X4730896Y-13145222D01*
X4730896Y-13145222D02*
X4711849Y-13135698D01*
X4826134Y-13049984D02*
X4826134Y-13088079D01*
X4902325Y-13049984D02*
X4902325Y-13088079D01*
X5197563Y-13326174D02*
X5188039Y-13316650D01*
X5188039Y-13316650D02*
X5168991Y-13288079D01*
X5168991Y-13288079D02*
X5159468Y-13269031D01*
X5159468Y-13269031D02*
X5149944Y-13240460D01*
X5149944Y-13240460D02*
X5140420Y-13192841D01*
X5140420Y-13192841D02*
X5140420Y-13154746D01*
X5140420Y-13154746D02*
X5149944Y-13107127D01*
X5149944Y-13107127D02*
X5159468Y-13078555D01*
X5159468Y-13078555D02*
X5168991Y-13059508D01*
X5168991Y-13059508D02*
X5188039Y-13030936D01*
X5188039Y-13030936D02*
X5197563Y-13021412D01*
X5264230Y-13069031D02*
X5273753Y-13059508D01*
X5273753Y-13059508D02*
X5292801Y-13049984D01*
X5292801Y-13049984D02*
X5340420Y-13049984D01*
X5340420Y-13049984D02*
X5359468Y-13059508D01*
X5359468Y-13059508D02*
X5368991Y-13069031D01*
X5368991Y-13069031D02*
X5378515Y-13088079D01*
X5378515Y-13088079D02*
X5378515Y-13107127D01*
X5378515Y-13107127D02*
X5368991Y-13135698D01*
X5368991Y-13135698D02*
X5254706Y-13249984D01*
X5254706Y-13249984D02*
X5378515Y-13249984D01*
X5445182Y-13049984D02*
X5568991Y-13049984D01*
X5568991Y-13049984D02*
X5502325Y-13126174D01*
X5502325Y-13126174D02*
X5530896Y-13126174D01*
X5530896Y-13126174D02*
X5549944Y-13135698D01*
X5549944Y-13135698D02*
X5559468Y-13145222D01*
X5559468Y-13145222D02*
X5568991Y-13164269D01*
X5568991Y-13164269D02*
X5568991Y-13211888D01*
X5568991Y-13211888D02*
X5559468Y-13230936D01*
X5559468Y-13230936D02*
X5549944Y-13240460D01*
X5549944Y-13240460D02*
X5530896Y-13249984D01*
X5530896Y-13249984D02*
X5473753Y-13249984D01*
X5473753Y-13249984D02*
X5454706Y-13240460D01*
X5454706Y-13240460D02*
X5445182Y-13230936D01*
X5692801Y-13049984D02*
X5711849Y-13049984D01*
X5711849Y-13049984D02*
X5730896Y-13059508D01*
X5730896Y-13059508D02*
X5740420Y-13069031D01*
X5740420Y-13069031D02*
X5749944Y-13088079D01*
X5749944Y-13088079D02*
X5759468Y-13126174D01*
X5759468Y-13126174D02*
X5759468Y-13173793D01*
X5759468Y-13173793D02*
X5749944Y-13211888D01*
X5749944Y-13211888D02*
X5740420Y-13230936D01*
X5740420Y-13230936D02*
X5730896Y-13240460D01*
X5730896Y-13240460D02*
X5711849Y-13249984D01*
X5711849Y-13249984D02*
X5692801Y-13249984D01*
X5692801Y-13249984D02*
X5673753Y-13240460D01*
X5673753Y-13240460D02*
X5664229Y-13230936D01*
X5664229Y-13230936D02*
X5654706Y-13211888D01*
X5654706Y-13211888D02*
X5645182Y-13173793D01*
X5645182Y-13173793D02*
X5645182Y-13126174D01*
X5645182Y-13126174D02*
X5654706Y-13088079D01*
X5654706Y-13088079D02*
X5664229Y-13069031D01*
X5664229Y-13069031D02*
X5673753Y-13059508D01*
X5673753Y-13059508D02*
X5692801Y-13049984D01*
X5997563Y-13249984D02*
X5997563Y-13049984D01*
X6083277Y-13249984D02*
X6083277Y-13145222D01*
X6083277Y-13145222D02*
X6073753Y-13126174D01*
X6073753Y-13126174D02*
X6054706Y-13116650D01*
X6054706Y-13116650D02*
X6026134Y-13116650D01*
X6026134Y-13116650D02*
X6007087Y-13126174D01*
X6007087Y-13126174D02*
X5997563Y-13135698D01*
X6207087Y-13249984D02*
X6188039Y-13240460D01*
X6188039Y-13240460D02*
X6178515Y-13230936D01*
X6178515Y-13230936D02*
X6168991Y-13211888D01*
X6168991Y-13211888D02*
X6168991Y-13154746D01*
X6168991Y-13154746D02*
X6178515Y-13135698D01*
X6178515Y-13135698D02*
X6188039Y-13126174D01*
X6188039Y-13126174D02*
X6207087Y-13116650D01*
X6207087Y-13116650D02*
X6235658Y-13116650D01*
X6235658Y-13116650D02*
X6254706Y-13126174D01*
X6254706Y-13126174D02*
X6264230Y-13135698D01*
X6264230Y-13135698D02*
X6273753Y-13154746D01*
X6273753Y-13154746D02*
X6273753Y-13211888D01*
X6273753Y-13211888D02*
X6264230Y-13230936D01*
X6264230Y-13230936D02*
X6254706Y-13240460D01*
X6254706Y-13240460D02*
X6235658Y-13249984D01*
X6235658Y-13249984D02*
X6207087Y-13249984D01*
X6388039Y-13249984D02*
X6368991Y-13240460D01*
X6368991Y-13240460D02*
X6359468Y-13221412D01*
X6359468Y-13221412D02*
X6359468Y-13049984D01*
X6540420Y-13240460D02*
X6521372Y-13249984D01*
X6521372Y-13249984D02*
X6483277Y-13249984D01*
X6483277Y-13249984D02*
X6464230Y-13240460D01*
X6464230Y-13240460D02*
X6454706Y-13221412D01*
X6454706Y-13221412D02*
X6454706Y-13145222D01*
X6454706Y-13145222D02*
X6464230Y-13126174D01*
X6464230Y-13126174D02*
X6483277Y-13116650D01*
X6483277Y-13116650D02*
X6521372Y-13116650D01*
X6521372Y-13116650D02*
X6540420Y-13126174D01*
X6540420Y-13126174D02*
X6549944Y-13145222D01*
X6549944Y-13145222D02*
X6549944Y-13164269D01*
X6549944Y-13164269D02*
X6454706Y-13183317D01*
X6626134Y-13240460D02*
X6645182Y-13249984D01*
X6645182Y-13249984D02*
X6683277Y-13249984D01*
X6683277Y-13249984D02*
X6702325Y-13240460D01*
X6702325Y-13240460D02*
X6711849Y-13221412D01*
X6711849Y-13221412D02*
X6711849Y-13211888D01*
X6711849Y-13211888D02*
X6702325Y-13192841D01*
X6702325Y-13192841D02*
X6683277Y-13183317D01*
X6683277Y-13183317D02*
X6654706Y-13183317D01*
X6654706Y-13183317D02*
X6635658Y-13173793D01*
X6635658Y-13173793D02*
X6626134Y-13154746D01*
X6626134Y-13154746D02*
X6626134Y-13145222D01*
X6626134Y-13145222D02*
X6635658Y-13126174D01*
X6635658Y-13126174D02*
X6654706Y-13116650D01*
X6654706Y-13116650D02*
X6683277Y-13116650D01*
X6683277Y-13116650D02*
X6702325Y-13126174D01*
X6778515Y-13326174D02*
X6788039Y-13316650D01*
X6788039Y-13316650D02*
X6807087Y-13288079D01*
X6807087Y-13288079D02*
X6816611Y-13269031D01*
X6816611Y-13269031D02*
X6826134Y-13240460D01*
X6826134Y-13240460D02*
X6835658Y-13192841D01*
X6835658Y-13192841D02*
X6835658Y-13154746D01*
X6835658Y-13154746D02*
X6826134Y-13107127D01*
X6826134Y-13107127D02*
X6816611Y-13078555D01*
X6816611Y-13078555D02*
X6807087Y-13059508D01*
X6807087Y-13059508D02*
X6788039Y-13030936D01*
X6788039Y-13030936D02*
X6778515Y-13021412D01*
D12*
X1622500Y-13422500D02*
G75*
G02*
X1532500Y-13422500I-45000J0D01*
G01*
X1532500Y-13422500D02*
G75*
G02*
X1622500Y-13422500I45000J0D01*
G01*
D11*
X1921372Y-13313984D02*
X1940420Y-13313984D01*
X1940420Y-13313984D02*
X1959467Y-13323508D01*
X1959467Y-13323508D02*
X1968991Y-13333031D01*
X1968991Y-13333031D02*
X1978515Y-13352079D01*
X1978515Y-13352079D02*
X1988039Y-13390174D01*
X1988039Y-13390174D02*
X1988039Y-13437793D01*
X1988039Y-13437793D02*
X1978515Y-13475888D01*
X1978515Y-13475888D02*
X1968991Y-13494936D01*
X1968991Y-13494936D02*
X1959467Y-13504460D01*
X1959467Y-13504460D02*
X1940420Y-13513984D01*
X1940420Y-13513984D02*
X1921372Y-13513984D01*
X1921372Y-13513984D02*
X1902324Y-13504460D01*
X1902324Y-13504460D02*
X1892801Y-13494936D01*
X1892801Y-13494936D02*
X1883277Y-13475888D01*
X1883277Y-13475888D02*
X1873753Y-13437793D01*
X1873753Y-13437793D02*
X1873753Y-13390174D01*
X1873753Y-13390174D02*
X1883277Y-13352079D01*
X1883277Y-13352079D02*
X1892801Y-13333031D01*
X1892801Y-13333031D02*
X1902324Y-13323508D01*
X1902324Y-13323508D02*
X1921372Y-13313984D01*
X2073753Y-13494936D02*
X2083277Y-13504460D01*
X2083277Y-13504460D02*
X2073753Y-13513984D01*
X2073753Y-13513984D02*
X2064229Y-13504460D01*
X2064229Y-13504460D02*
X2073753Y-13494936D01*
X2073753Y-13494936D02*
X2073753Y-13513984D01*
X2178515Y-13513984D02*
X2216610Y-13513984D01*
X2216610Y-13513984D02*
X2235658Y-13504460D01*
X2235658Y-13504460D02*
X2245182Y-13494936D01*
X2245182Y-13494936D02*
X2264229Y-13466365D01*
X2264229Y-13466365D02*
X2273753Y-13428269D01*
X2273753Y-13428269D02*
X2273753Y-13352079D01*
X2273753Y-13352079D02*
X2264229Y-13333031D01*
X2264229Y-13333031D02*
X2254705Y-13323508D01*
X2254705Y-13323508D02*
X2235658Y-13313984D01*
X2235658Y-13313984D02*
X2197563Y-13313984D01*
X2197563Y-13313984D02*
X2178515Y-13323508D01*
X2178515Y-13323508D02*
X2168991Y-13333031D01*
X2168991Y-13333031D02*
X2159467Y-13352079D01*
X2159467Y-13352079D02*
X2159467Y-13399698D01*
X2159467Y-13399698D02*
X2168991Y-13418746D01*
X2168991Y-13418746D02*
X2178515Y-13428269D01*
X2178515Y-13428269D02*
X2197563Y-13437793D01*
X2197563Y-13437793D02*
X2235658Y-13437793D01*
X2235658Y-13437793D02*
X2254705Y-13428269D01*
X2254705Y-13428269D02*
X2264229Y-13418746D01*
X2264229Y-13418746D02*
X2273753Y-13399698D01*
X2397563Y-13313984D02*
X2416610Y-13313984D01*
X2416610Y-13313984D02*
X2435658Y-13323508D01*
X2435658Y-13323508D02*
X2445182Y-13333031D01*
X2445182Y-13333031D02*
X2454705Y-13352079D01*
X2454705Y-13352079D02*
X2464229Y-13390174D01*
X2464229Y-13390174D02*
X2464229Y-13437793D01*
X2464229Y-13437793D02*
X2454705Y-13475888D01*
X2454705Y-13475888D02*
X2445182Y-13494936D01*
X2445182Y-13494936D02*
X2435658Y-13504460D01*
X2435658Y-13504460D02*
X2416610Y-13513984D01*
X2416610Y-13513984D02*
X2397563Y-13513984D01*
X2397563Y-13513984D02*
X2378515Y-13504460D01*
X2378515Y-13504460D02*
X2368991Y-13494936D01*
X2368991Y-13494936D02*
X2359467Y-13475888D01*
X2359467Y-13475888D02*
X2349944Y-13437793D01*
X2349944Y-13437793D02*
X2349944Y-13390174D01*
X2349944Y-13390174D02*
X2359467Y-13352079D01*
X2359467Y-13352079D02*
X2368991Y-13333031D01*
X2368991Y-13333031D02*
X2378515Y-13323508D01*
X2378515Y-13323508D02*
X2397563Y-13313984D01*
X2588039Y-13313984D02*
X2607086Y-13313984D01*
X2607086Y-13313984D02*
X2626134Y-13323508D01*
X2626134Y-13323508D02*
X2635658Y-13333031D01*
X2635658Y-13333031D02*
X2645182Y-13352079D01*
X2645182Y-13352079D02*
X2654705Y-13390174D01*
X2654705Y-13390174D02*
X2654705Y-13437793D01*
X2654705Y-13437793D02*
X2645182Y-13475888D01*
X2645182Y-13475888D02*
X2635658Y-13494936D01*
X2635658Y-13494936D02*
X2626134Y-13504460D01*
X2626134Y-13504460D02*
X2607086Y-13513984D01*
X2607086Y-13513984D02*
X2588039Y-13513984D01*
X2588039Y-13513984D02*
X2568991Y-13504460D01*
X2568991Y-13504460D02*
X2559467Y-13494936D01*
X2559467Y-13494936D02*
X2549944Y-13475888D01*
X2549944Y-13475888D02*
X2540420Y-13437793D01*
X2540420Y-13437793D02*
X2540420Y-13390174D01*
X2540420Y-13390174D02*
X2549944Y-13352079D01*
X2549944Y-13352079D02*
X2559467Y-13333031D01*
X2559467Y-13333031D02*
X2568991Y-13323508D01*
X2568991Y-13323508D02*
X2588039Y-13313984D01*
X2740420Y-13513984D02*
X2740420Y-13380650D01*
X2740420Y-13399698D02*
X2749944Y-13390174D01*
X2749944Y-13390174D02*
X2768991Y-13380650D01*
X2768991Y-13380650D02*
X2797563Y-13380650D01*
X2797563Y-13380650D02*
X2816610Y-13390174D01*
X2816610Y-13390174D02*
X2826134Y-13409222D01*
X2826134Y-13409222D02*
X2826134Y-13513984D01*
X2826134Y-13409222D02*
X2835658Y-13390174D01*
X2835658Y-13390174D02*
X2854705Y-13380650D01*
X2854705Y-13380650D02*
X2883277Y-13380650D01*
X2883277Y-13380650D02*
X2902324Y-13390174D01*
X2902324Y-13390174D02*
X2911848Y-13409222D01*
X2911848Y-13409222D02*
X2911848Y-13513984D01*
X3007086Y-13513984D02*
X3007086Y-13380650D01*
X3007086Y-13399698D02*
X3016610Y-13390174D01*
X3016610Y-13390174D02*
X3035658Y-13380650D01*
X3035658Y-13380650D02*
X3064229Y-13380650D01*
X3064229Y-13380650D02*
X3083277Y-13390174D01*
X3083277Y-13390174D02*
X3092801Y-13409222D01*
X3092801Y-13409222D02*
X3092801Y-13513984D01*
X3092801Y-13409222D02*
X3102324Y-13390174D01*
X3102324Y-13390174D02*
X3121372Y-13380650D01*
X3121372Y-13380650D02*
X3149943Y-13380650D01*
X3149943Y-13380650D02*
X3168991Y-13390174D01*
X3168991Y-13390174D02*
X3178515Y-13409222D01*
X3178515Y-13409222D02*
X3178515Y-13513984D01*
X3568991Y-13304460D02*
X3397563Y-13561603D01*
X3826134Y-13313984D02*
X3845182Y-13313984D01*
X3845182Y-13313984D02*
X3864229Y-13323508D01*
X3864229Y-13323508D02*
X3873753Y-13333031D01*
X3873753Y-13333031D02*
X3883277Y-13352079D01*
X3883277Y-13352079D02*
X3892801Y-13390174D01*
X3892801Y-13390174D02*
X3892801Y-13437793D01*
X3892801Y-13437793D02*
X3883277Y-13475888D01*
X3883277Y-13475888D02*
X3873753Y-13494936D01*
X3873753Y-13494936D02*
X3864229Y-13504460D01*
X3864229Y-13504460D02*
X3845182Y-13513984D01*
X3845182Y-13513984D02*
X3826134Y-13513984D01*
X3826134Y-13513984D02*
X3807086Y-13504460D01*
X3807086Y-13504460D02*
X3797563Y-13494936D01*
X3797563Y-13494936D02*
X3788039Y-13475888D01*
X3788039Y-13475888D02*
X3778515Y-13437793D01*
X3778515Y-13437793D02*
X3778515Y-13390174D01*
X3778515Y-13390174D02*
X3788039Y-13352079D01*
X3788039Y-13352079D02*
X3797563Y-13333031D01*
X3797563Y-13333031D02*
X3807086Y-13323508D01*
X3807086Y-13323508D02*
X3826134Y-13313984D01*
X3978515Y-13494936D02*
X3988039Y-13504460D01*
X3988039Y-13504460D02*
X3978515Y-13513984D01*
X3978515Y-13513984D02*
X3968991Y-13504460D01*
X3968991Y-13504460D02*
X3978515Y-13494936D01*
X3978515Y-13494936D02*
X3978515Y-13513984D01*
X4111848Y-13313984D02*
X4130896Y-13313984D01*
X4130896Y-13313984D02*
X4149944Y-13323508D01*
X4149944Y-13323508D02*
X4159467Y-13333031D01*
X4159467Y-13333031D02*
X4168991Y-13352079D01*
X4168991Y-13352079D02*
X4178515Y-13390174D01*
X4178515Y-13390174D02*
X4178515Y-13437793D01*
X4178515Y-13437793D02*
X4168991Y-13475888D01*
X4168991Y-13475888D02*
X4159467Y-13494936D01*
X4159467Y-13494936D02*
X4149944Y-13504460D01*
X4149944Y-13504460D02*
X4130896Y-13513984D01*
X4130896Y-13513984D02*
X4111848Y-13513984D01*
X4111848Y-13513984D02*
X4092801Y-13504460D01*
X4092801Y-13504460D02*
X4083277Y-13494936D01*
X4083277Y-13494936D02*
X4073753Y-13475888D01*
X4073753Y-13475888D02*
X4064229Y-13437793D01*
X4064229Y-13437793D02*
X4064229Y-13390174D01*
X4064229Y-13390174D02*
X4073753Y-13352079D01*
X4073753Y-13352079D02*
X4083277Y-13333031D01*
X4083277Y-13333031D02*
X4092801Y-13323508D01*
X4092801Y-13323508D02*
X4111848Y-13313984D01*
X4245182Y-13313984D02*
X4368991Y-13313984D01*
X4368991Y-13313984D02*
X4302325Y-13390174D01*
X4302325Y-13390174D02*
X4330896Y-13390174D01*
X4330896Y-13390174D02*
X4349944Y-13399698D01*
X4349944Y-13399698D02*
X4359468Y-13409222D01*
X4359468Y-13409222D02*
X4368991Y-13428269D01*
X4368991Y-13428269D02*
X4368991Y-13475888D01*
X4368991Y-13475888D02*
X4359468Y-13494936D01*
X4359468Y-13494936D02*
X4349944Y-13504460D01*
X4349944Y-13504460D02*
X4330896Y-13513984D01*
X4330896Y-13513984D02*
X4273753Y-13513984D01*
X4273753Y-13513984D02*
X4254706Y-13504460D01*
X4254706Y-13504460D02*
X4245182Y-13494936D01*
X4549944Y-13313984D02*
X4454706Y-13313984D01*
X4454706Y-13313984D02*
X4445182Y-13409222D01*
X4445182Y-13409222D02*
X4454706Y-13399698D01*
X4454706Y-13399698D02*
X4473753Y-13390174D01*
X4473753Y-13390174D02*
X4521372Y-13390174D01*
X4521372Y-13390174D02*
X4540420Y-13399698D01*
X4540420Y-13399698D02*
X4549944Y-13409222D01*
X4549944Y-13409222D02*
X4559468Y-13428269D01*
X4559468Y-13428269D02*
X4559468Y-13475888D01*
X4559468Y-13475888D02*
X4549944Y-13494936D01*
X4549944Y-13494936D02*
X4540420Y-13504460D01*
X4540420Y-13504460D02*
X4521372Y-13513984D01*
X4521372Y-13513984D02*
X4473753Y-13513984D01*
X4473753Y-13513984D02*
X4454706Y-13504460D01*
X4454706Y-13504460D02*
X4445182Y-13494936D01*
X4730896Y-13380650D02*
X4730896Y-13513984D01*
X4683277Y-13304460D02*
X4635658Y-13447317D01*
X4635658Y-13447317D02*
X4759468Y-13447317D01*
X4826134Y-13313984D02*
X4826134Y-13352079D01*
X4902325Y-13313984D02*
X4902325Y-13352079D01*
X5197563Y-13590174D02*
X5188039Y-13580650D01*
X5188039Y-13580650D02*
X5168991Y-13552079D01*
X5168991Y-13552079D02*
X5159468Y-13533031D01*
X5159468Y-13533031D02*
X5149944Y-13504460D01*
X5149944Y-13504460D02*
X5140420Y-13456841D01*
X5140420Y-13456841D02*
X5140420Y-13418746D01*
X5140420Y-13418746D02*
X5149944Y-13371127D01*
X5149944Y-13371127D02*
X5159468Y-13342555D01*
X5159468Y-13342555D02*
X5168991Y-13323508D01*
X5168991Y-13323508D02*
X5188039Y-13294936D01*
X5188039Y-13294936D02*
X5197563Y-13285412D01*
X5283277Y-13513984D02*
X5321372Y-13513984D01*
X5321372Y-13513984D02*
X5340420Y-13504460D01*
X5340420Y-13504460D02*
X5349944Y-13494936D01*
X5349944Y-13494936D02*
X5368991Y-13466365D01*
X5368991Y-13466365D02*
X5378515Y-13428269D01*
X5378515Y-13428269D02*
X5378515Y-13352079D01*
X5378515Y-13352079D02*
X5368991Y-13333031D01*
X5368991Y-13333031D02*
X5359468Y-13323508D01*
X5359468Y-13323508D02*
X5340420Y-13313984D01*
X5340420Y-13313984D02*
X5302325Y-13313984D01*
X5302325Y-13313984D02*
X5283277Y-13323508D01*
X5283277Y-13323508D02*
X5273753Y-13333031D01*
X5273753Y-13333031D02*
X5264230Y-13352079D01*
X5264230Y-13352079D02*
X5264230Y-13399698D01*
X5264230Y-13399698D02*
X5273753Y-13418746D01*
X5273753Y-13418746D02*
X5283277Y-13428269D01*
X5283277Y-13428269D02*
X5302325Y-13437793D01*
X5302325Y-13437793D02*
X5340420Y-13437793D01*
X5340420Y-13437793D02*
X5359468Y-13428269D01*
X5359468Y-13428269D02*
X5368991Y-13418746D01*
X5368991Y-13418746D02*
X5378515Y-13399698D01*
X5549944Y-13313984D02*
X5511849Y-13313984D01*
X5511849Y-13313984D02*
X5492801Y-13323508D01*
X5492801Y-13323508D02*
X5483277Y-13333031D01*
X5483277Y-13333031D02*
X5464230Y-13361603D01*
X5464230Y-13361603D02*
X5454706Y-13399698D01*
X5454706Y-13399698D02*
X5454706Y-13475888D01*
X5454706Y-13475888D02*
X5464230Y-13494936D01*
X5464230Y-13494936D02*
X5473753Y-13504460D01*
X5473753Y-13504460D02*
X5492801Y-13513984D01*
X5492801Y-13513984D02*
X5530896Y-13513984D01*
X5530896Y-13513984D02*
X5549944Y-13504460D01*
X5549944Y-13504460D02*
X5559468Y-13494936D01*
X5559468Y-13494936D02*
X5568991Y-13475888D01*
X5568991Y-13475888D02*
X5568991Y-13428269D01*
X5568991Y-13428269D02*
X5559468Y-13409222D01*
X5559468Y-13409222D02*
X5549944Y-13399698D01*
X5549944Y-13399698D02*
X5530896Y-13390174D01*
X5530896Y-13390174D02*
X5492801Y-13390174D01*
X5492801Y-13390174D02*
X5473753Y-13399698D01*
X5473753Y-13399698D02*
X5464230Y-13409222D01*
X5464230Y-13409222D02*
X5454706Y-13428269D01*
X5807087Y-13513984D02*
X5807087Y-13313984D01*
X5892801Y-13513984D02*
X5892801Y-13409222D01*
X5892801Y-13409222D02*
X5883277Y-13390174D01*
X5883277Y-13390174D02*
X5864230Y-13380650D01*
X5864230Y-13380650D02*
X5835658Y-13380650D01*
X5835658Y-13380650D02*
X5816610Y-13390174D01*
X5816610Y-13390174D02*
X5807087Y-13399698D01*
X6016610Y-13513984D02*
X5997563Y-13504460D01*
X5997563Y-13504460D02*
X5988039Y-13494936D01*
X5988039Y-13494936D02*
X5978515Y-13475888D01*
X5978515Y-13475888D02*
X5978515Y-13418746D01*
X5978515Y-13418746D02*
X5988039Y-13399698D01*
X5988039Y-13399698D02*
X5997563Y-13390174D01*
X5997563Y-13390174D02*
X6016610Y-13380650D01*
X6016610Y-13380650D02*
X6045182Y-13380650D01*
X6045182Y-13380650D02*
X6064230Y-13390174D01*
X6064230Y-13390174D02*
X6073753Y-13399698D01*
X6073753Y-13399698D02*
X6083277Y-13418746D01*
X6083277Y-13418746D02*
X6083277Y-13475888D01*
X6083277Y-13475888D02*
X6073753Y-13494936D01*
X6073753Y-13494936D02*
X6064230Y-13504460D01*
X6064230Y-13504460D02*
X6045182Y-13513984D01*
X6045182Y-13513984D02*
X6016610Y-13513984D01*
X6197563Y-13513984D02*
X6178515Y-13504460D01*
X6178515Y-13504460D02*
X6168991Y-13485412D01*
X6168991Y-13485412D02*
X6168991Y-13313984D01*
X6349944Y-13504460D02*
X6330896Y-13513984D01*
X6330896Y-13513984D02*
X6292801Y-13513984D01*
X6292801Y-13513984D02*
X6273753Y-13504460D01*
X6273753Y-13504460D02*
X6264230Y-13485412D01*
X6264230Y-13485412D02*
X6264230Y-13409222D01*
X6264230Y-13409222D02*
X6273753Y-13390174D01*
X6273753Y-13390174D02*
X6292801Y-13380650D01*
X6292801Y-13380650D02*
X6330896Y-13380650D01*
X6330896Y-13380650D02*
X6349944Y-13390174D01*
X6349944Y-13390174D02*
X6359468Y-13409222D01*
X6359468Y-13409222D02*
X6359468Y-13428269D01*
X6359468Y-13428269D02*
X6264230Y-13447317D01*
X6435658Y-13504460D02*
X6454706Y-13513984D01*
X6454706Y-13513984D02*
X6492801Y-13513984D01*
X6492801Y-13513984D02*
X6511849Y-13504460D01*
X6511849Y-13504460D02*
X6521372Y-13485412D01*
X6521372Y-13485412D02*
X6521372Y-13475888D01*
X6521372Y-13475888D02*
X6511849Y-13456841D01*
X6511849Y-13456841D02*
X6492801Y-13447317D01*
X6492801Y-13447317D02*
X6464230Y-13447317D01*
X6464230Y-13447317D02*
X6445182Y-13437793D01*
X6445182Y-13437793D02*
X6435658Y-13418746D01*
X6435658Y-13418746D02*
X6435658Y-13409222D01*
X6435658Y-13409222D02*
X6445182Y-13390174D01*
X6445182Y-13390174D02*
X6464230Y-13380650D01*
X6464230Y-13380650D02*
X6492801Y-13380650D01*
X6492801Y-13380650D02*
X6511849Y-13390174D01*
X6588039Y-13590174D02*
X6597563Y-13580650D01*
X6597563Y-13580650D02*
X6616611Y-13552079D01*
X6616611Y-13552079D02*
X6626134Y-13533031D01*
X6626134Y-13533031D02*
X6635658Y-13504460D01*
X6635658Y-13504460D02*
X6645182Y-13456841D01*
X6645182Y-13456841D02*
X6645182Y-13418746D01*
X6645182Y-13418746D02*
X6635658Y-13371127D01*
X6635658Y-13371127D02*
X6626134Y-13342555D01*
X6626134Y-13342555D02*
X6616611Y-13323508D01*
X6616611Y-13323508D02*
X6597563Y-13294936D01*
X6597563Y-13294936D02*
X6588039Y-13285412D01*
D12*
X1572500Y-13636500D02*
X1572500Y-13736500D01*
X1522500Y-13686500D02*
X1622500Y-13686500D01*
D11*
X1988039Y-13777984D02*
X1873753Y-13777984D01*
X1930896Y-13777984D02*
X1930896Y-13577984D01*
X1930896Y-13577984D02*
X1911848Y-13606555D01*
X1911848Y-13606555D02*
X1892801Y-13625603D01*
X1892801Y-13625603D02*
X1873753Y-13635127D01*
X2073753Y-13758936D02*
X2083277Y-13768460D01*
X2083277Y-13768460D02*
X2073753Y-13777984D01*
X2073753Y-13777984D02*
X2064229Y-13768460D01*
X2064229Y-13768460D02*
X2073753Y-13758936D01*
X2073753Y-13758936D02*
X2073753Y-13777984D01*
X2207086Y-13577984D02*
X2226134Y-13577984D01*
X2226134Y-13577984D02*
X2245182Y-13587508D01*
X2245182Y-13587508D02*
X2254705Y-13597031D01*
X2254705Y-13597031D02*
X2264229Y-13616079D01*
X2264229Y-13616079D02*
X2273753Y-13654174D01*
X2273753Y-13654174D02*
X2273753Y-13701793D01*
X2273753Y-13701793D02*
X2264229Y-13739888D01*
X2264229Y-13739888D02*
X2254705Y-13758936D01*
X2254705Y-13758936D02*
X2245182Y-13768460D01*
X2245182Y-13768460D02*
X2226134Y-13777984D01*
X2226134Y-13777984D02*
X2207086Y-13777984D01*
X2207086Y-13777984D02*
X2188039Y-13768460D01*
X2188039Y-13768460D02*
X2178515Y-13758936D01*
X2178515Y-13758936D02*
X2168991Y-13739888D01*
X2168991Y-13739888D02*
X2159467Y-13701793D01*
X2159467Y-13701793D02*
X2159467Y-13654174D01*
X2159467Y-13654174D02*
X2168991Y-13616079D01*
X2168991Y-13616079D02*
X2178515Y-13597031D01*
X2178515Y-13597031D02*
X2188039Y-13587508D01*
X2188039Y-13587508D02*
X2207086Y-13577984D01*
X2397563Y-13577984D02*
X2416610Y-13577984D01*
X2416610Y-13577984D02*
X2435658Y-13587508D01*
X2435658Y-13587508D02*
X2445182Y-13597031D01*
X2445182Y-13597031D02*
X2454705Y-13616079D01*
X2454705Y-13616079D02*
X2464229Y-13654174D01*
X2464229Y-13654174D02*
X2464229Y-13701793D01*
X2464229Y-13701793D02*
X2454705Y-13739888D01*
X2454705Y-13739888D02*
X2445182Y-13758936D01*
X2445182Y-13758936D02*
X2435658Y-13768460D01*
X2435658Y-13768460D02*
X2416610Y-13777984D01*
X2416610Y-13777984D02*
X2397563Y-13777984D01*
X2397563Y-13777984D02*
X2378515Y-13768460D01*
X2378515Y-13768460D02*
X2368991Y-13758936D01*
X2368991Y-13758936D02*
X2359467Y-13739888D01*
X2359467Y-13739888D02*
X2349944Y-13701793D01*
X2349944Y-13701793D02*
X2349944Y-13654174D01*
X2349944Y-13654174D02*
X2359467Y-13616079D01*
X2359467Y-13616079D02*
X2368991Y-13597031D01*
X2368991Y-13597031D02*
X2378515Y-13587508D01*
X2378515Y-13587508D02*
X2397563Y-13577984D01*
X2588039Y-13577984D02*
X2607086Y-13577984D01*
X2607086Y-13577984D02*
X2626134Y-13587508D01*
X2626134Y-13587508D02*
X2635658Y-13597031D01*
X2635658Y-13597031D02*
X2645182Y-13616079D01*
X2645182Y-13616079D02*
X2654705Y-13654174D01*
X2654705Y-13654174D02*
X2654705Y-13701793D01*
X2654705Y-13701793D02*
X2645182Y-13739888D01*
X2645182Y-13739888D02*
X2635658Y-13758936D01*
X2635658Y-13758936D02*
X2626134Y-13768460D01*
X2626134Y-13768460D02*
X2607086Y-13777984D01*
X2607086Y-13777984D02*
X2588039Y-13777984D01*
X2588039Y-13777984D02*
X2568991Y-13768460D01*
X2568991Y-13768460D02*
X2559467Y-13758936D01*
X2559467Y-13758936D02*
X2549944Y-13739888D01*
X2549944Y-13739888D02*
X2540420Y-13701793D01*
X2540420Y-13701793D02*
X2540420Y-13654174D01*
X2540420Y-13654174D02*
X2549944Y-13616079D01*
X2549944Y-13616079D02*
X2559467Y-13597031D01*
X2559467Y-13597031D02*
X2568991Y-13587508D01*
X2568991Y-13587508D02*
X2588039Y-13577984D01*
X2740420Y-13777984D02*
X2740420Y-13644650D01*
X2740420Y-13663698D02*
X2749944Y-13654174D01*
X2749944Y-13654174D02*
X2768991Y-13644650D01*
X2768991Y-13644650D02*
X2797563Y-13644650D01*
X2797563Y-13644650D02*
X2816610Y-13654174D01*
X2816610Y-13654174D02*
X2826134Y-13673222D01*
X2826134Y-13673222D02*
X2826134Y-13777984D01*
X2826134Y-13673222D02*
X2835658Y-13654174D01*
X2835658Y-13654174D02*
X2854705Y-13644650D01*
X2854705Y-13644650D02*
X2883277Y-13644650D01*
X2883277Y-13644650D02*
X2902324Y-13654174D01*
X2902324Y-13654174D02*
X2911848Y-13673222D01*
X2911848Y-13673222D02*
X2911848Y-13777984D01*
X3007086Y-13777984D02*
X3007086Y-13644650D01*
X3007086Y-13663698D02*
X3016610Y-13654174D01*
X3016610Y-13654174D02*
X3035658Y-13644650D01*
X3035658Y-13644650D02*
X3064229Y-13644650D01*
X3064229Y-13644650D02*
X3083277Y-13654174D01*
X3083277Y-13654174D02*
X3092801Y-13673222D01*
X3092801Y-13673222D02*
X3092801Y-13777984D01*
X3092801Y-13673222D02*
X3102324Y-13654174D01*
X3102324Y-13654174D02*
X3121372Y-13644650D01*
X3121372Y-13644650D02*
X3149943Y-13644650D01*
X3149943Y-13644650D02*
X3168991Y-13654174D01*
X3168991Y-13654174D02*
X3178515Y-13673222D01*
X3178515Y-13673222D02*
X3178515Y-13777984D01*
X3568991Y-13568460D02*
X3397563Y-13825603D01*
X3826134Y-13577984D02*
X3845182Y-13577984D01*
X3845182Y-13577984D02*
X3864229Y-13587508D01*
X3864229Y-13587508D02*
X3873753Y-13597031D01*
X3873753Y-13597031D02*
X3883277Y-13616079D01*
X3883277Y-13616079D02*
X3892801Y-13654174D01*
X3892801Y-13654174D02*
X3892801Y-13701793D01*
X3892801Y-13701793D02*
X3883277Y-13739888D01*
X3883277Y-13739888D02*
X3873753Y-13758936D01*
X3873753Y-13758936D02*
X3864229Y-13768460D01*
X3864229Y-13768460D02*
X3845182Y-13777984D01*
X3845182Y-13777984D02*
X3826134Y-13777984D01*
X3826134Y-13777984D02*
X3807086Y-13768460D01*
X3807086Y-13768460D02*
X3797563Y-13758936D01*
X3797563Y-13758936D02*
X3788039Y-13739888D01*
X3788039Y-13739888D02*
X3778515Y-13701793D01*
X3778515Y-13701793D02*
X3778515Y-13654174D01*
X3778515Y-13654174D02*
X3788039Y-13616079D01*
X3788039Y-13616079D02*
X3797563Y-13597031D01*
X3797563Y-13597031D02*
X3807086Y-13587508D01*
X3807086Y-13587508D02*
X3826134Y-13577984D01*
X3978515Y-13758936D02*
X3988039Y-13768460D01*
X3988039Y-13768460D02*
X3978515Y-13777984D01*
X3978515Y-13777984D02*
X3968991Y-13768460D01*
X3968991Y-13768460D02*
X3978515Y-13758936D01*
X3978515Y-13758936D02*
X3978515Y-13777984D01*
X4111848Y-13577984D02*
X4130896Y-13577984D01*
X4130896Y-13577984D02*
X4149944Y-13587508D01*
X4149944Y-13587508D02*
X4159467Y-13597031D01*
X4159467Y-13597031D02*
X4168991Y-13616079D01*
X4168991Y-13616079D02*
X4178515Y-13654174D01*
X4178515Y-13654174D02*
X4178515Y-13701793D01*
X4178515Y-13701793D02*
X4168991Y-13739888D01*
X4168991Y-13739888D02*
X4159467Y-13758936D01*
X4159467Y-13758936D02*
X4149944Y-13768460D01*
X4149944Y-13768460D02*
X4130896Y-13777984D01*
X4130896Y-13777984D02*
X4111848Y-13777984D01*
X4111848Y-13777984D02*
X4092801Y-13768460D01*
X4092801Y-13768460D02*
X4083277Y-13758936D01*
X4083277Y-13758936D02*
X4073753Y-13739888D01*
X4073753Y-13739888D02*
X4064229Y-13701793D01*
X4064229Y-13701793D02*
X4064229Y-13654174D01*
X4064229Y-13654174D02*
X4073753Y-13616079D01*
X4073753Y-13616079D02*
X4083277Y-13597031D01*
X4083277Y-13597031D02*
X4092801Y-13587508D01*
X4092801Y-13587508D02*
X4111848Y-13577984D01*
X4245182Y-13577984D02*
X4368991Y-13577984D01*
X4368991Y-13577984D02*
X4302325Y-13654174D01*
X4302325Y-13654174D02*
X4330896Y-13654174D01*
X4330896Y-13654174D02*
X4349944Y-13663698D01*
X4349944Y-13663698D02*
X4359468Y-13673222D01*
X4359468Y-13673222D02*
X4368991Y-13692269D01*
X4368991Y-13692269D02*
X4368991Y-13739888D01*
X4368991Y-13739888D02*
X4359468Y-13758936D01*
X4359468Y-13758936D02*
X4349944Y-13768460D01*
X4349944Y-13768460D02*
X4330896Y-13777984D01*
X4330896Y-13777984D02*
X4273753Y-13777984D01*
X4273753Y-13777984D02*
X4254706Y-13768460D01*
X4254706Y-13768460D02*
X4245182Y-13758936D01*
X4464229Y-13777984D02*
X4502325Y-13777984D01*
X4502325Y-13777984D02*
X4521372Y-13768460D01*
X4521372Y-13768460D02*
X4530896Y-13758936D01*
X4530896Y-13758936D02*
X4549944Y-13730365D01*
X4549944Y-13730365D02*
X4559468Y-13692269D01*
X4559468Y-13692269D02*
X4559468Y-13616079D01*
X4559468Y-13616079D02*
X4549944Y-13597031D01*
X4549944Y-13597031D02*
X4540420Y-13587508D01*
X4540420Y-13587508D02*
X4521372Y-13577984D01*
X4521372Y-13577984D02*
X4483277Y-13577984D01*
X4483277Y-13577984D02*
X4464229Y-13587508D01*
X4464229Y-13587508D02*
X4454706Y-13597031D01*
X4454706Y-13597031D02*
X4445182Y-13616079D01*
X4445182Y-13616079D02*
X4445182Y-13663698D01*
X4445182Y-13663698D02*
X4454706Y-13682746D01*
X4454706Y-13682746D02*
X4464229Y-13692269D01*
X4464229Y-13692269D02*
X4483277Y-13701793D01*
X4483277Y-13701793D02*
X4521372Y-13701793D01*
X4521372Y-13701793D02*
X4540420Y-13692269D01*
X4540420Y-13692269D02*
X4549944Y-13682746D01*
X4549944Y-13682746D02*
X4559468Y-13663698D01*
X4730896Y-13644650D02*
X4730896Y-13777984D01*
X4683277Y-13568460D02*
X4635658Y-13711317D01*
X4635658Y-13711317D02*
X4759468Y-13711317D01*
X4826134Y-13577984D02*
X4826134Y-13616079D01*
X4902325Y-13577984D02*
X4902325Y-13616079D01*
X5197563Y-13854174D02*
X5188039Y-13844650D01*
X5188039Y-13844650D02*
X5168991Y-13816079D01*
X5168991Y-13816079D02*
X5159468Y-13797031D01*
X5159468Y-13797031D02*
X5149944Y-13768460D01*
X5149944Y-13768460D02*
X5140420Y-13720841D01*
X5140420Y-13720841D02*
X5140420Y-13682746D01*
X5140420Y-13682746D02*
X5149944Y-13635127D01*
X5149944Y-13635127D02*
X5159468Y-13606555D01*
X5159468Y-13606555D02*
X5168991Y-13587508D01*
X5168991Y-13587508D02*
X5188039Y-13558936D01*
X5188039Y-13558936D02*
X5197563Y-13549412D01*
X5283277Y-13777984D02*
X5321372Y-13777984D01*
X5321372Y-13777984D02*
X5340420Y-13768460D01*
X5340420Y-13768460D02*
X5349944Y-13758936D01*
X5349944Y-13758936D02*
X5368991Y-13730365D01*
X5368991Y-13730365D02*
X5378515Y-13692269D01*
X5378515Y-13692269D02*
X5378515Y-13616079D01*
X5378515Y-13616079D02*
X5368991Y-13597031D01*
X5368991Y-13597031D02*
X5359468Y-13587508D01*
X5359468Y-13587508D02*
X5340420Y-13577984D01*
X5340420Y-13577984D02*
X5302325Y-13577984D01*
X5302325Y-13577984D02*
X5283277Y-13587508D01*
X5283277Y-13587508D02*
X5273753Y-13597031D01*
X5273753Y-13597031D02*
X5264230Y-13616079D01*
X5264230Y-13616079D02*
X5264230Y-13663698D01*
X5264230Y-13663698D02*
X5273753Y-13682746D01*
X5273753Y-13682746D02*
X5283277Y-13692269D01*
X5283277Y-13692269D02*
X5302325Y-13701793D01*
X5302325Y-13701793D02*
X5340420Y-13701793D01*
X5340420Y-13701793D02*
X5359468Y-13692269D01*
X5359468Y-13692269D02*
X5368991Y-13682746D01*
X5368991Y-13682746D02*
X5378515Y-13663698D01*
X5549944Y-13577984D02*
X5511849Y-13577984D01*
X5511849Y-13577984D02*
X5492801Y-13587508D01*
X5492801Y-13587508D02*
X5483277Y-13597031D01*
X5483277Y-13597031D02*
X5464230Y-13625603D01*
X5464230Y-13625603D02*
X5454706Y-13663698D01*
X5454706Y-13663698D02*
X5454706Y-13739888D01*
X5454706Y-13739888D02*
X5464230Y-13758936D01*
X5464230Y-13758936D02*
X5473753Y-13768460D01*
X5473753Y-13768460D02*
X5492801Y-13777984D01*
X5492801Y-13777984D02*
X5530896Y-13777984D01*
X5530896Y-13777984D02*
X5549944Y-13768460D01*
X5549944Y-13768460D02*
X5559468Y-13758936D01*
X5559468Y-13758936D02*
X5568991Y-13739888D01*
X5568991Y-13739888D02*
X5568991Y-13692269D01*
X5568991Y-13692269D02*
X5559468Y-13673222D01*
X5559468Y-13673222D02*
X5549944Y-13663698D01*
X5549944Y-13663698D02*
X5530896Y-13654174D01*
X5530896Y-13654174D02*
X5492801Y-13654174D01*
X5492801Y-13654174D02*
X5473753Y-13663698D01*
X5473753Y-13663698D02*
X5464230Y-13673222D01*
X5464230Y-13673222D02*
X5454706Y-13692269D01*
X5807087Y-13777984D02*
X5807087Y-13577984D01*
X5892801Y-13777984D02*
X5892801Y-13673222D01*
X5892801Y-13673222D02*
X5883277Y-13654174D01*
X5883277Y-13654174D02*
X5864230Y-13644650D01*
X5864230Y-13644650D02*
X5835658Y-13644650D01*
X5835658Y-13644650D02*
X5816610Y-13654174D01*
X5816610Y-13654174D02*
X5807087Y-13663698D01*
X6016610Y-13777984D02*
X5997563Y-13768460D01*
X5997563Y-13768460D02*
X5988039Y-13758936D01*
X5988039Y-13758936D02*
X5978515Y-13739888D01*
X5978515Y-13739888D02*
X5978515Y-13682746D01*
X5978515Y-13682746D02*
X5988039Y-13663698D01*
X5988039Y-13663698D02*
X5997563Y-13654174D01*
X5997563Y-13654174D02*
X6016610Y-13644650D01*
X6016610Y-13644650D02*
X6045182Y-13644650D01*
X6045182Y-13644650D02*
X6064230Y-13654174D01*
X6064230Y-13654174D02*
X6073753Y-13663698D01*
X6073753Y-13663698D02*
X6083277Y-13682746D01*
X6083277Y-13682746D02*
X6083277Y-13739888D01*
X6083277Y-13739888D02*
X6073753Y-13758936D01*
X6073753Y-13758936D02*
X6064230Y-13768460D01*
X6064230Y-13768460D02*
X6045182Y-13777984D01*
X6045182Y-13777984D02*
X6016610Y-13777984D01*
X6197563Y-13777984D02*
X6178515Y-13768460D01*
X6178515Y-13768460D02*
X6168991Y-13749412D01*
X6168991Y-13749412D02*
X6168991Y-13577984D01*
X6349944Y-13768460D02*
X6330896Y-13777984D01*
X6330896Y-13777984D02*
X6292801Y-13777984D01*
X6292801Y-13777984D02*
X6273753Y-13768460D01*
X6273753Y-13768460D02*
X6264230Y-13749412D01*
X6264230Y-13749412D02*
X6264230Y-13673222D01*
X6264230Y-13673222D02*
X6273753Y-13654174D01*
X6273753Y-13654174D02*
X6292801Y-13644650D01*
X6292801Y-13644650D02*
X6330896Y-13644650D01*
X6330896Y-13644650D02*
X6349944Y-13654174D01*
X6349944Y-13654174D02*
X6359468Y-13673222D01*
X6359468Y-13673222D02*
X6359468Y-13692269D01*
X6359468Y-13692269D02*
X6264230Y-13711317D01*
X6435658Y-13768460D02*
X6454706Y-13777984D01*
X6454706Y-13777984D02*
X6492801Y-13777984D01*
X6492801Y-13777984D02*
X6511849Y-13768460D01*
X6511849Y-13768460D02*
X6521372Y-13749412D01*
X6521372Y-13749412D02*
X6521372Y-13739888D01*
X6521372Y-13739888D02*
X6511849Y-13720841D01*
X6511849Y-13720841D02*
X6492801Y-13711317D01*
X6492801Y-13711317D02*
X6464230Y-13711317D01*
X6464230Y-13711317D02*
X6445182Y-13701793D01*
X6445182Y-13701793D02*
X6435658Y-13682746D01*
X6435658Y-13682746D02*
X6435658Y-13673222D01*
X6435658Y-13673222D02*
X6445182Y-13654174D01*
X6445182Y-13654174D02*
X6464230Y-13644650D01*
X6464230Y-13644650D02*
X6492801Y-13644650D01*
X6492801Y-13644650D02*
X6511849Y-13654174D01*
X6588039Y-13854174D02*
X6597563Y-13844650D01*
X6597563Y-13844650D02*
X6616611Y-13816079D01*
X6616611Y-13816079D02*
X6626134Y-13797031D01*
X6626134Y-13797031D02*
X6635658Y-13768460D01*
X6635658Y-13768460D02*
X6645182Y-13720841D01*
X6645182Y-13720841D02*
X6645182Y-13682746D01*
X6645182Y-13682746D02*
X6635658Y-13635127D01*
X6635658Y-13635127D02*
X6626134Y-13606555D01*
X6626134Y-13606555D02*
X6616611Y-13587508D01*
X6616611Y-13587508D02*
X6597563Y-13558936D01*
X6597563Y-13558936D02*
X6588039Y-13549412D01*
D13*
X1607563Y-13986563D02*
X1607563Y-13914437D01*
X1535437Y-13914437D01*
X1535437Y-13986563D01*
X1607563Y-13986563D01*
D11*
X1988039Y-14041984D02*
X1873753Y-14041984D01*
X1930896Y-14041984D02*
X1930896Y-13841984D01*
X1930896Y-13841984D02*
X1911848Y-13870555D01*
X1911848Y-13870555D02*
X1892801Y-13889603D01*
X1892801Y-13889603D02*
X1873753Y-13899127D01*
X2073753Y-14022936D02*
X2083277Y-14032460D01*
X2083277Y-14032460D02*
X2073753Y-14041984D01*
X2073753Y-14041984D02*
X2064229Y-14032460D01*
X2064229Y-14032460D02*
X2073753Y-14022936D01*
X2073753Y-14022936D02*
X2073753Y-14041984D01*
X2207086Y-13841984D02*
X2226134Y-13841984D01*
X2226134Y-13841984D02*
X2245182Y-13851508D01*
X2245182Y-13851508D02*
X2254705Y-13861031D01*
X2254705Y-13861031D02*
X2264229Y-13880079D01*
X2264229Y-13880079D02*
X2273753Y-13918174D01*
X2273753Y-13918174D02*
X2273753Y-13965793D01*
X2273753Y-13965793D02*
X2264229Y-14003888D01*
X2264229Y-14003888D02*
X2254705Y-14022936D01*
X2254705Y-14022936D02*
X2245182Y-14032460D01*
X2245182Y-14032460D02*
X2226134Y-14041984D01*
X2226134Y-14041984D02*
X2207086Y-14041984D01*
X2207086Y-14041984D02*
X2188039Y-14032460D01*
X2188039Y-14032460D02*
X2178515Y-14022936D01*
X2178515Y-14022936D02*
X2168991Y-14003888D01*
X2168991Y-14003888D02*
X2159467Y-13965793D01*
X2159467Y-13965793D02*
X2159467Y-13918174D01*
X2159467Y-13918174D02*
X2168991Y-13880079D01*
X2168991Y-13880079D02*
X2178515Y-13861031D01*
X2178515Y-13861031D02*
X2188039Y-13851508D01*
X2188039Y-13851508D02*
X2207086Y-13841984D01*
X2349944Y-13861031D02*
X2359467Y-13851508D01*
X2359467Y-13851508D02*
X2378515Y-13841984D01*
X2378515Y-13841984D02*
X2426134Y-13841984D01*
X2426134Y-13841984D02*
X2445182Y-13851508D01*
X2445182Y-13851508D02*
X2454705Y-13861031D01*
X2454705Y-13861031D02*
X2464229Y-13880079D01*
X2464229Y-13880079D02*
X2464229Y-13899127D01*
X2464229Y-13899127D02*
X2454705Y-13927698D01*
X2454705Y-13927698D02*
X2340420Y-14041984D01*
X2340420Y-14041984D02*
X2464229Y-14041984D01*
X2588039Y-13841984D02*
X2607086Y-13841984D01*
X2607086Y-13841984D02*
X2626134Y-13851508D01*
X2626134Y-13851508D02*
X2635658Y-13861031D01*
X2635658Y-13861031D02*
X2645182Y-13880079D01*
X2645182Y-13880079D02*
X2654705Y-13918174D01*
X2654705Y-13918174D02*
X2654705Y-13965793D01*
X2654705Y-13965793D02*
X2645182Y-14003888D01*
X2645182Y-14003888D02*
X2635658Y-14022936D01*
X2635658Y-14022936D02*
X2626134Y-14032460D01*
X2626134Y-14032460D02*
X2607086Y-14041984D01*
X2607086Y-14041984D02*
X2588039Y-14041984D01*
X2588039Y-14041984D02*
X2568991Y-14032460D01*
X2568991Y-14032460D02*
X2559467Y-14022936D01*
X2559467Y-14022936D02*
X2549944Y-14003888D01*
X2549944Y-14003888D02*
X2540420Y-13965793D01*
X2540420Y-13965793D02*
X2540420Y-13918174D01*
X2540420Y-13918174D02*
X2549944Y-13880079D01*
X2549944Y-13880079D02*
X2559467Y-13861031D01*
X2559467Y-13861031D02*
X2568991Y-13851508D01*
X2568991Y-13851508D02*
X2588039Y-13841984D01*
X2740420Y-14041984D02*
X2740420Y-13908650D01*
X2740420Y-13927698D02*
X2749944Y-13918174D01*
X2749944Y-13918174D02*
X2768991Y-13908650D01*
X2768991Y-13908650D02*
X2797563Y-13908650D01*
X2797563Y-13908650D02*
X2816610Y-13918174D01*
X2816610Y-13918174D02*
X2826134Y-13937222D01*
X2826134Y-13937222D02*
X2826134Y-14041984D01*
X2826134Y-13937222D02*
X2835658Y-13918174D01*
X2835658Y-13918174D02*
X2854705Y-13908650D01*
X2854705Y-13908650D02*
X2883277Y-13908650D01*
X2883277Y-13908650D02*
X2902324Y-13918174D01*
X2902324Y-13918174D02*
X2911848Y-13937222D01*
X2911848Y-13937222D02*
X2911848Y-14041984D01*
X3007086Y-14041984D02*
X3007086Y-13908650D01*
X3007086Y-13927698D02*
X3016610Y-13918174D01*
X3016610Y-13918174D02*
X3035658Y-13908650D01*
X3035658Y-13908650D02*
X3064229Y-13908650D01*
X3064229Y-13908650D02*
X3083277Y-13918174D01*
X3083277Y-13918174D02*
X3092801Y-13937222D01*
X3092801Y-13937222D02*
X3092801Y-14041984D01*
X3092801Y-13937222D02*
X3102324Y-13918174D01*
X3102324Y-13918174D02*
X3121372Y-13908650D01*
X3121372Y-13908650D02*
X3149943Y-13908650D01*
X3149943Y-13908650D02*
X3168991Y-13918174D01*
X3168991Y-13918174D02*
X3178515Y-13937222D01*
X3178515Y-13937222D02*
X3178515Y-14041984D01*
X3568991Y-13832460D02*
X3397563Y-14089603D01*
X3826134Y-13841984D02*
X3845182Y-13841984D01*
X3845182Y-13841984D02*
X3864229Y-13851508D01*
X3864229Y-13851508D02*
X3873753Y-13861031D01*
X3873753Y-13861031D02*
X3883277Y-13880079D01*
X3883277Y-13880079D02*
X3892801Y-13918174D01*
X3892801Y-13918174D02*
X3892801Y-13965793D01*
X3892801Y-13965793D02*
X3883277Y-14003888D01*
X3883277Y-14003888D02*
X3873753Y-14022936D01*
X3873753Y-14022936D02*
X3864229Y-14032460D01*
X3864229Y-14032460D02*
X3845182Y-14041984D01*
X3845182Y-14041984D02*
X3826134Y-14041984D01*
X3826134Y-14041984D02*
X3807086Y-14032460D01*
X3807086Y-14032460D02*
X3797563Y-14022936D01*
X3797563Y-14022936D02*
X3788039Y-14003888D01*
X3788039Y-14003888D02*
X3778515Y-13965793D01*
X3778515Y-13965793D02*
X3778515Y-13918174D01*
X3778515Y-13918174D02*
X3788039Y-13880079D01*
X3788039Y-13880079D02*
X3797563Y-13861031D01*
X3797563Y-13861031D02*
X3807086Y-13851508D01*
X3807086Y-13851508D02*
X3826134Y-13841984D01*
X3978515Y-14022936D02*
X3988039Y-14032460D01*
X3988039Y-14032460D02*
X3978515Y-14041984D01*
X3978515Y-14041984D02*
X3968991Y-14032460D01*
X3968991Y-14032460D02*
X3978515Y-14022936D01*
X3978515Y-14022936D02*
X3978515Y-14041984D01*
X4111848Y-13841984D02*
X4130896Y-13841984D01*
X4130896Y-13841984D02*
X4149944Y-13851508D01*
X4149944Y-13851508D02*
X4159467Y-13861031D01*
X4159467Y-13861031D02*
X4168991Y-13880079D01*
X4168991Y-13880079D02*
X4178515Y-13918174D01*
X4178515Y-13918174D02*
X4178515Y-13965793D01*
X4178515Y-13965793D02*
X4168991Y-14003888D01*
X4168991Y-14003888D02*
X4159467Y-14022936D01*
X4159467Y-14022936D02*
X4149944Y-14032460D01*
X4149944Y-14032460D02*
X4130896Y-14041984D01*
X4130896Y-14041984D02*
X4111848Y-14041984D01*
X4111848Y-14041984D02*
X4092801Y-14032460D01*
X4092801Y-14032460D02*
X4083277Y-14022936D01*
X4083277Y-14022936D02*
X4073753Y-14003888D01*
X4073753Y-14003888D02*
X4064229Y-13965793D01*
X4064229Y-13965793D02*
X4064229Y-13918174D01*
X4064229Y-13918174D02*
X4073753Y-13880079D01*
X4073753Y-13880079D02*
X4083277Y-13861031D01*
X4083277Y-13861031D02*
X4092801Y-13851508D01*
X4092801Y-13851508D02*
X4111848Y-13841984D01*
X4349944Y-13908650D02*
X4349944Y-14041984D01*
X4302325Y-13832460D02*
X4254706Y-13975317D01*
X4254706Y-13975317D02*
X4378515Y-13975317D01*
X4492801Y-13841984D02*
X4511849Y-13841984D01*
X4511849Y-13841984D02*
X4530896Y-13851508D01*
X4530896Y-13851508D02*
X4540420Y-13861031D01*
X4540420Y-13861031D02*
X4549944Y-13880079D01*
X4549944Y-13880079D02*
X4559468Y-13918174D01*
X4559468Y-13918174D02*
X4559468Y-13965793D01*
X4559468Y-13965793D02*
X4549944Y-14003888D01*
X4549944Y-14003888D02*
X4540420Y-14022936D01*
X4540420Y-14022936D02*
X4530896Y-14032460D01*
X4530896Y-14032460D02*
X4511849Y-14041984D01*
X4511849Y-14041984D02*
X4492801Y-14041984D01*
X4492801Y-14041984D02*
X4473753Y-14032460D01*
X4473753Y-14032460D02*
X4464229Y-14022936D01*
X4464229Y-14022936D02*
X4454706Y-14003888D01*
X4454706Y-14003888D02*
X4445182Y-13965793D01*
X4445182Y-13965793D02*
X4445182Y-13918174D01*
X4445182Y-13918174D02*
X4454706Y-13880079D01*
X4454706Y-13880079D02*
X4464229Y-13861031D01*
X4464229Y-13861031D02*
X4473753Y-13851508D01*
X4473753Y-13851508D02*
X4492801Y-13841984D01*
X4635658Y-13861031D02*
X4645182Y-13851508D01*
X4645182Y-13851508D02*
X4664229Y-13841984D01*
X4664229Y-13841984D02*
X4711849Y-13841984D01*
X4711849Y-13841984D02*
X4730896Y-13851508D01*
X4730896Y-13851508D02*
X4740420Y-13861031D01*
X4740420Y-13861031D02*
X4749944Y-13880079D01*
X4749944Y-13880079D02*
X4749944Y-13899127D01*
X4749944Y-13899127D02*
X4740420Y-13927698D01*
X4740420Y-13927698D02*
X4626134Y-14041984D01*
X4626134Y-14041984D02*
X4749944Y-14041984D01*
X4826134Y-13841984D02*
X4826134Y-13880079D01*
X4902325Y-13841984D02*
X4902325Y-13880079D01*
X5197563Y-14118174D02*
X5188039Y-14108650D01*
X5188039Y-14108650D02*
X5168991Y-14080079D01*
X5168991Y-14080079D02*
X5159468Y-14061031D01*
X5159468Y-14061031D02*
X5149944Y-14032460D01*
X5149944Y-14032460D02*
X5140420Y-13984841D01*
X5140420Y-13984841D02*
X5140420Y-13946746D01*
X5140420Y-13946746D02*
X5149944Y-13899127D01*
X5149944Y-13899127D02*
X5159468Y-13870555D01*
X5159468Y-13870555D02*
X5168991Y-13851508D01*
X5168991Y-13851508D02*
X5188039Y-13822936D01*
X5188039Y-13822936D02*
X5197563Y-13813412D01*
X5359468Y-13908650D02*
X5359468Y-14041984D01*
X5311849Y-13832460D02*
X5264230Y-13975317D01*
X5264230Y-13975317D02*
X5388039Y-13975317D01*
X5502325Y-13841984D02*
X5521372Y-13841984D01*
X5521372Y-13841984D02*
X5540420Y-13851508D01*
X5540420Y-13851508D02*
X5549944Y-13861031D01*
X5549944Y-13861031D02*
X5559468Y-13880079D01*
X5559468Y-13880079D02*
X5568991Y-13918174D01*
X5568991Y-13918174D02*
X5568991Y-13965793D01*
X5568991Y-13965793D02*
X5559468Y-14003888D01*
X5559468Y-14003888D02*
X5549944Y-14022936D01*
X5549944Y-14022936D02*
X5540420Y-14032460D01*
X5540420Y-14032460D02*
X5521372Y-14041984D01*
X5521372Y-14041984D02*
X5502325Y-14041984D01*
X5502325Y-14041984D02*
X5483277Y-14032460D01*
X5483277Y-14032460D02*
X5473753Y-14022936D01*
X5473753Y-14022936D02*
X5464230Y-14003888D01*
X5464230Y-14003888D02*
X5454706Y-13965793D01*
X5454706Y-13965793D02*
X5454706Y-13918174D01*
X5454706Y-13918174D02*
X5464230Y-13880079D01*
X5464230Y-13880079D02*
X5473753Y-13861031D01*
X5473753Y-13861031D02*
X5483277Y-13851508D01*
X5483277Y-13851508D02*
X5502325Y-13841984D01*
X5807087Y-14041984D02*
X5807087Y-13841984D01*
X5892801Y-14041984D02*
X5892801Y-13937222D01*
X5892801Y-13937222D02*
X5883277Y-13918174D01*
X5883277Y-13918174D02*
X5864230Y-13908650D01*
X5864230Y-13908650D02*
X5835658Y-13908650D01*
X5835658Y-13908650D02*
X5816610Y-13918174D01*
X5816610Y-13918174D02*
X5807087Y-13927698D01*
X6016610Y-14041984D02*
X5997563Y-14032460D01*
X5997563Y-14032460D02*
X5988039Y-14022936D01*
X5988039Y-14022936D02*
X5978515Y-14003888D01*
X5978515Y-14003888D02*
X5978515Y-13946746D01*
X5978515Y-13946746D02*
X5988039Y-13927698D01*
X5988039Y-13927698D02*
X5997563Y-13918174D01*
X5997563Y-13918174D02*
X6016610Y-13908650D01*
X6016610Y-13908650D02*
X6045182Y-13908650D01*
X6045182Y-13908650D02*
X6064230Y-13918174D01*
X6064230Y-13918174D02*
X6073753Y-13927698D01*
X6073753Y-13927698D02*
X6083277Y-13946746D01*
X6083277Y-13946746D02*
X6083277Y-14003888D01*
X6083277Y-14003888D02*
X6073753Y-14022936D01*
X6073753Y-14022936D02*
X6064230Y-14032460D01*
X6064230Y-14032460D02*
X6045182Y-14041984D01*
X6045182Y-14041984D02*
X6016610Y-14041984D01*
X6197563Y-14041984D02*
X6178515Y-14032460D01*
X6178515Y-14032460D02*
X6168991Y-14013412D01*
X6168991Y-14013412D02*
X6168991Y-13841984D01*
X6349944Y-14032460D02*
X6330896Y-14041984D01*
X6330896Y-14041984D02*
X6292801Y-14041984D01*
X6292801Y-14041984D02*
X6273753Y-14032460D01*
X6273753Y-14032460D02*
X6264230Y-14013412D01*
X6264230Y-14013412D02*
X6264230Y-13937222D01*
X6264230Y-13937222D02*
X6273753Y-13918174D01*
X6273753Y-13918174D02*
X6292801Y-13908650D01*
X6292801Y-13908650D02*
X6330896Y-13908650D01*
X6330896Y-13908650D02*
X6349944Y-13918174D01*
X6349944Y-13918174D02*
X6359468Y-13937222D01*
X6359468Y-13937222D02*
X6359468Y-13956269D01*
X6359468Y-13956269D02*
X6264230Y-13975317D01*
X6435658Y-14032460D02*
X6454706Y-14041984D01*
X6454706Y-14041984D02*
X6492801Y-14041984D01*
X6492801Y-14041984D02*
X6511849Y-14032460D01*
X6511849Y-14032460D02*
X6521372Y-14013412D01*
X6521372Y-14013412D02*
X6521372Y-14003888D01*
X6521372Y-14003888D02*
X6511849Y-13984841D01*
X6511849Y-13984841D02*
X6492801Y-13975317D01*
X6492801Y-13975317D02*
X6464230Y-13975317D01*
X6464230Y-13975317D02*
X6445182Y-13965793D01*
X6445182Y-13965793D02*
X6435658Y-13946746D01*
X6435658Y-13946746D02*
X6435658Y-13937222D01*
X6435658Y-13937222D02*
X6445182Y-13918174D01*
X6445182Y-13918174D02*
X6464230Y-13908650D01*
X6464230Y-13908650D02*
X6492801Y-13908650D01*
X6492801Y-13908650D02*
X6511849Y-13918174D01*
X6588039Y-14118174D02*
X6597563Y-14108650D01*
X6597563Y-14108650D02*
X6616611Y-14080079D01*
X6616611Y-14080079D02*
X6626134Y-14061031D01*
X6626134Y-14061031D02*
X6635658Y-14032460D01*
X6635658Y-14032460D02*
X6645182Y-13984841D01*
X6645182Y-13984841D02*
X6645182Y-13946746D01*
X6645182Y-13946746D02*
X6635658Y-13899127D01*
X6635658Y-13899127D02*
X6626134Y-13870555D01*
X6626134Y-13870555D02*
X6616611Y-13851508D01*
X6616611Y-13851508D02*
X6597563Y-13822936D01*
X6597563Y-13822936D02*
X6588039Y-13813412D01*
D14*
X1561500Y-14275500D02*
X1622500Y-14214500D01*
X1561500Y-14153500D01*
X1500500Y-14214500D01*
X1561500Y-14275500D01*
D11*
X1988039Y-14305984D02*
X1873753Y-14305984D01*
X1930896Y-14305984D02*
X1930896Y-14105984D01*
X1930896Y-14105984D02*
X1911848Y-14134555D01*
X1911848Y-14134555D02*
X1892801Y-14153603D01*
X1892801Y-14153603D02*
X1873753Y-14163127D01*
X2073753Y-14286936D02*
X2083277Y-14296460D01*
X2083277Y-14296460D02*
X2073753Y-14305984D01*
X2073753Y-14305984D02*
X2064229Y-14296460D01*
X2064229Y-14296460D02*
X2073753Y-14286936D01*
X2073753Y-14286936D02*
X2073753Y-14305984D01*
X2159467Y-14125031D02*
X2168991Y-14115508D01*
X2168991Y-14115508D02*
X2188039Y-14105984D01*
X2188039Y-14105984D02*
X2235658Y-14105984D01*
X2235658Y-14105984D02*
X2254705Y-14115508D01*
X2254705Y-14115508D02*
X2264229Y-14125031D01*
X2264229Y-14125031D02*
X2273753Y-14144079D01*
X2273753Y-14144079D02*
X2273753Y-14163127D01*
X2273753Y-14163127D02*
X2264229Y-14191698D01*
X2264229Y-14191698D02*
X2149944Y-14305984D01*
X2149944Y-14305984D02*
X2273753Y-14305984D01*
X2349944Y-14125031D02*
X2359467Y-14115508D01*
X2359467Y-14115508D02*
X2378515Y-14105984D01*
X2378515Y-14105984D02*
X2426134Y-14105984D01*
X2426134Y-14105984D02*
X2445182Y-14115508D01*
X2445182Y-14115508D02*
X2454705Y-14125031D01*
X2454705Y-14125031D02*
X2464229Y-14144079D01*
X2464229Y-14144079D02*
X2464229Y-14163127D01*
X2464229Y-14163127D02*
X2454705Y-14191698D01*
X2454705Y-14191698D02*
X2340420Y-14305984D01*
X2340420Y-14305984D02*
X2464229Y-14305984D01*
X2588039Y-14105984D02*
X2607086Y-14105984D01*
X2607086Y-14105984D02*
X2626134Y-14115508D01*
X2626134Y-14115508D02*
X2635658Y-14125031D01*
X2635658Y-14125031D02*
X2645182Y-14144079D01*
X2645182Y-14144079D02*
X2654705Y-14182174D01*
X2654705Y-14182174D02*
X2654705Y-14229793D01*
X2654705Y-14229793D02*
X2645182Y-14267888D01*
X2645182Y-14267888D02*
X2635658Y-14286936D01*
X2635658Y-14286936D02*
X2626134Y-14296460D01*
X2626134Y-14296460D02*
X2607086Y-14305984D01*
X2607086Y-14305984D02*
X2588039Y-14305984D01*
X2588039Y-14305984D02*
X2568991Y-14296460D01*
X2568991Y-14296460D02*
X2559467Y-14286936D01*
X2559467Y-14286936D02*
X2549944Y-14267888D01*
X2549944Y-14267888D02*
X2540420Y-14229793D01*
X2540420Y-14229793D02*
X2540420Y-14182174D01*
X2540420Y-14182174D02*
X2549944Y-14144079D01*
X2549944Y-14144079D02*
X2559467Y-14125031D01*
X2559467Y-14125031D02*
X2568991Y-14115508D01*
X2568991Y-14115508D02*
X2588039Y-14105984D01*
X2740420Y-14305984D02*
X2740420Y-14172650D01*
X2740420Y-14191698D02*
X2749944Y-14182174D01*
X2749944Y-14182174D02*
X2768991Y-14172650D01*
X2768991Y-14172650D02*
X2797563Y-14172650D01*
X2797563Y-14172650D02*
X2816610Y-14182174D01*
X2816610Y-14182174D02*
X2826134Y-14201222D01*
X2826134Y-14201222D02*
X2826134Y-14305984D01*
X2826134Y-14201222D02*
X2835658Y-14182174D01*
X2835658Y-14182174D02*
X2854705Y-14172650D01*
X2854705Y-14172650D02*
X2883277Y-14172650D01*
X2883277Y-14172650D02*
X2902324Y-14182174D01*
X2902324Y-14182174D02*
X2911848Y-14201222D01*
X2911848Y-14201222D02*
X2911848Y-14305984D01*
X3007086Y-14305984D02*
X3007086Y-14172650D01*
X3007086Y-14191698D02*
X3016610Y-14182174D01*
X3016610Y-14182174D02*
X3035658Y-14172650D01*
X3035658Y-14172650D02*
X3064229Y-14172650D01*
X3064229Y-14172650D02*
X3083277Y-14182174D01*
X3083277Y-14182174D02*
X3092801Y-14201222D01*
X3092801Y-14201222D02*
X3092801Y-14305984D01*
X3092801Y-14201222D02*
X3102324Y-14182174D01*
X3102324Y-14182174D02*
X3121372Y-14172650D01*
X3121372Y-14172650D02*
X3149943Y-14172650D01*
X3149943Y-14172650D02*
X3168991Y-14182174D01*
X3168991Y-14182174D02*
X3178515Y-14201222D01*
X3178515Y-14201222D02*
X3178515Y-14305984D01*
X3568991Y-14096460D02*
X3397563Y-14353603D01*
X3826134Y-14105984D02*
X3845182Y-14105984D01*
X3845182Y-14105984D02*
X3864229Y-14115508D01*
X3864229Y-14115508D02*
X3873753Y-14125031D01*
X3873753Y-14125031D02*
X3883277Y-14144079D01*
X3883277Y-14144079D02*
X3892801Y-14182174D01*
X3892801Y-14182174D02*
X3892801Y-14229793D01*
X3892801Y-14229793D02*
X3883277Y-14267888D01*
X3883277Y-14267888D02*
X3873753Y-14286936D01*
X3873753Y-14286936D02*
X3864229Y-14296460D01*
X3864229Y-14296460D02*
X3845182Y-14305984D01*
X3845182Y-14305984D02*
X3826134Y-14305984D01*
X3826134Y-14305984D02*
X3807086Y-14296460D01*
X3807086Y-14296460D02*
X3797563Y-14286936D01*
X3797563Y-14286936D02*
X3788039Y-14267888D01*
X3788039Y-14267888D02*
X3778515Y-14229793D01*
X3778515Y-14229793D02*
X3778515Y-14182174D01*
X3778515Y-14182174D02*
X3788039Y-14144079D01*
X3788039Y-14144079D02*
X3797563Y-14125031D01*
X3797563Y-14125031D02*
X3807086Y-14115508D01*
X3807086Y-14115508D02*
X3826134Y-14105984D01*
X3978515Y-14286936D02*
X3988039Y-14296460D01*
X3988039Y-14296460D02*
X3978515Y-14305984D01*
X3978515Y-14305984D02*
X3968991Y-14296460D01*
X3968991Y-14296460D02*
X3978515Y-14286936D01*
X3978515Y-14286936D02*
X3978515Y-14305984D01*
X4111848Y-14105984D02*
X4130896Y-14105984D01*
X4130896Y-14105984D02*
X4149944Y-14115508D01*
X4149944Y-14115508D02*
X4159467Y-14125031D01*
X4159467Y-14125031D02*
X4168991Y-14144079D01*
X4168991Y-14144079D02*
X4178515Y-14182174D01*
X4178515Y-14182174D02*
X4178515Y-14229793D01*
X4178515Y-14229793D02*
X4168991Y-14267888D01*
X4168991Y-14267888D02*
X4159467Y-14286936D01*
X4159467Y-14286936D02*
X4149944Y-14296460D01*
X4149944Y-14296460D02*
X4130896Y-14305984D01*
X4130896Y-14305984D02*
X4111848Y-14305984D01*
X4111848Y-14305984D02*
X4092801Y-14296460D01*
X4092801Y-14296460D02*
X4083277Y-14286936D01*
X4083277Y-14286936D02*
X4073753Y-14267888D01*
X4073753Y-14267888D02*
X4064229Y-14229793D01*
X4064229Y-14229793D02*
X4064229Y-14182174D01*
X4064229Y-14182174D02*
X4073753Y-14144079D01*
X4073753Y-14144079D02*
X4083277Y-14125031D01*
X4083277Y-14125031D02*
X4092801Y-14115508D01*
X4092801Y-14115508D02*
X4111848Y-14105984D01*
X4349944Y-14172650D02*
X4349944Y-14305984D01*
X4302325Y-14096460D02*
X4254706Y-14239317D01*
X4254706Y-14239317D02*
X4378515Y-14239317D01*
X4483277Y-14191698D02*
X4464229Y-14182174D01*
X4464229Y-14182174D02*
X4454706Y-14172650D01*
X4454706Y-14172650D02*
X4445182Y-14153603D01*
X4445182Y-14153603D02*
X4445182Y-14144079D01*
X4445182Y-14144079D02*
X4454706Y-14125031D01*
X4454706Y-14125031D02*
X4464229Y-14115508D01*
X4464229Y-14115508D02*
X4483277Y-14105984D01*
X4483277Y-14105984D02*
X4521372Y-14105984D01*
X4521372Y-14105984D02*
X4540420Y-14115508D01*
X4540420Y-14115508D02*
X4549944Y-14125031D01*
X4549944Y-14125031D02*
X4559468Y-14144079D01*
X4559468Y-14144079D02*
X4559468Y-14153603D01*
X4559468Y-14153603D02*
X4549944Y-14172650D01*
X4549944Y-14172650D02*
X4540420Y-14182174D01*
X4540420Y-14182174D02*
X4521372Y-14191698D01*
X4521372Y-14191698D02*
X4483277Y-14191698D01*
X4483277Y-14191698D02*
X4464229Y-14201222D01*
X4464229Y-14201222D02*
X4454706Y-14210746D01*
X4454706Y-14210746D02*
X4445182Y-14229793D01*
X4445182Y-14229793D02*
X4445182Y-14267888D01*
X4445182Y-14267888D02*
X4454706Y-14286936D01*
X4454706Y-14286936D02*
X4464229Y-14296460D01*
X4464229Y-14296460D02*
X4483277Y-14305984D01*
X4483277Y-14305984D02*
X4521372Y-14305984D01*
X4521372Y-14305984D02*
X4540420Y-14296460D01*
X4540420Y-14296460D02*
X4549944Y-14286936D01*
X4549944Y-14286936D02*
X4559468Y-14267888D01*
X4559468Y-14267888D02*
X4559468Y-14229793D01*
X4559468Y-14229793D02*
X4549944Y-14210746D01*
X4549944Y-14210746D02*
X4540420Y-14201222D01*
X4540420Y-14201222D02*
X4521372Y-14191698D01*
X4683277Y-14105984D02*
X4702325Y-14105984D01*
X4702325Y-14105984D02*
X4721372Y-14115508D01*
X4721372Y-14115508D02*
X4730896Y-14125031D01*
X4730896Y-14125031D02*
X4740420Y-14144079D01*
X4740420Y-14144079D02*
X4749944Y-14182174D01*
X4749944Y-14182174D02*
X4749944Y-14229793D01*
X4749944Y-14229793D02*
X4740420Y-14267888D01*
X4740420Y-14267888D02*
X4730896Y-14286936D01*
X4730896Y-14286936D02*
X4721372Y-14296460D01*
X4721372Y-14296460D02*
X4702325Y-14305984D01*
X4702325Y-14305984D02*
X4683277Y-14305984D01*
X4683277Y-14305984D02*
X4664229Y-14296460D01*
X4664229Y-14296460D02*
X4654706Y-14286936D01*
X4654706Y-14286936D02*
X4645182Y-14267888D01*
X4645182Y-14267888D02*
X4635658Y-14229793D01*
X4635658Y-14229793D02*
X4635658Y-14182174D01*
X4635658Y-14182174D02*
X4645182Y-14144079D01*
X4645182Y-14144079D02*
X4654706Y-14125031D01*
X4654706Y-14125031D02*
X4664229Y-14115508D01*
X4664229Y-14115508D02*
X4683277Y-14105984D01*
X4826134Y-14105984D02*
X4826134Y-14144079D01*
X4902325Y-14105984D02*
X4902325Y-14144079D01*
X5197563Y-14382174D02*
X5188039Y-14372650D01*
X5188039Y-14372650D02*
X5168991Y-14344079D01*
X5168991Y-14344079D02*
X5159468Y-14325031D01*
X5159468Y-14325031D02*
X5149944Y-14296460D01*
X5149944Y-14296460D02*
X5140420Y-14248841D01*
X5140420Y-14248841D02*
X5140420Y-14210746D01*
X5140420Y-14210746D02*
X5149944Y-14163127D01*
X5149944Y-14163127D02*
X5159468Y-14134555D01*
X5159468Y-14134555D02*
X5168991Y-14115508D01*
X5168991Y-14115508D02*
X5188039Y-14086936D01*
X5188039Y-14086936D02*
X5197563Y-14077412D01*
X5378515Y-14305984D02*
X5264230Y-14305984D01*
X5321372Y-14305984D02*
X5321372Y-14105984D01*
X5321372Y-14105984D02*
X5302325Y-14134555D01*
X5302325Y-14134555D02*
X5283277Y-14153603D01*
X5283277Y-14153603D02*
X5264230Y-14163127D01*
X5549944Y-14105984D02*
X5511849Y-14105984D01*
X5511849Y-14105984D02*
X5492801Y-14115508D01*
X5492801Y-14115508D02*
X5483277Y-14125031D01*
X5483277Y-14125031D02*
X5464230Y-14153603D01*
X5464230Y-14153603D02*
X5454706Y-14191698D01*
X5454706Y-14191698D02*
X5454706Y-14267888D01*
X5454706Y-14267888D02*
X5464230Y-14286936D01*
X5464230Y-14286936D02*
X5473753Y-14296460D01*
X5473753Y-14296460D02*
X5492801Y-14305984D01*
X5492801Y-14305984D02*
X5530896Y-14305984D01*
X5530896Y-14305984D02*
X5549944Y-14296460D01*
X5549944Y-14296460D02*
X5559468Y-14286936D01*
X5559468Y-14286936D02*
X5568991Y-14267888D01*
X5568991Y-14267888D02*
X5568991Y-14220269D01*
X5568991Y-14220269D02*
X5559468Y-14201222D01*
X5559468Y-14201222D02*
X5549944Y-14191698D01*
X5549944Y-14191698D02*
X5530896Y-14182174D01*
X5530896Y-14182174D02*
X5492801Y-14182174D01*
X5492801Y-14182174D02*
X5473753Y-14191698D01*
X5473753Y-14191698D02*
X5464230Y-14201222D01*
X5464230Y-14201222D02*
X5454706Y-14220269D01*
X5807087Y-14305984D02*
X5807087Y-14105984D01*
X5892801Y-14305984D02*
X5892801Y-14201222D01*
X5892801Y-14201222D02*
X5883277Y-14182174D01*
X5883277Y-14182174D02*
X5864230Y-14172650D01*
X5864230Y-14172650D02*
X5835658Y-14172650D01*
X5835658Y-14172650D02*
X5816610Y-14182174D01*
X5816610Y-14182174D02*
X5807087Y-14191698D01*
X6016610Y-14305984D02*
X5997563Y-14296460D01*
X5997563Y-14296460D02*
X5988039Y-14286936D01*
X5988039Y-14286936D02*
X5978515Y-14267888D01*
X5978515Y-14267888D02*
X5978515Y-14210746D01*
X5978515Y-14210746D02*
X5988039Y-14191698D01*
X5988039Y-14191698D02*
X5997563Y-14182174D01*
X5997563Y-14182174D02*
X6016610Y-14172650D01*
X6016610Y-14172650D02*
X6045182Y-14172650D01*
X6045182Y-14172650D02*
X6064230Y-14182174D01*
X6064230Y-14182174D02*
X6073753Y-14191698D01*
X6073753Y-14191698D02*
X6083277Y-14210746D01*
X6083277Y-14210746D02*
X6083277Y-14267888D01*
X6083277Y-14267888D02*
X6073753Y-14286936D01*
X6073753Y-14286936D02*
X6064230Y-14296460D01*
X6064230Y-14296460D02*
X6045182Y-14305984D01*
X6045182Y-14305984D02*
X6016610Y-14305984D01*
X6197563Y-14305984D02*
X6178515Y-14296460D01*
X6178515Y-14296460D02*
X6168991Y-14277412D01*
X6168991Y-14277412D02*
X6168991Y-14105984D01*
X6349944Y-14296460D02*
X6330896Y-14305984D01*
X6330896Y-14305984D02*
X6292801Y-14305984D01*
X6292801Y-14305984D02*
X6273753Y-14296460D01*
X6273753Y-14296460D02*
X6264230Y-14277412D01*
X6264230Y-14277412D02*
X6264230Y-14201222D01*
X6264230Y-14201222D02*
X6273753Y-14182174D01*
X6273753Y-14182174D02*
X6292801Y-14172650D01*
X6292801Y-14172650D02*
X6330896Y-14172650D01*
X6330896Y-14172650D02*
X6349944Y-14182174D01*
X6349944Y-14182174D02*
X6359468Y-14201222D01*
X6359468Y-14201222D02*
X6359468Y-14220269D01*
X6359468Y-14220269D02*
X6264230Y-14239317D01*
X6435658Y-14296460D02*
X6454706Y-14305984D01*
X6454706Y-14305984D02*
X6492801Y-14305984D01*
X6492801Y-14305984D02*
X6511849Y-14296460D01*
X6511849Y-14296460D02*
X6521372Y-14277412D01*
X6521372Y-14277412D02*
X6521372Y-14267888D01*
X6521372Y-14267888D02*
X6511849Y-14248841D01*
X6511849Y-14248841D02*
X6492801Y-14239317D01*
X6492801Y-14239317D02*
X6464230Y-14239317D01*
X6464230Y-14239317D02*
X6445182Y-14229793D01*
X6445182Y-14229793D02*
X6435658Y-14210746D01*
X6435658Y-14210746D02*
X6435658Y-14201222D01*
X6435658Y-14201222D02*
X6445182Y-14182174D01*
X6445182Y-14182174D02*
X6464230Y-14172650D01*
X6464230Y-14172650D02*
X6492801Y-14172650D01*
X6492801Y-14172650D02*
X6511849Y-14182174D01*
X6588039Y-14382174D02*
X6597563Y-14372650D01*
X6597563Y-14372650D02*
X6616611Y-14344079D01*
X6616611Y-14344079D02*
X6626134Y-14325031D01*
X6626134Y-14325031D02*
X6635658Y-14296460D01*
X6635658Y-14296460D02*
X6645182Y-14248841D01*
X6645182Y-14248841D02*
X6645182Y-14210746D01*
X6645182Y-14210746D02*
X6635658Y-14163127D01*
X6635658Y-14163127D02*
X6626134Y-14134555D01*
X6626134Y-14134555D02*
X6616611Y-14115508D01*
X6616611Y-14115508D02*
X6597563Y-14086936D01*
X6597563Y-14086936D02*
X6588039Y-14077412D01*
D15*
X1480500Y-14407500D02*
X1622500Y-14549500D01*
X1622500Y-14407500D02*
X1480500Y-14549500D01*
X1622500Y-14478500D02*
G75*
G02*
X1480500Y-14478500I-71000J0D01*
G01*
X1480500Y-14478500D02*
G75*
G02*
X1622500Y-14478500I71000J0D01*
G01*
D11*
X1988039Y-14569984D02*
X1873753Y-14569984D01*
X1930896Y-14569984D02*
X1930896Y-14369984D01*
X1930896Y-14369984D02*
X1911848Y-14398555D01*
X1911848Y-14398555D02*
X1892801Y-14417603D01*
X1892801Y-14417603D02*
X1873753Y-14427127D01*
X2073753Y-14550936D02*
X2083277Y-14560460D01*
X2083277Y-14560460D02*
X2073753Y-14569984D01*
X2073753Y-14569984D02*
X2064229Y-14560460D01*
X2064229Y-14560460D02*
X2073753Y-14550936D01*
X2073753Y-14550936D02*
X2073753Y-14569984D01*
X2254705Y-14436650D02*
X2254705Y-14569984D01*
X2207086Y-14360460D02*
X2159467Y-14503317D01*
X2159467Y-14503317D02*
X2283277Y-14503317D01*
X2349944Y-14389031D02*
X2359467Y-14379508D01*
X2359467Y-14379508D02*
X2378515Y-14369984D01*
X2378515Y-14369984D02*
X2426134Y-14369984D01*
X2426134Y-14369984D02*
X2445182Y-14379508D01*
X2445182Y-14379508D02*
X2454705Y-14389031D01*
X2454705Y-14389031D02*
X2464229Y-14408079D01*
X2464229Y-14408079D02*
X2464229Y-14427127D01*
X2464229Y-14427127D02*
X2454705Y-14455698D01*
X2454705Y-14455698D02*
X2340420Y-14569984D01*
X2340420Y-14569984D02*
X2464229Y-14569984D01*
X2588039Y-14369984D02*
X2607086Y-14369984D01*
X2607086Y-14369984D02*
X2626134Y-14379508D01*
X2626134Y-14379508D02*
X2635658Y-14389031D01*
X2635658Y-14389031D02*
X2645182Y-14408079D01*
X2645182Y-14408079D02*
X2654705Y-14446174D01*
X2654705Y-14446174D02*
X2654705Y-14493793D01*
X2654705Y-14493793D02*
X2645182Y-14531888D01*
X2645182Y-14531888D02*
X2635658Y-14550936D01*
X2635658Y-14550936D02*
X2626134Y-14560460D01*
X2626134Y-14560460D02*
X2607086Y-14569984D01*
X2607086Y-14569984D02*
X2588039Y-14569984D01*
X2588039Y-14569984D02*
X2568991Y-14560460D01*
X2568991Y-14560460D02*
X2559467Y-14550936D01*
X2559467Y-14550936D02*
X2549944Y-14531888D01*
X2549944Y-14531888D02*
X2540420Y-14493793D01*
X2540420Y-14493793D02*
X2540420Y-14446174D01*
X2540420Y-14446174D02*
X2549944Y-14408079D01*
X2549944Y-14408079D02*
X2559467Y-14389031D01*
X2559467Y-14389031D02*
X2568991Y-14379508D01*
X2568991Y-14379508D02*
X2588039Y-14369984D01*
X2740420Y-14569984D02*
X2740420Y-14436650D01*
X2740420Y-14455698D02*
X2749944Y-14446174D01*
X2749944Y-14446174D02*
X2768991Y-14436650D01*
X2768991Y-14436650D02*
X2797563Y-14436650D01*
X2797563Y-14436650D02*
X2816610Y-14446174D01*
X2816610Y-14446174D02*
X2826134Y-14465222D01*
X2826134Y-14465222D02*
X2826134Y-14569984D01*
X2826134Y-14465222D02*
X2835658Y-14446174D01*
X2835658Y-14446174D02*
X2854705Y-14436650D01*
X2854705Y-14436650D02*
X2883277Y-14436650D01*
X2883277Y-14436650D02*
X2902324Y-14446174D01*
X2902324Y-14446174D02*
X2911848Y-14465222D01*
X2911848Y-14465222D02*
X2911848Y-14569984D01*
X3007086Y-14569984D02*
X3007086Y-14436650D01*
X3007086Y-14455698D02*
X3016610Y-14446174D01*
X3016610Y-14446174D02*
X3035658Y-14436650D01*
X3035658Y-14436650D02*
X3064229Y-14436650D01*
X3064229Y-14436650D02*
X3083277Y-14446174D01*
X3083277Y-14446174D02*
X3092801Y-14465222D01*
X3092801Y-14465222D02*
X3092801Y-14569984D01*
X3092801Y-14465222D02*
X3102324Y-14446174D01*
X3102324Y-14446174D02*
X3121372Y-14436650D01*
X3121372Y-14436650D02*
X3149943Y-14436650D01*
X3149943Y-14436650D02*
X3168991Y-14446174D01*
X3168991Y-14446174D02*
X3178515Y-14465222D01*
X3178515Y-14465222D02*
X3178515Y-14569984D01*
X3568991Y-14360460D02*
X3397563Y-14617603D01*
X3826134Y-14369984D02*
X3845182Y-14369984D01*
X3845182Y-14369984D02*
X3864229Y-14379508D01*
X3864229Y-14379508D02*
X3873753Y-14389031D01*
X3873753Y-14389031D02*
X3883277Y-14408079D01*
X3883277Y-14408079D02*
X3892801Y-14446174D01*
X3892801Y-14446174D02*
X3892801Y-14493793D01*
X3892801Y-14493793D02*
X3883277Y-14531888D01*
X3883277Y-14531888D02*
X3873753Y-14550936D01*
X3873753Y-14550936D02*
X3864229Y-14560460D01*
X3864229Y-14560460D02*
X3845182Y-14569984D01*
X3845182Y-14569984D02*
X3826134Y-14569984D01*
X3826134Y-14569984D02*
X3807086Y-14560460D01*
X3807086Y-14560460D02*
X3797563Y-14550936D01*
X3797563Y-14550936D02*
X3788039Y-14531888D01*
X3788039Y-14531888D02*
X3778515Y-14493793D01*
X3778515Y-14493793D02*
X3778515Y-14446174D01*
X3778515Y-14446174D02*
X3788039Y-14408079D01*
X3788039Y-14408079D02*
X3797563Y-14389031D01*
X3797563Y-14389031D02*
X3807086Y-14379508D01*
X3807086Y-14379508D02*
X3826134Y-14369984D01*
X3978515Y-14550936D02*
X3988039Y-14560460D01*
X3988039Y-14560460D02*
X3978515Y-14569984D01*
X3978515Y-14569984D02*
X3968991Y-14560460D01*
X3968991Y-14560460D02*
X3978515Y-14550936D01*
X3978515Y-14550936D02*
X3978515Y-14569984D01*
X4111848Y-14369984D02*
X4130896Y-14369984D01*
X4130896Y-14369984D02*
X4149944Y-14379508D01*
X4149944Y-14379508D02*
X4159467Y-14389031D01*
X4159467Y-14389031D02*
X4168991Y-14408079D01*
X4168991Y-14408079D02*
X4178515Y-14446174D01*
X4178515Y-14446174D02*
X4178515Y-14493793D01*
X4178515Y-14493793D02*
X4168991Y-14531888D01*
X4168991Y-14531888D02*
X4159467Y-14550936D01*
X4159467Y-14550936D02*
X4149944Y-14560460D01*
X4149944Y-14560460D02*
X4130896Y-14569984D01*
X4130896Y-14569984D02*
X4111848Y-14569984D01*
X4111848Y-14569984D02*
X4092801Y-14560460D01*
X4092801Y-14560460D02*
X4083277Y-14550936D01*
X4083277Y-14550936D02*
X4073753Y-14531888D01*
X4073753Y-14531888D02*
X4064229Y-14493793D01*
X4064229Y-14493793D02*
X4064229Y-14446174D01*
X4064229Y-14446174D02*
X4073753Y-14408079D01*
X4073753Y-14408079D02*
X4083277Y-14389031D01*
X4083277Y-14389031D02*
X4092801Y-14379508D01*
X4092801Y-14379508D02*
X4111848Y-14369984D01*
X4359468Y-14369984D02*
X4264229Y-14369984D01*
X4264229Y-14369984D02*
X4254706Y-14465222D01*
X4254706Y-14465222D02*
X4264229Y-14455698D01*
X4264229Y-14455698D02*
X4283277Y-14446174D01*
X4283277Y-14446174D02*
X4330896Y-14446174D01*
X4330896Y-14446174D02*
X4349944Y-14455698D01*
X4349944Y-14455698D02*
X4359468Y-14465222D01*
X4359468Y-14465222D02*
X4368991Y-14484269D01*
X4368991Y-14484269D02*
X4368991Y-14531888D01*
X4368991Y-14531888D02*
X4359468Y-14550936D01*
X4359468Y-14550936D02*
X4349944Y-14560460D01*
X4349944Y-14560460D02*
X4330896Y-14569984D01*
X4330896Y-14569984D02*
X4283277Y-14569984D01*
X4283277Y-14569984D02*
X4264229Y-14560460D01*
X4264229Y-14560460D02*
X4254706Y-14550936D01*
X4549944Y-14369984D02*
X4454706Y-14369984D01*
X4454706Y-14369984D02*
X4445182Y-14465222D01*
X4445182Y-14465222D02*
X4454706Y-14455698D01*
X4454706Y-14455698D02*
X4473753Y-14446174D01*
X4473753Y-14446174D02*
X4521372Y-14446174D01*
X4521372Y-14446174D02*
X4540420Y-14455698D01*
X4540420Y-14455698D02*
X4549944Y-14465222D01*
X4549944Y-14465222D02*
X4559468Y-14484269D01*
X4559468Y-14484269D02*
X4559468Y-14531888D01*
X4559468Y-14531888D02*
X4549944Y-14550936D01*
X4549944Y-14550936D02*
X4540420Y-14560460D01*
X4540420Y-14560460D02*
X4521372Y-14569984D01*
X4521372Y-14569984D02*
X4473753Y-14569984D01*
X4473753Y-14569984D02*
X4454706Y-14560460D01*
X4454706Y-14560460D02*
X4445182Y-14550936D01*
X4654706Y-14569984D02*
X4692801Y-14569984D01*
X4692801Y-14569984D02*
X4711849Y-14560460D01*
X4711849Y-14560460D02*
X4721372Y-14550936D01*
X4721372Y-14550936D02*
X4740420Y-14522365D01*
X4740420Y-14522365D02*
X4749944Y-14484269D01*
X4749944Y-14484269D02*
X4749944Y-14408079D01*
X4749944Y-14408079D02*
X4740420Y-14389031D01*
X4740420Y-14389031D02*
X4730896Y-14379508D01*
X4730896Y-14379508D02*
X4711849Y-14369984D01*
X4711849Y-14369984D02*
X4673753Y-14369984D01*
X4673753Y-14369984D02*
X4654706Y-14379508D01*
X4654706Y-14379508D02*
X4645182Y-14389031D01*
X4645182Y-14389031D02*
X4635658Y-14408079D01*
X4635658Y-14408079D02*
X4635658Y-14455698D01*
X4635658Y-14455698D02*
X4645182Y-14474746D01*
X4645182Y-14474746D02*
X4654706Y-14484269D01*
X4654706Y-14484269D02*
X4673753Y-14493793D01*
X4673753Y-14493793D02*
X4711849Y-14493793D01*
X4711849Y-14493793D02*
X4730896Y-14484269D01*
X4730896Y-14484269D02*
X4740420Y-14474746D01*
X4740420Y-14474746D02*
X4749944Y-14455698D01*
X4826134Y-14369984D02*
X4826134Y-14408079D01*
X4902325Y-14369984D02*
X4902325Y-14408079D01*
X5197563Y-14646174D02*
X5188039Y-14636650D01*
X5188039Y-14636650D02*
X5168991Y-14608079D01*
X5168991Y-14608079D02*
X5159468Y-14589031D01*
X5159468Y-14589031D02*
X5149944Y-14560460D01*
X5149944Y-14560460D02*
X5140420Y-14512841D01*
X5140420Y-14512841D02*
X5140420Y-14474746D01*
X5140420Y-14474746D02*
X5149944Y-14427127D01*
X5149944Y-14427127D02*
X5159468Y-14398555D01*
X5159468Y-14398555D02*
X5168991Y-14379508D01*
X5168991Y-14379508D02*
X5188039Y-14350936D01*
X5188039Y-14350936D02*
X5197563Y-14341412D01*
X5378515Y-14569984D02*
X5264230Y-14569984D01*
X5321372Y-14569984D02*
X5321372Y-14369984D01*
X5321372Y-14369984D02*
X5302325Y-14398555D01*
X5302325Y-14398555D02*
X5283277Y-14417603D01*
X5283277Y-14417603D02*
X5264230Y-14427127D01*
X5549944Y-14369984D02*
X5511849Y-14369984D01*
X5511849Y-14369984D02*
X5492801Y-14379508D01*
X5492801Y-14379508D02*
X5483277Y-14389031D01*
X5483277Y-14389031D02*
X5464230Y-14417603D01*
X5464230Y-14417603D02*
X5454706Y-14455698D01*
X5454706Y-14455698D02*
X5454706Y-14531888D01*
X5454706Y-14531888D02*
X5464230Y-14550936D01*
X5464230Y-14550936D02*
X5473753Y-14560460D01*
X5473753Y-14560460D02*
X5492801Y-14569984D01*
X5492801Y-14569984D02*
X5530896Y-14569984D01*
X5530896Y-14569984D02*
X5549944Y-14560460D01*
X5549944Y-14560460D02*
X5559468Y-14550936D01*
X5559468Y-14550936D02*
X5568991Y-14531888D01*
X5568991Y-14531888D02*
X5568991Y-14484269D01*
X5568991Y-14484269D02*
X5559468Y-14465222D01*
X5559468Y-14465222D02*
X5549944Y-14455698D01*
X5549944Y-14455698D02*
X5530896Y-14446174D01*
X5530896Y-14446174D02*
X5492801Y-14446174D01*
X5492801Y-14446174D02*
X5473753Y-14455698D01*
X5473753Y-14455698D02*
X5464230Y-14465222D01*
X5464230Y-14465222D02*
X5454706Y-14484269D01*
X5807087Y-14569984D02*
X5807087Y-14369984D01*
X5892801Y-14569984D02*
X5892801Y-14465222D01*
X5892801Y-14465222D02*
X5883277Y-14446174D01*
X5883277Y-14446174D02*
X5864230Y-14436650D01*
X5864230Y-14436650D02*
X5835658Y-14436650D01*
X5835658Y-14436650D02*
X5816610Y-14446174D01*
X5816610Y-14446174D02*
X5807087Y-14455698D01*
X6016610Y-14569984D02*
X5997563Y-14560460D01*
X5997563Y-14560460D02*
X5988039Y-14550936D01*
X5988039Y-14550936D02*
X5978515Y-14531888D01*
X5978515Y-14531888D02*
X5978515Y-14474746D01*
X5978515Y-14474746D02*
X5988039Y-14455698D01*
X5988039Y-14455698D02*
X5997563Y-14446174D01*
X5997563Y-14446174D02*
X6016610Y-14436650D01*
X6016610Y-14436650D02*
X6045182Y-14436650D01*
X6045182Y-14436650D02*
X6064230Y-14446174D01*
X6064230Y-14446174D02*
X6073753Y-14455698D01*
X6073753Y-14455698D02*
X6083277Y-14474746D01*
X6083277Y-14474746D02*
X6083277Y-14531888D01*
X6083277Y-14531888D02*
X6073753Y-14550936D01*
X6073753Y-14550936D02*
X6064230Y-14560460D01*
X6064230Y-14560460D02*
X6045182Y-14569984D01*
X6045182Y-14569984D02*
X6016610Y-14569984D01*
X6197563Y-14569984D02*
X6178515Y-14560460D01*
X6178515Y-14560460D02*
X6168991Y-14541412D01*
X6168991Y-14541412D02*
X6168991Y-14369984D01*
X6349944Y-14560460D02*
X6330896Y-14569984D01*
X6330896Y-14569984D02*
X6292801Y-14569984D01*
X6292801Y-14569984D02*
X6273753Y-14560460D01*
X6273753Y-14560460D02*
X6264230Y-14541412D01*
X6264230Y-14541412D02*
X6264230Y-14465222D01*
X6264230Y-14465222D02*
X6273753Y-14446174D01*
X6273753Y-14446174D02*
X6292801Y-14436650D01*
X6292801Y-14436650D02*
X6330896Y-14436650D01*
X6330896Y-14436650D02*
X6349944Y-14446174D01*
X6349944Y-14446174D02*
X6359468Y-14465222D01*
X6359468Y-14465222D02*
X6359468Y-14484269D01*
X6359468Y-14484269D02*
X6264230Y-14503317D01*
X6435658Y-14560460D02*
X6454706Y-14569984D01*
X6454706Y-14569984D02*
X6492801Y-14569984D01*
X6492801Y-14569984D02*
X6511849Y-14560460D01*
X6511849Y-14560460D02*
X6521372Y-14541412D01*
X6521372Y-14541412D02*
X6521372Y-14531888D01*
X6521372Y-14531888D02*
X6511849Y-14512841D01*
X6511849Y-14512841D02*
X6492801Y-14503317D01*
X6492801Y-14503317D02*
X6464230Y-14503317D01*
X6464230Y-14503317D02*
X6445182Y-14493793D01*
X6445182Y-14493793D02*
X6435658Y-14474746D01*
X6435658Y-14474746D02*
X6435658Y-14465222D01*
X6435658Y-14465222D02*
X6445182Y-14446174D01*
X6445182Y-14446174D02*
X6464230Y-14436650D01*
X6464230Y-14436650D02*
X6492801Y-14436650D01*
X6492801Y-14436650D02*
X6511849Y-14446174D01*
X6588039Y-14646174D02*
X6597563Y-14636650D01*
X6597563Y-14636650D02*
X6616611Y-14608079D01*
X6616611Y-14608079D02*
X6626134Y-14589031D01*
X6626134Y-14589031D02*
X6635658Y-14560460D01*
X6635658Y-14560460D02*
X6645182Y-14512841D01*
X6645182Y-14512841D02*
X6645182Y-14474746D01*
X6645182Y-14474746D02*
X6635658Y-14427127D01*
X6635658Y-14427127D02*
X6626134Y-14398555D01*
X6626134Y-14398555D02*
X6616611Y-14379508D01*
X6616611Y-14379508D02*
X6597563Y-14350936D01*
X6597563Y-14350936D02*
X6588039Y-14341412D01*
D16*
X1479500Y-14671000D02*
X1622500Y-14814000D01*
X1622500Y-14671000D02*
X1479500Y-14814000D01*
X1551000Y-14671000D02*
X1551000Y-14814000D01*
X1479500Y-14742500D02*
X1622500Y-14742500D01*
D11*
X1988039Y-14833984D02*
X1873753Y-14833984D01*
X1930896Y-14833984D02*
X1930896Y-14633984D01*
X1930896Y-14633984D02*
X1911848Y-14662555D01*
X1911848Y-14662555D02*
X1892801Y-14681603D01*
X1892801Y-14681603D02*
X1873753Y-14691127D01*
X2073753Y-14814936D02*
X2083277Y-14824460D01*
X2083277Y-14824460D02*
X2073753Y-14833984D01*
X2073753Y-14833984D02*
X2064229Y-14824460D01*
X2064229Y-14824460D02*
X2073753Y-14814936D01*
X2073753Y-14814936D02*
X2073753Y-14833984D01*
X2254705Y-14700650D02*
X2254705Y-14833984D01*
X2207086Y-14624460D02*
X2159467Y-14767317D01*
X2159467Y-14767317D02*
X2283277Y-14767317D01*
X2340420Y-14633984D02*
X2464229Y-14633984D01*
X2464229Y-14633984D02*
X2397563Y-14710174D01*
X2397563Y-14710174D02*
X2426134Y-14710174D01*
X2426134Y-14710174D02*
X2445182Y-14719698D01*
X2445182Y-14719698D02*
X2454705Y-14729222D01*
X2454705Y-14729222D02*
X2464229Y-14748269D01*
X2464229Y-14748269D02*
X2464229Y-14795888D01*
X2464229Y-14795888D02*
X2454705Y-14814936D01*
X2454705Y-14814936D02*
X2445182Y-14824460D01*
X2445182Y-14824460D02*
X2426134Y-14833984D01*
X2426134Y-14833984D02*
X2368991Y-14833984D01*
X2368991Y-14833984D02*
X2349944Y-14824460D01*
X2349944Y-14824460D02*
X2340420Y-14814936D01*
X2588039Y-14633984D02*
X2607086Y-14633984D01*
X2607086Y-14633984D02*
X2626134Y-14643508D01*
X2626134Y-14643508D02*
X2635658Y-14653031D01*
X2635658Y-14653031D02*
X2645182Y-14672079D01*
X2645182Y-14672079D02*
X2654705Y-14710174D01*
X2654705Y-14710174D02*
X2654705Y-14757793D01*
X2654705Y-14757793D02*
X2645182Y-14795888D01*
X2645182Y-14795888D02*
X2635658Y-14814936D01*
X2635658Y-14814936D02*
X2626134Y-14824460D01*
X2626134Y-14824460D02*
X2607086Y-14833984D01*
X2607086Y-14833984D02*
X2588039Y-14833984D01*
X2588039Y-14833984D02*
X2568991Y-14824460D01*
X2568991Y-14824460D02*
X2559467Y-14814936D01*
X2559467Y-14814936D02*
X2549944Y-14795888D01*
X2549944Y-14795888D02*
X2540420Y-14757793D01*
X2540420Y-14757793D02*
X2540420Y-14710174D01*
X2540420Y-14710174D02*
X2549944Y-14672079D01*
X2549944Y-14672079D02*
X2559467Y-14653031D01*
X2559467Y-14653031D02*
X2568991Y-14643508D01*
X2568991Y-14643508D02*
X2588039Y-14633984D01*
X2740420Y-14833984D02*
X2740420Y-14700650D01*
X2740420Y-14719698D02*
X2749944Y-14710174D01*
X2749944Y-14710174D02*
X2768991Y-14700650D01*
X2768991Y-14700650D02*
X2797563Y-14700650D01*
X2797563Y-14700650D02*
X2816610Y-14710174D01*
X2816610Y-14710174D02*
X2826134Y-14729222D01*
X2826134Y-14729222D02*
X2826134Y-14833984D01*
X2826134Y-14729222D02*
X2835658Y-14710174D01*
X2835658Y-14710174D02*
X2854705Y-14700650D01*
X2854705Y-14700650D02*
X2883277Y-14700650D01*
X2883277Y-14700650D02*
X2902324Y-14710174D01*
X2902324Y-14710174D02*
X2911848Y-14729222D01*
X2911848Y-14729222D02*
X2911848Y-14833984D01*
X3007086Y-14833984D02*
X3007086Y-14700650D01*
X3007086Y-14719698D02*
X3016610Y-14710174D01*
X3016610Y-14710174D02*
X3035658Y-14700650D01*
X3035658Y-14700650D02*
X3064229Y-14700650D01*
X3064229Y-14700650D02*
X3083277Y-14710174D01*
X3083277Y-14710174D02*
X3092801Y-14729222D01*
X3092801Y-14729222D02*
X3092801Y-14833984D01*
X3092801Y-14729222D02*
X3102324Y-14710174D01*
X3102324Y-14710174D02*
X3121372Y-14700650D01*
X3121372Y-14700650D02*
X3149943Y-14700650D01*
X3149943Y-14700650D02*
X3168991Y-14710174D01*
X3168991Y-14710174D02*
X3178515Y-14729222D01*
X3178515Y-14729222D02*
X3178515Y-14833984D01*
X3568991Y-14624460D02*
X3397563Y-14881603D01*
X3826134Y-14633984D02*
X3845182Y-14633984D01*
X3845182Y-14633984D02*
X3864229Y-14643508D01*
X3864229Y-14643508D02*
X3873753Y-14653031D01*
X3873753Y-14653031D02*
X3883277Y-14672079D01*
X3883277Y-14672079D02*
X3892801Y-14710174D01*
X3892801Y-14710174D02*
X3892801Y-14757793D01*
X3892801Y-14757793D02*
X3883277Y-14795888D01*
X3883277Y-14795888D02*
X3873753Y-14814936D01*
X3873753Y-14814936D02*
X3864229Y-14824460D01*
X3864229Y-14824460D02*
X3845182Y-14833984D01*
X3845182Y-14833984D02*
X3826134Y-14833984D01*
X3826134Y-14833984D02*
X3807086Y-14824460D01*
X3807086Y-14824460D02*
X3797563Y-14814936D01*
X3797563Y-14814936D02*
X3788039Y-14795888D01*
X3788039Y-14795888D02*
X3778515Y-14757793D01*
X3778515Y-14757793D02*
X3778515Y-14710174D01*
X3778515Y-14710174D02*
X3788039Y-14672079D01*
X3788039Y-14672079D02*
X3797563Y-14653031D01*
X3797563Y-14653031D02*
X3807086Y-14643508D01*
X3807086Y-14643508D02*
X3826134Y-14633984D01*
X3978515Y-14814936D02*
X3988039Y-14824460D01*
X3988039Y-14824460D02*
X3978515Y-14833984D01*
X3978515Y-14833984D02*
X3968991Y-14824460D01*
X3968991Y-14824460D02*
X3978515Y-14814936D01*
X3978515Y-14814936D02*
X3978515Y-14833984D01*
X4111848Y-14633984D02*
X4130896Y-14633984D01*
X4130896Y-14633984D02*
X4149944Y-14643508D01*
X4149944Y-14643508D02*
X4159467Y-14653031D01*
X4159467Y-14653031D02*
X4168991Y-14672079D01*
X4168991Y-14672079D02*
X4178515Y-14710174D01*
X4178515Y-14710174D02*
X4178515Y-14757793D01*
X4178515Y-14757793D02*
X4168991Y-14795888D01*
X4168991Y-14795888D02*
X4159467Y-14814936D01*
X4159467Y-14814936D02*
X4149944Y-14824460D01*
X4149944Y-14824460D02*
X4130896Y-14833984D01*
X4130896Y-14833984D02*
X4111848Y-14833984D01*
X4111848Y-14833984D02*
X4092801Y-14824460D01*
X4092801Y-14824460D02*
X4083277Y-14814936D01*
X4083277Y-14814936D02*
X4073753Y-14795888D01*
X4073753Y-14795888D02*
X4064229Y-14757793D01*
X4064229Y-14757793D02*
X4064229Y-14710174D01*
X4064229Y-14710174D02*
X4073753Y-14672079D01*
X4073753Y-14672079D02*
X4083277Y-14653031D01*
X4083277Y-14653031D02*
X4092801Y-14643508D01*
X4092801Y-14643508D02*
X4111848Y-14633984D01*
X4359468Y-14633984D02*
X4264229Y-14633984D01*
X4264229Y-14633984D02*
X4254706Y-14729222D01*
X4254706Y-14729222D02*
X4264229Y-14719698D01*
X4264229Y-14719698D02*
X4283277Y-14710174D01*
X4283277Y-14710174D02*
X4330896Y-14710174D01*
X4330896Y-14710174D02*
X4349944Y-14719698D01*
X4349944Y-14719698D02*
X4359468Y-14729222D01*
X4359468Y-14729222D02*
X4368991Y-14748269D01*
X4368991Y-14748269D02*
X4368991Y-14795888D01*
X4368991Y-14795888D02*
X4359468Y-14814936D01*
X4359468Y-14814936D02*
X4349944Y-14824460D01*
X4349944Y-14824460D02*
X4330896Y-14833984D01*
X4330896Y-14833984D02*
X4283277Y-14833984D01*
X4283277Y-14833984D02*
X4264229Y-14824460D01*
X4264229Y-14824460D02*
X4254706Y-14814936D01*
X4540420Y-14633984D02*
X4502325Y-14633984D01*
X4502325Y-14633984D02*
X4483277Y-14643508D01*
X4483277Y-14643508D02*
X4473753Y-14653031D01*
X4473753Y-14653031D02*
X4454706Y-14681603D01*
X4454706Y-14681603D02*
X4445182Y-14719698D01*
X4445182Y-14719698D02*
X4445182Y-14795888D01*
X4445182Y-14795888D02*
X4454706Y-14814936D01*
X4454706Y-14814936D02*
X4464229Y-14824460D01*
X4464229Y-14824460D02*
X4483277Y-14833984D01*
X4483277Y-14833984D02*
X4521372Y-14833984D01*
X4521372Y-14833984D02*
X4540420Y-14824460D01*
X4540420Y-14824460D02*
X4549944Y-14814936D01*
X4549944Y-14814936D02*
X4559468Y-14795888D01*
X4559468Y-14795888D02*
X4559468Y-14748269D01*
X4559468Y-14748269D02*
X4549944Y-14729222D01*
X4549944Y-14729222D02*
X4540420Y-14719698D01*
X4540420Y-14719698D02*
X4521372Y-14710174D01*
X4521372Y-14710174D02*
X4483277Y-14710174D01*
X4483277Y-14710174D02*
X4464229Y-14719698D01*
X4464229Y-14719698D02*
X4454706Y-14729222D01*
X4454706Y-14729222D02*
X4445182Y-14748269D01*
X4626134Y-14633984D02*
X4749944Y-14633984D01*
X4749944Y-14633984D02*
X4683277Y-14710174D01*
X4683277Y-14710174D02*
X4711849Y-14710174D01*
X4711849Y-14710174D02*
X4730896Y-14719698D01*
X4730896Y-14719698D02*
X4740420Y-14729222D01*
X4740420Y-14729222D02*
X4749944Y-14748269D01*
X4749944Y-14748269D02*
X4749944Y-14795888D01*
X4749944Y-14795888D02*
X4740420Y-14814936D01*
X4740420Y-14814936D02*
X4730896Y-14824460D01*
X4730896Y-14824460D02*
X4711849Y-14833984D01*
X4711849Y-14833984D02*
X4654706Y-14833984D01*
X4654706Y-14833984D02*
X4635658Y-14824460D01*
X4635658Y-14824460D02*
X4626134Y-14814936D01*
X4826134Y-14633984D02*
X4826134Y-14672079D01*
X4902325Y-14633984D02*
X4902325Y-14672079D01*
X5197563Y-14910174D02*
X5188039Y-14900650D01*
X5188039Y-14900650D02*
X5168991Y-14872079D01*
X5168991Y-14872079D02*
X5159468Y-14853031D01*
X5159468Y-14853031D02*
X5149944Y-14824460D01*
X5149944Y-14824460D02*
X5140420Y-14776841D01*
X5140420Y-14776841D02*
X5140420Y-14738746D01*
X5140420Y-14738746D02*
X5149944Y-14691127D01*
X5149944Y-14691127D02*
X5159468Y-14662555D01*
X5159468Y-14662555D02*
X5168991Y-14643508D01*
X5168991Y-14643508D02*
X5188039Y-14614936D01*
X5188039Y-14614936D02*
X5197563Y-14605412D01*
X5378515Y-14833984D02*
X5264230Y-14833984D01*
X5321372Y-14833984D02*
X5321372Y-14633984D01*
X5321372Y-14633984D02*
X5302325Y-14662555D01*
X5302325Y-14662555D02*
X5283277Y-14681603D01*
X5283277Y-14681603D02*
X5264230Y-14691127D01*
X5549944Y-14633984D02*
X5511849Y-14633984D01*
X5511849Y-14633984D02*
X5492801Y-14643508D01*
X5492801Y-14643508D02*
X5483277Y-14653031D01*
X5483277Y-14653031D02*
X5464230Y-14681603D01*
X5464230Y-14681603D02*
X5454706Y-14719698D01*
X5454706Y-14719698D02*
X5454706Y-14795888D01*
X5454706Y-14795888D02*
X5464230Y-14814936D01*
X5464230Y-14814936D02*
X5473753Y-14824460D01*
X5473753Y-14824460D02*
X5492801Y-14833984D01*
X5492801Y-14833984D02*
X5530896Y-14833984D01*
X5530896Y-14833984D02*
X5549944Y-14824460D01*
X5549944Y-14824460D02*
X5559468Y-14814936D01*
X5559468Y-14814936D02*
X5568991Y-14795888D01*
X5568991Y-14795888D02*
X5568991Y-14748269D01*
X5568991Y-14748269D02*
X5559468Y-14729222D01*
X5559468Y-14729222D02*
X5549944Y-14719698D01*
X5549944Y-14719698D02*
X5530896Y-14710174D01*
X5530896Y-14710174D02*
X5492801Y-14710174D01*
X5492801Y-14710174D02*
X5473753Y-14719698D01*
X5473753Y-14719698D02*
X5464230Y-14729222D01*
X5464230Y-14729222D02*
X5454706Y-14748269D01*
X5807087Y-14833984D02*
X5807087Y-14633984D01*
X5892801Y-14833984D02*
X5892801Y-14729222D01*
X5892801Y-14729222D02*
X5883277Y-14710174D01*
X5883277Y-14710174D02*
X5864230Y-14700650D01*
X5864230Y-14700650D02*
X5835658Y-14700650D01*
X5835658Y-14700650D02*
X5816610Y-14710174D01*
X5816610Y-14710174D02*
X5807087Y-14719698D01*
X6016610Y-14833984D02*
X5997563Y-14824460D01*
X5997563Y-14824460D02*
X5988039Y-14814936D01*
X5988039Y-14814936D02*
X5978515Y-14795888D01*
X5978515Y-14795888D02*
X5978515Y-14738746D01*
X5978515Y-14738746D02*
X5988039Y-14719698D01*
X5988039Y-14719698D02*
X5997563Y-14710174D01*
X5997563Y-14710174D02*
X6016610Y-14700650D01*
X6016610Y-14700650D02*
X6045182Y-14700650D01*
X6045182Y-14700650D02*
X6064230Y-14710174D01*
X6064230Y-14710174D02*
X6073753Y-14719698D01*
X6073753Y-14719698D02*
X6083277Y-14738746D01*
X6083277Y-14738746D02*
X6083277Y-14795888D01*
X6083277Y-14795888D02*
X6073753Y-14814936D01*
X6073753Y-14814936D02*
X6064230Y-14824460D01*
X6064230Y-14824460D02*
X6045182Y-14833984D01*
X6045182Y-14833984D02*
X6016610Y-14833984D01*
X6197563Y-14833984D02*
X6178515Y-14824460D01*
X6178515Y-14824460D02*
X6168991Y-14805412D01*
X6168991Y-14805412D02*
X6168991Y-14633984D01*
X6349944Y-14824460D02*
X6330896Y-14833984D01*
X6330896Y-14833984D02*
X6292801Y-14833984D01*
X6292801Y-14833984D02*
X6273753Y-14824460D01*
X6273753Y-14824460D02*
X6264230Y-14805412D01*
X6264230Y-14805412D02*
X6264230Y-14729222D01*
X6264230Y-14729222D02*
X6273753Y-14710174D01*
X6273753Y-14710174D02*
X6292801Y-14700650D01*
X6292801Y-14700650D02*
X6330896Y-14700650D01*
X6330896Y-14700650D02*
X6349944Y-14710174D01*
X6349944Y-14710174D02*
X6359468Y-14729222D01*
X6359468Y-14729222D02*
X6359468Y-14748269D01*
X6359468Y-14748269D02*
X6264230Y-14767317D01*
X6435658Y-14824460D02*
X6454706Y-14833984D01*
X6454706Y-14833984D02*
X6492801Y-14833984D01*
X6492801Y-14833984D02*
X6511849Y-14824460D01*
X6511849Y-14824460D02*
X6521372Y-14805412D01*
X6521372Y-14805412D02*
X6521372Y-14795888D01*
X6521372Y-14795888D02*
X6511849Y-14776841D01*
X6511849Y-14776841D02*
X6492801Y-14767317D01*
X6492801Y-14767317D02*
X6464230Y-14767317D01*
X6464230Y-14767317D02*
X6445182Y-14757793D01*
X6445182Y-14757793D02*
X6435658Y-14738746D01*
X6435658Y-14738746D02*
X6435658Y-14729222D01*
X6435658Y-14729222D02*
X6445182Y-14710174D01*
X6445182Y-14710174D02*
X6464230Y-14700650D01*
X6464230Y-14700650D02*
X6492801Y-14700650D01*
X6492801Y-14700650D02*
X6511849Y-14710174D01*
X6588039Y-14910174D02*
X6597563Y-14900650D01*
X6597563Y-14900650D02*
X6616611Y-14872079D01*
X6616611Y-14872079D02*
X6626134Y-14853031D01*
X6626134Y-14853031D02*
X6635658Y-14824460D01*
X6635658Y-14824460D02*
X6645182Y-14776841D01*
X6645182Y-14776841D02*
X6645182Y-14738746D01*
X6645182Y-14738746D02*
X6635658Y-14691127D01*
X6635658Y-14691127D02*
X6626134Y-14662555D01*
X6626134Y-14662555D02*
X6616611Y-14643508D01*
X6616611Y-14643508D02*
X6597563Y-14614936D01*
X6597563Y-14614936D02*
X6588039Y-14605412D01*
D17*
X1442500Y-14916500D02*
X1622500Y-15096500D01*
X1622500Y-14916500D02*
X1442500Y-15096500D01*
X1596140Y-15070140D02*
X1596140Y-14942860D01*
X1468860Y-14942860D01*
X1468860Y-15070140D01*
X1596140Y-15070140D01*
D11*
X1988039Y-15097984D02*
X1873753Y-15097984D01*
X1930896Y-15097984D02*
X1930896Y-14897984D01*
X1930896Y-14897984D02*
X1911848Y-14926555D01*
X1911848Y-14926555D02*
X1892801Y-14945603D01*
X1892801Y-14945603D02*
X1873753Y-14955127D01*
X2073753Y-15078936D02*
X2083277Y-15088460D01*
X2083277Y-15088460D02*
X2073753Y-15097984D01*
X2073753Y-15097984D02*
X2064229Y-15088460D01*
X2064229Y-15088460D02*
X2073753Y-15078936D01*
X2073753Y-15078936D02*
X2073753Y-15097984D01*
X2197563Y-14983698D02*
X2178515Y-14974174D01*
X2178515Y-14974174D02*
X2168991Y-14964650D01*
X2168991Y-14964650D02*
X2159467Y-14945603D01*
X2159467Y-14945603D02*
X2159467Y-14936079D01*
X2159467Y-14936079D02*
X2168991Y-14917031D01*
X2168991Y-14917031D02*
X2178515Y-14907508D01*
X2178515Y-14907508D02*
X2197563Y-14897984D01*
X2197563Y-14897984D02*
X2235658Y-14897984D01*
X2235658Y-14897984D02*
X2254705Y-14907508D01*
X2254705Y-14907508D02*
X2264229Y-14917031D01*
X2264229Y-14917031D02*
X2273753Y-14936079D01*
X2273753Y-14936079D02*
X2273753Y-14945603D01*
X2273753Y-14945603D02*
X2264229Y-14964650D01*
X2264229Y-14964650D02*
X2254705Y-14974174D01*
X2254705Y-14974174D02*
X2235658Y-14983698D01*
X2235658Y-14983698D02*
X2197563Y-14983698D01*
X2197563Y-14983698D02*
X2178515Y-14993222D01*
X2178515Y-14993222D02*
X2168991Y-15002746D01*
X2168991Y-15002746D02*
X2159467Y-15021793D01*
X2159467Y-15021793D02*
X2159467Y-15059888D01*
X2159467Y-15059888D02*
X2168991Y-15078936D01*
X2168991Y-15078936D02*
X2178515Y-15088460D01*
X2178515Y-15088460D02*
X2197563Y-15097984D01*
X2197563Y-15097984D02*
X2235658Y-15097984D01*
X2235658Y-15097984D02*
X2254705Y-15088460D01*
X2254705Y-15088460D02*
X2264229Y-15078936D01*
X2264229Y-15078936D02*
X2273753Y-15059888D01*
X2273753Y-15059888D02*
X2273753Y-15021793D01*
X2273753Y-15021793D02*
X2264229Y-15002746D01*
X2264229Y-15002746D02*
X2254705Y-14993222D01*
X2254705Y-14993222D02*
X2235658Y-14983698D01*
X2397563Y-14897984D02*
X2416610Y-14897984D01*
X2416610Y-14897984D02*
X2435658Y-14907508D01*
X2435658Y-14907508D02*
X2445182Y-14917031D01*
X2445182Y-14917031D02*
X2454705Y-14936079D01*
X2454705Y-14936079D02*
X2464229Y-14974174D01*
X2464229Y-14974174D02*
X2464229Y-15021793D01*
X2464229Y-15021793D02*
X2454705Y-15059888D01*
X2454705Y-15059888D02*
X2445182Y-15078936D01*
X2445182Y-15078936D02*
X2435658Y-15088460D01*
X2435658Y-15088460D02*
X2416610Y-15097984D01*
X2416610Y-15097984D02*
X2397563Y-15097984D01*
X2397563Y-15097984D02*
X2378515Y-15088460D01*
X2378515Y-15088460D02*
X2368991Y-15078936D01*
X2368991Y-15078936D02*
X2359467Y-15059888D01*
X2359467Y-15059888D02*
X2349944Y-15021793D01*
X2349944Y-15021793D02*
X2349944Y-14974174D01*
X2349944Y-14974174D02*
X2359467Y-14936079D01*
X2359467Y-14936079D02*
X2368991Y-14917031D01*
X2368991Y-14917031D02*
X2378515Y-14907508D01*
X2378515Y-14907508D02*
X2397563Y-14897984D01*
X2588039Y-14897984D02*
X2607086Y-14897984D01*
X2607086Y-14897984D02*
X2626134Y-14907508D01*
X2626134Y-14907508D02*
X2635658Y-14917031D01*
X2635658Y-14917031D02*
X2645182Y-14936079D01*
X2645182Y-14936079D02*
X2654705Y-14974174D01*
X2654705Y-14974174D02*
X2654705Y-15021793D01*
X2654705Y-15021793D02*
X2645182Y-15059888D01*
X2645182Y-15059888D02*
X2635658Y-15078936D01*
X2635658Y-15078936D02*
X2626134Y-15088460D01*
X2626134Y-15088460D02*
X2607086Y-15097984D01*
X2607086Y-15097984D02*
X2588039Y-15097984D01*
X2588039Y-15097984D02*
X2568991Y-15088460D01*
X2568991Y-15088460D02*
X2559467Y-15078936D01*
X2559467Y-15078936D02*
X2549944Y-15059888D01*
X2549944Y-15059888D02*
X2540420Y-15021793D01*
X2540420Y-15021793D02*
X2540420Y-14974174D01*
X2540420Y-14974174D02*
X2549944Y-14936079D01*
X2549944Y-14936079D02*
X2559467Y-14917031D01*
X2559467Y-14917031D02*
X2568991Y-14907508D01*
X2568991Y-14907508D02*
X2588039Y-14897984D01*
X2740420Y-15097984D02*
X2740420Y-14964650D01*
X2740420Y-14983698D02*
X2749944Y-14974174D01*
X2749944Y-14974174D02*
X2768991Y-14964650D01*
X2768991Y-14964650D02*
X2797563Y-14964650D01*
X2797563Y-14964650D02*
X2816610Y-14974174D01*
X2816610Y-14974174D02*
X2826134Y-14993222D01*
X2826134Y-14993222D02*
X2826134Y-15097984D01*
X2826134Y-14993222D02*
X2835658Y-14974174D01*
X2835658Y-14974174D02*
X2854705Y-14964650D01*
X2854705Y-14964650D02*
X2883277Y-14964650D01*
X2883277Y-14964650D02*
X2902324Y-14974174D01*
X2902324Y-14974174D02*
X2911848Y-14993222D01*
X2911848Y-14993222D02*
X2911848Y-15097984D01*
X3007086Y-15097984D02*
X3007086Y-14964650D01*
X3007086Y-14983698D02*
X3016610Y-14974174D01*
X3016610Y-14974174D02*
X3035658Y-14964650D01*
X3035658Y-14964650D02*
X3064229Y-14964650D01*
X3064229Y-14964650D02*
X3083277Y-14974174D01*
X3083277Y-14974174D02*
X3092801Y-14993222D01*
X3092801Y-14993222D02*
X3092801Y-15097984D01*
X3092801Y-14993222D02*
X3102324Y-14974174D01*
X3102324Y-14974174D02*
X3121372Y-14964650D01*
X3121372Y-14964650D02*
X3149943Y-14964650D01*
X3149943Y-14964650D02*
X3168991Y-14974174D01*
X3168991Y-14974174D02*
X3178515Y-14993222D01*
X3178515Y-14993222D02*
X3178515Y-15097984D01*
X3568991Y-14888460D02*
X3397563Y-15145603D01*
X3826134Y-14897984D02*
X3845182Y-14897984D01*
X3845182Y-14897984D02*
X3864229Y-14907508D01*
X3864229Y-14907508D02*
X3873753Y-14917031D01*
X3873753Y-14917031D02*
X3883277Y-14936079D01*
X3883277Y-14936079D02*
X3892801Y-14974174D01*
X3892801Y-14974174D02*
X3892801Y-15021793D01*
X3892801Y-15021793D02*
X3883277Y-15059888D01*
X3883277Y-15059888D02*
X3873753Y-15078936D01*
X3873753Y-15078936D02*
X3864229Y-15088460D01*
X3864229Y-15088460D02*
X3845182Y-15097984D01*
X3845182Y-15097984D02*
X3826134Y-15097984D01*
X3826134Y-15097984D02*
X3807086Y-15088460D01*
X3807086Y-15088460D02*
X3797563Y-15078936D01*
X3797563Y-15078936D02*
X3788039Y-15059888D01*
X3788039Y-15059888D02*
X3778515Y-15021793D01*
X3778515Y-15021793D02*
X3778515Y-14974174D01*
X3778515Y-14974174D02*
X3788039Y-14936079D01*
X3788039Y-14936079D02*
X3797563Y-14917031D01*
X3797563Y-14917031D02*
X3807086Y-14907508D01*
X3807086Y-14907508D02*
X3826134Y-14897984D01*
X3978515Y-15078936D02*
X3988039Y-15088460D01*
X3988039Y-15088460D02*
X3978515Y-15097984D01*
X3978515Y-15097984D02*
X3968991Y-15088460D01*
X3968991Y-15088460D02*
X3978515Y-15078936D01*
X3978515Y-15078936D02*
X3978515Y-15097984D01*
X4111848Y-14897984D02*
X4130896Y-14897984D01*
X4130896Y-14897984D02*
X4149944Y-14907508D01*
X4149944Y-14907508D02*
X4159467Y-14917031D01*
X4159467Y-14917031D02*
X4168991Y-14936079D01*
X4168991Y-14936079D02*
X4178515Y-14974174D01*
X4178515Y-14974174D02*
X4178515Y-15021793D01*
X4178515Y-15021793D02*
X4168991Y-15059888D01*
X4168991Y-15059888D02*
X4159467Y-15078936D01*
X4159467Y-15078936D02*
X4149944Y-15088460D01*
X4149944Y-15088460D02*
X4130896Y-15097984D01*
X4130896Y-15097984D02*
X4111848Y-15097984D01*
X4111848Y-15097984D02*
X4092801Y-15088460D01*
X4092801Y-15088460D02*
X4083277Y-15078936D01*
X4083277Y-15078936D02*
X4073753Y-15059888D01*
X4073753Y-15059888D02*
X4064229Y-15021793D01*
X4064229Y-15021793D02*
X4064229Y-14974174D01*
X4064229Y-14974174D02*
X4073753Y-14936079D01*
X4073753Y-14936079D02*
X4083277Y-14917031D01*
X4083277Y-14917031D02*
X4092801Y-14907508D01*
X4092801Y-14907508D02*
X4111848Y-14897984D01*
X4245182Y-14897984D02*
X4378515Y-14897984D01*
X4378515Y-14897984D02*
X4292801Y-15097984D01*
X4492801Y-14897984D02*
X4511849Y-14897984D01*
X4511849Y-14897984D02*
X4530896Y-14907508D01*
X4530896Y-14907508D02*
X4540420Y-14917031D01*
X4540420Y-14917031D02*
X4549944Y-14936079D01*
X4549944Y-14936079D02*
X4559468Y-14974174D01*
X4559468Y-14974174D02*
X4559468Y-15021793D01*
X4559468Y-15021793D02*
X4549944Y-15059888D01*
X4549944Y-15059888D02*
X4540420Y-15078936D01*
X4540420Y-15078936D02*
X4530896Y-15088460D01*
X4530896Y-15088460D02*
X4511849Y-15097984D01*
X4511849Y-15097984D02*
X4492801Y-15097984D01*
X4492801Y-15097984D02*
X4473753Y-15088460D01*
X4473753Y-15088460D02*
X4464229Y-15078936D01*
X4464229Y-15078936D02*
X4454706Y-15059888D01*
X4454706Y-15059888D02*
X4445182Y-15021793D01*
X4445182Y-15021793D02*
X4445182Y-14974174D01*
X4445182Y-14974174D02*
X4454706Y-14936079D01*
X4454706Y-14936079D02*
X4464229Y-14917031D01*
X4464229Y-14917031D02*
X4473753Y-14907508D01*
X4473753Y-14907508D02*
X4492801Y-14897984D01*
X4654706Y-15097984D02*
X4692801Y-15097984D01*
X4692801Y-15097984D02*
X4711849Y-15088460D01*
X4711849Y-15088460D02*
X4721372Y-15078936D01*
X4721372Y-15078936D02*
X4740420Y-15050365D01*
X4740420Y-15050365D02*
X4749944Y-15012269D01*
X4749944Y-15012269D02*
X4749944Y-14936079D01*
X4749944Y-14936079D02*
X4740420Y-14917031D01*
X4740420Y-14917031D02*
X4730896Y-14907508D01*
X4730896Y-14907508D02*
X4711849Y-14897984D01*
X4711849Y-14897984D02*
X4673753Y-14897984D01*
X4673753Y-14897984D02*
X4654706Y-14907508D01*
X4654706Y-14907508D02*
X4645182Y-14917031D01*
X4645182Y-14917031D02*
X4635658Y-14936079D01*
X4635658Y-14936079D02*
X4635658Y-14983698D01*
X4635658Y-14983698D02*
X4645182Y-15002746D01*
X4645182Y-15002746D02*
X4654706Y-15012269D01*
X4654706Y-15012269D02*
X4673753Y-15021793D01*
X4673753Y-15021793D02*
X4711849Y-15021793D01*
X4711849Y-15021793D02*
X4730896Y-15012269D01*
X4730896Y-15012269D02*
X4740420Y-15002746D01*
X4740420Y-15002746D02*
X4749944Y-14983698D01*
X4826134Y-14897984D02*
X4826134Y-14936079D01*
X4902325Y-14897984D02*
X4902325Y-14936079D01*
X5197563Y-15174174D02*
X5188039Y-15164650D01*
X5188039Y-15164650D02*
X5168991Y-15136079D01*
X5168991Y-15136079D02*
X5159468Y-15117031D01*
X5159468Y-15117031D02*
X5149944Y-15088460D01*
X5149944Y-15088460D02*
X5140420Y-15040841D01*
X5140420Y-15040841D02*
X5140420Y-15002746D01*
X5140420Y-15002746D02*
X5149944Y-14955127D01*
X5149944Y-14955127D02*
X5159468Y-14926555D01*
X5159468Y-14926555D02*
X5168991Y-14907508D01*
X5168991Y-14907508D02*
X5188039Y-14878936D01*
X5188039Y-14878936D02*
X5197563Y-14869412D01*
X5311849Y-14897984D02*
X5330896Y-14897984D01*
X5330896Y-14897984D02*
X5349944Y-14907508D01*
X5349944Y-14907508D02*
X5359468Y-14917031D01*
X5359468Y-14917031D02*
X5368991Y-14936079D01*
X5368991Y-14936079D02*
X5378515Y-14974174D01*
X5378515Y-14974174D02*
X5378515Y-15021793D01*
X5378515Y-15021793D02*
X5368991Y-15059888D01*
X5368991Y-15059888D02*
X5359468Y-15078936D01*
X5359468Y-15078936D02*
X5349944Y-15088460D01*
X5349944Y-15088460D02*
X5330896Y-15097984D01*
X5330896Y-15097984D02*
X5311849Y-15097984D01*
X5311849Y-15097984D02*
X5292801Y-15088460D01*
X5292801Y-15088460D02*
X5283277Y-15078936D01*
X5283277Y-15078936D02*
X5273753Y-15059888D01*
X5273753Y-15059888D02*
X5264230Y-15021793D01*
X5264230Y-15021793D02*
X5264230Y-14974174D01*
X5264230Y-14974174D02*
X5273753Y-14936079D01*
X5273753Y-14936079D02*
X5283277Y-14917031D01*
X5283277Y-14917031D02*
X5292801Y-14907508D01*
X5292801Y-14907508D02*
X5311849Y-14897984D01*
X5616610Y-15097984D02*
X5616610Y-14897984D01*
X5702325Y-15097984D02*
X5702325Y-14993222D01*
X5702325Y-14993222D02*
X5692801Y-14974174D01*
X5692801Y-14974174D02*
X5673753Y-14964650D01*
X5673753Y-14964650D02*
X5645182Y-14964650D01*
X5645182Y-14964650D02*
X5626134Y-14974174D01*
X5626134Y-14974174D02*
X5616610Y-14983698D01*
X5826134Y-15097984D02*
X5807087Y-15088460D01*
X5807087Y-15088460D02*
X5797563Y-15078936D01*
X5797563Y-15078936D02*
X5788039Y-15059888D01*
X5788039Y-15059888D02*
X5788039Y-15002746D01*
X5788039Y-15002746D02*
X5797563Y-14983698D01*
X5797563Y-14983698D02*
X5807087Y-14974174D01*
X5807087Y-14974174D02*
X5826134Y-14964650D01*
X5826134Y-14964650D02*
X5854706Y-14964650D01*
X5854706Y-14964650D02*
X5873753Y-14974174D01*
X5873753Y-14974174D02*
X5883277Y-14983698D01*
X5883277Y-14983698D02*
X5892801Y-15002746D01*
X5892801Y-15002746D02*
X5892801Y-15059888D01*
X5892801Y-15059888D02*
X5883277Y-15078936D01*
X5883277Y-15078936D02*
X5873753Y-15088460D01*
X5873753Y-15088460D02*
X5854706Y-15097984D01*
X5854706Y-15097984D02*
X5826134Y-15097984D01*
X6007087Y-15097984D02*
X5988039Y-15088460D01*
X5988039Y-15088460D02*
X5978515Y-15069412D01*
X5978515Y-15069412D02*
X5978515Y-14897984D01*
X6159468Y-15088460D02*
X6140420Y-15097984D01*
X6140420Y-15097984D02*
X6102325Y-15097984D01*
X6102325Y-15097984D02*
X6083277Y-15088460D01*
X6083277Y-15088460D02*
X6073753Y-15069412D01*
X6073753Y-15069412D02*
X6073753Y-14993222D01*
X6073753Y-14993222D02*
X6083277Y-14974174D01*
X6083277Y-14974174D02*
X6102325Y-14964650D01*
X6102325Y-14964650D02*
X6140420Y-14964650D01*
X6140420Y-14964650D02*
X6159468Y-14974174D01*
X6159468Y-14974174D02*
X6168991Y-14993222D01*
X6168991Y-14993222D02*
X6168991Y-15012269D01*
X6168991Y-15012269D02*
X6073753Y-15031317D01*
X6245182Y-15088460D02*
X6264230Y-15097984D01*
X6264230Y-15097984D02*
X6302325Y-15097984D01*
X6302325Y-15097984D02*
X6321372Y-15088460D01*
X6321372Y-15088460D02*
X6330896Y-15069412D01*
X6330896Y-15069412D02*
X6330896Y-15059888D01*
X6330896Y-15059888D02*
X6321372Y-15040841D01*
X6321372Y-15040841D02*
X6302325Y-15031317D01*
X6302325Y-15031317D02*
X6273753Y-15031317D01*
X6273753Y-15031317D02*
X6254706Y-15021793D01*
X6254706Y-15021793D02*
X6245182Y-15002746D01*
X6245182Y-15002746D02*
X6245182Y-14993222D01*
X6245182Y-14993222D02*
X6254706Y-14974174D01*
X6254706Y-14974174D02*
X6273753Y-14964650D01*
X6273753Y-14964650D02*
X6302325Y-14964650D01*
X6302325Y-14964650D02*
X6321372Y-14974174D01*
X6568992Y-15021793D02*
X6721373Y-15021793D01*
X6645182Y-15097984D02*
X6645182Y-14945603D01*
X7073753Y-15097984D02*
X6959468Y-15097984D01*
X7016611Y-15097984D02*
X7016611Y-14897984D01*
X7016611Y-14897984D02*
X6997563Y-14926555D01*
X6997563Y-14926555D02*
X6978515Y-14945603D01*
X6978515Y-14945603D02*
X6959468Y-14955127D01*
X7245182Y-14897984D02*
X7207087Y-14897984D01*
X7207087Y-14897984D02*
X7188039Y-14907508D01*
X7188039Y-14907508D02*
X7178515Y-14917031D01*
X7178515Y-14917031D02*
X7159468Y-14945603D01*
X7159468Y-14945603D02*
X7149944Y-14983698D01*
X7149944Y-14983698D02*
X7149944Y-15059888D01*
X7149944Y-15059888D02*
X7159468Y-15078936D01*
X7159468Y-15078936D02*
X7168992Y-15088460D01*
X7168992Y-15088460D02*
X7188039Y-15097984D01*
X7188039Y-15097984D02*
X7226134Y-15097984D01*
X7226134Y-15097984D02*
X7245182Y-15088460D01*
X7245182Y-15088460D02*
X7254706Y-15078936D01*
X7254706Y-15078936D02*
X7264230Y-15059888D01*
X7264230Y-15059888D02*
X7264230Y-15012269D01*
X7264230Y-15012269D02*
X7254706Y-14993222D01*
X7254706Y-14993222D02*
X7245182Y-14983698D01*
X7245182Y-14983698D02*
X7226134Y-14974174D01*
X7226134Y-14974174D02*
X7188039Y-14974174D01*
X7188039Y-14974174D02*
X7168992Y-14983698D01*
X7168992Y-14983698D02*
X7159468Y-14993222D01*
X7159468Y-14993222D02*
X7149944Y-15012269D01*
X7492801Y-15088460D02*
X7511849Y-15097984D01*
X7511849Y-15097984D02*
X7549944Y-15097984D01*
X7549944Y-15097984D02*
X7568992Y-15088460D01*
X7568992Y-15088460D02*
X7578515Y-15069412D01*
X7578515Y-15069412D02*
X7578515Y-15059888D01*
X7578515Y-15059888D02*
X7568992Y-15040841D01*
X7568992Y-15040841D02*
X7549944Y-15031317D01*
X7549944Y-15031317D02*
X7521373Y-15031317D01*
X7521373Y-15031317D02*
X7502325Y-15021793D01*
X7502325Y-15021793D02*
X7492801Y-15002746D01*
X7492801Y-15002746D02*
X7492801Y-14993222D01*
X7492801Y-14993222D02*
X7502325Y-14974174D01*
X7502325Y-14974174D02*
X7521373Y-14964650D01*
X7521373Y-14964650D02*
X7549944Y-14964650D01*
X7549944Y-14964650D02*
X7568992Y-14974174D01*
X7692801Y-15097984D02*
X7673754Y-15088460D01*
X7673754Y-15088460D02*
X7664230Y-15069412D01*
X7664230Y-15069412D02*
X7664230Y-14897984D01*
X7797563Y-15097984D02*
X7778515Y-15088460D01*
X7778515Y-15088460D02*
X7768992Y-15078936D01*
X7768992Y-15078936D02*
X7759468Y-15059888D01*
X7759468Y-15059888D02*
X7759468Y-15002746D01*
X7759468Y-15002746D02*
X7768992Y-14983698D01*
X7768992Y-14983698D02*
X7778515Y-14974174D01*
X7778515Y-14974174D02*
X7797563Y-14964650D01*
X7797563Y-14964650D02*
X7826135Y-14964650D01*
X7826135Y-14964650D02*
X7845182Y-14974174D01*
X7845182Y-14974174D02*
X7854706Y-14983698D01*
X7854706Y-14983698D02*
X7864230Y-15002746D01*
X7864230Y-15002746D02*
X7864230Y-15059888D01*
X7864230Y-15059888D02*
X7854706Y-15078936D01*
X7854706Y-15078936D02*
X7845182Y-15088460D01*
X7845182Y-15088460D02*
X7826135Y-15097984D01*
X7826135Y-15097984D02*
X7797563Y-15097984D01*
X7921373Y-14964650D02*
X7997563Y-14964650D01*
X7949944Y-14897984D02*
X7949944Y-15069412D01*
X7949944Y-15069412D02*
X7959468Y-15088460D01*
X7959468Y-15088460D02*
X7978515Y-15097984D01*
X7978515Y-15097984D02*
X7997563Y-15097984D01*
X8054706Y-15088460D02*
X8073754Y-15097984D01*
X8073754Y-15097984D02*
X8111849Y-15097984D01*
X8111849Y-15097984D02*
X8130896Y-15088460D01*
X8130896Y-15088460D02*
X8140420Y-15069412D01*
X8140420Y-15069412D02*
X8140420Y-15059888D01*
X8140420Y-15059888D02*
X8130896Y-15040841D01*
X8130896Y-15040841D02*
X8111849Y-15031317D01*
X8111849Y-15031317D02*
X8083277Y-15031317D01*
X8083277Y-15031317D02*
X8064230Y-15021793D01*
X8064230Y-15021793D02*
X8054706Y-15002746D01*
X8054706Y-15002746D02*
X8054706Y-14993222D01*
X8054706Y-14993222D02*
X8064230Y-14974174D01*
X8064230Y-14974174D02*
X8083277Y-14964650D01*
X8083277Y-14964650D02*
X8111849Y-14964650D01*
X8111849Y-14964650D02*
X8130896Y-14974174D01*
X8207087Y-15174174D02*
X8216611Y-15164650D01*
X8216611Y-15164650D02*
X8235658Y-15136079D01*
X8235658Y-15136079D02*
X8245182Y-15117031D01*
X8245182Y-15117031D02*
X8254706Y-15088460D01*
X8254706Y-15088460D02*
X8264230Y-15040841D01*
X8264230Y-15040841D02*
X8264230Y-15002746D01*
X8264230Y-15002746D02*
X8254706Y-14955127D01*
X8254706Y-14955127D02*
X8245182Y-14926555D01*
X8245182Y-14926555D02*
X8235658Y-14907508D01*
X8235658Y-14907508D02*
X8216611Y-14878936D01*
X8216611Y-14878936D02*
X8207087Y-14869412D01*
M02*
