%TF.GenerationSoftware,KiCad,Pcbnew,9.0.3*%
%TF.CreationDate,2025-08-26T17:21:35-04:00*%
%TF.ProjectId,Oblique Palette 0.5.4 PCB Main,4f626c69-7175-4652-9050-616c65747465,0.5.5*%
%TF.SameCoordinates,Original*%
%TF.FileFunction,Drillmap*%
%TF.FilePolarity,Positive*%
%FSLAX45Y45*%
G04 Gerber Fmt 4.5, Leading zero omitted, Abs format (unit mm)*
G04 Created by KiCad (PCBNEW 9.0.3) date 2025-08-26 17:21:35*
%MOMM*%
%LPD*%
G01*
G04 APERTURE LIST*
%ADD10C,0.050000*%
%ADD11C,0.200000*%
G04 APERTURE END LIST*
D10*
X25125000Y-12266000D02*
G75*
G02*
X24875000Y-12516000I-250000J0D01*
G01*
X24875000Y-12516000D02*
X1875000Y-12516000D01*
X1625000Y-1766000D02*
G75*
G02*
X1875000Y-1516000I250000J0D01*
G01*
X8805000Y-7066000D02*
G75*
G02*
X8595000Y-7066000I-105000J0D01*
G01*
X8595000Y-7066000D02*
G75*
G02*
X8805000Y-7066000I105000J0D01*
G01*
X1875000Y-1516000D02*
X24875000Y-1516000D01*
X25125000Y-1766000D02*
X25125000Y-12266000D01*
X1875000Y-12516000D02*
G75*
G02*
X1625000Y-12266000I0J250000D01*
G01*
X1625000Y-12266000D02*
X1625000Y-1766000D01*
X24875000Y-1516000D02*
G75*
G02*
X25125000Y-1766000I0J-250000D01*
G01*
X17307852Y-7059366D02*
G75*
G02*
X17097852Y-7059366I-105000J0D01*
G01*
X17097852Y-7059366D02*
G75*
G02*
X17307852Y-7059366I105000J0D01*
G01*
D11*
X1883277Y-12829984D02*
X1883277Y-12629984D01*
X1883277Y-12629984D02*
X1930896Y-12629984D01*
X1930896Y-12629984D02*
X1959467Y-12639508D01*
X1959467Y-12639508D02*
X1978515Y-12658555D01*
X1978515Y-12658555D02*
X1988039Y-12677603D01*
X1988039Y-12677603D02*
X1997562Y-12715698D01*
X1997562Y-12715698D02*
X1997562Y-12744269D01*
X1997562Y-12744269D02*
X1988039Y-12782365D01*
X1988039Y-12782365D02*
X1978515Y-12801412D01*
X1978515Y-12801412D02*
X1959467Y-12820460D01*
X1959467Y-12820460D02*
X1930896Y-12829984D01*
X1930896Y-12829984D02*
X1883277Y-12829984D01*
X2083277Y-12829984D02*
X2083277Y-12696650D01*
X2083277Y-12734746D02*
X2092801Y-12715698D01*
X2092801Y-12715698D02*
X2102324Y-12706174D01*
X2102324Y-12706174D02*
X2121372Y-12696650D01*
X2121372Y-12696650D02*
X2140420Y-12696650D01*
X2207086Y-12829984D02*
X2207086Y-12696650D01*
X2207086Y-12629984D02*
X2197563Y-12639508D01*
X2197563Y-12639508D02*
X2207086Y-12649031D01*
X2207086Y-12649031D02*
X2216610Y-12639508D01*
X2216610Y-12639508D02*
X2207086Y-12629984D01*
X2207086Y-12629984D02*
X2207086Y-12649031D01*
X2330896Y-12829984D02*
X2311848Y-12820460D01*
X2311848Y-12820460D02*
X2302324Y-12801412D01*
X2302324Y-12801412D02*
X2302324Y-12629984D01*
X2435658Y-12829984D02*
X2416610Y-12820460D01*
X2416610Y-12820460D02*
X2407086Y-12801412D01*
X2407086Y-12801412D02*
X2407086Y-12629984D01*
X2664229Y-12829984D02*
X2664229Y-12629984D01*
X2664229Y-12629984D02*
X2730896Y-12772841D01*
X2730896Y-12772841D02*
X2797562Y-12629984D01*
X2797562Y-12629984D02*
X2797562Y-12829984D01*
X2978515Y-12829984D02*
X2978515Y-12725222D01*
X2978515Y-12725222D02*
X2968991Y-12706174D01*
X2968991Y-12706174D02*
X2949943Y-12696650D01*
X2949943Y-12696650D02*
X2911848Y-12696650D01*
X2911848Y-12696650D02*
X2892801Y-12706174D01*
X2978515Y-12820460D02*
X2959467Y-12829984D01*
X2959467Y-12829984D02*
X2911848Y-12829984D01*
X2911848Y-12829984D02*
X2892801Y-12820460D01*
X2892801Y-12820460D02*
X2883277Y-12801412D01*
X2883277Y-12801412D02*
X2883277Y-12782365D01*
X2883277Y-12782365D02*
X2892801Y-12763317D01*
X2892801Y-12763317D02*
X2911848Y-12753793D01*
X2911848Y-12753793D02*
X2959467Y-12753793D01*
X2959467Y-12753793D02*
X2978515Y-12744269D01*
X3073753Y-12696650D02*
X3073753Y-12896650D01*
X3073753Y-12706174D02*
X3092801Y-12696650D01*
X3092801Y-12696650D02*
X3130896Y-12696650D01*
X3130896Y-12696650D02*
X3149943Y-12706174D01*
X3149943Y-12706174D02*
X3159467Y-12715698D01*
X3159467Y-12715698D02*
X3168991Y-12734746D01*
X3168991Y-12734746D02*
X3168991Y-12791888D01*
X3168991Y-12791888D02*
X3159467Y-12810936D01*
X3159467Y-12810936D02*
X3149943Y-12820460D01*
X3149943Y-12820460D02*
X3130896Y-12829984D01*
X3130896Y-12829984D02*
X3092801Y-12829984D01*
X3092801Y-12829984D02*
X3073753Y-12820460D01*
X3254705Y-12810936D02*
X3264229Y-12820460D01*
X3264229Y-12820460D02*
X3254705Y-12829984D01*
X3254705Y-12829984D02*
X3245182Y-12820460D01*
X3245182Y-12820460D02*
X3254705Y-12810936D01*
X3254705Y-12810936D02*
X3254705Y-12829984D01*
X3254705Y-12706174D02*
X3264229Y-12715698D01*
X3264229Y-12715698D02*
X3254705Y-12725222D01*
X3254705Y-12725222D02*
X3245182Y-12715698D01*
X3245182Y-12715698D02*
X3254705Y-12706174D01*
X3254705Y-12706174D02*
X3254705Y-12725222D01*
M02*
