G04 #@! TF.GenerationSoftware,KiCad,Pcbnew,9.0.3*
G04 #@! TF.CreationDate,2025-08-26T17:21:35-04:00*
G04 #@! TF.ProjectId,Oblique Palette 0.5.4 PCB Main,4f626c69-7175-4652-9050-616c65747465,0.5.5*
G04 #@! TF.SameCoordinates,Original*
G04 #@! TF.FileFunction,Other,Comment*
%FSLAX46Y46*%
G04 Gerber Fmt 4.6, Leading zero omitted, Abs format (unit mm)*
G04 Created by KiCad (PCBNEW 9.0.3) date 2025-08-26 17:21:35*
%MOMM*%
%LPD*%
G01*
G04 APERTURE LIST*
%ADD10C,0.051000*%
G04 APERTURE END LIST*
D10*
X242615047Y-104836845D02*
X242615047Y-104436845D01*
X242843618Y-104836845D02*
X242672189Y-104608274D01*
X242843618Y-104436845D02*
X242615047Y-104665417D01*
X243015047Y-104627321D02*
X243148380Y-104627321D01*
X243205523Y-104836845D02*
X243015047Y-104836845D01*
X243015047Y-104836845D02*
X243015047Y-104436845D01*
X243015047Y-104436845D02*
X243205523Y-104436845D01*
X243376952Y-104627321D02*
X243510285Y-104627321D01*
X243567428Y-104836845D02*
X243376952Y-104836845D01*
X243376952Y-104836845D02*
X243376952Y-104436845D01*
X243376952Y-104436845D02*
X243567428Y-104436845D01*
X243738857Y-104836845D02*
X243738857Y-104436845D01*
X243738857Y-104436845D02*
X243891238Y-104436845D01*
X243891238Y-104436845D02*
X243929333Y-104455893D01*
X243929333Y-104455893D02*
X243948380Y-104474940D01*
X243948380Y-104474940D02*
X243967428Y-104513036D01*
X243967428Y-104513036D02*
X243967428Y-104570178D01*
X243967428Y-104570178D02*
X243948380Y-104608274D01*
X243948380Y-104608274D02*
X243929333Y-104627321D01*
X243929333Y-104627321D02*
X243891238Y-104646369D01*
X243891238Y-104646369D02*
X243738857Y-104646369D01*
X244215047Y-104436845D02*
X244291238Y-104436845D01*
X244291238Y-104436845D02*
X244329333Y-104455893D01*
X244329333Y-104455893D02*
X244367428Y-104493988D01*
X244367428Y-104493988D02*
X244386476Y-104570178D01*
X244386476Y-104570178D02*
X244386476Y-104703512D01*
X244386476Y-104703512D02*
X244367428Y-104779702D01*
X244367428Y-104779702D02*
X244329333Y-104817798D01*
X244329333Y-104817798D02*
X244291238Y-104836845D01*
X244291238Y-104836845D02*
X244215047Y-104836845D01*
X244215047Y-104836845D02*
X244176952Y-104817798D01*
X244176952Y-104817798D02*
X244138857Y-104779702D01*
X244138857Y-104779702D02*
X244119809Y-104703512D01*
X244119809Y-104703512D02*
X244119809Y-104570178D01*
X244119809Y-104570178D02*
X244138857Y-104493988D01*
X244138857Y-104493988D02*
X244176952Y-104455893D01*
X244176952Y-104455893D02*
X244215047Y-104436845D01*
X244557905Y-104436845D02*
X244557905Y-104760655D01*
X244557905Y-104760655D02*
X244576952Y-104798750D01*
X244576952Y-104798750D02*
X244596000Y-104817798D01*
X244596000Y-104817798D02*
X244634095Y-104836845D01*
X244634095Y-104836845D02*
X244710286Y-104836845D01*
X244710286Y-104836845D02*
X244748381Y-104817798D01*
X244748381Y-104817798D02*
X244767428Y-104798750D01*
X244767428Y-104798750D02*
X244786476Y-104760655D01*
X244786476Y-104760655D02*
X244786476Y-104436845D01*
X244919810Y-104436845D02*
X245148381Y-104436845D01*
X245034095Y-104836845D02*
X245034095Y-104436845D01*
X39184047Y-104926845D02*
X39184047Y-104526845D01*
X39412618Y-104926845D02*
X39241189Y-104698274D01*
X39412618Y-104526845D02*
X39184047Y-104755417D01*
X39584047Y-104717321D02*
X39717380Y-104717321D01*
X39774523Y-104926845D02*
X39584047Y-104926845D01*
X39584047Y-104926845D02*
X39584047Y-104526845D01*
X39584047Y-104526845D02*
X39774523Y-104526845D01*
X39945952Y-104717321D02*
X40079285Y-104717321D01*
X40136428Y-104926845D02*
X39945952Y-104926845D01*
X39945952Y-104926845D02*
X39945952Y-104526845D01*
X39945952Y-104526845D02*
X40136428Y-104526845D01*
X40307857Y-104926845D02*
X40307857Y-104526845D01*
X40307857Y-104526845D02*
X40460238Y-104526845D01*
X40460238Y-104526845D02*
X40498333Y-104545893D01*
X40498333Y-104545893D02*
X40517380Y-104564940D01*
X40517380Y-104564940D02*
X40536428Y-104603036D01*
X40536428Y-104603036D02*
X40536428Y-104660178D01*
X40536428Y-104660178D02*
X40517380Y-104698274D01*
X40517380Y-104698274D02*
X40498333Y-104717321D01*
X40498333Y-104717321D02*
X40460238Y-104736369D01*
X40460238Y-104736369D02*
X40307857Y-104736369D01*
X40784047Y-104526845D02*
X40860238Y-104526845D01*
X40860238Y-104526845D02*
X40898333Y-104545893D01*
X40898333Y-104545893D02*
X40936428Y-104583988D01*
X40936428Y-104583988D02*
X40955476Y-104660178D01*
X40955476Y-104660178D02*
X40955476Y-104793512D01*
X40955476Y-104793512D02*
X40936428Y-104869702D01*
X40936428Y-104869702D02*
X40898333Y-104907798D01*
X40898333Y-104907798D02*
X40860238Y-104926845D01*
X40860238Y-104926845D02*
X40784047Y-104926845D01*
X40784047Y-104926845D02*
X40745952Y-104907798D01*
X40745952Y-104907798D02*
X40707857Y-104869702D01*
X40707857Y-104869702D02*
X40688809Y-104793512D01*
X40688809Y-104793512D02*
X40688809Y-104660178D01*
X40688809Y-104660178D02*
X40707857Y-104583988D01*
X40707857Y-104583988D02*
X40745952Y-104545893D01*
X40745952Y-104545893D02*
X40784047Y-104526845D01*
X41126905Y-104526845D02*
X41126905Y-104850655D01*
X41126905Y-104850655D02*
X41145952Y-104888750D01*
X41145952Y-104888750D02*
X41165000Y-104907798D01*
X41165000Y-104907798D02*
X41203095Y-104926845D01*
X41203095Y-104926845D02*
X41279286Y-104926845D01*
X41279286Y-104926845D02*
X41317381Y-104907798D01*
X41317381Y-104907798D02*
X41336428Y-104888750D01*
X41336428Y-104888750D02*
X41355476Y-104850655D01*
X41355476Y-104850655D02*
X41355476Y-104526845D01*
X41488810Y-104526845D02*
X41717381Y-104526845D01*
X41603095Y-104926845D02*
X41603095Y-104526845D01*
X34418904Y-44349395D02*
X34418904Y-43949395D01*
X34647475Y-44349395D02*
X34476046Y-44120824D01*
X34647475Y-43949395D02*
X34418904Y-44177967D01*
X34818904Y-44139871D02*
X34952237Y-44139871D01*
X35009380Y-44349395D02*
X34818904Y-44349395D01*
X34818904Y-44349395D02*
X34818904Y-43949395D01*
X34818904Y-43949395D02*
X35009380Y-43949395D01*
X35180809Y-44139871D02*
X35314142Y-44139871D01*
X35371285Y-44349395D02*
X35180809Y-44349395D01*
X35180809Y-44349395D02*
X35180809Y-43949395D01*
X35180809Y-43949395D02*
X35371285Y-43949395D01*
X35542714Y-44349395D02*
X35542714Y-43949395D01*
X35542714Y-43949395D02*
X35695095Y-43949395D01*
X35695095Y-43949395D02*
X35733190Y-43968443D01*
X35733190Y-43968443D02*
X35752237Y-43987490D01*
X35752237Y-43987490D02*
X35771285Y-44025586D01*
X35771285Y-44025586D02*
X35771285Y-44082728D01*
X35771285Y-44082728D02*
X35752237Y-44120824D01*
X35752237Y-44120824D02*
X35733190Y-44139871D01*
X35733190Y-44139871D02*
X35695095Y-44158919D01*
X35695095Y-44158919D02*
X35542714Y-44158919D01*
X36018904Y-43949395D02*
X36095095Y-43949395D01*
X36095095Y-43949395D02*
X36133190Y-43968443D01*
X36133190Y-43968443D02*
X36171285Y-44006538D01*
X36171285Y-44006538D02*
X36190333Y-44082728D01*
X36190333Y-44082728D02*
X36190333Y-44216062D01*
X36190333Y-44216062D02*
X36171285Y-44292252D01*
X36171285Y-44292252D02*
X36133190Y-44330348D01*
X36133190Y-44330348D02*
X36095095Y-44349395D01*
X36095095Y-44349395D02*
X36018904Y-44349395D01*
X36018904Y-44349395D02*
X35980809Y-44330348D01*
X35980809Y-44330348D02*
X35942714Y-44292252D01*
X35942714Y-44292252D02*
X35923666Y-44216062D01*
X35923666Y-44216062D02*
X35923666Y-44082728D01*
X35923666Y-44082728D02*
X35942714Y-44006538D01*
X35942714Y-44006538D02*
X35980809Y-43968443D01*
X35980809Y-43968443D02*
X36018904Y-43949395D01*
X36361762Y-43949395D02*
X36361762Y-44273205D01*
X36361762Y-44273205D02*
X36380809Y-44311300D01*
X36380809Y-44311300D02*
X36399857Y-44330348D01*
X36399857Y-44330348D02*
X36437952Y-44349395D01*
X36437952Y-44349395D02*
X36514143Y-44349395D01*
X36514143Y-44349395D02*
X36552238Y-44330348D01*
X36552238Y-44330348D02*
X36571285Y-44311300D01*
X36571285Y-44311300D02*
X36590333Y-44273205D01*
X36590333Y-44273205D02*
X36590333Y-43949395D01*
X36723667Y-43949395D02*
X36952238Y-43949395D01*
X36837952Y-44349395D02*
X36837952Y-43949395D01*
X59668904Y-44349395D02*
X59668904Y-43949395D01*
X59897475Y-44349395D02*
X59726046Y-44120824D01*
X59897475Y-43949395D02*
X59668904Y-44177967D01*
X60068904Y-44139871D02*
X60202237Y-44139871D01*
X60259380Y-44349395D02*
X60068904Y-44349395D01*
X60068904Y-44349395D02*
X60068904Y-43949395D01*
X60068904Y-43949395D02*
X60259380Y-43949395D01*
X60430809Y-44139871D02*
X60564142Y-44139871D01*
X60621285Y-44349395D02*
X60430809Y-44349395D01*
X60430809Y-44349395D02*
X60430809Y-43949395D01*
X60430809Y-43949395D02*
X60621285Y-43949395D01*
X60792714Y-44349395D02*
X60792714Y-43949395D01*
X60792714Y-43949395D02*
X60945095Y-43949395D01*
X60945095Y-43949395D02*
X60983190Y-43968443D01*
X60983190Y-43968443D02*
X61002237Y-43987490D01*
X61002237Y-43987490D02*
X61021285Y-44025586D01*
X61021285Y-44025586D02*
X61021285Y-44082728D01*
X61021285Y-44082728D02*
X61002237Y-44120824D01*
X61002237Y-44120824D02*
X60983190Y-44139871D01*
X60983190Y-44139871D02*
X60945095Y-44158919D01*
X60945095Y-44158919D02*
X60792714Y-44158919D01*
X61268904Y-43949395D02*
X61345095Y-43949395D01*
X61345095Y-43949395D02*
X61383190Y-43968443D01*
X61383190Y-43968443D02*
X61421285Y-44006538D01*
X61421285Y-44006538D02*
X61440333Y-44082728D01*
X61440333Y-44082728D02*
X61440333Y-44216062D01*
X61440333Y-44216062D02*
X61421285Y-44292252D01*
X61421285Y-44292252D02*
X61383190Y-44330348D01*
X61383190Y-44330348D02*
X61345095Y-44349395D01*
X61345095Y-44349395D02*
X61268904Y-44349395D01*
X61268904Y-44349395D02*
X61230809Y-44330348D01*
X61230809Y-44330348D02*
X61192714Y-44292252D01*
X61192714Y-44292252D02*
X61173666Y-44216062D01*
X61173666Y-44216062D02*
X61173666Y-44082728D01*
X61173666Y-44082728D02*
X61192714Y-44006538D01*
X61192714Y-44006538D02*
X61230809Y-43968443D01*
X61230809Y-43968443D02*
X61268904Y-43949395D01*
X61611762Y-43949395D02*
X61611762Y-44273205D01*
X61611762Y-44273205D02*
X61630809Y-44311300D01*
X61630809Y-44311300D02*
X61649857Y-44330348D01*
X61649857Y-44330348D02*
X61687952Y-44349395D01*
X61687952Y-44349395D02*
X61764143Y-44349395D01*
X61764143Y-44349395D02*
X61802238Y-44330348D01*
X61802238Y-44330348D02*
X61821285Y-44311300D01*
X61821285Y-44311300D02*
X61840333Y-44273205D01*
X61840333Y-44273205D02*
X61840333Y-43949395D01*
X61973667Y-43949395D02*
X62202238Y-43949395D01*
X62087952Y-44349395D02*
X62087952Y-43949395D01*
X68209904Y-104836845D02*
X68209904Y-104436845D01*
X68438475Y-104836845D02*
X68267046Y-104608274D01*
X68438475Y-104436845D02*
X68209904Y-104665417D01*
X68609904Y-104627321D02*
X68743237Y-104627321D01*
X68800380Y-104836845D02*
X68609904Y-104836845D01*
X68609904Y-104836845D02*
X68609904Y-104436845D01*
X68609904Y-104436845D02*
X68800380Y-104436845D01*
X68971809Y-104627321D02*
X69105142Y-104627321D01*
X69162285Y-104836845D02*
X68971809Y-104836845D01*
X68971809Y-104836845D02*
X68971809Y-104436845D01*
X68971809Y-104436845D02*
X69162285Y-104436845D01*
X69333714Y-104836845D02*
X69333714Y-104436845D01*
X69333714Y-104436845D02*
X69486095Y-104436845D01*
X69486095Y-104436845D02*
X69524190Y-104455893D01*
X69524190Y-104455893D02*
X69543237Y-104474940D01*
X69543237Y-104474940D02*
X69562285Y-104513036D01*
X69562285Y-104513036D02*
X69562285Y-104570178D01*
X69562285Y-104570178D02*
X69543237Y-104608274D01*
X69543237Y-104608274D02*
X69524190Y-104627321D01*
X69524190Y-104627321D02*
X69486095Y-104646369D01*
X69486095Y-104646369D02*
X69333714Y-104646369D01*
X69809904Y-104436845D02*
X69886095Y-104436845D01*
X69886095Y-104436845D02*
X69924190Y-104455893D01*
X69924190Y-104455893D02*
X69962285Y-104493988D01*
X69962285Y-104493988D02*
X69981333Y-104570178D01*
X69981333Y-104570178D02*
X69981333Y-104703512D01*
X69981333Y-104703512D02*
X69962285Y-104779702D01*
X69962285Y-104779702D02*
X69924190Y-104817798D01*
X69924190Y-104817798D02*
X69886095Y-104836845D01*
X69886095Y-104836845D02*
X69809904Y-104836845D01*
X69809904Y-104836845D02*
X69771809Y-104817798D01*
X69771809Y-104817798D02*
X69733714Y-104779702D01*
X69733714Y-104779702D02*
X69714666Y-104703512D01*
X69714666Y-104703512D02*
X69714666Y-104570178D01*
X69714666Y-104570178D02*
X69733714Y-104493988D01*
X69733714Y-104493988D02*
X69771809Y-104455893D01*
X69771809Y-104455893D02*
X69809904Y-104436845D01*
X70152762Y-104436845D02*
X70152762Y-104760655D01*
X70152762Y-104760655D02*
X70171809Y-104798750D01*
X70171809Y-104798750D02*
X70190857Y-104817798D01*
X70190857Y-104817798D02*
X70228952Y-104836845D01*
X70228952Y-104836845D02*
X70305143Y-104836845D01*
X70305143Y-104836845D02*
X70343238Y-104817798D01*
X70343238Y-104817798D02*
X70362285Y-104798750D01*
X70362285Y-104798750D02*
X70381333Y-104760655D01*
X70381333Y-104760655D02*
X70381333Y-104436845D01*
X70514667Y-104436845D02*
X70743238Y-104436845D01*
X70628952Y-104836845D02*
X70628952Y-104436845D01*
X184313333Y-104836845D02*
X184313333Y-104436845D01*
X184541904Y-104836845D02*
X184370475Y-104608274D01*
X184541904Y-104436845D02*
X184313333Y-104665417D01*
X184713333Y-104627321D02*
X184846666Y-104627321D01*
X184903809Y-104836845D02*
X184713333Y-104836845D01*
X184713333Y-104836845D02*
X184713333Y-104436845D01*
X184713333Y-104436845D02*
X184903809Y-104436845D01*
X185075238Y-104627321D02*
X185208571Y-104627321D01*
X185265714Y-104836845D02*
X185075238Y-104836845D01*
X185075238Y-104836845D02*
X185075238Y-104436845D01*
X185075238Y-104436845D02*
X185265714Y-104436845D01*
X185437143Y-104836845D02*
X185437143Y-104436845D01*
X185437143Y-104436845D02*
X185589524Y-104436845D01*
X185589524Y-104436845D02*
X185627619Y-104455893D01*
X185627619Y-104455893D02*
X185646666Y-104474940D01*
X185646666Y-104474940D02*
X185665714Y-104513036D01*
X185665714Y-104513036D02*
X185665714Y-104570178D01*
X185665714Y-104570178D02*
X185646666Y-104608274D01*
X185646666Y-104608274D02*
X185627619Y-104627321D01*
X185627619Y-104627321D02*
X185589524Y-104646369D01*
X185589524Y-104646369D02*
X185437143Y-104646369D01*
X185913333Y-104436845D02*
X185989524Y-104436845D01*
X185989524Y-104436845D02*
X186027619Y-104455893D01*
X186027619Y-104455893D02*
X186065714Y-104493988D01*
X186065714Y-104493988D02*
X186084762Y-104570178D01*
X186084762Y-104570178D02*
X186084762Y-104703512D01*
X186084762Y-104703512D02*
X186065714Y-104779702D01*
X186065714Y-104779702D02*
X186027619Y-104817798D01*
X186027619Y-104817798D02*
X185989524Y-104836845D01*
X185989524Y-104836845D02*
X185913333Y-104836845D01*
X185913333Y-104836845D02*
X185875238Y-104817798D01*
X185875238Y-104817798D02*
X185837143Y-104779702D01*
X185837143Y-104779702D02*
X185818095Y-104703512D01*
X185818095Y-104703512D02*
X185818095Y-104570178D01*
X185818095Y-104570178D02*
X185837143Y-104493988D01*
X185837143Y-104493988D02*
X185875238Y-104455893D01*
X185875238Y-104455893D02*
X185913333Y-104436845D01*
X186256191Y-104436845D02*
X186256191Y-104760655D01*
X186256191Y-104760655D02*
X186275238Y-104798750D01*
X186275238Y-104798750D02*
X186294286Y-104817798D01*
X186294286Y-104817798D02*
X186332381Y-104836845D01*
X186332381Y-104836845D02*
X186408572Y-104836845D01*
X186408572Y-104836845D02*
X186446667Y-104817798D01*
X186446667Y-104817798D02*
X186465714Y-104798750D01*
X186465714Y-104798750D02*
X186484762Y-104760655D01*
X186484762Y-104760655D02*
X186484762Y-104436845D01*
X186618096Y-104436845D02*
X186846667Y-104436845D01*
X186732381Y-104836845D02*
X186732381Y-104436845D01*
X185918904Y-44349395D02*
X185918904Y-43949395D01*
X186147475Y-44349395D02*
X185976046Y-44120824D01*
X186147475Y-43949395D02*
X185918904Y-44177967D01*
X186318904Y-44139871D02*
X186452237Y-44139871D01*
X186509380Y-44349395D02*
X186318904Y-44349395D01*
X186318904Y-44349395D02*
X186318904Y-43949395D01*
X186318904Y-43949395D02*
X186509380Y-43949395D01*
X186680809Y-44139871D02*
X186814142Y-44139871D01*
X186871285Y-44349395D02*
X186680809Y-44349395D01*
X186680809Y-44349395D02*
X186680809Y-43949395D01*
X186680809Y-43949395D02*
X186871285Y-43949395D01*
X187042714Y-44349395D02*
X187042714Y-43949395D01*
X187042714Y-43949395D02*
X187195095Y-43949395D01*
X187195095Y-43949395D02*
X187233190Y-43968443D01*
X187233190Y-43968443D02*
X187252237Y-43987490D01*
X187252237Y-43987490D02*
X187271285Y-44025586D01*
X187271285Y-44025586D02*
X187271285Y-44082728D01*
X187271285Y-44082728D02*
X187252237Y-44120824D01*
X187252237Y-44120824D02*
X187233190Y-44139871D01*
X187233190Y-44139871D02*
X187195095Y-44158919D01*
X187195095Y-44158919D02*
X187042714Y-44158919D01*
X187518904Y-43949395D02*
X187595095Y-43949395D01*
X187595095Y-43949395D02*
X187633190Y-43968443D01*
X187633190Y-43968443D02*
X187671285Y-44006538D01*
X187671285Y-44006538D02*
X187690333Y-44082728D01*
X187690333Y-44082728D02*
X187690333Y-44216062D01*
X187690333Y-44216062D02*
X187671285Y-44292252D01*
X187671285Y-44292252D02*
X187633190Y-44330348D01*
X187633190Y-44330348D02*
X187595095Y-44349395D01*
X187595095Y-44349395D02*
X187518904Y-44349395D01*
X187518904Y-44349395D02*
X187480809Y-44330348D01*
X187480809Y-44330348D02*
X187442714Y-44292252D01*
X187442714Y-44292252D02*
X187423666Y-44216062D01*
X187423666Y-44216062D02*
X187423666Y-44082728D01*
X187423666Y-44082728D02*
X187442714Y-44006538D01*
X187442714Y-44006538D02*
X187480809Y-43968443D01*
X187480809Y-43968443D02*
X187518904Y-43949395D01*
X187861762Y-43949395D02*
X187861762Y-44273205D01*
X187861762Y-44273205D02*
X187880809Y-44311300D01*
X187880809Y-44311300D02*
X187899857Y-44330348D01*
X187899857Y-44330348D02*
X187937952Y-44349395D01*
X187937952Y-44349395D02*
X188014143Y-44349395D01*
X188014143Y-44349395D02*
X188052238Y-44330348D01*
X188052238Y-44330348D02*
X188071285Y-44311300D01*
X188071285Y-44311300D02*
X188090333Y-44273205D01*
X188090333Y-44273205D02*
X188090333Y-43949395D01*
X188223667Y-43949395D02*
X188452238Y-43949395D01*
X188337952Y-44349395D02*
X188337952Y-43949395D01*
X160668904Y-44349395D02*
X160668904Y-43949395D01*
X160897475Y-44349395D02*
X160726046Y-44120824D01*
X160897475Y-43949395D02*
X160668904Y-44177967D01*
X161068904Y-44139871D02*
X161202237Y-44139871D01*
X161259380Y-44349395D02*
X161068904Y-44349395D01*
X161068904Y-44349395D02*
X161068904Y-43949395D01*
X161068904Y-43949395D02*
X161259380Y-43949395D01*
X161430809Y-44139871D02*
X161564142Y-44139871D01*
X161621285Y-44349395D02*
X161430809Y-44349395D01*
X161430809Y-44349395D02*
X161430809Y-43949395D01*
X161430809Y-43949395D02*
X161621285Y-43949395D01*
X161792714Y-44349395D02*
X161792714Y-43949395D01*
X161792714Y-43949395D02*
X161945095Y-43949395D01*
X161945095Y-43949395D02*
X161983190Y-43968443D01*
X161983190Y-43968443D02*
X162002237Y-43987490D01*
X162002237Y-43987490D02*
X162021285Y-44025586D01*
X162021285Y-44025586D02*
X162021285Y-44082728D01*
X162021285Y-44082728D02*
X162002237Y-44120824D01*
X162002237Y-44120824D02*
X161983190Y-44139871D01*
X161983190Y-44139871D02*
X161945095Y-44158919D01*
X161945095Y-44158919D02*
X161792714Y-44158919D01*
X162268904Y-43949395D02*
X162345095Y-43949395D01*
X162345095Y-43949395D02*
X162383190Y-43968443D01*
X162383190Y-43968443D02*
X162421285Y-44006538D01*
X162421285Y-44006538D02*
X162440333Y-44082728D01*
X162440333Y-44082728D02*
X162440333Y-44216062D01*
X162440333Y-44216062D02*
X162421285Y-44292252D01*
X162421285Y-44292252D02*
X162383190Y-44330348D01*
X162383190Y-44330348D02*
X162345095Y-44349395D01*
X162345095Y-44349395D02*
X162268904Y-44349395D01*
X162268904Y-44349395D02*
X162230809Y-44330348D01*
X162230809Y-44330348D02*
X162192714Y-44292252D01*
X162192714Y-44292252D02*
X162173666Y-44216062D01*
X162173666Y-44216062D02*
X162173666Y-44082728D01*
X162173666Y-44082728D02*
X162192714Y-44006538D01*
X162192714Y-44006538D02*
X162230809Y-43968443D01*
X162230809Y-43968443D02*
X162268904Y-43949395D01*
X162611762Y-43949395D02*
X162611762Y-44273205D01*
X162611762Y-44273205D02*
X162630809Y-44311300D01*
X162630809Y-44311300D02*
X162649857Y-44330348D01*
X162649857Y-44330348D02*
X162687952Y-44349395D01*
X162687952Y-44349395D02*
X162764143Y-44349395D01*
X162764143Y-44349395D02*
X162802238Y-44330348D01*
X162802238Y-44330348D02*
X162821285Y-44311300D01*
X162821285Y-44311300D02*
X162840333Y-44273205D01*
X162840333Y-44273205D02*
X162840333Y-43949395D01*
X162973667Y-43949395D02*
X163202238Y-43949395D01*
X163087952Y-44349395D02*
X163087952Y-43949395D01*
X213339190Y-104836845D02*
X213339190Y-104436845D01*
X213567761Y-104836845D02*
X213396332Y-104608274D01*
X213567761Y-104436845D02*
X213339190Y-104665417D01*
X213739190Y-104627321D02*
X213872523Y-104627321D01*
X213929666Y-104836845D02*
X213739190Y-104836845D01*
X213739190Y-104836845D02*
X213739190Y-104436845D01*
X213739190Y-104436845D02*
X213929666Y-104436845D01*
X214101095Y-104627321D02*
X214234428Y-104627321D01*
X214291571Y-104836845D02*
X214101095Y-104836845D01*
X214101095Y-104836845D02*
X214101095Y-104436845D01*
X214101095Y-104436845D02*
X214291571Y-104436845D01*
X214463000Y-104836845D02*
X214463000Y-104436845D01*
X214463000Y-104436845D02*
X214615381Y-104436845D01*
X214615381Y-104436845D02*
X214653476Y-104455893D01*
X214653476Y-104455893D02*
X214672523Y-104474940D01*
X214672523Y-104474940D02*
X214691571Y-104513036D01*
X214691571Y-104513036D02*
X214691571Y-104570178D01*
X214691571Y-104570178D02*
X214672523Y-104608274D01*
X214672523Y-104608274D02*
X214653476Y-104627321D01*
X214653476Y-104627321D02*
X214615381Y-104646369D01*
X214615381Y-104646369D02*
X214463000Y-104646369D01*
X214939190Y-104436845D02*
X215015381Y-104436845D01*
X215015381Y-104436845D02*
X215053476Y-104455893D01*
X215053476Y-104455893D02*
X215091571Y-104493988D01*
X215091571Y-104493988D02*
X215110619Y-104570178D01*
X215110619Y-104570178D02*
X215110619Y-104703512D01*
X215110619Y-104703512D02*
X215091571Y-104779702D01*
X215091571Y-104779702D02*
X215053476Y-104817798D01*
X215053476Y-104817798D02*
X215015381Y-104836845D01*
X215015381Y-104836845D02*
X214939190Y-104836845D01*
X214939190Y-104836845D02*
X214901095Y-104817798D01*
X214901095Y-104817798D02*
X214863000Y-104779702D01*
X214863000Y-104779702D02*
X214843952Y-104703512D01*
X214843952Y-104703512D02*
X214843952Y-104570178D01*
X214843952Y-104570178D02*
X214863000Y-104493988D01*
X214863000Y-104493988D02*
X214901095Y-104455893D01*
X214901095Y-104455893D02*
X214939190Y-104436845D01*
X215282048Y-104436845D02*
X215282048Y-104760655D01*
X215282048Y-104760655D02*
X215301095Y-104798750D01*
X215301095Y-104798750D02*
X215320143Y-104817798D01*
X215320143Y-104817798D02*
X215358238Y-104836845D01*
X215358238Y-104836845D02*
X215434429Y-104836845D01*
X215434429Y-104836845D02*
X215472524Y-104817798D01*
X215472524Y-104817798D02*
X215491571Y-104798750D01*
X215491571Y-104798750D02*
X215510619Y-104760655D01*
X215510619Y-104760655D02*
X215510619Y-104436845D01*
X215643953Y-104436845D02*
X215872524Y-104436845D01*
X215758238Y-104836845D02*
X215758238Y-104436845D01*
X97235761Y-104836845D02*
X97235761Y-104436845D01*
X97464332Y-104836845D02*
X97292903Y-104608274D01*
X97464332Y-104436845D02*
X97235761Y-104665417D01*
X97635761Y-104627321D02*
X97769094Y-104627321D01*
X97826237Y-104836845D02*
X97635761Y-104836845D01*
X97635761Y-104836845D02*
X97635761Y-104436845D01*
X97635761Y-104436845D02*
X97826237Y-104436845D01*
X97997666Y-104627321D02*
X98130999Y-104627321D01*
X98188142Y-104836845D02*
X97997666Y-104836845D01*
X97997666Y-104836845D02*
X97997666Y-104436845D01*
X97997666Y-104436845D02*
X98188142Y-104436845D01*
X98359571Y-104836845D02*
X98359571Y-104436845D01*
X98359571Y-104436845D02*
X98511952Y-104436845D01*
X98511952Y-104436845D02*
X98550047Y-104455893D01*
X98550047Y-104455893D02*
X98569094Y-104474940D01*
X98569094Y-104474940D02*
X98588142Y-104513036D01*
X98588142Y-104513036D02*
X98588142Y-104570178D01*
X98588142Y-104570178D02*
X98569094Y-104608274D01*
X98569094Y-104608274D02*
X98550047Y-104627321D01*
X98550047Y-104627321D02*
X98511952Y-104646369D01*
X98511952Y-104646369D02*
X98359571Y-104646369D01*
X98835761Y-104436845D02*
X98911952Y-104436845D01*
X98911952Y-104436845D02*
X98950047Y-104455893D01*
X98950047Y-104455893D02*
X98988142Y-104493988D01*
X98988142Y-104493988D02*
X99007190Y-104570178D01*
X99007190Y-104570178D02*
X99007190Y-104703512D01*
X99007190Y-104703512D02*
X98988142Y-104779702D01*
X98988142Y-104779702D02*
X98950047Y-104817798D01*
X98950047Y-104817798D02*
X98911952Y-104836845D01*
X98911952Y-104836845D02*
X98835761Y-104836845D01*
X98835761Y-104836845D02*
X98797666Y-104817798D01*
X98797666Y-104817798D02*
X98759571Y-104779702D01*
X98759571Y-104779702D02*
X98740523Y-104703512D01*
X98740523Y-104703512D02*
X98740523Y-104570178D01*
X98740523Y-104570178D02*
X98759571Y-104493988D01*
X98759571Y-104493988D02*
X98797666Y-104455893D01*
X98797666Y-104455893D02*
X98835761Y-104436845D01*
X99178619Y-104436845D02*
X99178619Y-104760655D01*
X99178619Y-104760655D02*
X99197666Y-104798750D01*
X99197666Y-104798750D02*
X99216714Y-104817798D01*
X99216714Y-104817798D02*
X99254809Y-104836845D01*
X99254809Y-104836845D02*
X99331000Y-104836845D01*
X99331000Y-104836845D02*
X99369095Y-104817798D01*
X99369095Y-104817798D02*
X99388142Y-104798750D01*
X99388142Y-104798750D02*
X99407190Y-104760655D01*
X99407190Y-104760655D02*
X99407190Y-104436845D01*
X99540524Y-104436845D02*
X99769095Y-104436845D01*
X99654809Y-104836845D02*
X99654809Y-104436845D01*
X155287476Y-104836845D02*
X155287476Y-104436845D01*
X155516047Y-104836845D02*
X155344618Y-104608274D01*
X155516047Y-104436845D02*
X155287476Y-104665417D01*
X155687476Y-104627321D02*
X155820809Y-104627321D01*
X155877952Y-104836845D02*
X155687476Y-104836845D01*
X155687476Y-104836845D02*
X155687476Y-104436845D01*
X155687476Y-104436845D02*
X155877952Y-104436845D01*
X156049381Y-104627321D02*
X156182714Y-104627321D01*
X156239857Y-104836845D02*
X156049381Y-104836845D01*
X156049381Y-104836845D02*
X156049381Y-104436845D01*
X156049381Y-104436845D02*
X156239857Y-104436845D01*
X156411286Y-104836845D02*
X156411286Y-104436845D01*
X156411286Y-104436845D02*
X156563667Y-104436845D01*
X156563667Y-104436845D02*
X156601762Y-104455893D01*
X156601762Y-104455893D02*
X156620809Y-104474940D01*
X156620809Y-104474940D02*
X156639857Y-104513036D01*
X156639857Y-104513036D02*
X156639857Y-104570178D01*
X156639857Y-104570178D02*
X156620809Y-104608274D01*
X156620809Y-104608274D02*
X156601762Y-104627321D01*
X156601762Y-104627321D02*
X156563667Y-104646369D01*
X156563667Y-104646369D02*
X156411286Y-104646369D01*
X156887476Y-104436845D02*
X156963667Y-104436845D01*
X156963667Y-104436845D02*
X157001762Y-104455893D01*
X157001762Y-104455893D02*
X157039857Y-104493988D01*
X157039857Y-104493988D02*
X157058905Y-104570178D01*
X157058905Y-104570178D02*
X157058905Y-104703512D01*
X157058905Y-104703512D02*
X157039857Y-104779702D01*
X157039857Y-104779702D02*
X157001762Y-104817798D01*
X157001762Y-104817798D02*
X156963667Y-104836845D01*
X156963667Y-104836845D02*
X156887476Y-104836845D01*
X156887476Y-104836845D02*
X156849381Y-104817798D01*
X156849381Y-104817798D02*
X156811286Y-104779702D01*
X156811286Y-104779702D02*
X156792238Y-104703512D01*
X156792238Y-104703512D02*
X156792238Y-104570178D01*
X156792238Y-104570178D02*
X156811286Y-104493988D01*
X156811286Y-104493988D02*
X156849381Y-104455893D01*
X156849381Y-104455893D02*
X156887476Y-104436845D01*
X157230334Y-104436845D02*
X157230334Y-104760655D01*
X157230334Y-104760655D02*
X157249381Y-104798750D01*
X157249381Y-104798750D02*
X157268429Y-104817798D01*
X157268429Y-104817798D02*
X157306524Y-104836845D01*
X157306524Y-104836845D02*
X157382715Y-104836845D01*
X157382715Y-104836845D02*
X157420810Y-104817798D01*
X157420810Y-104817798D02*
X157439857Y-104798750D01*
X157439857Y-104798750D02*
X157458905Y-104760655D01*
X157458905Y-104760655D02*
X157458905Y-104436845D01*
X157592239Y-104436845D02*
X157820810Y-104436845D01*
X157706524Y-104836845D02*
X157706524Y-104436845D01*
X135418904Y-44349395D02*
X135418904Y-43949395D01*
X135647475Y-44349395D02*
X135476046Y-44120824D01*
X135647475Y-43949395D02*
X135418904Y-44177967D01*
X135818904Y-44139871D02*
X135952237Y-44139871D01*
X136009380Y-44349395D02*
X135818904Y-44349395D01*
X135818904Y-44349395D02*
X135818904Y-43949395D01*
X135818904Y-43949395D02*
X136009380Y-43949395D01*
X136180809Y-44139871D02*
X136314142Y-44139871D01*
X136371285Y-44349395D02*
X136180809Y-44349395D01*
X136180809Y-44349395D02*
X136180809Y-43949395D01*
X136180809Y-43949395D02*
X136371285Y-43949395D01*
X136542714Y-44349395D02*
X136542714Y-43949395D01*
X136542714Y-43949395D02*
X136695095Y-43949395D01*
X136695095Y-43949395D02*
X136733190Y-43968443D01*
X136733190Y-43968443D02*
X136752237Y-43987490D01*
X136752237Y-43987490D02*
X136771285Y-44025586D01*
X136771285Y-44025586D02*
X136771285Y-44082728D01*
X136771285Y-44082728D02*
X136752237Y-44120824D01*
X136752237Y-44120824D02*
X136733190Y-44139871D01*
X136733190Y-44139871D02*
X136695095Y-44158919D01*
X136695095Y-44158919D02*
X136542714Y-44158919D01*
X137018904Y-43949395D02*
X137095095Y-43949395D01*
X137095095Y-43949395D02*
X137133190Y-43968443D01*
X137133190Y-43968443D02*
X137171285Y-44006538D01*
X137171285Y-44006538D02*
X137190333Y-44082728D01*
X137190333Y-44082728D02*
X137190333Y-44216062D01*
X137190333Y-44216062D02*
X137171285Y-44292252D01*
X137171285Y-44292252D02*
X137133190Y-44330348D01*
X137133190Y-44330348D02*
X137095095Y-44349395D01*
X137095095Y-44349395D02*
X137018904Y-44349395D01*
X137018904Y-44349395D02*
X136980809Y-44330348D01*
X136980809Y-44330348D02*
X136942714Y-44292252D01*
X136942714Y-44292252D02*
X136923666Y-44216062D01*
X136923666Y-44216062D02*
X136923666Y-44082728D01*
X136923666Y-44082728D02*
X136942714Y-44006538D01*
X136942714Y-44006538D02*
X136980809Y-43968443D01*
X136980809Y-43968443D02*
X137018904Y-43949395D01*
X137361762Y-43949395D02*
X137361762Y-44273205D01*
X137361762Y-44273205D02*
X137380809Y-44311300D01*
X137380809Y-44311300D02*
X137399857Y-44330348D01*
X137399857Y-44330348D02*
X137437952Y-44349395D01*
X137437952Y-44349395D02*
X137514143Y-44349395D01*
X137514143Y-44349395D02*
X137552238Y-44330348D01*
X137552238Y-44330348D02*
X137571285Y-44311300D01*
X137571285Y-44311300D02*
X137590333Y-44273205D01*
X137590333Y-44273205D02*
X137590333Y-43949395D01*
X137723667Y-43949395D02*
X137952238Y-43949395D01*
X137837952Y-44349395D02*
X137837952Y-43949395D01*
X211168904Y-44349395D02*
X211168904Y-43949395D01*
X211397475Y-44349395D02*
X211226046Y-44120824D01*
X211397475Y-43949395D02*
X211168904Y-44177967D01*
X211568904Y-44139871D02*
X211702237Y-44139871D01*
X211759380Y-44349395D02*
X211568904Y-44349395D01*
X211568904Y-44349395D02*
X211568904Y-43949395D01*
X211568904Y-43949395D02*
X211759380Y-43949395D01*
X211930809Y-44139871D02*
X212064142Y-44139871D01*
X212121285Y-44349395D02*
X211930809Y-44349395D01*
X211930809Y-44349395D02*
X211930809Y-43949395D01*
X211930809Y-43949395D02*
X212121285Y-43949395D01*
X212292714Y-44349395D02*
X212292714Y-43949395D01*
X212292714Y-43949395D02*
X212445095Y-43949395D01*
X212445095Y-43949395D02*
X212483190Y-43968443D01*
X212483190Y-43968443D02*
X212502237Y-43987490D01*
X212502237Y-43987490D02*
X212521285Y-44025586D01*
X212521285Y-44025586D02*
X212521285Y-44082728D01*
X212521285Y-44082728D02*
X212502237Y-44120824D01*
X212502237Y-44120824D02*
X212483190Y-44139871D01*
X212483190Y-44139871D02*
X212445095Y-44158919D01*
X212445095Y-44158919D02*
X212292714Y-44158919D01*
X212768904Y-43949395D02*
X212845095Y-43949395D01*
X212845095Y-43949395D02*
X212883190Y-43968443D01*
X212883190Y-43968443D02*
X212921285Y-44006538D01*
X212921285Y-44006538D02*
X212940333Y-44082728D01*
X212940333Y-44082728D02*
X212940333Y-44216062D01*
X212940333Y-44216062D02*
X212921285Y-44292252D01*
X212921285Y-44292252D02*
X212883190Y-44330348D01*
X212883190Y-44330348D02*
X212845095Y-44349395D01*
X212845095Y-44349395D02*
X212768904Y-44349395D01*
X212768904Y-44349395D02*
X212730809Y-44330348D01*
X212730809Y-44330348D02*
X212692714Y-44292252D01*
X212692714Y-44292252D02*
X212673666Y-44216062D01*
X212673666Y-44216062D02*
X212673666Y-44082728D01*
X212673666Y-44082728D02*
X212692714Y-44006538D01*
X212692714Y-44006538D02*
X212730809Y-43968443D01*
X212730809Y-43968443D02*
X212768904Y-43949395D01*
X213111762Y-43949395D02*
X213111762Y-44273205D01*
X213111762Y-44273205D02*
X213130809Y-44311300D01*
X213130809Y-44311300D02*
X213149857Y-44330348D01*
X213149857Y-44330348D02*
X213187952Y-44349395D01*
X213187952Y-44349395D02*
X213264143Y-44349395D01*
X213264143Y-44349395D02*
X213302238Y-44330348D01*
X213302238Y-44330348D02*
X213321285Y-44311300D01*
X213321285Y-44311300D02*
X213340333Y-44273205D01*
X213340333Y-44273205D02*
X213340333Y-43949395D01*
X213473667Y-43949395D02*
X213702238Y-43949395D01*
X213587952Y-44349395D02*
X213587952Y-43949395D01*
X126261618Y-104836845D02*
X126261618Y-104436845D01*
X126490189Y-104836845D02*
X126318760Y-104608274D01*
X126490189Y-104436845D02*
X126261618Y-104665417D01*
X126661618Y-104627321D02*
X126794951Y-104627321D01*
X126852094Y-104836845D02*
X126661618Y-104836845D01*
X126661618Y-104836845D02*
X126661618Y-104436845D01*
X126661618Y-104436845D02*
X126852094Y-104436845D01*
X127023523Y-104627321D02*
X127156856Y-104627321D01*
X127213999Y-104836845D02*
X127023523Y-104836845D01*
X127023523Y-104836845D02*
X127023523Y-104436845D01*
X127023523Y-104436845D02*
X127213999Y-104436845D01*
X127385428Y-104836845D02*
X127385428Y-104436845D01*
X127385428Y-104436845D02*
X127537809Y-104436845D01*
X127537809Y-104436845D02*
X127575904Y-104455893D01*
X127575904Y-104455893D02*
X127594951Y-104474940D01*
X127594951Y-104474940D02*
X127613999Y-104513036D01*
X127613999Y-104513036D02*
X127613999Y-104570178D01*
X127613999Y-104570178D02*
X127594951Y-104608274D01*
X127594951Y-104608274D02*
X127575904Y-104627321D01*
X127575904Y-104627321D02*
X127537809Y-104646369D01*
X127537809Y-104646369D02*
X127385428Y-104646369D01*
X127861618Y-104436845D02*
X127937809Y-104436845D01*
X127937809Y-104436845D02*
X127975904Y-104455893D01*
X127975904Y-104455893D02*
X128013999Y-104493988D01*
X128013999Y-104493988D02*
X128033047Y-104570178D01*
X128033047Y-104570178D02*
X128033047Y-104703512D01*
X128033047Y-104703512D02*
X128013999Y-104779702D01*
X128013999Y-104779702D02*
X127975904Y-104817798D01*
X127975904Y-104817798D02*
X127937809Y-104836845D01*
X127937809Y-104836845D02*
X127861618Y-104836845D01*
X127861618Y-104836845D02*
X127823523Y-104817798D01*
X127823523Y-104817798D02*
X127785428Y-104779702D01*
X127785428Y-104779702D02*
X127766380Y-104703512D01*
X127766380Y-104703512D02*
X127766380Y-104570178D01*
X127766380Y-104570178D02*
X127785428Y-104493988D01*
X127785428Y-104493988D02*
X127823523Y-104455893D01*
X127823523Y-104455893D02*
X127861618Y-104436845D01*
X128204476Y-104436845D02*
X128204476Y-104760655D01*
X128204476Y-104760655D02*
X128223523Y-104798750D01*
X128223523Y-104798750D02*
X128242571Y-104817798D01*
X128242571Y-104817798D02*
X128280666Y-104836845D01*
X128280666Y-104836845D02*
X128356857Y-104836845D01*
X128356857Y-104836845D02*
X128394952Y-104817798D01*
X128394952Y-104817798D02*
X128413999Y-104798750D01*
X128413999Y-104798750D02*
X128433047Y-104760655D01*
X128433047Y-104760655D02*
X128433047Y-104436845D01*
X128566381Y-104436845D02*
X128794952Y-104436845D01*
X128680666Y-104836845D02*
X128680666Y-104436845D01*
X110168904Y-44349395D02*
X110168904Y-43949395D01*
X110397475Y-44349395D02*
X110226046Y-44120824D01*
X110397475Y-43949395D02*
X110168904Y-44177967D01*
X110568904Y-44139871D02*
X110702237Y-44139871D01*
X110759380Y-44349395D02*
X110568904Y-44349395D01*
X110568904Y-44349395D02*
X110568904Y-43949395D01*
X110568904Y-43949395D02*
X110759380Y-43949395D01*
X110930809Y-44139871D02*
X111064142Y-44139871D01*
X111121285Y-44349395D02*
X110930809Y-44349395D01*
X110930809Y-44349395D02*
X110930809Y-43949395D01*
X110930809Y-43949395D02*
X111121285Y-43949395D01*
X111292714Y-44349395D02*
X111292714Y-43949395D01*
X111292714Y-43949395D02*
X111445095Y-43949395D01*
X111445095Y-43949395D02*
X111483190Y-43968443D01*
X111483190Y-43968443D02*
X111502237Y-43987490D01*
X111502237Y-43987490D02*
X111521285Y-44025586D01*
X111521285Y-44025586D02*
X111521285Y-44082728D01*
X111521285Y-44082728D02*
X111502237Y-44120824D01*
X111502237Y-44120824D02*
X111483190Y-44139871D01*
X111483190Y-44139871D02*
X111445095Y-44158919D01*
X111445095Y-44158919D02*
X111292714Y-44158919D01*
X111768904Y-43949395D02*
X111845095Y-43949395D01*
X111845095Y-43949395D02*
X111883190Y-43968443D01*
X111883190Y-43968443D02*
X111921285Y-44006538D01*
X111921285Y-44006538D02*
X111940333Y-44082728D01*
X111940333Y-44082728D02*
X111940333Y-44216062D01*
X111940333Y-44216062D02*
X111921285Y-44292252D01*
X111921285Y-44292252D02*
X111883190Y-44330348D01*
X111883190Y-44330348D02*
X111845095Y-44349395D01*
X111845095Y-44349395D02*
X111768904Y-44349395D01*
X111768904Y-44349395D02*
X111730809Y-44330348D01*
X111730809Y-44330348D02*
X111692714Y-44292252D01*
X111692714Y-44292252D02*
X111673666Y-44216062D01*
X111673666Y-44216062D02*
X111673666Y-44082728D01*
X111673666Y-44082728D02*
X111692714Y-44006538D01*
X111692714Y-44006538D02*
X111730809Y-43968443D01*
X111730809Y-43968443D02*
X111768904Y-43949395D01*
X112111762Y-43949395D02*
X112111762Y-44273205D01*
X112111762Y-44273205D02*
X112130809Y-44311300D01*
X112130809Y-44311300D02*
X112149857Y-44330348D01*
X112149857Y-44330348D02*
X112187952Y-44349395D01*
X112187952Y-44349395D02*
X112264143Y-44349395D01*
X112264143Y-44349395D02*
X112302238Y-44330348D01*
X112302238Y-44330348D02*
X112321285Y-44311300D01*
X112321285Y-44311300D02*
X112340333Y-44273205D01*
X112340333Y-44273205D02*
X112340333Y-43949395D01*
X112473667Y-43949395D02*
X112702238Y-43949395D01*
X112587952Y-44349395D02*
X112587952Y-43949395D01*
X84918904Y-44349395D02*
X84918904Y-43949395D01*
X85147475Y-44349395D02*
X84976046Y-44120824D01*
X85147475Y-43949395D02*
X84918904Y-44177967D01*
X85318904Y-44139871D02*
X85452237Y-44139871D01*
X85509380Y-44349395D02*
X85318904Y-44349395D01*
X85318904Y-44349395D02*
X85318904Y-43949395D01*
X85318904Y-43949395D02*
X85509380Y-43949395D01*
X85680809Y-44139871D02*
X85814142Y-44139871D01*
X85871285Y-44349395D02*
X85680809Y-44349395D01*
X85680809Y-44349395D02*
X85680809Y-43949395D01*
X85680809Y-43949395D02*
X85871285Y-43949395D01*
X86042714Y-44349395D02*
X86042714Y-43949395D01*
X86042714Y-43949395D02*
X86195095Y-43949395D01*
X86195095Y-43949395D02*
X86233190Y-43968443D01*
X86233190Y-43968443D02*
X86252237Y-43987490D01*
X86252237Y-43987490D02*
X86271285Y-44025586D01*
X86271285Y-44025586D02*
X86271285Y-44082728D01*
X86271285Y-44082728D02*
X86252237Y-44120824D01*
X86252237Y-44120824D02*
X86233190Y-44139871D01*
X86233190Y-44139871D02*
X86195095Y-44158919D01*
X86195095Y-44158919D02*
X86042714Y-44158919D01*
X86518904Y-43949395D02*
X86595095Y-43949395D01*
X86595095Y-43949395D02*
X86633190Y-43968443D01*
X86633190Y-43968443D02*
X86671285Y-44006538D01*
X86671285Y-44006538D02*
X86690333Y-44082728D01*
X86690333Y-44082728D02*
X86690333Y-44216062D01*
X86690333Y-44216062D02*
X86671285Y-44292252D01*
X86671285Y-44292252D02*
X86633190Y-44330348D01*
X86633190Y-44330348D02*
X86595095Y-44349395D01*
X86595095Y-44349395D02*
X86518904Y-44349395D01*
X86518904Y-44349395D02*
X86480809Y-44330348D01*
X86480809Y-44330348D02*
X86442714Y-44292252D01*
X86442714Y-44292252D02*
X86423666Y-44216062D01*
X86423666Y-44216062D02*
X86423666Y-44082728D01*
X86423666Y-44082728D02*
X86442714Y-44006538D01*
X86442714Y-44006538D02*
X86480809Y-43968443D01*
X86480809Y-43968443D02*
X86518904Y-43949395D01*
X86861762Y-43949395D02*
X86861762Y-44273205D01*
X86861762Y-44273205D02*
X86880809Y-44311300D01*
X86880809Y-44311300D02*
X86899857Y-44330348D01*
X86899857Y-44330348D02*
X86937952Y-44349395D01*
X86937952Y-44349395D02*
X87014143Y-44349395D01*
X87014143Y-44349395D02*
X87052238Y-44330348D01*
X87052238Y-44330348D02*
X87071285Y-44311300D01*
X87071285Y-44311300D02*
X87090333Y-44273205D01*
X87090333Y-44273205D02*
X87090333Y-43949395D01*
X87223667Y-43949395D02*
X87452238Y-43949395D01*
X87337952Y-44349395D02*
X87337952Y-43949395D01*
M02*
