<?xml version="1.0" encoding="UTF-8" standalone="no"?>
<!DOCTYPE svg PUBLIC "-//W3C//DTD SVG 1.1//EN" "http://www.w3.org/Graphics/SVG/1.1/DTD/svg11.dtd">
<svg width="100%" height="100%" viewBox="0 0 452 451" version="1.1" xmlns="http://www.w3.org/2000/svg" xmlns:xlink="http://www.w3.org/1999/xlink" xml:space="preserve" xmlns:serif="http://www.serif.com/" style="fill-rule:evenodd;clip-rule:evenodd;stroke-linejoin:round;stroke-miterlimit:2;">
    <g transform="matrix(1,0,0,1,-73.0421,-444.158)">
        <g transform="matrix(0.270052,0,0,0.28017,-574.13,-1476.22)">
            <g id="Screwhead" transform="matrix(0.750373,0,0,0.720725,2605.53,5881.73)">
                <g>
                    <g transform="matrix(1.32419,0,0,1.32419,-202.562,1969.14)">
                        <path d="M608.477,542.245C567.07,498.795 541.637,439.993 541.637,375.297C541.637,241.684 650.115,133.207 783.728,133.207C917.341,133.207 1025.82,241.684 1025.82,375.297C1025.82,508.91 917.341,617.387 783.728,617.387C764.1,617.387 745.015,615.046 726.733,610.61L780.858,516.863L783.728,516.936C861.901,516.936 925.367,453.47 925.367,375.297C925.367,348.476 917.896,323.386 904.915,301.99L940.964,239.552L822.669,171.254L786.598,233.731L783.728,233.658C705.555,233.658 642.089,297.124 642.089,375.297C642.089,402.118 649.56,427.208 662.541,448.604L608.477,542.245Z"/>
                        <path d="M599.82,550.554L610.845,562.123L676.473,448.452L672.772,442.353C660.899,422.781 654.068,399.831 654.068,375.297C654.068,303.826 712.051,245.806 783.493,245.679C783.586,245.679 793.4,245.928 793.4,245.928L827.047,187.65C827.046,187.65 924.575,243.959 924.575,243.959C924.575,243.959 890.983,302.142 890.983,302.142L894.683,308.241C906.557,327.813 913.388,350.763 913.388,375.297C913.388,446.768 855.405,504.788 783.963,504.915C783.87,504.915 774.056,504.666 774.056,504.666L708.328,618.51L723.918,622.294C743.102,626.95 763.13,629.409 783.728,629.409C923.964,629.409 1037.8,515.533 1037.8,375.297C1037.8,235.061 923.964,121.185 783.728,121.185C643.492,121.185 529.659,235.061 529.659,375.297C529.659,443.212 556.352,504.941 599.82,550.554ZM608.477,542.245C567.07,498.795 541.637,439.993 541.637,375.297C541.637,241.684 650.115,133.207 783.728,133.207C917.341,133.207 1025.82,241.684 1025.82,375.297C1025.82,508.91 917.341,617.387 783.728,617.387C764.1,617.387 745.015,615.046 726.733,610.61L780.858,516.863L783.728,516.936C861.901,516.936 925.367,453.47 925.367,375.297C925.367,348.476 917.896,323.386 904.915,301.99L940.964,239.552L822.669,171.254L786.598,233.731L783.728,233.658C705.555,233.658 642.089,297.124 642.089,375.297C642.089,402.118 649.56,427.208 662.541,448.604L608.477,542.245Z" style="fill:white;"/>
                    </g>
                    <g>
                        <g transform="matrix(1,0,0,1,0,0.866057)">
                            <path d="M603.175,2686.31L839.04,2277.78C905.455,2279.07 963.444,2314.97 995.714,2368.17L759.769,2776.84C698.99,2762.16 644.946,2730.14 603.175,2686.31Z"/>
                            <path d="M830.001,2261.68L583.478,2688.67L591.712,2697.31C635.55,2743.31 692.272,2776.91 756.057,2792.31L767.561,2795.09L1014.16,2367.97L1009.26,2359.89C974.266,2302.2 911.375,2263.26 839.347,2261.86L830.001,2261.68ZM603.175,2686.31L839.04,2277.78C905.455,2279.07 963.444,2314.97 995.714,2368.17L759.769,2776.84C698.99,2762.16 644.946,2730.14 603.175,2686.31Z" style="fill:white;"/>
                        </g>
                        <g transform="matrix(0.866025,0.5,-0.5,0.866025,1344.52,-86.4744)">
                            <path d="M744.801,2157.65C804.776,2139.97 867.59,2140.69 925.679,2157.76L925.679,2300.94C871.134,2270.99 802.954,2268.88 744.801,2300.99L744.801,2157.65Z"/>
                            <path d="M740.284,2142.42L728.949,2145.76L728.949,2327.9L752.486,2314.91C805.73,2285.51 868.153,2287.44 918.093,2314.86L941.531,2327.72L941.531,2145.88L930.098,2142.52C869.14,2124.61 803.221,2123.87 740.284,2142.42ZM744.801,2157.65C804.776,2139.97 867.59,2140.69 925.679,2157.76L925.679,2300.94C871.134,2270.99 802.954,2268.88 744.801,2300.99L744.801,2157.65Z" style="fill:white;"/>
                        </g>
                    </g>
                </g>
            </g>
        </g>
    </g>
</svg>
